<?xml version="1.0" encoding="UTF-8" ?>
<svg version="1.1" width="50" height="37" xmlns="http://www.w3.org/2000/svg" shape-rendering="crispEdges">
<rect x="26" y="17" width="1" height="1" fill="#C9957F" />
<rect x="27" y="17" width="1" height="1" fill="#C9957F" />
<rect x="28" y="17" width="1" height="1" fill="#C9957F" />
<rect x="29" y="17" width="1" height="1" fill="#C9957F" />
<rect x="26" y="18" width="1" height="1" fill="#704634" />
<rect x="27" y="18" width="1" height="1" fill="#AB765E" />
<rect x="28" y="18" width="1" height="1" fill="#AB765E" />
<rect x="29" y="18" width="1" height="1" fill="#9E6451" />
<rect x="30" y="18" width="1" height="1" fill="#C9957F" />
<rect x="31" y="18" width="1" height="1" fill="#C9957F" />
<rect x="25" y="19" width="1" height="1" fill="#704634" />
<rect x="26" y="19" width="1" height="1" fill="#9E6451" />
<rect x="27" y="19" width="1" height="1" fill="#704634" />
<rect x="28" y="19" width="1" height="1" fill="#AB765E" />
<rect x="29" y="19" width="1" height="1" fill="#AB765E" />
<rect x="30" y="19" width="1" height="1" fill="#9E6451" />
<rect x="31" y="19" width="1" height="1" fill="#AB765E" />
<rect x="32" y="19" width="1" height="1" fill="#AB765E" />
<rect x="23" y="20" width="1" height="1" fill="#AB4343" />
<rect x="24" y="20" width="1" height="1" fill="#AB4343" />
<rect x="25" y="20" width="1" height="1" fill="#9E6451" />
<rect x="26" y="20" width="1" height="1" fill="#9E6451" />
<rect x="27" y="20" width="1" height="1" fill="#9E6451" />
<rect x="28" y="20" width="1" height="1" fill="#9E6451" />
<rect x="29" y="20" width="1" height="1" fill="#AB765E" />
<rect x="30" y="20" width="1" height="1" fill="#9E6451" />
<rect x="31" y="20" width="1" height="1" fill="#9E6451" />
<rect x="32" y="20" width="1" height="1" fill="#AB765E" />
<rect x="22" y="21" width="1" height="1" fill="#D95763" />
<rect x="23" y="21" width="1" height="1" fill="#AB4343" />
<rect x="24" y="21" width="1" height="1" fill="#AB4343" />
<rect x="25" y="21" width="1" height="1" fill="#704634" />
<rect x="26" y="21" width="1" height="1" fill="#9E6451" />
<rect x="27" y="21" width="1" height="1" fill="#9E6451" />
<rect x="28" y="21" width="1" height="1" fill="#704634" />
<rect x="29" y="21" width="1" height="1" fill="#704634" />
<rect x="30" y="21" width="1" height="1" fill="#9E6451" />
<rect x="31" y="21" width="1" height="1" fill="#704634" />
<rect x="32" y="21" width="1" height="1" fill="#AB765E" />
<rect x="18" y="22" width="1" height="1" fill="#9BADB7" />
<rect x="19" y="22" width="1" height="1" fill="#6B6970" />
<rect x="20" y="22" width="1" height="1" fill="#847E87" />
<rect x="21" y="22" width="1" height="1" fill="#847E87" />
<rect x="22" y="22" width="1" height="1" fill="#847E87" />
<rect x="23" y="22" width="1" height="1" fill="#847E87" />
<rect x="24" y="22" width="1" height="1" fill="#8F3232" />
<rect x="25" y="22" width="1" height="1" fill="#8F3232" />
<rect x="26" y="22" width="1" height="1" fill="#704634" />
<rect x="27" y="22" width="1" height="1" fill="#AB765E" />
<rect x="28" y="22" width="1" height="1" fill="#D6EBFF" />
<rect x="29" y="22" width="1" height="1" fill="#368899" />
<rect x="30" y="22" width="1" height="1" fill="#D9A066" />
<rect x="31" y="22" width="1" height="1" fill="#368899" />
<rect x="32" y="22" width="1" height="1" fill="#704634" />
<rect x="17" y="23" width="1" height="1" fill="#9BADB7" />
<rect x="18" y="23" width="1" height="1" fill="#6B6970" />
<rect x="19" y="23" width="1" height="1" fill="#6B6970" />
<rect x="20" y="23" width="1" height="1" fill="#595652" />
<rect x="21" y="23" width="1" height="1" fill="#847E87" />
<rect x="22" y="23" width="1" height="1" fill="#847E87" />
<rect x="23" y="23" width="1" height="1" fill="#6B6970" />
<rect x="24" y="23" width="1" height="1" fill="#AB4343" />
<rect x="25" y="23" width="1" height="1" fill="#8F3232" />
<rect x="26" y="23" width="1" height="1" fill="#704634" />
<rect x="27" y="23" width="1" height="1" fill="#704634" />
<rect x="28" y="23" width="1" height="1" fill="#EEC39A" />
<rect x="29" y="23" width="1" height="1" fill="#EEC39A" />
<rect x="30" y="23" width="1" height="1" fill="#EEC39A" />
<rect x="31" y="23" width="1" height="1" fill="#EEC39A" />
<rect x="14" y="24" width="1" height="1" fill="#C2C8F0" />
<rect x="15" y="24" width="1" height="1" fill="#B39932" />
<rect x="16" y="24" width="1" height="1" fill="#CBDBFC" />
<rect x="17" y="24" width="1" height="1" fill="#6B6970" />
<rect x="18" y="24" width="1" height="1" fill="#6B6970" />
<rect x="20" y="24" width="1" height="1" fill="#D95763" />
<rect x="21" y="24" width="1" height="1" fill="#595652" />
<rect x="22" y="24" width="1" height="1" fill="#6B6970" />
<rect x="23" y="24" width="1" height="1" fill="#6B6970" />
<rect x="24" y="24" width="1" height="1" fill="#8F563B" />
<rect x="25" y="24" width="1" height="1" fill="#AB4343" />
<rect x="26" y="24" width="1" height="1" fill="#8F3232" />
<rect x="27" y="24" width="1" height="1" fill="#8F3232" />
<rect x="28" y="24" width="1" height="1" fill="#D95763" />
<rect x="29" y="24" width="1" height="1" fill="#D9A066" />
<rect x="30" y="24" width="1" height="1" fill="#D9A066" />
<rect x="11" y="25" width="1" height="1" fill="#C2C8F0" />
<rect x="12" y="25" width="1" height="1" fill="#C2C8F0" />
<rect x="13" y="25" width="1" height="1" fill="#C2C8F0" />
<rect x="14" y="25" width="1" height="1" fill="#85909F" />
<rect x="15" y="25" width="1" height="1" fill="#B39932" />
<rect x="16" y="25" width="1" height="1" fill="#52401E" />
<rect x="17" y="25" width="1" height="1" fill="#6B6970" />
<rect x="18" y="25" width="1" height="1" fill="#52401E" />
<rect x="19" y="25" width="1" height="1" fill="#D95763" />
<rect x="20" y="25" width="1" height="1" fill="#8F3232" />
<rect x="21" y="25" width="1" height="1" fill="#AB4343" />
<rect x="22" y="25" width="1" height="1" fill="#595652" />
<rect x="23" y="25" width="1" height="1" fill="#6B6970" />
<rect x="24" y="25" width="1" height="1" fill="#804D36" />
<rect x="25" y="25" width="1" height="1" fill="#8F563B" />
<rect x="26" y="25" width="1" height="1" fill="#AB4343" />
<rect x="27" y="25" width="1" height="1" fill="#8F3232" />
<rect x="28" y="25" width="1" height="1" fill="#8F3232" />
<rect x="29" y="25" width="1" height="1" fill="#8F3232" />
<rect x="30" y="25" width="1" height="1" fill="#8F3232" />
<rect x="31" y="25" width="1" height="1" fill="#847E87" />
<rect x="7" y="26" width="1" height="1" fill="#C2C8F0" />
<rect x="8" y="26" width="1" height="1" fill="#A5AEEA" />
<rect x="9" y="26" width="1" height="1" fill="#C2C8F0" />
<rect x="10" y="26" width="1" height="1" fill="#C2C8F0" />
<rect x="11" y="26" width="1" height="1" fill="#85909F" />
<rect x="12" y="26" width="1" height="1" fill="#85909F" />
<rect x="13" y="26" width="1" height="1" fill="#85909F" />
<rect x="14" y="26" width="1" height="1" fill="#85909F" />
<rect x="15" y="26" width="1" height="1" fill="#B39932" />
<rect x="16" y="26" width="1" height="1" fill="#52401E" />
<rect x="18" y="26" width="1" height="1" fill="#D95763" />
<rect x="19" y="26" width="1" height="1" fill="#AB4343" />
<rect x="20" y="26" width="1" height="1" fill="#8F3232" />
<rect x="21" y="26" width="1" height="1" fill="#AB4343" />
<rect x="22" y="26" width="1" height="1" fill="#8F3232" />
<rect x="23" y="26" width="1" height="1" fill="#804D36" />
<rect x="24" y="26" width="1" height="1" fill="#9BADB7" />
<rect x="25" y="26" width="1" height="1" fill="#9BADB7" />
<rect x="26" y="26" width="1" height="1" fill="#8F563B" />
<rect x="27" y="26" width="1" height="1" fill="#AB4343" />
<rect x="28" y="26" width="1" height="1" fill="#AB4343" />
<rect x="29" y="26" width="1" height="1" fill="#847E87" />
<rect x="30" y="26" width="1" height="1" fill="#6B6970" />
<rect x="31" y="26" width="1" height="1" fill="#6B6970" />
<rect x="32" y="26" width="1" height="1" fill="#847E87" />
<rect x="4" y="27" width="1" height="1" fill="#C2C8F0" />
<rect x="5" y="27" width="1" height="1" fill="#C2C8F0" />
<rect x="6" y="27" width="1" height="1" fill="#C2C8F0" />
<rect x="7" y="27" width="1" height="1" fill="#C2C8F0" />
<rect x="8" y="27" width="1" height="1" fill="#A5AEEA" />
<rect x="9" y="27" width="1" height="1" fill="#85909F" />
<rect x="10" y="27" width="1" height="1" fill="#85909F" />
<rect x="11" y="27" width="1" height="1" fill="#85909F" />
<rect x="18" y="27" width="1" height="1" fill="#AB4343" />
<rect x="19" y="27" width="1" height="1" fill="#8F3232" />
<rect x="20" y="27" width="1" height="1" fill="#AB4343" />
<rect x="21" y="27" width="1" height="1" fill="#8F3232" />
<rect x="22" y="27" width="1" height="1" fill="#8F3232" />
<rect x="23" y="27" width="1" height="1" fill="#804D36" />
<rect x="24" y="27" width="1" height="1" fill="#804D36" />
<rect x="25" y="27" width="1" height="1" fill="#804D36" />
<rect x="26" y="27" width="1" height="1" fill="#555459" />
<rect x="27" y="27" width="1" height="1" fill="#9BADB7" />
<rect x="28" y="27" width="1" height="1" fill="#9BADB7" />
<rect x="29" y="27" width="1" height="1" fill="#595652" />
<rect x="30" y="27" width="1" height="1" fill="#595652" />
<rect x="31" y="27" width="1" height="1" fill="#CBDBFC" />
<rect x="32" y="27" width="1" height="1" fill="#CBDBFC" />
<rect x="33" y="27" width="1" height="1" fill="#CBDBFC" />
<rect x="3" y="28" width="1" height="1" fill="#85909F" />
<rect x="4" y="28" width="1" height="1" fill="#C2C8F0" />
<rect x="5" y="28" width="1" height="1" fill="#C2C8F0" />
<rect x="6" y="28" width="1" height="1" fill="#C2C8F0" />
<rect x="7" y="28" width="1" height="1" fill="#C2C8F0" />
<rect x="8" y="28" width="1" height="1" fill="#A5AEEA" />
<rect x="9" y="28" width="1" height="1" fill="#A5AEEA" />
<rect x="18" y="28" width="1" height="1" fill="#AB4343" />
<rect x="19" y="28" width="1" height="1" fill="#8F3232" />
<rect x="20" y="28" width="1" height="1" fill="#AB4343" />
<rect x="21" y="28" width="1" height="1" fill="#8F3232" />
<rect x="22" y="28" width="1" height="1" fill="#8F3232" />
<rect x="23" y="28" width="1" height="1" fill="#804D36" />
<rect x="24" y="28" width="1" height="1" fill="#8F563B" />
<rect x="25" y="28" width="1" height="1" fill="#555459" />
<rect x="26" y="28" width="1" height="1" fill="#804D36" />
<rect x="27" y="28" width="1" height="1" fill="#8F563B" />
<rect x="31" y="28" width="1" height="1" fill="#9BADB7" />
<rect x="32" y="28" width="1" height="1" fill="#CBDBFC" />
<rect x="33" y="28" width="1" height="1" fill="#9BADB7" />
<rect x="5" y="29" width="1" height="1" fill="#C2C8F0" />
<rect x="6" y="29" width="1" height="1" fill="#C2C8F0" />
<rect x="7" y="29" width="1" height="1" fill="#C2C8F0" />
<rect x="8" y="29" width="1" height="1" fill="#C2C8F0" />
<rect x="9" y="29" width="1" height="1" fill="#C2C8F0" />
<rect x="10" y="29" width="1" height="1" fill="#A5AEEA" />
<rect x="11" y="29" width="1" height="1" fill="#A5AEEA" />
<rect x="17" y="29" width="1" height="1" fill="#AB4343" />
<rect x="18" y="29" width="1" height="1" fill="#AB4343" />
<rect x="19" y="29" width="1" height="1" fill="#8F3232" />
<rect x="20" y="29" width="1" height="1" fill="#8F3232" />
<rect x="21" y="29" width="1" height="1" fill="#8F3232" />
<rect x="22" y="29" width="1" height="1" fill="#555459" />
<rect x="23" y="29" width="1" height="1" fill="#555459" />
<rect x="24" y="29" width="1" height="1" fill="#555459" />
<rect x="25" y="29" width="1" height="1" fill="#555459" />
<rect x="26" y="29" width="1" height="1" fill="#555459" />
<rect x="27" y="29" width="1" height="1" fill="#394643" />
<rect x="28" y="29" width="1" height="1" fill="#394643" />
<rect x="31" y="29" width="1" height="1" fill="#9BADB7" />
<rect x="32" y="29" width="1" height="1" fill="#9BADB7" />
<rect x="33" y="29" width="1" height="1" fill="#9BADB7" />
<rect x="6" y="30" width="1" height="1" fill="#C2C8F0" />
<rect x="7" y="30" width="1" height="1" fill="#C2C8F0" />
<rect x="8" y="30" width="1" height="1" fill="#C2C8F0" />
<rect x="9" y="30" width="1" height="1" fill="#C2C8F0" />
<rect x="10" y="30" width="1" height="1" fill="#C2C8F0" />
<rect x="11" y="30" width="1" height="1" fill="#A5AEEA" />
<rect x="17" y="30" width="1" height="1" fill="#AB4343" />
<rect x="18" y="30" width="1" height="1" fill="#8F3232" />
<rect x="19" y="30" width="1" height="1" fill="#8F3232" />
<rect x="20" y="30" width="1" height="1" fill="#8F3232" />
<rect x="21" y="30" width="1" height="1" fill="#8F3232" />
<rect x="22" y="30" width="1" height="1" fill="#303B38" />
<rect x="23" y="30" width="1" height="1" fill="#2F3A37" />
<rect x="24" y="30" width="1" height="1" fill="#2F3A37" />
<rect x="25" y="30" width="1" height="1" fill="#2E3936" />
<rect x="26" y="30" width="1" height="1" fill="#2F3A37" />
<rect x="27" y="30" width="1" height="1" fill="#2E3936" />
<rect x="28" y="30" width="1" height="1" fill="#394643" />
<rect x="29" y="30" width="1" height="1" fill="#394643" />
<rect x="31" y="30" width="1" height="1" fill="#595652" />
<rect x="32" y="30" width="1" height="1" fill="#595652" />
<rect x="33" y="30" width="1" height="1" fill="#595652" />
<rect x="7" y="31" width="1" height="1" fill="#C2C8F0" />
<rect x="8" y="31" width="1" height="1" fill="#C2C8F0" />
<rect x="9" y="31" width="1" height="1" fill="#C2C8F0" />
<rect x="10" y="31" width="1" height="1" fill="#C2C8F0" />
<rect x="11" y="31" width="1" height="1" fill="#C2C8F0" />
<rect x="12" y="31" width="1" height="1" fill="#A5AEEA" />
<rect x="13" y="31" width="1" height="1" fill="#A5AEEA" />
<rect x="14" y="31" width="1" height="1" fill="#A5AEEA" />
<rect x="15" y="31" width="1" height="1" fill="#A5AEEA" />
<rect x="16" y="31" width="1" height="1" fill="#A5AEEA" />
<rect x="17" y="31" width="1" height="1" fill="#A5AEEA" />
<rect x="18" y="31" width="1" height="1" fill="#8F3232" />
<rect x="19" y="31" width="1" height="1" fill="#8F3232" />
<rect x="20" y="31" width="1" height="1" fill="#8F3232" />
<rect x="21" y="31" width="1" height="1" fill="#8F3232" />
<rect x="22" y="31" width="1" height="1" fill="#8F3232" />
<rect x="23" y="31" width="1" height="1" fill="#2F3A37" />
<rect x="24" y="31" width="1" height="1" fill="#303B38" />
<rect x="25" y="31" width="1" height="1" fill="#303B38" />
<rect x="26" y="31" width="1" height="1" fill="#303B38" />
<rect x="27" y="31" width="1" height="1" fill="#2F3A37" />
<rect x="28" y="31" width="1" height="1" fill="#2F3A37" />
<rect x="29" y="31" width="1" height="1" fill="#374946" />
<rect x="30" y="31" width="1" height="1" fill="#384744" />
<rect x="10" y="32" width="1" height="1" fill="#C2C8F0" />
<rect x="11" y="32" width="1" height="1" fill="#C2C8F0" />
<rect x="12" y="32" width="1" height="1" fill="#C2C8F0" />
<rect x="13" y="32" width="1" height="1" fill="#C2C8F0" />
<rect x="14" y="32" width="1" height="1" fill="#C2C8F0" />
<rect x="15" y="32" width="1" height="1" fill="#A5AEEA" />
<rect x="16" y="32" width="1" height="1" fill="#A5AEEA" />
<rect x="17" y="32" width="1" height="1" fill="#A5AEEA" />
<rect x="18" y="32" width="1" height="1" fill="#A5AEEA" />
<rect x="19" y="32" width="1" height="1" fill="#A5AEEA" />
<rect x="20" y="32" width="1" height="1" fill="#303B38" />
<rect x="21" y="32" width="1" height="1" fill="#2F3A37" />
<rect x="22" y="32" width="1" height="1" fill="#313C39" />
<rect x="23" y="32" width="1" height="1" fill="#313C39" />
<rect x="28" y="32" width="1" height="1" fill="#313C39" />
<rect x="29" y="32" width="1" height="1" fill="#384744" />
<rect x="30" y="32" width="1" height="1" fill="#7D5039" />
<rect x="31" y="32" width="1" height="1" fill="#7C513A" />
<rect x="12" y="33" width="1" height="1" fill="#C2C8F0" />
<rect x="13" y="33" width="1" height="1" fill="#C2C8F0" />
<rect x="14" y="33" width="1" height="1" fill="#C2C8F0" />
<rect x="15" y="33" width="1" height="1" fill="#C2C8F0" />
<rect x="16" y="33" width="1" height="1" fill="#C2C8F0" />
<rect x="17" y="33" width="1" height="1" fill="#C2C8F0" />
<rect x="18" y="33" width="1" height="1" fill="#C2C8F0" />
<rect x="19" y="33" width="1" height="1" fill="#C2C8F0" />
<rect x="20" y="33" width="1" height="1" fill="#A5AEEA" />
<rect x="21" y="33" width="1" height="1" fill="#A5AEEA" />
<rect x="22" y="33" width="1" height="1" fill="#A5AEEA" />
<rect x="23" y="33" width="1" height="1" fill="#A5AEEA" />
<rect x="29" y="33" width="1" height="1" fill="#7E4F38" />
<rect x="30" y="33" width="1" height="1" fill="#7B523B" />
<rect x="31" y="33" width="1" height="1" fill="#5F432D" />
<rect x="15" y="34" width="1" height="1" fill="#7F4E37" />
<rect x="16" y="34" width="1" height="1" fill="#7E4F38" />
<rect x="17" y="34" width="1" height="1" fill="#7D5039" />
<rect x="18" y="34" width="1" height="1" fill="#7D5039" />
<rect x="29" y="34" width="1" height="1" fill="#61412B" />
<rect x="30" y="34" width="1" height="1" fill="#804D36" />
<rect x="15" y="35" width="1" height="1" fill="#60422C" />
<rect x="16" y="35" width="1" height="1" fill="#60422C" />
<rect x="30" y="35" width="1" height="1" fill="#61412B" />
<rect x="31" y="35" width="1" height="1" fill="#804D36" />
</svg>