<?xml version="1.0" encoding="UTF-8" ?>
<svg version="1.1" width="50" height="37" xmlns="http://www.w3.org/2000/svg" shape-rendering="crispEdges">
<rect x="29" y="0" width="1" height="1" fill="#C2C8F0" />
<rect x="30" y="0" width="1" height="1" fill="#C2C8F0" />
<rect x="31" y="0" width="1" height="1" fill="#C2C8F0" />
<rect x="32" y="0" width="1" height="1" fill="#C2C8F0" />
<rect x="33" y="0" width="1" height="1" fill="#C2C8F0" />
<rect x="34" y="0" width="1" height="1" fill="#C2C8F0" />
<rect x="35" y="0" width="1" height="1" fill="#C2C8F0" />
<rect x="36" y="0" width="1" height="1" fill="#C2C8F0" />
<rect x="26" y="1" width="1" height="1" fill="#C2C8F0" />
<rect x="27" y="1" width="1" height="1" fill="#C2C8F0" />
<rect x="28" y="1" width="1" height="1" fill="#C2C8F0" />
<rect x="29" y="1" width="1" height="1" fill="#C2C8F0" />
<rect x="30" y="1" width="1" height="1" fill="#C2C8F0" />
<rect x="31" y="1" width="1" height="1" fill="#C2C8F0" />
<rect x="32" y="1" width="1" height="1" fill="#C2C8F0" />
<rect x="33" y="1" width="1" height="1" fill="#C2C8F0" />
<rect x="34" y="1" width="1" height="1" fill="#C2C8F0" />
<rect x="35" y="1" width="1" height="1" fill="#C2C8F0" />
<rect x="36" y="1" width="1" height="1" fill="#C2C8F0" />
<rect x="37" y="1" width="1" height="1" fill="#C2C8F0" />
<rect x="38" y="1" width="1" height="1" fill="#C2C8F0" />
<rect x="39" y="1" width="1" height="1" fill="#C2C8F0" />
<rect x="24" y="2" width="1" height="1" fill="#A5AEEA" />
<rect x="25" y="2" width="1" height="1" fill="#A5AEEA" />
<rect x="26" y="2" width="1" height="1" fill="#A5AEEA" />
<rect x="27" y="2" width="1" height="1" fill="#A5AEEA" />
<rect x="28" y="2" width="1" height="1" fill="#A5AEEA" />
<rect x="29" y="2" width="1" height="1" fill="#C2C8F0" />
<rect x="30" y="2" width="1" height="1" fill="#C2C8F0" />
<rect x="31" y="2" width="1" height="1" fill="#C2C8F0" />
<rect x="32" y="2" width="1" height="1" fill="#C2C8F0" />
<rect x="33" y="2" width="1" height="1" fill="#C2C8F0" />
<rect x="34" y="2" width="1" height="1" fill="#C2C8F0" />
<rect x="35" y="2" width="1" height="1" fill="#C2C8F0" />
<rect x="36" y="2" width="1" height="1" fill="#C2C8F0" />
<rect x="37" y="2" width="1" height="1" fill="#C2C8F0" />
<rect x="38" y="2" width="1" height="1" fill="#C2C8F0" />
<rect x="39" y="2" width="1" height="1" fill="#C2C8F0" />
<rect x="40" y="2" width="1" height="1" fill="#C2C8F0" />
<rect x="41" y="2" width="1" height="1" fill="#C2C8F0" />
<rect x="23" y="3" width="1" height="1" fill="#A5AEEA" />
<rect x="24" y="3" width="1" height="1" fill="#A5AEEA" />
<rect x="25" y="3" width="1" height="1" fill="#A5AEEA" />
<rect x="26" y="3" width="1" height="1" fill="#A5AEEA" />
<rect x="27" y="3" width="1" height="1" fill="#A5AEEA" />
<rect x="28" y="3" width="1" height="1" fill="#A5AEEA" />
<rect x="29" y="3" width="1" height="1" fill="#A5AEEA" />
<rect x="30" y="3" width="1" height="1" fill="#A5AEEA" />
<rect x="31" y="3" width="1" height="1" fill="#A5AEEA" />
<rect x="32" y="3" width="1" height="1" fill="#C2C8F0" />
<rect x="33" y="3" width="1" height="1" fill="#C2C8F0" />
<rect x="34" y="3" width="1" height="1" fill="#C2C8F0" />
<rect x="35" y="3" width="1" height="1" fill="#C2C8F0" />
<rect x="36" y="3" width="1" height="1" fill="#C2C8F0" />
<rect x="37" y="3" width="1" height="1" fill="#C2C8F0" />
<rect x="38" y="3" width="1" height="1" fill="#C2C8F0" />
<rect x="22" y="4" width="1" height="1" fill="#A5AEEA" />
<rect x="23" y="4" width="1" height="1" fill="#A5AEEA" />
<rect x="24" y="4" width="1" height="1" fill="#A5AEEA" />
<rect x="25" y="4" width="1" height="1" fill="#A5AEEA" />
<rect x="26" y="4" width="1" height="1" fill="#A5AEEA" />
<rect x="27" y="4" width="1" height="1" fill="#A5AEEA" />
<rect x="28" y="4" width="1" height="1" fill="#A5AEEA" />
<rect x="29" y="4" width="1" height="1" fill="#A5AEEA" />
<rect x="30" y="4" width="1" height="1" fill="#A5AEEA" />
<rect x="31" y="4" width="1" height="1" fill="#A5AEEA" />
<rect x="21" y="5" width="1" height="1" fill="#C2C8F0" />
<rect x="22" y="5" width="1" height="1" fill="#C2C8F0" />
<rect x="23" y="5" width="1" height="1" fill="#C2C8F0" />
<rect x="24" y="5" width="1" height="1" fill="#A5AEEA" />
<rect x="25" y="5" width="1" height="1" fill="#A5AEEA" />
<rect x="26" y="5" width="1" height="1" fill="#A5AEEA" />
<rect x="27" y="5" width="1" height="1" fill="#A5AEEA" />
<rect x="28" y="5" width="1" height="1" fill="#A5AEEA" />
<rect x="29" y="5" width="1" height="1" fill="#A5AEEA" />
<rect x="30" y="5" width="1" height="1" fill="#A5AEEA" />
<rect x="21" y="6" width="1" height="1" fill="#C2C8F0" />
<rect x="22" y="6" width="1" height="1" fill="#85909F" />
<rect x="23" y="6" width="1" height="1" fill="#85909F" />
<rect x="24" y="6" width="1" height="1" fill="#C2C8F0" />
<rect x="25" y="6" width="1" height="1" fill="#A5AEEA" />
<rect x="26" y="6" width="1" height="1" fill="#A5AEEA" />
<rect x="27" y="6" width="1" height="1" fill="#A5AEEA" />
<rect x="22" y="7" width="1" height="1" fill="#C2C8F0" />
<rect x="23" y="7" width="1" height="1" fill="#A5AEEA" />
<rect x="24" y="7" width="1" height="1" fill="#85909F" />
<rect x="25" y="7" width="1" height="1" fill="#85909F" />
<rect x="26" y="7" width="1" height="1" fill="#A5AEEA" />
<rect x="24" y="8" width="1" height="1" fill="#C2C8F0" />
<rect x="25" y="8" width="1" height="1" fill="#C2C8F0" />
<rect x="26" y="8" width="1" height="1" fill="#85909F" />
<rect x="27" y="8" width="1" height="1" fill="#85909F" />
<rect x="28" y="8" width="1" height="1" fill="#C2C8F0" />
<rect x="26" y="9" width="1" height="1" fill="#C2C8F0" />
<rect x="27" y="9" width="1" height="1" fill="#C2C8F0" />
<rect x="28" y="9" width="1" height="1" fill="#85909F" />
<rect x="29" y="9" width="1" height="1" fill="#85909F" />
<rect x="30" y="9" width="1" height="1" fill="#C2C8F0" />
<rect x="31" y="9" width="1" height="1" fill="#B39932" />
<rect x="28" y="10" width="1" height="1" fill="#C2C8F0" />
<rect x="29" y="10" width="1" height="1" fill="#C2C8F0" />
<rect x="30" y="10" width="1" height="1" fill="#9BADB7" />
<rect x="31" y="10" width="1" height="1" fill="#CBDBFC" />
<rect x="32" y="10" width="1" height="1" fill="#6B6970" />
<rect x="27" y="11" width="1" height="1" fill="#C9957F" />
<rect x="28" y="11" width="1" height="1" fill="#C9957F" />
<rect x="29" y="11" width="1" height="1" fill="#C9957F" />
<rect x="30" y="11" width="1" height="1" fill="#C9957F" />
<rect x="31" y="11" width="1" height="1" fill="#9BADB7" />
<rect x="32" y="11" width="1" height="1" fill="#CBDBFC" />
<rect x="27" y="12" width="1" height="1" fill="#704634" />
<rect x="28" y="12" width="1" height="1" fill="#AB765E" />
<rect x="29" y="12" width="1" height="1" fill="#AB765E" />
<rect x="30" y="12" width="1" height="1" fill="#9E6451" />
<rect x="31" y="12" width="1" height="1" fill="#9BADB7" />
<rect x="32" y="12" width="1" height="1" fill="#9BADB7" />
<rect x="33" y="12" width="1" height="1" fill="#CBDBFC" />
<rect x="26" y="13" width="1" height="1" fill="#704634" />
<rect x="27" y="13" width="1" height="1" fill="#9E6451" />
<rect x="28" y="13" width="1" height="1" fill="#704634" />
<rect x="29" y="13" width="1" height="1" fill="#AB765E" />
<rect x="30" y="13" width="1" height="1" fill="#AB765E" />
<rect x="31" y="13" width="1" height="1" fill="#9E6451" />
<rect x="32" y="13" width="1" height="1" fill="#9BADB7" />
<rect x="33" y="13" width="1" height="1" fill="#CBDBFC" />
<rect x="34" y="13" width="1" height="1" fill="#CBDBFC" />
<rect x="26" y="14" width="1" height="1" fill="#9E6451" />
<rect x="27" y="14" width="1" height="1" fill="#9E6451" />
<rect x="28" y="14" width="1" height="1" fill="#9E6451" />
<rect x="29" y="14" width="1" height="1" fill="#9E6451" />
<rect x="30" y="14" width="1" height="1" fill="#AB765E" />
<rect x="31" y="14" width="1" height="1" fill="#9E6451" />
<rect x="32" y="14" width="1" height="1" fill="#9E6451" />
<rect x="33" y="14" width="1" height="1" fill="#9BADB7" />
<rect x="34" y="14" width="1" height="1" fill="#9BADB7" />
<rect x="26" y="15" width="1" height="1" fill="#704634" />
<rect x="27" y="15" width="1" height="1" fill="#9E6451" />
<rect x="28" y="15" width="1" height="1" fill="#9E6451" />
<rect x="29" y="15" width="1" height="1" fill="#704634" />
<rect x="30" y="15" width="1" height="1" fill="#704634" />
<rect x="31" y="15" width="1" height="1" fill="#9E6451" />
<rect x="32" y="15" width="1" height="1" fill="#595652" />
<rect x="33" y="15" width="1" height="1" fill="#595652" />
<rect x="34" y="15" width="1" height="1" fill="#847E87" />
<rect x="24" y="16" width="1" height="1" fill="#AB4343" />
<rect x="25" y="16" width="1" height="1" fill="#AB4343" />
<rect x="26" y="16" width="1" height="1" fill="#8F3232" />
<rect x="27" y="16" width="1" height="1" fill="#704634" />
<rect x="28" y="16" width="1" height="1" fill="#AB765E" />
<rect x="29" y="16" width="1" height="1" fill="#D6EBFF" />
<rect x="30" y="16" width="1" height="1" fill="#368899" />
<rect x="31" y="16" width="1" height="1" fill="#595652" />
<rect x="32" y="16" width="1" height="1" fill="#6B6970" />
<rect x="33" y="16" width="1" height="1" fill="#847E87" />
<rect x="23" y="17" width="1" height="1" fill="#D95763" />
<rect x="24" y="17" width="1" height="1" fill="#AB4343" />
<rect x="25" y="17" width="1" height="1" fill="#804D36" />
<rect x="26" y="17" width="1" height="1" fill="#AB4343" />
<rect x="27" y="17" width="1" height="1" fill="#704634" />
<rect x="28" y="17" width="1" height="1" fill="#704634" />
<rect x="29" y="17" width="1" height="1" fill="#EEC39A" />
<rect x="30" y="17" width="1" height="1" fill="#EEC39A" />
<rect x="31" y="17" width="1" height="1" fill="#6B6970" />
<rect x="32" y="17" width="1" height="1" fill="#595652" />
<rect x="33" y="17" width="1" height="1" fill="#847E87" />
<rect x="22" y="18" width="1" height="1" fill="#D95763" />
<rect x="23" y="18" width="1" height="1" fill="#AB4343" />
<rect x="24" y="18" width="1" height="1" fill="#8F3232" />
<rect x="25" y="18" width="1" height="1" fill="#804D36" />
<rect x="26" y="18" width="1" height="1" fill="#847E87" />
<rect x="27" y="18" width="1" height="1" fill="#AB4343" />
<rect x="28" y="18" width="1" height="1" fill="#8F3232" />
<rect x="29" y="18" width="1" height="1" fill="#8F3232" />
<rect x="30" y="18" width="1" height="1" fill="#6B6970" />
<rect x="31" y="18" width="1" height="1" fill="#595652" />
<rect x="32" y="18" width="1" height="1" fill="#847E87" />
<rect x="21" y="19" width="1" height="1" fill="#D95763" />
<rect x="22" y="19" width="1" height="1" fill="#8F3232" />
<rect x="23" y="19" width="1" height="1" fill="#8F3232" />
<rect x="24" y="19" width="1" height="1" fill="#8F3232" />
<rect x="25" y="19" width="1" height="1" fill="#804D36" />
<rect x="26" y="19" width="1" height="1" fill="#847E87" />
<rect x="27" y="19" width="1" height="1" fill="#6B6970" />
<rect x="28" y="19" width="1" height="1" fill="#6B6970" />
<rect x="29" y="19" width="1" height="1" fill="#6B6970" />
<rect x="30" y="19" width="1" height="1" fill="#6B6970" />
<rect x="31" y="19" width="1" height="1" fill="#595652" />
<rect x="32" y="19" width="1" height="1" fill="#847E87" />
<rect x="21" y="20" width="1" height="1" fill="#D95763" />
<rect x="22" y="20" width="1" height="1" fill="#8F3232" />
<rect x="23" y="20" width="1" height="1" fill="#AB4343" />
<rect x="24" y="20" width="1" height="1" fill="#8F3232" />
<rect x="25" y="20" width="1" height="1" fill="#804D36" />
<rect x="26" y="20" width="1" height="1" fill="#9BADB7" />
<rect x="27" y="20" width="1" height="1" fill="#595652" />
<rect x="28" y="20" width="1" height="1" fill="#595652" />
<rect x="29" y="20" width="1" height="1" fill="#595652" />
<rect x="30" y="20" width="1" height="1" fill="#AB4343" />
<rect x="31" y="20" width="1" height="1" fill="#AB4343" />
<rect x="20" y="21" width="1" height="1" fill="#D95763" />
<rect x="21" y="21" width="1" height="1" fill="#8F3232" />
<rect x="22" y="21" width="1" height="1" fill="#AB4343" />
<rect x="23" y="21" width="1" height="1" fill="#AB4343" />
<rect x="24" y="21" width="1" height="1" fill="#804D36" />
<rect x="25" y="21" width="1" height="1" fill="#804D36" />
<rect x="26" y="21" width="1" height="1" fill="#804D36" />
<rect x="27" y="21" width="1" height="1" fill="#804D36" />
<rect x="28" y="21" width="1" height="1" fill="#804D36" />
<rect x="29" y="21" width="1" height="1" fill="#555459" />
<rect x="30" y="21" width="1" height="1" fill="#804D36" />
<rect x="19" y="22" width="1" height="1" fill="#D95763" />
<rect x="20" y="22" width="1" height="1" fill="#AB4343" />
<rect x="21" y="22" width="1" height="1" fill="#8F3232" />
<rect x="22" y="22" width="1" height="1" fill="#AB4343" />
<rect x="23" y="22" width="1" height="1" fill="#8F3232" />
<rect x="24" y="22" width="1" height="1" fill="#804D36" />
<rect x="25" y="22" width="1" height="1" fill="#8F563B" />
<rect x="26" y="22" width="1" height="1" fill="#8F563B" />
<rect x="27" y="22" width="1" height="1" fill="#804D36" />
<rect x="28" y="22" width="1" height="1" fill="#555459" />
<rect x="29" y="22" width="1" height="1" fill="#555459" />
<rect x="30" y="22" width="1" height="1" fill="#804D36" />
<rect x="19" y="23" width="1" height="1" fill="#AB4343" />
<rect x="20" y="23" width="1" height="1" fill="#8F3232" />
<rect x="21" y="23" width="1" height="1" fill="#AB4343" />
<rect x="22" y="23" width="1" height="1" fill="#8F3232" />
<rect x="23" y="23" width="1" height="1" fill="#8F3232" />
<rect x="24" y="23" width="1" height="1" fill="#804D36" />
<rect x="25" y="23" width="1" height="1" fill="#8F563B" />
<rect x="26" y="23" width="1" height="1" fill="#8F563B" />
<rect x="27" y="23" width="1" height="1" fill="#804D36" />
<rect x="28" y="23" width="1" height="1" fill="#847E87" />
<rect x="29" y="23" width="1" height="1" fill="#6B6970" />
<rect x="30" y="23" width="1" height="1" fill="#804D36" />
<rect x="19" y="24" width="1" height="1" fill="#AB4343" />
<rect x="20" y="24" width="1" height="1" fill="#8F3232" />
<rect x="21" y="24" width="1" height="1" fill="#AB4343" />
<rect x="22" y="24" width="1" height="1" fill="#8F3232" />
<rect x="23" y="24" width="1" height="1" fill="#8F3232" />
<rect x="24" y="24" width="1" height="1" fill="#8F563B" />
<rect x="25" y="24" width="1" height="1" fill="#804D36" />
<rect x="26" y="24" width="1" height="1" fill="#8F563B" />
<rect x="27" y="24" width="1" height="1" fill="#847E87" />
<rect x="28" y="24" width="1" height="1" fill="#847E87" />
<rect x="29" y="24" width="1" height="1" fill="#555459" />
<rect x="30" y="24" width="1" height="1" fill="#8F563B" />
<rect x="18" y="25" width="1" height="1" fill="#AB4343" />
<rect x="19" y="25" width="1" height="1" fill="#AB4343" />
<rect x="20" y="25" width="1" height="1" fill="#8F3232" />
<rect x="21" y="25" width="1" height="1" fill="#8F3232" />
<rect x="22" y="25" width="1" height="1" fill="#8F3232" />
<rect x="24" y="25" width="1" height="1" fill="#555459" />
<rect x="25" y="25" width="1" height="1" fill="#555459" />
<rect x="26" y="25" width="1" height="1" fill="#555459" />
<rect x="27" y="25" width="1" height="1" fill="#6B6970" />
<rect x="28" y="25" width="1" height="1" fill="#6B6970" />
<rect x="29" y="25" width="1" height="1" fill="#6B6970" />
<rect x="30" y="25" width="1" height="1" fill="#804D36" />
<rect x="18" y="26" width="1" height="1" fill="#AB4343" />
<rect x="19" y="26" width="1" height="1" fill="#8F3232" />
<rect x="20" y="26" width="1" height="1" fill="#8F3232" />
<rect x="21" y="26" width="1" height="1" fill="#8F3232" />
<rect x="22" y="26" width="1" height="1" fill="#8F3232" />
<rect x="24" y="26" width="1" height="1" fill="#384744" />
<rect x="25" y="26" width="1" height="1" fill="#394643" />
<rect x="26" y="26" width="1" height="1" fill="#2E3936" />
<rect x="27" y="26" width="1" height="1" fill="#2E3936" />
<rect x="28" y="26" width="1" height="1" fill="#2E3936" />
<rect x="29" y="26" width="1" height="1" fill="#2E3936" />
<rect x="30" y="26" width="1" height="1" fill="#2F3A37" />
<rect x="18" y="27" width="1" height="1" fill="#AB4343" />
<rect x="19" y="27" width="1" height="1" fill="#8F3232" />
<rect x="20" y="27" width="1" height="1" fill="#8F3232" />
<rect x="21" y="27" width="1" height="1" fill="#8F3232" />
<rect x="22" y="27" width="1" height="1" fill="#8F3232" />
<rect x="23" y="27" width="1" height="1" fill="#8F3232" />
<rect x="24" y="27" width="1" height="1" fill="#2F3A37" />
<rect x="25" y="27" width="1" height="1" fill="#2F3A37" />
<rect x="26" y="27" width="1" height="1" fill="#2F3A37" />
<rect x="27" y="27" width="1" height="1" fill="#2E3936" />
<rect x="28" y="27" width="1" height="1" fill="#2E3936" />
<rect x="29" y="27" width="1" height="1" fill="#2E3936" />
<rect x="30" y="27" width="1" height="1" fill="#2F3A37" />
<rect x="31" y="27" width="1" height="1" fill="#384744" />
<rect x="19" y="28" width="1" height="1" fill="#8F3232" />
<rect x="20" y="28" width="1" height="1" fill="#8F3232" />
<rect x="22" y="28" width="1" height="1" fill="#384744" />
<rect x="23" y="28" width="1" height="1" fill="#2F3A37" />
<rect x="24" y="28" width="1" height="1" fill="#2F3A37" />
<rect x="25" y="28" width="1" height="1" fill="#2F3A37" />
<rect x="26" y="28" width="1" height="1" fill="#2F3A37" />
<rect x="27" y="28" width="1" height="1" fill="#2F3A37" />
<rect x="28" y="28" width="1" height="1" fill="#2F3A37" />
<rect x="29" y="28" width="1" height="1" fill="#2F3A37" />
<rect x="30" y="28" width="1" height="1" fill="#2F3A37" />
<rect x="31" y="28" width="1" height="1" fill="#394643" />
<rect x="21" y="29" width="1" height="1" fill="#374845" />
<rect x="22" y="29" width="1" height="1" fill="#2F3A37" />
<rect x="23" y="29" width="1" height="1" fill="#2F3A37" />
<rect x="24" y="29" width="1" height="1" fill="#2F3A37" />
<rect x="25" y="29" width="1" height="1" fill="#2F3A37" />
<rect x="26" y="29" width="1" height="1" fill="#2F3A37" />
<rect x="27" y="29" width="1" height="1" fill="#2F3A37" />
<rect x="28" y="29" width="1" height="1" fill="#2F3A37" />
<rect x="29" y="29" width="1" height="1" fill="#2F3A37" />
<rect x="30" y="29" width="1" height="1" fill="#2F3A37" />
<rect x="31" y="29" width="1" height="1" fill="#394643" />
<rect x="20" y="30" width="1" height="1" fill="#374946" />
<rect x="21" y="30" width="1" height="1" fill="#2F3A37" />
<rect x="22" y="30" width="1" height="1" fill="#2F3A37" />
<rect x="23" y="30" width="1" height="1" fill="#2F3A37" />
<rect x="24" y="30" width="1" height="1" fill="#2F3A37" />
<rect x="25" y="30" width="1" height="1" fill="#303B38" />
<rect x="28" y="30" width="1" height="1" fill="#303B38" />
<rect x="29" y="30" width="1" height="1" fill="#303B38" />
<rect x="30" y="30" width="1" height="1" fill="#303B38" />
<rect x="31" y="30" width="1" height="1" fill="#394643" />
<rect x="19" y="31" width="1" height="1" fill="#7F4E37" />
<rect x="20" y="31" width="1" height="1" fill="#303B38" />
<rect x="21" y="31" width="1" height="1" fill="#303B38" />
<rect x="22" y="31" width="1" height="1" fill="#303B38" />
<rect x="23" y="31" width="1" height="1" fill="#303B38" />
<rect x="30" y="31" width="1" height="1" fill="#303B38" />
<rect x="31" y="31" width="1" height="1" fill="#7C513A" />
<rect x="17" y="32" width="1" height="1" fill="#8E5F48" />
<rect x="18" y="32" width="1" height="1" fill="#8E5F48" />
<rect x="19" y="32" width="1" height="1" fill="#7E4F38" />
<rect x="20" y="32" width="1" height="1" fill="#7E4F38" />
<rect x="30" y="32" width="1" height="1" fill="#60422C" />
<rect x="31" y="32" width="1" height="1" fill="#7C513A" />
<rect x="16" y="33" width="1" height="1" fill="#8F5E47" />
<rect x="17" y="33" width="1" height="1" fill="#7E4F38" />
<rect x="18" y="33" width="1" height="1" fill="#7F4E37" />
<rect x="19" y="33" width="1" height="1" fill="#7E4F38" />
<rect x="30" y="33" width="1" height="1" fill="#61412B" />
<rect x="31" y="33" width="1" height="1" fill="#804D36" />
<rect x="15" y="34" width="1" height="1" fill="#7F4E37" />
<rect x="16" y="34" width="1" height="1" fill="#7E4F38" />
<rect x="30" y="34" width="1" height="1" fill="#61412B" />
<rect x="31" y="34" width="1" height="1" fill="#804D36" />
<rect x="15" y="35" width="1" height="1" fill="#60422C" />
<rect x="16" y="35" width="1" height="1" fill="#7D5039" />
<rect x="31" y="35" width="1" height="1" fill="#61412B" />
<rect x="32" y="35" width="1" height="1" fill="#804D36" />
</svg>