<?xml version="1.0" encoding="UTF-8" ?>
<svg version="1.1" width="50" height="37" xmlns="http://www.w3.org/2000/svg" shape-rendering="crispEdges">
<rect x="29" y="10" width="1" height="1" fill="#C9957F" />
<rect x="30" y="10" width="1" height="1" fill="#C9957F" />
<rect x="31" y="10" width="1" height="1" fill="#C9957F" />
<rect x="32" y="10" width="1" height="1" fill="#704634" />
<rect x="33" y="10" width="1" height="1" fill="#704634" />
<rect x="27" y="11" width="1" height="1" fill="#C9957F" />
<rect x="28" y="11" width="1" height="1" fill="#C9957F" />
<rect x="29" y="11" width="1" height="1" fill="#AB765E" />
<rect x="30" y="11" width="1" height="1" fill="#AB765E" />
<rect x="31" y="11" width="1" height="1" fill="#9E6451" />
<rect x="32" y="11" width="1" height="1" fill="#704634" />
<rect x="33" y="11" width="1" height="1" fill="#704634" />
<rect x="26" y="12" width="1" height="1" fill="#C9957F" />
<rect x="27" y="12" width="1" height="1" fill="#9E6451" />
<rect x="28" y="12" width="1" height="1" fill="#AB765E" />
<rect x="29" y="12" width="1" height="1" fill="#AB765E" />
<rect x="30" y="12" width="1" height="1" fill="#9E6451" />
<rect x="31" y="12" width="1" height="1" fill="#704634" />
<rect x="32" y="12" width="1" height="1" fill="#9E6451" />
<rect x="33" y="12" width="1" height="1" fill="#704634" />
<rect x="26" y="13" width="1" height="1" fill="#9E6451" />
<rect x="27" y="13" width="1" height="1" fill="#AB765E" />
<rect x="28" y="13" width="1" height="1" fill="#9E6451" />
<rect x="29" y="13" width="1" height="1" fill="#AB765E" />
<rect x="30" y="13" width="1" height="1" fill="#704634" />
<rect x="31" y="13" width="1" height="1" fill="#AB765E" />
<rect x="32" y="13" width="1" height="1" fill="#AB765E" />
<rect x="33" y="13" width="1" height="1" fill="#AB765E" />
<rect x="34" y="13" width="1" height="1" fill="#704634" />
<rect x="25" y="14" width="1" height="1" fill="#CBDBFC" />
<rect x="26" y="14" width="1" height="1" fill="#9E6451" />
<rect x="27" y="14" width="1" height="1" fill="#704634" />
<rect x="28" y="14" width="1" height="1" fill="#9E6451" />
<rect x="29" y="14" width="1" height="1" fill="#704634" />
<rect x="30" y="14" width="1" height="1" fill="#704634" />
<rect x="31" y="14" width="1" height="1" fill="#9E6451" />
<rect x="32" y="14" width="1" height="1" fill="#AB765E" />
<rect x="33" y="14" width="1" height="1" fill="#704634" />
<rect x="34" y="14" width="1" height="1" fill="#704634" />
<rect x="24" y="15" width="1" height="1" fill="#CBDBFC" />
<rect x="25" y="15" width="1" height="1" fill="#CBDBFC" />
<rect x="26" y="15" width="1" height="1" fill="#6B6970" />
<rect x="27" y="15" width="1" height="1" fill="#368899" />
<rect x="28" y="15" width="1" height="1" fill="#D6EBFF" />
<rect x="29" y="15" width="1" height="1" fill="#D9A066" />
<rect x="30" y="15" width="1" height="1" fill="#9E6451" />
<rect x="31" y="15" width="1" height="1" fill="#9E6451" />
<rect x="32" y="15" width="1" height="1" fill="#704634" />
<rect x="33" y="15" width="1" height="1" fill="#704634" />
<rect x="34" y="15" width="1" height="1" fill="#8F3232" />
<rect x="20" y="16" width="1" height="1" fill="#52401E" />
<rect x="21" y="16" width="1" height="1" fill="#52401E" />
<rect x="23" y="16" width="1" height="1" fill="#CBDBFC" />
<rect x="24" y="16" width="1" height="1" fill="#CBDBFC" />
<rect x="25" y="16" width="1" height="1" fill="#9BADB7" />
<rect x="26" y="16" width="1" height="1" fill="#595652" />
<rect x="27" y="16" width="1" height="1" fill="#EEC39A" />
<rect x="28" y="16" width="1" height="1" fill="#EEC39A" />
<rect x="29" y="16" width="1" height="1" fill="#9E6451" />
<rect x="30" y="16" width="1" height="1" fill="#704634" />
<rect x="31" y="16" width="1" height="1" fill="#704634" />
<rect x="32" y="16" width="1" height="1" fill="#704634" />
<rect x="33" y="16" width="1" height="1" fill="#8F3232" />
<rect x="34" y="16" width="1" height="1" fill="#8F3232" />
<rect x="21" y="17" width="1" height="1" fill="#52401E" />
<rect x="22" y="17" width="1" height="1" fill="#B39932" />
<rect x="23" y="17" width="1" height="1" fill="#B39932" />
<rect x="24" y="17" width="1" height="1" fill="#9BADB7" />
<rect x="27" y="17" width="1" height="1" fill="#AB4343" />
<rect x="28" y="17" width="1" height="1" fill="#D9A066" />
<rect x="29" y="17" width="1" height="1" fill="#9E6451" />
<rect x="30" y="17" width="1" height="1" fill="#8F3232" />
<rect x="31" y="17" width="1" height="1" fill="#8F3232" />
<rect x="32" y="17" width="1" height="1" fill="#8F3232" />
<rect x="33" y="17" width="1" height="1" fill="#8F3232" />
<rect x="34" y="17" width="1" height="1" fill="#8F3232" />
<rect x="35" y="17" width="1" height="1" fill="#8F3232" />
<rect x="22" y="18" width="1" height="1" fill="#B39932" />
<rect x="23" y="18" width="1" height="1" fill="#85909F" />
<rect x="27" y="18" width="1" height="1" fill="#8F3232" />
<rect x="28" y="18" width="1" height="1" fill="#AB4343" />
<rect x="29" y="18" width="1" height="1" fill="#AB4343" />
<rect x="30" y="18" width="1" height="1" fill="#AB4343" />
<rect x="31" y="18" width="1" height="1" fill="#AB4343" />
<rect x="32" y="18" width="1" height="1" fill="#8F3232" />
<rect x="33" y="18" width="1" height="1" fill="#847E87" />
<rect x="34" y="18" width="1" height="1" fill="#8F3232" />
<rect x="35" y="18" width="1" height="1" fill="#8F3232" />
<rect x="36" y="18" width="1" height="1" fill="#8F3232" />
<rect x="22" y="19" width="1" height="1" fill="#C2C8F0" />
<rect x="23" y="19" width="1" height="1" fill="#85909F" />
<rect x="24" y="19" width="1" height="1" fill="#C2C8F0" />
<rect x="27" y="19" width="1" height="1" fill="#AB4343" />
<rect x="28" y="19" width="1" height="1" fill="#8F3232" />
<rect x="29" y="19" width="1" height="1" fill="#8F3232" />
<rect x="30" y="19" width="1" height="1" fill="#8F3232" />
<rect x="31" y="19" width="1" height="1" fill="#8F3232" />
<rect x="32" y="19" width="1" height="1" fill="#6B6970" />
<rect x="33" y="19" width="1" height="1" fill="#6B6970" />
<rect x="34" y="19" width="1" height="1" fill="#847E87" />
<rect x="35" y="19" width="1" height="1" fill="#8F3232" />
<rect x="36" y="19" width="1" height="1" fill="#8F3232" />
<rect x="23" y="20" width="1" height="1" fill="#C2C8F0" />
<rect x="24" y="20" width="1" height="1" fill="#A5AEEA" />
<rect x="25" y="20" width="1" height="1" fill="#C2C8F0" />
<rect x="27" y="20" width="1" height="1" fill="#555459" />
<rect x="28" y="20" width="1" height="1" fill="#555459" />
<rect x="29" y="20" width="1" height="1" fill="#9BADB7" />
<rect x="30" y="20" width="1" height="1" fill="#804D36" />
<rect x="31" y="20" width="1" height="1" fill="#9BADB7" />
<rect x="32" y="20" width="1" height="1" fill="#595652" />
<rect x="33" y="20" width="1" height="1" fill="#6B6970" />
<rect x="34" y="20" width="1" height="1" fill="#6B6970" />
<rect x="35" y="20" width="1" height="1" fill="#AB4343" />
<rect x="36" y="20" width="1" height="1" fill="#8F3232" />
<rect x="37" y="20" width="1" height="1" fill="#8F3232" />
<rect x="23" y="21" width="1" height="1" fill="#C2C8F0" />
<rect x="24" y="21" width="1" height="1" fill="#85909F" />
<rect x="25" y="21" width="1" height="1" fill="#A5AEEA" />
<rect x="27" y="21" width="1" height="1" fill="#847E87" />
<rect x="28" y="21" width="1" height="1" fill="#804D36" />
<rect x="29" y="21" width="1" height="1" fill="#9BADB7" />
<rect x="30" y="21" width="1" height="1" fill="#9BADB7" />
<rect x="31" y="21" width="1" height="1" fill="#804D36" />
<rect x="32" y="21" width="1" height="1" fill="#AB4343" />
<rect x="33" y="21" width="1" height="1" fill="#CBDBFC" />
<rect x="34" y="21" width="1" height="1" fill="#CBDBFC" />
<rect x="35" y="21" width="1" height="1" fill="#847E87" />
<rect x="36" y="21" width="1" height="1" fill="#8F3232" />
<rect x="37" y="21" width="1" height="1" fill="#8F3232" />
<rect x="24" y="22" width="1" height="1" fill="#C2C8F0" />
<rect x="25" y="22" width="1" height="1" fill="#85909F" />
<rect x="26" y="22" width="1" height="1" fill="#C2C8F0" />
<rect x="27" y="22" width="1" height="1" fill="#8F563B" />
<rect x="28" y="22" width="1" height="1" fill="#8F563B" />
<rect x="29" y="22" width="1" height="1" fill="#8F563B" />
<rect x="30" y="22" width="1" height="1" fill="#8F563B" />
<rect x="31" y="22" width="1" height="1" fill="#804D36" />
<rect x="32" y="22" width="1" height="1" fill="#CBDBFC" />
<rect x="33" y="22" width="1" height="1" fill="#CBDBFC" />
<rect x="34" y="22" width="1" height="1" fill="#CBDBFC" />
<rect x="35" y="22" width="1" height="1" fill="#9BADB7" />
<rect x="36" y="22" width="1" height="1" fill="#8F3232" />
<rect x="37" y="22" width="1" height="1" fill="#AB4343" />
<rect x="38" y="22" width="1" height="1" fill="#8F3232" />
<rect x="24" y="23" width="1" height="1" fill="#C2C8F0" />
<rect x="25" y="23" width="1" height="1" fill="#85909F" />
<rect x="26" y="23" width="1" height="1" fill="#A5AEEA" />
<rect x="27" y="23" width="1" height="1" fill="#804D36" />
<rect x="28" y="23" width="1" height="1" fill="#8F563B" />
<rect x="29" y="23" width="1" height="1" fill="#8F563B" />
<rect x="30" y="23" width="1" height="1" fill="#8F563B" />
<rect x="31" y="23" width="1" height="1" fill="#804D36" />
<rect x="32" y="23" width="1" height="1" fill="#9BADB7" />
<rect x="33" y="23" width="1" height="1" fill="#9BADB7" />
<rect x="34" y="23" width="1" height="1" fill="#9BADB7" />
<rect x="35" y="23" width="1" height="1" fill="#8F3232" />
<rect x="36" y="23" width="1" height="1" fill="#8F3232" />
<rect x="37" y="23" width="1" height="1" fill="#8F3232" />
<rect x="38" y="23" width="1" height="1" fill="#AB4343" />
<rect x="39" y="23" width="1" height="1" fill="#8F3232" />
<rect x="25" y="24" width="1" height="1" fill="#A5AEEA" />
<rect x="26" y="24" width="1" height="1" fill="#85909F" />
<rect x="27" y="24" width="1" height="1" fill="#555459" />
<rect x="28" y="24" width="1" height="1" fill="#8F563B" />
<rect x="29" y="24" width="1" height="1" fill="#804D36" />
<rect x="30" y="24" width="1" height="1" fill="#8F563B" />
<rect x="31" y="24" width="1" height="1" fill="#804D36" />
<rect x="32" y="24" width="1" height="1" fill="#6B6970" />
<rect x="33" y="24" width="1" height="1" fill="#595652" />
<rect x="34" y="24" width="1" height="1" fill="#595652" />
<rect x="35" y="24" width="1" height="1" fill="#8F3232" />
<rect x="36" y="24" width="1" height="1" fill="#8F3232" />
<rect x="37" y="24" width="1" height="1" fill="#8F3232" />
<rect x="38" y="24" width="1" height="1" fill="#AB4343" />
<rect x="39" y="24" width="1" height="1" fill="#8F3232" />
<rect x="24" y="25" width="1" height="1" fill="#384744" />
<rect x="25" y="25" width="1" height="1" fill="#C2C8F0" />
<rect x="26" y="25" width="1" height="1" fill="#85909F" />
<rect x="27" y="25" width="1" height="1" fill="#C2C8F0" />
<rect x="28" y="25" width="1" height="1" fill="#8F563B" />
<rect x="29" y="25" width="1" height="1" fill="#804D36" />
<rect x="30" y="25" width="1" height="1" fill="#804D36" />
<rect x="31" y="25" width="1" height="1" fill="#804D36" />
<rect x="36" y="25" width="1" height="1" fill="#8F3232" />
<rect x="37" y="25" width="1" height="1" fill="#AB4343" />
<rect x="38" y="25" width="1" height="1" fill="#8F3232" />
<rect x="39" y="25" width="1" height="1" fill="#8F3232" />
<rect x="23" y="26" width="1" height="1" fill="#384744" />
<rect x="24" y="26" width="1" height="1" fill="#323D3A" />
<rect x="25" y="26" width="1" height="1" fill="#323D3A" />
<rect x="26" y="26" width="1" height="1" fill="#C2C8F0" />
<rect x="27" y="26" width="1" height="1" fill="#C2C8F0" />
<rect x="28" y="26" width="1" height="1" fill="#313C39" />
<rect x="29" y="26" width="1" height="1" fill="#313C39" />
<rect x="30" y="26" width="1" height="1" fill="#313C39" />
<rect x="37" y="26" width="1" height="1" fill="#8F3232" />
<rect x="38" y="26" width="1" height="1" fill="#AB4343" />
<rect x="39" y="26" width="1" height="1" fill="#8F3232" />
<rect x="21" y="27" width="1" height="1" fill="#7D5039" />
<rect x="22" y="27" width="1" height="1" fill="#7D5039" />
<rect x="23" y="27" width="1" height="1" fill="#313C39" />
<rect x="24" y="27" width="1" height="1" fill="#323D3A" />
<rect x="25" y="27" width="1" height="1" fill="#323D3A" />
<rect x="26" y="27" width="1" height="1" fill="#313C39" />
<rect x="27" y="27" width="1" height="1" fill="#313C39" />
<rect x="28" y="27" width="1" height="1" fill="#313C39" />
<rect x="29" y="27" width="1" height="1" fill="#313C39" />
<rect x="30" y="27" width="1" height="1" fill="#384744" />
<rect x="37" y="27" width="1" height="1" fill="#8F3232" />
<rect x="39" y="27" width="1" height="1" fill="#8F3232" />
<rect x="22" y="28" width="1" height="1" fill="#7D5039" />
<rect x="23" y="28" width="1" height="1" fill="#7D5039" />
<rect x="24" y="28" width="1" height="1" fill="#60422C" />
<rect x="26" y="28" width="1" height="1" fill="#313C39" />
<rect x="27" y="28" width="1" height="1" fill="#313C39" />
<rect x="28" y="28" width="1" height="1" fill="#384744" />
<rect x="29" y="28" width="1" height="1" fill="#384744" />
<rect x="24" y="29" width="1" height="1" fill="#7D5039" />
<rect x="25" y="29" width="1" height="1" fill="#60422C" />
<rect x="26" y="29" width="1" height="1" fill="#313C39" />
<rect x="27" y="29" width="1" height="1" fill="#384744" />
<rect x="28" y="29" width="1" height="1" fill="#384744" />
<rect x="24" y="30" width="1" height="1" fill="#7D5039" />
<rect x="25" y="30" width="1" height="1" fill="#313C39" />
<rect x="26" y="30" width="1" height="1" fill="#313C39" />
<rect x="27" y="30" width="1" height="1" fill="#384744" />
<rect x="24" y="31" width="1" height="1" fill="#7D5039" />
<rect x="25" y="31" width="1" height="1" fill="#313C39" />
<rect x="26" y="31" width="1" height="1" fill="#313C39" />
<rect x="27" y="31" width="1" height="1" fill="#384744" />
<rect x="24" y="32" width="1" height="1" fill="#7D5039" />
<rect x="25" y="32" width="1" height="1" fill="#7D5039" />
<rect x="26" y="32" width="1" height="1" fill="#7D5039" />
<rect x="24" y="33" width="1" height="1" fill="#8C614A" />
<rect x="25" y="33" width="1" height="1" fill="#7D5039" />
<rect x="23" y="34" width="1" height="1" fill="#8C614A" />
<rect x="24" y="34" width="1" height="1" fill="#7D5039" />
<rect x="25" y="34" width="1" height="1" fill="#7D5039" />
<rect x="22" y="35" width="1" height="1" fill="#8D6049" />
<rect x="23" y="35" width="1" height="1" fill="#7D5039" />
<rect x="24" y="35" width="1" height="1" fill="#5F432D" />
</svg>