<?xml version="1.0" encoding="UTF-8" ?>
<svg version="1.1" width="55" height="55" xmlns="http://www.w3.org/2000/svg" shape-rendering="crispEdges">
<rect x="24" y="0" width="1" height="1" fill="#6F3037" />
<rect x="25" y="0" width="1" height="1" fill="#6F3037" />
<rect x="26" y="0" width="1" height="1" fill="#6F3037" />
<rect x="27" y="0" width="1" height="1" fill="#6F3037" />
<rect x="24" y="1" width="1" height="1" fill="#6F3037" />
<rect x="25" y="1" width="1" height="1" fill="#6F3037" />
<rect x="27" y="1" width="1" height="1" fill="#6F3037" />
<rect x="28" y="1" width="1" height="1" fill="#6F3037" />
<rect x="28" y="2" width="1" height="1" fill="#6F3037" />
<rect x="29" y="2" width="1" height="1" fill="#6F3037" />
<rect x="29" y="3" width="1" height="1" fill="#6F3037" />
<rect x="13" y="4" width="1" height="1" fill="#6F3037" />
<rect x="14" y="4" width="1" height="1" fill="#6F3037" />
<rect x="29" y="4" width="1" height="1" fill="#6F3037" />
<rect x="30" y="4" width="1" height="1" fill="#6F3037" />
<rect x="12" y="5" width="1" height="1" fill="#6F3037" />
<rect x="13" y="5" width="1" height="1" fill="#6F3037" />
<rect x="14" y="5" width="1" height="1" fill="#6F3037" />
<rect x="15" y="5" width="1" height="1" fill="#6F3037" />
<rect x="29" y="5" width="1" height="1" fill="#6F3037" />
<rect x="30" y="5" width="1" height="1" fill="#6F3037" />
<rect x="11" y="6" width="1" height="1" fill="#6F3037" />
<rect x="12" y="6" width="1" height="1" fill="#6F3037" />
<rect x="15" y="6" width="1" height="1" fill="#6F3037" />
<rect x="16" y="6" width="1" height="1" fill="#6F3037" />
<rect x="29" y="6" width="1" height="1" fill="#6F3037" />
<rect x="30" y="6" width="1" height="1" fill="#6F3037" />
<rect x="43" y="6" width="1" height="1" fill="#6F3037" />
<rect x="44" y="6" width="1" height="1" fill="#6F3037" />
<rect x="45" y="6" width="1" height="1" fill="#6F3037" />
<rect x="11" y="7" width="1" height="1" fill="#6F3037" />
<rect x="17" y="7" width="1" height="1" fill="#6F3037" />
<rect x="18" y="7" width="1" height="1" fill="#6F3037" />
<rect x="30" y="7" width="1" height="1" fill="#6F3037" />
<rect x="33" y="7" width="1" height="1" fill="#6F3037" />
<rect x="34" y="7" width="1" height="1" fill="#6F3037" />
<rect x="35" y="7" width="1" height="1" fill="#6F3037" />
<rect x="42" y="7" width="1" height="1" fill="#6F3037" />
<rect x="43" y="7" width="1" height="1" fill="#6F3037" />
<rect x="44" y="7" width="1" height="1" fill="#6F3037" />
<rect x="45" y="7" width="1" height="1" fill="#6F3037" />
<rect x="46" y="7" width="1" height="1" fill="#6F3037" />
<rect x="18" y="8" width="1" height="1" fill="#6F3037" />
<rect x="26" y="8" width="1" height="1" fill="#6F3037" />
<rect x="27" y="8" width="1" height="1" fill="#6F3037" />
<rect x="28" y="8" width="1" height="1" fill="#6F3037" />
<rect x="29" y="8" width="1" height="1" fill="#6F3037" />
<rect x="30" y="8" width="1" height="1" fill="#6F3037" />
<rect x="31" y="8" width="1" height="1" fill="#6F3037" />
<rect x="32" y="8" width="1" height="1" fill="#6F3037" />
<rect x="33" y="8" width="1" height="1" fill="#6F3037" />
<rect x="35" y="8" width="1" height="1" fill="#6F3037" />
<rect x="36" y="8" width="1" height="1" fill="#6F3037" />
<rect x="41" y="8" width="1" height="1" fill="#6F3037" />
<rect x="42" y="8" width="1" height="1" fill="#6F3037" />
<rect x="45" y="8" width="1" height="1" fill="#6F3037" />
<rect x="46" y="8" width="1" height="1" fill="#6F3037" />
<rect x="19" y="9" width="1" height="1" fill="#6F3037" />
<rect x="25" y="9" width="1" height="1" fill="#6F3037" />
<rect x="26" y="9" width="1" height="1" fill="#6F3037" />
<rect x="30" y="9" width="1" height="1" fill="#6F3037" />
<rect x="31" y="9" width="1" height="1" fill="#6F3037" />
<rect x="36" y="9" width="1" height="1" fill="#6F3037" />
<rect x="37" y="9" width="1" height="1" fill="#6F3037" />
<rect x="41" y="9" width="1" height="1" fill="#6F3037" />
<rect x="24" y="10" width="1" height="1" fill="#6F3037" />
<rect x="37" y="10" width="1" height="1" fill="#6F3037" />
<rect x="41" y="10" width="1" height="1" fill="#6F3037" />
<rect x="20" y="11" width="1" height="1" fill="#6F3037" />
<rect x="8" y="12" width="1" height="1" fill="#6F3037" />
<rect x="9" y="12" width="1" height="1" fill="#6F3037" />
<rect x="10" y="12" width="1" height="1" fill="#6F3037" />
<rect x="39" y="12" width="1" height="1" fill="#6F3037" />
<rect x="8" y="13" width="1" height="1" fill="#6F3037" />
<rect x="11" y="13" width="1" height="1" fill="#6F3037" />
<rect x="12" y="13" width="1" height="1" fill="#6F3037" />
<rect x="38" y="13" width="1" height="1" fill="#6F3037" />
<rect x="39" y="13" width="1" height="1" fill="#6F3037" />
<rect x="12" y="14" width="1" height="1" fill="#6F3037" />
<rect x="14" y="14" width="1" height="1" fill="#6F3037" />
<rect x="15" y="14" width="1" height="1" fill="#6F3037" />
<rect x="16" y="14" width="1" height="1" fill="#6F3037" />
<rect x="38" y="14" width="1" height="1" fill="#6F3037" />
<rect x="43" y="14" width="1" height="1" fill="#6F3037" />
<rect x="44" y="14" width="1" height="1" fill="#6F3037" />
<rect x="45" y="14" width="1" height="1" fill="#6F3037" />
<rect x="5" y="15" width="1" height="1" fill="#6F3037" />
<rect x="6" y="15" width="1" height="1" fill="#6F3037" />
<rect x="7" y="15" width="1" height="1" fill="#6F3037" />
<rect x="12" y="15" width="1" height="1" fill="#6F3037" />
<rect x="13" y="15" width="1" height="1" fill="#6F3037" />
<rect x="14" y="15" width="1" height="1" fill="#6F3037" />
<rect x="39" y="15" width="1" height="1" fill="#6F3037" />
<rect x="40" y="15" width="1" height="1" fill="#6F3037" />
<rect x="41" y="15" width="1" height="1" fill="#6F3037" />
<rect x="44" y="15" width="1" height="1" fill="#6F3037" />
<rect x="45" y="15" width="1" height="1" fill="#6F3037" />
<rect x="3" y="16" width="1" height="1" fill="#6F3037" />
<rect x="4" y="16" width="1" height="1" fill="#6F3037" />
<rect x="5" y="16" width="1" height="1" fill="#6F3037" />
<rect x="6" y="16" width="1" height="1" fill="#6F3037" />
<rect x="7" y="16" width="1" height="1" fill="#6F3037" />
<rect x="8" y="16" width="1" height="1" fill="#6F3037" />
<rect x="10" y="16" width="1" height="1" fill="#6F3037" />
<rect x="11" y="16" width="1" height="1" fill="#6F3037" />
<rect x="2" y="17" width="1" height="1" fill="#6F3037" />
<rect x="3" y="17" width="1" height="1" fill="#6F3037" />
<rect x="4" y="17" width="1" height="1" fill="#6F3037" />
<rect x="7" y="17" width="1" height="1" fill="#6F3037" />
<rect x="8" y="17" width="1" height="1" fill="#6F3037" />
<rect x="9" y="17" width="1" height="1" fill="#6F3037" />
<rect x="3" y="18" width="1" height="1" fill="#6F3037" />
<rect x="47" y="18" width="1" height="1" fill="#6F3037" />
<rect x="48" y="18" width="1" height="1" fill="#6F3037" />
<rect x="49" y="18" width="1" height="1" fill="#6F3037" />
<rect x="50" y="18" width="1" height="1" fill="#6F3037" />
<rect x="51" y="18" width="1" height="1" fill="#6F3037" />
<rect x="46" y="19" width="1" height="1" fill="#6F3037" />
<rect x="47" y="19" width="1" height="1" fill="#6F3037" />
<rect x="50" y="19" width="1" height="1" fill="#6F3037" />
<rect x="51" y="19" width="1" height="1" fill="#6F3037" />
<rect x="45" y="20" width="1" height="1" fill="#6F3037" />
<rect x="46" y="20" width="1" height="1" fill="#6F3037" />
<rect x="51" y="20" width="1" height="1" fill="#6F3037" />
<rect x="52" y="20" width="1" height="1" fill="#6F3037" />
<rect x="25" y="21" width="1" height="1" fill="#612128" />
<rect x="26" y="21" width="1" height="1" fill="#612128" />
<rect x="27" y="21" width="1" height="1" fill="#612128" />
<rect x="28" y="21" width="1" height="1" fill="#612128" />
<rect x="29" y="21" width="1" height="1" fill="#612128" />
<rect x="30" y="21" width="1" height="1" fill="#612128" />
<rect x="44" y="21" width="1" height="1" fill="#6F3037" />
<rect x="45" y="21" width="1" height="1" fill="#6F3037" />
<rect x="46" y="21" width="1" height="1" fill="#6F3037" />
<rect x="52" y="21" width="1" height="1" fill="#6F3037" />
<rect x="22" y="22" width="1" height="1" fill="#612128" />
<rect x="23" y="22" width="1" height="1" fill="#612128" />
<rect x="24" y="22" width="1" height="1" fill="#612128" />
<rect x="25" y="22" width="1" height="1" fill="#612128" />
<rect x="26" y="22" width="1" height="1" fill="#612128" />
<rect x="27" y="22" width="1" height="1" fill="#612128" />
<rect x="28" y="22" width="1" height="1" fill="#612128" />
<rect x="29" y="22" width="1" height="1" fill="#612128" />
<rect x="30" y="22" width="1" height="1" fill="#612128" />
<rect x="31" y="22" width="1" height="1" fill="#612128" />
<rect x="32" y="22" width="1" height="1" fill="#612128" />
<rect x="33" y="22" width="1" height="1" fill="#612128" />
<rect x="42" y="22" width="1" height="1" fill="#6F3037" />
<rect x="43" y="22" width="1" height="1" fill="#6F3037" />
<rect x="44" y="22" width="1" height="1" fill="#6F3037" />
<rect x="45" y="22" width="1" height="1" fill="#6F3037" />
<rect x="20" y="23" width="1" height="1" fill="#612128" />
<rect x="21" y="23" width="1" height="1" fill="#612128" />
<rect x="22" y="23" width="1" height="1" fill="#612128" />
<rect x="23" y="23" width="1" height="1" fill="#612128" />
<rect x="24" y="23" width="1" height="1" fill="#612128" />
<rect x="25" y="23" width="1" height="1" fill="#612128" />
<rect x="26" y="23" width="1" height="1" fill="#612128" />
<rect x="27" y="23" width="1" height="1" fill="#612128" />
<rect x="28" y="23" width="1" height="1" fill="#612128" />
<rect x="29" y="23" width="1" height="1" fill="#612128" />
<rect x="30" y="23" width="1" height="1" fill="#612128" />
<rect x="31" y="23" width="1" height="1" fill="#612128" />
<rect x="32" y="23" width="1" height="1" fill="#612128" />
<rect x="33" y="23" width="1" height="1" fill="#612128" />
<rect x="34" y="23" width="1" height="1" fill="#612128" />
<rect x="35" y="23" width="1" height="1" fill="#612128" />
<rect x="43" y="23" width="1" height="1" fill="#6F3037" />
<rect x="44" y="23" width="1" height="1" fill="#6F3037" />
<rect x="20" y="24" width="1" height="1" fill="#612128" />
<rect x="21" y="24" width="1" height="1" fill="#612128" />
<rect x="22" y="24" width="1" height="1" fill="#612128" />
<rect x="23" y="24" width="1" height="1" fill="#612128" />
<rect x="24" y="24" width="1" height="1" fill="#612128" />
<rect x="25" y="24" width="1" height="1" fill="#612128" />
<rect x="26" y="24" width="1" height="1" fill="#612128" />
<rect x="27" y="24" width="1" height="1" fill="#612128" />
<rect x="28" y="24" width="1" height="1" fill="#612128" />
<rect x="29" y="24" width="1" height="1" fill="#612128" />
<rect x="30" y="24" width="1" height="1" fill="#612128" />
<rect x="31" y="24" width="1" height="1" fill="#612128" />
<rect x="32" y="24" width="1" height="1" fill="#612128" />
<rect x="33" y="24" width="1" height="1" fill="#612128" />
<rect x="34" y="24" width="1" height="1" fill="#612128" />
<rect x="35" y="24" width="1" height="1" fill="#612128" />
<rect x="43" y="24" width="1" height="1" fill="#6F3037" />
<rect x="18" y="25" width="1" height="1" fill="#612128" />
<rect x="19" y="25" width="1" height="1" fill="#612128" />
<rect x="20" y="25" width="1" height="1" fill="#612128" />
<rect x="21" y="25" width="1" height="1" fill="#612128" />
<rect x="22" y="25" width="1" height="1" fill="#612128" />
<rect x="23" y="25" width="1" height="1" fill="#612128" />
<rect x="24" y="25" width="1" height="1" fill="#612128" />
<rect x="25" y="25" width="1" height="1" fill="#612128" />
<rect x="26" y="25" width="1" height="1" fill="#612128" />
<rect x="27" y="25" width="1" height="1" fill="#612128" />
<rect x="28" y="25" width="1" height="1" fill="#612128" />
<rect x="29" y="25" width="1" height="1" fill="#612128" />
<rect x="30" y="25" width="1" height="1" fill="#612128" />
<rect x="31" y="25" width="1" height="1" fill="#612128" />
<rect x="32" y="25" width="1" height="1" fill="#612128" />
<rect x="33" y="25" width="1" height="1" fill="#612128" />
<rect x="34" y="25" width="1" height="1" fill="#612128" />
<rect x="35" y="25" width="1" height="1" fill="#612128" />
<rect x="36" y="25" width="1" height="1" fill="#612128" />
<rect x="37" y="25" width="1" height="1" fill="#612128" />
<rect x="43" y="25" width="1" height="1" fill="#6F3037" />
<rect x="17" y="26" width="1" height="1" fill="#341014" />
<rect x="18" y="26" width="1" height="1" fill="#612128" />
<rect x="19" y="26" width="1" height="1" fill="#612128" />
<rect x="20" y="26" width="1" height="1" fill="#612128" />
<rect x="21" y="26" width="1" height="1" fill="#612128" />
<rect x="22" y="26" width="1" height="1" fill="#612128" />
<rect x="23" y="26" width="1" height="1" fill="#612128" />
<rect x="24" y="26" width="1" height="1" fill="#612128" />
<rect x="25" y="26" width="1" height="1" fill="#612128" />
<rect x="26" y="26" width="1" height="1" fill="#612128" />
<rect x="27" y="26" width="1" height="1" fill="#612128" />
<rect x="28" y="26" width="1" height="1" fill="#612128" />
<rect x="29" y="26" width="1" height="1" fill="#612128" />
<rect x="30" y="26" width="1" height="1" fill="#612128" />
<rect x="31" y="26" width="1" height="1" fill="#612128" />
<rect x="32" y="26" width="1" height="1" fill="#612128" />
<rect x="33" y="26" width="1" height="1" fill="#612128" />
<rect x="34" y="26" width="1" height="1" fill="#612128" />
<rect x="35" y="26" width="1" height="1" fill="#612128" />
<rect x="36" y="26" width="1" height="1" fill="#612128" />
<rect x="37" y="26" width="1" height="1" fill="#612128" />
<rect x="38" y="26" width="1" height="1" fill="#612128" />
<rect x="41" y="26" width="1" height="1" fill="#6F3037" />
<rect x="42" y="26" width="1" height="1" fill="#6F3037" />
<rect x="43" y="26" width="1" height="1" fill="#6F3037" />
<rect x="17" y="27" width="1" height="1" fill="#341014" />
<rect x="18" y="27" width="1" height="1" fill="#612128" />
<rect x="19" y="27" width="1" height="1" fill="#612128" />
<rect x="20" y="27" width="1" height="1" fill="#612128" />
<rect x="21" y="27" width="1" height="1" fill="#612128" />
<rect x="22" y="27" width="1" height="1" fill="#612128" />
<rect x="23" y="27" width="1" height="1" fill="#612128" />
<rect x="24" y="27" width="1" height="1" fill="#612128" />
<rect x="25" y="27" width="1" height="1" fill="#612128" />
<rect x="26" y="27" width="1" height="1" fill="#612128" />
<rect x="27" y="27" width="1" height="1" fill="#612128" />
<rect x="28" y="27" width="1" height="1" fill="#612128" />
<rect x="29" y="27" width="1" height="1" fill="#612128" />
<rect x="30" y="27" width="1" height="1" fill="#612128" />
<rect x="31" y="27" width="1" height="1" fill="#612128" />
<rect x="32" y="27" width="1" height="1" fill="#612128" />
<rect x="33" y="27" width="1" height="1" fill="#612128" />
<rect x="34" y="27" width="1" height="1" fill="#612128" />
<rect x="35" y="27" width="1" height="1" fill="#612128" />
<rect x="36" y="27" width="1" height="1" fill="#612128" />
<rect x="37" y="27" width="1" height="1" fill="#612128" />
<rect x="38" y="27" width="1" height="1" fill="#612128" />
<rect x="41" y="27" width="1" height="1" fill="#6F3037" />
<rect x="42" y="27" width="1" height="1" fill="#6F3037" />
<rect x="43" y="27" width="1" height="1" fill="#6F3037" />
<rect x="17" y="28" width="1" height="1" fill="#341014" />
<rect x="18" y="28" width="1" height="1" fill="#341014" />
<rect x="19" y="28" width="1" height="1" fill="#612128" />
<rect x="20" y="28" width="1" height="1" fill="#612128" />
<rect x="21" y="28" width="1" height="1" fill="#612128" />
<rect x="22" y="28" width="1" height="1" fill="#612128" />
<rect x="23" y="28" width="1" height="1" fill="#612128" />
<rect x="24" y="28" width="1" height="1" fill="#612128" />
<rect x="25" y="28" width="1" height="1" fill="#612128" />
<rect x="26" y="28" width="1" height="1" fill="#612128" />
<rect x="27" y="28" width="1" height="1" fill="#612128" />
<rect x="28" y="28" width="1" height="1" fill="#612128" />
<rect x="29" y="28" width="1" height="1" fill="#612128" />
<rect x="30" y="28" width="1" height="1" fill="#612128" />
<rect x="31" y="28" width="1" height="1" fill="#612128" />
<rect x="32" y="28" width="1" height="1" fill="#612128" />
<rect x="33" y="28" width="1" height="1" fill="#612128" />
<rect x="34" y="28" width="1" height="1" fill="#612128" />
<rect x="35" y="28" width="1" height="1" fill="#612128" />
<rect x="36" y="28" width="1" height="1" fill="#612128" />
<rect x="37" y="28" width="1" height="1" fill="#612128" />
<rect x="38" y="28" width="1" height="1" fill="#341014" />
<rect x="41" y="28" width="1" height="1" fill="#6F3037" />
<rect x="42" y="28" width="1" height="1" fill="#6F3037" />
<rect x="17" y="29" width="1" height="1" fill="#341014" />
<rect x="18" y="29" width="1" height="1" fill="#341014" />
<rect x="19" y="29" width="1" height="1" fill="#341014" />
<rect x="20" y="29" width="1" height="1" fill="#612128" />
<rect x="21" y="29" width="1" height="1" fill="#612128" />
<rect x="22" y="29" width="1" height="1" fill="#612128" />
<rect x="23" y="29" width="1" height="1" fill="#612128" />
<rect x="24" y="29" width="1" height="1" fill="#612128" />
<rect x="25" y="29" width="1" height="1" fill="#612128" />
<rect x="26" y="29" width="1" height="1" fill="#612128" />
<rect x="27" y="29" width="1" height="1" fill="#612128" />
<rect x="28" y="29" width="1" height="1" fill="#612128" />
<rect x="29" y="29" width="1" height="1" fill="#612128" />
<rect x="30" y="29" width="1" height="1" fill="#612128" />
<rect x="31" y="29" width="1" height="1" fill="#612128" />
<rect x="32" y="29" width="1" height="1" fill="#612128" />
<rect x="33" y="29" width="1" height="1" fill="#612128" />
<rect x="34" y="29" width="1" height="1" fill="#612128" />
<rect x="35" y="29" width="1" height="1" fill="#612128" />
<rect x="36" y="29" width="1" height="1" fill="#612128" />
<rect x="37" y="29" width="1" height="1" fill="#341014" />
<rect x="38" y="29" width="1" height="1" fill="#341014" />
<rect x="17" y="30" width="1" height="1" fill="#341014" />
<rect x="18" y="30" width="1" height="1" fill="#341014" />
<rect x="19" y="30" width="1" height="1" fill="#341014" />
<rect x="20" y="30" width="1" height="1" fill="#341014" />
<rect x="21" y="30" width="1" height="1" fill="#612128" />
<rect x="22" y="30" width="1" height="1" fill="#612128" />
<rect x="23" y="30" width="1" height="1" fill="#612128" />
<rect x="24" y="30" width="1" height="1" fill="#612128" />
<rect x="25" y="30" width="1" height="1" fill="#612128" />
<rect x="26" y="30" width="1" height="1" fill="#612128" />
<rect x="27" y="30" width="1" height="1" fill="#612128" />
<rect x="28" y="30" width="1" height="1" fill="#612128" />
<rect x="29" y="30" width="1" height="1" fill="#612128" />
<rect x="30" y="30" width="1" height="1" fill="#612128" />
<rect x="31" y="30" width="1" height="1" fill="#612128" />
<rect x="32" y="30" width="1" height="1" fill="#612128" />
<rect x="33" y="30" width="1" height="1" fill="#612128" />
<rect x="34" y="30" width="1" height="1" fill="#612128" />
<rect x="35" y="30" width="1" height="1" fill="#612128" />
<rect x="36" y="30" width="1" height="1" fill="#612128" />
<rect x="37" y="30" width="1" height="1" fill="#341014" />
<rect x="38" y="30" width="1" height="1" fill="#341014" />
<rect x="14" y="31" width="1" height="1" fill="#612128" />
<rect x="18" y="31" width="1" height="1" fill="#341014" />
<rect x="19" y="31" width="1" height="1" fill="#341014" />
<rect x="20" y="31" width="1" height="1" fill="#341014" />
<rect x="21" y="31" width="1" height="1" fill="#341014" />
<rect x="22" y="31" width="1" height="1" fill="#341014" />
<rect x="23" y="31" width="1" height="1" fill="#612128" />
<rect x="24" y="31" width="1" height="1" fill="#612128" />
<rect x="25" y="31" width="1" height="1" fill="#612128" />
<rect x="26" y="31" width="1" height="1" fill="#612128" />
<rect x="27" y="31" width="1" height="1" fill="#612128" />
<rect x="28" y="31" width="1" height="1" fill="#612128" />
<rect x="29" y="31" width="1" height="1" fill="#612128" />
<rect x="30" y="31" width="1" height="1" fill="#612128" />
<rect x="31" y="31" width="1" height="1" fill="#612128" />
<rect x="32" y="31" width="1" height="1" fill="#612128" />
<rect x="33" y="31" width="1" height="1" fill="#612128" />
<rect x="34" y="31" width="1" height="1" fill="#341014" />
<rect x="35" y="31" width="1" height="1" fill="#341014" />
<rect x="36" y="31" width="1" height="1" fill="#341014" />
<rect x="13" y="32" width="1" height="1" fill="#612128" />
<rect x="14" y="32" width="1" height="1" fill="#612128" />
<rect x="15" y="32" width="1" height="1" fill="#612128" />
<rect x="16" y="32" width="1" height="1" fill="#612128" />
<rect x="17" y="32" width="1" height="1" fill="#341014" />
<rect x="20" y="32" width="1" height="1" fill="#341014" />
<rect x="21" y="32" width="1" height="1" fill="#341014" />
<rect x="22" y="32" width="1" height="1" fill="#341014" />
<rect x="23" y="32" width="1" height="1" fill="#341014" />
<rect x="24" y="32" width="1" height="1" fill="#341014" />
<rect x="25" y="32" width="1" height="1" fill="#341014" />
<rect x="26" y="32" width="1" height="1" fill="#341014" />
<rect x="27" y="32" width="1" height="1" fill="#341014" />
<rect x="28" y="32" width="1" height="1" fill="#341014" />
<rect x="29" y="32" width="1" height="1" fill="#341014" />
<rect x="30" y="32" width="1" height="1" fill="#341014" />
<rect x="31" y="32" width="1" height="1" fill="#341014" />
<rect x="32" y="32" width="1" height="1" fill="#341014" />
<rect x="33" y="32" width="1" height="1" fill="#341014" />
<rect x="34" y="32" width="1" height="1" fill="#341014" />
<rect x="35" y="32" width="1" height="1" fill="#341014" />
<rect x="37" y="32" width="1" height="1" fill="#341014" />
<rect x="38" y="32" width="1" height="1" fill="#341014" />
<rect x="39" y="32" width="1" height="1" fill="#612128" />
<rect x="13" y="33" width="1" height="1" fill="#612128" />
<rect x="14" y="33" width="1" height="1" fill="#341014" />
<rect x="15" y="33" width="1" height="1" fill="#612128" />
<rect x="16" y="33" width="1" height="1" fill="#341014" />
<rect x="17" y="33" width="1" height="1" fill="#341014" />
<rect x="18" y="33" width="1" height="1" fill="#BDAB94" />
<rect x="19" y="33" width="1" height="1" fill="#8E7B63" />
<rect x="20" y="33" width="1" height="1" fill="#341014" />
<rect x="21" y="33" width="1" height="1" fill="#341014" />
<rect x="22" y="33" width="1" height="1" fill="#341014" />
<rect x="23" y="33" width="1" height="1" fill="#341014" />
<rect x="24" y="33" width="1" height="1" fill="#341014" />
<rect x="25" y="33" width="1" height="1" fill="#341014" />
<rect x="26" y="33" width="1" height="1" fill="#341014" />
<rect x="27" y="33" width="1" height="1" fill="#341014" />
<rect x="28" y="33" width="1" height="1" fill="#341014" />
<rect x="29" y="33" width="1" height="1" fill="#341014" />
<rect x="30" y="33" width="1" height="1" fill="#341014" />
<rect x="31" y="33" width="1" height="1" fill="#341014" />
<rect x="32" y="33" width="1" height="1" fill="#341014" />
<rect x="33" y="33" width="1" height="1" fill="#341014" />
<rect x="34" y="33" width="1" height="1" fill="#341014" />
<rect x="36" y="33" width="1" height="1" fill="#341014" />
<rect x="37" y="33" width="1" height="1" fill="#341014" />
<rect x="38" y="33" width="1" height="1" fill="#341014" />
<rect x="39" y="33" width="1" height="1" fill="#612128" />
<rect x="13" y="34" width="1" height="1" fill="#341014" />
<rect x="14" y="34" width="1" height="1" fill="#341014" />
<rect x="15" y="34" width="1" height="1" fill="#341014" />
<rect x="16" y="34" width="1" height="1" fill="#341014" />
<rect x="17" y="34" width="1" height="1" fill="#341014" />
<rect x="18" y="34" width="1" height="1" fill="#BDAB94" />
<rect x="19" y="34" width="1" height="1" fill="#8E7B63" />
<rect x="20" y="34" width="1" height="1" fill="#BDAB94" />
<rect x="21" y="34" width="1" height="1" fill="#BDAB94" />
<rect x="22" y="34" width="1" height="1" fill="#341014" />
<rect x="23" y="34" width="1" height="1" fill="#341014" />
<rect x="24" y="34" width="1" height="1" fill="#341014" />
<rect x="25" y="34" width="1" height="1" fill="#341014" />
<rect x="26" y="34" width="1" height="1" fill="#341014" />
<rect x="27" y="34" width="1" height="1" fill="#341014" />
<rect x="28" y="34" width="1" height="1" fill="#341014" />
<rect x="29" y="34" width="1" height="1" fill="#341014" />
<rect x="30" y="34" width="1" height="1" fill="#341014" />
<rect x="31" y="34" width="1" height="1" fill="#341014" />
<rect x="32" y="34" width="1" height="1" fill="#341014" />
<rect x="33" y="34" width="1" height="1" fill="#341014" />
<rect x="34" y="34" width="1" height="1" fill="#8E7B63" />
<rect x="35" y="34" width="1" height="1" fill="#8E7B63" />
<rect x="36" y="34" width="1" height="1" fill="#341014" />
<rect x="37" y="34" width="1" height="1" fill="#341014" />
<rect x="38" y="34" width="1" height="1" fill="#341014" />
<rect x="39" y="34" width="1" height="1" fill="#341014" />
<rect x="13" y="35" width="1" height="1" fill="#341014" />
<rect x="14" y="35" width="1" height="1" fill="#341014" />
<rect x="15" y="35" width="1" height="1" fill="#341014" />
<rect x="16" y="35" width="1" height="1" fill="#341014" />
<rect x="17" y="35" width="1" height="1" fill="#BDAB94" />
<rect x="18" y="35" width="1" height="1" fill="#8E7B63" />
<rect x="19" y="35" width="1" height="1" fill="#8E7B63" />
<rect x="20" y="35" width="1" height="1" fill="#BDAB94" />
<rect x="21" y="35" width="1" height="1" fill="#BDAB94" />
<rect x="22" y="35" width="1" height="1" fill="#BDAB94" />
<rect x="23" y="35" width="1" height="1" fill="#BDAB94" />
<rect x="24" y="35" width="1" height="1" fill="#BDAB94" />
<rect x="25" y="35" width="1" height="1" fill="#341014" />
<rect x="26" y="35" width="1" height="1" fill="#341014" />
<rect x="27" y="35" width="1" height="1" fill="#341014" />
<rect x="28" y="35" width="1" height="1" fill="#341014" />
<rect x="29" y="35" width="1" height="1" fill="#341014" />
<rect x="30" y="35" width="1" height="1" fill="#341014" />
<rect x="31" y="35" width="1" height="1" fill="#8E7B63" />
<rect x="32" y="35" width="1" height="1" fill="#8E7B63" />
<rect x="33" y="35" width="1" height="1" fill="#8E7B63" />
<rect x="34" y="35" width="1" height="1" fill="#8E7B63" />
<rect x="35" y="35" width="1" height="1" fill="#8E7B63" />
<rect x="36" y="35" width="1" height="1" fill="#341014" />
<rect x="37" y="35" width="1" height="1" fill="#341014" />
<rect x="38" y="35" width="1" height="1" fill="#341014" />
<rect x="14" y="36" width="1" height="1" fill="#BDAB94" />
<rect x="15" y="36" width="1" height="1" fill="#8E7B63" />
<rect x="16" y="36" width="1" height="1" fill="#8E7B63" />
<rect x="17" y="36" width="1" height="1" fill="#8E7B63" />
<rect x="18" y="36" width="1" height="1" fill="#8E7B63" />
<rect x="19" y="36" width="1" height="1" fill="#8E7B63" />
<rect x="20" y="36" width="1" height="1" fill="#BDAB94" />
<rect x="21" y="36" width="1" height="1" fill="#BDAB94" />
<rect x="22" y="36" width="1" height="1" fill="#BDAB94" />
<rect x="23" y="36" width="1" height="1" fill="#BDAB94" />
<rect x="24" y="36" width="1" height="1" fill="#BDAB94" />
<rect x="25" y="36" width="1" height="1" fill="#BDAB94" />
<rect x="26" y="36" width="1" height="1" fill="#BDAB94" />
<rect x="27" y="36" width="1" height="1" fill="#BDAB94" />
<rect x="28" y="36" width="1" height="1" fill="#BDAB94" />
<rect x="29" y="36" width="1" height="1" fill="#BDAB94" />
<rect x="30" y="36" width="1" height="1" fill="#8E7B63" />
<rect x="31" y="36" width="1" height="1" fill="#8E7B63" />
<rect x="32" y="36" width="1" height="1" fill="#8E7B63" />
<rect x="33" y="36" width="1" height="1" fill="#8E7B63" />
<rect x="34" y="36" width="1" height="1" fill="#8E7B63" />
<rect x="35" y="36" width="1" height="1" fill="#8E7B63" />
<rect x="36" y="36" width="1" height="1" fill="#8E7B63" />
<rect x="37" y="36" width="1" height="1" fill="#8E7B63" />
<rect x="16" y="37" width="1" height="1" fill="#8E7B63" />
<rect x="17" y="37" width="1" height="1" fill="#8E7B63" />
<rect x="18" y="37" width="1" height="1" fill="#8E7B63" />
<rect x="19" y="37" width="1" height="1" fill="#BDAB94" />
<rect x="20" y="37" width="1" height="1" fill="#BDAB94" />
<rect x="21" y="37" width="1" height="1" fill="#BDAB94" />
<rect x="22" y="37" width="1" height="1" fill="#BDAB94" />
<rect x="23" y="37" width="1" height="1" fill="#BDAB94" />
<rect x="24" y="37" width="1" height="1" fill="#BDAB94" />
<rect x="25" y="37" width="1" height="1" fill="#BDAB94" />
<rect x="26" y="37" width="1" height="1" fill="#BDAB94" />
<rect x="27" y="37" width="1" height="1" fill="#BDAB94" />
<rect x="28" y="37" width="1" height="1" fill="#BDAB94" />
<rect x="29" y="37" width="1" height="1" fill="#BDAB94" />
<rect x="30" y="37" width="1" height="1" fill="#BDAB94" />
<rect x="31" y="37" width="1" height="1" fill="#8E7B63" />
<rect x="32" y="37" width="1" height="1" fill="#8E7B63" />
<rect x="33" y="37" width="1" height="1" fill="#8E7B63" />
<rect x="34" y="37" width="1" height="1" fill="#8E7B63" />
<rect x="15" y="38" width="1" height="1" fill="#8E7B63" />
<rect x="16" y="38" width="1" height="1" fill="#8E7B63" />
<rect x="17" y="38" width="1" height="1" fill="#8E7B63" />
<rect x="18" y="38" width="1" height="1" fill="#8E7B63" />
<rect x="19" y="38" width="1" height="1" fill="#BDAB94" />
<rect x="20" y="38" width="1" height="1" fill="#BDAB94" />
<rect x="21" y="38" width="1" height="1" fill="#BDAB94" />
<rect x="22" y="38" width="1" height="1" fill="#BDAB94" />
<rect x="23" y="38" width="1" height="1" fill="#BDAB94" />
<rect x="24" y="38" width="1" height="1" fill="#BDAB94" />
<rect x="25" y="38" width="1" height="1" fill="#BDAB94" />
<rect x="26" y="38" width="1" height="1" fill="#BDAB94" />
<rect x="27" y="38" width="1" height="1" fill="#BDAB94" />
<rect x="28" y="38" width="1" height="1" fill="#BDAB94" />
<rect x="29" y="38" width="1" height="1" fill="#BDAB94" />
<rect x="30" y="38" width="1" height="1" fill="#BDAB94" />
<rect x="31" y="38" width="1" height="1" fill="#8E7B63" />
<rect x="15" y="39" width="1" height="1" fill="#BDAB94" />
<rect x="16" y="39" width="1" height="1" fill="#8E7B63" />
<rect x="17" y="39" width="1" height="1" fill="#8E7B63" />
<rect x="18" y="39" width="1" height="1" fill="#8E7B63" />
<rect x="19" y="39" width="1" height="1" fill="#8E7B63" />
<rect x="20" y="39" width="1" height="1" fill="#BDAB94" />
<rect x="21" y="39" width="1" height="1" fill="#BDAB94" />
<rect x="22" y="39" width="1" height="1" fill="#BDAB94" />
<rect x="23" y="39" width="1" height="1" fill="#BDAB94" />
<rect x="24" y="39" width="1" height="1" fill="#BDAB94" />
<rect x="25" y="39" width="1" height="1" fill="#BDAB94" />
<rect x="26" y="39" width="1" height="1" fill="#BDAB94" />
<rect x="27" y="39" width="1" height="1" fill="#BDAB94" />
<rect x="28" y="39" width="1" height="1" fill="#BDAB94" />
<rect x="29" y="39" width="1" height="1" fill="#BDAB94" />
<rect x="30" y="39" width="1" height="1" fill="#8E7B63" />
<rect x="31" y="39" width="1" height="1" fill="#8E7B63" />
<rect x="15" y="40" width="1" height="1" fill="#BDAB94" />
<rect x="16" y="40" width="1" height="1" fill="#BDAB94" />
<rect x="17" y="40" width="1" height="1" fill="#8E7B63" />
<rect x="18" y="40" width="1" height="1" fill="#8E7B63" />
<rect x="19" y="40" width="1" height="1" fill="#8E7B63" />
<rect x="20" y="40" width="1" height="1" fill="#8E7B63" />
<rect x="21" y="40" width="1" height="1" fill="#BDAB94" />
<rect x="22" y="40" width="1" height="1" fill="#BDAB94" />
<rect x="23" y="40" width="1" height="1" fill="#BDAB94" />
<rect x="24" y="40" width="1" height="1" fill="#BDAB94" />
<rect x="25" y="40" width="1" height="1" fill="#BDAB94" />
<rect x="26" y="40" width="1" height="1" fill="#BDAB94" />
<rect x="27" y="40" width="1" height="1" fill="#BDAB94" />
<rect x="28" y="40" width="1" height="1" fill="#BDAB94" />
<rect x="29" y="40" width="1" height="1" fill="#8E7B63" />
<rect x="30" y="40" width="1" height="1" fill="#8E7B63" />
<rect x="31" y="40" width="1" height="1" fill="#8E7B63" />
<rect x="14" y="41" width="1" height="1" fill="#BDAB94" />
<rect x="15" y="41" width="1" height="1" fill="#BDAB94" />
<rect x="16" y="41" width="1" height="1" fill="#BDAB94" />
<rect x="17" y="41" width="1" height="1" fill="#BDAB94" />
<rect x="18" y="41" width="1" height="1" fill="#8E7B63" />
<rect x="19" y="41" width="1" height="1" fill="#8E7B63" />
<rect x="20" y="41" width="1" height="1" fill="#8E7B63" />
<rect x="21" y="41" width="1" height="1" fill="#8E7B63" />
<rect x="22" y="41" width="1" height="1" fill="#BDAB94" />
<rect x="23" y="41" width="1" height="1" fill="#BDAB94" />
<rect x="24" y="41" width="1" height="1" fill="#BDAB94" />
<rect x="25" y="41" width="1" height="1" fill="#BDAB94" />
<rect x="26" y="41" width="1" height="1" fill="#BDAB94" />
<rect x="27" y="41" width="1" height="1" fill="#BDAB94" />
<rect x="28" y="41" width="1" height="1" fill="#8E7B63" />
<rect x="29" y="41" width="1" height="1" fill="#8E7B63" />
<rect x="30" y="41" width="1" height="1" fill="#8E7B63" />
<rect x="14" y="42" width="1" height="1" fill="#BDAB94" />
<rect x="15" y="42" width="1" height="1" fill="#BDAB94" />
<rect x="16" y="42" width="1" height="1" fill="#BDAB94" />
<rect x="17" y="42" width="1" height="1" fill="#BDAB94" />
<rect x="18" y="42" width="1" height="1" fill="#BDAB94" />
<rect x="19" y="42" width="1" height="1" fill="#8E7B63" />
<rect x="20" y="42" width="1" height="1" fill="#8E7B63" />
<rect x="21" y="42" width="1" height="1" fill="#8E7B63" />
<rect x="22" y="42" width="1" height="1" fill="#8E7B63" />
<rect x="23" y="42" width="1" height="1" fill="#8E7B63" />
<rect x="24" y="42" width="1" height="1" fill="#8E7B63" />
<rect x="25" y="42" width="1" height="1" fill="#8E7B63" />
<rect x="26" y="42" width="1" height="1" fill="#8E7B63" />
<rect x="27" y="42" width="1" height="1" fill="#8E7B63" />
<rect x="28" y="42" width="1" height="1" fill="#8E7B63" />
<rect x="29" y="42" width="1" height="1" fill="#8E7B63" />
<rect x="30" y="42" width="1" height="1" fill="#8E7B63" />
<rect x="14" y="43" width="1" height="1" fill="#BDAB94" />
<rect x="15" y="43" width="1" height="1" fill="#BDAB94" />
<rect x="16" y="43" width="1" height="1" fill="#BDAB94" />
<rect x="17" y="43" width="1" height="1" fill="#BDAB94" />
<rect x="18" y="43" width="1" height="1" fill="#BDAB94" />
<rect x="19" y="43" width="1" height="1" fill="#BDAB94" />
<rect x="20" y="43" width="1" height="1" fill="#8E7B63" />
<rect x="21" y="43" width="1" height="1" fill="#8E7B63" />
<rect x="22" y="43" width="1" height="1" fill="#8E7B63" />
<rect x="23" y="43" width="1" height="1" fill="#8E7B63" />
<rect x="24" y="43" width="1" height="1" fill="#8E7B63" />
<rect x="25" y="43" width="1" height="1" fill="#8E7B63" />
<rect x="26" y="43" width="1" height="1" fill="#8E7B63" />
<rect x="27" y="43" width="1" height="1" fill="#8E7B63" />
<rect x="28" y="43" width="1" height="1" fill="#8E7B63" />
<rect x="29" y="43" width="1" height="1" fill="#BDAB94" />
<rect x="30" y="43" width="1" height="1" fill="#BDAB94" />
<rect x="14" y="44" width="1" height="1" fill="#BDAB94" />
<rect x="15" y="44" width="1" height="1" fill="#BDAB94" />
<rect x="16" y="44" width="1" height="1" fill="#BDAB94" />
<rect x="17" y="44" width="1" height="1" fill="#BDAB94" />
<rect x="18" y="44" width="1" height="1" fill="#BDAB94" />
<rect x="19" y="44" width="1" height="1" fill="#BDAB94" />
<rect x="20" y="44" width="1" height="1" fill="#BDAB94" />
<rect x="21" y="44" width="1" height="1" fill="#8E7B63" />
<rect x="22" y="44" width="1" height="1" fill="#8E7B63" />
<rect x="23" y="44" width="1" height="1" fill="#8E7B63" />
<rect x="24" y="44" width="1" height="1" fill="#8E7B63" />
<rect x="25" y="44" width="1" height="1" fill="#8E7B63" />
<rect x="26" y="44" width="1" height="1" fill="#8E7B63" />
<rect x="27" y="44" width="1" height="1" fill="#8E7B63" />
<rect x="28" y="44" width="1" height="1" fill="#BDAB94" />
<rect x="29" y="44" width="1" height="1" fill="#BDAB94" />
<rect x="30" y="44" width="1" height="1" fill="#BDAB94" />
<rect x="14" y="45" width="1" height="1" fill="#8E7B63" />
<rect x="15" y="45" width="1" height="1" fill="#8E7B63" />
<rect x="16" y="45" width="1" height="1" fill="#8E7B63" />
<rect x="17" y="45" width="1" height="1" fill="#BDAB94" />
<rect x="18" y="45" width="1" height="1" fill="#8E7B63" />
<rect x="19" y="45" width="1" height="1" fill="#8E7B63" />
<rect x="20" y="45" width="1" height="1" fill="#8E7B63" />
<rect x="21" y="45" width="1" height="1" fill="#8E7B63" />
<rect x="22" y="45" width="1" height="1" fill="#8E7B63" />
<rect x="23" y="45" width="1" height="1" fill="#8E7B63" />
<rect x="24" y="45" width="1" height="1" fill="#8E7B63" />
<rect x="25" y="45" width="1" height="1" fill="#8E7B63" />
<rect x="26" y="45" width="1" height="1" fill="#8E7B63" />
<rect x="27" y="45" width="1" height="1" fill="#8E7B63" />
<rect x="28" y="45" width="1" height="1" fill="#8E7B63" />
<rect x="29" y="45" width="1" height="1" fill="#8E7B63" />
<rect x="30" y="45" width="1" height="1" fill="#8E7B63" />
<rect x="14" y="46" width="1" height="1" fill="#612128" />
<rect x="15" y="46" width="1" height="1" fill="#341014" />
<rect x="16" y="46" width="1" height="1" fill="#612128" />
<rect x="17" y="46" width="1" height="1" fill="#341014" />
<rect x="18" y="46" width="1" height="1" fill="#341014" />
<rect x="19" y="46" width="1" height="1" fill="#612128" />
<rect x="24" y="46" width="1" height="1" fill="#341014" />
<rect x="25" y="46" width="1" height="1" fill="#612128" />
<rect x="26" y="46" width="1" height="1" fill="#341014" />
<rect x="27" y="46" width="1" height="1" fill="#612128" />
<rect x="28" y="46" width="1" height="1" fill="#341014" />
<rect x="29" y="46" width="1" height="1" fill="#612128" />
<rect x="14" y="47" width="1" height="1" fill="#341014" />
<rect x="15" y="47" width="1" height="1" fill="#612128" />
<rect x="16" y="47" width="1" height="1" fill="#341014" />
<rect x="17" y="47" width="1" height="1" fill="#612128" />
<rect x="18" y="47" width="1" height="1" fill="#341014" />
<rect x="19" y="47" width="1" height="1" fill="#612128" />
<rect x="25" y="47" width="1" height="1" fill="#341014" />
<rect x="26" y="47" width="1" height="1" fill="#612128" />
<rect x="27" y="47" width="1" height="1" fill="#341014" />
<rect x="28" y="47" width="1" height="1" fill="#612128" />
<rect x="29" y="47" width="1" height="1" fill="#341014" />
</svg>