<?xml version="1.0" encoding="UTF-8" ?>
<svg version="1.1" width="55" height="55" xmlns="http://www.w3.org/2000/svg" shape-rendering="crispEdges">
<rect x="25" y="1" width="1" height="1" fill="#6F3037" />
<rect x="26" y="1" width="1" height="1" fill="#6F3037" />
<rect x="23" y="2" width="1" height="1" fill="#6F3037" />
<rect x="24" y="2" width="1" height="1" fill="#6F3037" />
<rect x="27" y="2" width="1" height="1" fill="#6F3037" />
<rect x="28" y="2" width="1" height="1" fill="#6F3037" />
<rect x="22" y="3" width="1" height="1" fill="#6F3037" />
<rect x="23" y="3" width="1" height="1" fill="#6F3037" />
<rect x="27" y="3" width="1" height="1" fill="#6F3037" />
<rect x="29" y="3" width="1" height="1" fill="#6F3037" />
<rect x="22" y="4" width="1" height="1" fill="#6F3037" />
<rect x="23" y="4" width="1" height="1" fill="#6F3037" />
<rect x="31" y="5" width="1" height="1" fill="#6F3037" />
<rect x="12" y="6" width="1" height="1" fill="#6F3037" />
<rect x="13" y="6" width="1" height="1" fill="#6F3037" />
<rect x="10" y="7" width="1" height="1" fill="#6F3037" />
<rect x="11" y="7" width="1" height="1" fill="#6F3037" />
<rect x="14" y="7" width="1" height="1" fill="#6F3037" />
<rect x="15" y="7" width="1" height="1" fill="#6F3037" />
<rect x="16" y="7" width="1" height="1" fill="#6F3037" />
<rect x="10" y="8" width="1" height="1" fill="#6F3037" />
<rect x="11" y="8" width="1" height="1" fill="#6F3037" />
<rect x="44" y="8" width="1" height="1" fill="#6F3037" />
<rect x="45" y="8" width="1" height="1" fill="#6F3037" />
<rect x="16" y="9" width="1" height="1" fill="#6F3037" />
<rect x="42" y="9" width="1" height="1" fill="#6F3037" />
<rect x="43" y="9" width="1" height="1" fill="#6F3037" />
<rect x="44" y="9" width="1" height="1" fill="#6F3037" />
<rect x="45" y="9" width="1" height="1" fill="#6F3037" />
<rect x="46" y="9" width="1" height="1" fill="#6F3037" />
<rect x="42" y="10" width="1" height="1" fill="#6F3037" />
<rect x="46" y="10" width="1" height="1" fill="#6F3037" />
<rect x="47" y="10" width="1" height="1" fill="#6F3037" />
<rect x="10" y="15" width="1" height="1" fill="#6F3037" />
<rect x="11" y="15" width="1" height="1" fill="#6F3037" />
<rect x="11" y="16" width="1" height="1" fill="#6F3037" />
<rect x="5" y="17" width="1" height="1" fill="#6F3037" />
<rect x="6" y="17" width="1" height="1" fill="#6F3037" />
<rect x="7" y="17" width="1" height="1" fill="#6F3037" />
<rect x="4" y="18" width="1" height="1" fill="#6F3037" />
<rect x="5" y="18" width="1" height="1" fill="#6F3037" />
<rect x="6" y="18" width="1" height="1" fill="#6F3037" />
<rect x="7" y="18" width="1" height="1" fill="#6F3037" />
<rect x="8" y="18" width="1" height="1" fill="#6F3037" />
<rect x="14" y="18" width="1" height="1" fill="#6F3037" />
<rect x="32" y="18" width="1" height="1" fill="#6F3037" />
<rect x="8" y="19" width="1" height="1" fill="#6F3037" />
<rect x="14" y="19" width="1" height="1" fill="#6F3037" />
<rect x="44" y="19" width="1" height="1" fill="#6F3037" />
<rect x="47" y="20" width="1" height="1" fill="#6F3037" />
<rect x="48" y="20" width="1" height="1" fill="#6F3037" />
<rect x="49" y="20" width="1" height="1" fill="#6F3037" />
<rect x="50" y="20" width="1" height="1" fill="#6F3037" />
<rect x="47" y="21" width="1" height="1" fill="#6F3037" />
<rect x="48" y="21" width="1" height="1" fill="#6F3037" />
<rect x="49" y="21" width="1" height="1" fill="#6F3037" />
<rect x="50" y="21" width="1" height="1" fill="#6F3037" />
<rect x="51" y="21" width="1" height="1" fill="#6F3037" />
<rect x="10" y="22" width="1" height="1" fill="#6F3037" />
<rect x="39" y="22" width="1" height="1" fill="#6F3037" />
<rect x="46" y="22" width="1" height="1" fill="#6F3037" />
<rect x="11" y="23" width="1" height="1" fill="#6F3037" />
<rect x="25" y="26" width="1" height="1" fill="#612128" />
<rect x="26" y="26" width="1" height="1" fill="#612128" />
<rect x="27" y="26" width="1" height="1" fill="#612128" />
<rect x="28" y="26" width="1" height="1" fill="#612128" />
<rect x="29" y="26" width="1" height="1" fill="#612128" />
<rect x="30" y="26" width="1" height="1" fill="#612128" />
<rect x="22" y="27" width="1" height="1" fill="#612128" />
<rect x="23" y="27" width="1" height="1" fill="#612128" />
<rect x="24" y="27" width="1" height="1" fill="#612128" />
<rect x="25" y="27" width="1" height="1" fill="#612128" />
<rect x="26" y="27" width="1" height="1" fill="#612128" />
<rect x="27" y="27" width="1" height="1" fill="#612128" />
<rect x="28" y="27" width="1" height="1" fill="#612128" />
<rect x="29" y="27" width="1" height="1" fill="#612128" />
<rect x="30" y="27" width="1" height="1" fill="#612128" />
<rect x="31" y="27" width="1" height="1" fill="#612128" />
<rect x="32" y="27" width="1" height="1" fill="#612128" />
<rect x="33" y="27" width="1" height="1" fill="#612128" />
<rect x="20" y="28" width="1" height="1" fill="#612128" />
<rect x="21" y="28" width="1" height="1" fill="#612128" />
<rect x="22" y="28" width="1" height="1" fill="#612128" />
<rect x="23" y="28" width="1" height="1" fill="#612128" />
<rect x="24" y="28" width="1" height="1" fill="#612128" />
<rect x="25" y="28" width="1" height="1" fill="#612128" />
<rect x="26" y="28" width="1" height="1" fill="#612128" />
<rect x="27" y="28" width="1" height="1" fill="#612128" />
<rect x="28" y="28" width="1" height="1" fill="#612128" />
<rect x="29" y="28" width="1" height="1" fill="#612128" />
<rect x="30" y="28" width="1" height="1" fill="#612128" />
<rect x="31" y="28" width="1" height="1" fill="#612128" />
<rect x="32" y="28" width="1" height="1" fill="#612128" />
<rect x="33" y="28" width="1" height="1" fill="#612128" />
<rect x="34" y="28" width="1" height="1" fill="#612128" />
<rect x="35" y="28" width="1" height="1" fill="#612128" />
<rect x="20" y="29" width="1" height="1" fill="#612128" />
<rect x="21" y="29" width="1" height="1" fill="#612128" />
<rect x="22" y="29" width="1" height="1" fill="#612128" />
<rect x="23" y="29" width="1" height="1" fill="#612128" />
<rect x="24" y="29" width="1" height="1" fill="#612128" />
<rect x="25" y="29" width="1" height="1" fill="#612128" />
<rect x="26" y="29" width="1" height="1" fill="#612128" />
<rect x="27" y="29" width="1" height="1" fill="#612128" />
<rect x="28" y="29" width="1" height="1" fill="#612128" />
<rect x="29" y="29" width="1" height="1" fill="#612128" />
<rect x="30" y="29" width="1" height="1" fill="#612128" />
<rect x="31" y="29" width="1" height="1" fill="#612128" />
<rect x="32" y="29" width="1" height="1" fill="#612128" />
<rect x="33" y="29" width="1" height="1" fill="#612128" />
<rect x="34" y="29" width="1" height="1" fill="#612128" />
<rect x="35" y="29" width="1" height="1" fill="#612128" />
<rect x="18" y="30" width="1" height="1" fill="#612128" />
<rect x="19" y="30" width="1" height="1" fill="#612128" />
<rect x="20" y="30" width="1" height="1" fill="#612128" />
<rect x="21" y="30" width="1" height="1" fill="#612128" />
<rect x="22" y="30" width="1" height="1" fill="#612128" />
<rect x="23" y="30" width="1" height="1" fill="#612128" />
<rect x="24" y="30" width="1" height="1" fill="#612128" />
<rect x="25" y="30" width="1" height="1" fill="#612128" />
<rect x="26" y="30" width="1" height="1" fill="#612128" />
<rect x="27" y="30" width="1" height="1" fill="#612128" />
<rect x="28" y="30" width="1" height="1" fill="#612128" />
<rect x="29" y="30" width="1" height="1" fill="#612128" />
<rect x="30" y="30" width="1" height="1" fill="#612128" />
<rect x="31" y="30" width="1" height="1" fill="#612128" />
<rect x="32" y="30" width="1" height="1" fill="#612128" />
<rect x="33" y="30" width="1" height="1" fill="#612128" />
<rect x="34" y="30" width="1" height="1" fill="#612128" />
<rect x="35" y="30" width="1" height="1" fill="#612128" />
<rect x="36" y="30" width="1" height="1" fill="#612128" />
<rect x="37" y="30" width="1" height="1" fill="#612128" />
<rect x="17" y="31" width="1" height="1" fill="#341014" />
<rect x="18" y="31" width="1" height="1" fill="#612128" />
<rect x="19" y="31" width="1" height="1" fill="#612128" />
<rect x="20" y="31" width="1" height="1" fill="#612128" />
<rect x="21" y="31" width="1" height="1" fill="#612128" />
<rect x="22" y="31" width="1" height="1" fill="#612128" />
<rect x="23" y="31" width="1" height="1" fill="#612128" />
<rect x="24" y="31" width="1" height="1" fill="#612128" />
<rect x="25" y="31" width="1" height="1" fill="#612128" />
<rect x="26" y="31" width="1" height="1" fill="#612128" />
<rect x="27" y="31" width="1" height="1" fill="#612128" />
<rect x="28" y="31" width="1" height="1" fill="#612128" />
<rect x="29" y="31" width="1" height="1" fill="#612128" />
<rect x="30" y="31" width="1" height="1" fill="#612128" />
<rect x="31" y="31" width="1" height="1" fill="#612128" />
<rect x="32" y="31" width="1" height="1" fill="#612128" />
<rect x="33" y="31" width="1" height="1" fill="#612128" />
<rect x="34" y="31" width="1" height="1" fill="#612128" />
<rect x="35" y="31" width="1" height="1" fill="#612128" />
<rect x="36" y="31" width="1" height="1" fill="#612128" />
<rect x="37" y="31" width="1" height="1" fill="#612128" />
<rect x="38" y="31" width="1" height="1" fill="#612128" />
<rect x="17" y="32" width="1" height="1" fill="#341014" />
<rect x="18" y="32" width="1" height="1" fill="#612128" />
<rect x="19" y="32" width="1" height="1" fill="#612128" />
<rect x="20" y="32" width="1" height="1" fill="#612128" />
<rect x="21" y="32" width="1" height="1" fill="#612128" />
<rect x="22" y="32" width="1" height="1" fill="#612128" />
<rect x="23" y="32" width="1" height="1" fill="#612128" />
<rect x="24" y="32" width="1" height="1" fill="#612128" />
<rect x="25" y="32" width="1" height="1" fill="#612128" />
<rect x="26" y="32" width="1" height="1" fill="#612128" />
<rect x="27" y="32" width="1" height="1" fill="#612128" />
<rect x="28" y="32" width="1" height="1" fill="#612128" />
<rect x="29" y="32" width="1" height="1" fill="#612128" />
<rect x="30" y="32" width="1" height="1" fill="#612128" />
<rect x="31" y="32" width="1" height="1" fill="#612128" />
<rect x="32" y="32" width="1" height="1" fill="#612128" />
<rect x="33" y="32" width="1" height="1" fill="#612128" />
<rect x="34" y="32" width="1" height="1" fill="#612128" />
<rect x="35" y="32" width="1" height="1" fill="#612128" />
<rect x="36" y="32" width="1" height="1" fill="#612128" />
<rect x="37" y="32" width="1" height="1" fill="#612128" />
<rect x="38" y="32" width="1" height="1" fill="#612128" />
<rect x="17" y="33" width="1" height="1" fill="#341014" />
<rect x="18" y="33" width="1" height="1" fill="#341014" />
<rect x="19" y="33" width="1" height="1" fill="#612128" />
<rect x="20" y="33" width="1" height="1" fill="#612128" />
<rect x="21" y="33" width="1" height="1" fill="#612128" />
<rect x="22" y="33" width="1" height="1" fill="#612128" />
<rect x="23" y="33" width="1" height="1" fill="#612128" />
<rect x="24" y="33" width="1" height="1" fill="#612128" />
<rect x="25" y="33" width="1" height="1" fill="#612128" />
<rect x="26" y="33" width="1" height="1" fill="#612128" />
<rect x="27" y="33" width="1" height="1" fill="#612128" />
<rect x="28" y="33" width="1" height="1" fill="#612128" />
<rect x="29" y="33" width="1" height="1" fill="#612128" />
<rect x="30" y="33" width="1" height="1" fill="#612128" />
<rect x="31" y="33" width="1" height="1" fill="#612128" />
<rect x="32" y="33" width="1" height="1" fill="#612128" />
<rect x="33" y="33" width="1" height="1" fill="#612128" />
<rect x="34" y="33" width="1" height="1" fill="#612128" />
<rect x="35" y="33" width="1" height="1" fill="#612128" />
<rect x="36" y="33" width="1" height="1" fill="#612128" />
<rect x="37" y="33" width="1" height="1" fill="#612128" />
<rect x="38" y="33" width="1" height="1" fill="#341014" />
<rect x="17" y="34" width="1" height="1" fill="#341014" />
<rect x="18" y="34" width="1" height="1" fill="#341014" />
<rect x="19" y="34" width="1" height="1" fill="#341014" />
<rect x="20" y="34" width="1" height="1" fill="#612128" />
<rect x="21" y="34" width="1" height="1" fill="#612128" />
<rect x="22" y="34" width="1" height="1" fill="#612128" />
<rect x="23" y="34" width="1" height="1" fill="#612128" />
<rect x="24" y="34" width="1" height="1" fill="#612128" />
<rect x="25" y="34" width="1" height="1" fill="#612128" />
<rect x="26" y="34" width="1" height="1" fill="#612128" />
<rect x="27" y="34" width="1" height="1" fill="#612128" />
<rect x="28" y="34" width="1" height="1" fill="#612128" />
<rect x="29" y="34" width="1" height="1" fill="#612128" />
<rect x="30" y="34" width="1" height="1" fill="#612128" />
<rect x="31" y="34" width="1" height="1" fill="#612128" />
<rect x="32" y="34" width="1" height="1" fill="#612128" />
<rect x="33" y="34" width="1" height="1" fill="#612128" />
<rect x="34" y="34" width="1" height="1" fill="#612128" />
<rect x="35" y="34" width="1" height="1" fill="#612128" />
<rect x="36" y="34" width="1" height="1" fill="#612128" />
<rect x="37" y="34" width="1" height="1" fill="#341014" />
<rect x="38" y="34" width="1" height="1" fill="#341014" />
<rect x="17" y="35" width="1" height="1" fill="#341014" />
<rect x="18" y="35" width="1" height="1" fill="#341014" />
<rect x="19" y="35" width="1" height="1" fill="#341014" />
<rect x="20" y="35" width="1" height="1" fill="#341014" />
<rect x="21" y="35" width="1" height="1" fill="#612128" />
<rect x="22" y="35" width="1" height="1" fill="#612128" />
<rect x="23" y="35" width="1" height="1" fill="#612128" />
<rect x="24" y="35" width="1" height="1" fill="#612128" />
<rect x="25" y="35" width="1" height="1" fill="#612128" />
<rect x="26" y="35" width="1" height="1" fill="#612128" />
<rect x="27" y="35" width="1" height="1" fill="#612128" />
<rect x="28" y="35" width="1" height="1" fill="#612128" />
<rect x="29" y="35" width="1" height="1" fill="#612128" />
<rect x="30" y="35" width="1" height="1" fill="#612128" />
<rect x="31" y="35" width="1" height="1" fill="#612128" />
<rect x="32" y="35" width="1" height="1" fill="#612128" />
<rect x="33" y="35" width="1" height="1" fill="#612128" />
<rect x="34" y="35" width="1" height="1" fill="#612128" />
<rect x="35" y="35" width="1" height="1" fill="#612128" />
<rect x="36" y="35" width="1" height="1" fill="#612128" />
<rect x="37" y="35" width="1" height="1" fill="#341014" />
<rect x="38" y="35" width="1" height="1" fill="#341014" />
<rect x="14" y="36" width="1" height="1" fill="#612128" />
<rect x="18" y="36" width="1" height="1" fill="#341014" />
<rect x="19" y="36" width="1" height="1" fill="#341014" />
<rect x="20" y="36" width="1" height="1" fill="#341014" />
<rect x="21" y="36" width="1" height="1" fill="#341014" />
<rect x="22" y="36" width="1" height="1" fill="#341014" />
<rect x="23" y="36" width="1" height="1" fill="#612128" />
<rect x="24" y="36" width="1" height="1" fill="#612128" />
<rect x="25" y="36" width="1" height="1" fill="#612128" />
<rect x="26" y="36" width="1" height="1" fill="#612128" />
<rect x="27" y="36" width="1" height="1" fill="#612128" />
<rect x="28" y="36" width="1" height="1" fill="#612128" />
<rect x="29" y="36" width="1" height="1" fill="#612128" />
<rect x="30" y="36" width="1" height="1" fill="#612128" />
<rect x="31" y="36" width="1" height="1" fill="#612128" />
<rect x="32" y="36" width="1" height="1" fill="#612128" />
<rect x="33" y="36" width="1" height="1" fill="#612128" />
<rect x="34" y="36" width="1" height="1" fill="#341014" />
<rect x="35" y="36" width="1" height="1" fill="#341014" />
<rect x="36" y="36" width="1" height="1" fill="#341014" />
<rect x="13" y="37" width="1" height="1" fill="#612128" />
<rect x="14" y="37" width="1" height="1" fill="#612128" />
<rect x="15" y="37" width="1" height="1" fill="#612128" />
<rect x="16" y="37" width="1" height="1" fill="#612128" />
<rect x="17" y="37" width="1" height="1" fill="#341014" />
<rect x="20" y="37" width="1" height="1" fill="#341014" />
<rect x="21" y="37" width="1" height="1" fill="#341014" />
<rect x="22" y="37" width="1" height="1" fill="#341014" />
<rect x="23" y="37" width="1" height="1" fill="#341014" />
<rect x="24" y="37" width="1" height="1" fill="#341014" />
<rect x="25" y="37" width="1" height="1" fill="#341014" />
<rect x="26" y="37" width="1" height="1" fill="#341014" />
<rect x="27" y="37" width="1" height="1" fill="#341014" />
<rect x="28" y="37" width="1" height="1" fill="#341014" />
<rect x="29" y="37" width="1" height="1" fill="#341014" />
<rect x="30" y="37" width="1" height="1" fill="#341014" />
<rect x="31" y="37" width="1" height="1" fill="#341014" />
<rect x="32" y="37" width="1" height="1" fill="#341014" />
<rect x="33" y="37" width="1" height="1" fill="#341014" />
<rect x="34" y="37" width="1" height="1" fill="#341014" />
<rect x="35" y="37" width="1" height="1" fill="#341014" />
<rect x="37" y="37" width="1" height="1" fill="#341014" />
<rect x="38" y="37" width="1" height="1" fill="#341014" />
<rect x="39" y="37" width="1" height="1" fill="#612128" />
<rect x="13" y="38" width="1" height="1" fill="#612128" />
<rect x="14" y="38" width="1" height="1" fill="#341014" />
<rect x="15" y="38" width="1" height="1" fill="#612128" />
<rect x="16" y="38" width="1" height="1" fill="#341014" />
<rect x="17" y="38" width="1" height="1" fill="#341014" />
<rect x="18" y="38" width="1" height="1" fill="#BDAB94" />
<rect x="19" y="38" width="1" height="1" fill="#8E7B63" />
<rect x="20" y="38" width="1" height="1" fill="#341014" />
<rect x="21" y="38" width="1" height="1" fill="#341014" />
<rect x="22" y="38" width="1" height="1" fill="#341014" />
<rect x="23" y="38" width="1" height="1" fill="#341014" />
<rect x="24" y="38" width="1" height="1" fill="#341014" />
<rect x="25" y="38" width="1" height="1" fill="#341014" />
<rect x="26" y="38" width="1" height="1" fill="#341014" />
<rect x="27" y="38" width="1" height="1" fill="#341014" />
<rect x="28" y="38" width="1" height="1" fill="#341014" />
<rect x="29" y="38" width="1" height="1" fill="#341014" />
<rect x="30" y="38" width="1" height="1" fill="#341014" />
<rect x="31" y="38" width="1" height="1" fill="#341014" />
<rect x="32" y="38" width="1" height="1" fill="#341014" />
<rect x="33" y="38" width="1" height="1" fill="#341014" />
<rect x="34" y="38" width="1" height="1" fill="#341014" />
<rect x="36" y="38" width="1" height="1" fill="#341014" />
<rect x="37" y="38" width="1" height="1" fill="#341014" />
<rect x="38" y="38" width="1" height="1" fill="#341014" />
<rect x="39" y="38" width="1" height="1" fill="#612128" />
<rect x="13" y="39" width="1" height="1" fill="#341014" />
<rect x="14" y="39" width="1" height="1" fill="#341014" />
<rect x="15" y="39" width="1" height="1" fill="#341014" />
<rect x="16" y="39" width="1" height="1" fill="#341014" />
<rect x="17" y="39" width="1" height="1" fill="#341014" />
<rect x="18" y="39" width="1" height="1" fill="#BDAB94" />
<rect x="19" y="39" width="1" height="1" fill="#8E7B63" />
<rect x="20" y="39" width="1" height="1" fill="#BDAB94" />
<rect x="21" y="39" width="1" height="1" fill="#BDAB94" />
<rect x="22" y="39" width="1" height="1" fill="#341014" />
<rect x="23" y="39" width="1" height="1" fill="#341014" />
<rect x="24" y="39" width="1" height="1" fill="#341014" />
<rect x="25" y="39" width="1" height="1" fill="#341014" />
<rect x="26" y="39" width="1" height="1" fill="#341014" />
<rect x="27" y="39" width="1" height="1" fill="#341014" />
<rect x="28" y="39" width="1" height="1" fill="#341014" />
<rect x="29" y="39" width="1" height="1" fill="#341014" />
<rect x="30" y="39" width="1" height="1" fill="#341014" />
<rect x="31" y="39" width="1" height="1" fill="#341014" />
<rect x="32" y="39" width="1" height="1" fill="#341014" />
<rect x="33" y="39" width="1" height="1" fill="#341014" />
<rect x="34" y="39" width="1" height="1" fill="#8E7B63" />
<rect x="35" y="39" width="1" height="1" fill="#8E7B63" />
<rect x="36" y="39" width="1" height="1" fill="#341014" />
<rect x="37" y="39" width="1" height="1" fill="#341014" />
<rect x="38" y="39" width="1" height="1" fill="#341014" />
<rect x="39" y="39" width="1" height="1" fill="#341014" />
<rect x="13" y="40" width="1" height="1" fill="#341014" />
<rect x="14" y="40" width="1" height="1" fill="#341014" />
<rect x="15" y="40" width="1" height="1" fill="#341014" />
<rect x="16" y="40" width="1" height="1" fill="#341014" />
<rect x="17" y="40" width="1" height="1" fill="#BDAB94" />
<rect x="18" y="40" width="1" height="1" fill="#8E7B63" />
<rect x="19" y="40" width="1" height="1" fill="#8E7B63" />
<rect x="20" y="40" width="1" height="1" fill="#BDAB94" />
<rect x="21" y="40" width="1" height="1" fill="#BDAB94" />
<rect x="22" y="40" width="1" height="1" fill="#BDAB94" />
<rect x="23" y="40" width="1" height="1" fill="#BDAB94" />
<rect x="24" y="40" width="1" height="1" fill="#BDAB94" />
<rect x="25" y="40" width="1" height="1" fill="#341014" />
<rect x="26" y="40" width="1" height="1" fill="#341014" />
<rect x="27" y="40" width="1" height="1" fill="#341014" />
<rect x="28" y="40" width="1" height="1" fill="#341014" />
<rect x="29" y="40" width="1" height="1" fill="#341014" />
<rect x="30" y="40" width="1" height="1" fill="#341014" />
<rect x="31" y="40" width="1" height="1" fill="#8E7B63" />
<rect x="32" y="40" width="1" height="1" fill="#8E7B63" />
<rect x="33" y="40" width="1" height="1" fill="#8E7B63" />
<rect x="34" y="40" width="1" height="1" fill="#8E7B63" />
<rect x="35" y="40" width="1" height="1" fill="#8E7B63" />
<rect x="36" y="40" width="1" height="1" fill="#341014" />
<rect x="37" y="40" width="1" height="1" fill="#341014" />
<rect x="38" y="40" width="1" height="1" fill="#341014" />
<rect x="14" y="41" width="1" height="1" fill="#BDAB94" />
<rect x="15" y="41" width="1" height="1" fill="#8E7B63" />
<rect x="16" y="41" width="1" height="1" fill="#8E7B63" />
<rect x="17" y="41" width="1" height="1" fill="#8E7B63" />
<rect x="18" y="41" width="1" height="1" fill="#8E7B63" />
<rect x="19" y="41" width="1" height="1" fill="#8E7B63" />
<rect x="20" y="41" width="1" height="1" fill="#BDAB94" />
<rect x="21" y="41" width="1" height="1" fill="#BDAB94" />
<rect x="22" y="41" width="1" height="1" fill="#BDAB94" />
<rect x="23" y="41" width="1" height="1" fill="#BDAB94" />
<rect x="24" y="41" width="1" height="1" fill="#BDAB94" />
<rect x="25" y="41" width="1" height="1" fill="#BDAB94" />
<rect x="26" y="41" width="1" height="1" fill="#BDAB94" />
<rect x="27" y="41" width="1" height="1" fill="#BDAB94" />
<rect x="28" y="41" width="1" height="1" fill="#BDAB94" />
<rect x="29" y="41" width="1" height="1" fill="#BDAB94" />
<rect x="30" y="41" width="1" height="1" fill="#8E7B63" />
<rect x="31" y="41" width="1" height="1" fill="#8E7B63" />
<rect x="32" y="41" width="1" height="1" fill="#8E7B63" />
<rect x="33" y="41" width="1" height="1" fill="#8E7B63" />
<rect x="34" y="41" width="1" height="1" fill="#8E7B63" />
<rect x="35" y="41" width="1" height="1" fill="#8E7B63" />
<rect x="36" y="41" width="1" height="1" fill="#8E7B63" />
<rect x="37" y="41" width="1" height="1" fill="#8E7B63" />
<rect x="16" y="42" width="1" height="1" fill="#8E7B63" />
<rect x="17" y="42" width="1" height="1" fill="#8E7B63" />
<rect x="18" y="42" width="1" height="1" fill="#8E7B63" />
<rect x="19" y="42" width="1" height="1" fill="#BDAB94" />
<rect x="20" y="42" width="1" height="1" fill="#BDAB94" />
<rect x="21" y="42" width="1" height="1" fill="#BDAB94" />
<rect x="22" y="42" width="1" height="1" fill="#BDAB94" />
<rect x="23" y="42" width="1" height="1" fill="#BDAB94" />
<rect x="24" y="42" width="1" height="1" fill="#BDAB94" />
<rect x="25" y="42" width="1" height="1" fill="#BDAB94" />
<rect x="26" y="42" width="1" height="1" fill="#BDAB94" />
<rect x="27" y="42" width="1" height="1" fill="#BDAB94" />
<rect x="28" y="42" width="1" height="1" fill="#BDAB94" />
<rect x="29" y="42" width="1" height="1" fill="#BDAB94" />
<rect x="30" y="42" width="1" height="1" fill="#BDAB94" />
<rect x="31" y="42" width="1" height="1" fill="#8E7B63" />
<rect x="32" y="42" width="1" height="1" fill="#8E7B63" />
<rect x="33" y="42" width="1" height="1" fill="#8E7B63" />
<rect x="34" y="42" width="1" height="1" fill="#8E7B63" />
<rect x="15" y="43" width="1" height="1" fill="#8E7B63" />
<rect x="16" y="43" width="1" height="1" fill="#8E7B63" />
<rect x="17" y="43" width="1" height="1" fill="#8E7B63" />
<rect x="18" y="43" width="1" height="1" fill="#8E7B63" />
<rect x="19" y="43" width="1" height="1" fill="#BDAB94" />
<rect x="20" y="43" width="1" height="1" fill="#BDAB94" />
<rect x="21" y="43" width="1" height="1" fill="#BDAB94" />
<rect x="22" y="43" width="1" height="1" fill="#BDAB94" />
<rect x="23" y="43" width="1" height="1" fill="#BDAB94" />
<rect x="24" y="43" width="1" height="1" fill="#BDAB94" />
<rect x="25" y="43" width="1" height="1" fill="#BDAB94" />
<rect x="26" y="43" width="1" height="1" fill="#BDAB94" />
<rect x="27" y="43" width="1" height="1" fill="#BDAB94" />
<rect x="28" y="43" width="1" height="1" fill="#BDAB94" />
<rect x="29" y="43" width="1" height="1" fill="#BDAB94" />
<rect x="30" y="43" width="1" height="1" fill="#BDAB94" />
<rect x="31" y="43" width="1" height="1" fill="#8E7B63" />
<rect x="15" y="44" width="1" height="1" fill="#BDAB94" />
<rect x="16" y="44" width="1" height="1" fill="#8E7B63" />
<rect x="17" y="44" width="1" height="1" fill="#8E7B63" />
<rect x="18" y="44" width="1" height="1" fill="#8E7B63" />
<rect x="19" y="44" width="1" height="1" fill="#8E7B63" />
<rect x="20" y="44" width="1" height="1" fill="#BDAB94" />
<rect x="21" y="44" width="1" height="1" fill="#BDAB94" />
<rect x="22" y="44" width="1" height="1" fill="#BDAB94" />
<rect x="23" y="44" width="1" height="1" fill="#BDAB94" />
<rect x="24" y="44" width="1" height="1" fill="#BDAB94" />
<rect x="25" y="44" width="1" height="1" fill="#BDAB94" />
<rect x="26" y="44" width="1" height="1" fill="#BDAB94" />
<rect x="27" y="44" width="1" height="1" fill="#BDAB94" />
<rect x="28" y="44" width="1" height="1" fill="#BDAB94" />
<rect x="29" y="44" width="1" height="1" fill="#BDAB94" />
<rect x="30" y="44" width="1" height="1" fill="#8E7B63" />
<rect x="31" y="44" width="1" height="1" fill="#8E7B63" />
<rect x="15" y="45" width="1" height="1" fill="#BDAB94" />
<rect x="16" y="45" width="1" height="1" fill="#BDAB94" />
<rect x="17" y="45" width="1" height="1" fill="#8E7B63" />
<rect x="18" y="45" width="1" height="1" fill="#8E7B63" />
<rect x="19" y="45" width="1" height="1" fill="#8E7B63" />
<rect x="20" y="45" width="1" height="1" fill="#8E7B63" />
<rect x="21" y="45" width="1" height="1" fill="#BDAB94" />
<rect x="22" y="45" width="1" height="1" fill="#BDAB94" />
<rect x="23" y="45" width="1" height="1" fill="#BDAB94" />
<rect x="24" y="45" width="1" height="1" fill="#BDAB94" />
<rect x="25" y="45" width="1" height="1" fill="#BDAB94" />
<rect x="26" y="45" width="1" height="1" fill="#BDAB94" />
<rect x="27" y="45" width="1" height="1" fill="#BDAB94" />
<rect x="28" y="45" width="1" height="1" fill="#BDAB94" />
<rect x="29" y="45" width="1" height="1" fill="#8E7B63" />
<rect x="30" y="45" width="1" height="1" fill="#8E7B63" />
<rect x="31" y="45" width="1" height="1" fill="#8E7B63" />
<rect x="14" y="46" width="1" height="1" fill="#BDAB94" />
<rect x="15" y="46" width="1" height="1" fill="#BDAB94" />
<rect x="16" y="46" width="1" height="1" fill="#BDAB94" />
<rect x="17" y="46" width="1" height="1" fill="#BDAB94" />
<rect x="18" y="46" width="1" height="1" fill="#8E7B63" />
<rect x="19" y="46" width="1" height="1" fill="#8E7B63" />
<rect x="20" y="46" width="1" height="1" fill="#8E7B63" />
<rect x="21" y="46" width="1" height="1" fill="#8E7B63" />
<rect x="22" y="46" width="1" height="1" fill="#BDAB94" />
<rect x="23" y="46" width="1" height="1" fill="#BDAB94" />
<rect x="24" y="46" width="1" height="1" fill="#BDAB94" />
<rect x="25" y="46" width="1" height="1" fill="#BDAB94" />
<rect x="26" y="46" width="1" height="1" fill="#BDAB94" />
<rect x="27" y="46" width="1" height="1" fill="#BDAB94" />
<rect x="28" y="46" width="1" height="1" fill="#8E7B63" />
<rect x="29" y="46" width="1" height="1" fill="#8E7B63" />
<rect x="30" y="46" width="1" height="1" fill="#8E7B63" />
<rect x="14" y="47" width="1" height="1" fill="#BDAB94" />
<rect x="15" y="47" width="1" height="1" fill="#BDAB94" />
<rect x="16" y="47" width="1" height="1" fill="#BDAB94" />
<rect x="17" y="47" width="1" height="1" fill="#BDAB94" />
<rect x="18" y="47" width="1" height="1" fill="#BDAB94" />
<rect x="19" y="47" width="1" height="1" fill="#8E7B63" />
<rect x="20" y="47" width="1" height="1" fill="#8E7B63" />
<rect x="21" y="47" width="1" height="1" fill="#8E7B63" />
<rect x="22" y="47" width="1" height="1" fill="#8E7B63" />
<rect x="23" y="47" width="1" height="1" fill="#8E7B63" />
<rect x="24" y="47" width="1" height="1" fill="#8E7B63" />
<rect x="25" y="47" width="1" height="1" fill="#8E7B63" />
<rect x="26" y="47" width="1" height="1" fill="#8E7B63" />
<rect x="27" y="47" width="1" height="1" fill="#8E7B63" />
<rect x="28" y="47" width="1" height="1" fill="#8E7B63" />
<rect x="29" y="47" width="1" height="1" fill="#8E7B63" />
<rect x="30" y="47" width="1" height="1" fill="#8E7B63" />
<rect x="14" y="48" width="1" height="1" fill="#BDAB94" />
<rect x="15" y="48" width="1" height="1" fill="#BDAB94" />
<rect x="16" y="48" width="1" height="1" fill="#BDAB94" />
<rect x="17" y="48" width="1" height="1" fill="#BDAB94" />
<rect x="18" y="48" width="1" height="1" fill="#BDAB94" />
<rect x="19" y="48" width="1" height="1" fill="#BDAB94" />
<rect x="20" y="48" width="1" height="1" fill="#8E7B63" />
<rect x="21" y="48" width="1" height="1" fill="#8E7B63" />
<rect x="22" y="48" width="1" height="1" fill="#8E7B63" />
<rect x="23" y="48" width="1" height="1" fill="#8E7B63" />
<rect x="24" y="48" width="1" height="1" fill="#8E7B63" />
<rect x="25" y="48" width="1" height="1" fill="#8E7B63" />
<rect x="26" y="48" width="1" height="1" fill="#8E7B63" />
<rect x="27" y="48" width="1" height="1" fill="#8E7B63" />
<rect x="28" y="48" width="1" height="1" fill="#8E7B63" />
<rect x="29" y="48" width="1" height="1" fill="#BDAB94" />
<rect x="30" y="48" width="1" height="1" fill="#BDAB94" />
<rect x="14" y="49" width="1" height="1" fill="#BDAB94" />
<rect x="15" y="49" width="1" height="1" fill="#BDAB94" />
<rect x="16" y="49" width="1" height="1" fill="#BDAB94" />
<rect x="17" y="49" width="1" height="1" fill="#BDAB94" />
<rect x="18" y="49" width="1" height="1" fill="#BDAB94" />
<rect x="19" y="49" width="1" height="1" fill="#BDAB94" />
<rect x="20" y="49" width="1" height="1" fill="#BDAB94" />
<rect x="21" y="49" width="1" height="1" fill="#8E7B63" />
<rect x="22" y="49" width="1" height="1" fill="#8E7B63" />
<rect x="23" y="49" width="1" height="1" fill="#8E7B63" />
<rect x="24" y="49" width="1" height="1" fill="#8E7B63" />
<rect x="25" y="49" width="1" height="1" fill="#8E7B63" />
<rect x="26" y="49" width="1" height="1" fill="#8E7B63" />
<rect x="27" y="49" width="1" height="1" fill="#8E7B63" />
<rect x="28" y="49" width="1" height="1" fill="#BDAB94" />
<rect x="29" y="49" width="1" height="1" fill="#BDAB94" />
<rect x="30" y="49" width="1" height="1" fill="#BDAB94" />
<rect x="14" y="50" width="1" height="1" fill="#8E7B63" />
<rect x="15" y="50" width="1" height="1" fill="#8E7B63" />
<rect x="16" y="50" width="1" height="1" fill="#8E7B63" />
<rect x="17" y="50" width="1" height="1" fill="#BDAB94" />
<rect x="18" y="50" width="1" height="1" fill="#8E7B63" />
<rect x="19" y="50" width="1" height="1" fill="#8E7B63" />
<rect x="20" y="50" width="1" height="1" fill="#8E7B63" />
<rect x="21" y="50" width="1" height="1" fill="#8E7B63" />
<rect x="22" y="50" width="1" height="1" fill="#8E7B63" />
<rect x="23" y="50" width="1" height="1" fill="#8E7B63" />
<rect x="24" y="50" width="1" height="1" fill="#8E7B63" />
<rect x="25" y="50" width="1" height="1" fill="#8E7B63" />
<rect x="26" y="50" width="1" height="1" fill="#8E7B63" />
<rect x="27" y="50" width="1" height="1" fill="#8E7B63" />
<rect x="28" y="50" width="1" height="1" fill="#8E7B63" />
<rect x="29" y="50" width="1" height="1" fill="#8E7B63" />
<rect x="30" y="50" width="1" height="1" fill="#8E7B63" />
<rect x="14" y="51" width="1" height="1" fill="#612128" />
<rect x="15" y="51" width="1" height="1" fill="#341014" />
<rect x="16" y="51" width="1" height="1" fill="#612128" />
<rect x="17" y="51" width="1" height="1" fill="#341014" />
<rect x="18" y="51" width="1" height="1" fill="#341014" />
<rect x="19" y="51" width="1" height="1" fill="#612128" />
<rect x="24" y="51" width="1" height="1" fill="#341014" />
<rect x="25" y="51" width="1" height="1" fill="#612128" />
<rect x="26" y="51" width="1" height="1" fill="#341014" />
<rect x="27" y="51" width="1" height="1" fill="#612128" />
<rect x="28" y="51" width="1" height="1" fill="#341014" />
<rect x="29" y="51" width="1" height="1" fill="#612128" />
<rect x="14" y="52" width="1" height="1" fill="#341014" />
<rect x="15" y="52" width="1" height="1" fill="#612128" />
<rect x="16" y="52" width="1" height="1" fill="#341014" />
<rect x="17" y="52" width="1" height="1" fill="#612128" />
<rect x="18" y="52" width="1" height="1" fill="#341014" />
<rect x="19" y="52" width="1" height="1" fill="#612128" />
<rect x="25" y="52" width="1" height="1" fill="#341014" />
<rect x="26" y="52" width="1" height="1" fill="#612128" />
<rect x="27" y="52" width="1" height="1" fill="#341014" />
<rect x="28" y="52" width="1" height="1" fill="#612128" />
<rect x="29" y="52" width="1" height="1" fill="#341014" />
</svg>