<?xml version="1.0" encoding="UTF-8" ?>
<svg version="1.1" width="50" height="50" xmlns="http://www.w3.org/2000/svg" shape-rendering="crispEdges">
<rect x="22" y="4" width="1" height="1" fill="#281B10" />
<rect x="23" y="4" width="1" height="1" fill="#281B10" />
<rect x="11" y="5" width="1" height="1" fill="#734F31" />
<rect x="12" y="5" width="1" height="1" fill="#734F31" />
<rect x="13" y="5" width="1" height="1" fill="#734F31" />
<rect x="21" y="5" width="1" height="1" fill="#281B10" />
<rect x="22" y="5" width="1" height="1" fill="#281B10" />
<rect x="23" y="5" width="1" height="1" fill="#281B10" />
<rect x="10" y="6" width="1" height="1" fill="#734F31" />
<rect x="23" y="6" width="1" height="1" fill="#281B10" />
<rect x="9" y="8" width="1" height="1" fill="#734F31" />
<rect x="36" y="8" width="1" height="1" fill="#281B10" />
<rect x="35" y="9" width="1" height="1" fill="#281B10" />
<rect x="36" y="9" width="1" height="1" fill="#281B10" />
<rect x="36" y="10" width="1" height="1" fill="#281B10" />
<rect x="14" y="11" width="1" height="1" fill="#281B10" />
<rect x="29" y="14" width="1" height="1" fill="#281B10" />
<rect x="30" y="14" width="1" height="1" fill="#281B10" />
<rect x="31" y="14" width="1" height="1" fill="#281B10" />
<rect x="32" y="14" width="1" height="1" fill="#281B10" />
<rect x="8" y="15" width="1" height="1" fill="#281B10" />
<rect x="30" y="15" width="1" height="1" fill="#281B10" />
<rect x="31" y="15" width="1" height="1" fill="#281B10" />
<rect x="7" y="16" width="1" height="1" fill="#281B10" />
<rect x="20" y="16" width="1" height="1" fill="#281B10" />
<rect x="21" y="16" width="1" height="1" fill="#281B10" />
<rect x="5" y="17" width="1" height="1" fill="#281B10" />
<rect x="4" y="18" width="1" height="1" fill="#281B10" />
<rect x="4" y="19" width="1" height="1" fill="#281B10" />
<rect x="44" y="21" width="1" height="1" fill="#734F31" />
<rect x="44" y="22" width="1" height="1" fill="#734F31" />
<rect x="44" y="23" width="1" height="1" fill="#281B10" />
<rect x="45" y="23" width="1" height="1" fill="#281B10" />
<rect x="40" y="24" width="1" height="1" fill="#281B10" />
<rect x="44" y="24" width="1" height="1" fill="#281B10" />
<rect x="43" y="25" width="1" height="1" fill="#281B10" />
<rect x="44" y="25" width="1" height="1" fill="#281B10" />
<rect x="30" y="26" width="1" height="1" fill="#281B10" />
<rect x="31" y="26" width="1" height="1" fill="#281B10" />
<rect x="42" y="26" width="1" height="1" fill="#281B10" />
<rect x="4" y="27" width="1" height="1" fill="#46301E" />
<rect x="5" y="27" width="1" height="1" fill="#46301E" />
<rect x="4" y="28" width="1" height="1" fill="#281B10" />
<rect x="5" y="28" width="1" height="1" fill="#281B10" />
<rect x="3" y="29" width="1" height="1" fill="#281B10" />
<rect x="4" y="29" width="1" height="1" fill="#281B10" />
<rect x="5" y="29" width="1" height="1" fill="#281B10" />
<rect x="5" y="30" width="1" height="1" fill="#734F31" />
<rect x="30" y="30" width="1" height="1" fill="#281B10" />
<rect x="31" y="30" width="1" height="1" fill="#281B10" />
<rect x="15" y="31" width="1" height="1" fill="#281B10" />
<rect x="29" y="31" width="1" height="1" fill="#281B10" />
<rect x="30" y="31" width="1" height="1" fill="#281B10" />
<rect x="31" y="31" width="1" height="1" fill="#281B10" />
<rect x="15" y="32" width="1" height="1" fill="#281B10" />
<rect x="16" y="32" width="1" height="1" fill="#281B10" />
<rect x="29" y="32" width="1" height="1" fill="#281B10" />
<rect x="30" y="32" width="1" height="1" fill="#281B10" />
<rect x="31" y="32" width="1" height="1" fill="#281B10" />
<rect x="28" y="33" width="1" height="1" fill="#281B10" />
<rect x="29" y="33" width="1" height="1" fill="#281B10" />
<rect x="30" y="33" width="1" height="1" fill="#281B10" />
<rect x="31" y="33" width="1" height="1" fill="#281B10" />
<rect x="27" y="34" width="1" height="1" fill="#281B10" />
<rect x="28" y="34" width="1" height="1" fill="#281B10" />
<rect x="29" y="34" width="1" height="1" fill="#281B10" />
<rect x="13" y="37" width="1" height="1" fill="#281B10" />
<rect x="13" y="38" width="1" height="1" fill="#281B10" />
<rect x="13" y="39" width="1" height="1" fill="#281B10" />
<rect x="14" y="39" width="1" height="1" fill="#281B10" />
<rect x="15" y="39" width="1" height="1" fill="#281B10" />
<rect x="14" y="40" width="1" height="1" fill="#281B10" />
<rect x="41" y="40" width="1" height="1" fill="#281B10" />
<rect x="42" y="40" width="1" height="1" fill="#281B10" />
<rect x="41" y="41" width="1" height="1" fill="#281B10" />
<rect x="42" y="41" width="1" height="1" fill="#281B10" />
<rect x="40" y="42" width="1" height="1" fill="#281B10" />
<rect x="41" y="42" width="1" height="1" fill="#281B10" />
<rect x="26" y="43" width="1" height="1" fill="#734F31" />
<rect x="27" y="43" width="1" height="1" fill="#734F31" />
<rect x="28" y="43" width="1" height="1" fill="#734F31" />
<rect x="40" y="43" width="1" height="1" fill="#281B10" />
<rect x="25" y="44" width="1" height="1" fill="#734F31" />
<rect x="26" y="44" width="1" height="1" fill="#734F31" />
<rect x="27" y="44" width="1" height="1" fill="#734F31" />
<rect x="28" y="44" width="1" height="1" fill="#734F31" />
<rect x="40" y="44" width="1" height="1" fill="#281B10" />
<rect x="25" y="45" width="1" height="1" fill="#734F31" />
<rect x="26" y="45" width="1" height="1" fill="#734F31" />
<rect x="27" y="45" width="1" height="1" fill="#734F31" />
<rect x="28" y="45" width="1" height="1" fill="#734F31" />
<rect x="25" y="46" width="1" height="1" fill="#734F31" />
<rect x="26" y="46" width="1" height="1" fill="#734F31" />
</svg>