<?xml version="1.0" encoding="UTF-8" ?>
<svg version="1.1" width="50" height="50" xmlns="http://www.w3.org/2000/svg" shape-rendering="crispEdges">
<rect x="20" y="21" width="1" height="1" fill="#734F31" />
<rect x="21" y="21" width="1" height="1" fill="#734F31" />
<rect x="22" y="21" width="1" height="1" fill="#734F31" />
<rect x="23" y="21" width="1" height="1" fill="#734F31" />
<rect x="24" y="21" width="1" height="1" fill="#734F31" />
<rect x="25" y="21" width="1" height="1" fill="#734F31" />
<rect x="19" y="22" width="1" height="1" fill="#46301E" />
<rect x="20" y="22" width="1" height="1" fill="#46301E" />
<rect x="21" y="22" width="1" height="1" fill="#734F31" />
<rect x="22" y="22" width="1" height="1" fill="#734F31" />
<rect x="23" y="22" width="1" height="1" fill="#734F31" />
<rect x="24" y="22" width="1" height="1" fill="#734F31" />
<rect x="25" y="22" width="1" height="1" fill="#734F31" />
<rect x="26" y="22" width="1" height="1" fill="#734F31" />
<rect x="27" y="22" width="1" height="1" fill="#734F31" />
<rect x="18" y="23" width="1" height="1" fill="#46301E" />
<rect x="19" y="23" width="1" height="1" fill="#46301E" />
<rect x="20" y="23" width="1" height="1" fill="#46301E" />
<rect x="21" y="23" width="1" height="1" fill="#734F31" />
<rect x="22" y="23" width="1" height="1" fill="#734F31" />
<rect x="23" y="23" width="1" height="1" fill="#734F31" />
<rect x="24" y="23" width="1" height="1" fill="#734F31" />
<rect x="25" y="23" width="1" height="1" fill="#734F31" />
<rect x="26" y="23" width="1" height="1" fill="#734F31" />
<rect x="27" y="23" width="1" height="1" fill="#734F31" />
<rect x="28" y="23" width="1" height="1" fill="#734F31" />
<rect x="18" y="24" width="1" height="1" fill="#46301E" />
<rect x="19" y="24" width="1" height="1" fill="#46301E" />
<rect x="20" y="24" width="1" height="1" fill="#46301E" />
<rect x="21" y="24" width="1" height="1" fill="#46301E" />
<rect x="22" y="24" width="1" height="1" fill="#734F31" />
<rect x="23" y="24" width="1" height="1" fill="#734F31" />
<rect x="24" y="24" width="1" height="1" fill="#734F31" />
<rect x="25" y="24" width="1" height="1" fill="#734F31" />
<rect x="26" y="24" width="1" height="1" fill="#734F31" />
<rect x="27" y="24" width="1" height="1" fill="#734F31" />
<rect x="28" y="24" width="1" height="1" fill="#734F31" />
<rect x="29" y="24" width="1" height="1" fill="#734F31" />
<rect x="32" y="24" width="1" height="1" fill="#46301E" />
<rect x="33" y="24" width="1" height="1" fill="#46301E" />
<rect x="18" y="25" width="1" height="1" fill="#46301E" />
<rect x="19" y="25" width="1" height="1" fill="#46301E" />
<rect x="20" y="25" width="1" height="1" fill="#46301E" />
<rect x="21" y="25" width="1" height="1" fill="#46301E" />
<rect x="22" y="25" width="1" height="1" fill="#46301E" />
<rect x="23" y="25" width="1" height="1" fill="#734F31" />
<rect x="24" y="25" width="1" height="1" fill="#734F31" />
<rect x="25" y="25" width="1" height="1" fill="#734F31" />
<rect x="26" y="25" width="1" height="1" fill="#734F31" />
<rect x="27" y="25" width="1" height="1" fill="#734F31" />
<rect x="28" y="25" width="1" height="1" fill="#734F31" />
<rect x="29" y="25" width="1" height="1" fill="#734F31" />
<rect x="30" y="25" width="1" height="1" fill="#734F31" />
<rect x="31" y="25" width="1" height="1" fill="#46301E" />
<rect x="32" y="25" width="1" height="1" fill="#46301E" />
<rect x="18" y="26" width="1" height="1" fill="#46301E" />
<rect x="19" y="26" width="1" height="1" fill="#46301E" />
<rect x="20" y="26" width="1" height="1" fill="#46301E" />
<rect x="21" y="26" width="1" height="1" fill="#46301E" />
<rect x="22" y="26" width="1" height="1" fill="#46301E" />
<rect x="23" y="26" width="1" height="1" fill="#46301E" />
<rect x="24" y="26" width="1" height="1" fill="#734F31" />
<rect x="25" y="26" width="1" height="1" fill="#734F31" />
<rect x="26" y="26" width="1" height="1" fill="#734F31" />
<rect x="27" y="26" width="1" height="1" fill="#734F31" />
<rect x="28" y="26" width="1" height="1" fill="#734F31" />
<rect x="29" y="26" width="1" height="1" fill="#734F31" />
<rect x="30" y="26" width="1" height="1" fill="#734F31" />
<rect x="31" y="26" width="1" height="1" fill="#46301E" />
<rect x="18" y="27" width="1" height="1" fill="#46301E" />
<rect x="19" y="27" width="1" height="1" fill="#46301E" />
<rect x="20" y="27" width="1" height="1" fill="#46301E" />
<rect x="21" y="27" width="1" height="1" fill="#46301E" />
<rect x="22" y="27" width="1" height="1" fill="#46301E" />
<rect x="23" y="27" width="1" height="1" fill="#46301E" />
<rect x="24" y="27" width="1" height="1" fill="#734F31" />
<rect x="25" y="27" width="1" height="1" fill="#734F31" />
<rect x="26" y="27" width="1" height="1" fill="#734F31" />
<rect x="27" y="27" width="1" height="1" fill="#734F31" />
<rect x="28" y="27" width="1" height="1" fill="#734F31" />
<rect x="29" y="27" width="1" height="1" fill="#734F31" />
<rect x="30" y="27" width="1" height="1" fill="#734F31" />
<rect x="31" y="27" width="1" height="1" fill="#734F31" />
<rect x="20" y="28" width="1" height="1" fill="#46301E" />
<rect x="21" y="28" width="1" height="1" fill="#46301E" />
<rect x="22" y="28" width="1" height="1" fill="#46301E" />
<rect x="26" y="28" width="1" height="1" fill="#734F31" />
<rect x="27" y="28" width="1" height="1" fill="#734F31" />
<rect x="28" y="28" width="1" height="1" fill="#734F31" />
<rect x="29" y="28" width="1" height="1" fill="#734F31" />
<rect x="30" y="28" width="1" height="1" fill="#734F31" />
<rect x="31" y="28" width="1" height="1" fill="#734F31" />
<rect x="32" y="28" width="1" height="1" fill="#734F31" />
<rect x="24" y="29" width="1" height="1" fill="#46301E" />
<rect x="25" y="29" width="1" height="1" fill="#46301E" />
<rect x="26" y="29" width="1" height="1" fill="#734F31" />
<rect x="27" y="29" width="1" height="1" fill="#734F31" />
<rect x="28" y="29" width="1" height="1" fill="#734F31" />
<rect x="29" y="29" width="1" height="1" fill="#734F31" />
<rect x="30" y="29" width="1" height="1" fill="#734F31" />
<rect x="31" y="29" width="1" height="1" fill="#734F31" />
<rect x="32" y="29" width="1" height="1" fill="#734F31" />
<rect x="23" y="30" width="1" height="1" fill="#46301E" />
<rect x="24" y="30" width="1" height="1" fill="#46301E" />
<rect x="25" y="30" width="1" height="1" fill="#46301E" />
<rect x="26" y="30" width="1" height="1" fill="#46301E" />
<rect x="27" y="30" width="1" height="1" fill="#734F31" />
<rect x="28" y="30" width="1" height="1" fill="#734F31" />
<rect x="29" y="30" width="1" height="1" fill="#734F31" />
<rect x="30" y="30" width="1" height="1" fill="#734F31" />
<rect x="31" y="30" width="1" height="1" fill="#734F31" />
<rect x="32" y="30" width="1" height="1" fill="#734F31" />
<rect x="18" y="31" width="1" height="1" fill="#734F31" />
<rect x="19" y="31" width="1" height="1" fill="#734F31" />
<rect x="20" y="31" width="1" height="1" fill="#734F31" />
<rect x="22" y="31" width="1" height="1" fill="#46301E" />
<rect x="23" y="31" width="1" height="1" fill="#46301E" />
<rect x="24" y="31" width="1" height="1" fill="#46301E" />
<rect x="25" y="31" width="1" height="1" fill="#46301E" />
<rect x="26" y="31" width="1" height="1" fill="#46301E" />
<rect x="27" y="31" width="1" height="1" fill="#46301E" />
<rect x="28" y="31" width="1" height="1" fill="#734F31" />
<rect x="29" y="31" width="1" height="1" fill="#734F31" />
<rect x="30" y="31" width="1" height="1" fill="#734F31" />
<rect x="31" y="31" width="1" height="1" fill="#734F31" />
<rect x="32" y="31" width="1" height="1" fill="#734F31" />
<rect x="18" y="32" width="1" height="1" fill="#734F31" />
<rect x="19" y="32" width="1" height="1" fill="#734F31" />
<rect x="20" y="32" width="1" height="1" fill="#734F31" />
<rect x="21" y="32" width="1" height="1" fill="#46301E" />
<rect x="22" y="32" width="1" height="1" fill="#46301E" />
<rect x="23" y="32" width="1" height="1" fill="#46301E" />
<rect x="24" y="32" width="1" height="1" fill="#46301E" />
<rect x="25" y="32" width="1" height="1" fill="#46301E" />
<rect x="26" y="32" width="1" height="1" fill="#46301E" />
<rect x="27" y="32" width="1" height="1" fill="#46301E" />
<rect x="29" y="32" width="1" height="1" fill="#734F31" />
<rect x="30" y="32" width="1" height="1" fill="#734F31" />
<rect x="31" y="32" width="1" height="1" fill="#734F31" />
<rect x="32" y="32" width="1" height="1" fill="#734F31" />
<rect x="33" y="32" width="1" height="1" fill="#734F31" />
<rect x="18" y="33" width="1" height="1" fill="#734F31" />
<rect x="19" y="33" width="1" height="1" fill="#734F31" />
<rect x="20" y="33" width="1" height="1" fill="#734F31" />
<rect x="21" y="33" width="1" height="1" fill="#734F31" />
<rect x="22" y="33" width="1" height="1" fill="#46301E" />
<rect x="23" y="33" width="1" height="1" fill="#46301E" />
<rect x="24" y="33" width="1" height="1" fill="#46301E" />
<rect x="25" y="33" width="1" height="1" fill="#46301E" />
<rect x="26" y="33" width="1" height="1" fill="#46301E" />
<rect x="31" y="33" width="1" height="1" fill="#734F31" />
<rect x="32" y="33" width="1" height="1" fill="#734F31" />
<rect x="33" y="33" width="1" height="1" fill="#734F31" />
<rect x="18" y="34" width="1" height="1" fill="#734F31" />
<rect x="19" y="34" width="1" height="1" fill="#734F31" />
<rect x="20" y="34" width="1" height="1" fill="#734F31" />
<rect x="21" y="34" width="1" height="1" fill="#734F31" />
<rect x="22" y="34" width="1" height="1" fill="#734F31" />
<rect x="23" y="34" width="1" height="1" fill="#46301E" />
<rect x="24" y="34" width="1" height="1" fill="#46301E" />
<rect x="25" y="34" width="1" height="1" fill="#734F31" />
<rect x="32" y="34" width="1" height="1" fill="#734F31" />
<rect x="33" y="34" width="1" height="1" fill="#734F31" />
<rect x="18" y="35" width="1" height="1" fill="#734F31" />
<rect x="19" y="35" width="1" height="1" fill="#734F31" />
<rect x="20" y="35" width="1" height="1" fill="#734F31" />
<rect x="21" y="35" width="1" height="1" fill="#734F31" />
<rect x="22" y="35" width="1" height="1" fill="#734F31" />
<rect x="23" y="35" width="1" height="1" fill="#734F31" />
<rect x="24" y="35" width="1" height="1" fill="#734F31" />
<rect x="33" y="35" width="1" height="1" fill="#734F31" />
<rect x="19" y="36" width="1" height="1" fill="#734F31" />
<rect x="20" y="36" width="1" height="1" fill="#734F31" />
<rect x="21" y="36" width="1" height="1" fill="#734F31" />
<rect x="22" y="36" width="1" height="1" fill="#734F31" />
<rect x="23" y="36" width="1" height="1" fill="#734F31" />
</svg>