<?xml version="1.0" encoding="UTF-8" ?>
<svg version="1.1" width="50" height="50" xmlns="http://www.w3.org/2000/svg" shape-rendering="crispEdges">
<rect x="11" y="3" width="1" height="1" fill="#734F31" />
<rect x="10" y="4" width="1" height="1" fill="#734F31" />
<rect x="38" y="6" width="1" height="1" fill="#281B10" />
<rect x="33" y="12" width="1" height="1" fill="#281B10" />
<rect x="33" y="13" width="1" height="1" fill="#281B10" />
<rect x="4" y="17" width="1" height="1" fill="#281B10" />
<rect x="4" y="18" width="1" height="1" fill="#281B10" />
<rect x="46" y="23" width="1" height="1" fill="#281B10" />
<rect x="46" y="24" width="1" height="1" fill="#281B10" />
<rect x="3" y="28" width="1" height="1" fill="#281B10" />
<rect x="13" y="38" width="1" height="1" fill="#281B10" />
<rect x="13" y="39" width="1" height="1" fill="#281B10" />
<rect x="15" y="40" width="1" height="1" fill="#281B10" />
<rect x="42" y="43" width="1" height="1" fill="#281B10" />
<rect x="29" y="44" width="1" height="1" fill="#734F31" />
<rect x="42" y="44" width="1" height="1" fill="#281B10" />
<rect x="26" y="46" width="1" height="1" fill="#734F31" />
<rect x="27" y="46" width="1" height="1" fill="#734F31" />
</svg>