<?xml version="1.0" encoding="UTF-8" ?>
<svg version="1.1" width="50" height="50" xmlns="http://www.w3.org/2000/svg" shape-rendering="crispEdges">
<rect x="24" y="7" width="1" height="1" fill="#281B10" />
<rect x="25" y="7" width="1" height="1" fill="#281B10" />
<rect x="15" y="8" width="1" height="1" fill="#734F31" />
<rect x="16" y="8" width="1" height="1" fill="#734F31" />
<rect x="23" y="8" width="1" height="1" fill="#281B10" />
<rect x="24" y="8" width="1" height="1" fill="#281B10" />
<rect x="25" y="8" width="1" height="1" fill="#281B10" />
<rect x="14" y="9" width="1" height="1" fill="#734F31" />
<rect x="15" y="9" width="1" height="1" fill="#734F31" />
<rect x="16" y="9" width="1" height="1" fill="#734F31" />
<rect x="23" y="9" width="1" height="1" fill="#281B10" />
<rect x="24" y="9" width="1" height="1" fill="#281B10" />
<rect x="25" y="9" width="1" height="1" fill="#281B10" />
<rect x="13" y="10" width="1" height="1" fill="#734F31" />
<rect x="14" y="10" width="1" height="1" fill="#46301E" />
<rect x="15" y="10" width="1" height="1" fill="#46301E" />
<rect x="24" y="10" width="1" height="1" fill="#281B10" />
<rect x="25" y="10" width="1" height="1" fill="#281B10" />
<rect x="36" y="10" width="1" height="1" fill="#281B10" />
<rect x="13" y="11" width="1" height="1" fill="#46301E" />
<rect x="14" y="11" width="1" height="1" fill="#46301E" />
<rect x="35" y="11" width="1" height="1" fill="#281B10" />
<rect x="36" y="11" width="1" height="1" fill="#281B10" />
<rect x="13" y="12" width="1" height="1" fill="#46301E" />
<rect x="34" y="12" width="1" height="1" fill="#281B10" />
<rect x="35" y="12" width="1" height="1" fill="#281B10" />
<rect x="36" y="12" width="1" height="1" fill="#281B10" />
<rect x="17" y="13" width="1" height="1" fill="#281B10" />
<rect x="18" y="13" width="1" height="1" fill="#281B10" />
<rect x="35" y="13" width="1" height="1" fill="#281B10" />
<rect x="36" y="13" width="1" height="1" fill="#281B10" />
<rect x="17" y="14" width="1" height="1" fill="#281B10" />
<rect x="36" y="14" width="1" height="1" fill="#281B10" />
<rect x="30" y="15" width="1" height="1" fill="#281B10" />
<rect x="31" y="15" width="1" height="1" fill="#281B10" />
<rect x="32" y="15" width="1" height="1" fill="#281B10" />
<rect x="12" y="16" width="1" height="1" fill="#281B10" />
<rect x="31" y="16" width="1" height="1" fill="#281B10" />
<rect x="32" y="16" width="1" height="1" fill="#281B10" />
<rect x="33" y="16" width="1" height="1" fill="#281B10" />
<rect x="11" y="17" width="1" height="1" fill="#281B10" />
<rect x="12" y="17" width="1" height="1" fill="#281B10" />
<rect x="15" y="17" width="1" height="1" fill="#281B10" />
<rect x="22" y="17" width="1" height="1" fill="#281B10" />
<rect x="23" y="17" width="1" height="1" fill="#281B10" />
<rect x="31" y="17" width="1" height="1" fill="#281B10" />
<rect x="32" y="17" width="1" height="1" fill="#281B10" />
<rect x="33" y="17" width="1" height="1" fill="#281B10" />
<rect x="10" y="18" width="1" height="1" fill="#281B10" />
<rect x="11" y="18" width="1" height="1" fill="#281B10" />
<rect x="12" y="18" width="1" height="1" fill="#281B10" />
<rect x="16" y="18" width="1" height="1" fill="#281B10" />
<rect x="21" y="18" width="1" height="1" fill="#281B10" />
<rect x="22" y="18" width="1" height="1" fill="#281B10" />
<rect x="23" y="18" width="1" height="1" fill="#281B10" />
<rect x="33" y="18" width="1" height="1" fill="#281B10" />
<rect x="9" y="19" width="1" height="1" fill="#281B10" />
<rect x="10" y="19" width="1" height="1" fill="#281B10" />
<rect x="11" y="19" width="1" height="1" fill="#281B10" />
<rect x="16" y="19" width="1" height="1" fill="#281B10" />
<rect x="20" y="19" width="1" height="1" fill="#281B10" />
<rect x="21" y="19" width="1" height="1" fill="#281B10" />
<rect x="23" y="19" width="1" height="1" fill="#281B10" />
<rect x="40" y="19" width="1" height="1" fill="#734F31" />
<rect x="41" y="19" width="1" height="1" fill="#734F31" />
<rect x="11" y="20" width="1" height="1" fill="#281B10" />
<rect x="20" y="20" width="1" height="1" fill="#281B10" />
<rect x="21" y="20" width="1" height="1" fill="#281B10" />
<rect x="40" y="20" width="1" height="1" fill="#734F31" />
<rect x="41" y="20" width="1" height="1" fill="#734F31" />
<rect x="40" y="21" width="1" height="1" fill="#46301E" />
<rect x="41" y="21" width="1" height="1" fill="#734F31" />
<rect x="42" y="21" width="1" height="1" fill="#734F31" />
<rect x="40" y="22" width="1" height="1" fill="#46301E" />
<rect x="41" y="22" width="1" height="1" fill="#734F31" />
<rect x="42" y="22" width="1" height="1" fill="#734F31" />
<rect x="40" y="23" width="1" height="1" fill="#281B10" />
<rect x="41" y="23" width="1" height="1" fill="#281B10" />
<rect x="42" y="23" width="1" height="1" fill="#281B10" />
<rect x="43" y="23" width="1" height="1" fill="#281B10" />
<rect x="44" y="23" width="1" height="1" fill="#46301E" />
<rect x="39" y="24" width="1" height="1" fill="#281B10" />
<rect x="40" y="24" width="1" height="1" fill="#281B10" />
<rect x="41" y="24" width="1" height="1" fill="#281B10" />
<rect x="42" y="24" width="1" height="1" fill="#281B10" />
<rect x="44" y="24" width="1" height="1" fill="#46301E" />
<rect x="31" y="25" width="1" height="1" fill="#281B10" />
<rect x="39" y="25" width="1" height="1" fill="#281B10" />
<rect x="40" y="25" width="1" height="1" fill="#281B10" />
<rect x="41" y="25" width="1" height="1" fill="#281B10" />
<rect x="9" y="26" width="1" height="1" fill="#46301E" />
<rect x="10" y="26" width="1" height="1" fill="#46301E" />
<rect x="9" y="27" width="1" height="1" fill="#281B10" />
<rect x="10" y="27" width="1" height="1" fill="#281B10" />
<rect x="11" y="27" width="1" height="1" fill="#281B10" />
<rect x="8" y="28" width="1" height="1" fill="#281B10" />
<rect x="9" y="28" width="1" height="1" fill="#281B10" />
<rect x="10" y="28" width="1" height="1" fill="#281B10" />
<rect x="11" y="28" width="1" height="1" fill="#281B10" />
<rect x="12" y="28" width="1" height="1" fill="#281B10" />
<rect x="18" y="28" width="1" height="1" fill="#281B10" />
<rect x="19" y="28" width="1" height="1" fill="#281B10" />
<rect x="10" y="29" width="1" height="1" fill="#734F31" />
<rect x="11" y="29" width="1" height="1" fill="#281B10" />
<rect x="12" y="29" width="1" height="1" fill="#281B10" />
<rect x="18" y="29" width="1" height="1" fill="#281B10" />
<rect x="19" y="29" width="1" height="1" fill="#281B10" />
<rect x="31" y="29" width="1" height="1" fill="#281B10" />
<rect x="18" y="30" width="1" height="1" fill="#281B10" />
<rect x="19" y="30" width="1" height="1" fill="#281B10" />
<rect x="30" y="30" width="1" height="1" fill="#281B10" />
<rect x="31" y="30" width="1" height="1" fill="#281B10" />
<rect x="29" y="31" width="1" height="1" fill="#281B10" />
<rect x="30" y="31" width="1" height="1" fill="#281B10" />
<rect x="31" y="31" width="1" height="1" fill="#281B10" />
<rect x="28" y="32" width="1" height="1" fill="#281B10" />
<rect x="29" y="32" width="1" height="1" fill="#281B10" />
<rect x="30" y="32" width="1" height="1" fill="#281B10" />
<rect x="16" y="34" width="1" height="1" fill="#734F31" />
<rect x="17" y="34" width="1" height="1" fill="#281B10" />
<rect x="16" y="35" width="1" height="1" fill="#281B10" />
<rect x="17" y="35" width="1" height="1" fill="#281B10" />
<rect x="18" y="35" width="1" height="1" fill="#281B10" />
<rect x="37" y="35" width="1" height="1" fill="#281B10" />
<rect x="38" y="35" width="1" height="1" fill="#281B10" />
<rect x="16" y="36" width="1" height="1" fill="#281B10" />
<rect x="17" y="36" width="1" height="1" fill="#281B10" />
<rect x="18" y="36" width="1" height="1" fill="#281B10" />
<rect x="36" y="36" width="1" height="1" fill="#281B10" />
<rect x="37" y="36" width="1" height="1" fill="#281B10" />
<rect x="38" y="36" width="1" height="1" fill="#281B10" />
<rect x="39" y="36" width="1" height="1" fill="#281B10" />
<rect x="17" y="37" width="1" height="1" fill="#281B10" />
<rect x="35" y="37" width="1" height="1" fill="#281B10" />
<rect x="36" y="37" width="1" height="1" fill="#281B10" />
<rect x="37" y="37" width="1" height="1" fill="#281B10" />
<rect x="38" y="37" width="1" height="1" fill="#281B10" />
<rect x="39" y="37" width="1" height="1" fill="#281B10" />
<rect x="40" y="37" width="1" height="1" fill="#281B10" />
<rect x="41" y="37" width="1" height="1" fill="#281B10" />
<rect x="28" y="38" width="1" height="1" fill="#734F31" />
<rect x="29" y="38" width="1" height="1" fill="#734F31" />
<rect x="35" y="38" width="1" height="1" fill="#281B10" />
<rect x="36" y="38" width="1" height="1" fill="#281B10" />
<rect x="37" y="38" width="1" height="1" fill="#281B10" />
<rect x="38" y="38" width="1" height="1" fill="#281B10" />
<rect x="39" y="38" width="1" height="1" fill="#281B10" />
<rect x="40" y="38" width="1" height="1" fill="#281B10" />
<rect x="41" y="38" width="1" height="1" fill="#281B10" />
<rect x="27" y="39" width="1" height="1" fill="#734F31" />
<rect x="28" y="39" width="1" height="1" fill="#734F31" />
<rect x="29" y="39" width="1" height="1" fill="#734F31" />
<rect x="35" y="39" width="1" height="1" fill="#281B10" />
<rect x="36" y="39" width="1" height="1" fill="#281B10" />
<rect x="37" y="39" width="1" height="1" fill="#281B10" />
<rect x="38" y="39" width="1" height="1" fill="#281B10" />
<rect x="39" y="39" width="1" height="1" fill="#281B10" />
<rect x="40" y="39" width="1" height="1" fill="#281B10" />
<rect x="25" y="40" width="1" height="1" fill="#734F31" />
<rect x="26" y="40" width="1" height="1" fill="#734F31" />
<rect x="27" y="40" width="1" height="1" fill="#734F31" />
<rect x="28" y="40" width="1" height="1" fill="#734F31" />
<rect x="29" y="40" width="1" height="1" fill="#734F31" />
<rect x="36" y="40" width="1" height="1" fill="#281B10" />
<rect x="37" y="40" width="1" height="1" fill="#281B10" />
<rect x="38" y="40" width="1" height="1" fill="#281B10" />
<rect x="39" y="40" width="1" height="1" fill="#281B10" />
<rect x="24" y="41" width="1" height="1" fill="#734F31" />
<rect x="25" y="41" width="1" height="1" fill="#734F31" />
<rect x="26" y="41" width="1" height="1" fill="#734F31" />
<rect x="27" y="41" width="1" height="1" fill="#734F31" />
<rect x="28" y="41" width="1" height="1" fill="#734F31" />
<rect x="29" y="41" width="1" height="1" fill="#734F31" />
<rect x="25" y="42" width="1" height="1" fill="#734F31" />
<rect x="26" y="42" width="1" height="1" fill="#734F31" />
<rect x="27" y="42" width="1" height="1" fill="#734F31" />
</svg>