<?xml version="1.0" encoding="UTF-8" ?>
<svg version="1.1" width="50" height="50" xmlns="http://www.w3.org/2000/svg" shape-rendering="crispEdges">
<rect x="17" y="13" width="1" height="1" fill="#734F31" />
<rect x="18" y="13" width="1" height="1" fill="#734F31" />
<rect x="16" y="14" width="1" height="1" fill="#734F31" />
<rect x="17" y="14" width="1" height="1" fill="#734F31" />
<rect x="18" y="14" width="1" height="1" fill="#734F31" />
<rect x="19" y="14" width="1" height="1" fill="#734F31" />
<rect x="24" y="14" width="1" height="1" fill="#281B10" />
<rect x="25" y="14" width="1" height="1" fill="#281B10" />
<rect x="15" y="15" width="1" height="1" fill="#734F31" />
<rect x="16" y="15" width="1" height="1" fill="#46301E" />
<rect x="17" y="15" width="1" height="1" fill="#46301E" />
<rect x="18" y="15" width="1" height="1" fill="#46301E" />
<rect x="19" y="15" width="1" height="1" fill="#46301E" />
<rect x="23" y="15" width="1" height="1" fill="#281B10" />
<rect x="24" y="15" width="1" height="1" fill="#281B10" />
<rect x="25" y="15" width="1" height="1" fill="#281B10" />
<rect x="33" y="15" width="1" height="1" fill="#281B10" />
<rect x="15" y="16" width="1" height="1" fill="#46301E" />
<rect x="16" y="16" width="1" height="1" fill="#46301E" />
<rect x="17" y="16" width="1" height="1" fill="#46301E" />
<rect x="23" y="16" width="1" height="1" fill="#281B10" />
<rect x="24" y="16" width="1" height="1" fill="#281B10" />
<rect x="25" y="16" width="1" height="1" fill="#281B10" />
<rect x="32" y="16" width="1" height="1" fill="#281B10" />
<rect x="33" y="16" width="1" height="1" fill="#281B10" />
<rect x="15" y="17" width="1" height="1" fill="#46301E" />
<rect x="16" y="17" width="1" height="1" fill="#46301E" />
<rect x="22" y="17" width="1" height="1" fill="#281B10" />
<rect x="23" y="17" width="1" height="1" fill="#281B10" />
<rect x="24" y="17" width="1" height="1" fill="#281B10" />
<rect x="25" y="17" width="1" height="1" fill="#281B10" />
<rect x="30" y="17" width="1" height="1" fill="#281B10" />
<rect x="31" y="17" width="1" height="1" fill="#281B10" />
<rect x="32" y="17" width="1" height="1" fill="#281B10" />
<rect x="33" y="17" width="1" height="1" fill="#281B10" />
<rect x="15" y="18" width="1" height="1" fill="#46301E" />
<rect x="22" y="18" width="1" height="1" fill="#281B10" />
<rect x="23" y="18" width="1" height="1" fill="#281B10" />
<rect x="24" y="18" width="1" height="1" fill="#281B10" />
<rect x="25" y="18" width="1" height="1" fill="#281B10" />
<rect x="30" y="18" width="1" height="1" fill="#281B10" />
<rect x="31" y="18" width="1" height="1" fill="#281B10" />
<rect x="32" y="18" width="1" height="1" fill="#281B10" />
<rect x="33" y="18" width="1" height="1" fill="#281B10" />
<rect x="16" y="19" width="1" height="1" fill="#281B10" />
<rect x="23" y="19" width="1" height="1" fill="#281B10" />
<rect x="24" y="19" width="1" height="1" fill="#281B10" />
<rect x="25" y="19" width="1" height="1" fill="#281B10" />
<rect x="31" y="19" width="1" height="1" fill="#281B10" />
<rect x="32" y="19" width="1" height="1" fill="#281B10" />
<rect x="33" y="19" width="1" height="1" fill="#281B10" />
<rect x="15" y="20" width="1" height="1" fill="#281B10" />
<rect x="16" y="20" width="1" height="1" fill="#281B10" />
<rect x="19" y="20" width="1" height="1" fill="#281B10" />
<rect x="25" y="20" width="1" height="1" fill="#281B10" />
<rect x="32" y="20" width="1" height="1" fill="#281B10" />
<rect x="35" y="20" width="1" height="1" fill="#734F31" />
<rect x="14" y="21" width="1" height="1" fill="#281B10" />
<rect x="15" y="21" width="1" height="1" fill="#281B10" />
<rect x="16" y="21" width="1" height="1" fill="#281B10" />
<rect x="17" y="21" width="1" height="1" fill="#281B10" />
<rect x="20" y="21" width="1" height="1" fill="#281B10" />
<rect x="34" y="21" width="1" height="1" fill="#46301E" />
<rect x="35" y="21" width="1" height="1" fill="#734F31" />
<rect x="36" y="21" width="1" height="1" fill="#734F31" />
<rect x="37" y="21" width="1" height="1" fill="#734F31" />
<rect x="13" y="22" width="1" height="1" fill="#281B10" />
<rect x="14" y="22" width="1" height="1" fill="#281B10" />
<rect x="15" y="22" width="1" height="1" fill="#281B10" />
<rect x="16" y="22" width="1" height="1" fill="#281B10" />
<rect x="17" y="22" width="1" height="1" fill="#281B10" />
<rect x="20" y="22" width="1" height="1" fill="#281B10" />
<rect x="21" y="22" width="1" height="1" fill="#281B10" />
<rect x="34" y="22" width="1" height="1" fill="#46301E" />
<rect x="35" y="22" width="1" height="1" fill="#46301E" />
<rect x="36" y="22" width="1" height="1" fill="#734F31" />
<rect x="37" y="22" width="1" height="1" fill="#734F31" />
<rect x="15" y="23" width="1" height="1" fill="#281B10" />
<rect x="16" y="23" width="1" height="1" fill="#281B10" />
<rect x="17" y="23" width="1" height="1" fill="#281B10" />
<rect x="21" y="23" width="1" height="1" fill="#281B10" />
<rect x="35" y="23" width="1" height="1" fill="#46301E" />
<rect x="36" y="23" width="1" height="1" fill="#46301E" />
<rect x="37" y="23" width="1" height="1" fill="#734F31" />
<rect x="38" y="23" width="1" height="1" fill="#734F31" />
<rect x="34" y="24" width="1" height="1" fill="#281B10" />
<rect x="36" y="24" width="1" height="1" fill="#46301E" />
<rect x="37" y="24" width="1" height="1" fill="#734F31" />
<rect x="38" y="24" width="1" height="1" fill="#734F31" />
<rect x="27" y="25" width="1" height="1" fill="#281B10" />
<rect x="28" y="25" width="1" height="1" fill="#281B10" />
<rect x="33" y="25" width="1" height="1" fill="#281B10" />
<rect x="34" y="25" width="1" height="1" fill="#281B10" />
<rect x="35" y="25" width="1" height="1" fill="#281B10" />
<rect x="36" y="25" width="1" height="1" fill="#281B10" />
<rect x="37" y="25" width="1" height="1" fill="#281B10" />
<rect x="38" y="25" width="1" height="1" fill="#281B10" />
<rect x="39" y="25" width="1" height="1" fill="#281B10" />
<rect x="40" y="25" width="1" height="1" fill="#46301E" />
<rect x="12" y="26" width="1" height="1" fill="#46301E" />
<rect x="13" y="26" width="1" height="1" fill="#46301E" />
<rect x="27" y="26" width="1" height="1" fill="#281B10" />
<rect x="28" y="26" width="1" height="1" fill="#281B10" />
<rect x="33" y="26" width="1" height="1" fill="#281B10" />
<rect x="34" y="26" width="1" height="1" fill="#281B10" />
<rect x="35" y="26" width="1" height="1" fill="#281B10" />
<rect x="36" y="26" width="1" height="1" fill="#281B10" />
<rect x="37" y="26" width="1" height="1" fill="#281B10" />
<rect x="38" y="26" width="1" height="1" fill="#281B10" />
<rect x="40" y="26" width="1" height="1" fill="#46301E" />
<rect x="12" y="27" width="1" height="1" fill="#281B10" />
<rect x="13" y="27" width="1" height="1" fill="#281B10" />
<rect x="14" y="27" width="1" height="1" fill="#281B10" />
<rect x="15" y="27" width="1" height="1" fill="#281B10" />
<rect x="16" y="27" width="1" height="1" fill="#281B10" />
<rect x="27" y="27" width="1" height="1" fill="#281B10" />
<rect x="33" y="27" width="1" height="1" fill="#281B10" />
<rect x="34" y="27" width="1" height="1" fill="#281B10" />
<rect x="35" y="27" width="1" height="1" fill="#281B10" />
<rect x="36" y="27" width="1" height="1" fill="#281B10" />
<rect x="37" y="27" width="1" height="1" fill="#281B10" />
<rect x="11" y="28" width="1" height="1" fill="#281B10" />
<rect x="12" y="28" width="1" height="1" fill="#281B10" />
<rect x="13" y="28" width="1" height="1" fill="#281B10" />
<rect x="14" y="28" width="1" height="1" fill="#281B10" />
<rect x="15" y="28" width="1" height="1" fill="#281B10" />
<rect x="16" y="28" width="1" height="1" fill="#281B10" />
<rect x="25" y="28" width="1" height="1" fill="#281B10" />
<rect x="26" y="28" width="1" height="1" fill="#281B10" />
<rect x="27" y="28" width="1" height="1" fill="#281B10" />
<rect x="32" y="28" width="1" height="1" fill="#46301E" />
<rect x="13" y="29" width="1" height="1" fill="#734F31" />
<rect x="14" y="29" width="1" height="1" fill="#281B10" />
<rect x="15" y="29" width="1" height="1" fill="#281B10" />
<rect x="16" y="29" width="1" height="1" fill="#281B10" />
<rect x="25" y="29" width="1" height="1" fill="#281B10" />
<rect x="26" y="29" width="1" height="1" fill="#281B10" />
<rect x="29" y="30" width="1" height="1" fill="#281B10" />
<rect x="23" y="31" width="1" height="1" fill="#281B10" />
<rect x="29" y="31" width="1" height="1" fill="#281B10" />
<rect x="30" y="31" width="1" height="1" fill="#281B10" />
<rect x="31" y="31" width="1" height="1" fill="#281B10" />
<rect x="18" y="32" width="1" height="1" fill="#281B10" />
<rect x="22" y="32" width="1" height="1" fill="#281B10" />
<rect x="25" y="32" width="1" height="1" fill="#281B10" />
<rect x="29" y="32" width="1" height="1" fill="#281B10" />
<rect x="30" y="32" width="1" height="1" fill="#281B10" />
<rect x="31" y="32" width="1" height="1" fill="#281B10" />
<rect x="32" y="32" width="1" height="1" fill="#281B10" />
<rect x="33" y="32" width="1" height="1" fill="#281B10" />
<rect x="17" y="33" width="1" height="1" fill="#734F31" />
<rect x="18" y="33" width="1" height="1" fill="#281B10" />
<rect x="19" y="33" width="1" height="1" fill="#281B10" />
<rect x="25" y="33" width="1" height="1" fill="#281B10" />
<rect x="28" y="33" width="1" height="1" fill="#281B10" />
<rect x="29" y="33" width="1" height="1" fill="#281B10" />
<rect x="30" y="33" width="1" height="1" fill="#281B10" />
<rect x="31" y="33" width="1" height="1" fill="#281B10" />
<rect x="32" y="33" width="1" height="1" fill="#281B10" />
<rect x="33" y="33" width="1" height="1" fill="#281B10" />
<rect x="34" y="33" width="1" height="1" fill="#281B10" />
<rect x="17" y="34" width="1" height="1" fill="#281B10" />
<rect x="18" y="34" width="1" height="1" fill="#281B10" />
<rect x="19" y="34" width="1" height="1" fill="#281B10" />
<rect x="20" y="34" width="1" height="1" fill="#281B10" />
<rect x="21" y="34" width="1" height="1" fill="#281B10" />
<rect x="25" y="34" width="1" height="1" fill="#281B10" />
<rect x="26" y="34" width="1" height="1" fill="#281B10" />
<rect x="27" y="34" width="1" height="1" fill="#281B10" />
<rect x="28" y="34" width="1" height="1" fill="#281B10" />
<rect x="29" y="34" width="1" height="1" fill="#281B10" />
<rect x="30" y="34" width="1" height="1" fill="#281B10" />
<rect x="31" y="34" width="1" height="1" fill="#281B10" />
<rect x="32" y="34" width="1" height="1" fill="#281B10" />
<rect x="33" y="34" width="1" height="1" fill="#281B10" />
<rect x="34" y="34" width="1" height="1" fill="#281B10" />
<rect x="35" y="34" width="1" height="1" fill="#281B10" />
<rect x="36" y="34" width="1" height="1" fill="#281B10" />
<rect x="17" y="35" width="1" height="1" fill="#281B10" />
<rect x="18" y="35" width="1" height="1" fill="#281B10" />
<rect x="19" y="35" width="1" height="1" fill="#281B10" />
<rect x="25" y="35" width="1" height="1" fill="#281B10" />
<rect x="26" y="35" width="1" height="1" fill="#281B10" />
<rect x="27" y="35" width="1" height="1" fill="#734F31" />
<rect x="29" y="35" width="1" height="1" fill="#281B10" />
<rect x="30" y="35" width="1" height="1" fill="#281B10" />
<rect x="31" y="35" width="1" height="1" fill="#281B10" />
<rect x="32" y="35" width="1" height="1" fill="#281B10" />
<rect x="33" y="35" width="1" height="1" fill="#281B10" />
<rect x="34" y="35" width="1" height="1" fill="#281B10" />
<rect x="35" y="35" width="1" height="1" fill="#281B10" />
<rect x="36" y="35" width="1" height="1" fill="#281B10" />
<rect x="18" y="36" width="1" height="1" fill="#281B10" />
<rect x="25" y="36" width="1" height="1" fill="#46301E" />
<rect x="26" y="36" width="1" height="1" fill="#734F31" />
<rect x="27" y="36" width="1" height="1" fill="#734F31" />
<rect x="28" y="36" width="1" height="1" fill="#734F31" />
<rect x="29" y="36" width="1" height="1" fill="#281B10" />
<rect x="30" y="36" width="1" height="1" fill="#281B10" />
<rect x="31" y="36" width="1" height="1" fill="#281B10" />
<rect x="32" y="36" width="1" height="1" fill="#281B10" />
<rect x="33" y="36" width="1" height="1" fill="#281B10" />
<rect x="34" y="36" width="1" height="1" fill="#281B10" />
<rect x="35" y="36" width="1" height="1" fill="#281B10" />
<rect x="23" y="37" width="1" height="1" fill="#46301E" />
<rect x="24" y="37" width="1" height="1" fill="#46301E" />
<rect x="25" y="37" width="1" height="1" fill="#46301E" />
<rect x="26" y="37" width="1" height="1" fill="#734F31" />
<rect x="27" y="37" width="1" height="1" fill="#734F31" />
<rect x="28" y="37" width="1" height="1" fill="#734F31" />
<rect x="31" y="37" width="1" height="1" fill="#281B10" />
<rect x="32" y="37" width="1" height="1" fill="#281B10" />
<rect x="33" y="37" width="1" height="1" fill="#281B10" />
<rect x="34" y="37" width="1" height="1" fill="#281B10" />
<rect x="22" y="38" width="1" height="1" fill="#46301E" />
<rect x="23" y="38" width="1" height="1" fill="#46301E" />
<rect x="24" y="38" width="1" height="1" fill="#734F31" />
<rect x="25" y="38" width="1" height="1" fill="#734F31" />
<rect x="26" y="38" width="1" height="1" fill="#734F31" />
<rect x="27" y="38" width="1" height="1" fill="#734F31" />
<rect x="28" y="38" width="1" height="1" fill="#734F31" />
<rect x="23" y="39" width="1" height="1" fill="#734F31" />
<rect x="24" y="39" width="1" height="1" fill="#734F31" />
<rect x="25" y="39" width="1" height="1" fill="#734F31" />
<rect x="26" y="39" width="1" height="1" fill="#734F31" />
<rect x="27" y="39" width="1" height="1" fill="#734F31" />
<rect x="28" y="39" width="1" height="1" fill="#734F31" />
<rect x="24" y="40" width="1" height="1" fill="#734F31" />
<rect x="25" y="40" width="1" height="1" fill="#734F31" />
<rect x="26" y="40" width="1" height="1" fill="#734F31" />
</svg>