<?xml version="1.0" encoding="UTF-8" ?>
<svg version="1.1" width="36" height="36" xmlns="http://www.w3.org/2000/svg" shape-rendering="crispEdges">
<rect x="14" y="13" width="1" height="1" fill="#734F31" />
<rect x="15" y="13" width="1" height="1" fill="#734F31" />
<rect x="16" y="13" width="1" height="1" fill="#734F31" />
<rect x="17" y="13" width="1" height="1" fill="#734F31" />
<rect x="18" y="13" width="1" height="1" fill="#734F31" />
<rect x="19" y="13" width="1" height="1" fill="#734F31" />
<rect x="20" y="13" width="1" height="1" fill="#46301E" />
<rect x="21" y="13" width="1" height="1" fill="#46301E" />
<rect x="22" y="13" width="1" height="1" fill="#46301E" />
<rect x="11" y="14" width="1" height="1" fill="#46301E" />
<rect x="12" y="14" width="1" height="1" fill="#46301E" />
<rect x="13" y="14" width="1" height="1" fill="#734F31" />
<rect x="14" y="14" width="1" height="1" fill="#734F31" />
<rect x="15" y="14" width="1" height="1" fill="#734F31" />
<rect x="16" y="14" width="1" height="1" fill="#734F31" />
<rect x="17" y="14" width="1" height="1" fill="#734F31" />
<rect x="18" y="14" width="1" height="1" fill="#46301E" />
<rect x="19" y="14" width="1" height="1" fill="#46301E" />
<rect x="20" y="14" width="1" height="1" fill="#46301E" />
<rect x="21" y="14" width="1" height="1" fill="#46301E" />
<rect x="22" y="14" width="1" height="1" fill="#46301E" />
<rect x="23" y="14" width="1" height="1" fill="#46301E" />
<rect x="24" y="14" width="1" height="1" fill="#46301E" />
<rect x="11" y="15" width="1" height="1" fill="#46301E" />
<rect x="12" y="15" width="1" height="1" fill="#46301E" />
<rect x="13" y="15" width="1" height="1" fill="#734F31" />
<rect x="14" y="15" width="1" height="1" fill="#734F31" />
<rect x="15" y="15" width="1" height="1" fill="#734F31" />
<rect x="16" y="15" width="1" height="1" fill="#734F31" />
<rect x="17" y="15" width="1" height="1" fill="#46301E" />
<rect x="18" y="15" width="1" height="1" fill="#E9E9E9" />
<rect x="19" y="15" width="1" height="1" fill="#E9E9E9" />
<rect x="20" y="15" width="1" height="1" fill="#E9E9E9" />
<rect x="21" y="15" width="1" height="1" fill="#E9E9E9" />
<rect x="22" y="15" width="1" height="1" fill="#E9E9E9" />
<rect x="23" y="15" width="1" height="1" fill="#46301E" />
<rect x="24" y="15" width="1" height="1" fill="#46301E" />
<rect x="10" y="16" width="1" height="1" fill="#46301E" />
<rect x="11" y="16" width="1" height="1" fill="#734F31" />
<rect x="12" y="16" width="1" height="1" fill="#46301E" />
<rect x="13" y="16" width="1" height="1" fill="#734F31" />
<rect x="14" y="16" width="1" height="1" fill="#734F31" />
<rect x="15" y="16" width="1" height="1" fill="#46301E" />
<rect x="16" y="16" width="1" height="1" fill="#46301E" />
<rect x="17" y="16" width="1" height="1" fill="#CBBFBF" />
<rect x="18" y="16" width="1" height="1" fill="#E9E9E9" />
<rect x="19" y="16" width="1" height="1" fill="#E9E9E9" />
<rect x="20" y="16" width="1" height="1" fill="#E9E9E9" />
<rect x="21" y="16" width="1" height="1" fill="#FF1831" />
<rect x="22" y="16" width="1" height="1" fill="#E9E9E9" />
<rect x="23" y="16" width="1" height="1" fill="#E9E9E9" />
<rect x="24" y="16" width="1" height="1" fill="#46301E" />
<rect x="25" y="16" width="1" height="1" fill="#46301E" />
<rect x="9" y="17" width="1" height="1" fill="#46301E" />
<rect x="10" y="17" width="1" height="1" fill="#46301E" />
<rect x="11" y="17" width="1" height="1" fill="#734F31" />
<rect x="12" y="17" width="1" height="1" fill="#46301E" />
<rect x="13" y="17" width="1" height="1" fill="#46301E" />
<rect x="14" y="17" width="1" height="1" fill="#734F31" />
<rect x="15" y="17" width="1" height="1" fill="#734F31" />
<rect x="16" y="17" width="1" height="1" fill="#46301E" />
<rect x="17" y="17" width="1" height="1" fill="#46301E" />
<rect x="18" y="17" width="1" height="1" fill="#CBBFBF" />
<rect x="19" y="17" width="1" height="1" fill="#CBBFBF" />
<rect x="20" y="17" width="1" height="1" fill="#E9E9E9" />
<rect x="21" y="17" width="1" height="1" fill="#E9E9E9" />
<rect x="22" y="17" width="1" height="1" fill="#E9E9E9" />
<rect x="23" y="17" width="1" height="1" fill="#46301E" />
<rect x="24" y="17" width="1" height="1" fill="#46301E" />
<rect x="25" y="17" width="1" height="1" fill="#46301E" />
<rect x="9" y="18" width="1" height="1" fill="#46301E" />
<rect x="10" y="18" width="1" height="1" fill="#46301E" />
<rect x="11" y="18" width="1" height="1" fill="#734F31" />
<rect x="12" y="18" width="1" height="1" fill="#734F31" />
<rect x="13" y="18" width="1" height="1" fill="#46301E" />
<rect x="14" y="18" width="1" height="1" fill="#46301E" />
<rect x="15" y="18" width="1" height="1" fill="#46301E" />
<rect x="16" y="18" width="1" height="1" fill="#734F31" />
<rect x="17" y="18" width="1" height="1" fill="#46301E" />
<rect x="18" y="18" width="1" height="1" fill="#46301E" />
<rect x="19" y="18" width="1" height="1" fill="#E9E9E9" />
<rect x="20" y="18" width="1" height="1" fill="#46301E" />
<rect x="21" y="18" width="1" height="1" fill="#E9E9E9" />
<rect x="22" y="18" width="1" height="1" fill="#46301E" />
<rect x="23" y="18" width="1" height="1" fill="#E9E9E9" />
<rect x="24" y="18" width="1" height="1" fill="#46301E" />
<rect x="25" y="18" width="1" height="1" fill="#46301E" />
<rect x="26" y="18" width="1" height="1" fill="#46301E" />
<rect x="9" y="19" width="1" height="1" fill="#46301E" />
<rect x="10" y="19" width="1" height="1" fill="#46301E" />
<rect x="11" y="19" width="1" height="1" fill="#46301E" />
<rect x="12" y="19" width="1" height="1" fill="#46301E" />
<rect x="13" y="19" width="1" height="1" fill="#46301E" />
<rect x="14" y="19" width="1" height="1" fill="#46301E" />
<rect x="15" y="19" width="1" height="1" fill="#46301E" />
<rect x="16" y="19" width="1" height="1" fill="#46301E" />
<rect x="17" y="19" width="1" height="1" fill="#734F31" />
<rect x="18" y="19" width="1" height="1" fill="#E9E9E9" />
<rect x="19" y="19" width="1" height="1" fill="#20150C" />
<rect x="20" y="19" width="1" height="1" fill="#E9E9E9" />
<rect x="21" y="19" width="1" height="1" fill="#20150C" />
<rect x="22" y="19" width="1" height="1" fill="#E9E9E9" />
<rect x="23" y="19" width="1" height="1" fill="#20150C" />
<rect x="24" y="19" width="1" height="1" fill="#46301E" />
<rect x="25" y="19" width="1" height="1" fill="#46301E" />
<rect x="26" y="19" width="1" height="1" fill="#46301E" />
<rect x="10" y="20" width="1" height="1" fill="#46301E" />
<rect x="11" y="20" width="1" height="1" fill="#46301E" />
<rect x="12" y="20" width="1" height="1" fill="#46301E" />
<rect x="13" y="20" width="1" height="1" fill="#46301E" />
<rect x="14" y="20" width="1" height="1" fill="#46301E" />
<rect x="15" y="20" width="1" height="1" fill="#46301E" />
<rect x="16" y="20" width="1" height="1" fill="#46301E" />
<rect x="17" y="20" width="1" height="1" fill="#46301E" />
<rect x="18" y="20" width="1" height="1" fill="#46301E" />
<rect x="19" y="20" width="1" height="1" fill="#46301E" />
<rect x="20" y="20" width="1" height="1" fill="#46301E" />
<rect x="21" y="20" width="1" height="1" fill="#46301E" />
<rect x="22" y="20" width="1" height="1" fill="#46301E" />
<rect x="23" y="20" width="1" height="1" fill="#46301E" />
<rect x="24" y="20" width="1" height="1" fill="#46301E" />
<rect x="25" y="20" width="1" height="1" fill="#46301E" />
<rect x="26" y="20" width="1" height="1" fill="#46301E" />
<rect x="10" y="21" width="1" height="1" fill="#46301E" />
<rect x="11" y="21" width="1" height="1" fill="#46301E" />
<rect x="12" y="21" width="1" height="1" fill="#46301E" />
<rect x="13" y="21" width="1" height="1" fill="#46301E" />
<rect x="14" y="21" width="1" height="1" fill="#46301E" />
<rect x="15" y="21" width="1" height="1" fill="#46301E" />
<rect x="16" y="21" width="1" height="1" fill="#46301E" />
<rect x="17" y="21" width="1" height="1" fill="#46301E" />
<rect x="18" y="21" width="1" height="1" fill="#46301E" />
<rect x="21" y="21" width="1" height="1" fill="#46301E" />
<rect x="22" y="21" width="1" height="1" fill="#46301E" />
<rect x="23" y="21" width="1" height="1" fill="#46301E" />
<rect x="24" y="21" width="1" height="1" fill="#46301E" />
<rect x="25" y="21" width="1" height="1" fill="#46301E" />
<rect x="26" y="21" width="1" height="1" fill="#46301E" />
<rect x="11" y="22" width="1" height="1" fill="#46301E" />
<rect x="12" y="22" width="1" height="1" fill="#46301E" />
<rect x="13" y="22" width="1" height="1" fill="#46301E" />
<rect x="14" y="22" width="1" height="1" fill="#46301E" />
<rect x="15" y="22" width="1" height="1" fill="#46301E" />
<rect x="16" y="22" width="1" height="1" fill="#46301E" />
<rect x="17" y="22" width="1" height="1" fill="#46301E" />
<rect x="18" y="22" width="1" height="1" fill="#46301E" />
<rect x="19" y="22" width="1" height="1" fill="#46301E" />
<rect x="20" y="22" width="1" height="1" fill="#120D08" />
<rect x="21" y="22" width="1" height="1" fill="#120D08" />
<rect x="22" y="22" width="1" height="1" fill="#46301E" />
<rect x="23" y="22" width="1" height="1" fill="#46301E" />
<rect x="24" y="22" width="1" height="1" fill="#46301E" />
<rect x="25" y="22" width="1" height="1" fill="#46301E" />
<rect x="12" y="23" width="1" height="1" fill="#46301E" />
<rect x="13" y="23" width="1" height="1" fill="#46301E" />
<rect x="14" y="23" width="1" height="1" fill="#46301E" />
<rect x="15" y="23" width="1" height="1" fill="#46301E" />
<rect x="16" y="23" width="1" height="1" fill="#46301E" />
<rect x="17" y="23" width="1" height="1" fill="#46301E" />
<rect x="18" y="23" width="1" height="1" fill="#46301E" />
<rect x="19" y="23" width="1" height="1" fill="#46301E" />
<rect x="20" y="23" width="1" height="1" fill="#2F2217" />
<rect x="21" y="23" width="1" height="1" fill="#46301E" />
<rect x="22" y="23" width="1" height="1" fill="#46301E" />
<rect x="23" y="23" width="1" height="1" fill="#46301E" />
<rect x="24" y="23" width="1" height="1" fill="#46301E" />
<rect x="25" y="23" width="1" height="1" fill="#46301E" />
<rect x="14" y="24" width="1" height="1" fill="#46301E" />
<rect x="15" y="24" width="1" height="1" fill="#46301E" />
<rect x="16" y="24" width="1" height="1" fill="#46301E" />
<rect x="17" y="24" width="1" height="1" fill="#46301E" />
<rect x="18" y="24" width="1" height="1" fill="#46301E" />
<rect x="19" y="24" width="1" height="1" fill="#46301E" />
<rect x="20" y="24" width="1" height="1" fill="#46301E" />
<rect x="21" y="24" width="1" height="1" fill="#120D08" />
<rect x="22" y="24" width="1" height="1" fill="#46301E" />
<rect x="23" y="24" width="1" height="1" fill="#46301E" />
<rect x="24" y="24" width="1" height="1" fill="#46301E" />
<rect x="25" y="24" width="1" height="1" fill="#46301E" />
<rect x="15" y="25" width="1" height="1" fill="#46301E" />
<rect x="16" y="25" width="1" height="1" fill="#46301E" />
<rect x="17" y="25" width="1" height="1" fill="#46301E" />
<rect x="18" y="25" width="1" height="1" fill="#46301E" />
<rect x="19" y="25" width="1" height="1" fill="#46301E" />
<rect x="20" y="25" width="1" height="1" fill="#2F2217" />
<rect x="21" y="25" width="1" height="1" fill="#2F2217" />
<rect x="22" y="25" width="1" height="1" fill="#46301E" />
<rect x="23" y="25" width="1" height="1" fill="#46301E" />
<rect x="16" y="26" width="1" height="1" fill="#46301E" />
<rect x="17" y="26" width="1" height="1" fill="#46301E" />
<rect x="18" y="26" width="1" height="1" fill="#46301E" />
<rect x="19" y="26" width="1" height="1" fill="#120D08" />
<rect x="20" y="26" width="1" height="1" fill="#120D08" />
</svg>