<?xml version="1.0" encoding="UTF-8" ?>
<svg version="1.1" width="64" height="32" xmlns="http://www.w3.org/2000/svg" shape-rendering="crispEdges">
<rect x="21" y="6" width="1" height="1" fill="#F77622" />
<rect x="22" y="6" width="1" height="1" fill="#F77622" />
<rect x="23" y="6" width="1" height="1" fill="#F77622" />
<rect x="24" y="6" width="1" height="1" fill="#F77622" />
<rect x="25" y="6" width="1" height="1" fill="#F77622" />
<rect x="26" y="6" width="1" height="1" fill="#F77622" />
<rect x="19" y="7" width="1" height="1" fill="#F77622" />
<rect x="20" y="7" width="1" height="1" fill="#F77622" />
<rect x="21" y="7" width="1" height="1" fill="#F77622" />
<rect x="22" y="7" width="1" height="1" fill="#F77622" />
<rect x="23" y="7" width="1" height="1" fill="#F77622" />
<rect x="24" y="7" width="1" height="1" fill="#F77622" />
<rect x="25" y="7" width="1" height="1" fill="#F77622" />
<rect x="26" y="7" width="1" height="1" fill="#F77622" />
<rect x="27" y="7" width="1" height="1" fill="#F77622" />
<rect x="28" y="7" width="1" height="1" fill="#F77622" />
<rect x="29" y="7" width="1" height="1" fill="#F77622" />
<rect x="30" y="7" width="1" height="1" fill="#F77622" />
<rect x="31" y="7" width="1" height="1" fill="#F77622" />
<rect x="32" y="7" width="1" height="1" fill="#F77622" />
<rect x="33" y="7" width="1" height="1" fill="#F77622" />
<rect x="18" y="8" width="1" height="1" fill="#F77622" />
<rect x="19" y="8" width="1" height="1" fill="#F77622" />
<rect x="20" y="8" width="1" height="1" fill="#F77622" />
<rect x="21" y="8" width="1" height="1" fill="#FEAE34" />
<rect x="22" y="8" width="1" height="1" fill="#FEAE34" />
<rect x="23" y="8" width="1" height="1" fill="#FEAE34" />
<rect x="24" y="8" width="1" height="1" fill="#FEAE34" />
<rect x="25" y="8" width="1" height="1" fill="#FEAE34" />
<rect x="26" y="8" width="1" height="1" fill="#FEAE34" />
<rect x="27" y="8" width="1" height="1" fill="#FEAE34" />
<rect x="28" y="8" width="1" height="1" fill="#FEAE34" />
<rect x="29" y="8" width="1" height="1" fill="#FEAE34" />
<rect x="30" y="8" width="1" height="1" fill="#FEAE34" />
<rect x="31" y="8" width="1" height="1" fill="#FEAE34" />
<rect x="32" y="8" width="1" height="1" fill="#FEAE34" />
<rect x="33" y="8" width="1" height="1" fill="#FEAE34" />
<rect x="34" y="8" width="1" height="1" fill="#F77622" />
<rect x="35" y="8" width="1" height="1" fill="#F77622" />
<rect x="36" y="8" width="1" height="1" fill="#F77622" />
<rect x="37" y="8" width="1" height="1" fill="#F77622" />
<rect x="38" y="8" width="1" height="1" fill="#F77622" />
<rect x="39" y="8" width="1" height="1" fill="#F77622" />
<rect x="40" y="8" width="1" height="1" fill="#F77622" />
<rect x="41" y="8" width="1" height="1" fill="#F77622" />
<rect x="17" y="9" width="1" height="1" fill="#F77622" />
<rect x="18" y="9" width="1" height="1" fill="#F77622" />
<rect x="19" y="9" width="1" height="1" fill="#FEAE34" />
<rect x="20" y="9" width="1" height="1" fill="#FEAE34" />
<rect x="21" y="9" width="1" height="1" fill="#FEAE34" />
<rect x="22" y="9" width="1" height="1" fill="#FEAE34" />
<rect x="23" y="9" width="1" height="1" fill="#FEAE34" />
<rect x="24" y="9" width="1" height="1" fill="#FEAE34" />
<rect x="25" y="9" width="1" height="1" fill="#FEAE34" />
<rect x="26" y="9" width="1" height="1" fill="#FEAE34" />
<rect x="27" y="9" width="1" height="1" fill="#FEAE34" />
<rect x="28" y="9" width="1" height="1" fill="#FEAE34" />
<rect x="29" y="9" width="1" height="1" fill="#FEAE34" />
<rect x="30" y="9" width="1" height="1" fill="#FEAE34" />
<rect x="31" y="9" width="1" height="1" fill="#FEAE34" />
<rect x="32" y="9" width="1" height="1" fill="#FEAE34" />
<rect x="33" y="9" width="1" height="1" fill="#FEAE34" />
<rect x="34" y="9" width="1" height="1" fill="#FEAE34" />
<rect x="35" y="9" width="1" height="1" fill="#FEAE34" />
<rect x="36" y="9" width="1" height="1" fill="#FEAE34" />
<rect x="37" y="9" width="1" height="1" fill="#FEAE34" />
<rect x="38" y="9" width="1" height="1" fill="#FEAE34" />
<rect x="39" y="9" width="1" height="1" fill="#FEE761" />
<rect x="40" y="9" width="1" height="1" fill="#FEE761" />
<rect x="41" y="9" width="1" height="1" fill="#FEE761" />
<rect x="42" y="9" width="1" height="1" fill="#F77622" />
<rect x="43" y="9" width="1" height="1" fill="#F77622" />
<rect x="44" y="9" width="1" height="1" fill="#F77622" />
<rect x="16" y="10" width="1" height="1" fill="#F77622" />
<rect x="17" y="10" width="1" height="1" fill="#F77622" />
<rect x="18" y="10" width="1" height="1" fill="#FEAE34" />
<rect x="19" y="10" width="1" height="1" fill="#FEAE34" />
<rect x="20" y="10" width="1" height="1" fill="#FEAE34" />
<rect x="21" y="10" width="1" height="1" fill="#FEAE34" />
<rect x="22" y="10" width="1" height="1" fill="#FEE761" />
<rect x="23" y="10" width="1" height="1" fill="#FEE761" />
<rect x="24" y="10" width="1" height="1" fill="#FEE761" />
<rect x="25" y="10" width="1" height="1" fill="#FEE761" />
<rect x="26" y="10" width="1" height="1" fill="#FEAE34" />
<rect x="27" y="10" width="1" height="1" fill="#FEAE34" />
<rect x="28" y="10" width="1" height="1" fill="#FEAE34" />
<rect x="29" y="10" width="1" height="1" fill="#FEAE34" />
<rect x="30" y="10" width="1" height="1" fill="#FEAE34" />
<rect x="31" y="10" width="1" height="1" fill="#FEAE34" />
<rect x="32" y="10" width="1" height="1" fill="#FEAE34" />
<rect x="33" y="10" width="1" height="1" fill="#FEAE34" />
<rect x="34" y="10" width="1" height="1" fill="#FEE761" />
<rect x="35" y="10" width="1" height="1" fill="#FEE761" />
<rect x="36" y="10" width="1" height="1" fill="#FEE761" />
<rect x="37" y="10" width="1" height="1" fill="#F77622" />
<rect x="38" y="10" width="1" height="1" fill="#F77622" />
<rect x="39" y="10" width="1" height="1" fill="#F77622" />
<rect x="40" y="10" width="1" height="1" fill="#F77622" />
<rect x="41" y="10" width="1" height="1" fill="#F77622" />
<rect x="42" y="10" width="1" height="1" fill="#F77622" />
<rect x="43" y="10" width="1" height="1" fill="#F77622" />
<rect x="44" y="10" width="1" height="1" fill="#F77622" />
<rect x="45" y="10" width="1" height="1" fill="#F77622" />
<rect x="46" y="10" width="1" height="1" fill="#F77622" />
<rect x="16" y="11" width="1" height="1" fill="#F77622" />
<rect x="17" y="11" width="1" height="1" fill="#F77622" />
<rect x="18" y="11" width="1" height="1" fill="#FEAE34" />
<rect x="19" y="11" width="1" height="1" fill="#FEAE34" />
<rect x="20" y="11" width="1" height="1" fill="#FEE761" />
<rect x="21" y="11" width="1" height="1" fill="#FEE761" />
<rect x="22" y="11" width="1" height="1" fill="#FEE761" />
<rect x="23" y="11" width="1" height="1" fill="#FEE761" />
<rect x="24" y="11" width="1" height="1" fill="#FEE761" />
<rect x="25" y="11" width="1" height="1" fill="#FEE761" />
<rect x="26" y="11" width="1" height="1" fill="#FEE761" />
<rect x="27" y="11" width="1" height="1" fill="#FEE761" />
<rect x="28" y="11" width="1" height="1" fill="#FEAE34" />
<rect x="29" y="11" width="1" height="1" fill="#FEAE34" />
<rect x="30" y="11" width="1" height="1" fill="#FEAE34" />
<rect x="31" y="11" width="1" height="1" fill="#FEAE34" />
<rect x="32" y="11" width="1" height="1" fill="#FEAE34" />
<rect x="33" y="11" width="1" height="1" fill="#FEAE34" />
<rect x="34" y="11" width="1" height="1" fill="#F77622" />
<rect x="35" y="11" width="1" height="1" fill="#F77622" />
<rect x="36" y="11" width="1" height="1" fill="#F77622" />
<rect x="15" y="12" width="1" height="1" fill="#F77622" />
<rect x="16" y="12" width="1" height="1" fill="#F77622" />
<rect x="17" y="12" width="1" height="1" fill="#FEAE34" />
<rect x="18" y="12" width="1" height="1" fill="#FEAE34" />
<rect x="19" y="12" width="1" height="1" fill="#FEAE34" />
<rect x="20" y="12" width="1" height="1" fill="#FEE761" />
<rect x="21" y="12" width="1" height="1" fill="#FEE761" />
<rect x="22" y="12" width="1" height="1" fill="#FEE761" />
<rect x="23" y="12" width="1" height="1" fill="#FEE761" />
<rect x="24" y="12" width="1" height="1" fill="#FEE761" />
<rect x="25" y="12" width="1" height="1" fill="#FEE761" />
<rect x="26" y="12" width="1" height="1" fill="#FEE761" />
<rect x="27" y="12" width="1" height="1" fill="#FEE761" />
<rect x="28" y="12" width="1" height="1" fill="#FEAE34" />
<rect x="29" y="12" width="1" height="1" fill="#FEAE34" />
<rect x="30" y="12" width="1" height="1" fill="#FEAE34" />
<rect x="31" y="12" width="1" height="1" fill="#F77622" />
<rect x="32" y="12" width="1" height="1" fill="#F77622" />
<rect x="33" y="12" width="1" height="1" fill="#F77622" />
<rect x="15" y="13" width="1" height="1" fill="#F77622" />
<rect x="16" y="13" width="1" height="1" fill="#F77622" />
<rect x="17" y="13" width="1" height="1" fill="#FEAE34" />
<rect x="18" y="13" width="1" height="1" fill="#FEAE34" />
<rect x="19" y="13" width="1" height="1" fill="#FEE761" />
<rect x="20" y="13" width="1" height="1" fill="#FEE761" />
<rect x="21" y="13" width="1" height="1" fill="#FEE761" />
<rect x="22" y="13" width="1" height="1" fill="#FEE761" />
<rect x="23" y="13" width="1" height="1" fill="#FEE761" />
<rect x="24" y="13" width="1" height="1" fill="#FEE761" />
<rect x="25" y="13" width="1" height="1" fill="#FEE761" />
<rect x="26" y="13" width="1" height="1" fill="#FEE761" />
<rect x="27" y="13" width="1" height="1" fill="#FEE761" />
<rect x="28" y="13" width="1" height="1" fill="#FEE761" />
<rect x="29" y="13" width="1" height="1" fill="#FEAE34" />
<rect x="30" y="13" width="1" height="1" fill="#FEAE34" />
<rect x="31" y="13" width="1" height="1" fill="#F77622" />
<rect x="32" y="13" width="1" height="1" fill="#F77622" />
<rect x="33" y="13" width="1" height="1" fill="#F77622" />
<rect x="34" y="13" width="1" height="1" fill="#F77622" />
<rect x="35" y="13" width="1" height="1" fill="#F77622" />
<rect x="36" y="13" width="1" height="1" fill="#F77622" />
<rect x="37" y="13" width="1" height="1" fill="#F77622" />
<rect x="38" y="13" width="1" height="1" fill="#F77622" />
<rect x="15" y="14" width="1" height="1" fill="#F77622" />
<rect x="16" y="14" width="1" height="1" fill="#F77622" />
<rect x="17" y="14" width="1" height="1" fill="#FEAE34" />
<rect x="18" y="14" width="1" height="1" fill="#FEAE34" />
<rect x="19" y="14" width="1" height="1" fill="#FEE761" />
<rect x="20" y="14" width="1" height="1" fill="#FEE761" />
<rect x="21" y="14" width="1" height="1" fill="#FEE761" />
<rect x="22" y="14" width="1" height="1" fill="#FEE761" />
<rect x="23" y="14" width="1" height="1" fill="#FEE761" />
<rect x="24" y="14" width="1" height="1" fill="#FEE761" />
<rect x="25" y="14" width="1" height="1" fill="#FEE761" />
<rect x="26" y="14" width="1" height="1" fill="#FEE761" />
<rect x="27" y="14" width="1" height="1" fill="#FEE761" />
<rect x="28" y="14" width="1" height="1" fill="#FEE761" />
<rect x="29" y="14" width="1" height="1" fill="#FEAE34" />
<rect x="30" y="14" width="1" height="1" fill="#FEAE34" />
<rect x="31" y="14" width="1" height="1" fill="#F77622" />
<rect x="32" y="14" width="1" height="1" fill="#F77622" />
<rect x="33" y="14" width="1" height="1" fill="#F77622" />
<rect x="34" y="14" width="1" height="1" fill="#F77622" />
<rect x="35" y="14" width="1" height="1" fill="#F77622" />
<rect x="36" y="14" width="1" height="1" fill="#F77622" />
<rect x="37" y="14" width="1" height="1" fill="#F77622" />
<rect x="38" y="14" width="1" height="1" fill="#F77622" />
<rect x="39" y="14" width="1" height="1" fill="#F77622" />
<rect x="40" y="14" width="1" height="1" fill="#F77622" />
<rect x="41" y="14" width="1" height="1" fill="#F77622" />
<rect x="42" y="14" width="1" height="1" fill="#F77622" />
<rect x="15" y="15" width="1" height="1" fill="#F77622" />
<rect x="16" y="15" width="1" height="1" fill="#F77622" />
<rect x="17" y="15" width="1" height="1" fill="#FEAE34" />
<rect x="18" y="15" width="1" height="1" fill="#FEAE34" />
<rect x="19" y="15" width="1" height="1" fill="#FEE761" />
<rect x="20" y="15" width="1" height="1" fill="#FEE761" />
<rect x="21" y="15" width="1" height="1" fill="#FEE761" />
<rect x="22" y="15" width="1" height="1" fill="#FEE761" />
<rect x="23" y="15" width="1" height="1" fill="#FEE761" />
<rect x="24" y="15" width="1" height="1" fill="#FEE761" />
<rect x="25" y="15" width="1" height="1" fill="#FEE761" />
<rect x="26" y="15" width="1" height="1" fill="#FEE761" />
<rect x="27" y="15" width="1" height="1" fill="#FEE761" />
<rect x="28" y="15" width="1" height="1" fill="#FEE761" />
<rect x="29" y="15" width="1" height="1" fill="#FEAE34" />
<rect x="30" y="15" width="1" height="1" fill="#FEAE34" />
<rect x="31" y="15" width="1" height="1" fill="#F77622" />
<rect x="32" y="15" width="1" height="1" fill="#F77622" />
<rect x="33" y="15" width="1" height="1" fill="#F77622" />
<rect x="34" y="15" width="1" height="1" fill="#F77622" />
<rect x="35" y="15" width="1" height="1" fill="#F77622" />
<rect x="36" y="15" width="1" height="1" fill="#F77622" />
<rect x="37" y="15" width="1" height="1" fill="#F77622" />
<rect x="38" y="15" width="1" height="1" fill="#F77622" />
<rect x="39" y="15" width="1" height="1" fill="#F77622" />
<rect x="15" y="16" width="1" height="1" fill="#F77622" />
<rect x="16" y="16" width="1" height="1" fill="#F77622" />
<rect x="17" y="16" width="1" height="1" fill="#FEAE34" />
<rect x="18" y="16" width="1" height="1" fill="#FEAE34" />
<rect x="19" y="16" width="1" height="1" fill="#FEAE34" />
<rect x="20" y="16" width="1" height="1" fill="#FEE761" />
<rect x="21" y="16" width="1" height="1" fill="#FEE761" />
<rect x="22" y="16" width="1" height="1" fill="#FEE761" />
<rect x="23" y="16" width="1" height="1" fill="#FEE761" />
<rect x="24" y="16" width="1" height="1" fill="#FEE761" />
<rect x="25" y="16" width="1" height="1" fill="#FEE761" />
<rect x="26" y="16" width="1" height="1" fill="#FEE761" />
<rect x="27" y="16" width="1" height="1" fill="#FEE761" />
<rect x="28" y="16" width="1" height="1" fill="#FEAE34" />
<rect x="29" y="16" width="1" height="1" fill="#FEAE34" />
<rect x="30" y="16" width="1" height="1" fill="#FEAE34" />
<rect x="31" y="16" width="1" height="1" fill="#F77622" />
<rect x="32" y="16" width="1" height="1" fill="#F77622" />
<rect x="16" y="17" width="1" height="1" fill="#F77622" />
<rect x="17" y="17" width="1" height="1" fill="#F77622" />
<rect x="18" y="17" width="1" height="1" fill="#FEAE34" />
<rect x="19" y="17" width="1" height="1" fill="#FEAE34" />
<rect x="20" y="17" width="1" height="1" fill="#FEE761" />
<rect x="21" y="17" width="1" height="1" fill="#FEE761" />
<rect x="22" y="17" width="1" height="1" fill="#FEE761" />
<rect x="23" y="17" width="1" height="1" fill="#FEE761" />
<rect x="24" y="17" width="1" height="1" fill="#FEE761" />
<rect x="25" y="17" width="1" height="1" fill="#FEE761" />
<rect x="26" y="17" width="1" height="1" fill="#FEE761" />
<rect x="27" y="17" width="1" height="1" fill="#FEE761" />
<rect x="28" y="17" width="1" height="1" fill="#FEAE34" />
<rect x="29" y="17" width="1" height="1" fill="#FEAE34" />
<rect x="30" y="17" width="1" height="1" fill="#FEAE34" />
<rect x="31" y="17" width="1" height="1" fill="#FEAE34" />
<rect x="32" y="17" width="1" height="1" fill="#F77622" />
<rect x="33" y="17" width="1" height="1" fill="#F77622" />
<rect x="34" y="17" width="1" height="1" fill="#F77622" />
<rect x="35" y="17" width="1" height="1" fill="#F77622" />
<rect x="36" y="17" width="1" height="1" fill="#F77622" />
<rect x="37" y="17" width="1" height="1" fill="#F77622" />
<rect x="16" y="18" width="1" height="1" fill="#F77622" />
<rect x="17" y="18" width="1" height="1" fill="#F77622" />
<rect x="18" y="18" width="1" height="1" fill="#FEAE34" />
<rect x="19" y="18" width="1" height="1" fill="#FEAE34" />
<rect x="20" y="18" width="1" height="1" fill="#FEAE34" />
<rect x="21" y="18" width="1" height="1" fill="#FEAE34" />
<rect x="22" y="18" width="1" height="1" fill="#FEE761" />
<rect x="23" y="18" width="1" height="1" fill="#FEE761" />
<rect x="24" y="18" width="1" height="1" fill="#FEE761" />
<rect x="25" y="18" width="1" height="1" fill="#FEE761" />
<rect x="26" y="18" width="1" height="1" fill="#FEAE34" />
<rect x="27" y="18" width="1" height="1" fill="#FEAE34" />
<rect x="28" y="18" width="1" height="1" fill="#FEAE34" />
<rect x="29" y="18" width="1" height="1" fill="#FEAE34" />
<rect x="30" y="18" width="1" height="1" fill="#FEAE34" />
<rect x="31" y="18" width="1" height="1" fill="#FEAE34" />
<rect x="32" y="18" width="1" height="1" fill="#FEAE34" />
<rect x="33" y="18" width="1" height="1" fill="#F77622" />
<rect x="34" y="18" width="1" height="1" fill="#F77622" />
<rect x="35" y="18" width="1" height="1" fill="#F77622" />
<rect x="36" y="18" width="1" height="1" fill="#F77622" />
<rect x="37" y="18" width="1" height="1" fill="#F77622" />
<rect x="38" y="18" width="1" height="1" fill="#F77622" />
<rect x="39" y="18" width="1" height="1" fill="#F77622" />
<rect x="17" y="19" width="1" height="1" fill="#F77622" />
<rect x="18" y="19" width="1" height="1" fill="#F77622" />
<rect x="19" y="19" width="1" height="1" fill="#FEAE34" />
<rect x="20" y="19" width="1" height="1" fill="#FEAE34" />
<rect x="21" y="19" width="1" height="1" fill="#FEAE34" />
<rect x="22" y="19" width="1" height="1" fill="#FEAE34" />
<rect x="23" y="19" width="1" height="1" fill="#FEAE34" />
<rect x="24" y="19" width="1" height="1" fill="#FEAE34" />
<rect x="25" y="19" width="1" height="1" fill="#FEAE34" />
<rect x="26" y="19" width="1" height="1" fill="#FEAE34" />
<rect x="27" y="19" width="1" height="1" fill="#FEAE34" />
<rect x="28" y="19" width="1" height="1" fill="#FEAE34" />
<rect x="29" y="19" width="1" height="1" fill="#FEAE34" />
<rect x="30" y="19" width="1" height="1" fill="#FEAE34" />
<rect x="31" y="19" width="1" height="1" fill="#FEAE34" />
<rect x="32" y="19" width="1" height="1" fill="#FEE761" />
<rect x="33" y="19" width="1" height="1" fill="#FEAE34" />
<rect x="34" y="19" width="1" height="1" fill="#FEAE34" />
<rect x="35" y="19" width="1" height="1" fill="#FEAE34" />
<rect x="36" y="19" width="1" height="1" fill="#FEE761" />
<rect x="37" y="19" width="1" height="1" fill="#FEE761" />
<rect x="38" y="19" width="1" height="1" fill="#FEE761" />
<rect x="39" y="19" width="1" height="1" fill="#FEE761" />
<rect x="40" y="19" width="1" height="1" fill="#F77622" />
<rect x="41" y="19" width="1" height="1" fill="#F77622" />
<rect x="42" y="19" width="1" height="1" fill="#F77622" />
<rect x="18" y="20" width="1" height="1" fill="#F77622" />
<rect x="19" y="20" width="1" height="1" fill="#F77622" />
<rect x="20" y="20" width="1" height="1" fill="#F77622" />
<rect x="21" y="20" width="1" height="1" fill="#FEAE34" />
<rect x="22" y="20" width="1" height="1" fill="#FEAE34" />
<rect x="23" y="20" width="1" height="1" fill="#FEAE34" />
<rect x="24" y="20" width="1" height="1" fill="#FEAE34" />
<rect x="25" y="20" width="1" height="1" fill="#FEAE34" />
<rect x="26" y="20" width="1" height="1" fill="#FEAE34" />
<rect x="27" y="20" width="1" height="1" fill="#FEAE34" />
<rect x="28" y="20" width="1" height="1" fill="#FEAE34" />
<rect x="29" y="20" width="1" height="1" fill="#FEAE34" />
<rect x="30" y="20" width="1" height="1" fill="#FEAE34" />
<rect x="31" y="20" width="1" height="1" fill="#FEAE34" />
<rect x="32" y="20" width="1" height="1" fill="#F77622" />
<rect x="33" y="20" width="1" height="1" fill="#F77622" />
<rect x="34" y="20" width="1" height="1" fill="#F77622" />
<rect x="35" y="20" width="1" height="1" fill="#F77622" />
<rect x="36" y="20" width="1" height="1" fill="#F77622" />
<rect x="37" y="20" width="1" height="1" fill="#F77622" />
<rect x="38" y="20" width="1" height="1" fill="#F77622" />
<rect x="39" y="20" width="1" height="1" fill="#F77622" />
<rect x="19" y="21" width="1" height="1" fill="#F77622" />
<rect x="20" y="21" width="1" height="1" fill="#F77622" />
<rect x="21" y="21" width="1" height="1" fill="#F77622" />
<rect x="22" y="21" width="1" height="1" fill="#F77622" />
<rect x="23" y="21" width="1" height="1" fill="#F77622" />
<rect x="24" y="21" width="1" height="1" fill="#F77622" />
<rect x="25" y="21" width="1" height="1" fill="#F77622" />
<rect x="26" y="21" width="1" height="1" fill="#F77622" />
<rect x="27" y="21" width="1" height="1" fill="#F77622" />
<rect x="28" y="21" width="1" height="1" fill="#F77622" />
<rect x="29" y="21" width="1" height="1" fill="#F77622" />
<rect x="30" y="21" width="1" height="1" fill="#F77622" />
<rect x="31" y="21" width="1" height="1" fill="#F77622" />
<rect x="32" y="21" width="1" height="1" fill="#F77622" />
<rect x="33" y="21" width="1" height="1" fill="#F77622" />
<rect x="34" y="21" width="1" height="1" fill="#F77622" />
<rect x="21" y="22" width="1" height="1" fill="#F77622" />
<rect x="22" y="22" width="1" height="1" fill="#F77622" />
<rect x="23" y="22" width="1" height="1" fill="#F77622" />
<rect x="24" y="22" width="1" height="1" fill="#F77622" />
<rect x="25" y="22" width="1" height="1" fill="#F77622" />
<rect x="26" y="22" width="1" height="1" fill="#F77622" />
</svg>