<?xml version="1.0" encoding="UTF-8" ?>
<svg version="1.1" width="64" height="64" xmlns="http://www.w3.org/2000/svg" shape-rendering="crispEdges">
<rect x="33" y="23" width="1" height="1" fill="#FDDF12" />
<rect x="32" y="24" width="1" height="1" fill="#FDDF12" />
<rect x="35" y="24" width="1" height="1" fill="#FDDF12" />
<rect x="30" y="25" width="1" height="1" fill="#FDDF12" />
<rect x="32" y="25" width="1" height="1" fill="#FDDF12" />
<rect x="31" y="26" width="1" height="1" fill="#FDDF12" />
<rect x="32" y="26" width="1" height="1" fill="#FDDF12" />
<rect x="33" y="26" width="1" height="1" fill="#FDDF12" />
<rect x="34" y="26" width="1" height="1" fill="#FDDF12" />
<rect x="30" y="27" width="1" height="1" fill="#FDDF12" />
<rect x="32" y="27" width="1" height="1" fill="#FDDF12" />
<rect x="33" y="27" width="1" height="1" fill="#FDDF12" />
<rect x="34" y="27" width="1" height="1" fill="#FDDF12" />
<rect x="32" y="28" width="1" height="1" fill="#202020" />
<rect x="34" y="28" width="1" height="1" fill="#FDDF12" />
<rect x="30" y="29" width="1" height="1" fill="#393737" />
<rect x="31" y="29" width="1" height="1" fill="#393737" />
<rect x="32" y="29" width="1" height="1" fill="#393737" />
<rect x="28" y="30" width="1" height="1" fill="#393737" />
<rect x="29" y="30" width="1" height="1" fill="#393737" />
<rect x="30" y="30" width="1" height="1" fill="#393737" />
<rect x="31" y="30" width="1" height="1" fill="#393737" />
<rect x="32" y="30" width="1" height="1" fill="#393737" />
<rect x="33" y="30" width="1" height="1" fill="#393737" />
<rect x="34" y="30" width="1" height="1" fill="#393737" />
<rect x="27" y="31" width="1" height="1" fill="#393737" />
<rect x="28" y="31" width="1" height="1" fill="#393737" />
<rect x="29" y="31" width="1" height="1" fill="#393737" />
<rect x="30" y="31" width="1" height="1" fill="#393737" />
<rect x="31" y="31" width="1" height="1" fill="#393737" />
<rect x="32" y="31" width="1" height="1" fill="#393737" />
<rect x="33" y="31" width="1" height="1" fill="#393737" />
<rect x="34" y="31" width="1" height="1" fill="#393737" />
<rect x="27" y="32" width="1" height="1" fill="#393737" />
<rect x="28" y="32" width="1" height="1" fill="#393737" />
<rect x="29" y="32" width="1" height="1" fill="#393737" />
<rect x="30" y="32" width="1" height="1" fill="#393737" />
<rect x="31" y="32" width="1" height="1" fill="#393737" />
<rect x="32" y="32" width="1" height="1" fill="#393737" />
<rect x="33" y="32" width="1" height="1" fill="#393737" />
<rect x="34" y="32" width="1" height="1" fill="#393737" />
<rect x="35" y="32" width="1" height="1" fill="#202020" />
<rect x="27" y="33" width="1" height="1" fill="#202020" />
<rect x="28" y="33" width="1" height="1" fill="#393737" />
<rect x="29" y="33" width="1" height="1" fill="#393737" />
<rect x="30" y="33" width="1" height="1" fill="#393737" />
<rect x="31" y="33" width="1" height="1" fill="#393737" />
<rect x="32" y="33" width="1" height="1" fill="#393737" />
<rect x="33" y="33" width="1" height="1" fill="#393737" />
<rect x="34" y="33" width="1" height="1" fill="#202020" />
<rect x="35" y="33" width="1" height="1" fill="#202020" />
<rect x="27" y="34" width="1" height="1" fill="#202020" />
<rect x="28" y="34" width="1" height="1" fill="#202020" />
<rect x="29" y="34" width="1" height="1" fill="#393737" />
<rect x="30" y="34" width="1" height="1" fill="#393737" />
<rect x="31" y="34" width="1" height="1" fill="#393737" />
<rect x="32" y="34" width="1" height="1" fill="#393737" />
<rect x="33" y="34" width="1" height="1" fill="#202020" />
<rect x="34" y="34" width="1" height="1" fill="#202020" />
<rect x="35" y="34" width="1" height="1" fill="#202020" />
<rect x="28" y="35" width="1" height="1" fill="#202020" />
<rect x="29" y="35" width="1" height="1" fill="#202020" />
<rect x="30" y="35" width="1" height="1" fill="#202020" />
<rect x="31" y="35" width="1" height="1" fill="#202020" />
<rect x="32" y="35" width="1" height="1" fill="#202020" />
<rect x="33" y="35" width="1" height="1" fill="#202020" />
<rect x="34" y="35" width="1" height="1" fill="#202020" />
<rect x="28" y="36" width="1" height="1" fill="#202020" />
<rect x="29" y="36" width="1" height="1" fill="#202020" />
<rect x="30" y="36" width="1" height="1" fill="#202020" />
<rect x="31" y="36" width="1" height="1" fill="#202020" />
<rect x="32" y="36" width="1" height="1" fill="#202020" />
<rect x="33" y="36" width="1" height="1" fill="#202020" />
<rect x="34" y="36" width="1" height="1" fill="#202020" />
<rect x="30" y="37" width="1" height="1" fill="#202020" />
<rect x="31" y="37" width="1" height="1" fill="#202020" />
<rect x="32" y="37" width="1" height="1" fill="#202020" />
</svg>