<?xml version="1.0" encoding="UTF-8" ?>
<svg version="1.1" width="64" height="64" xmlns="http://www.w3.org/2000/svg" shape-rendering="crispEdges">
<rect x="32" y="12" width="1" height="1" fill="#EFFF00" />
<rect x="32" y="14" width="1" height="1" fill="#EFFF00" />
<rect x="32" y="15" width="1" height="1" fill="#EFFF00" />
<rect x="33" y="15" width="1" height="1" fill="#EFFF00" />
<rect x="32" y="16" width="1" height="1" fill="#EFFF00" />
<rect x="33" y="16" width="1" height="1" fill="#EFFF00" />
<rect x="32" y="17" width="1" height="1" fill="#EFFF00" />
<rect x="34" y="19" width="1" height="1" fill="#EFFF00" />
<rect x="48" y="20" width="1" height="1" fill="#EFFF00" />
<rect x="49" y="20" width="1" height="1" fill="#EFFF00" />
<rect x="31" y="21" width="1" height="1" fill="#EFFF00" />
<rect x="47" y="21" width="1" height="1" fill="#EFFF00" />
<rect x="48" y="21" width="1" height="1" fill="#EFFF00" />
<rect x="49" y="21" width="1" height="1" fill="#EFFF00" />
<rect x="16" y="22" width="1" height="1" fill="#EFFF00" />
<rect x="17" y="22" width="1" height="1" fill="#EFFF00" />
<rect x="46" y="22" width="1" height="1" fill="#EFFF00" />
<rect x="47" y="22" width="1" height="1" fill="#EFFF00" />
<rect x="48" y="22" width="1" height="1" fill="#EFFF00" />
<rect x="17" y="23" width="1" height="1" fill="#EFFF00" />
<rect x="18" y="23" width="1" height="1" fill="#EFFF00" />
<rect x="20" y="25" width="1" height="1" fill="#EFFF00" />
<rect x="31" y="25" width="1" height="1" fill="#B9521D" />
<rect x="32" y="25" width="1" height="1" fill="#B9521D" />
<rect x="33" y="25" width="1" height="1" fill="#B9521D" />
<rect x="34" y="25" width="1" height="1" fill="#B9521D" />
<rect x="35" y="25" width="1" height="1" fill="#B9521D" />
<rect x="23" y="26" width="1" height="1" fill="#B9521D" />
<rect x="24" y="26" width="1" height="1" fill="#B9521D" />
<rect x="30" y="26" width="1" height="1" fill="#B9521D" />
<rect x="31" y="26" width="1" height="1" fill="#B9521D" />
<rect x="32" y="26" width="1" height="1" fill="#B9521D" />
<rect x="33" y="26" width="1" height="1" fill="#B9521D" />
<rect x="34" y="26" width="1" height="1" fill="#B9521D" />
<rect x="35" y="26" width="1" height="1" fill="#B9521D" />
<rect x="36" y="26" width="1" height="1" fill="#B9521D" />
<rect x="22" y="27" width="1" height="1" fill="#B9521D" />
<rect x="23" y="27" width="1" height="1" fill="#B9521D" />
<rect x="24" y="27" width="1" height="1" fill="#B9521D" />
<rect x="25" y="27" width="1" height="1" fill="#B9521D" />
<rect x="26" y="27" width="1" height="1" fill="#B9521D" />
<rect x="29" y="27" width="1" height="1" fill="#B9521D" />
<rect x="30" y="27" width="1" height="1" fill="#B9521D" />
<rect x="31" y="27" width="1" height="1" fill="#B9521D" />
<rect x="32" y="27" width="1" height="1" fill="#B9521D" />
<rect x="33" y="27" width="1" height="1" fill="#B9521D" />
<rect x="34" y="27" width="1" height="1" fill="#B9521D" />
<rect x="35" y="27" width="1" height="1" fill="#B9521D" />
<rect x="36" y="27" width="1" height="1" fill="#B9521D" />
<rect x="37" y="27" width="1" height="1" fill="#B9521D" />
<rect x="22" y="28" width="1" height="1" fill="#B9521D" />
<rect x="23" y="28" width="1" height="1" fill="#B9521D" />
<rect x="24" y="28" width="1" height="1" fill="#B9521D" />
<rect x="25" y="28" width="1" height="1" fill="#B9521D" />
<rect x="26" y="28" width="1" height="1" fill="#B9521D" />
<rect x="27" y="28" width="1" height="1" fill="#B9521D" />
<rect x="28" y="28" width="1" height="1" fill="#B9521D" />
<rect x="29" y="28" width="1" height="1" fill="#B9521D" />
<rect x="30" y="28" width="1" height="1" fill="#B9521D" />
<rect x="31" y="28" width="1" height="1" fill="#B9521D" />
<rect x="32" y="28" width="1" height="1" fill="#B9521D" />
<rect x="33" y="28" width="1" height="1" fill="#B9521D" />
<rect x="34" y="28" width="1" height="1" fill="#B9521D" />
<rect x="35" y="28" width="1" height="1" fill="#B9521D" />
<rect x="36" y="28" width="1" height="1" fill="#B9521D" />
<rect x="37" y="28" width="1" height="1" fill="#B9521D" />
<rect x="38" y="28" width="1" height="1" fill="#B9521D" />
<rect x="22" y="29" width="1" height="1" fill="#B9521D" />
<rect x="23" y="29" width="1" height="1" fill="#B9521D" />
<rect x="24" y="29" width="1" height="1" fill="#B9521D" />
<rect x="25" y="29" width="1" height="1" fill="#B9521D" />
<rect x="26" y="29" width="1" height="1" fill="#B9521D" />
<rect x="27" y="29" width="1" height="1" fill="#B9521D" />
<rect x="28" y="29" width="1" height="1" fill="#B9521D" />
<rect x="29" y="29" width="1" height="1" fill="#B9521D" />
<rect x="30" y="29" width="1" height="1" fill="#B9521D" />
<rect x="31" y="29" width="1" height="1" fill="#B9521D" />
<rect x="32" y="29" width="1" height="1" fill="#B9521D" />
<rect x="33" y="29" width="1" height="1" fill="#B9521D" />
<rect x="34" y="29" width="1" height="1" fill="#B9521D" />
<rect x="35" y="29" width="1" height="1" fill="#B9521D" />
<rect x="36" y="29" width="1" height="1" fill="#B9521D" />
<rect x="37" y="29" width="1" height="1" fill="#B9521D" />
<rect x="38" y="29" width="1" height="1" fill="#B9521D" />
<rect x="39" y="29" width="1" height="1" fill="#B9521D" />
<rect x="40" y="29" width="1" height="1" fill="#B9521D" />
<rect x="41" y="29" width="1" height="1" fill="#B9521D" />
<rect x="42" y="29" width="1" height="1" fill="#B9521D" />
<rect x="43" y="29" width="1" height="1" fill="#B9521D" />
<rect x="44" y="29" width="1" height="1" fill="#B9521D" />
<rect x="45" y="29" width="1" height="1" fill="#B9521D" />
<rect x="21" y="30" width="1" height="1" fill="#B9521D" />
<rect x="22" y="30" width="1" height="1" fill="#B9521D" />
<rect x="23" y="30" width="1" height="1" fill="#B9521D" />
<rect x="24" y="30" width="1" height="1" fill="#B9521D" />
<rect x="25" y="30" width="1" height="1" fill="#B9521D" />
<rect x="26" y="30" width="1" height="1" fill="#B9521D" />
<rect x="27" y="30" width="1" height="1" fill="#B9521D" />
<rect x="28" y="30" width="1" height="1" fill="#B9521D" />
<rect x="29" y="30" width="1" height="1" fill="#E48C28" />
<rect x="30" y="30" width="1" height="1" fill="#E48C28" />
<rect x="31" y="30" width="1" height="1" fill="#B9521D" />
<rect x="32" y="30" width="1" height="1" fill="#B9521D" />
<rect x="33" y="30" width="1" height="1" fill="#B9521D" />
<rect x="34" y="30" width="1" height="1" fill="#B9521D" />
<rect x="35" y="30" width="1" height="1" fill="#B9521D" />
<rect x="36" y="30" width="1" height="1" fill="#B9521D" />
<rect x="37" y="30" width="1" height="1" fill="#B9521D" />
<rect x="38" y="30" width="1" height="1" fill="#B9521D" />
<rect x="39" y="30" width="1" height="1" fill="#B9521D" />
<rect x="40" y="30" width="1" height="1" fill="#B9521D" />
<rect x="41" y="30" width="1" height="1" fill="#B9521D" />
<rect x="42" y="30" width="1" height="1" fill="#B9521D" />
<rect x="43" y="30" width="1" height="1" fill="#B9521D" />
<rect x="44" y="30" width="1" height="1" fill="#B9521D" />
<rect x="45" y="30" width="1" height="1" fill="#B9521D" />
<rect x="21" y="31" width="1" height="1" fill="#B9521D" />
<rect x="22" y="31" width="1" height="1" fill="#B9521D" />
<rect x="23" y="31" width="1" height="1" fill="#B9521D" />
<rect x="24" y="31" width="1" height="1" fill="#B9521D" />
<rect x="25" y="31" width="1" height="1" fill="#B9521D" />
<rect x="26" y="31" width="1" height="1" fill="#B9521D" />
<rect x="27" y="31" width="1" height="1" fill="#B9521D" />
<rect x="28" y="31" width="1" height="1" fill="#E48C28" />
<rect x="29" y="31" width="1" height="1" fill="#E48C28" />
<rect x="30" y="31" width="1" height="1" fill="#B9521D" />
<rect x="31" y="31" width="1" height="1" fill="#B9521D" />
<rect x="32" y="31" width="1" height="1" fill="#B9521D" />
<rect x="33" y="31" width="1" height="1" fill="#B9521D" />
<rect x="34" y="31" width="1" height="1" fill="#B9521D" />
<rect x="35" y="31" width="1" height="1" fill="#B9521D" />
<rect x="36" y="31" width="1" height="1" fill="#B9521D" />
<rect x="37" y="31" width="1" height="1" fill="#B9521D" />
<rect x="38" y="31" width="1" height="1" fill="#E48C28" />
<rect x="39" y="31" width="1" height="1" fill="#E48C28" />
<rect x="40" y="31" width="1" height="1" fill="#B9521D" />
<rect x="41" y="31" width="1" height="1" fill="#B9521D" />
<rect x="42" y="31" width="1" height="1" fill="#B9521D" />
<rect x="43" y="31" width="1" height="1" fill="#B9521D" />
<rect x="44" y="31" width="1" height="1" fill="#B9521D" />
<rect x="45" y="31" width="1" height="1" fill="#B9521D" />
<rect x="21" y="32" width="1" height="1" fill="#B9521D" />
<rect x="22" y="32" width="1" height="1" fill="#B9521D" />
<rect x="23" y="32" width="1" height="1" fill="#B9521D" />
<rect x="24" y="32" width="1" height="1" fill="#B9521D" />
<rect x="25" y="32" width="1" height="1" fill="#B9521D" />
<rect x="26" y="32" width="1" height="1" fill="#B9521D" />
<rect x="27" y="32" width="1" height="1" fill="#E48C28" />
<rect x="28" y="32" width="1" height="1" fill="#E48C28" />
<rect x="29" y="32" width="1" height="1" fill="#E48C28" />
<rect x="30" y="32" width="1" height="1" fill="#E48C28" />
<rect x="31" y="32" width="1" height="1" fill="#B9521D" />
<rect x="32" y="32" width="1" height="1" fill="#B9521D" />
<rect x="33" y="32" width="1" height="1" fill="#B9521D" />
<rect x="34" y="32" width="1" height="1" fill="#B9521D" />
<rect x="35" y="32" width="1" height="1" fill="#B9521D" />
<rect x="36" y="32" width="1" height="1" fill="#B9521D" />
<rect x="37" y="32" width="1" height="1" fill="#E48C28" />
<rect x="38" y="32" width="1" height="1" fill="#E48C28" />
<rect x="39" y="32" width="1" height="1" fill="#E48C28" />
<rect x="40" y="32" width="1" height="1" fill="#B9521D" />
<rect x="41" y="32" width="1" height="1" fill="#B9521D" />
<rect x="42" y="32" width="1" height="1" fill="#B9521D" />
<rect x="43" y="32" width="1" height="1" fill="#B9521D" />
<rect x="44" y="32" width="1" height="1" fill="#B9521D" />
<rect x="22" y="33" width="1" height="1" fill="#B9521D" />
<rect x="23" y="33" width="1" height="1" fill="#B9521D" />
<rect x="24" y="33" width="1" height="1" fill="#B9521D" />
<rect x="25" y="33" width="1" height="1" fill="#B9521D" />
<rect x="26" y="33" width="1" height="1" fill="#E48C28" />
<rect x="27" y="33" width="1" height="1" fill="#E48C28" />
<rect x="28" y="33" width="1" height="1" fill="#E48C28" />
<rect x="29" y="33" width="1" height="1" fill="#E48C28" />
<rect x="30" y="33" width="1" height="1" fill="#E48C28" />
<rect x="31" y="33" width="1" height="1" fill="#E48C28" />
<rect x="32" y="33" width="1" height="1" fill="#B9521D" />
<rect x="33" y="33" width="1" height="1" fill="#B9521D" />
<rect x="34" y="33" width="1" height="1" fill="#E48C28" />
<rect x="35" y="33" width="1" height="1" fill="#E48C28" />
<rect x="36" y="33" width="1" height="1" fill="#E48C28" />
<rect x="37" y="33" width="1" height="1" fill="#E48C28" />
<rect x="38" y="33" width="1" height="1" fill="#E48C28" />
<rect x="39" y="33" width="1" height="1" fill="#E48C28" />
<rect x="40" y="33" width="1" height="1" fill="#B9521D" />
<rect x="41" y="33" width="1" height="1" fill="#B9521D" />
<rect x="42" y="33" width="1" height="1" fill="#B9521D" />
<rect x="43" y="33" width="1" height="1" fill="#B9521D" />
<rect x="22" y="34" width="1" height="1" fill="#B9521D" />
<rect x="23" y="34" width="1" height="1" fill="#B9521D" />
<rect x="24" y="34" width="1" height="1" fill="#B9521D" />
<rect x="25" y="34" width="1" height="1" fill="#B9521D" />
<rect x="26" y="34" width="1" height="1" fill="#E48C28" />
<rect x="27" y="34" width="1" height="1" fill="#E48C28" />
<rect x="28" y="34" width="1" height="1" fill="#E48C28" />
<rect x="29" y="34" width="1" height="1" fill="#E48C28" />
<rect x="30" y="34" width="1" height="1" fill="#E48C28" />
<rect x="31" y="34" width="1" height="1" fill="#E48C28" />
<rect x="32" y="34" width="1" height="1" fill="#E48C28" />
<rect x="33" y="34" width="1" height="1" fill="#E48C28" />
<rect x="34" y="34" width="1" height="1" fill="#E48C28" />
<rect x="35" y="34" width="1" height="1" fill="#E48C28" />
<rect x="36" y="34" width="1" height="1" fill="#E48C28" />
<rect x="37" y="34" width="1" height="1" fill="#E48C28" />
<rect x="38" y="34" width="1" height="1" fill="#E48C28" />
<rect x="39" y="34" width="1" height="1" fill="#E48C28" />
<rect x="40" y="34" width="1" height="1" fill="#E48C28" />
<rect x="41" y="34" width="1" height="1" fill="#B9521D" />
<rect x="42" y="34" width="1" height="1" fill="#B9521D" />
<rect x="43" y="34" width="1" height="1" fill="#B9521D" />
<rect x="20" y="35" width="1" height="1" fill="#EFFF00" />
<rect x="21" y="35" width="1" height="1" fill="#EFFF00" />
<rect x="22" y="35" width="1" height="1" fill="#B9521D" />
<rect x="23" y="35" width="1" height="1" fill="#B9521D" />
<rect x="24" y="35" width="1" height="1" fill="#B9521D" />
<rect x="25" y="35" width="1" height="1" fill="#E48C28" />
<rect x="26" y="35" width="1" height="1" fill="#E48C28" />
<rect x="27" y="35" width="1" height="1" fill="#E48C28" />
<rect x="28" y="35" width="1" height="1" fill="#E48C28" />
<rect x="29" y="35" width="1" height="1" fill="#E48C28" />
<rect x="30" y="35" width="1" height="1" fill="#E48C28" />
<rect x="31" y="35" width="1" height="1" fill="#E48C28" />
<rect x="32" y="35" width="1" height="1" fill="#E48C28" />
<rect x="33" y="35" width="1" height="1" fill="#E48C28" />
<rect x="34" y="35" width="1" height="1" fill="#E48C28" />
<rect x="35" y="35" width="1" height="1" fill="#E48C28" />
<rect x="36" y="35" width="1" height="1" fill="#E48C28" />
<rect x="37" y="35" width="1" height="1" fill="#E48C28" />
<rect x="38" y="35" width="1" height="1" fill="#E48C28" />
<rect x="39" y="35" width="1" height="1" fill="#E48C28" />
<rect x="40" y="35" width="1" height="1" fill="#E48C28" />
<rect x="41" y="35" width="1" height="1" fill="#B9521D" />
<rect x="42" y="35" width="1" height="1" fill="#B9521D" />
<rect x="43" y="35" width="1" height="1" fill="#B9521D" />
<rect x="15" y="36" width="1" height="1" fill="#EFFF00" />
<rect x="16" y="36" width="1" height="1" fill="#EFFF00" />
<rect x="18" y="36" width="1" height="1" fill="#EFFF00" />
<rect x="19" y="36" width="1" height="1" fill="#EFFF00" />
<rect x="20" y="36" width="1" height="1" fill="#EFFF00" />
<rect x="23" y="36" width="1" height="1" fill="#B9521D" />
<rect x="24" y="36" width="1" height="1" fill="#B9521D" />
<rect x="25" y="36" width="1" height="1" fill="#E48C28" />
<rect x="26" y="36" width="1" height="1" fill="#E48C28" />
<rect x="27" y="36" width="1" height="1" fill="#E48C28" />
<rect x="28" y="36" width="1" height="1" fill="#E48C28" />
<rect x="29" y="36" width="1" height="1" fill="#E48C28" />
<rect x="30" y="36" width="1" height="1" fill="#E48C28" />
<rect x="31" y="36" width="1" height="1" fill="#E48C28" />
<rect x="32" y="36" width="1" height="1" fill="#E48C28" />
<rect x="33" y="36" width="1" height="1" fill="#E48C28" />
<rect x="34" y="36" width="1" height="1" fill="#E48C28" />
<rect x="35" y="36" width="1" height="1" fill="#E48C28" />
<rect x="36" y="36" width="1" height="1" fill="#E48C28" />
<rect x="37" y="36" width="1" height="1" fill="#E48C28" />
<rect x="38" y="36" width="1" height="1" fill="#E48C28" />
<rect x="39" y="36" width="1" height="1" fill="#E48C28" />
<rect x="40" y="36" width="1" height="1" fill="#E48C28" />
<rect x="41" y="36" width="1" height="1" fill="#E48C28" />
<rect x="42" y="36" width="1" height="1" fill="#B9521D" />
<rect x="43" y="36" width="1" height="1" fill="#B9521D" />
<rect x="44" y="36" width="1" height="1" fill="#B9521D" />
<rect x="13" y="37" width="1" height="1" fill="#EFFF00" />
<rect x="14" y="37" width="1" height="1" fill="#EFFF00" />
<rect x="15" y="37" width="1" height="1" fill="#EFFF00" />
<rect x="16" y="37" width="1" height="1" fill="#EFFF00" />
<rect x="17" y="37" width="1" height="1" fill="#EFFF00" />
<rect x="18" y="37" width="1" height="1" fill="#EFFF00" />
<rect x="24" y="37" width="1" height="1" fill="#B9521D" />
<rect x="25" y="37" width="1" height="1" fill="#B9521D" />
<rect x="26" y="37" width="1" height="1" fill="#B9521D" />
<rect x="27" y="37" width="1" height="1" fill="#B9521D" />
<rect x="28" y="37" width="1" height="1" fill="#E48C28" />
<rect x="29" y="37" width="1" height="1" fill="#E48C28" />
<rect x="30" y="37" width="1" height="1" fill="#E48C28" />
<rect x="31" y="37" width="1" height="1" fill="#E48C28" />
<rect x="32" y="37" width="1" height="1" fill="#E48C28" />
<rect x="33" y="37" width="1" height="1" fill="#E48C28" />
<rect x="34" y="37" width="1" height="1" fill="#E48C28" />
<rect x="35" y="37" width="1" height="1" fill="#E48C28" />
<rect x="36" y="37" width="1" height="1" fill="#E48C28" />
<rect x="37" y="37" width="1" height="1" fill="#B9521D" />
<rect x="38" y="37" width="1" height="1" fill="#B9521D" />
<rect x="39" y="37" width="1" height="1" fill="#E48C28" />
<rect x="40" y="37" width="1" height="1" fill="#E48C28" />
<rect x="41" y="37" width="1" height="1" fill="#E48C28" />
<rect x="42" y="37" width="1" height="1" fill="#B9521D" />
<rect x="43" y="37" width="1" height="1" fill="#B9521D" />
<rect x="44" y="37" width="1" height="1" fill="#B9521D" />
<rect x="45" y="37" width="1" height="1" fill="#B9521D" />
<rect x="24" y="38" width="1" height="1" fill="#B9521D" />
<rect x="25" y="38" width="1" height="1" fill="#B9521D" />
<rect x="26" y="38" width="1" height="1" fill="#B9521D" />
<rect x="27" y="38" width="1" height="1" fill="#B9521D" />
<rect x="28" y="38" width="1" height="1" fill="#B9521D" />
<rect x="29" y="38" width="1" height="1" fill="#E48C28" />
<rect x="30" y="38" width="1" height="1" fill="#E48C28" />
<rect x="31" y="38" width="1" height="1" fill="#E48C28" />
<rect x="32" y="38" width="1" height="1" fill="#E48C28" />
<rect x="33" y="38" width="1" height="1" fill="#E48C28" />
<rect x="34" y="38" width="1" height="1" fill="#E48C28" />
<rect x="35" y="38" width="1" height="1" fill="#E48C28" />
<rect x="36" y="38" width="1" height="1" fill="#B9521D" />
<rect x="37" y="38" width="1" height="1" fill="#B9521D" />
<rect x="38" y="38" width="1" height="1" fill="#B9521D" />
<rect x="39" y="38" width="1" height="1" fill="#E48C28" />
<rect x="40" y="38" width="1" height="1" fill="#B9521D" />
<rect x="41" y="38" width="1" height="1" fill="#B9521D" />
<rect x="42" y="38" width="1" height="1" fill="#B9521D" />
<rect x="43" y="38" width="1" height="1" fill="#B9521D" />
<rect x="44" y="38" width="1" height="1" fill="#B9521D" />
<rect x="45" y="38" width="1" height="1" fill="#B9521D" />
<rect x="21" y="39" width="1" height="1" fill="#EFFF00" />
<rect x="23" y="39" width="1" height="1" fill="#B9521D" />
<rect x="24" y="39" width="1" height="1" fill="#B9521D" />
<rect x="25" y="39" width="1" height="1" fill="#B9521D" />
<rect x="26" y="39" width="1" height="1" fill="#B9521D" />
<rect x="27" y="39" width="1" height="1" fill="#B9521D" />
<rect x="28" y="39" width="1" height="1" fill="#B9521D" />
<rect x="29" y="39" width="1" height="1" fill="#E48C28" />
<rect x="30" y="39" width="1" height="1" fill="#E48C28" />
<rect x="31" y="39" width="1" height="1" fill="#B9521D" />
<rect x="32" y="39" width="1" height="1" fill="#E48C28" />
<rect x="33" y="39" width="1" height="1" fill="#E48C28" />
<rect x="34" y="39" width="1" height="1" fill="#E48C28" />
<rect x="35" y="39" width="1" height="1" fill="#E48C28" />
<rect x="36" y="39" width="1" height="1" fill="#B9521D" />
<rect x="37" y="39" width="1" height="1" fill="#B9521D" />
<rect x="38" y="39" width="1" height="1" fill="#B9521D" />
<rect x="39" y="39" width="1" height="1" fill="#E48C28" />
<rect x="40" y="39" width="1" height="1" fill="#B9521D" />
<rect x="41" y="39" width="1" height="1" fill="#B9521D" />
<rect x="42" y="39" width="1" height="1" fill="#B9521D" />
<rect x="43" y="39" width="1" height="1" fill="#B9521D" />
<rect x="44" y="39" width="1" height="1" fill="#B9521D" />
<rect x="45" y="39" width="1" height="1" fill="#B9521D" />
<rect x="23" y="40" width="1" height="1" fill="#B9521D" />
<rect x="24" y="40" width="1" height="1" fill="#B9521D" />
<rect x="25" y="40" width="1" height="1" fill="#B9521D" />
<rect x="26" y="40" width="1" height="1" fill="#B9521D" />
<rect x="27" y="40" width="1" height="1" fill="#B9521D" />
<rect x="28" y="40" width="1" height="1" fill="#B9521D" />
<rect x="29" y="40" width="1" height="1" fill="#B9521D" />
<rect x="30" y="40" width="1" height="1" fill="#B9521D" />
<rect x="31" y="40" width="1" height="1" fill="#B9521D" />
<rect x="32" y="40" width="1" height="1" fill="#E48C28" />
<rect x="33" y="40" width="1" height="1" fill="#E48C28" />
<rect x="34" y="40" width="1" height="1" fill="#E48C28" />
<rect x="35" y="40" width="1" height="1" fill="#B9521D" />
<rect x="36" y="40" width="1" height="1" fill="#B9521D" />
<rect x="37" y="40" width="1" height="1" fill="#B9521D" />
<rect x="38" y="40" width="1" height="1" fill="#E48C28" />
<rect x="39" y="40" width="1" height="1" fill="#E48C28" />
<rect x="40" y="40" width="1" height="1" fill="#B9521D" />
<rect x="41" y="40" width="1" height="1" fill="#B9521D" />
<rect x="42" y="40" width="1" height="1" fill="#B9521D" />
<rect x="43" y="40" width="1" height="1" fill="#B9521D" />
<rect x="44" y="40" width="1" height="1" fill="#B9521D" />
<rect x="45" y="40" width="1" height="1" fill="#B9521D" />
<rect x="23" y="41" width="1" height="1" fill="#B9521D" />
<rect x="24" y="41" width="1" height="1" fill="#B9521D" />
<rect x="25" y="41" width="1" height="1" fill="#B9521D" />
<rect x="26" y="41" width="1" height="1" fill="#B9521D" />
<rect x="27" y="41" width="1" height="1" fill="#B9521D" />
<rect x="28" y="41" width="1" height="1" fill="#B9521D" />
<rect x="29" y="41" width="1" height="1" fill="#B9521D" />
<rect x="30" y="41" width="1" height="1" fill="#B9521D" />
<rect x="31" y="41" width="1" height="1" fill="#B9521D" />
<rect x="32" y="41" width="1" height="1" fill="#E48C28" />
<rect x="33" y="41" width="1" height="1" fill="#E48C28" />
<rect x="34" y="41" width="1" height="1" fill="#E48C28" />
<rect x="35" y="41" width="1" height="1" fill="#B9521D" />
<rect x="36" y="41" width="1" height="1" fill="#B9521D" />
<rect x="37" y="41" width="1" height="1" fill="#B9521D" />
<rect x="38" y="41" width="1" height="1" fill="#B9521D" />
<rect x="39" y="41" width="1" height="1" fill="#B9521D" />
<rect x="40" y="41" width="1" height="1" fill="#B9521D" />
<rect x="41" y="41" width="1" height="1" fill="#B9521D" />
<rect x="42" y="41" width="1" height="1" fill="#B9521D" />
<rect x="43" y="41" width="1" height="1" fill="#B9521D" />
<rect x="44" y="41" width="1" height="1" fill="#B9521D" />
<rect x="23" y="42" width="1" height="1" fill="#B9521D" />
<rect x="24" y="42" width="1" height="1" fill="#B9521D" />
<rect x="25" y="42" width="1" height="1" fill="#B9521D" />
<rect x="26" y="42" width="1" height="1" fill="#B9521D" />
<rect x="27" y="42" width="1" height="1" fill="#B9521D" />
<rect x="28" y="42" width="1" height="1" fill="#B9521D" />
<rect x="29" y="42" width="1" height="1" fill="#B9521D" />
<rect x="30" y="42" width="1" height="1" fill="#B9521D" />
<rect x="31" y="42" width="1" height="1" fill="#E48C28" />
<rect x="32" y="42" width="1" height="1" fill="#E48C28" />
<rect x="33" y="42" width="1" height="1" fill="#B9521D" />
<rect x="34" y="42" width="1" height="1" fill="#B9521D" />
<rect x="35" y="42" width="1" height="1" fill="#B9521D" />
<rect x="36" y="42" width="1" height="1" fill="#B9521D" />
<rect x="37" y="42" width="1" height="1" fill="#B9521D" />
<rect x="38" y="42" width="1" height="1" fill="#B9521D" />
<rect x="39" y="42" width="1" height="1" fill="#B9521D" />
<rect x="24" y="43" width="1" height="1" fill="#B9521D" />
<rect x="25" y="43" width="1" height="1" fill="#B9521D" />
<rect x="26" y="43" width="1" height="1" fill="#B9521D" />
<rect x="27" y="43" width="1" height="1" fill="#B9521D" />
<rect x="28" y="43" width="1" height="1" fill="#B9521D" />
<rect x="29" y="43" width="1" height="1" fill="#B9521D" />
<rect x="30" y="43" width="1" height="1" fill="#B9521D" />
<rect x="31" y="43" width="1" height="1" fill="#B9521D" />
<rect x="32" y="43" width="1" height="1" fill="#B9521D" />
<rect x="33" y="43" width="1" height="1" fill="#B9521D" />
<rect x="34" y="43" width="1" height="1" fill="#B9521D" />
<rect x="35" y="43" width="1" height="1" fill="#B9521D" />
<rect x="36" y="43" width="1" height="1" fill="#B9521D" />
<rect x="37" y="43" width="1" height="1" fill="#B9521D" />
<rect x="38" y="43" width="1" height="1" fill="#B9521D" />
<rect x="25" y="44" width="1" height="1" fill="#B9521D" />
<rect x="28" y="44" width="1" height="1" fill="#B9521D" />
<rect x="29" y="44" width="1" height="1" fill="#B9521D" />
<rect x="30" y="44" width="1" height="1" fill="#B9521D" />
<rect x="31" y="44" width="1" height="1" fill="#B9521D" />
<rect x="32" y="44" width="1" height="1" fill="#B9521D" />
<rect x="33" y="44" width="1" height="1" fill="#B9521D" />
<rect x="34" y="44" width="1" height="1" fill="#B9521D" />
<rect x="35" y="44" width="1" height="1" fill="#B9521D" />
<rect x="36" y="44" width="1" height="1" fill="#B9521D" />
<rect x="37" y="44" width="1" height="1" fill="#B9521D" />
<rect x="38" y="44" width="1" height="1" fill="#B9521D" />
<rect x="20" y="45" width="1" height="1" fill="#EFFF00" />
<rect x="21" y="45" width="1" height="1" fill="#EFFF00" />
<rect x="22" y="45" width="1" height="1" fill="#EFFF00" />
<rect x="25" y="45" width="1" height="1" fill="#B9521D" />
<rect x="30" y="45" width="1" height="1" fill="#EFFF00" />
<rect x="31" y="45" width="1" height="1" fill="#B9521D" />
<rect x="32" y="45" width="1" height="1" fill="#B9521D" />
<rect x="33" y="45" width="1" height="1" fill="#B9521D" />
<rect x="34" y="45" width="1" height="1" fill="#B9521D" />
<rect x="35" y="45" width="1" height="1" fill="#B9521D" />
<rect x="36" y="45" width="1" height="1" fill="#B9521D" />
<rect x="37" y="45" width="1" height="1" fill="#B9521D" />
<rect x="20" y="46" width="1" height="1" fill="#EFFF00" />
<rect x="21" y="46" width="1" height="1" fill="#EFFF00" />
<rect x="30" y="46" width="1" height="1" fill="#EFFF00" />
<rect x="20" y="47" width="1" height="1" fill="#EFFF00" />
<rect x="30" y="47" width="1" height="1" fill="#EFFF00" />
<rect x="42" y="47" width="1" height="1" fill="#EFFF00" />
<rect x="43" y="47" width="1" height="1" fill="#EFFF00" />
<rect x="44" y="47" width="1" height="1" fill="#EFFF00" />
</svg>