<?xml version="1.0" encoding="UTF-8" ?>
<svg version="1.1" width="64" height="64" xmlns="http://www.w3.org/2000/svg" shape-rendering="crispEdges">
<rect x="28" y="7" width="1" height="1" fill="#B9521D" />
<rect x="29" y="7" width="1" height="1" fill="#B9521D" />
<rect x="30" y="7" width="1" height="1" fill="#B9521D" />
<rect x="31" y="7" width="1" height="1" fill="#B9521D" />
<rect x="26" y="8" width="1" height="1" fill="#B9521D" />
<rect x="27" y="8" width="1" height="1" fill="#B9521D" />
<rect x="28" y="8" width="1" height="1" fill="#B9521D" />
<rect x="29" y="8" width="1" height="1" fill="#B9521D" />
<rect x="30" y="8" width="1" height="1" fill="#B9521D" />
<rect x="31" y="8" width="1" height="1" fill="#B9521D" />
<rect x="32" y="8" width="1" height="1" fill="#B9521D" />
<rect x="33" y="8" width="1" height="1" fill="#B9521D" />
<rect x="26" y="9" width="1" height="1" fill="#B9521D" />
<rect x="27" y="9" width="1" height="1" fill="#B9521D" />
<rect x="28" y="9" width="1" height="1" fill="#B9521D" />
<rect x="29" y="9" width="1" height="1" fill="#B9521D" />
<rect x="30" y="9" width="1" height="1" fill="#B9521D" />
<rect x="31" y="9" width="1" height="1" fill="#B9521D" />
<rect x="32" y="9" width="1" height="1" fill="#B9521D" />
<rect x="33" y="9" width="1" height="1" fill="#B9521D" />
<rect x="34" y="9" width="1" height="1" fill="#B9521D" />
<rect x="25" y="10" width="1" height="1" fill="#B9521D" />
<rect x="26" y="10" width="1" height="1" fill="#B9521D" />
<rect x="27" y="10" width="1" height="1" fill="#B9521D" />
<rect x="28" y="10" width="1" height="1" fill="#B9521D" />
<rect x="29" y="10" width="1" height="1" fill="#B9521D" />
<rect x="30" y="10" width="1" height="1" fill="#B9521D" />
<rect x="31" y="10" width="1" height="1" fill="#B9521D" />
<rect x="32" y="10" width="1" height="1" fill="#B9521D" />
<rect x="33" y="10" width="1" height="1" fill="#B9521D" />
<rect x="34" y="10" width="1" height="1" fill="#B9521D" />
<rect x="35" y="10" width="1" height="1" fill="#B9521D" />
<rect x="24" y="11" width="1" height="1" fill="#4B2509" />
<rect x="25" y="11" width="1" height="1" fill="#B9521D" />
<rect x="26" y="11" width="1" height="1" fill="#B9521D" />
<rect x="27" y="11" width="1" height="1" fill="#B9521D" />
<rect x="28" y="11" width="1" height="1" fill="#B9521D" />
<rect x="29" y="11" width="1" height="1" fill="#B9521D" />
<rect x="30" y="11" width="1" height="1" fill="#B9521D" />
<rect x="31" y="11" width="1" height="1" fill="#4B2509" />
<rect x="32" y="11" width="1" height="1" fill="#4B2509" />
<rect x="33" y="11" width="1" height="1" fill="#4B2509" />
<rect x="34" y="11" width="1" height="1" fill="#4B2509" />
<rect x="35" y="11" width="1" height="1" fill="#4B2509" />
<rect x="24" y="12" width="1" height="1" fill="#4B2509" />
<rect x="25" y="12" width="1" height="1" fill="#4B2509" />
<rect x="26" y="12" width="1" height="1" fill="#4B2509" />
<rect x="27" y="12" width="1" height="1" fill="#4B2509" />
<rect x="28" y="12" width="1" height="1" fill="#4B2509" />
<rect x="29" y="12" width="1" height="1" fill="#4B2509" />
<rect x="30" y="12" width="1" height="1" fill="#4B2509" />
<rect x="31" y="12" width="1" height="1" fill="#4B2509" />
<rect x="32" y="12" width="1" height="1" fill="#4B2509" />
<rect x="33" y="12" width="1" height="1" fill="#4B2509" />
<rect x="34" y="12" width="1" height="1" fill="#4B2509" />
<rect x="35" y="12" width="1" height="1" fill="#4B2509" />
<rect x="10" y="13" width="1" height="1" fill="#B9521D" />
<rect x="11" y="13" width="1" height="1" fill="#B9521D" />
<rect x="12" y="13" width="1" height="1" fill="#B9521D" />
<rect x="23" y="13" width="1" height="1" fill="#4B2509" />
<rect x="24" y="13" width="1" height="1" fill="#4B2509" />
<rect x="25" y="13" width="1" height="1" fill="#4B2509" />
<rect x="26" y="13" width="1" height="1" fill="#4B2509" />
<rect x="27" y="13" width="1" height="1" fill="#4B2509" />
<rect x="28" y="13" width="1" height="1" fill="#4B2509" />
<rect x="29" y="13" width="1" height="1" fill="#4B2509" />
<rect x="30" y="13" width="1" height="1" fill="#4B2509" />
<rect x="31" y="13" width="1" height="1" fill="#4B2509" />
<rect x="32" y="13" width="1" height="1" fill="#4B2509" />
<rect x="34" y="13" width="1" height="1" fill="#4B2509" />
<rect x="35" y="13" width="1" height="1" fill="#4B2509" />
<rect x="36" y="13" width="1" height="1" fill="#4B2509" />
<rect x="8" y="14" width="1" height="1" fill="#B9521D" />
<rect x="9" y="14" width="1" height="1" fill="#B9521D" />
<rect x="10" y="14" width="1" height="1" fill="#B9521D" />
<rect x="11" y="14" width="1" height="1" fill="#B9521D" />
<rect x="23" y="14" width="1" height="1" fill="#4B2509" />
<rect x="24" y="14" width="1" height="1" fill="#4B2509" />
<rect x="25" y="14" width="1" height="1" fill="#4B2509" />
<rect x="26" y="14" width="1" height="1" fill="#4B2509" />
<rect x="27" y="14" width="1" height="1" fill="#4B2509" />
<rect x="28" y="14" width="1" height="1" fill="#4B2509" />
<rect x="49" y="14" width="1" height="1" fill="#B9521D" />
<rect x="50" y="14" width="1" height="1" fill="#B9521D" />
<rect x="51" y="14" width="1" height="1" fill="#B9521D" />
<rect x="52" y="14" width="1" height="1" fill="#B9521D" />
<rect x="53" y="14" width="1" height="1" fill="#B9521D" />
<rect x="54" y="14" width="1" height="1" fill="#B9521D" />
<rect x="55" y="14" width="1" height="1" fill="#B9521D" />
<rect x="7" y="15" width="1" height="1" fill="#B9521D" />
<rect x="8" y="15" width="1" height="1" fill="#B9521D" />
<rect x="9" y="15" width="1" height="1" fill="#B9521D" />
<rect x="10" y="15" width="1" height="1" fill="#4B2509" />
<rect x="11" y="15" width="1" height="1" fill="#4B2509" />
<rect x="12" y="15" width="1" height="1" fill="#4B2509" />
<rect x="48" y="15" width="1" height="1" fill="#4B2509" />
<rect x="49" y="15" width="1" height="1" fill="#B9521D" />
<rect x="50" y="15" width="1" height="1" fill="#B9521D" />
<rect x="51" y="15" width="1" height="1" fill="#B9521D" />
<rect x="52" y="15" width="1" height="1" fill="#B9521D" />
<rect x="53" y="15" width="1" height="1" fill="#B9521D" />
<rect x="54" y="15" width="1" height="1" fill="#B9521D" />
<rect x="55" y="15" width="1" height="1" fill="#B9521D" />
<rect x="56" y="15" width="1" height="1" fill="#B9521D" />
<rect x="6" y="16" width="1" height="1" fill="#B9521D" />
<rect x="7" y="16" width="1" height="1" fill="#B9521D" />
<rect x="8" y="16" width="1" height="1" fill="#B9521D" />
<rect x="9" y="16" width="1" height="1" fill="#4B2509" />
<rect x="10" y="16" width="1" height="1" fill="#4B2509" />
<rect x="11" y="16" width="1" height="1" fill="#4B2509" />
<rect x="12" y="16" width="1" height="1" fill="#4B2509" />
<rect x="48" y="16" width="1" height="1" fill="#4B2509" />
<rect x="49" y="16" width="1" height="1" fill="#4B2509" />
<rect x="50" y="16" width="1" height="1" fill="#B9521D" />
<rect x="51" y="16" width="1" height="1" fill="#B9521D" />
<rect x="52" y="16" width="1" height="1" fill="#B9521D" />
<rect x="53" y="16" width="1" height="1" fill="#4B2509" />
<rect x="54" y="16" width="1" height="1" fill="#B9521D" />
<rect x="55" y="16" width="1" height="1" fill="#B9521D" />
<rect x="56" y="16" width="1" height="1" fill="#B9521D" />
<rect x="57" y="16" width="1" height="1" fill="#B9521D" />
<rect x="6" y="17" width="1" height="1" fill="#B9521D" />
<rect x="7" y="17" width="1" height="1" fill="#B9521D" />
<rect x="8" y="17" width="1" height="1" fill="#B9521D" />
<rect x="9" y="17" width="1" height="1" fill="#4B2509" />
<rect x="44" y="17" width="1" height="1" fill="#4B2509" />
<rect x="48" y="17" width="1" height="1" fill="#4B2509" />
<rect x="49" y="17" width="1" height="1" fill="#4B2509" />
<rect x="50" y="17" width="1" height="1" fill="#4B2509" />
<rect x="51" y="17" width="1" height="1" fill="#4B2509" />
<rect x="52" y="17" width="1" height="1" fill="#B9521D" />
<rect x="53" y="17" width="1" height="1" fill="#B9521D" />
<rect x="54" y="17" width="1" height="1" fill="#4B2509" />
<rect x="55" y="17" width="1" height="1" fill="#B9521D" />
<rect x="56" y="17" width="1" height="1" fill="#B9521D" />
<rect x="57" y="17" width="1" height="1" fill="#B9521D" />
<rect x="58" y="17" width="1" height="1" fill="#B9521D" />
<rect x="6" y="18" width="1" height="1" fill="#B9521D" />
<rect x="7" y="18" width="1" height="1" fill="#B9521D" />
<rect x="8" y="18" width="1" height="1" fill="#4B2509" />
<rect x="9" y="18" width="1" height="1" fill="#4B2509" />
<rect x="44" y="18" width="1" height="1" fill="#4B2509" />
<rect x="45" y="18" width="1" height="1" fill="#4B2509" />
<rect x="46" y="18" width="1" height="1" fill="#4B2509" />
<rect x="49" y="18" width="1" height="1" fill="#4B2509" />
<rect x="50" y="18" width="1" height="1" fill="#4B2509" />
<rect x="51" y="18" width="1" height="1" fill="#4B2509" />
<rect x="52" y="18" width="1" height="1" fill="#4B2509" />
<rect x="53" y="18" width="1" height="1" fill="#4B2509" />
<rect x="54" y="18" width="1" height="1" fill="#B9521D" />
<rect x="55" y="18" width="1" height="1" fill="#B9521D" />
<rect x="56" y="18" width="1" height="1" fill="#B9521D" />
<rect x="57" y="18" width="1" height="1" fill="#B9521D" />
<rect x="58" y="18" width="1" height="1" fill="#B9521D" />
<rect x="5" y="19" width="1" height="1" fill="#B9521D" />
<rect x="6" y="19" width="1" height="1" fill="#B9521D" />
<rect x="7" y="19" width="1" height="1" fill="#B9521D" />
<rect x="8" y="19" width="1" height="1" fill="#4B2509" />
<rect x="43" y="19" width="1" height="1" fill="#4B2509" />
<rect x="44" y="19" width="1" height="1" fill="#4B2509" />
<rect x="45" y="19" width="1" height="1" fill="#4B2509" />
<rect x="46" y="19" width="1" height="1" fill="#4B2509" />
<rect x="47" y="19" width="1" height="1" fill="#4B2509" />
<rect x="50" y="19" width="1" height="1" fill="#4B2509" />
<rect x="51" y="19" width="1" height="1" fill="#4B2509" />
<rect x="52" y="19" width="1" height="1" fill="#4B2509" />
<rect x="53" y="19" width="1" height="1" fill="#4B2509" />
<rect x="54" y="19" width="1" height="1" fill="#4B2509" />
<rect x="55" y="19" width="1" height="1" fill="#B9521D" />
<rect x="56" y="19" width="1" height="1" fill="#B9521D" />
<rect x="57" y="19" width="1" height="1" fill="#B9521D" />
<rect x="58" y="19" width="1" height="1" fill="#B9521D" />
<rect x="5" y="20" width="1" height="1" fill="#B9521D" />
<rect x="6" y="20" width="1" height="1" fill="#B9521D" />
<rect x="7" y="20" width="1" height="1" fill="#4B2509" />
<rect x="8" y="20" width="1" height="1" fill="#4B2509" />
<rect x="45" y="20" width="1" height="1" fill="#4B2509" />
<rect x="46" y="20" width="1" height="1" fill="#4B2509" />
<rect x="47" y="20" width="1" height="1" fill="#4B2509" />
<rect x="52" y="20" width="1" height="1" fill="#4B2509" />
<rect x="53" y="20" width="1" height="1" fill="#4B2509" />
<rect x="54" y="20" width="1" height="1" fill="#4B2509" />
<rect x="55" y="20" width="1" height="1" fill="#B9521D" />
<rect x="56" y="20" width="1" height="1" fill="#B9521D" />
<rect x="57" y="20" width="1" height="1" fill="#B9521D" />
<rect x="5" y="21" width="1" height="1" fill="#B9521D" />
<rect x="6" y="21" width="1" height="1" fill="#4B2509" />
<rect x="7" y="21" width="1" height="1" fill="#4B2509" />
<rect x="30" y="21" width="1" height="1" fill="#B9521D" />
<rect x="31" y="21" width="1" height="1" fill="#B9521D" />
<rect x="46" y="21" width="1" height="1" fill="#4B2509" />
<rect x="47" y="21" width="1" height="1" fill="#4B2509" />
<rect x="48" y="21" width="1" height="1" fill="#4B2509" />
<rect x="53" y="21" width="1" height="1" fill="#4B2509" />
<rect x="54" y="21" width="1" height="1" fill="#4B2509" />
<rect x="55" y="21" width="1" height="1" fill="#B9521D" />
<rect x="56" y="21" width="1" height="1" fill="#B9521D" />
<rect x="57" y="21" width="1" height="1" fill="#B9521D" />
<rect x="5" y="22" width="1" height="1" fill="#4B2509" />
<rect x="6" y="22" width="1" height="1" fill="#4B2509" />
<rect x="28" y="22" width="1" height="1" fill="#B9521D" />
<rect x="29" y="22" width="1" height="1" fill="#B9521D" />
<rect x="30" y="22" width="1" height="1" fill="#4B2509" />
<rect x="31" y="22" width="1" height="1" fill="#4B2509" />
<rect x="32" y="22" width="1" height="1" fill="#B9521D" />
<rect x="33" y="22" width="1" height="1" fill="#B9521D" />
<rect x="47" y="22" width="1" height="1" fill="#4B2509" />
<rect x="48" y="22" width="1" height="1" fill="#4B2509" />
<rect x="53" y="22" width="1" height="1" fill="#4B2509" />
<rect x="54" y="22" width="1" height="1" fill="#4B2509" />
<rect x="55" y="22" width="1" height="1" fill="#B9521D" />
<rect x="27" y="23" width="1" height="1" fill="#B9521D" />
<rect x="28" y="23" width="1" height="1" fill="#B9521D" />
<rect x="29" y="23" width="1" height="1" fill="#4B2509" />
<rect x="30" y="23" width="1" height="1" fill="#4B2509" />
<rect x="31" y="23" width="1" height="1" fill="#4B2509" />
<rect x="32" y="23" width="1" height="1" fill="#B9521D" />
<rect x="33" y="23" width="1" height="1" fill="#B9521D" />
<rect x="48" y="23" width="1" height="1" fill="#4B2509" />
<rect x="52" y="23" width="1" height="1" fill="#4B2509" />
<rect x="53" y="23" width="1" height="1" fill="#4B2509" />
<rect x="27" y="24" width="1" height="1" fill="#4B2509" />
<rect x="28" y="24" width="1" height="1" fill="#4B2509" />
<rect x="29" y="24" width="1" height="1" fill="#4B2509" />
<rect x="31" y="24" width="1" height="1" fill="#4B2509" />
<rect x="32" y="24" width="1" height="1" fill="#4B2509" />
<rect x="33" y="24" width="1" height="1" fill="#B9521D" />
<rect x="34" y="24" width="1" height="1" fill="#B9521D" />
<rect x="48" y="24" width="1" height="1" fill="#4B2509" />
<rect x="49" y="24" width="1" height="1" fill="#4B2509" />
<rect x="52" y="24" width="1" height="1" fill="#4B2509" />
<rect x="53" y="24" width="1" height="1" fill="#4B2509" />
<rect x="32" y="25" width="1" height="1" fill="#4B2509" />
<rect x="33" y="25" width="1" height="1" fill="#4B2509" />
<rect x="34" y="25" width="1" height="1" fill="#4B2509" />
<rect x="48" y="25" width="1" height="1" fill="#4B2509" />
<rect x="49" y="25" width="1" height="1" fill="#4B2509" />
<rect x="50" y="25" width="1" height="1" fill="#B9521D" />
<rect x="14" y="27" width="1" height="1" fill="#B9521D" />
<rect x="15" y="27" width="1" height="1" fill="#4B2509" />
<rect x="14" y="28" width="1" height="1" fill="#B9521D" />
<rect x="15" y="28" width="1" height="1" fill="#4B2509" />
<rect x="16" y="28" width="1" height="1" fill="#4B2509" />
<rect x="17" y="28" width="1" height="1" fill="#4B2509" />
<rect x="13" y="29" width="1" height="1" fill="#B9521D" />
<rect x="14" y="29" width="1" height="1" fill="#B9521D" />
<rect x="15" y="29" width="1" height="1" fill="#4B2509" />
<rect x="16" y="29" width="1" height="1" fill="#4B2509" />
<rect x="17" y="29" width="1" height="1" fill="#4B2509" />
<rect x="12" y="30" width="1" height="1" fill="#B9521D" />
<rect x="13" y="30" width="1" height="1" fill="#B9521D" />
<rect x="14" y="30" width="1" height="1" fill="#B9521D" />
<rect x="15" y="30" width="1" height="1" fill="#4B2509" />
<rect x="16" y="30" width="1" height="1" fill="#4B2509" />
<rect x="17" y="30" width="1" height="1" fill="#4B2509" />
<rect x="12" y="31" width="1" height="1" fill="#B9521D" />
<rect x="13" y="31" width="1" height="1" fill="#B9521D" />
<rect x="14" y="31" width="1" height="1" fill="#B9521D" />
<rect x="15" y="31" width="1" height="1" fill="#4B2509" />
<rect x="16" y="31" width="1" height="1" fill="#4B2509" />
<rect x="17" y="31" width="1" height="1" fill="#4B2509" />
<rect x="12" y="32" width="1" height="1" fill="#B9521D" />
<rect x="13" y="32" width="1" height="1" fill="#B9521D" />
<rect x="14" y="32" width="1" height="1" fill="#B9521D" />
<rect x="15" y="32" width="1" height="1" fill="#4B2509" />
<rect x="16" y="32" width="1" height="1" fill="#4B2509" />
<rect x="17" y="32" width="1" height="1" fill="#4B2509" />
<rect x="18" y="32" width="1" height="1" fill="#4B2509" />
<rect x="12" y="33" width="1" height="1" fill="#B9521D" />
<rect x="13" y="33" width="1" height="1" fill="#B9521D" />
<rect x="14" y="33" width="1" height="1" fill="#B9521D" />
<rect x="15" y="33" width="1" height="1" fill="#B9521D" />
<rect x="16" y="33" width="1" height="1" fill="#4B2509" />
<rect x="17" y="33" width="1" height="1" fill="#4B2509" />
<rect x="18" y="33" width="1" height="1" fill="#4B2509" />
<rect x="19" y="33" width="1" height="1" fill="#4B2509" />
<rect x="7" y="34" width="1" height="1" fill="#B9521D" />
<rect x="13" y="34" width="1" height="1" fill="#B9521D" />
<rect x="14" y="34" width="1" height="1" fill="#B9521D" />
<rect x="15" y="34" width="1" height="1" fill="#B9521D" />
<rect x="16" y="34" width="1" height="1" fill="#B9521D" />
<rect x="17" y="34" width="1" height="1" fill="#B9521D" />
<rect x="18" y="34" width="1" height="1" fill="#4B2509" />
<rect x="19" y="34" width="1" height="1" fill="#4B2509" />
<rect x="44" y="34" width="1" height="1" fill="#4B2509" />
<rect x="6" y="35" width="1" height="1" fill="#B9521D" />
<rect x="7" y="35" width="1" height="1" fill="#4B2509" />
<rect x="14" y="35" width="1" height="1" fill="#B9521D" />
<rect x="15" y="35" width="1" height="1" fill="#B9521D" />
<rect x="16" y="35" width="1" height="1" fill="#B9521D" />
<rect x="17" y="35" width="1" height="1" fill="#B9521D" />
<rect x="18" y="35" width="1" height="1" fill="#4B2509" />
<rect x="19" y="35" width="1" height="1" fill="#4B2509" />
<rect x="44" y="35" width="1" height="1" fill="#4B2509" />
<rect x="45" y="35" width="1" height="1" fill="#4B2509" />
<rect x="6" y="36" width="1" height="1" fill="#B9521D" />
<rect x="7" y="36" width="1" height="1" fill="#4B2509" />
<rect x="16" y="36" width="1" height="1" fill="#B9521D" />
<rect x="17" y="36" width="1" height="1" fill="#B9521D" />
<rect x="18" y="36" width="1" height="1" fill="#B9521D" />
<rect x="19" y="36" width="1" height="1" fill="#B9521D" />
<rect x="41" y="36" width="1" height="1" fill="#4B2509" />
<rect x="43" y="36" width="1" height="1" fill="#4B2509" />
<rect x="44" y="36" width="1" height="1" fill="#4B2509" />
<rect x="45" y="36" width="1" height="1" fill="#4B2509" />
<rect x="46" y="36" width="1" height="1" fill="#4B2509" />
<rect x="5" y="37" width="1" height="1" fill="#B9521D" />
<rect x="6" y="37" width="1" height="1" fill="#B9521D" />
<rect x="7" y="37" width="1" height="1" fill="#4B2509" />
<rect x="39" y="37" width="1" height="1" fill="#4B2509" />
<rect x="40" y="37" width="1" height="1" fill="#4B2509" />
<rect x="42" y="37" width="1" height="1" fill="#4B2509" />
<rect x="43" y="37" width="1" height="1" fill="#4B2509" />
<rect x="44" y="37" width="1" height="1" fill="#4B2509" />
<rect x="45" y="37" width="1" height="1" fill="#4B2509" />
<rect x="46" y="37" width="1" height="1" fill="#4B2509" />
<rect x="5" y="38" width="1" height="1" fill="#B9521D" />
<rect x="6" y="38" width="1" height="1" fill="#B9521D" />
<rect x="7" y="38" width="1" height="1" fill="#4B2509" />
<rect x="8" y="38" width="1" height="1" fill="#4B2509" />
<rect x="42" y="38" width="1" height="1" fill="#4B2509" />
<rect x="43" y="38" width="1" height="1" fill="#4B2509" />
<rect x="44" y="38" width="1" height="1" fill="#4B2509" />
<rect x="45" y="38" width="1" height="1" fill="#4B2509" />
<rect x="46" y="38" width="1" height="1" fill="#4B2509" />
<rect x="52" y="38" width="1" height="1" fill="#4B2509" />
<rect x="53" y="38" width="1" height="1" fill="#B9521D" />
<rect x="5" y="39" width="1" height="1" fill="#B9521D" />
<rect x="6" y="39" width="1" height="1" fill="#B9521D" />
<rect x="7" y="39" width="1" height="1" fill="#B9521D" />
<rect x="8" y="39" width="1" height="1" fill="#4B2509" />
<rect x="9" y="39" width="1" height="1" fill="#4B2509" />
<rect x="21" y="39" width="1" height="1" fill="#4B2509" />
<rect x="22" y="39" width="1" height="1" fill="#4B2509" />
<rect x="39" y="39" width="1" height="1" fill="#4B2509" />
<rect x="40" y="39" width="1" height="1" fill="#4B2509" />
<rect x="41" y="39" width="1" height="1" fill="#4B2509" />
<rect x="42" y="39" width="1" height="1" fill="#4B2509" />
<rect x="43" y="39" width="1" height="1" fill="#4B2509" />
<rect x="44" y="39" width="1" height="1" fill="#4B2509" />
<rect x="45" y="39" width="1" height="1" fill="#4B2509" />
<rect x="46" y="39" width="1" height="1" fill="#4B2509" />
<rect x="51" y="39" width="1" height="1" fill="#4B2509" />
<rect x="52" y="39" width="1" height="1" fill="#4B2509" />
<rect x="53" y="39" width="1" height="1" fill="#B9521D" />
<rect x="54" y="39" width="1" height="1" fill="#B9521D" />
<rect x="5" y="40" width="1" height="1" fill="#B9521D" />
<rect x="6" y="40" width="1" height="1" fill="#B9521D" />
<rect x="7" y="40" width="1" height="1" fill="#B9521D" />
<rect x="8" y="40" width="1" height="1" fill="#B9521D" />
<rect x="9" y="40" width="1" height="1" fill="#4B2509" />
<rect x="10" y="40" width="1" height="1" fill="#4B2509" />
<rect x="21" y="40" width="1" height="1" fill="#4B2509" />
<rect x="41" y="40" width="1" height="1" fill="#4B2509" />
<rect x="42" y="40" width="1" height="1" fill="#4B2509" />
<rect x="43" y="40" width="1" height="1" fill="#4B2509" />
<rect x="44" y="40" width="1" height="1" fill="#4B2509" />
<rect x="45" y="40" width="1" height="1" fill="#4B2509" />
<rect x="51" y="40" width="1" height="1" fill="#4B2509" />
<rect x="52" y="40" width="1" height="1" fill="#4B2509" />
<rect x="53" y="40" width="1" height="1" fill="#B9521D" />
<rect x="54" y="40" width="1" height="1" fill="#B9521D" />
<rect x="55" y="40" width="1" height="1" fill="#B9521D" />
<rect x="6" y="41" width="1" height="1" fill="#B9521D" />
<rect x="7" y="41" width="1" height="1" fill="#B9521D" />
<rect x="8" y="41" width="1" height="1" fill="#B9521D" />
<rect x="9" y="41" width="1" height="1" fill="#4B2509" />
<rect x="10" y="41" width="1" height="1" fill="#4B2509" />
<rect x="11" y="41" width="1" height="1" fill="#4B2509" />
<rect x="20" y="41" width="1" height="1" fill="#4B2509" />
<rect x="21" y="41" width="1" height="1" fill="#4B2509" />
<rect x="39" y="41" width="1" height="1" fill="#4B2509" />
<rect x="40" y="41" width="1" height="1" fill="#4B2509" />
<rect x="41" y="41" width="1" height="1" fill="#4B2509" />
<rect x="42" y="41" width="1" height="1" fill="#4B2509" />
<rect x="43" y="41" width="1" height="1" fill="#4B2509" />
<rect x="50" y="41" width="1" height="1" fill="#4B2509" />
<rect x="51" y="41" width="1" height="1" fill="#4B2509" />
<rect x="52" y="41" width="1" height="1" fill="#4B2509" />
<rect x="53" y="41" width="1" height="1" fill="#B9521D" />
<rect x="54" y="41" width="1" height="1" fill="#B9521D" />
<rect x="55" y="41" width="1" height="1" fill="#B9521D" />
<rect x="7" y="42" width="1" height="1" fill="#B9521D" />
<rect x="8" y="42" width="1" height="1" fill="#B9521D" />
<rect x="9" y="42" width="1" height="1" fill="#B9521D" />
<rect x="10" y="42" width="1" height="1" fill="#4B2509" />
<rect x="11" y="42" width="1" height="1" fill="#4B2509" />
<rect x="19" y="42" width="1" height="1" fill="#4B2509" />
<rect x="20" y="42" width="1" height="1" fill="#4B2509" />
<rect x="21" y="42" width="1" height="1" fill="#4B2509" />
<rect x="49" y="42" width="1" height="1" fill="#4B2509" />
<rect x="50" y="42" width="1" height="1" fill="#4B2509" />
<rect x="51" y="42" width="1" height="1" fill="#4B2509" />
<rect x="52" y="42" width="1" height="1" fill="#4B2509" />
<rect x="53" y="42" width="1" height="1" fill="#B9521D" />
<rect x="54" y="42" width="1" height="1" fill="#B9521D" />
<rect x="55" y="42" width="1" height="1" fill="#B9521D" />
<rect x="8" y="43" width="1" height="1" fill="#B9521D" />
<rect x="9" y="43" width="1" height="1" fill="#B9521D" />
<rect x="10" y="43" width="1" height="1" fill="#4B2509" />
<rect x="11" y="43" width="1" height="1" fill="#4B2509" />
<rect x="12" y="43" width="1" height="1" fill="#4B2509" />
<rect x="19" y="43" width="1" height="1" fill="#4B2509" />
<rect x="20" y="43" width="1" height="1" fill="#4B2509" />
<rect x="21" y="43" width="1" height="1" fill="#4B2509" />
<rect x="22" y="43" width="1" height="1" fill="#4B2509" />
<rect x="49" y="43" width="1" height="1" fill="#4B2509" />
<rect x="50" y="43" width="1" height="1" fill="#4B2509" />
<rect x="51" y="43" width="1" height="1" fill="#4B2509" />
<rect x="52" y="43" width="1" height="1" fill="#B9521D" />
<rect x="53" y="43" width="1" height="1" fill="#B9521D" />
<rect x="54" y="43" width="1" height="1" fill="#B9521D" />
<rect x="55" y="43" width="1" height="1" fill="#B9521D" />
<rect x="9" y="44" width="1" height="1" fill="#B9521D" />
<rect x="10" y="44" width="1" height="1" fill="#B9521D" />
<rect x="11" y="44" width="1" height="1" fill="#4B2509" />
<rect x="20" y="44" width="1" height="1" fill="#4B2509" />
<rect x="21" y="44" width="1" height="1" fill="#4B2509" />
<rect x="22" y="44" width="1" height="1" fill="#4B2509" />
<rect x="23" y="44" width="1" height="1" fill="#4B2509" />
<rect x="45" y="44" width="1" height="1" fill="#B9521D" />
<rect x="49" y="44" width="1" height="1" fill="#4B2509" />
<rect x="50" y="44" width="1" height="1" fill="#4B2509" />
<rect x="51" y="44" width="1" height="1" fill="#4B2509" />
<rect x="52" y="44" width="1" height="1" fill="#B9521D" />
<rect x="53" y="44" width="1" height="1" fill="#B9521D" />
<rect x="54" y="44" width="1" height="1" fill="#B9521D" />
<rect x="55" y="44" width="1" height="1" fill="#B9521D" />
<rect x="10" y="45" width="1" height="1" fill="#B9521D" />
<rect x="11" y="45" width="1" height="1" fill="#B9521D" />
<rect x="21" y="45" width="1" height="1" fill="#4B2509" />
<rect x="22" y="45" width="1" height="1" fill="#4B2509" />
<rect x="23" y="45" width="1" height="1" fill="#4B2509" />
<rect x="24" y="45" width="1" height="1" fill="#4B2509" />
<rect x="49" y="45" width="1" height="1" fill="#4B2509" />
<rect x="50" y="45" width="1" height="1" fill="#4B2509" />
<rect x="51" y="45" width="1" height="1" fill="#4B2509" />
<rect x="52" y="45" width="1" height="1" fill="#B9521D" />
<rect x="53" y="45" width="1" height="1" fill="#B9521D" />
<rect x="54" y="45" width="1" height="1" fill="#B9521D" />
<rect x="55" y="45" width="1" height="1" fill="#B9521D" />
<rect x="21" y="46" width="1" height="1" fill="#4B2509" />
<rect x="22" y="46" width="1" height="1" fill="#4B2509" />
<rect x="23" y="46" width="1" height="1" fill="#4B2509" />
<rect x="24" y="46" width="1" height="1" fill="#4B2509" />
<rect x="25" y="46" width="1" height="1" fill="#4B2509" />
<rect x="42" y="46" width="1" height="1" fill="#4B2509" />
<rect x="47" y="46" width="1" height="1" fill="#4B2509" />
<rect x="48" y="46" width="1" height="1" fill="#4B2509" />
<rect x="49" y="46" width="1" height="1" fill="#4B2509" />
<rect x="50" y="46" width="1" height="1" fill="#B9521D" />
<rect x="51" y="46" width="1" height="1" fill="#B9521D" />
<rect x="52" y="46" width="1" height="1" fill="#B9521D" />
<rect x="53" y="46" width="1" height="1" fill="#B9521D" />
<rect x="54" y="46" width="1" height="1" fill="#B9521D" />
<rect x="23" y="47" width="1" height="1" fill="#4B2509" />
<rect x="24" y="47" width="1" height="1" fill="#4B2509" />
<rect x="25" y="47" width="1" height="1" fill="#4B2509" />
<rect x="41" y="47" width="1" height="1" fill="#4B2509" />
<rect x="42" y="47" width="1" height="1" fill="#4B2509" />
<rect x="43" y="47" width="1" height="1" fill="#B9521D" />
<rect x="49" y="47" width="1" height="1" fill="#B9521D" />
<rect x="50" y="47" width="1" height="1" fill="#B9521D" />
<rect x="51" y="47" width="1" height="1" fill="#B9521D" />
<rect x="52" y="47" width="1" height="1" fill="#B9521D" />
<rect x="40" y="48" width="1" height="1" fill="#4B2509" />
<rect x="41" y="48" width="1" height="1" fill="#4B2509" />
<rect x="42" y="48" width="1" height="1" fill="#B9521D" />
<rect x="43" y="48" width="1" height="1" fill="#B9521D" />
<rect x="50" y="48" width="1" height="1" fill="#B9521D" />
<rect x="21" y="49" width="1" height="1" fill="#4B2509" />
<rect x="22" y="49" width="1" height="1" fill="#4B2509" />
<rect x="24" y="49" width="1" height="1" fill="#4B2509" />
<rect x="39" y="49" width="1" height="1" fill="#4B2509" />
<rect x="40" y="49" width="1" height="1" fill="#4B2509" />
<rect x="41" y="49" width="1" height="1" fill="#4B2509" />
<rect x="42" y="49" width="1" height="1" fill="#B9521D" />
<rect x="21" y="50" width="1" height="1" fill="#4B2509" />
<rect x="22" y="50" width="1" height="1" fill="#4B2509" />
<rect x="23" y="50" width="1" height="1" fill="#4B2509" />
<rect x="24" y="50" width="1" height="1" fill="#4B2509" />
<rect x="38" y="50" width="1" height="1" fill="#4B2509" />
<rect x="39" y="50" width="1" height="1" fill="#4B2509" />
<rect x="40" y="50" width="1" height="1" fill="#4B2509" />
<rect x="41" y="50" width="1" height="1" fill="#B9521D" />
<rect x="42" y="50" width="1" height="1" fill="#B9521D" />
<rect x="22" y="51" width="1" height="1" fill="#4B2509" />
<rect x="23" y="51" width="1" height="1" fill="#4B2509" />
<rect x="24" y="51" width="1" height="1" fill="#4B2509" />
<rect x="25" y="51" width="1" height="1" fill="#4B2509" />
<rect x="26" y="51" width="1" height="1" fill="#B9521D" />
<rect x="36" y="51" width="1" height="1" fill="#4B2509" />
<rect x="37" y="51" width="1" height="1" fill="#4B2509" />
<rect x="38" y="51" width="1" height="1" fill="#4B2509" />
<rect x="39" y="51" width="1" height="1" fill="#4B2509" />
<rect x="40" y="51" width="1" height="1" fill="#B9521D" />
<rect x="41" y="51" width="1" height="1" fill="#B9521D" />
<rect x="42" y="51" width="1" height="1" fill="#B9521D" />
<rect x="22" y="52" width="1" height="1" fill="#B9521D" />
<rect x="23" y="52" width="1" height="1" fill="#4B2509" />
<rect x="24" y="52" width="1" height="1" fill="#4B2509" />
<rect x="25" y="52" width="1" height="1" fill="#4B2509" />
<rect x="26" y="52" width="1" height="1" fill="#4B2509" />
<rect x="27" y="52" width="1" height="1" fill="#B9521D" />
<rect x="35" y="52" width="1" height="1" fill="#4B2509" />
<rect x="36" y="52" width="1" height="1" fill="#4B2509" />
<rect x="37" y="52" width="1" height="1" fill="#4B2509" />
<rect x="38" y="52" width="1" height="1" fill="#4B2509" />
<rect x="39" y="52" width="1" height="1" fill="#4B2509" />
<rect x="40" y="52" width="1" height="1" fill="#B9521D" />
<rect x="41" y="52" width="1" height="1" fill="#B9521D" />
<rect x="42" y="52" width="1" height="1" fill="#B9521D" />
<rect x="22" y="53" width="1" height="1" fill="#B9521D" />
<rect x="23" y="53" width="1" height="1" fill="#B9521D" />
<rect x="24" y="53" width="1" height="1" fill="#B9521D" />
<rect x="25" y="53" width="1" height="1" fill="#B9521D" />
<rect x="26" y="53" width="1" height="1" fill="#4B2509" />
<rect x="27" y="53" width="1" height="1" fill="#4B2509" />
<rect x="35" y="53" width="1" height="1" fill="#4B2509" />
<rect x="36" y="53" width="1" height="1" fill="#B9521D" />
<rect x="37" y="53" width="1" height="1" fill="#B9521D" />
<rect x="38" y="53" width="1" height="1" fill="#B9521D" />
<rect x="39" y="53" width="1" height="1" fill="#B9521D" />
<rect x="40" y="53" width="1" height="1" fill="#B9521D" />
<rect x="41" y="53" width="1" height="1" fill="#B9521D" />
<rect x="23" y="54" width="1" height="1" fill="#B9521D" />
<rect x="24" y="54" width="1" height="1" fill="#B9521D" />
<rect x="25" y="54" width="1" height="1" fill="#B9521D" />
<rect x="26" y="54" width="1" height="1" fill="#B9521D" />
<rect x="27" y="54" width="1" height="1" fill="#B9521D" />
<rect x="28" y="54" width="1" height="1" fill="#B9521D" />
<rect x="29" y="54" width="1" height="1" fill="#B9521D" />
<rect x="36" y="54" width="1" height="1" fill="#B9521D" />
<rect x="37" y="54" width="1" height="1" fill="#B9521D" />
<rect x="38" y="54" width="1" height="1" fill="#B9521D" />
<rect x="39" y="54" width="1" height="1" fill="#B9521D" />
<rect x="40" y="54" width="1" height="1" fill="#B9521D" />
<rect x="25" y="55" width="1" height="1" fill="#B9521D" />
<rect x="26" y="55" width="1" height="1" fill="#B9521D" />
<rect x="27" y="55" width="1" height="1" fill="#B9521D" />
<rect x="28" y="55" width="1" height="1" fill="#B9521D" />
<rect x="29" y="55" width="1" height="1" fill="#B9521D" />
<rect x="29" y="56" width="1" height="1" fill="#B9521D" />
</svg>