<?xml version="1.0" encoding="UTF-8" ?>
<svg version="1.1" width="64" height="64" xmlns="http://www.w3.org/2000/svg" shape-rendering="crispEdges">
<rect x="29" y="1" width="1" height="1" fill="#4B2509" />
<rect x="30" y="1" width="1" height="1" fill="#4B2509" />
<rect x="31" y="1" width="1" height="1" fill="#4B2509" />
<rect x="32" y="1" width="1" height="1" fill="#4B2509" />
<rect x="27" y="2" width="1" height="1" fill="#4B2509" />
<rect x="28" y="2" width="1" height="1" fill="#4B2509" />
<rect x="29" y="2" width="1" height="1" fill="#4B2509" />
<rect x="30" y="2" width="1" height="1" fill="#4B2509" />
<rect x="31" y="2" width="1" height="1" fill="#4B2509" />
<rect x="32" y="2" width="1" height="1" fill="#4B2509" />
<rect x="33" y="2" width="1" height="1" fill="#4B2509" />
<rect x="34" y="2" width="1" height="1" fill="#4B2509" />
<rect x="27" y="3" width="1" height="1" fill="#4B2509" />
<rect x="28" y="3" width="1" height="1" fill="#4B2509" />
<rect x="32" y="3" width="1" height="1" fill="#4B2509" />
<rect x="11" y="7" width="1" height="1" fill="#4B2509" />
<rect x="12" y="7" width="1" height="1" fill="#4B2509" />
<rect x="13" y="7" width="1" height="1" fill="#4B2509" />
<rect x="14" y="7" width="1" height="1" fill="#4B2509" />
<rect x="9" y="8" width="1" height="1" fill="#4B2509" />
<rect x="10" y="8" width="1" height="1" fill="#4B2509" />
<rect x="11" y="8" width="1" height="1" fill="#4B2509" />
<rect x="12" y="8" width="1" height="1" fill="#4B2509" />
<rect x="13" y="8" width="1" height="1" fill="#4B2509" />
<rect x="14" y="8" width="1" height="1" fill="#4B2509" />
<rect x="15" y="8" width="1" height="1" fill="#4B2509" />
<rect x="53" y="8" width="1" height="1" fill="#4B2509" />
<rect x="54" y="8" width="1" height="1" fill="#4B2509" />
<rect x="55" y="8" width="1" height="1" fill="#4B2509" />
<rect x="56" y="8" width="1" height="1" fill="#4B2509" />
<rect x="8" y="9" width="1" height="1" fill="#4B2509" />
<rect x="9" y="9" width="1" height="1" fill="#4B2509" />
<rect x="10" y="9" width="1" height="1" fill="#4B2509" />
<rect x="11" y="9" width="1" height="1" fill="#4B2509" />
<rect x="55" y="9" width="1" height="1" fill="#4B2509" />
<rect x="56" y="9" width="1" height="1" fill="#4B2509" />
<rect x="57" y="9" width="1" height="1" fill="#4B2509" />
<rect x="7" y="10" width="1" height="1" fill="#4B2509" />
<rect x="8" y="10" width="1" height="1" fill="#4B2509" />
<rect x="9" y="10" width="1" height="1" fill="#4B2509" />
<rect x="56" y="10" width="1" height="1" fill="#4B2509" />
<rect x="57" y="10" width="1" height="1" fill="#4B2509" />
<rect x="58" y="10" width="1" height="1" fill="#4B2509" />
<rect x="7" y="11" width="1" height="1" fill="#4B2509" />
<rect x="57" y="11" width="1" height="1" fill="#4B2509" />
<rect x="58" y="11" width="1" height="1" fill="#4B2509" />
<rect x="59" y="11" width="1" height="1" fill="#4B2509" />
<rect x="57" y="12" width="1" height="1" fill="#4B2509" />
<rect x="58" y="12" width="1" height="1" fill="#4B2509" />
<rect x="59" y="12" width="1" height="1" fill="#4B2509" />
<rect x="30" y="13" width="1" height="1" fill="#B9521D" />
<rect x="31" y="13" width="1" height="1" fill="#B9521D" />
<rect x="32" y="13" width="1" height="1" fill="#B9521D" />
<rect x="33" y="13" width="1" height="1" fill="#B9521D" />
<rect x="57" y="13" width="1" height="1" fill="#4B2509" />
<rect x="58" y="13" width="1" height="1" fill="#4B2509" />
<rect x="59" y="13" width="1" height="1" fill="#4B2509" />
<rect x="34" y="14" width="1" height="1" fill="#B9521D" />
<rect x="58" y="14" width="1" height="1" fill="#4B2509" />
<rect x="58" y="15" width="1" height="1" fill="#4B2509" />
<rect x="15" y="21" width="1" height="1" fill="#4B2509" />
<rect x="15" y="22" width="1" height="1" fill="#4B2509" />
<rect x="16" y="22" width="1" height="1" fill="#4B2509" />
<rect x="17" y="22" width="1" height="1" fill="#4B2509" />
<rect x="14" y="23" width="1" height="1" fill="#4B2509" />
<rect x="15" y="23" width="1" height="1" fill="#4B2509" />
<rect x="16" y="23" width="1" height="1" fill="#4B2509" />
<rect x="13" y="24" width="1" height="1" fill="#4B2509" />
<rect x="14" y="24" width="1" height="1" fill="#4B2509" />
<rect x="15" y="24" width="1" height="1" fill="#4B2509" />
<rect x="13" y="25" width="1" height="1" fill="#4B2509" />
<rect x="14" y="25" width="1" height="1" fill="#4B2509" />
<rect x="43" y="25" width="1" height="1" fill="#4B2509" />
<rect x="44" y="25" width="1" height="1" fill="#4B2509" />
<rect x="13" y="26" width="1" height="1" fill="#4B2509" />
<rect x="43" y="26" width="1" height="1" fill="#4B2509" />
<rect x="44" y="26" width="1" height="1" fill="#4B2509" />
<rect x="45" y="26" width="1" height="1" fill="#4B2509" />
<rect x="9" y="27" width="1" height="1" fill="#B9521D" />
<rect x="10" y="27" width="1" height="1" fill="#B9521D" />
<rect x="13" y="27" width="1" height="1" fill="#4B2509" />
<rect x="44" y="27" width="1" height="1" fill="#4B2509" />
<rect x="45" y="27" width="1" height="1" fill="#4B2509" />
<rect x="8" y="28" width="1" height="1" fill="#B9521D" />
<rect x="9" y="28" width="1" height="1" fill="#B9521D" />
<rect x="10" y="28" width="1" height="1" fill="#4B2509" />
<rect x="37" y="28" width="1" height="1" fill="#4B2509" />
<rect x="38" y="28" width="1" height="1" fill="#4B2509" />
<rect x="44" y="28" width="1" height="1" fill="#4B2509" />
<rect x="45" y="28" width="1" height="1" fill="#4B2509" />
<rect x="46" y="28" width="1" height="1" fill="#4B2509" />
<rect x="53" y="28" width="1" height="1" fill="#4B2509" />
<rect x="54" y="28" width="1" height="1" fill="#4B2509" />
<rect x="7" y="29" width="1" height="1" fill="#B9521D" />
<rect x="8" y="29" width="1" height="1" fill="#B9521D" />
<rect x="9" y="29" width="1" height="1" fill="#4B2509" />
<rect x="37" y="29" width="1" height="1" fill="#4B2509" />
<rect x="45" y="29" width="1" height="1" fill="#4B2509" />
<rect x="46" y="29" width="1" height="1" fill="#4B2509" />
<rect x="52" y="29" width="1" height="1" fill="#4B2509" />
<rect x="53" y="29" width="1" height="1" fill="#4B2509" />
<rect x="54" y="29" width="1" height="1" fill="#4B2509" />
<rect x="55" y="29" width="1" height="1" fill="#4B2509" />
<rect x="7" y="30" width="1" height="1" fill="#B9521D" />
<rect x="8" y="30" width="1" height="1" fill="#4B2509" />
<rect x="36" y="30" width="1" height="1" fill="#4B2509" />
<rect x="37" y="30" width="1" height="1" fill="#4B2509" />
<rect x="46" y="30" width="1" height="1" fill="#4B2509" />
<rect x="47" y="30" width="1" height="1" fill="#4B2509" />
<rect x="52" y="30" width="1" height="1" fill="#4B2509" />
<rect x="53" y="30" width="1" height="1" fill="#4B2509" />
<rect x="54" y="30" width="1" height="1" fill="#4B2509" />
<rect x="55" y="30" width="1" height="1" fill="#4B2509" />
<rect x="6" y="31" width="1" height="1" fill="#B9521D" />
<rect x="7" y="31" width="1" height="1" fill="#B9521D" />
<rect x="8" y="31" width="1" height="1" fill="#4B2509" />
<rect x="47" y="31" width="1" height="1" fill="#4B2509" />
<rect x="52" y="31" width="1" height="1" fill="#4B2509" />
<rect x="53" y="31" width="1" height="1" fill="#4B2509" />
<rect x="54" y="31" width="1" height="1" fill="#4B2509" />
<rect x="55" y="31" width="1" height="1" fill="#4B2509" />
<rect x="6" y="32" width="1" height="1" fill="#B9521D" />
<rect x="7" y="32" width="1" height="1" fill="#4B2509" />
<rect x="47" y="32" width="1" height="1" fill="#4B2509" />
<rect x="54" y="32" width="1" height="1" fill="#4B2509" />
<rect x="55" y="32" width="1" height="1" fill="#4B2509" />
<rect x="6" y="33" width="1" height="1" fill="#B9521D" />
<rect x="7" y="33" width="1" height="1" fill="#4B2509" />
<rect x="22" y="33" width="1" height="1" fill="#4B2509" />
<rect x="23" y="33" width="1" height="1" fill="#4B2509" />
<rect x="47" y="33" width="1" height="1" fill="#4B2509" />
<rect x="55" y="33" width="1" height="1" fill="#4B2509" />
<rect x="56" y="33" width="1" height="1" fill="#4B2509" />
<rect x="6" y="34" width="1" height="1" fill="#B9521D" />
<rect x="22" y="34" width="1" height="1" fill="#4B2509" />
<rect x="56" y="34" width="1" height="1" fill="#4B2509" />
<rect x="57" y="34" width="1" height="1" fill="#4B2509" />
<rect x="21" y="35" width="1" height="1" fill="#4B2509" />
<rect x="56" y="35" width="1" height="1" fill="#4B2509" />
<rect x="57" y="35" width="1" height="1" fill="#4B2509" />
<rect x="20" y="36" width="1" height="1" fill="#4B2509" />
<rect x="55" y="36" width="1" height="1" fill="#4B2509" />
<rect x="57" y="36" width="1" height="1" fill="#4B2509" />
<rect x="20" y="37" width="1" height="1" fill="#4B2509" />
<rect x="24" y="41" width="1" height="1" fill="#4B2509" />
<rect x="25" y="41" width="1" height="1" fill="#4B2509" />
<rect x="26" y="41" width="1" height="1" fill="#4B2509" />
<rect x="40" y="41" width="1" height="1" fill="#B9521D" />
<rect x="25" y="42" width="1" height="1" fill="#4B2509" />
<rect x="26" y="42" width="1" height="1" fill="#4B2509" />
<rect x="39" y="42" width="1" height="1" fill="#B9521D" />
<rect x="40" y="42" width="1" height="1" fill="#B9521D" />
<rect x="42" y="42" width="1" height="1" fill="#B9521D" />
<rect x="26" y="43" width="1" height="1" fill="#4B2509" />
<rect x="38" y="43" width="1" height="1" fill="#B9521D" />
<rect x="39" y="43" width="1" height="1" fill="#4B2509" />
<rect x="40" y="43" width="1" height="1" fill="#B9521D" />
<rect x="26" y="44" width="1" height="1" fill="#4B2509" />
<rect x="38" y="44" width="1" height="1" fill="#4B2509" />
<rect x="27" y="45" width="1" height="1" fill="#B9521D" />
<rect x="37" y="45" width="1" height="1" fill="#4B2509" />
<rect x="27" y="46" width="1" height="1" fill="#B9521D" />
<rect x="28" y="46" width="1" height="1" fill="#4B2509" />
<rect x="36" y="46" width="1" height="1" fill="#4B2509" />
<rect x="28" y="47" width="1" height="1" fill="#B9521D" />
<rect x="36" y="47" width="1" height="1" fill="#4B2509" />
<rect x="28" y="48" width="1" height="1" fill="#B9521D" />
</svg>