<?xml version="1.0" encoding="UTF-8" ?>
<svg version="1.1" width="50" height="37" xmlns="http://www.w3.org/2000/svg" shape-rendering="crispEdges">
<rect x="22" y="7" width="1" height="1" fill="#C9957F" />
<rect x="23" y="7" width="1" height="1" fill="#C9957F" />
<rect x="24" y="7" width="1" height="1" fill="#C9957F" />
<rect x="25" y="7" width="1" height="1" fill="#C9957F" />
<rect x="22" y="8" width="1" height="1" fill="#704634" />
<rect x="23" y="8" width="1" height="1" fill="#AB765E" />
<rect x="24" y="8" width="1" height="1" fill="#AB765E" />
<rect x="25" y="8" width="1" height="1" fill="#9E6451" />
<rect x="26" y="8" width="1" height="1" fill="#C9957F" />
<rect x="27" y="8" width="1" height="1" fill="#C9957F" />
<rect x="16" y="9" width="1" height="1" fill="#52401E" />
<rect x="21" y="9" width="1" height="1" fill="#704634" />
<rect x="22" y="9" width="1" height="1" fill="#9E6451" />
<rect x="23" y="9" width="1" height="1" fill="#704634" />
<rect x="24" y="9" width="1" height="1" fill="#AB765E" />
<rect x="25" y="9" width="1" height="1" fill="#AB765E" />
<rect x="26" y="9" width="1" height="1" fill="#9E6451" />
<rect x="27" y="9" width="1" height="1" fill="#AB765E" />
<rect x="28" y="9" width="1" height="1" fill="#AB765E" />
<rect x="16" y="10" width="1" height="1" fill="#695B27" />
<rect x="17" y="10" width="1" height="1" fill="#52401E" />
<rect x="21" y="10" width="1" height="1" fill="#9E6451" />
<rect x="22" y="10" width="1" height="1" fill="#9E6451" />
<rect x="23" y="10" width="1" height="1" fill="#9E6451" />
<rect x="24" y="10" width="1" height="1" fill="#9E6451" />
<rect x="25" y="10" width="1" height="1" fill="#AB765E" />
<rect x="26" y="10" width="1" height="1" fill="#9E6451" />
<rect x="27" y="10" width="1" height="1" fill="#9E6451" />
<rect x="28" y="10" width="1" height="1" fill="#AB765E" />
<rect x="17" y="11" width="1" height="1" fill="#695B27" />
<rect x="18" y="11" width="1" height="1" fill="#52401E" />
<rect x="21" y="11" width="1" height="1" fill="#704634" />
<rect x="22" y="11" width="1" height="1" fill="#9E6451" />
<rect x="23" y="11" width="1" height="1" fill="#9E6451" />
<rect x="24" y="11" width="1" height="1" fill="#704634" />
<rect x="25" y="11" width="1" height="1" fill="#704634" />
<rect x="26" y="11" width="1" height="1" fill="#9E6451" />
<rect x="27" y="11" width="1" height="1" fill="#704634" />
<rect x="28" y="11" width="1" height="1" fill="#AB765E" />
<rect x="18" y="12" width="1" height="1" fill="#52401E" />
<rect x="19" y="12" width="1" height="1" fill="#B39932" />
<rect x="20" y="12" width="1" height="1" fill="#B39932" />
<rect x="22" y="12" width="1" height="1" fill="#704634" />
<rect x="23" y="12" width="1" height="1" fill="#AB765E" />
<rect x="24" y="12" width="1" height="1" fill="#D6EBFF" />
<rect x="25" y="12" width="1" height="1" fill="#368899" />
<rect x="26" y="12" width="1" height="1" fill="#D9A066" />
<rect x="27" y="12" width="1" height="1" fill="#368899" />
<rect x="28" y="12" width="1" height="1" fill="#704634" />
<rect x="18" y="13" width="1" height="1" fill="#EBC659" />
<rect x="19" y="13" width="1" height="1" fill="#B39932" />
<rect x="20" y="13" width="1" height="1" fill="#A5AEEA" />
<rect x="21" y="13" width="1" height="1" fill="#AD3B3B" />
<rect x="22" y="13" width="1" height="1" fill="#704634" />
<rect x="23" y="13" width="1" height="1" fill="#704634" />
<rect x="24" y="13" width="1" height="1" fill="#EEC39A" />
<rect x="25" y="13" width="1" height="1" fill="#EEC39A" />
<rect x="26" y="13" width="1" height="1" fill="#EEC39A" />
<rect x="27" y="13" width="1" height="1" fill="#EEC39A" />
<rect x="18" y="14" width="1" height="1" fill="#EBC659" />
<rect x="19" y="14" width="1" height="1" fill="#85909F" />
<rect x="20" y="14" width="1" height="1" fill="#A5AEEA" />
<rect x="21" y="14" width="1" height="1" fill="#AB4343" />
<rect x="22" y="14" width="1" height="1" fill="#8F3232" />
<rect x="23" y="14" width="1" height="1" fill="#AB4343" />
<rect x="24" y="14" width="1" height="1" fill="#AB4343" />
<rect x="25" y="14" width="1" height="1" fill="#D9A066" />
<rect x="26" y="14" width="1" height="1" fill="#D9A066" />
<rect x="27" y="14" width="1" height="1" fill="#AB4343" />
<rect x="28" y="14" width="1" height="1" fill="#D95763" />
<rect x="19" y="15" width="1" height="1" fill="#D95763" />
<rect x="20" y="15" width="1" height="1" fill="#AB4343" />
<rect x="21" y="15" width="1" height="1" fill="#8F3232" />
<rect x="22" y="15" width="1" height="1" fill="#8F3232" />
<rect x="23" y="15" width="1" height="1" fill="#D95763" />
<rect x="24" y="15" width="1" height="1" fill="#D95763" />
<rect x="25" y="15" width="1" height="1" fill="#AB4343" />
<rect x="26" y="15" width="1" height="1" fill="#AB4343" />
<rect x="27" y="15" width="1" height="1" fill="#AB4343" />
<rect x="28" y="15" width="1" height="1" fill="#D95763" />
<rect x="18" y="16" width="1" height="1" fill="#D95763" />
<rect x="19" y="16" width="1" height="1" fill="#AB4343" />
<rect x="20" y="16" width="1" height="1" fill="#847E87" />
<rect x="21" y="16" width="1" height="1" fill="#6B6970" />
<rect x="22" y="16" width="1" height="1" fill="#AB4343" />
<rect x="23" y="16" width="1" height="1" fill="#8F3232" />
<rect x="24" y="16" width="1" height="1" fill="#8F3232" />
<rect x="25" y="16" width="1" height="1" fill="#D95763" />
<rect x="26" y="16" width="1" height="1" fill="#D95763" />
<rect x="27" y="16" width="1" height="1" fill="#D95763" />
<rect x="28" y="16" width="1" height="1" fill="#8F3232" />
<rect x="29" y="16" width="1" height="1" fill="#847E87" />
<rect x="17" y="17" width="1" height="1" fill="#D95763" />
<rect x="18" y="17" width="1" height="1" fill="#8F3232" />
<rect x="19" y="17" width="1" height="1" fill="#847E87" />
<rect x="20" y="17" width="1" height="1" fill="#847E87" />
<rect x="21" y="17" width="1" height="1" fill="#6B6970" />
<rect x="22" y="17" width="1" height="1" fill="#AB4343" />
<rect x="23" y="17" width="1" height="1" fill="#AB4343" />
<rect x="24" y="17" width="1" height="1" fill="#AB4343" />
<rect x="25" y="17" width="1" height="1" fill="#8F3232" />
<rect x="26" y="17" width="1" height="1" fill="#8F3232" />
<rect x="27" y="17" width="1" height="1" fill="#8F3232" />
<rect x="28" y="17" width="1" height="1" fill="#AD3B3B" />
<rect x="29" y="17" width="1" height="1" fill="#847E87" />
<rect x="30" y="17" width="1" height="1" fill="#847E87" />
<rect x="17" y="18" width="1" height="1" fill="#D95763" />
<rect x="18" y="18" width="1" height="1" fill="#8F3232" />
<rect x="19" y="18" width="1" height="1" fill="#847E87" />
<rect x="20" y="18" width="1" height="1" fill="#847E87" />
<rect x="21" y="18" width="1" height="1" fill="#595652" />
<rect x="22" y="18" width="1" height="1" fill="#8F3232" />
<rect x="23" y="18" width="1" height="1" fill="#CBDBFC" />
<rect x="24" y="18" width="1" height="1" fill="#AB4343" />
<rect x="25" y="18" width="1" height="1" fill="#AB4343" />
<rect x="26" y="18" width="1" height="1" fill="#AB4343" />
<rect x="27" y="18" width="1" height="1" fill="#AB4343" />
<rect x="28" y="18" width="1" height="1" fill="#CBDBFC" />
<rect x="29" y="18" width="1" height="1" fill="#6B6970" />
<rect x="30" y="18" width="1" height="1" fill="#847E87" />
<rect x="16" y="19" width="1" height="1" fill="#D95763" />
<rect x="17" y="19" width="1" height="1" fill="#8F3232" />
<rect x="18" y="19" width="1" height="1" fill="#847E87" />
<rect x="19" y="19" width="1" height="1" fill="#847E87" />
<rect x="20" y="19" width="1" height="1" fill="#595652" />
<rect x="21" y="19" width="1" height="1" fill="#8F3232" />
<rect x="22" y="19" width="1" height="1" fill="#9BADB7" />
<rect x="23" y="19" width="1" height="1" fill="#9BADB7" />
<rect x="24" y="19" width="1" height="1" fill="#804D36" />
<rect x="25" y="19" width="1" height="1" fill="#555459" />
<rect x="26" y="19" width="1" height="1" fill="#555459" />
<rect x="27" y="19" width="1" height="1" fill="#9BADB7" />
<rect x="28" y="19" width="1" height="1" fill="#9BADB7" />
<rect x="29" y="19" width="1" height="1" fill="#595652" />
<rect x="30" y="19" width="1" height="1" fill="#6B6970" />
<rect x="15" y="20" width="1" height="1" fill="#D95763" />
<rect x="16" y="20" width="1" height="1" fill="#AB4343" />
<rect x="17" y="20" width="1" height="1" fill="#8F3232" />
<rect x="18" y="20" width="1" height="1" fill="#6B6970" />
<rect x="19" y="20" width="1" height="1" fill="#6B6970" />
<rect x="20" y="20" width="1" height="1" fill="#595652" />
<rect x="21" y="20" width="1" height="1" fill="#804D36" />
<rect x="22" y="20" width="1" height="1" fill="#8F563B" />
<rect x="23" y="20" width="1" height="1" fill="#8F563B" />
<rect x="24" y="20" width="1" height="1" fill="#804D36" />
<rect x="25" y="20" width="1" height="1" fill="#555459" />
<rect x="26" y="20" width="1" height="1" fill="#555459" />
<rect x="27" y="20" width="1" height="1" fill="#804D36" />
<rect x="28" y="20" width="1" height="1" fill="#8F563B" />
<rect x="29" y="20" width="1" height="1" fill="#595652" />
<rect x="30" y="20" width="1" height="1" fill="#CBDBFC" />
<rect x="15" y="21" width="1" height="1" fill="#AB4343" />
<rect x="16" y="21" width="1" height="1" fill="#8F3232" />
<rect x="17" y="21" width="1" height="1" fill="#CBDBFC" />
<rect x="18" y="21" width="1" height="1" fill="#CBDBFC" />
<rect x="19" y="21" width="1" height="1" fill="#9BADB7" />
<rect x="21" y="21" width="1" height="1" fill="#804D36" />
<rect x="22" y="21" width="1" height="1" fill="#804D36" />
<rect x="23" y="21" width="1" height="1" fill="#8F563B" />
<rect x="24" y="21" width="1" height="1" fill="#804D36" />
<rect x="25" y="21" width="1" height="1" fill="#6B6970" />
<rect x="26" y="21" width="1" height="1" fill="#6B6970" />
<rect x="27" y="21" width="1" height="1" fill="#804D36" />
<rect x="28" y="21" width="1" height="1" fill="#8F563B" />
<rect x="29" y="21" width="1" height="1" fill="#9BADB7" />
<rect x="30" y="21" width="1" height="1" fill="#CBDBFC" />
<rect x="31" y="21" width="1" height="1" fill="#CBDBFC" />
<rect x="15" y="22" width="1" height="1" fill="#AB4343" />
<rect x="16" y="22" width="1" height="1" fill="#8F3232" />
<rect x="17" y="22" width="1" height="1" fill="#CBDBFC" />
<rect x="18" y="22" width="1" height="1" fill="#CBDBFC" />
<rect x="19" y="22" width="1" height="1" fill="#9BADB7" />
<rect x="21" y="22" width="1" height="1" fill="#804D36" />
<rect x="22" y="22" width="1" height="1" fill="#804D36" />
<rect x="23" y="22" width="1" height="1" fill="#804D36" />
<rect x="24" y="22" width="1" height="1" fill="#555459" />
<rect x="25" y="22" width="1" height="1" fill="#847E87" />
<rect x="26" y="22" width="1" height="1" fill="#6B6970" />
<rect x="27" y="22" width="1" height="1" fill="#804D36" />
<rect x="28" y="22" width="1" height="1" fill="#8F563B" />
<rect x="29" y="22" width="1" height="1" fill="#9BADB7" />
<rect x="30" y="22" width="1" height="1" fill="#CBDBFC" />
<rect x="31" y="22" width="1" height="1" fill="#CBDBFC" />
<rect x="32" y="22" width="1" height="1" fill="#CBDBFC" />
<rect x="14" y="23" width="1" height="1" fill="#AB4343" />
<rect x="15" y="23" width="1" height="1" fill="#AB4343" />
<rect x="16" y="23" width="1" height="1" fill="#8F3232" />
<rect x="17" y="23" width="1" height="1" fill="#CBDBFC" />
<rect x="18" y="23" width="1" height="1" fill="#CBDBFC" />
<rect x="19" y="23" width="1" height="1" fill="#9BADB7" />
<rect x="21" y="23" width="1" height="1" fill="#804D36" />
<rect x="22" y="23" width="1" height="1" fill="#804D36" />
<rect x="23" y="23" width="1" height="1" fill="#555459" />
<rect x="24" y="23" width="1" height="1" fill="#847E87" />
<rect x="25" y="23" width="1" height="1" fill="#847E87" />
<rect x="26" y="23" width="1" height="1" fill="#847E87" />
<rect x="27" y="23" width="1" height="1" fill="#555459" />
<rect x="28" y="23" width="1" height="1" fill="#85909F" />
<rect x="29" y="23" width="1" height="1" fill="#A5AEEA" />
<rect x="30" y="23" width="1" height="1" fill="#9BADB7" />
<rect x="31" y="23" width="1" height="1" fill="#CBDBFC" />
<rect x="32" y="23" width="1" height="1" fill="#CBDBFC" />
<rect x="14" y="24" width="1" height="1" fill="#AB4343" />
<rect x="15" y="24" width="1" height="1" fill="#8F3232" />
<rect x="16" y="24" width="1" height="1" fill="#8F3232" />
<rect x="17" y="24" width="1" height="1" fill="#CBDBFC" />
<rect x="18" y="24" width="1" height="1" fill="#9BADB7" />
<rect x="19" y="24" width="1" height="1" fill="#9BADB7" />
<rect x="21" y="24" width="1" height="1" fill="#8F563B" />
<rect x="22" y="24" width="1" height="1" fill="#8F563B" />
<rect x="23" y="24" width="1" height="1" fill="#555459" />
<rect x="24" y="24" width="1" height="1" fill="#6B6970" />
<rect x="25" y="24" width="1" height="1" fill="#6B6970" />
<rect x="26" y="24" width="1" height="1" fill="#6B6970" />
<rect x="27" y="24" width="1" height="1" fill="#6B6970" />
<rect x="28" y="24" width="1" height="1" fill="#804D36" />
<rect x="29" y="24" width="1" height="1" fill="#85909F" />
<rect x="30" y="24" width="1" height="1" fill="#9BADB7" />
<rect x="31" y="24" width="1" height="1" fill="#9BADB7" />
<rect x="32" y="24" width="1" height="1" fill="#CBDBFC" />
<rect x="14" y="25" width="1" height="1" fill="#AB4343" />
<rect x="15" y="25" width="1" height="1" fill="#8F3232" />
<rect x="16" y="25" width="1" height="1" fill="#8F3232" />
<rect x="17" y="25" width="1" height="1" fill="#9BADB7" />
<rect x="18" y="25" width="1" height="1" fill="#9BADB7" />
<rect x="19" y="25" width="1" height="1" fill="#595652" />
<rect x="21" y="25" width="1" height="1" fill="#804D36" />
<rect x="22" y="25" width="1" height="1" fill="#804D36" />
<rect x="23" y="25" width="1" height="1" fill="#804D36" />
<rect x="24" y="25" width="1" height="1" fill="#8F563B" />
<rect x="25" y="25" width="1" height="1" fill="#8F563B" />
<rect x="26" y="25" width="1" height="1" fill="#8F563B" />
<rect x="27" y="25" width="1" height="1" fill="#804D36" />
<rect x="28" y="25" width="1" height="1" fill="#804D36" />
<rect x="30" y="25" width="1" height="1" fill="#595652" />
<rect x="31" y="25" width="1" height="1" fill="#595652" />
<rect x="32" y="25" width="1" height="1" fill="#595652" />
<rect x="15" y="26" width="1" height="1" fill="#8F3232" />
<rect x="16" y="26" width="1" height="1" fill="#8F3232" />
<rect x="17" y="26" width="1" height="1" fill="#847E87" />
<rect x="18" y="26" width="1" height="1" fill="#6B6970" />
<rect x="19" y="26" width="1" height="1" fill="#595652" />
<rect x="21" y="26" width="1" height="1" fill="#804D36" />
<rect x="22" y="26" width="1" height="1" fill="#2D3835" />
<rect x="23" y="26" width="1" height="1" fill="#2D3835" />
<rect x="24" y="26" width="1" height="1" fill="#2D3835" />
<rect x="25" y="26" width="1" height="1" fill="#2D3835" />
<rect x="26" y="26" width="1" height="1" fill="#2D3835" />
<rect x="27" y="26" width="1" height="1" fill="#2D3835" />
<rect x="28" y="26" width="1" height="1" fill="#804D36" />
<rect x="31" y="26" width="1" height="1" fill="#595652" />
<rect x="32" y="26" width="1" height="1" fill="#595652" />
<rect x="21" y="27" width="1" height="1" fill="#2D3835" />
<rect x="22" y="27" width="1" height="1" fill="#3A4542" />
<rect x="23" y="27" width="1" height="1" fill="#2D3835" />
<rect x="24" y="27" width="1" height="1" fill="#2D3835" />
<rect x="25" y="27" width="1" height="1" fill="#2D3835" />
<rect x="26" y="27" width="1" height="1" fill="#2D3835" />
<rect x="27" y="27" width="1" height="1" fill="#3A4542" />
<rect x="28" y="27" width="1" height="1" fill="#2D3835" />
<rect x="21" y="28" width="1" height="1" fill="#3A4542" />
<rect x="22" y="28" width="1" height="1" fill="#3A4542" />
<rect x="23" y="28" width="1" height="1" fill="#2D3835" />
<rect x="26" y="28" width="1" height="1" fill="#2D3835" />
<rect x="27" y="28" width="1" height="1" fill="#3A4542" />
<rect x="28" y="28" width="1" height="1" fill="#3A4542" />
<rect x="21" y="29" width="1" height="1" fill="#3A4542" />
<rect x="22" y="29" width="1" height="1" fill="#3A4542" />
<rect x="23" y="29" width="1" height="1" fill="#2D3835" />
<rect x="26" y="29" width="1" height="1" fill="#2D3835" />
<rect x="27" y="29" width="1" height="1" fill="#3A4542" />
<rect x="28" y="29" width="1" height="1" fill="#3A4542" />
<rect x="21" y="30" width="1" height="1" fill="#804D36" />
<rect x="22" y="30" width="1" height="1" fill="#61412B" />
<rect x="27" y="30" width="1" height="1" fill="#2D3835" />
<rect x="28" y="30" width="1" height="1" fill="#804D36" />
<rect x="20" y="31" width="1" height="1" fill="#804D36" />
<rect x="21" y="31" width="1" height="1" fill="#8F5E47" />
<rect x="22" y="31" width="1" height="1" fill="#61412B" />
<rect x="27" y="31" width="1" height="1" fill="#61412B" />
<rect x="28" y="31" width="1" height="1" fill="#804D36" />
<rect x="29" y="31" width="1" height="1" fill="#804D36" />
<rect x="20" y="32" width="1" height="1" fill="#8F5E47" />
<rect x="21" y="32" width="1" height="1" fill="#8F5E47" />
<rect x="22" y="32" width="1" height="1" fill="#8F5E47" />
<rect x="27" y="32" width="1" height="1" fill="#61412B" />
<rect x="28" y="32" width="1" height="1" fill="#804D36" />
<rect x="29" y="32" width="1" height="1" fill="#804D36" />
<rect x="20" y="33" width="1" height="1" fill="#8F5E47" />
<rect x="21" y="33" width="1" height="1" fill="#8F5E47" />
<rect x="28" y="33" width="1" height="1" fill="#61412B" />
<rect x="29" y="33" width="1" height="1" fill="#804D36" />
<rect x="20" y="34" width="1" height="1" fill="#8F5E47" />
<rect x="21" y="34" width="1" height="1" fill="#804D36" />
<rect x="28" y="34" width="1" height="1" fill="#61412B" />
<rect x="29" y="34" width="1" height="1" fill="#804D36" />
<rect x="20" y="35" width="1" height="1" fill="#804D36" />
<rect x="21" y="35" width="1" height="1" fill="#61412B" />
<rect x="28" y="35" width="1" height="1" fill="#61412B" />
<rect x="29" y="35" width="1" height="1" fill="#61412B" />
<rect x="30" y="35" width="1" height="1" fill="#804D36" />
</svg>