<?xml version="1.0" encoding="UTF-8" ?>
<svg version="1.1" width="50" height="50" xmlns="http://www.w3.org/2000/svg" shape-rendering="crispEdges">
<rect x="23" y="11" width="1" height="1" fill="#41424A" />
<rect x="21" y="12" width="1" height="1" fill="#41424A" />
<rect x="22" y="12" width="1" height="1" fill="#41424A" />
<rect x="30" y="12" width="1" height="1" fill="#53732C" />
<rect x="15" y="13" width="1" height="1" fill="#53732C" />
<rect x="20" y="13" width="1" height="1" fill="#41424A" />
<rect x="26" y="13" width="1" height="1" fill="#53732C" />
<rect x="27" y="13" width="1" height="1" fill="#2B3B18" />
<rect x="28" y="13" width="1" height="1" fill="#2B3B18" />
<rect x="29" y="13" width="1" height="1" fill="#2B3B18" />
<rect x="30" y="13" width="1" height="1" fill="#53732C" />
<rect x="15" y="14" width="1" height="1" fill="#53732C" />
<rect x="19" y="14" width="1" height="1" fill="#2B3B18" />
<rect x="21" y="14" width="1" height="1" fill="#41424A" />
<rect x="22" y="14" width="1" height="1" fill="#41424A" />
<rect x="23" y="14" width="1" height="1" fill="#53732C" />
<rect x="24" y="14" width="1" height="1" fill="#41424A" />
<rect x="26" y="14" width="1" height="1" fill="#2B3B18" />
<rect x="27" y="14" width="1" height="1" fill="#2B3B18" />
<rect x="28" y="14" width="1" height="1" fill="#2B3B18" />
<rect x="29" y="14" width="1" height="1" fill="#2B3B18" />
<rect x="31" y="14" width="1" height="1" fill="#2B3B18" />
<rect x="16" y="15" width="1" height="1" fill="#53732C" />
<rect x="18" y="15" width="1" height="1" fill="#53732C" />
<rect x="21" y="15" width="1" height="1" fill="#41424A" />
<rect x="22" y="15" width="1" height="1" fill="#41424A" />
<rect x="23" y="15" width="1" height="1" fill="#53732C" />
<rect x="24" y="15" width="1" height="1" fill="#53732C" />
<rect x="26" y="15" width="1" height="1" fill="#53732C" />
<rect x="27" y="15" width="1" height="1" fill="#2B3B18" />
<rect x="28" y="15" width="1" height="1" fill="#2B3B18" />
<rect x="29" y="15" width="1" height="1" fill="#2B3B18" />
<rect x="30" y="15" width="1" height="1" fill="#2B3B18" />
<rect x="19" y="16" width="1" height="1" fill="#53732C" />
<rect x="20" y="16" width="1" height="1" fill="#2B3B18" />
<rect x="21" y="16" width="1" height="1" fill="#53732C" />
<rect x="22" y="16" width="1" height="1" fill="#53732C" />
<rect x="23" y="16" width="1" height="1" fill="#53732C" />
<rect x="24" y="16" width="1" height="1" fill="#53732C" />
<rect x="25" y="16" width="1" height="1" fill="#2B3B18" />
<rect x="26" y="16" width="1" height="1" fill="#53732C" />
<rect x="27" y="16" width="1" height="1" fill="#2B3B18" />
<rect x="28" y="16" width="1" height="1" fill="#2B3B18" />
<rect x="32" y="16" width="1" height="1" fill="#2B3B18" />
<rect x="19" y="17" width="1" height="1" fill="#2B3B18" />
<rect x="20" y="17" width="1" height="1" fill="#53732C" />
<rect x="21" y="17" width="1" height="1" fill="#53732C" />
<rect x="22" y="17" width="1" height="1" fill="#53732C" />
<rect x="23" y="17" width="1" height="1" fill="#53732C" />
<rect x="24" y="17" width="1" height="1" fill="#53732C" />
<rect x="25" y="17" width="1" height="1" fill="#53732C" />
<rect x="26" y="17" width="1" height="1" fill="#2B3B18" />
<rect x="27" y="17" width="1" height="1" fill="#2B3B18" />
<rect x="14" y="18" width="1" height="1" fill="#2B3B18" />
<rect x="16" y="18" width="1" height="1" fill="#ECFF00" />
<rect x="17" y="18" width="1" height="1" fill="#2B3B18" />
<rect x="18" y="18" width="1" height="1" fill="#ECFF00" />
<rect x="19" y="18" width="1" height="1" fill="#53732C" />
<rect x="20" y="18" width="1" height="1" fill="#ECFF00" />
<rect x="21" y="18" width="1" height="1" fill="#53732C" />
<rect x="22" y="18" width="1" height="1" fill="#53732C" />
<rect x="23" y="18" width="1" height="1" fill="#2B3B18" />
<rect x="24" y="18" width="1" height="1" fill="#2B3B18" />
<rect x="25" y="18" width="1" height="1" fill="#2B3B18" />
<rect x="26" y="18" width="1" height="1" fill="#53732C" />
<rect x="29" y="18" width="1" height="1" fill="#2B3B18" />
<rect x="30" y="18" width="1" height="1" fill="#2B3B18" />
<rect x="14" y="19" width="1" height="1" fill="#2B3B18" />
<rect x="15" y="19" width="1" height="1" fill="#2B3B18" />
<rect x="16" y="19" width="1" height="1" fill="#2B3B18" />
<rect x="17" y="19" width="1" height="1" fill="#ECFF00" />
<rect x="18" y="19" width="1" height="1" fill="#2B3B18" />
<rect x="20" y="19" width="1" height="1" fill="#53732C" />
<rect x="21" y="19" width="1" height="1" fill="#2B3B18" />
<rect x="22" y="19" width="1" height="1" fill="#2B3B18" />
<rect x="23" y="19" width="1" height="1" fill="#2B3B18" />
<rect x="24" y="19" width="1" height="1" fill="#2B3B18" />
<rect x="17" y="20" width="1" height="1" fill="#2B3B18" />
<rect x="19" y="20" width="1" height="1" fill="#53732C" />
<rect x="20" y="20" width="1" height="1" fill="#2B3B18" />
<rect x="21" y="20" width="1" height="1" fill="#2B3B18" />
<rect x="22" y="20" width="1" height="1" fill="#2B3B18" />
<rect x="23" y="20" width="1" height="1" fill="#2B3B18" />
<rect x="24" y="20" width="1" height="1" fill="#2B3B18" />
<rect x="25" y="20" width="1" height="1" fill="#2B3B18" />
<rect x="18" y="21" width="1" height="1" fill="#53732C" />
<rect x="19" y="21" width="1" height="1" fill="#53732C" />
<rect x="20" y="21" width="1" height="1" fill="#53732C" />
<rect x="21" y="21" width="1" height="1" fill="#2B3B18" />
<rect x="22" y="21" width="1" height="1" fill="#2B3B18" />
<rect x="23" y="21" width="1" height="1" fill="#1D290E" />
<rect x="24" y="21" width="1" height="1" fill="#1D290E" />
<rect x="25" y="21" width="1" height="1" fill="#2B3B18" />
<rect x="26" y="21" width="1" height="1" fill="#884931" />
<rect x="27" y="21" width="1" height="1" fill="#884931" />
<rect x="28" y="21" width="1" height="1" fill="#884931" />
<rect x="29" y="21" width="1" height="1" fill="#884931" />
<rect x="18" y="22" width="1" height="1" fill="#53732C" />
<rect x="20" y="22" width="1" height="1" fill="#2B3B18" />
<rect x="21" y="22" width="1" height="1" fill="#2B3B18" />
<rect x="22" y="22" width="1" height="1" fill="#1D290E" />
<rect x="23" y="22" width="1" height="1" fill="#2B3B18" />
<rect x="24" y="22" width="1" height="1" fill="#2B3B18" />
<rect x="25" y="22" width="1" height="1" fill="#884931" />
<rect x="26" y="22" width="1" height="1" fill="#884931" />
<rect x="27" y="22" width="1" height="1" fill="#884931" />
<rect x="28" y="22" width="1" height="1" fill="#2B3B18" />
<rect x="29" y="22" width="1" height="1" fill="#2B3B18" />
<rect x="30" y="22" width="1" height="1" fill="#53732C" />
<rect x="31" y="22" width="1" height="1" fill="#53732C" />
<rect x="32" y="22" width="1" height="1" fill="#53732C" />
<rect x="33" y="22" width="1" height="1" fill="#53732C" />
<rect x="34" y="22" width="1" height="1" fill="#53732C" />
<rect x="18" y="23" width="1" height="1" fill="#53732C" />
<rect x="20" y="23" width="1" height="1" fill="#53732C" />
<rect x="21" y="23" width="1" height="1" fill="#2B3B18" />
<rect x="22" y="23" width="1" height="1" fill="#C9DBB4" />
<rect x="23" y="23" width="1" height="1" fill="#C9DBB4" />
<rect x="24" y="23" width="1" height="1" fill="#1D290E" />
<rect x="25" y="23" width="1" height="1" fill="#884931" />
<rect x="26" y="23" width="1" height="1" fill="#6A331E" />
<rect x="27" y="23" width="1" height="1" fill="#6A331E" />
<rect x="28" y="23" width="1" height="1" fill="#2B3B18" />
<rect x="29" y="23" width="1" height="1" fill="#2B3B18" />
<rect x="30" y="23" width="1" height="1" fill="#884931" />
<rect x="31" y="23" width="1" height="1" fill="#2B3B18" />
<rect x="32" y="23" width="1" height="1" fill="#53732C" />
<rect x="33" y="23" width="1" height="1" fill="#53732C" />
<rect x="34" y="23" width="1" height="1" fill="#53732C" />
<rect x="35" y="23" width="1" height="1" fill="#2B3B18" />
<rect x="36" y="23" width="1" height="1" fill="#2B3B18" />
<rect x="37" y="23" width="1" height="1" fill="#2B3B18" />
<rect x="19" y="24" width="1" height="1" fill="#53732C" />
<rect x="20" y="24" width="1" height="1" fill="#1D290E" />
<rect x="21" y="24" width="1" height="1" fill="#6A331E" />
<rect x="22" y="24" width="1" height="1" fill="#2B3B18" />
<rect x="23" y="24" width="1" height="1" fill="#1D290E" />
<rect x="24" y="24" width="1" height="1" fill="#1D290E" />
<rect x="25" y="24" width="1" height="1" fill="#2B3B18" />
<rect x="26" y="24" width="1" height="1" fill="#884931" />
<rect x="27" y="24" width="1" height="1" fill="#884931" />
<rect x="28" y="24" width="1" height="1" fill="#2B3B18" />
<rect x="29" y="24" width="1" height="1" fill="#2B3B18" />
<rect x="30" y="24" width="1" height="1" fill="#2B3B18" />
<rect x="31" y="24" width="1" height="1" fill="#884931" />
<rect x="32" y="24" width="1" height="1" fill="#884931" />
<rect x="33" y="24" width="1" height="1" fill="#2B3B18" />
<rect x="34" y="24" width="1" height="1" fill="#53732C" />
<rect x="36" y="24" width="1" height="1" fill="#2B3B18" />
<rect x="37" y="24" width="1" height="1" fill="#2B3B18" />
<rect x="18" y="25" width="1" height="1" fill="#2B3B18" />
<rect x="19" y="25" width="1" height="1" fill="#2B3B18" />
<rect x="20" y="25" width="1" height="1" fill="#53732C" />
<rect x="21" y="25" width="1" height="1" fill="#2B3B18" />
<rect x="22" y="25" width="1" height="1" fill="#C9DBB4" />
<rect x="23" y="25" width="1" height="1" fill="#2B3B18" />
<rect x="24" y="25" width="1" height="1" fill="#884931" />
<rect x="25" y="25" width="1" height="1" fill="#6A331E" />
<rect x="26" y="25" width="1" height="1" fill="#884931" />
<rect x="27" y="25" width="1" height="1" fill="#2B3B18" />
<rect x="28" y="25" width="1" height="1" fill="#884931" />
<rect x="29" y="25" width="1" height="1" fill="#2B3B18" />
<rect x="32" y="25" width="1" height="1" fill="#884931" />
<rect x="33" y="25" width="1" height="1" fill="#2B3B18" />
<rect x="34" y="25" width="1" height="1" fill="#2B3B18" />
<rect x="36" y="25" width="1" height="1" fill="#2B3B18" />
<rect x="37" y="25" width="1" height="1" fill="#2B3B18" />
<rect x="38" y="25" width="1" height="1" fill="#2B3B18" />
<rect x="39" y="25" width="1" height="1" fill="#53732C" />
<rect x="16" y="26" width="1" height="1" fill="#6A331E" />
<rect x="18" y="26" width="1" height="1" fill="#1D290E" />
<rect x="19" y="26" width="1" height="1" fill="#2B3B18" />
<rect x="20" y="26" width="1" height="1" fill="#41424A" />
<rect x="21" y="26" width="1" height="1" fill="#1D290E" />
<rect x="22" y="26" width="1" height="1" fill="#41424A" />
<rect x="23" y="26" width="1" height="1" fill="#884931" />
<rect x="24" y="26" width="1" height="1" fill="#884931" />
<rect x="25" y="26" width="1" height="1" fill="#884931" />
<rect x="26" y="26" width="1" height="1" fill="#884931" />
<rect x="27" y="26" width="1" height="1" fill="#884931" />
<rect x="28" y="26" width="1" height="1" fill="#2B3B18" />
<rect x="29" y="26" width="1" height="1" fill="#3F1C0E" />
<rect x="30" y="26" width="1" height="1" fill="#884931" />
<rect x="33" y="26" width="1" height="1" fill="#884931" />
<rect x="36" y="26" width="1" height="1" fill="#2B3B18" />
<rect x="38" y="26" width="1" height="1" fill="#53732C" />
<rect x="40" y="26" width="1" height="1" fill="#919970" />
<rect x="43" y="26" width="1" height="1" fill="#3F1C0E" />
<rect x="14" y="27" width="1" height="1" fill="#53732C" />
<rect x="15" y="27" width="1" height="1" fill="#53732C" />
<rect x="17" y="27" width="1" height="1" fill="#2B3B18" />
<rect x="18" y="27" width="1" height="1" fill="#6A331E" />
<rect x="19" y="27" width="1" height="1" fill="#2B3B18" />
<rect x="20" y="27" width="1" height="1" fill="#41424A" />
<rect x="21" y="27" width="1" height="1" fill="#6A331E" />
<rect x="22" y="27" width="1" height="1" fill="#884931" />
<rect x="23" y="27" width="1" height="1" fill="#884931" />
<rect x="24" y="27" width="1" height="1" fill="#884931" />
<rect x="25" y="27" width="1" height="1" fill="#884931" />
<rect x="26" y="27" width="1" height="1" fill="#884931" />
<rect x="27" y="27" width="1" height="1" fill="#884931" />
<rect x="28" y="27" width="1" height="1" fill="#2B3B18" />
<rect x="29" y="27" width="1" height="1" fill="#884931" />
<rect x="36" y="27" width="1" height="1" fill="#53732C" />
<rect x="37" y="27" width="1" height="1" fill="#53732C" />
<rect x="38" y="27" width="1" height="1" fill="#53732C" />
<rect x="39" y="27" width="1" height="1" fill="#53732C" />
<rect x="40" y="27" width="1" height="1" fill="#919970" />
<rect x="41" y="27" width="1" height="1" fill="#919970" />
<rect x="43" y="27" width="1" height="1" fill="#3F1C0E" />
<rect x="14" y="28" width="1" height="1" fill="#53732C" />
<rect x="16" y="28" width="1" height="1" fill="#2B3B18" />
<rect x="17" y="28" width="1" height="1" fill="#53732C" />
<rect x="18" y="28" width="1" height="1" fill="#41424A" />
<rect x="19" y="28" width="1" height="1" fill="#41424A" />
<rect x="20" y="28" width="1" height="1" fill="#41424A" />
<rect x="21" y="28" width="1" height="1" fill="#6A331E" />
<rect x="22" y="28" width="1" height="1" fill="#303138" />
<rect x="23" y="28" width="1" height="1" fill="#884931" />
<rect x="24" y="28" width="1" height="1" fill="#3F1C0E" />
<rect x="25" y="28" width="1" height="1" fill="#6A331E" />
<rect x="26" y="28" width="1" height="1" fill="#884931" />
<rect x="27" y="28" width="1" height="1" fill="#884931" />
<rect x="28" y="28" width="1" height="1" fill="#884931" />
<rect x="29" y="28" width="1" height="1" fill="#41424A" />
<rect x="35" y="28" width="1" height="1" fill="#53732C" />
<rect x="38" y="28" width="1" height="1" fill="#2B3B18" />
<rect x="40" y="28" width="1" height="1" fill="#919970" />
<rect x="15" y="29" width="1" height="1" fill="#53732C" />
<rect x="17" y="29" width="1" height="1" fill="#53732C" />
<rect x="19" y="29" width="1" height="1" fill="#41424A" />
<rect x="20" y="29" width="1" height="1" fill="#6A331E" />
<rect x="21" y="29" width="1" height="1" fill="#6A331E" />
<rect x="22" y="29" width="1" height="1" fill="#6A331E" />
<rect x="23" y="29" width="1" height="1" fill="#3F1C0E" />
<rect x="24" y="29" width="1" height="1" fill="#6A331E" />
<rect x="25" y="29" width="1" height="1" fill="#3F1C0E" />
<rect x="26" y="29" width="1" height="1" fill="#884931" />
<rect x="27" y="29" width="1" height="1" fill="#41424A" />
<rect x="29" y="29" width="1" height="1" fill="#41424A" />
<rect x="30" y="29" width="1" height="1" fill="#41424A" />
<rect x="31" y="29" width="1" height="1" fill="#41424A" />
<rect x="32" y="29" width="1" height="1" fill="#41424A" />
<rect x="38" y="29" width="1" height="1" fill="#2B3B18" />
<rect x="39" y="29" width="1" height="1" fill="#2B3B18" />
<rect x="42" y="29" width="1" height="1" fill="#2B3B18" />
<rect x="15" y="30" width="1" height="1" fill="#53732C" />
<rect x="16" y="30" width="1" height="1" fill="#2B3B18" />
<rect x="17" y="30" width="1" height="1" fill="#2B3B18" />
<rect x="18" y="30" width="1" height="1" fill="#41424A" />
<rect x="19" y="30" width="1" height="1" fill="#6A331E" />
<rect x="20" y="30" width="1" height="1" fill="#6A331E" />
<rect x="21" y="30" width="1" height="1" fill="#6A331E" />
<rect x="22" y="30" width="1" height="1" fill="#3F1C0E" />
<rect x="23" y="30" width="1" height="1" fill="#3F1C0E" />
<rect x="24" y="30" width="1" height="1" fill="#3F1C0E" />
<rect x="25" y="30" width="1" height="1" fill="#3F1C0E" />
<rect x="26" y="30" width="1" height="1" fill="#884931" />
<rect x="27" y="30" width="1" height="1" fill="#884931" />
<rect x="28" y="30" width="1" height="1" fill="#41424A" />
<rect x="29" y="30" width="1" height="1" fill="#41424A" />
<rect x="31" y="30" width="1" height="1" fill="#41424A" />
<rect x="39" y="30" width="1" height="1" fill="#2B3B18" />
<rect x="40" y="30" width="1" height="1" fill="#2B3B18" />
<rect x="41" y="30" width="1" height="1" fill="#919970" />
<rect x="15" y="31" width="1" height="1" fill="#53732C" />
<rect x="16" y="31" width="1" height="1" fill="#53732C" />
<rect x="17" y="31" width="1" height="1" fill="#41424A" />
<rect x="20" y="31" width="1" height="1" fill="#6A331E" />
<rect x="21" y="31" width="1" height="1" fill="#6A331E" />
<rect x="22" y="31" width="1" height="1" fill="#884931" />
<rect x="23" y="31" width="1" height="1" fill="#884931" />
<rect x="24" y="31" width="1" height="1" fill="#3F1C0E" />
<rect x="25" y="31" width="1" height="1" fill="#28292D" />
<rect x="26" y="31" width="1" height="1" fill="#6A331E" />
<rect x="27" y="31" width="1" height="1" fill="#41424A" />
<rect x="28" y="31" width="1" height="1" fill="#41424A" />
<rect x="31" y="31" width="1" height="1" fill="#41424A" />
<rect x="32" y="31" width="1" height="1" fill="#41424A" />
<rect x="40" y="31" width="1" height="1" fill="#2B3B18" />
<rect x="14" y="32" width="1" height="1" fill="#2B3B18" />
<rect x="15" y="32" width="1" height="1" fill="#53732C" />
<rect x="16" y="32" width="1" height="1" fill="#2B3B18" />
<rect x="17" y="32" width="1" height="1" fill="#2B3B18" />
<rect x="18" y="32" width="1" height="1" fill="#41424A" />
<rect x="19" y="32" width="1" height="1" fill="#41424A" />
<rect x="21" y="32" width="1" height="1" fill="#6A331E" />
<rect x="22" y="32" width="1" height="1" fill="#6A331E" />
<rect x="23" y="32" width="1" height="1" fill="#884931" />
<rect x="24" y="32" width="1" height="1" fill="#884931" />
<rect x="25" y="32" width="1" height="1" fill="#28292D" />
<rect x="26" y="32" width="1" height="1" fill="#28292D" />
<rect x="27" y="32" width="1" height="1" fill="#41424A" />
<rect x="28" y="32" width="1" height="1" fill="#28292D" />
<rect x="29" y="32" width="1" height="1" fill="#41424A" />
<rect x="30" y="32" width="1" height="1" fill="#41424A" />
<rect x="37" y="32" width="1" height="1" fill="#D4D4D4" />
<rect x="39" y="32" width="1" height="1" fill="#D4D4D4" />
<rect x="40" y="32" width="1" height="1" fill="#908C8C" />
<rect x="13" y="33" width="1" height="1" fill="#41424A" />
<rect x="14" y="33" width="1" height="1" fill="#41424A" />
<rect x="15" y="33" width="1" height="1" fill="#41424A" />
<rect x="16" y="33" width="1" height="1" fill="#41424A" />
<rect x="17" y="33" width="1" height="1" fill="#41424A" />
<rect x="18" y="33" width="1" height="1" fill="#41424A" />
<rect x="19" y="33" width="1" height="1" fill="#41424A" />
<rect x="20" y="33" width="1" height="1" fill="#41424A" />
<rect x="21" y="33" width="1" height="1" fill="#6A331E" />
<rect x="22" y="33" width="1" height="1" fill="#6A331E" />
<rect x="23" y="33" width="1" height="1" fill="#6A331E" />
<rect x="24" y="33" width="1" height="1" fill="#884931" />
<rect x="25" y="33" width="1" height="1" fill="#884931" />
<rect x="26" y="33" width="1" height="1" fill="#28292D" />
<rect x="27" y="33" width="1" height="1" fill="#28292D" />
<rect x="28" y="33" width="1" height="1" fill="#28292D" />
<rect x="29" y="33" width="1" height="1" fill="#41424A" />
<rect x="30" y="33" width="1" height="1" fill="#41424A" />
<rect x="32" y="33" width="1" height="1" fill="#41424A" />
<rect x="38" y="33" width="1" height="1" fill="#D4D4D4" />
<rect x="39" y="33" width="1" height="1" fill="#908C8C" />
<rect x="40" y="33" width="1" height="1" fill="#3F1C0E" />
<rect x="13" y="34" width="1" height="1" fill="#41424A" />
<rect x="14" y="34" width="1" height="1" fill="#41424A" />
<rect x="15" y="34" width="1" height="1" fill="#2B3B18" />
<rect x="16" y="34" width="1" height="1" fill="#2B3B18" />
<rect x="17" y="34" width="1" height="1" fill="#41424A" />
<rect x="18" y="34" width="1" height="1" fill="#41424A" />
<rect x="19" y="34" width="1" height="1" fill="#41424A" />
<rect x="20" y="34" width="1" height="1" fill="#41424A" />
<rect x="21" y="34" width="1" height="1" fill="#6A331E" />
<rect x="22" y="34" width="1" height="1" fill="#6A331E" />
<rect x="23" y="34" width="1" height="1" fill="#6A331E" />
<rect x="24" y="34" width="1" height="1" fill="#6A331E" />
<rect x="25" y="34" width="1" height="1" fill="#28292D" />
<rect x="26" y="34" width="1" height="1" fill="#28292D" />
<rect x="27" y="34" width="1" height="1" fill="#28292D" />
<rect x="28" y="34" width="1" height="1" fill="#28292D" />
<rect x="29" y="34" width="1" height="1" fill="#28292D" />
<rect x="30" y="34" width="1" height="1" fill="#41424A" />
<rect x="31" y="34" width="1" height="1" fill="#41424A" />
<rect x="33" y="34" width="1" height="1" fill="#41424A" />
<rect x="34" y="34" width="1" height="1" fill="#41424A" />
<rect x="36" y="34" width="1" height="1" fill="#D4D4D4" />
<rect x="37" y="34" width="1" height="1" fill="#908C8C" />
<rect x="38" y="34" width="1" height="1" fill="#D4D4D4" />
<rect x="40" y="34" width="1" height="1" fill="#D4D4D4" />
<rect x="14" y="35" width="1" height="1" fill="#41424A" />
<rect x="16" y="35" width="1" height="1" fill="#28292D" />
<rect x="17" y="35" width="1" height="1" fill="#28292D" />
<rect x="18" y="35" width="1" height="1" fill="#41424A" />
<rect x="19" y="35" width="1" height="1" fill="#28292D" />
<rect x="20" y="35" width="1" height="1" fill="#41424A" />
<rect x="21" y="35" width="1" height="1" fill="#41424A" />
<rect x="22" y="35" width="1" height="1" fill="#6A331E" />
<rect x="23" y="35" width="1" height="1" fill="#6A331E" />
<rect x="24" y="35" width="1" height="1" fill="#6A331E" />
<rect x="25" y="35" width="1" height="1" fill="#28292D" />
<rect x="26" y="35" width="1" height="1" fill="#28292D" />
<rect x="27" y="35" width="1" height="1" fill="#28292D" />
<rect x="28" y="35" width="1" height="1" fill="#28292D" />
<rect x="29" y="35" width="1" height="1" fill="#28292D" />
<rect x="30" y="35" width="1" height="1" fill="#41424A" />
<rect x="32" y="35" width="1" height="1" fill="#41424A" />
<rect x="40" y="35" width="1" height="1" fill="#D4D4D4" />
<rect x="14" y="36" width="1" height="1" fill="#28292D" />
<rect x="16" y="36" width="1" height="1" fill="#28292D" />
<rect x="17" y="36" width="1" height="1" fill="#41424A" />
<rect x="18" y="36" width="1" height="1" fill="#41424A" />
<rect x="19" y="36" width="1" height="1" fill="#41424A" />
<rect x="20" y="36" width="1" height="1" fill="#28292D" />
<rect x="21" y="36" width="1" height="1" fill="#6A331E" />
<rect x="22" y="36" width="1" height="1" fill="#6A331E" />
<rect x="23" y="36" width="1" height="1" fill="#6A331E" />
<rect x="24" y="36" width="1" height="1" fill="#884931" />
<rect x="25" y="36" width="1" height="1" fill="#28292D" />
<rect x="26" y="36" width="1" height="1" fill="#28292D" />
<rect x="27" y="36" width="1" height="1" fill="#28292D" />
<rect x="28" y="36" width="1" height="1" fill="#28292D" />
<rect x="29" y="36" width="1" height="1" fill="#28292D" />
<rect x="30" y="36" width="1" height="1" fill="#28292D" />
<rect x="31" y="36" width="1" height="1" fill="#28292D" />
<rect x="32" y="36" width="1" height="1" fill="#41424A" />
<rect x="35" y="36" width="1" height="1" fill="#908C8C" />
<rect x="36" y="36" width="1" height="1" fill="#908C8C" />
<rect x="37" y="36" width="1" height="1" fill="#D4D4D4" />
<rect x="39" y="36" width="1" height="1" fill="#D4D4D4" />
<rect x="16" y="37" width="1" height="1" fill="#28292D" />
<rect x="17" y="37" width="1" height="1" fill="#6A331E" />
<rect x="18" y="37" width="1" height="1" fill="#28292D" />
<rect x="19" y="37" width="1" height="1" fill="#28292D" />
<rect x="20" y="37" width="1" height="1" fill="#28292D" />
<rect x="21" y="37" width="1" height="1" fill="#28292D" />
<rect x="22" y="37" width="1" height="1" fill="#28292D" />
<rect x="23" y="37" width="1" height="1" fill="#884931" />
<rect x="26" y="37" width="1" height="1" fill="#28292D" />
<rect x="28" y="37" width="1" height="1" fill="#28292D" />
<rect x="29" y="37" width="1" height="1" fill="#28292D" />
<rect x="30" y="37" width="1" height="1" fill="#28292D" />
<rect x="31" y="37" width="1" height="1" fill="#41424A" />
<rect x="32" y="37" width="1" height="1" fill="#41424A" />
<rect x="33" y="37" width="1" height="1" fill="#884931" />
<rect x="34" y="37" width="1" height="1" fill="#D4D4D4" />
<rect x="35" y="37" width="1" height="1" fill="#908C8C" />
<rect x="36" y="37" width="1" height="1" fill="#D4D4D4" />
<rect x="15" y="38" width="1" height="1" fill="#6A331E" />
<rect x="17" y="38" width="1" height="1" fill="#28292D" />
<rect x="18" y="38" width="1" height="1" fill="#28292D" />
<rect x="19" y="38" width="1" height="1" fill="#28292D" />
<rect x="21" y="38" width="1" height="1" fill="#28292D" />
<rect x="25" y="38" width="1" height="1" fill="#28292D" />
<rect x="27" y="38" width="1" height="1" fill="#28292D" />
<rect x="28" y="38" width="1" height="1" fill="#28292D" />
<rect x="29" y="38" width="1" height="1" fill="#28292D" />
<rect x="30" y="38" width="1" height="1" fill="#D4D4D4" />
<rect x="31" y="38" width="1" height="1" fill="#D4D4D4" />
<rect x="32" y="38" width="1" height="1" fill="#41424A" />
<rect x="33" y="38" width="1" height="1" fill="#D4D4D4" />
<rect x="34" y="38" width="1" height="1" fill="#908C8C" />
<rect x="35" y="38" width="1" height="1" fill="#D4D4D4" />
<rect x="17" y="39" width="1" height="1" fill="#884931" />
<rect x="18" y="39" width="1" height="1" fill="#6A331E" />
<rect x="19" y="39" width="1" height="1" fill="#884931" />
<rect x="20" y="39" width="1" height="1" fill="#6A331E" />
<rect x="24" y="39" width="1" height="1" fill="#28292D" />
<rect x="28" y="39" width="1" height="1" fill="#28292D" />
<rect x="29" y="39" width="1" height="1" fill="#28292D" />
<rect x="30" y="39" width="1" height="1" fill="#28292D" />
<rect x="31" y="39" width="1" height="1" fill="#28292D" />
<rect x="32" y="39" width="1" height="1" fill="#6A331E" />
<rect x="33" y="39" width="1" height="1" fill="#884931" />
<rect x="16" y="40" width="1" height="1" fill="#6A331E" />
<rect x="17" y="40" width="1" height="1" fill="#6A331E" />
<rect x="18" y="40" width="1" height="1" fill="#6A331E" />
<rect x="19" y="40" width="1" height="1" fill="#6A331E" />
<rect x="20" y="40" width="1" height="1" fill="#6A331E" />
<rect x="30" y="40" width="1" height="1" fill="#D4D4D4" />
<rect x="31" y="40" width="1" height="1" fill="#D4D4D4" />
<rect x="32" y="40" width="1" height="1" fill="#D4D4D4" />
<rect x="33" y="40" width="1" height="1" fill="#884931" />
<rect x="15" y="41" width="1" height="1" fill="#6A331E" />
<rect x="17" y="41" width="1" height="1" fill="#6A331E" />
<rect x="18" y="41" width="1" height="1" fill="#6A331E" />
<rect x="19" y="41" width="1" height="1" fill="#884931" />
<rect x="20" y="41" width="1" height="1" fill="#6A331E" />
<rect x="21" y="41" width="1" height="1" fill="#884931" />
<rect x="22" y="41" width="1" height="1" fill="#884931" />
<rect x="29" y="41" width="1" height="1" fill="#28292D" />
<rect x="30" y="41" width="1" height="1" fill="#6A331E" />
<rect x="31" y="41" width="1" height="1" fill="#6A331E" />
<rect x="32" y="41" width="1" height="1" fill="#D4D4D4" />
<rect x="33" y="41" width="1" height="1" fill="#884931" />
<rect x="34" y="41" width="1" height="1" fill="#884931" />
<rect x="35" y="41" width="1" height="1" fill="#884931" />
<rect x="17" y="42" width="1" height="1" fill="#6A331E" />
<rect x="18" y="42" width="1" height="1" fill="#6A331E" />
<rect x="19" y="42" width="1" height="1" fill="#884931" />
<rect x="21" y="42" width="1" height="1" fill="#884931" />
<rect x="31" y="42" width="1" height="1" fill="#6A331E" />
<rect x="32" y="42" width="1" height="1" fill="#6A331E" />
<rect x="33" y="42" width="1" height="1" fill="#884931" />
<rect x="34" y="42" width="1" height="1" fill="#884931" />
<rect x="35" y="42" width="1" height="1" fill="#884931" />
<rect x="37" y="42" width="1" height="1" fill="#884931" />
<rect x="15" y="43" width="1" height="1" fill="#6A331E" />
<rect x="18" y="43" width="1" height="1" fill="#6A331E" />
<rect x="19" y="43" width="1" height="1" fill="#6A331E" />
<rect x="20" y="43" width="1" height="1" fill="#884931" />
<rect x="21" y="43" width="1" height="1" fill="#6A331E" />
<rect x="33" y="43" width="1" height="1" fill="#6A331E" />
<rect x="34" y="43" width="1" height="1" fill="#884931" />
<rect x="17" y="44" width="1" height="1" fill="#6A331E" />
<rect x="18" y="44" width="1" height="1" fill="#6A331E" />
<rect x="19" y="44" width="1" height="1" fill="#6A331E" />
<rect x="20" y="44" width="1" height="1" fill="#6A331E" />
<rect x="33" y="44" width="1" height="1" fill="#884931" />
<rect x="34" y="44" width="1" height="1" fill="#6A331E" />
<rect x="35" y="44" width="1" height="1" fill="#6A331E" />
<rect x="36" y="44" width="1" height="1" fill="#884931" />
<rect x="37" y="44" width="1" height="1" fill="#884931" />
<rect x="16" y="45" width="1" height="1" fill="#6A331E" />
<rect x="17" y="45" width="1" height="1" fill="#6A331E" />
<rect x="18" y="45" width="1" height="1" fill="#6A331E" />
<rect x="19" y="45" width="1" height="1" fill="#6A331E" />
<rect x="20" y="45" width="1" height="1" fill="#6A331E" />
<rect x="33" y="45" width="1" height="1" fill="#6A331E" />
<rect x="34" y="45" width="1" height="1" fill="#884931" />
<rect x="35" y="45" width="1" height="1" fill="#884931" />
<rect x="36" y="45" width="1" height="1" fill="#884931" />
<rect x="38" y="45" width="1" height="1" fill="#884931" />
<rect x="14" y="46" width="1" height="1" fill="#6A331E" />
<rect x="17" y="46" width="1" height="1" fill="#6A331E" />
<rect x="33" y="46" width="1" height="1" fill="#6A331E" />
<rect x="34" y="46" width="1" height="1" fill="#6A331E" />
<rect x="36" y="46" width="1" height="1" fill="#884931" />
<rect x="38" y="46" width="1" height="1" fill="#884931" />
</svg>