<?xml version="1.0" encoding="UTF-8" ?>
<svg version="1.1" width="50" height="50" xmlns="http://www.w3.org/2000/svg" shape-rendering="crispEdges">
<rect x="11" y="13" width="1" height="1" fill="#53732C" />
<rect x="23" y="14" width="1" height="1" fill="#53732C" />
<rect x="9" y="15" width="1" height="1" fill="#53732C" />
<rect x="18" y="15" width="1" height="1" fill="#53732C" />
<rect x="20" y="15" width="1" height="1" fill="#53732C" />
<rect x="9" y="16" width="1" height="1" fill="#53732C" />
<rect x="21" y="18" width="1" height="1" fill="#53732C" />
<rect x="24" y="18" width="1" height="1" fill="#53732C" />
<rect x="23" y="19" width="1" height="1" fill="#53732C" />
<rect x="37" y="25" width="1" height="1" fill="#41424A" />
<rect x="41" y="25" width="1" height="1" fill="#41424A" />
<rect x="42" y="25" width="1" height="1" fill="#41424A" />
<rect x="41" y="27" width="1" height="1" fill="#41424A" />
<rect x="40" y="28" width="1" height="1" fill="#41424A" />
<rect x="44" y="31" width="1" height="1" fill="#41424A" />
<rect x="38" y="32" width="1" height="1" fill="#41424A" />
<rect x="39" y="32" width="1" height="1" fill="#41424A" />
<rect x="15" y="33" width="1" height="1" fill="#41424A" />
<rect x="15" y="35" width="1" height="1" fill="#41424A" />
<rect x="37" y="35" width="1" height="1" fill="#908C8C" />
<rect x="14" y="36" width="1" height="1" fill="#41424A" />
<rect x="20" y="47" width="1" height="1" fill="#884931" />
<rect x="20" y="49" width="1" height="1" fill="#884931" />
<rect x="21" y="49" width="1" height="1" fill="#884931" />
</svg>