<?xml version="1.0" encoding="UTF-8" ?>
<svg version="1.1" width="50" height="50" xmlns="http://www.w3.org/2000/svg" shape-rendering="crispEdges">
<rect x="22" y="7" width="1" height="1" fill="#53732C" />
<rect x="22" y="8" width="1" height="1" fill="#53732C" />
<rect x="30" y="9" width="1" height="1" fill="#53732C" />
<rect x="15" y="10" width="1" height="1" fill="#53732C" />
<rect x="19" y="10" width="1" height="1" fill="#53732C" />
<rect x="12" y="11" width="1" height="1" fill="#53732C" />
<rect x="13" y="11" width="1" height="1" fill="#53732C" />
<rect x="14" y="11" width="1" height="1" fill="#53732C" />
<rect x="28" y="11" width="1" height="1" fill="#53732C" />
<rect x="30" y="11" width="1" height="1" fill="#53732C" />
<rect x="11" y="12" width="1" height="1" fill="#53732C" />
<rect x="12" y="12" width="1" height="1" fill="#53732C" />
<rect x="14" y="12" width="1" height="1" fill="#53732C" />
<rect x="15" y="12" width="1" height="1" fill="#41424A" />
<rect x="16" y="12" width="1" height="1" fill="#41424A" />
<rect x="29" y="12" width="1" height="1" fill="#53732C" />
<rect x="28" y="13" width="1" height="1" fill="#53732C" />
<rect x="29" y="13" width="1" height="1" fill="#53732C" />
<rect x="37" y="13" width="1" height="1" fill="#53732C" />
<rect x="26" y="14" width="1" height="1" fill="#53732C" />
<rect x="28" y="14" width="1" height="1" fill="#53732C" />
<rect x="30" y="14" width="1" height="1" fill="#53732C" />
<rect x="39" y="14" width="1" height="1" fill="#53732C" />
<rect x="40" y="14" width="1" height="1" fill="#53732C" />
<rect x="41" y="14" width="1" height="1" fill="#53732C" />
<rect x="27" y="15" width="1" height="1" fill="#41424A" />
<rect x="28" y="15" width="1" height="1" fill="#41424A" />
<rect x="39" y="15" width="1" height="1" fill="#53732C" />
<rect x="28" y="16" width="1" height="1" fill="#41424A" />
<rect x="29" y="16" width="1" height="1" fill="#53732C" />
<rect x="34" y="16" width="1" height="1" fill="#53732C" />
<rect x="38" y="16" width="1" height="1" fill="#53732C" />
<rect x="39" y="17" width="1" height="1" fill="#53732C" />
<rect x="30" y="19" width="1" height="1" fill="#41424A" />
<rect x="22" y="20" width="1" height="1" fill="#28292D" />
<rect x="24" y="20" width="1" height="1" fill="#28292D" />
<rect x="31" y="20" width="1" height="1" fill="#41424A" />
<rect x="15" y="21" width="1" height="1" fill="#41424A" />
<rect x="16" y="21" width="1" height="1" fill="#41424A" />
<rect x="18" y="21" width="1" height="1" fill="#41424A" />
<rect x="23" y="21" width="1" height="1" fill="#28292D" />
<rect x="24" y="21" width="1" height="1" fill="#28292D" />
<rect x="25" y="21" width="1" height="1" fill="#28292D" />
<rect x="28" y="21" width="1" height="1" fill="#41424A" />
<rect x="29" y="21" width="1" height="1" fill="#41424A" />
<rect x="30" y="21" width="1" height="1" fill="#41424A" />
<rect x="31" y="21" width="1" height="1" fill="#41424A" />
<rect x="35" y="21" width="1" height="1" fill="#919970" />
<rect x="5" y="22" width="1" height="1" fill="#28292D" />
<rect x="16" y="22" width="1" height="1" fill="#41424A" />
<rect x="17" y="22" width="1" height="1" fill="#41424A" />
<rect x="18" y="22" width="1" height="1" fill="#41424A" />
<rect x="24" y="22" width="1" height="1" fill="#41424A" />
<rect x="25" y="22" width="1" height="1" fill="#28292D" />
<rect x="28" y="22" width="1" height="1" fill="#41424A" />
<rect x="29" y="22" width="1" height="1" fill="#41424A" />
<rect x="32" y="22" width="1" height="1" fill="#41424A" />
<rect x="6" y="23" width="1" height="1" fill="#28292D" />
<rect x="18" y="23" width="1" height="1" fill="#41424A" />
<rect x="22" y="23" width="1" height="1" fill="#41424A" />
<rect x="23" y="23" width="1" height="1" fill="#41424A" />
<rect x="28" y="23" width="1" height="1" fill="#41424A" />
<rect x="31" y="23" width="1" height="1" fill="#41424A" />
<rect x="32" y="23" width="1" height="1" fill="#41424A" />
<rect x="37" y="23" width="1" height="1" fill="#919970" />
<rect x="17" y="24" width="1" height="1" fill="#41424A" />
<rect x="20" y="24" width="1" height="1" fill="#41424A" />
<rect x="22" y="24" width="1" height="1" fill="#41424A" />
<rect x="33" y="24" width="1" height="1" fill="#41424A" />
<rect x="37" y="25" width="1" height="1" fill="#919970" />
<rect x="38" y="25" width="1" height="1" fill="#919970" />
<rect x="39" y="25" width="1" height="1" fill="#919970" />
<rect x="41" y="25" width="1" height="1" fill="#919970" />
<rect x="25" y="26" width="1" height="1" fill="#41424A" />
<rect x="36" y="26" width="1" height="1" fill="#919970" />
<rect x="37" y="26" width="1" height="1" fill="#919970" />
<rect x="41" y="26" width="1" height="1" fill="#919970" />
<rect x="42" y="26" width="1" height="1" fill="#28292D" />
<rect x="19" y="27" width="1" height="1" fill="#41424A" />
<rect x="42" y="27" width="1" height="1" fill="#28292D" />
<rect x="20" y="28" width="1" height="1" fill="#41424A" />
<rect x="23" y="28" width="1" height="1" fill="#41424A" />
<rect x="25" y="28" width="1" height="1" fill="#28292D" />
<rect x="29" y="28" width="1" height="1" fill="#28292D" />
<rect x="37" y="28" width="1" height="1" fill="#908C8C" />
<rect x="38" y="28" width="1" height="1" fill="#908C8C" />
<rect x="40" y="28" width="1" height="1" fill="#908C8C" />
<rect x="41" y="28" width="1" height="1" fill="#28292D" />
<rect x="16" y="29" width="1" height="1" fill="#41424A" />
<rect x="30" y="29" width="1" height="1" fill="#908C8C" />
<rect x="38" y="29" width="1" height="1" fill="#908C8C" />
<rect x="39" y="29" width="1" height="1" fill="#908C8C" />
<rect x="40" y="29" width="1" height="1" fill="#908C8C" />
<rect x="41" y="29" width="1" height="1" fill="#908C8C" />
<rect x="42" y="29" width="1" height="1" fill="#28292D" />
<rect x="18" y="30" width="1" height="1" fill="#41424A" />
<rect x="28" y="30" width="1" height="1" fill="#28292D" />
<rect x="33" y="30" width="1" height="1" fill="#28292D" />
<rect x="34" y="30" width="1" height="1" fill="#908C8C" />
<rect x="39" y="30" width="1" height="1" fill="#908C8C" />
<rect x="22" y="31" width="1" height="1" fill="#28292D" />
<rect x="23" y="31" width="1" height="1" fill="#28292D" />
<rect x="24" y="31" width="1" height="1" fill="#28292D" />
<rect x="32" y="31" width="1" height="1" fill="#28292D" />
<rect x="35" y="31" width="1" height="1" fill="#908C8C" />
<rect x="36" y="31" width="1" height="1" fill="#908C8C" />
<rect x="37" y="31" width="1" height="1" fill="#908C8C" />
<rect x="40" y="31" width="1" height="1" fill="#908C8C" />
<rect x="41" y="31" width="1" height="1" fill="#908C8C" />
<rect x="42" y="31" width="1" height="1" fill="#28292D" />
<rect x="16" y="32" width="1" height="1" fill="#6A331E" />
<rect x="18" y="32" width="1" height="1" fill="#41424A" />
<rect x="19" y="32" width="1" height="1" fill="#41424A" />
<rect x="20" y="32" width="1" height="1" fill="#41424A" />
<rect x="24" y="32" width="1" height="1" fill="#28292D" />
<rect x="25" y="32" width="1" height="1" fill="#28292D" />
<rect x="36" y="32" width="1" height="1" fill="#908C8C" />
<rect x="37" y="32" width="1" height="1" fill="#908C8C" />
<rect x="38" y="32" width="1" height="1" fill="#908C8C" />
<rect x="42" y="32" width="1" height="1" fill="#28292D" />
<rect x="18" y="33" width="1" height="1" fill="#41424A" />
<rect x="23" y="33" width="1" height="1" fill="#41424A" />
<rect x="33" y="33" width="1" height="1" fill="#908C8C" />
<rect x="34" y="33" width="1" height="1" fill="#908C8C" />
<rect x="37" y="33" width="1" height="1" fill="#908C8C" />
<rect x="38" y="33" width="1" height="1" fill="#908C8C" />
<rect x="17" y="34" width="1" height="1" fill="#41424A" />
<rect x="26" y="34" width="1" height="1" fill="#28292D" />
<rect x="33" y="34" width="1" height="1" fill="#908C8C" />
<rect x="34" y="34" width="1" height="1" fill="#908C8C" />
<rect x="35" y="34" width="1" height="1" fill="#908C8C" />
<rect x="38" y="34" width="1" height="1" fill="#908C8C" />
<rect x="39" y="34" width="1" height="1" fill="#908C8C" />
<rect x="15" y="35" width="1" height="1" fill="#6A331E" />
<rect x="18" y="35" width="1" height="1" fill="#41424A" />
<rect x="26" y="35" width="1" height="1" fill="#28292D" />
<rect x="34" y="35" width="1" height="1" fill="#908C8C" />
<rect x="39" y="35" width="1" height="1" fill="#908C8C" />
<rect x="9" y="36" width="1" height="1" fill="#884931" />
<rect x="16" y="37" width="1" height="1" fill="#884931" />
<rect x="17" y="38" width="1" height="1" fill="#884931" />
<rect x="26" y="38" width="1" height="1" fill="#28292D" />
<rect x="28" y="38" width="1" height="1" fill="#28292D" />
<rect x="12" y="40" width="1" height="1" fill="#884931" />
<rect x="16" y="41" width="1" height="1" fill="#884931" />
<rect x="20" y="41" width="1" height="1" fill="#884931" />
<rect x="27" y="41" width="1" height="1" fill="#28292D" />
<rect x="28" y="41" width="1" height="1" fill="#28292D" />
<rect x="17" y="42" width="1" height="1" fill="#884931" />
<rect x="21" y="42" width="1" height="1" fill="#884931" />
<rect x="28" y="43" width="1" height="1" fill="#28292D" />
<rect x="15" y="44" width="1" height="1" fill="#884931" />
<rect x="20" y="44" width="1" height="1" fill="#884931" />
<rect x="27" y="44" width="1" height="1" fill="#28292D" />
<rect x="15" y="48" width="1" height="1" fill="#884931" />
<rect x="18" y="49" width="1" height="1" fill="#884931" />
<rect x="21" y="49" width="1" height="1" fill="#884931" />
<rect x="22" y="49" width="1" height="1" fill="#884931" />
</svg>