<?xml version="1.0" encoding="UTF-8" ?>
<svg version="1.1" width="50" height="50" xmlns="http://www.w3.org/2000/svg" shape-rendering="crispEdges">
<rect x="13" y="10" width="1" height="1" fill="#53732C" />
<rect x="15" y="10" width="1" height="1" fill="#53732C" />
<rect x="16" y="11" width="1" height="1" fill="#53732C" />
<rect x="19" y="11" width="1" height="1" fill="#53732C" />
<rect x="15" y="13" width="1" height="1" fill="#53732C" />
<rect x="17" y="13" width="1" height="1" fill="#53732C" />
<rect x="10" y="14" width="1" height="1" fill="#53732C" />
<rect x="11" y="16" width="1" height="1" fill="#53732C" />
<rect x="13" y="16" width="1" height="1" fill="#53732C" />
<rect x="23" y="17" width="1" height="1" fill="#41424A" />
<rect x="40" y="17" width="1" height="1" fill="#53732C" />
<rect x="9" y="18" width="1" height="1" fill="#53732C" />
<rect x="38" y="18" width="1" height="1" fill="#53732C" />
<rect x="39" y="19" width="1" height="1" fill="#53732C" />
<rect x="4" y="21" width="1" height="1" fill="#28292D" />
<rect x="5" y="21" width="1" height="1" fill="#28292D" />
<rect x="27" y="23" width="1" height="1" fill="#41424A" />
<rect x="31" y="26" width="1" height="1" fill="#919970" />
<rect x="32" y="26" width="1" height="1" fill="#908C8C" />
<rect x="39" y="26" width="1" height="1" fill="#41424A" />
<rect x="32" y="27" width="1" height="1" fill="#908C8C" />
<rect x="40" y="27" width="1" height="1" fill="#41424A" />
<rect x="39" y="28" width="1" height="1" fill="#41424A" />
<rect x="30" y="29" width="1" height="1" fill="#908C8C" />
<rect x="18" y="32" width="1" height="1" fill="#41424A" />
<rect x="32" y="32" width="1" height="1" fill="#908C8C" />
<rect x="18" y="33" width="1" height="1" fill="#41424A" />
<rect x="22" y="34" width="1" height="1" fill="#41424A" />
<rect x="42" y="34" width="1" height="1" fill="#908C8C" />
<rect x="16" y="35" width="1" height="1" fill="#41424A" />
<rect x="21" y="35" width="1" height="1" fill="#41424A" />
<rect x="22" y="35" width="1" height="1" fill="#41424A" />
<rect x="23" y="35" width="1" height="1" fill="#41424A" />
<rect x="37" y="35" width="1" height="1" fill="#908C8C" />
<rect x="16" y="37" width="1" height="1" fill="#884931" />
<rect x="21" y="37" width="1" height="1" fill="#41424A" />
<rect x="30" y="37" width="1" height="1" fill="#908C8C" />
<rect x="29" y="38" width="1" height="1" fill="#28292D" />
<rect x="16" y="40" width="1" height="1" fill="#884931" />
<rect x="27" y="40" width="1" height="1" fill="#28292D" />
<rect x="28" y="40" width="1" height="1" fill="#28292D" />
<rect x="29" y="40" width="1" height="1" fill="#28292D" />
<rect x="15" y="41" width="1" height="1" fill="#884931" />
<rect x="26" y="41" width="1" height="1" fill="#28292D" />
<rect x="29" y="41" width="1" height="1" fill="#28292D" />
<rect x="29" y="42" width="1" height="1" fill="#28292D" />
<rect x="30" y="42" width="1" height="1" fill="#28292D" />
<rect x="29" y="45" width="1" height="1" fill="#28292D" />
<rect x="17" y="48" width="1" height="1" fill="#884931" />
<rect x="18" y="49" width="1" height="1" fill="#884931" />
<rect x="21" y="49" width="1" height="1" fill="#884931" />
<rect x="22" y="49" width="1" height="1" fill="#884931" />
</svg>