<?xml version="1.0" encoding="UTF-8" ?>
<svg version="1.1" width="50" height="50" xmlns="http://www.w3.org/2000/svg" shape-rendering="crispEdges">
<rect x="16" y="10" width="1" height="1" fill="#41424A" />
<rect x="16" y="11" width="1" height="1" fill="#41424A" />
<rect x="28" y="11" width="1" height="1" fill="#41424A" />
<rect x="29" y="11" width="1" height="1" fill="#41424A" />
<rect x="17" y="12" width="1" height="1" fill="#41424A" />
<rect x="27" y="12" width="1" height="1" fill="#41424A" />
<rect x="28" y="12" width="1" height="1" fill="#41424A" />
<rect x="30" y="12" width="1" height="1" fill="#41424A" />
<rect x="15" y="13" width="1" height="1" fill="#2B3B18" />
<rect x="29" y="13" width="1" height="1" fill="#53732C" />
<rect x="31" y="13" width="1" height="1" fill="#2B3B18" />
<rect x="24" y="14" width="1" height="1" fill="#53732C" />
<rect x="25" y="14" width="1" height="1" fill="#53732C" />
<rect x="28" y="14" width="1" height="1" fill="#2B3B18" />
<rect x="29" y="14" width="1" height="1" fill="#2B3B18" />
<rect x="30" y="14" width="1" height="1" fill="#53732C" />
<rect x="31" y="14" width="1" height="1" fill="#53732C" />
<rect x="15" y="15" width="1" height="1" fill="#2B3B18" />
<rect x="22" y="15" width="1" height="1" fill="#53732C" />
<rect x="23" y="15" width="1" height="1" fill="#53732C" />
<rect x="28" y="15" width="1" height="1" fill="#2B3B18" />
<rect x="30" y="15" width="1" height="1" fill="#53732C" />
<rect x="20" y="16" width="1" height="1" fill="#2B3B18" />
<rect x="21" y="16" width="1" height="1" fill="#2B3B18" />
<rect x="24" y="16" width="1" height="1" fill="#53732C" />
<rect x="30" y="16" width="1" height="1" fill="#2B3B18" />
<rect x="22" y="17" width="1" height="1" fill="#2B3B18" />
<rect x="24" y="17" width="1" height="1" fill="#53732C" />
<rect x="25" y="17" width="1" height="1" fill="#53732C" />
<rect x="21" y="18" width="1" height="1" fill="#53732C" />
<rect x="23" y="18" width="1" height="1" fill="#2B3B18" />
<rect x="24" y="18" width="1" height="1" fill="#2B3B18" />
<rect x="25" y="18" width="1" height="1" fill="#53732C" />
<rect x="26" y="18" width="1" height="1" fill="#53732C" />
<rect x="27" y="18" width="1" height="1" fill="#53732C" />
<rect x="15" y="19" width="1" height="1" fill="#28292D" />
<rect x="21" y="19" width="1" height="1" fill="#53732C" />
<rect x="14" y="20" width="1" height="1" fill="#28292D" />
<rect x="22" y="20" width="1" height="1" fill="#53732C" />
<rect x="23" y="20" width="1" height="1" fill="#53732C" />
<rect x="24" y="20" width="1" height="1" fill="#53732C" />
<rect x="26" y="20" width="1" height="1" fill="#53732C" />
<rect x="28" y="20" width="1" height="1" fill="#53732C" />
<rect x="12" y="21" width="1" height="1" fill="#28292D" />
<rect x="13" y="21" width="1" height="1" fill="#28292D" />
<rect x="15" y="21" width="1" height="1" fill="#28292D" />
<rect x="16" y="21" width="1" height="1" fill="#28292D" />
<rect x="23" y="21" width="1" height="1" fill="#53732C" />
<rect x="27" y="21" width="1" height="1" fill="#53732C" />
<rect x="14" y="22" width="1" height="1" fill="#28292D" />
<rect x="17" y="22" width="1" height="1" fill="#28292D" />
<rect x="22" y="22" width="1" height="1" fill="#41424A" />
<rect x="24" y="22" width="1" height="1" fill="#41424A" />
<rect x="25" y="22" width="1" height="1" fill="#41424A" />
<rect x="26" y="22" width="1" height="1" fill="#53732C" />
<rect x="33" y="22" width="1" height="1" fill="#6A331E" />
<rect x="17" y="23" width="1" height="1" fill="#28292D" />
<rect x="22" y="23" width="1" height="1" fill="#41424A" />
<rect x="25" y="23" width="1" height="1" fill="#41424A" />
<rect x="27" y="23" width="1" height="1" fill="#41424A" />
<rect x="19" y="24" width="1" height="1" fill="#28292D" />
<rect x="20" y="24" width="1" height="1" fill="#28292D" />
<rect x="21" y="24" width="1" height="1" fill="#28292D" />
<rect x="22" y="24" width="1" height="1" fill="#28292D" />
<rect x="33" y="24" width="1" height="1" fill="#6A331E" />
<rect x="14" y="25" width="1" height="1" fill="#41424A" />
<rect x="15" y="25" width="1" height="1" fill="#41424A" />
<rect x="18" y="25" width="1" height="1" fill="#28292D" />
<rect x="19" y="25" width="1" height="1" fill="#28292D" />
<rect x="38" y="25" width="1" height="1" fill="#919970" />
<rect x="39" y="25" width="1" height="1" fill="#919970" />
<rect x="41" y="25" width="1" height="1" fill="#919970" />
<rect x="13" y="26" width="1" height="1" fill="#41424A" />
<rect x="16" y="26" width="1" height="1" fill="#6A331E" />
<rect x="19" y="26" width="1" height="1" fill="#28292D" />
<rect x="20" y="26" width="1" height="1" fill="#28292D" />
<rect x="23" y="26" width="1" height="1" fill="#41424A" />
<rect x="26" y="26" width="1" height="1" fill="#41424A" />
<rect x="42" y="26" width="1" height="1" fill="#3F1C0E" />
<rect x="43" y="26" width="1" height="1" fill="#3F1C0E" />
<rect x="13" y="27" width="1" height="1" fill="#41424A" />
<rect x="14" y="27" width="1" height="1" fill="#41424A" />
<rect x="20" y="27" width="1" height="1" fill="#6A331E" />
<rect x="23" y="27" width="1" height="1" fill="#41424A" />
<rect x="26" y="27" width="1" height="1" fill="#41424A" />
<rect x="27" y="27" width="1" height="1" fill="#41424A" />
<rect x="35" y="27" width="1" height="1" fill="#919970" />
<rect x="39" y="27" width="1" height="1" fill="#919970" />
<rect x="40" y="27" width="1" height="1" fill="#919970" />
<rect x="12" y="28" width="1" height="1" fill="#41424A" />
<rect x="13" y="28" width="1" height="1" fill="#41424A" />
<rect x="14" y="28" width="1" height="1" fill="#6A331E" />
<rect x="15" y="28" width="1" height="1" fill="#6A331E" />
<rect x="17" y="28" width="1" height="1" fill="#6A331E" />
<rect x="23" y="28" width="1" height="1" fill="#41424A" />
<rect x="25" y="28" width="1" height="1" fill="#6A331E" />
<rect x="27" y="28" width="1" height="1" fill="#6A331E" />
<rect x="28" y="28" width="1" height="1" fill="#41424A" />
<rect x="11" y="29" width="1" height="1" fill="#41424A" />
<rect x="14" y="29" width="1" height="1" fill="#6A331E" />
<rect x="23" y="29" width="1" height="1" fill="#28292D" />
<rect x="25" y="29" width="1" height="1" fill="#3F1C0E" />
<rect x="27" y="29" width="1" height="1" fill="#6A331E" />
<rect x="34" y="29" width="1" height="1" fill="#41424A" />
<rect x="35" y="29" width="1" height="1" fill="#41424A" />
<rect x="39" y="29" width="1" height="1" fill="#53732C" />
<rect x="17" y="30" width="1" height="1" fill="#28292D" />
<rect x="22" y="30" width="1" height="1" fill="#28292D" />
<rect x="25" y="30" width="1" height="1" fill="#6A331E" />
<rect x="26" y="30" width="1" height="1" fill="#41424A" />
<rect x="33" y="30" width="1" height="1" fill="#41424A" />
<rect x="40" y="30" width="1" height="1" fill="#53732C" />
<rect x="15" y="31" width="1" height="1" fill="#28292D" />
<rect x="19" y="31" width="1" height="1" fill="#28292D" />
<rect x="20" y="31" width="1" height="1" fill="#28292D" />
<rect x="21" y="31" width="1" height="1" fill="#28292D" />
<rect x="31" y="31" width="1" height="1" fill="#6A331E" />
<rect x="13" y="32" width="1" height="1" fill="#53732C" />
<rect x="17" y="32" width="1" height="1" fill="#3F1C0E" />
<rect x="19" y="32" width="1" height="1" fill="#28292D" />
<rect x="21" y="32" width="1" height="1" fill="#28292D" />
<rect x="25" y="32" width="1" height="1" fill="#884931" />
<rect x="30" y="32" width="1" height="1" fill="#6A331E" />
<rect x="17" y="33" width="1" height="1" fill="#28292D" />
<rect x="22" y="33" width="1" height="1" fill="#28292D" />
<rect x="23" y="33" width="1" height="1" fill="#41424A" />
<rect x="25" y="33" width="1" height="1" fill="#884931" />
<rect x="26" y="33" width="1" height="1" fill="#6A331E" />
<rect x="36" y="33" width="1" height="1" fill="#41424A" />
<rect x="11" y="34" width="1" height="1" fill="#53732C" />
<rect x="15" y="34" width="1" height="1" fill="#28292D" />
<rect x="16" y="34" width="1" height="1" fill="#28292D" />
<rect x="18" y="34" width="1" height="1" fill="#28292D" />
<rect x="21" y="34" width="1" height="1" fill="#28292D" />
<rect x="23" y="34" width="1" height="1" fill="#28292D" />
<rect x="25" y="34" width="1" height="1" fill="#884931" />
<rect x="26" y="34" width="1" height="1" fill="#884931" />
<rect x="32" y="34" width="1" height="1" fill="#28292D" />
<rect x="33" y="34" width="1" height="1" fill="#41424A" />
<rect x="34" y="34" width="1" height="1" fill="#908C8C" />
<rect x="35" y="34" width="1" height="1" fill="#908C8C" />
<rect x="16" y="35" width="1" height="1" fill="#28292D" />
<rect x="17" y="35" width="1" height="1" fill="#28292D" />
<rect x="18" y="35" width="1" height="1" fill="#28292D" />
<rect x="19" y="35" width="1" height="1" fill="#28292D" />
<rect x="21" y="35" width="1" height="1" fill="#28292D" />
<rect x="22" y="35" width="1" height="1" fill="#6A331E" />
<rect x="23" y="35" width="1" height="1" fill="#28292D" />
<rect x="25" y="35" width="1" height="1" fill="#6A331E" />
<rect x="26" y="35" width="1" height="1" fill="#6A331E" />
<rect x="27" y="35" width="1" height="1" fill="#884931" />
<rect x="32" y="35" width="1" height="1" fill="#28292D" />
<rect x="33" y="35" width="1" height="1" fill="#28292D" />
<rect x="34" y="35" width="1" height="1" fill="#908C8C" />
<rect x="35" y="35" width="1" height="1" fill="#908C8C" />
<rect x="14" y="36" width="1" height="1" fill="#53732C" />
<rect x="18" y="36" width="1" height="1" fill="#6A331E" />
<rect x="21" y="36" width="1" height="1" fill="#3F1C0E" />
<rect x="22" y="36" width="1" height="1" fill="#3F1C0E" />
<rect x="24" y="36" width="1" height="1" fill="#884931" />
<rect x="25" y="36" width="1" height="1" fill="#6A331E" />
<rect x="26" y="36" width="1" height="1" fill="#6A331E" />
<rect x="27" y="36" width="1" height="1" fill="#884931" />
<rect x="33" y="36" width="1" height="1" fill="#41424A" />
<rect x="34" y="36" width="1" height="1" fill="#908C8C" />
<rect x="22" y="37" width="1" height="1" fill="#3F1C0E" />
<rect x="25" y="37" width="1" height="1" fill="#884931" />
<rect x="26" y="37" width="1" height="1" fill="#884931" />
<rect x="28" y="37" width="1" height="1" fill="#884931" />
<rect x="29" y="37" width="1" height="1" fill="#884931" />
<rect x="31" y="37" width="1" height="1" fill="#908C8C" />
<rect x="32" y="37" width="1" height="1" fill="#41424A" />
<rect x="34" y="37" width="1" height="1" fill="#908C8C" />
<rect x="35" y="37" width="1" height="1" fill="#908C8C" />
<rect x="36" y="37" width="1" height="1" fill="#908C8C" />
<rect x="43" y="37" width="1" height="1" fill="#D4D4D4" />
<rect x="11" y="38" width="1" height="1" fill="#884931" />
<rect x="16" y="38" width="1" height="1" fill="#53732C" />
<rect x="20" y="38" width="1" height="1" fill="#3F1C0E" />
<rect x="21" y="38" width="1" height="1" fill="#3F1C0E" />
<rect x="26" y="38" width="1" height="1" fill="#3F1C0E" />
<rect x="42" y="38" width="1" height="1" fill="#D4D4D4" />
<rect x="43" y="38" width="1" height="1" fill="#D4D4D4" />
<rect x="10" y="39" width="1" height="1" fill="#884931" />
<rect x="12" y="39" width="1" height="1" fill="#884931" />
<rect x="15" y="39" width="1" height="1" fill="#53732C" />
<rect x="20" y="39" width="1" height="1" fill="#3F1C0E" />
<rect x="21" y="39" width="1" height="1" fill="#3F1C0E" />
<rect x="22" y="39" width="1" height="1" fill="#3F1C0E" />
<rect x="23" y="39" width="1" height="1" fill="#3F1C0E" />
<rect x="25" y="39" width="1" height="1" fill="#884931" />
<rect x="41" y="39" width="1" height="1" fill="#D4D4D4" />
<rect x="42" y="39" width="1" height="1" fill="#D4D4D4" />
<rect x="10" y="40" width="1" height="1" fill="#884931" />
<rect x="11" y="40" width="1" height="1" fill="#884931" />
<rect x="19" y="40" width="1" height="1" fill="#3F1C0E" />
<rect x="20" y="40" width="1" height="1" fill="#3F1C0E" />
<rect x="24" y="40" width="1" height="1" fill="#884931" />
<rect x="25" y="40" width="1" height="1" fill="#28292D" />
<rect x="26" y="40" width="1" height="1" fill="#884931" />
<rect x="10" y="41" width="1" height="1" fill="#884931" />
<rect x="11" y="41" width="1" height="1" fill="#884931" />
<rect x="25" y="41" width="1" height="1" fill="#28292D" />
<rect x="11" y="42" width="1" height="1" fill="#884931" />
<rect x="36" y="42" width="1" height="1" fill="#884931" />
<rect x="17" y="43" width="1" height="1" fill="#884931" />
<rect x="36" y="43" width="1" height="1" fill="#884931" />
<rect x="19" y="44" width="1" height="1" fill="#884931" />
<rect x="23" y="44" width="1" height="1" fill="#884931" />
<rect x="34" y="44" width="1" height="1" fill="#6A331E" />
<rect x="36" y="44" width="1" height="1" fill="#884931" />
<rect x="37" y="44" width="1" height="1" fill="#884931" />
<rect x="21" y="45" width="1" height="1" fill="#884931" />
<rect x="22" y="45" width="1" height="1" fill="#884931" />
<rect x="23" y="45" width="1" height="1" fill="#884931" />
<rect x="24" y="45" width="1" height="1" fill="#884931" />
<rect x="25" y="45" width="1" height="1" fill="#884931" />
<rect x="33" y="45" width="1" height="1" fill="#6A331E" />
<rect x="34" y="45" width="1" height="1" fill="#884931" />
<rect x="35" y="45" width="1" height="1" fill="#884931" />
<rect x="36" y="45" width="1" height="1" fill="#884931" />
<rect x="38" y="45" width="1" height="1" fill="#884931" />
<rect x="20" y="46" width="1" height="1" fill="#884931" />
<rect x="22" y="46" width="1" height="1" fill="#884931" />
<rect x="23" y="46" width="1" height="1" fill="#884931" />
<rect x="24" y="46" width="1" height="1" fill="#884931" />
<rect x="25" y="46" width="1" height="1" fill="#884931" />
<rect x="33" y="46" width="1" height="1" fill="#6A331E" />
<rect x="34" y="46" width="1" height="1" fill="#6A331E" />
<rect x="36" y="46" width="1" height="1" fill="#884931" />
<rect x="38" y="46" width="1" height="1" fill="#884931" />
<rect x="24" y="47" width="1" height="1" fill="#884931" />
<rect x="24" y="48" width="1" height="1" fill="#884931" />
<rect x="19" y="49" width="1" height="1" fill="#884931" />
<rect x="23" y="49" width="1" height="1" fill="#884931" />
<rect x="24" y="49" width="1" height="1" fill="#884931" />
</svg>