<?xml version="1.0" encoding="UTF-8" ?>
<svg version="1.1" width="59" height="37" xmlns="http://www.w3.org/2000/svg" shape-rendering="crispEdges">
<rect x="39" y="1" width="1" height="1" fill="#4D4F5A" />
<rect x="37" y="2" width="1" height="1" fill="#41424A" />
<rect x="38" y="2" width="1" height="1" fill="#41424A" />
<rect x="39" y="2" width="1" height="1" fill="#303138" />
<rect x="37" y="3" width="1" height="1" fill="#41424A" />
<rect x="38" y="3" width="1" height="1" fill="#303138" />
<rect x="46" y="3" width="1" height="1" fill="#53732C" />
<rect x="47" y="3" width="1" height="1" fill="#2B3B18" />
<rect x="31" y="4" width="1" height="1" fill="#53732C" />
<rect x="36" y="4" width="1" height="1" fill="#41424A" />
<rect x="37" y="4" width="1" height="1" fill="#303138" />
<rect x="38" y="4" width="1" height="1" fill="#303138" />
<rect x="43" y="4" width="1" height="1" fill="#53732C" />
<rect x="44" y="4" width="1" height="1" fill="#53732C" />
<rect x="45" y="4" width="1" height="1" fill="#53732C" />
<rect x="46" y="4" width="1" height="1" fill="#2B3B18" />
<rect x="47" y="4" width="1" height="1" fill="#2B3B18" />
<rect x="31" y="5" width="1" height="1" fill="#53732C" />
<rect x="35" y="5" width="1" height="1" fill="#53732C" />
<rect x="36" y="5" width="1" height="1" fill="#303138" />
<rect x="37" y="5" width="1" height="1" fill="#303138" />
<rect x="38" y="5" width="1" height="1" fill="#53732C" />
<rect x="41" y="5" width="1" height="1" fill="#53732C" />
<rect x="42" y="5" width="1" height="1" fill="#53732C" />
<rect x="43" y="5" width="1" height="1" fill="#53732C" />
<rect x="44" y="5" width="1" height="1" fill="#2B3B18" />
<rect x="45" y="5" width="1" height="1" fill="#2B3B18" />
<rect x="46" y="5" width="1" height="1" fill="#2B3B18" />
<rect x="31" y="6" width="1" height="1" fill="#2B3B18" />
<rect x="32" y="6" width="1" height="1" fill="#53732C" />
<rect x="34" y="6" width="1" height="1" fill="#53732C" />
<rect x="35" y="6" width="1" height="1" fill="#53732C" />
<rect x="36" y="6" width="1" height="1" fill="#53732C" />
<rect x="37" y="6" width="1" height="1" fill="#53732C" />
<rect x="38" y="6" width="1" height="1" fill="#53732C" />
<rect x="39" y="6" width="1" height="1" fill="#53732C" />
<rect x="40" y="6" width="1" height="1" fill="#2B3B18" />
<rect x="41" y="6" width="1" height="1" fill="#53732C" />
<rect x="42" y="6" width="1" height="1" fill="#53732C" />
<rect x="43" y="6" width="1" height="1" fill="#2B3B18" />
<rect x="44" y="6" width="1" height="1" fill="#2B3B18" />
<rect x="45" y="6" width="1" height="1" fill="#2B3B18" />
<rect x="31" y="7" width="1" height="1" fill="#2B3B18" />
<rect x="32" y="7" width="1" height="1" fill="#53732C" />
<rect x="33" y="7" width="1" height="1" fill="#2B3B18" />
<rect x="34" y="7" width="1" height="1" fill="#53732C" />
<rect x="35" y="7" width="1" height="1" fill="#53732C" />
<rect x="36" y="7" width="1" height="1" fill="#53732C" />
<rect x="37" y="7" width="1" height="1" fill="#53732C" />
<rect x="38" y="7" width="1" height="1" fill="#53732C" />
<rect x="39" y="7" width="1" height="1" fill="#2B3B18" />
<rect x="40" y="7" width="1" height="1" fill="#53732C" />
<rect x="41" y="7" width="1" height="1" fill="#53732C" />
<rect x="42" y="7" width="1" height="1" fill="#2B3B18" />
<rect x="43" y="7" width="1" height="1" fill="#2B3B18" />
<rect x="44" y="7" width="1" height="1" fill="#2B3B18" />
<rect x="31" y="8" width="1" height="1" fill="#2B3B18" />
<rect x="32" y="8" width="1" height="1" fill="#2B3B18" />
<rect x="33" y="8" width="1" height="1" fill="#53732C" />
<rect x="34" y="8" width="1" height="1" fill="#ECFF00" />
<rect x="35" y="8" width="1" height="1" fill="#53732C" />
<rect x="36" y="8" width="1" height="1" fill="#2B3B18" />
<rect x="37" y="8" width="1" height="1" fill="#ECFF00" />
<rect x="38" y="8" width="1" height="1" fill="#ECFF00" />
<rect x="39" y="8" width="1" height="1" fill="#2B3B18" />
<rect x="40" y="8" width="1" height="1" fill="#53732C" />
<rect x="41" y="8" width="1" height="1" fill="#2B3B18" />
<rect x="42" y="8" width="1" height="1" fill="#2B3B18" />
<rect x="43" y="8" width="1" height="1" fill="#2B3B18" />
<rect x="32" y="9" width="1" height="1" fill="#2B3B18" />
<rect x="33" y="9" width="1" height="1" fill="#2B3B18" />
<rect x="34" y="9" width="1" height="1" fill="#ECFF00" />
<rect x="35" y="9" width="1" height="1" fill="#2B3B18" />
<rect x="36" y="9" width="1" height="1" fill="#2B3B18" />
<rect x="37" y="9" width="1" height="1" fill="#ECFF00" />
<rect x="38" y="9" width="1" height="1" fill="#ECFF00" />
<rect x="39" y="9" width="1" height="1" fill="#2B3B18" />
<rect x="40" y="9" width="1" height="1" fill="#2B3B18" />
<rect x="41" y="9" width="1" height="1" fill="#2B3B18" />
<rect x="42" y="9" width="1" height="1" fill="#2B3B18" />
<rect x="32" y="10" width="1" height="1" fill="#2B3B18" />
<rect x="33" y="10" width="1" height="1" fill="#2B3B18" />
<rect x="34" y="10" width="1" height="1" fill="#2B3B18" />
<rect x="35" y="10" width="1" height="1" fill="#2B3B18" />
<rect x="36" y="10" width="1" height="1" fill="#53732C" />
<rect x="37" y="10" width="1" height="1" fill="#53732C" />
<rect x="38" y="10" width="1" height="1" fill="#2B3B18" />
<rect x="39" y="10" width="1" height="1" fill="#2B3B18" />
<rect x="40" y="10" width="1" height="1" fill="#2B3B18" />
<rect x="41" y="10" width="1" height="1" fill="#2B3B18" />
<rect x="33" y="11" width="1" height="1" fill="#2B3B18" />
<rect x="34" y="11" width="1" height="1" fill="#53732C" />
<rect x="35" y="11" width="1" height="1" fill="#53732C" />
<rect x="36" y="11" width="1" height="1" fill="#53732C" />
<rect x="37" y="11" width="1" height="1" fill="#2B3B18" />
<rect x="38" y="11" width="1" height="1" fill="#2B3B18" />
<rect x="39" y="11" width="1" height="1" fill="#2B3B18" />
<rect x="40" y="11" width="1" height="1" fill="#1D290E" />
<rect x="41" y="11" width="1" height="1" fill="#2B3B18" />
<rect x="42" y="11" width="1" height="1" fill="#884931" />
<rect x="43" y="11" width="1" height="1" fill="#884931" />
<rect x="34" y="12" width="1" height="1" fill="#53732C" />
<rect x="35" y="12" width="1" height="1" fill="#53732C" />
<rect x="36" y="12" width="1" height="1" fill="#2B3B18" />
<rect x="37" y="12" width="1" height="1" fill="#2B3B18" />
<rect x="38" y="12" width="1" height="1" fill="#1D290E" />
<rect x="39" y="12" width="1" height="1" fill="#C9DBB4" />
<rect x="40" y="12" width="1" height="1" fill="#1D290E" />
<rect x="41" y="12" width="1" height="1" fill="#2B3B18" />
<rect x="42" y="12" width="1" height="1" fill="#2B3B18" />
<rect x="43" y="12" width="1" height="1" fill="#53732C" />
<rect x="44" y="12" width="1" height="1" fill="#53732C" />
<rect x="45" y="12" width="1" height="1" fill="#53732C" />
<rect x="46" y="12" width="1" height="1" fill="#53732C" />
<rect x="47" y="12" width="1" height="1" fill="#53732C" />
<rect x="34" y="13" width="1" height="1" fill="#53732C" />
<rect x="35" y="13" width="1" height="1" fill="#2B3B18" />
<rect x="36" y="13" width="1" height="1" fill="#2B3B18" />
<rect x="37" y="13" width="1" height="1" fill="#2B3B18" />
<rect x="38" y="13" width="1" height="1" fill="#1D290E" />
<rect x="39" y="13" width="1" height="1" fill="#1D290E" />
<rect x="40" y="13" width="1" height="1" fill="#2B3B18" />
<rect x="41" y="13" width="1" height="1" fill="#884931" />
<rect x="42" y="13" width="1" height="1" fill="#2B3B18" />
<rect x="43" y="13" width="1" height="1" fill="#2B3B18" />
<rect x="44" y="13" width="1" height="1" fill="#2B3B18" />
<rect x="45" y="13" width="1" height="1" fill="#2B3B18" />
<rect x="46" y="13" width="1" height="1" fill="#2B3B18" />
<rect x="47" y="13" width="1" height="1" fill="#53732C" />
<rect x="48" y="13" width="1" height="1" fill="#53732C" />
<rect x="49" y="13" width="1" height="1" fill="#53732C" />
<rect x="22" y="14" width="1" height="1" fill="#FDDF12" />
<rect x="34" y="14" width="1" height="1" fill="#2B3B18" />
<rect x="35" y="14" width="1" height="1" fill="#2B3B18" />
<rect x="36" y="14" width="1" height="1" fill="#2B3B18" />
<rect x="37" y="14" width="1" height="1" fill="#1D290E" />
<rect x="38" y="14" width="1" height="1" fill="#C9DBB4" />
<rect x="39" y="14" width="1" height="1" fill="#2B3B18" />
<rect x="40" y="14" width="1" height="1" fill="#2B3B18" />
<rect x="41" y="14" width="1" height="1" fill="#6A331E" />
<rect x="42" y="14" width="1" height="1" fill="#2B3B18" />
<rect x="43" y="14" width="1" height="1" fill="#2B3B18" />
<rect x="44" y="14" width="1" height="1" fill="#2B3B18" />
<rect x="45" y="14" width="1" height="1" fill="#2B3B18" />
<rect x="46" y="14" width="1" height="1" fill="#2B3B18" />
<rect x="47" y="14" width="1" height="1" fill="#2B3B18" />
<rect x="48" y="14" width="1" height="1" fill="#2B3B18" />
<rect x="49" y="14" width="1" height="1" fill="#53732C" />
<rect x="50" y="14" width="1" height="1" fill="#53732C" />
<rect x="21" y="15" width="1" height="1" fill="#FDDF12" />
<rect x="22" y="15" width="1" height="1" fill="#FDDF12" />
<rect x="23" y="15" width="1" height="1" fill="#FDDF12" />
<rect x="33" y="15" width="1" height="1" fill="#53732C" />
<rect x="34" y="15" width="1" height="1" fill="#2B3B18" />
<rect x="35" y="15" width="1" height="1" fill="#1D290E" />
<rect x="36" y="15" width="1" height="1" fill="#C9DBB4" />
<rect x="37" y="15" width="1" height="1" fill="#1D290E" />
<rect x="38" y="15" width="1" height="1" fill="#2B3B18" />
<rect x="39" y="15" width="1" height="1" fill="#2B3B18" />
<rect x="40" y="15" width="1" height="1" fill="#884931" />
<rect x="41" y="15" width="1" height="1" fill="#884931" />
<rect x="42" y="15" width="1" height="1" fill="#6A331E" />
<rect x="43" y="15" width="1" height="1" fill="#6A331E" />
<rect x="48" y="15" width="1" height="1" fill="#2B3B18" />
<rect x="49" y="15" width="1" height="1" fill="#2B3B18" />
<rect x="50" y="15" width="1" height="1" fill="#53732C" />
<rect x="51" y="15" width="1" height="1" fill="#BBC29C" />
<rect x="20" y="16" width="1" height="1" fill="#FDDF12" />
<rect x="21" y="16" width="1" height="1" fill="#FDDF12" />
<rect x="22" y="16" width="1" height="1" fill="#FDDF12" />
<rect x="24" y="16" width="1" height="1" fill="#FDDF12" />
<rect x="32" y="16" width="1" height="1" fill="#53732C" />
<rect x="33" y="16" width="1" height="1" fill="#6A331E" />
<rect x="34" y="16" width="1" height="1" fill="#6A331E" />
<rect x="35" y="16" width="1" height="1" fill="#2B3B18" />
<rect x="36" y="16" width="1" height="1" fill="#41424A" />
<rect x="37" y="16" width="1" height="1" fill="#41424A" />
<rect x="38" y="16" width="1" height="1" fill="#2B3B18" />
<rect x="39" y="16" width="1" height="1" fill="#884931" />
<rect x="40" y="16" width="1" height="1" fill="#884931" />
<rect x="41" y="16" width="1" height="1" fill="#884931" />
<rect x="42" y="16" width="1" height="1" fill="#884931" />
<rect x="43" y="16" width="1" height="1" fill="#6A331E" />
<rect x="49" y="16" width="1" height="1" fill="#2B3B18" />
<rect x="50" y="16" width="1" height="1" fill="#919970" />
<rect x="51" y="16" width="1" height="1" fill="#BBC29C" />
<rect x="52" y="16" width="1" height="1" fill="#BBC29C" />
<rect x="55" y="16" width="1" height="1" fill="#3F1C0E" />
<rect x="56" y="16" width="1" height="1" fill="#3F1C0E" />
<rect x="20" y="17" width="1" height="1" fill="#FDDF12" />
<rect x="22" y="17" width="1" height="1" fill="#FDDF12" />
<rect x="23" y="17" width="1" height="1" fill="#FDDF12" />
<rect x="31" y="17" width="1" height="1" fill="#53732C" />
<rect x="32" y="17" width="1" height="1" fill="#2B3B18" />
<rect x="33" y="17" width="1" height="1" fill="#6A331E" />
<rect x="34" y="17" width="1" height="1" fill="#6A331E" />
<rect x="35" y="17" width="1" height="1" fill="#6A331E" />
<rect x="36" y="17" width="1" height="1" fill="#303138" />
<rect x="37" y="17" width="1" height="1" fill="#41424A" />
<rect x="38" y="17" width="1" height="1" fill="#884931" />
<rect x="39" y="17" width="1" height="1" fill="#884931" />
<rect x="40" y="17" width="1" height="1" fill="#884931" />
<rect x="41" y="17" width="1" height="1" fill="#884931" />
<rect x="42" y="17" width="1" height="1" fill="#884931" />
<rect x="50" y="17" width="1" height="1" fill="#919970" />
<rect x="51" y="17" width="1" height="1" fill="#919970" />
<rect x="52" y="17" width="1" height="1" fill="#BBC29C" />
<rect x="53" y="17" width="1" height="1" fill="#BBC29C" />
<rect x="54" y="17" width="1" height="1" fill="#3F1C0E" />
<rect x="55" y="17" width="1" height="1" fill="#3F1C0E" />
<rect x="56" y="17" width="1" height="1" fill="#3F1C0E" />
<rect x="22" y="18" width="1" height="1" fill="#202020" />
<rect x="30" y="18" width="1" height="1" fill="#53732C" />
<rect x="31" y="18" width="1" height="1" fill="#2B3B18" />
<rect x="32" y="18" width="1" height="1" fill="#2B3B18" />
<rect x="33" y="18" width="1" height="1" fill="#6A331E" />
<rect x="34" y="18" width="1" height="1" fill="#6A331E" />
<rect x="35" y="18" width="1" height="1" fill="#6A331E" />
<rect x="36" y="18" width="1" height="1" fill="#6A331E" />
<rect x="37" y="18" width="1" height="1" fill="#303138" />
<rect x="38" y="18" width="1" height="1" fill="#6A331E" />
<rect x="39" y="18" width="1" height="1" fill="#6A331E" />
<rect x="40" y="18" width="1" height="1" fill="#884931" />
<rect x="41" y="18" width="1" height="1" fill="#884931" />
<rect x="42" y="18" width="1" height="1" fill="#884931" />
<rect x="52" y="18" width="1" height="1" fill="#919970" />
<rect x="53" y="18" width="1" height="1" fill="#53732C" />
<rect x="54" y="18" width="1" height="1" fill="#53732C" />
<rect x="55" y="18" width="1" height="1" fill="#53732C" />
<rect x="22" y="19" width="1" height="1" fill="#393737" />
<rect x="23" y="19" width="1" height="1" fill="#393737" />
<rect x="24" y="19" width="1" height="1" fill="#393737" />
<rect x="29" y="19" width="1" height="1" fill="#53732C" />
<rect x="30" y="19" width="1" height="1" fill="#53732C" />
<rect x="31" y="19" width="1" height="1" fill="#2B3B18" />
<rect x="34" y="19" width="1" height="1" fill="#6A331E" />
<rect x="35" y="19" width="1" height="1" fill="#6A331E" />
<rect x="36" y="19" width="1" height="1" fill="#6A331E" />
<rect x="37" y="19" width="1" height="1" fill="#6A331E" />
<rect x="38" y="19" width="1" height="1" fill="#6A331E" />
<rect x="39" y="19" width="1" height="1" fill="#6A331E" />
<rect x="40" y="19" width="1" height="1" fill="#6A331E" />
<rect x="41" y="19" width="1" height="1" fill="#6A331E" />
<rect x="51" y="19" width="1" height="1" fill="#2B3B18" />
<rect x="52" y="19" width="1" height="1" fill="#53732C" />
<rect x="53" y="19" width="1" height="1" fill="#53732C" />
<rect x="54" y="19" width="1" height="1" fill="#53732C" />
<rect x="55" y="19" width="1" height="1" fill="#2B3B18" />
<rect x="20" y="20" width="1" height="1" fill="#393737" />
<rect x="21" y="20" width="1" height="1" fill="#393737" />
<rect x="22" y="20" width="1" height="1" fill="#393737" />
<rect x="23" y="20" width="1" height="1" fill="#393737" />
<rect x="24" y="20" width="1" height="1" fill="#393737" />
<rect x="25" y="20" width="1" height="1" fill="#393737" />
<rect x="26" y="20" width="1" height="1" fill="#393737" />
<rect x="29" y="20" width="1" height="1" fill="#53732C" />
<rect x="30" y="20" width="1" height="1" fill="#2B3B18" />
<rect x="35" y="20" width="1" height="1" fill="#3F1C0E" />
<rect x="36" y="20" width="1" height="1" fill="#3F1C0E" />
<rect x="37" y="20" width="1" height="1" fill="#3F1C0E" />
<rect x="38" y="20" width="1" height="1" fill="#3F1C0E" />
<rect x="39" y="20" width="1" height="1" fill="#3F1C0E" />
<rect x="40" y="20" width="1" height="1" fill="#3F1C0E" />
<rect x="41" y="20" width="1" height="1" fill="#3F1C0E" />
<rect x="51" y="20" width="1" height="1" fill="#2B3B18" />
<rect x="52" y="20" width="1" height="1" fill="#2B3B18" />
<rect x="53" y="20" width="1" height="1" fill="#2B3B18" />
<rect x="54" y="20" width="1" height="1" fill="#2B3B18" />
<rect x="20" y="21" width="1" height="1" fill="#393737" />
<rect x="21" y="21" width="1" height="1" fill="#393737" />
<rect x="22" y="21" width="1" height="1" fill="#393737" />
<rect x="23" y="21" width="1" height="1" fill="#393737" />
<rect x="24" y="21" width="1" height="1" fill="#393737" />
<rect x="25" y="21" width="1" height="1" fill="#393737" />
<rect x="26" y="21" width="1" height="1" fill="#393737" />
<rect x="27" y="21" width="1" height="1" fill="#393737" />
<rect x="28" y="21" width="1" height="1" fill="#53732C" />
<rect x="29" y="21" width="1" height="1" fill="#53732C" />
<rect x="30" y="21" width="1" height="1" fill="#2B3B18" />
<rect x="34" y="21" width="1" height="1" fill="#41424A" />
<rect x="35" y="21" width="1" height="1" fill="#41424A" />
<rect x="36" y="21" width="1" height="1" fill="#6A331E" />
<rect x="37" y="21" width="1" height="1" fill="#6A331E" />
<rect x="38" y="21" width="1" height="1" fill="#6A331E" />
<rect x="39" y="21" width="1" height="1" fill="#6A331E" />
<rect x="40" y="21" width="1" height="1" fill="#6A331E" />
<rect x="41" y="21" width="1" height="1" fill="#6A331E" />
<rect x="42" y="21" width="1" height="1" fill="#41424A" />
<rect x="43" y="21" width="1" height="1" fill="#41424A" />
<rect x="51" y="21" width="1" height="1" fill="#D4D4D4" />
<rect x="52" y="21" width="1" height="1" fill="#3F1C0E" />
<rect x="53" y="21" width="1" height="1" fill="#2B3B18" />
<rect x="54" y="21" width="1" height="1" fill="#2B3B18" />
<rect x="19" y="22" width="1" height="1" fill="#202020" />
<rect x="20" y="22" width="1" height="1" fill="#393737" />
<rect x="21" y="22" width="1" height="1" fill="#393737" />
<rect x="22" y="22" width="1" height="1" fill="#393737" />
<rect x="23" y="22" width="1" height="1" fill="#393737" />
<rect x="24" y="22" width="1" height="1" fill="#393737" />
<rect x="25" y="22" width="1" height="1" fill="#393737" />
<rect x="26" y="22" width="1" height="1" fill="#393737" />
<rect x="27" y="22" width="1" height="1" fill="#393737" />
<rect x="28" y="22" width="1" height="1" fill="#53732C" />
<rect x="29" y="22" width="1" height="1" fill="#2B3B18" />
<rect x="33" y="22" width="1" height="1" fill="#41424A" />
<rect x="34" y="22" width="1" height="1" fill="#41424A" />
<rect x="35" y="22" width="1" height="1" fill="#41424A" />
<rect x="36" y="22" width="1" height="1" fill="#6A331E" />
<rect x="37" y="22" width="1" height="1" fill="#6A331E" />
<rect x="38" y="22" width="1" height="1" fill="#6A331E" />
<rect x="39" y="22" width="1" height="1" fill="#884931" />
<rect x="40" y="22" width="1" height="1" fill="#884931" />
<rect x="41" y="22" width="1" height="1" fill="#28292D" />
<rect x="42" y="22" width="1" height="1" fill="#28292D" />
<rect x="43" y="22" width="1" height="1" fill="#41424A" />
<rect x="44" y="22" width="1" height="1" fill="#41424A" />
<rect x="45" y="22" width="1" height="1" fill="#41424A" />
<rect x="46" y="22" width="1" height="1" fill="#41424A" />
<rect x="47" y="22" width="1" height="1" fill="#41424A" />
<rect x="51" y="22" width="1" height="1" fill="#D4D4D4" />
<rect x="52" y="22" width="1" height="1" fill="#908C8C" />
<rect x="53" y="22" width="1" height="1" fill="#3F1C0E" />
<rect x="19" y="23" width="1" height="1" fill="#202020" />
<rect x="20" y="23" width="1" height="1" fill="#202020" />
<rect x="21" y="23" width="1" height="1" fill="#393737" />
<rect x="22" y="23" width="1" height="1" fill="#393737" />
<rect x="23" y="23" width="1" height="1" fill="#393737" />
<rect x="24" y="23" width="1" height="1" fill="#393737" />
<rect x="25" y="23" width="1" height="1" fill="#393737" />
<rect x="26" y="23" width="1" height="1" fill="#393737" />
<rect x="27" y="23" width="1" height="1" fill="#202020" />
<rect x="28" y="23" width="1" height="1" fill="#53732C" />
<rect x="29" y="23" width="1" height="1" fill="#2B3B18" />
<rect x="32" y="23" width="1" height="1" fill="#41424A" />
<rect x="33" y="23" width="1" height="1" fill="#41424A" />
<rect x="34" y="23" width="1" height="1" fill="#41424A" />
<rect x="35" y="23" width="1" height="1" fill="#41424A" />
<rect x="36" y="23" width="1" height="1" fill="#41424A" />
<rect x="37" y="23" width="1" height="1" fill="#6A331E" />
<rect x="38" y="23" width="1" height="1" fill="#884931" />
<rect x="39" y="23" width="1" height="1" fill="#884931" />
<rect x="40" y="23" width="1" height="1" fill="#884931" />
<rect x="41" y="23" width="1" height="1" fill="#28292D" />
<rect x="42" y="23" width="1" height="1" fill="#28292D" />
<rect x="43" y="23" width="1" height="1" fill="#41424A" />
<rect x="44" y="23" width="1" height="1" fill="#41424A" />
<rect x="45" y="23" width="1" height="1" fill="#41424A" />
<rect x="46" y="23" width="1" height="1" fill="#41424A" />
<rect x="47" y="23" width="1" height="1" fill="#41424A" />
<rect x="50" y="23" width="1" height="1" fill="#D4D4D4" />
<rect x="51" y="23" width="1" height="1" fill="#908C8C" />
<rect x="52" y="23" width="1" height="1" fill="#908C8C" />
<rect x="53" y="23" width="1" height="1" fill="#D4D4D4" />
<rect x="19" y="24" width="1" height="1" fill="#202020" />
<rect x="20" y="24" width="1" height="1" fill="#202020" />
<rect x="21" y="24" width="1" height="1" fill="#202020" />
<rect x="22" y="24" width="1" height="1" fill="#393737" />
<rect x="23" y="24" width="1" height="1" fill="#393737" />
<rect x="24" y="24" width="1" height="1" fill="#393737" />
<rect x="25" y="24" width="1" height="1" fill="#393737" />
<rect x="26" y="24" width="1" height="1" fill="#202020" />
<rect x="27" y="24" width="1" height="1" fill="#202020" />
<rect x="31" y="24" width="1" height="1" fill="#41424A" />
<rect x="32" y="24" width="1" height="1" fill="#41424A" />
<rect x="33" y="24" width="1" height="1" fill="#41424A" />
<rect x="34" y="24" width="1" height="1" fill="#41424A" />
<rect x="35" y="24" width="1" height="1" fill="#41424A" />
<rect x="36" y="24" width="1" height="1" fill="#41424A" />
<rect x="37" y="24" width="1" height="1" fill="#6A331E" />
<rect x="38" y="24" width="1" height="1" fill="#884931" />
<rect x="39" y="24" width="1" height="1" fill="#884931" />
<rect x="40" y="24" width="1" height="1" fill="#884931" />
<rect x="41" y="24" width="1" height="1" fill="#28292D" />
<rect x="42" y="24" width="1" height="1" fill="#28292D" />
<rect x="43" y="24" width="1" height="1" fill="#28292D" />
<rect x="44" y="24" width="1" height="1" fill="#28292D" />
<rect x="45" y="24" width="1" height="1" fill="#28292D" />
<rect x="46" y="24" width="1" height="1" fill="#41424A" />
<rect x="47" y="24" width="1" height="1" fill="#41424A" />
<rect x="48" y="24" width="1" height="1" fill="#41424A" />
<rect x="50" y="24" width="1" height="1" fill="#D4D4D4" />
<rect x="51" y="24" width="1" height="1" fill="#908C8C" />
<rect x="52" y="24" width="1" height="1" fill="#D4D4D4" />
<rect x="20" y="25" width="1" height="1" fill="#202020" />
<rect x="21" y="25" width="1" height="1" fill="#202020" />
<rect x="22" y="25" width="1" height="1" fill="#202020" />
<rect x="23" y="25" width="1" height="1" fill="#202020" />
<rect x="24" y="25" width="1" height="1" fill="#202020" />
<rect x="25" y="25" width="1" height="1" fill="#202020" />
<rect x="26" y="25" width="1" height="1" fill="#202020" />
<rect x="30" y="25" width="1" height="1" fill="#41424A" />
<rect x="31" y="25" width="1" height="1" fill="#41424A" />
<rect x="32" y="25" width="1" height="1" fill="#41424A" />
<rect x="33" y="25" width="1" height="1" fill="#41424A" />
<rect x="34" y="25" width="1" height="1" fill="#41424A" />
<rect x="35" y="25" width="1" height="1" fill="#41424A" />
<rect x="36" y="25" width="1" height="1" fill="#41424A" />
<rect x="37" y="25" width="1" height="1" fill="#6A331E" />
<rect x="38" y="25" width="1" height="1" fill="#6A331E" />
<rect x="39" y="25" width="1" height="1" fill="#6A331E" />
<rect x="40" y="25" width="1" height="1" fill="#884931" />
<rect x="41" y="25" width="1" height="1" fill="#28292D" />
<rect x="42" y="25" width="1" height="1" fill="#28292D" />
<rect x="43" y="25" width="1" height="1" fill="#28292D" />
<rect x="44" y="25" width="1" height="1" fill="#28292D" />
<rect x="45" y="25" width="1" height="1" fill="#28292D" />
<rect x="46" y="25" width="1" height="1" fill="#28292D" />
<rect x="47" y="25" width="1" height="1" fill="#41424A" />
<rect x="48" y="25" width="1" height="1" fill="#41424A" />
<rect x="50" y="25" width="1" height="1" fill="#908C8C" />
<rect x="51" y="25" width="1" height="1" fill="#D4D4D4" />
<rect x="20" y="26" width="1" height="1" fill="#202020" />
<rect x="21" y="26" width="1" height="1" fill="#202020" />
<rect x="22" y="26" width="1" height="1" fill="#202020" />
<rect x="23" y="26" width="1" height="1" fill="#202020" />
<rect x="24" y="26" width="1" height="1" fill="#202020" />
<rect x="25" y="26" width="1" height="1" fill="#202020" />
<rect x="26" y="26" width="1" height="1" fill="#202020" />
<rect x="29" y="26" width="1" height="1" fill="#41424A" />
<rect x="30" y="26" width="1" height="1" fill="#41424A" />
<rect x="31" y="26" width="1" height="1" fill="#41424A" />
<rect x="32" y="26" width="1" height="1" fill="#41424A" />
<rect x="33" y="26" width="1" height="1" fill="#41424A" />
<rect x="34" y="26" width="1" height="1" fill="#41424A" />
<rect x="35" y="26" width="1" height="1" fill="#28292D" />
<rect x="36" y="26" width="1" height="1" fill="#28292D" />
<rect x="37" y="26" width="1" height="1" fill="#28292D" />
<rect x="38" y="26" width="1" height="1" fill="#6A331E" />
<rect x="39" y="26" width="1" height="1" fill="#6A331E" />
<rect x="40" y="26" width="1" height="1" fill="#884931" />
<rect x="41" y="26" width="1" height="1" fill="#884931" />
<rect x="42" y="26" width="1" height="1" fill="#28292D" />
<rect x="43" y="26" width="1" height="1" fill="#28292D" />
<rect x="44" y="26" width="1" height="1" fill="#28292D" />
<rect x="45" y="26" width="1" height="1" fill="#28292D" />
<rect x="46" y="26" width="1" height="1" fill="#28292D" />
<rect x="47" y="26" width="1" height="1" fill="#41424A" />
<rect x="49" y="26" width="1" height="1" fill="#908C8C" />
<rect x="50" y="26" width="1" height="1" fill="#D4D4D4" />
<rect x="22" y="27" width="1" height="1" fill="#202020" />
<rect x="23" y="27" width="1" height="1" fill="#202020" />
<rect x="24" y="27" width="1" height="1" fill="#202020" />
<rect x="29" y="27" width="1" height="1" fill="#28292D" />
<rect x="30" y="27" width="1" height="1" fill="#28292D" />
<rect x="31" y="27" width="1" height="1" fill="#41424A" />
<rect x="32" y="27" width="1" height="1" fill="#41424A" />
<rect x="33" y="27" width="1" height="1" fill="#28292D" />
<rect x="34" y="27" width="1" height="1" fill="#28292D" />
<rect x="35" y="27" width="1" height="1" fill="#28292D" />
<rect x="36" y="27" width="1" height="1" fill="#28292D" />
<rect x="40" y="27" width="1" height="1" fill="#6A331E" />
<rect x="41" y="27" width="1" height="1" fill="#6A331E" />
<rect x="42" y="27" width="1" height="1" fill="#28292D" />
<rect x="43" y="27" width="1" height="1" fill="#28292D" />
<rect x="44" y="27" width="1" height="1" fill="#28292D" />
<rect x="45" y="27" width="1" height="1" fill="#28292D" />
<rect x="46" y="27" width="1" height="1" fill="#28292D" />
<rect x="48" y="27" width="1" height="1" fill="#908C8C" />
<rect x="49" y="27" width="1" height="1" fill="#D4D4D4" />
<rect x="29" y="28" width="1" height="1" fill="#28292D" />
<rect x="30" y="28" width="1" height="1" fill="#28292D" />
<rect x="31" y="28" width="1" height="1" fill="#28292D" />
<rect x="32" y="28" width="1" height="1" fill="#28292D" />
<rect x="33" y="28" width="1" height="1" fill="#28292D" />
<rect x="34" y="28" width="1" height="1" fill="#28292D" />
<rect x="45" y="28" width="1" height="1" fill="#28292D" />
<rect x="46" y="28" width="1" height="1" fill="#6A331E" />
<rect x="48" y="28" width="1" height="1" fill="#884931" />
<rect x="29" y="29" width="1" height="1" fill="#6A331E" />
<rect x="30" y="29" width="1" height="1" fill="#6A331E" />
<rect x="31" y="29" width="1" height="1" fill="#6A331E" />
<rect x="32" y="29" width="1" height="1" fill="#6A331E" />
<rect x="33" y="29" width="1" height="1" fill="#6A331E" />
<rect x="45" y="29" width="1" height="1" fill="#6A331E" />
<rect x="46" y="29" width="1" height="1" fill="#6A331E" />
<rect x="47" y="29" width="1" height="1" fill="#884931" />
<rect x="48" y="29" width="1" height="1" fill="#884931" />
<rect x="30" y="30" width="1" height="1" fill="#884931" />
<rect x="31" y="30" width="1" height="1" fill="#884931" />
<rect x="32" y="30" width="1" height="1" fill="#6A331E" />
<rect x="33" y="30" width="1" height="1" fill="#6A331E" />
<rect x="45" y="30" width="1" height="1" fill="#6A331E" />
<rect x="46" y="30" width="1" height="1" fill="#6A331E" />
<rect x="47" y="30" width="1" height="1" fill="#884931" />
<rect x="48" y="30" width="1" height="1" fill="#884931" />
<rect x="30" y="31" width="1" height="1" fill="#884931" />
<rect x="31" y="31" width="1" height="1" fill="#884931" />
<rect x="32" y="31" width="1" height="1" fill="#884931" />
<rect x="33" y="31" width="1" height="1" fill="#6A331E" />
<rect x="45" y="31" width="1" height="1" fill="#6A331E" />
<rect x="46" y="31" width="1" height="1" fill="#6A331E" />
<rect x="47" y="31" width="1" height="1" fill="#884931" />
<rect x="48" y="31" width="1" height="1" fill="#884931" />
<rect x="31" y="32" width="1" height="1" fill="#884931" />
<rect x="32" y="32" width="1" height="1" fill="#884931" />
<rect x="33" y="32" width="1" height="1" fill="#6A331E" />
<rect x="34" y="32" width="1" height="1" fill="#6A331E" />
<rect x="46" y="32" width="1" height="1" fill="#6A331E" />
<rect x="47" y="32" width="1" height="1" fill="#6A331E" />
<rect x="48" y="32" width="1" height="1" fill="#884931" />
<rect x="49" y="32" width="1" height="1" fill="#884931" />
<rect x="32" y="33" width="1" height="1" fill="#884931" />
<rect x="33" y="33" width="1" height="1" fill="#884931" />
<rect x="34" y="33" width="1" height="1" fill="#6A331E" />
<rect x="47" y="33" width="1" height="1" fill="#6A331E" />
<rect x="48" y="33" width="1" height="1" fill="#884931" />
<rect x="49" y="33" width="1" height="1" fill="#884931" />
<rect x="31" y="34" width="1" height="1" fill="#884931" />
<rect x="32" y="34" width="1" height="1" fill="#884931" />
<rect x="33" y="34" width="1" height="1" fill="#6A331E" />
<rect x="34" y="34" width="1" height="1" fill="#6A331E" />
<rect x="47" y="34" width="1" height="1" fill="#6A331E" />
<rect x="48" y="34" width="1" height="1" fill="#6A331E" />
<rect x="49" y="34" width="1" height="1" fill="#884931" />
<rect x="30" y="35" width="1" height="1" fill="#6A331E" />
<rect x="31" y="35" width="1" height="1" fill="#6A331E" />
<rect x="32" y="35" width="1" height="1" fill="#6A331E" />
<rect x="33" y="35" width="1" height="1" fill="#6A331E" />
<rect x="34" y="35" width="1" height="1" fill="#6A331E" />
<rect x="47" y="35" width="1" height="1" fill="#6A331E" />
<rect x="48" y="35" width="1" height="1" fill="#6A331E" />
<rect x="49" y="35" width="1" height="1" fill="#884931" />
<rect x="50" y="35" width="1" height="1" fill="#884931" />
<rect x="51" y="35" width="1" height="1" fill="#884931" />
<rect x="29" y="36" width="1" height="1" fill="#6A331E" />
<rect x="30" y="36" width="1" height="1" fill="#6A331E" />
<rect x="31" y="36" width="1" height="1" fill="#6A331E" />
<rect x="32" y="36" width="1" height="1" fill="#6A331E" />
<rect x="47" y="36" width="1" height="1" fill="#6A331E" />
<rect x="48" y="36" width="1" height="1" fill="#6A331E" />
<rect x="49" y="36" width="1" height="1" fill="#6A331E" />
<rect x="50" y="36" width="1" height="1" fill="#884931" />
<rect x="51" y="36" width="1" height="1" fill="#884931" />
<rect x="52" y="36" width="1" height="1" fill="#884931" />
</svg>