<?xml version="1.0" encoding="UTF-8" ?>
<svg version="1.1" width="59" height="37" xmlns="http://www.w3.org/2000/svg" shape-rendering="crispEdges">
<rect x="41" y="0" width="1" height="1" fill="#4D4F5A" />
<rect x="28" y="1" width="1" height="1" fill="#53732C" />
<rect x="29" y="1" width="1" height="1" fill="#53732C" />
<rect x="30" y="1" width="1" height="1" fill="#53732C" />
<rect x="31" y="1" width="1" height="1" fill="#53732C" />
<rect x="32" y="1" width="1" height="1" fill="#2B3B18" />
<rect x="33" y="1" width="1" height="1" fill="#2B3B18" />
<rect x="39" y="1" width="1" height="1" fill="#41424A" />
<rect x="40" y="1" width="1" height="1" fill="#41424A" />
<rect x="41" y="1" width="1" height="1" fill="#303138" />
<rect x="26" y="2" width="1" height="1" fill="#53732C" />
<rect x="27" y="2" width="1" height="1" fill="#53732C" />
<rect x="28" y="2" width="1" height="1" fill="#53732C" />
<rect x="29" y="2" width="1" height="1" fill="#53732C" />
<rect x="30" y="2" width="1" height="1" fill="#53732C" />
<rect x="31" y="2" width="1" height="1" fill="#2B3B18" />
<rect x="39" y="2" width="1" height="1" fill="#41424A" />
<rect x="40" y="2" width="1" height="1" fill="#303138" />
<rect x="48" y="2" width="1" height="1" fill="#53732C" />
<rect x="49" y="2" width="1" height="1" fill="#2B3B18" />
<rect x="25" y="3" width="1" height="1" fill="#53732C" />
<rect x="26" y="3" width="1" height="1" fill="#53732C" />
<rect x="27" y="3" width="1" height="1" fill="#53732C" />
<rect x="28" y="3" width="1" height="1" fill="#53732C" />
<rect x="29" y="3" width="1" height="1" fill="#53732C" />
<rect x="30" y="3" width="1" height="1" fill="#2B3B18" />
<rect x="32" y="3" width="1" height="1" fill="#2B3B18" />
<rect x="33" y="3" width="1" height="1" fill="#53732C" />
<rect x="38" y="3" width="1" height="1" fill="#41424A" />
<rect x="39" y="3" width="1" height="1" fill="#303138" />
<rect x="40" y="3" width="1" height="1" fill="#303138" />
<rect x="45" y="3" width="1" height="1" fill="#53732C" />
<rect x="46" y="3" width="1" height="1" fill="#53732C" />
<rect x="47" y="3" width="1" height="1" fill="#53732C" />
<rect x="48" y="3" width="1" height="1" fill="#2B3B18" />
<rect x="49" y="3" width="1" height="1" fill="#2B3B18" />
<rect x="25" y="4" width="1" height="1" fill="#53732C" />
<rect x="26" y="4" width="1" height="1" fill="#53732C" />
<rect x="27" y="4" width="1" height="1" fill="#53732C" />
<rect x="28" y="4" width="1" height="1" fill="#53732C" />
<rect x="29" y="4" width="1" height="1" fill="#53732C" />
<rect x="30" y="4" width="1" height="1" fill="#53732C" />
<rect x="33" y="4" width="1" height="1" fill="#53732C" />
<rect x="37" y="4" width="1" height="1" fill="#53732C" />
<rect x="38" y="4" width="1" height="1" fill="#303138" />
<rect x="39" y="4" width="1" height="1" fill="#303138" />
<rect x="40" y="4" width="1" height="1" fill="#53732C" />
<rect x="43" y="4" width="1" height="1" fill="#53732C" />
<rect x="44" y="4" width="1" height="1" fill="#53732C" />
<rect x="45" y="4" width="1" height="1" fill="#53732C" />
<rect x="46" y="4" width="1" height="1" fill="#2B3B18" />
<rect x="47" y="4" width="1" height="1" fill="#2B3B18" />
<rect x="48" y="4" width="1" height="1" fill="#2B3B18" />
<rect x="10" y="5" width="1" height="1" fill="#393737" />
<rect x="11" y="5" width="1" height="1" fill="#393737" />
<rect x="12" y="5" width="1" height="1" fill="#393737" />
<rect x="13" y="5" width="1" height="1" fill="#393737" />
<rect x="24" y="5" width="1" height="1" fill="#53732C" />
<rect x="25" y="5" width="1" height="1" fill="#53732C" />
<rect x="26" y="5" width="1" height="1" fill="#53732C" />
<rect x="27" y="5" width="1" height="1" fill="#53732C" />
<rect x="28" y="5" width="1" height="1" fill="#53732C" />
<rect x="29" y="5" width="1" height="1" fill="#53732C" />
<rect x="30" y="5" width="1" height="1" fill="#53732C" />
<rect x="33" y="5" width="1" height="1" fill="#2B3B18" />
<rect x="34" y="5" width="1" height="1" fill="#53732C" />
<rect x="36" y="5" width="1" height="1" fill="#53732C" />
<rect x="37" y="5" width="1" height="1" fill="#53732C" />
<rect x="38" y="5" width="1" height="1" fill="#53732C" />
<rect x="39" y="5" width="1" height="1" fill="#53732C" />
<rect x="40" y="5" width="1" height="1" fill="#53732C" />
<rect x="41" y="5" width="1" height="1" fill="#53732C" />
<rect x="42" y="5" width="1" height="1" fill="#2B3B18" />
<rect x="43" y="5" width="1" height="1" fill="#53732C" />
<rect x="44" y="5" width="1" height="1" fill="#53732C" />
<rect x="45" y="5" width="1" height="1" fill="#2B3B18" />
<rect x="46" y="5" width="1" height="1" fill="#2B3B18" />
<rect x="47" y="5" width="1" height="1" fill="#2B3B18" />
<rect x="9" y="6" width="1" height="1" fill="#393737" />
<rect x="10" y="6" width="1" height="1" fill="#393737" />
<rect x="11" y="6" width="1" height="1" fill="#393737" />
<rect x="12" y="6" width="1" height="1" fill="#393737" />
<rect x="13" y="6" width="1" height="1" fill="#393737" />
<rect x="14" y="6" width="1" height="1" fill="#393737" />
<rect x="24" y="6" width="1" height="1" fill="#53732C" />
<rect x="25" y="6" width="1" height="1" fill="#53732C" />
<rect x="26" y="6" width="1" height="1" fill="#53732C" />
<rect x="27" y="6" width="1" height="1" fill="#53732C" />
<rect x="28" y="6" width="1" height="1" fill="#53732C" />
<rect x="29" y="6" width="1" height="1" fill="#53732C" />
<rect x="33" y="6" width="1" height="1" fill="#2B3B18" />
<rect x="34" y="6" width="1" height="1" fill="#53732C" />
<rect x="35" y="6" width="1" height="1" fill="#2B3B18" />
<rect x="36" y="6" width="1" height="1" fill="#53732C" />
<rect x="37" y="6" width="1" height="1" fill="#53732C" />
<rect x="38" y="6" width="1" height="1" fill="#53732C" />
<rect x="39" y="6" width="1" height="1" fill="#53732C" />
<rect x="40" y="6" width="1" height="1" fill="#53732C" />
<rect x="41" y="6" width="1" height="1" fill="#2B3B18" />
<rect x="42" y="6" width="1" height="1" fill="#53732C" />
<rect x="43" y="6" width="1" height="1" fill="#53732C" />
<rect x="44" y="6" width="1" height="1" fill="#2B3B18" />
<rect x="45" y="6" width="1" height="1" fill="#2B3B18" />
<rect x="46" y="6" width="1" height="1" fill="#2B3B18" />
<rect x="9" y="7" width="1" height="1" fill="#393737" />
<rect x="10" y="7" width="1" height="1" fill="#393737" />
<rect x="11" y="7" width="1" height="1" fill="#393737" />
<rect x="12" y="7" width="1" height="1" fill="#393737" />
<rect x="13" y="7" width="1" height="1" fill="#393737" />
<rect x="14" y="7" width="1" height="1" fill="#393737" />
<rect x="15" y="7" width="1" height="1" fill="#393737" />
<rect x="23" y="7" width="1" height="1" fill="#53732C" />
<rect x="24" y="7" width="1" height="1" fill="#53732C" />
<rect x="25" y="7" width="1" height="1" fill="#53732C" />
<rect x="26" y="7" width="1" height="1" fill="#53732C" />
<rect x="27" y="7" width="1" height="1" fill="#53732C" />
<rect x="28" y="7" width="1" height="1" fill="#53732C" />
<rect x="29" y="7" width="1" height="1" fill="#53732C" />
<rect x="33" y="7" width="1" height="1" fill="#2B3B18" />
<rect x="34" y="7" width="1" height="1" fill="#2B3B18" />
<rect x="35" y="7" width="1" height="1" fill="#53732C" />
<rect x="36" y="7" width="1" height="1" fill="#ECFF00" />
<rect x="37" y="7" width="1" height="1" fill="#53732C" />
<rect x="38" y="7" width="1" height="1" fill="#2B3B18" />
<rect x="39" y="7" width="1" height="1" fill="#ECFF00" />
<rect x="40" y="7" width="1" height="1" fill="#ECFF00" />
<rect x="41" y="7" width="1" height="1" fill="#2B3B18" />
<rect x="42" y="7" width="1" height="1" fill="#53732C" />
<rect x="43" y="7" width="1" height="1" fill="#2B3B18" />
<rect x="44" y="7" width="1" height="1" fill="#2B3B18" />
<rect x="45" y="7" width="1" height="1" fill="#2B3B18" />
<rect x="9" y="8" width="1" height="1" fill="#393737" />
<rect x="10" y="8" width="1" height="1" fill="#202020" />
<rect x="11" y="8" width="1" height="1" fill="#202020" />
<rect x="12" y="8" width="1" height="1" fill="#202020" />
<rect x="13" y="8" width="1" height="1" fill="#202020" />
<rect x="14" y="8" width="1" height="1" fill="#393737" />
<rect x="15" y="8" width="1" height="1" fill="#393737" />
<rect x="23" y="8" width="1" height="1" fill="#53732C" />
<rect x="24" y="8" width="1" height="1" fill="#53732C" />
<rect x="25" y="8" width="1" height="1" fill="#53732C" />
<rect x="26" y="8" width="1" height="1" fill="#53732C" />
<rect x="27" y="8" width="1" height="1" fill="#53732C" />
<rect x="28" y="8" width="1" height="1" fill="#53732C" />
<rect x="29" y="8" width="1" height="1" fill="#53732C" />
<rect x="34" y="8" width="1" height="1" fill="#2B3B18" />
<rect x="35" y="8" width="1" height="1" fill="#2B3B18" />
<rect x="36" y="8" width="1" height="1" fill="#ECFF00" />
<rect x="37" y="8" width="1" height="1" fill="#2B3B18" />
<rect x="38" y="8" width="1" height="1" fill="#2B3B18" />
<rect x="39" y="8" width="1" height="1" fill="#ECFF00" />
<rect x="40" y="8" width="1" height="1" fill="#ECFF00" />
<rect x="41" y="8" width="1" height="1" fill="#2B3B18" />
<rect x="42" y="8" width="1" height="1" fill="#2B3B18" />
<rect x="43" y="8" width="1" height="1" fill="#2B3B18" />
<rect x="44" y="8" width="1" height="1" fill="#2B3B18" />
<rect x="9" y="9" width="1" height="1" fill="#202020" />
<rect x="10" y="9" width="1" height="1" fill="#202020" />
<rect x="11" y="9" width="1" height="1" fill="#202020" />
<rect x="12" y="9" width="1" height="1" fill="#202020" />
<rect x="13" y="9" width="1" height="1" fill="#202020" />
<rect x="14" y="9" width="1" height="1" fill="#202020" />
<rect x="15" y="9" width="1" height="1" fill="#393737" />
<rect x="16" y="9" width="1" height="1" fill="#393737" />
<rect x="23" y="9" width="1" height="1" fill="#53732C" />
<rect x="24" y="9" width="1" height="1" fill="#53732C" />
<rect x="25" y="9" width="1" height="1" fill="#53732C" />
<rect x="26" y="9" width="1" height="1" fill="#53732C" />
<rect x="27" y="9" width="1" height="1" fill="#53732C" />
<rect x="28" y="9" width="1" height="1" fill="#53732C" />
<rect x="29" y="9" width="1" height="1" fill="#53732C" />
<rect x="34" y="9" width="1" height="1" fill="#2B3B18" />
<rect x="35" y="9" width="1" height="1" fill="#2B3B18" />
<rect x="36" y="9" width="1" height="1" fill="#2B3B18" />
<rect x="37" y="9" width="1" height="1" fill="#2B3B18" />
<rect x="38" y="9" width="1" height="1" fill="#53732C" />
<rect x="39" y="9" width="1" height="1" fill="#53732C" />
<rect x="40" y="9" width="1" height="1" fill="#2B3B18" />
<rect x="41" y="9" width="1" height="1" fill="#2B3B18" />
<rect x="42" y="9" width="1" height="1" fill="#2B3B18" />
<rect x="43" y="9" width="1" height="1" fill="#2B3B18" />
<rect x="10" y="10" width="1" height="1" fill="#202020" />
<rect x="11" y="10" width="1" height="1" fill="#202020" />
<rect x="12" y="10" width="1" height="1" fill="#202020" />
<rect x="13" y="10" width="1" height="1" fill="#202020" />
<rect x="14" y="10" width="1" height="1" fill="#202020" />
<rect x="15" y="10" width="1" height="1" fill="#393737" />
<rect x="16" y="10" width="1" height="1" fill="#393737" />
<rect x="17" y="10" width="1" height="1" fill="#393737" />
<rect x="23" y="10" width="1" height="1" fill="#53732C" />
<rect x="24" y="10" width="1" height="1" fill="#53732C" />
<rect x="25" y="10" width="1" height="1" fill="#53732C" />
<rect x="26" y="10" width="1" height="1" fill="#53732C" />
<rect x="27" y="10" width="1" height="1" fill="#53732C" />
<rect x="28" y="10" width="1" height="1" fill="#53732C" />
<rect x="29" y="10" width="1" height="1" fill="#53732C" />
<rect x="30" y="10" width="1" height="1" fill="#53732C" />
<rect x="35" y="10" width="1" height="1" fill="#2B3B18" />
<rect x="36" y="10" width="1" height="1" fill="#53732C" />
<rect x="37" y="10" width="1" height="1" fill="#53732C" />
<rect x="38" y="10" width="1" height="1" fill="#53732C" />
<rect x="39" y="10" width="1" height="1" fill="#2B3B18" />
<rect x="40" y="10" width="1" height="1" fill="#2B3B18" />
<rect x="41" y="10" width="1" height="1" fill="#2B3B18" />
<rect x="42" y="10" width="1" height="1" fill="#1D290E" />
<rect x="43" y="10" width="1" height="1" fill="#2B3B18" />
<rect x="44" y="10" width="1" height="1" fill="#884931" />
<rect x="45" y="10" width="1" height="1" fill="#884931" />
<rect x="11" y="11" width="1" height="1" fill="#202020" />
<rect x="12" y="11" width="1" height="1" fill="#202020" />
<rect x="13" y="11" width="1" height="1" fill="#202020" />
<rect x="14" y="11" width="1" height="1" fill="#202020" />
<rect x="15" y="11" width="1" height="1" fill="#202020" />
<rect x="16" y="11" width="1" height="1" fill="#393737" />
<rect x="17" y="11" width="1" height="1" fill="#393737" />
<rect x="23" y="11" width="1" height="1" fill="#53732C" />
<rect x="24" y="11" width="1" height="1" fill="#53732C" />
<rect x="25" y="11" width="1" height="1" fill="#53732C" />
<rect x="26" y="11" width="1" height="1" fill="#53732C" />
<rect x="27" y="11" width="1" height="1" fill="#53732C" />
<rect x="28" y="11" width="1" height="1" fill="#53732C" />
<rect x="29" y="11" width="1" height="1" fill="#53732C" />
<rect x="30" y="11" width="1" height="1" fill="#53732C" />
<rect x="31" y="11" width="1" height="1" fill="#53732C" />
<rect x="36" y="11" width="1" height="1" fill="#53732C" />
<rect x="37" y="11" width="1" height="1" fill="#53732C" />
<rect x="38" y="11" width="1" height="1" fill="#2B3B18" />
<rect x="39" y="11" width="1" height="1" fill="#2B3B18" />
<rect x="40" y="11" width="1" height="1" fill="#1D290E" />
<rect x="41" y="11" width="1" height="1" fill="#C9DBB4" />
<rect x="42" y="11" width="1" height="1" fill="#1D290E" />
<rect x="43" y="11" width="1" height="1" fill="#2B3B18" />
<rect x="44" y="11" width="1" height="1" fill="#2B3B18" />
<rect x="45" y="11" width="1" height="1" fill="#53732C" />
<rect x="46" y="11" width="1" height="1" fill="#53732C" />
<rect x="47" y="11" width="1" height="1" fill="#53732C" />
<rect x="48" y="11" width="1" height="1" fill="#53732C" />
<rect x="49" y="11" width="1" height="1" fill="#53732C" />
<rect x="12" y="12" width="1" height="1" fill="#202020" />
<rect x="13" y="12" width="1" height="1" fill="#202020" />
<rect x="14" y="12" width="1" height="1" fill="#202020" />
<rect x="15" y="12" width="1" height="1" fill="#202020" />
<rect x="16" y="12" width="1" height="1" fill="#202020" />
<rect x="17" y="12" width="1" height="1" fill="#393737" />
<rect x="18" y="12" width="1" height="1" fill="#393737" />
<rect x="26" y="12" width="1" height="1" fill="#53732C" />
<rect x="27" y="12" width="1" height="1" fill="#53732C" />
<rect x="28" y="12" width="1" height="1" fill="#53732C" />
<rect x="29" y="12" width="1" height="1" fill="#53732C" />
<rect x="30" y="12" width="1" height="1" fill="#53732C" />
<rect x="31" y="12" width="1" height="1" fill="#53732C" />
<rect x="32" y="12" width="1" height="1" fill="#53732C" />
<rect x="36" y="12" width="1" height="1" fill="#53732C" />
<rect x="37" y="12" width="1" height="1" fill="#2B3B18" />
<rect x="38" y="12" width="1" height="1" fill="#2B3B18" />
<rect x="39" y="12" width="1" height="1" fill="#2B3B18" />
<rect x="40" y="12" width="1" height="1" fill="#1D290E" />
<rect x="41" y="12" width="1" height="1" fill="#1D290E" />
<rect x="42" y="12" width="1" height="1" fill="#2B3B18" />
<rect x="43" y="12" width="1" height="1" fill="#884931" />
<rect x="44" y="12" width="1" height="1" fill="#2B3B18" />
<rect x="45" y="12" width="1" height="1" fill="#2B3B18" />
<rect x="46" y="12" width="1" height="1" fill="#2B3B18" />
<rect x="47" y="12" width="1" height="1" fill="#2B3B18" />
<rect x="48" y="12" width="1" height="1" fill="#2B3B18" />
<rect x="49" y="12" width="1" height="1" fill="#53732C" />
<rect x="50" y="12" width="1" height="1" fill="#53732C" />
<rect x="51" y="12" width="1" height="1" fill="#53732C" />
<rect x="13" y="13" width="1" height="1" fill="#202020" />
<rect x="14" y="13" width="1" height="1" fill="#202020" />
<rect x="15" y="13" width="1" height="1" fill="#202020" />
<rect x="16" y="13" width="1" height="1" fill="#202020" />
<rect x="17" y="13" width="1" height="1" fill="#393737" />
<rect x="18" y="13" width="1" height="1" fill="#393737" />
<rect x="28" y="13" width="1" height="1" fill="#53732C" />
<rect x="29" y="13" width="1" height="1" fill="#53732C" />
<rect x="30" y="13" width="1" height="1" fill="#53732C" />
<rect x="31" y="13" width="1" height="1" fill="#53732C" />
<rect x="32" y="13" width="1" height="1" fill="#53732C" />
<rect x="33" y="13" width="1" height="1" fill="#53732C" />
<rect x="36" y="13" width="1" height="1" fill="#2B3B18" />
<rect x="37" y="13" width="1" height="1" fill="#2B3B18" />
<rect x="38" y="13" width="1" height="1" fill="#2B3B18" />
<rect x="39" y="13" width="1" height="1" fill="#1D290E" />
<rect x="40" y="13" width="1" height="1" fill="#C9DBB4" />
<rect x="41" y="13" width="1" height="1" fill="#2B3B18" />
<rect x="42" y="13" width="1" height="1" fill="#2B3B18" />
<rect x="43" y="13" width="1" height="1" fill="#6A331E" />
<rect x="44" y="13" width="1" height="1" fill="#2B3B18" />
<rect x="45" y="13" width="1" height="1" fill="#2B3B18" />
<rect x="46" y="13" width="1" height="1" fill="#2B3B18" />
<rect x="47" y="13" width="1" height="1" fill="#2B3B18" />
<rect x="48" y="13" width="1" height="1" fill="#2B3B18" />
<rect x="49" y="13" width="1" height="1" fill="#2B3B18" />
<rect x="50" y="13" width="1" height="1" fill="#2B3B18" />
<rect x="51" y="13" width="1" height="1" fill="#53732C" />
<rect x="52" y="13" width="1" height="1" fill="#53732C" />
<rect x="14" y="14" width="1" height="1" fill="#202020" />
<rect x="15" y="14" width="1" height="1" fill="#202020" />
<rect x="16" y="14" width="1" height="1" fill="#202020" />
<rect x="17" y="14" width="1" height="1" fill="#202020" />
<rect x="18" y="14" width="1" height="1" fill="#393737" />
<rect x="19" y="14" width="1" height="1" fill="#393737" />
<rect x="30" y="14" width="1" height="1" fill="#53732C" />
<rect x="31" y="14" width="1" height="1" fill="#53732C" />
<rect x="32" y="14" width="1" height="1" fill="#2B3B18" />
<rect x="33" y="14" width="1" height="1" fill="#2B3B18" />
<rect x="34" y="14" width="1" height="1" fill="#53732C" />
<rect x="35" y="14" width="1" height="1" fill="#6A331E" />
<rect x="36" y="14" width="1" height="1" fill="#2B3B18" />
<rect x="37" y="14" width="1" height="1" fill="#1D290E" />
<rect x="38" y="14" width="1" height="1" fill="#C9DBB4" />
<rect x="39" y="14" width="1" height="1" fill="#1D290E" />
<rect x="40" y="14" width="1" height="1" fill="#2B3B18" />
<rect x="41" y="14" width="1" height="1" fill="#2B3B18" />
<rect x="42" y="14" width="1" height="1" fill="#884931" />
<rect x="43" y="14" width="1" height="1" fill="#884931" />
<rect x="44" y="14" width="1" height="1" fill="#6A331E" />
<rect x="45" y="14" width="1" height="1" fill="#6A331E" />
<rect x="50" y="14" width="1" height="1" fill="#2B3B18" />
<rect x="51" y="14" width="1" height="1" fill="#2B3B18" />
<rect x="52" y="14" width="1" height="1" fill="#53732C" />
<rect x="53" y="14" width="1" height="1" fill="#BBC29C" />
<rect x="15" y="15" width="1" height="1" fill="#202020" />
<rect x="16" y="15" width="1" height="1" fill="#202020" />
<rect x="17" y="15" width="1" height="1" fill="#202020" />
<rect x="18" y="15" width="1" height="1" fill="#202020" />
<rect x="19" y="15" width="1" height="1" fill="#393737" />
<rect x="31" y="15" width="1" height="1" fill="#53732C" />
<rect x="32" y="15" width="1" height="1" fill="#53732C" />
<rect x="33" y="15" width="1" height="1" fill="#2B3B18" />
<rect x="34" y="15" width="1" height="1" fill="#2B3B18" />
<rect x="35" y="15" width="1" height="1" fill="#6A331E" />
<rect x="36" y="15" width="1" height="1" fill="#6A331E" />
<rect x="37" y="15" width="1" height="1" fill="#2B3B18" />
<rect x="38" y="15" width="1" height="1" fill="#41424A" />
<rect x="39" y="15" width="1" height="1" fill="#41424A" />
<rect x="40" y="15" width="1" height="1" fill="#2B3B18" />
<rect x="41" y="15" width="1" height="1" fill="#884931" />
<rect x="42" y="15" width="1" height="1" fill="#884931" />
<rect x="43" y="15" width="1" height="1" fill="#884931" />
<rect x="44" y="15" width="1" height="1" fill="#884931" />
<rect x="45" y="15" width="1" height="1" fill="#6A331E" />
<rect x="51" y="15" width="1" height="1" fill="#2B3B18" />
<rect x="52" y="15" width="1" height="1" fill="#919970" />
<rect x="53" y="15" width="1" height="1" fill="#BBC29C" />
<rect x="54" y="15" width="1" height="1" fill="#BBC29C" />
<rect x="57" y="15" width="1" height="1" fill="#3F1C0E" />
<rect x="58" y="15" width="1" height="1" fill="#3F1C0E" />
<rect x="16" y="16" width="1" height="1" fill="#202020" />
<rect x="17" y="16" width="1" height="1" fill="#202020" />
<rect x="18" y="16" width="1" height="1" fill="#202020" />
<rect x="19" y="16" width="1" height="1" fill="#202020" />
<rect x="20" y="16" width="1" height="1" fill="#393737" />
<rect x="34" y="16" width="1" height="1" fill="#2B3B18" />
<rect x="35" y="16" width="1" height="1" fill="#6A331E" />
<rect x="36" y="16" width="1" height="1" fill="#6A331E" />
<rect x="37" y="16" width="1" height="1" fill="#6A331E" />
<rect x="38" y="16" width="1" height="1" fill="#303138" />
<rect x="39" y="16" width="1" height="1" fill="#41424A" />
<rect x="40" y="16" width="1" height="1" fill="#884931" />
<rect x="41" y="16" width="1" height="1" fill="#884931" />
<rect x="42" y="16" width="1" height="1" fill="#884931" />
<rect x="43" y="16" width="1" height="1" fill="#884931" />
<rect x="44" y="16" width="1" height="1" fill="#884931" />
<rect x="52" y="16" width="1" height="1" fill="#919970" />
<rect x="53" y="16" width="1" height="1" fill="#919970" />
<rect x="54" y="16" width="1" height="1" fill="#BBC29C" />
<rect x="55" y="16" width="1" height="1" fill="#BBC29C" />
<rect x="56" y="16" width="1" height="1" fill="#3F1C0E" />
<rect x="57" y="16" width="1" height="1" fill="#3F1C0E" />
<rect x="58" y="16" width="1" height="1" fill="#3F1C0E" />
<rect x="17" y="17" width="1" height="1" fill="#202020" />
<rect x="18" y="17" width="1" height="1" fill="#202020" />
<rect x="19" y="17" width="1" height="1" fill="#202020" />
<rect x="20" y="17" width="1" height="1" fill="#393737" />
<rect x="35" y="17" width="1" height="1" fill="#6A331E" />
<rect x="36" y="17" width="1" height="1" fill="#6A331E" />
<rect x="37" y="17" width="1" height="1" fill="#6A331E" />
<rect x="38" y="17" width="1" height="1" fill="#6A331E" />
<rect x="39" y="17" width="1" height="1" fill="#303138" />
<rect x="40" y="17" width="1" height="1" fill="#6A331E" />
<rect x="41" y="17" width="1" height="1" fill="#6A331E" />
<rect x="42" y="17" width="1" height="1" fill="#884931" />
<rect x="43" y="17" width="1" height="1" fill="#884931" />
<rect x="44" y="17" width="1" height="1" fill="#884931" />
<rect x="54" y="17" width="1" height="1" fill="#919970" />
<rect x="55" y="17" width="1" height="1" fill="#53732C" />
<rect x="56" y="17" width="1" height="1" fill="#53732C" />
<rect x="57" y="17" width="1" height="1" fill="#53732C" />
<rect x="17" y="18" width="1" height="1" fill="#202020" />
<rect x="18" y="18" width="1" height="1" fill="#202020" />
<rect x="19" y="18" width="1" height="1" fill="#202020" />
<rect x="20" y="18" width="1" height="1" fill="#202020" />
<rect x="21" y="18" width="1" height="1" fill="#393737" />
<rect x="36" y="18" width="1" height="1" fill="#6A331E" />
<rect x="37" y="18" width="1" height="1" fill="#6A331E" />
<rect x="38" y="18" width="1" height="1" fill="#6A331E" />
<rect x="39" y="18" width="1" height="1" fill="#6A331E" />
<rect x="40" y="18" width="1" height="1" fill="#6A331E" />
<rect x="41" y="18" width="1" height="1" fill="#6A331E" />
<rect x="42" y="18" width="1" height="1" fill="#6A331E" />
<rect x="43" y="18" width="1" height="1" fill="#6A331E" />
<rect x="53" y="18" width="1" height="1" fill="#2B3B18" />
<rect x="54" y="18" width="1" height="1" fill="#53732C" />
<rect x="55" y="18" width="1" height="1" fill="#53732C" />
<rect x="56" y="18" width="1" height="1" fill="#53732C" />
<rect x="57" y="18" width="1" height="1" fill="#2B3B18" />
<rect x="18" y="19" width="1" height="1" fill="#202020" />
<rect x="19" y="19" width="1" height="1" fill="#202020" />
<rect x="20" y="19" width="1" height="1" fill="#202020" />
<rect x="21" y="19" width="1" height="1" fill="#202020" />
<rect x="35" y="19" width="1" height="1" fill="#41424A" />
<rect x="36" y="19" width="1" height="1" fill="#41424A" />
<rect x="37" y="19" width="1" height="1" fill="#3F1C0E" />
<rect x="38" y="19" width="1" height="1" fill="#3F1C0E" />
<rect x="39" y="19" width="1" height="1" fill="#3F1C0E" />
<rect x="40" y="19" width="1" height="1" fill="#3F1C0E" />
<rect x="41" y="19" width="1" height="1" fill="#3F1C0E" />
<rect x="42" y="19" width="1" height="1" fill="#3F1C0E" />
<rect x="43" y="19" width="1" height="1" fill="#3F1C0E" />
<rect x="44" y="19" width="1" height="1" fill="#41424A" />
<rect x="45" y="19" width="1" height="1" fill="#41424A" />
<rect x="53" y="19" width="1" height="1" fill="#2B3B18" />
<rect x="54" y="19" width="1" height="1" fill="#2B3B18" />
<rect x="55" y="19" width="1" height="1" fill="#2B3B18" />
<rect x="56" y="19" width="1" height="1" fill="#2B3B18" />
<rect x="19" y="20" width="1" height="1" fill="#202020" />
<rect x="20" y="20" width="1" height="1" fill="#202020" />
<rect x="21" y="20" width="1" height="1" fill="#202020" />
<rect x="34" y="20" width="1" height="1" fill="#41424A" />
<rect x="35" y="20" width="1" height="1" fill="#41424A" />
<rect x="36" y="20" width="1" height="1" fill="#41424A" />
<rect x="37" y="20" width="1" height="1" fill="#6A331E" />
<rect x="38" y="20" width="1" height="1" fill="#6A331E" />
<rect x="39" y="20" width="1" height="1" fill="#6A331E" />
<rect x="40" y="20" width="1" height="1" fill="#6A331E" />
<rect x="41" y="20" width="1" height="1" fill="#6A331E" />
<rect x="42" y="20" width="1" height="1" fill="#6A331E" />
<rect x="43" y="20" width="1" height="1" fill="#6A331E" />
<rect x="44" y="20" width="1" height="1" fill="#41424A" />
<rect x="45" y="20" width="1" height="1" fill="#41424A" />
<rect x="46" y="20" width="1" height="1" fill="#41424A" />
<rect x="47" y="20" width="1" height="1" fill="#41424A" />
<rect x="53" y="20" width="1" height="1" fill="#D4D4D4" />
<rect x="54" y="20" width="1" height="1" fill="#3F1C0E" />
<rect x="55" y="20" width="1" height="1" fill="#2B3B18" />
<rect x="56" y="20" width="1" height="1" fill="#2B3B18" />
<rect x="20" y="21" width="1" height="1" fill="#202020" />
<rect x="21" y="21" width="1" height="1" fill="#202020" />
<rect x="33" y="21" width="1" height="1" fill="#41424A" />
<rect x="34" y="21" width="1" height="1" fill="#41424A" />
<rect x="35" y="21" width="1" height="1" fill="#41424A" />
<rect x="36" y="21" width="1" height="1" fill="#41424A" />
<rect x="37" y="21" width="1" height="1" fill="#41424A" />
<rect x="38" y="21" width="1" height="1" fill="#6A331E" />
<rect x="39" y="21" width="1" height="1" fill="#6A331E" />
<rect x="40" y="21" width="1" height="1" fill="#6A331E" />
<rect x="41" y="21" width="1" height="1" fill="#884931" />
<rect x="42" y="21" width="1" height="1" fill="#884931" />
<rect x="43" y="21" width="1" height="1" fill="#28292D" />
<rect x="44" y="21" width="1" height="1" fill="#28292D" />
<rect x="45" y="21" width="1" height="1" fill="#41424A" />
<rect x="46" y="21" width="1" height="1" fill="#41424A" />
<rect x="47" y="21" width="1" height="1" fill="#41424A" />
<rect x="53" y="21" width="1" height="1" fill="#D4D4D4" />
<rect x="54" y="21" width="1" height="1" fill="#908C8C" />
<rect x="55" y="21" width="1" height="1" fill="#3F1C0E" />
<rect x="21" y="22" width="1" height="1" fill="#202020" />
<rect x="32" y="22" width="1" height="1" fill="#41424A" />
<rect x="33" y="22" width="1" height="1" fill="#41424A" />
<rect x="34" y="22" width="1" height="1" fill="#41424A" />
<rect x="35" y="22" width="1" height="1" fill="#41424A" />
<rect x="36" y="22" width="1" height="1" fill="#41424A" />
<rect x="37" y="22" width="1" height="1" fill="#41424A" />
<rect x="38" y="22" width="1" height="1" fill="#28292D" />
<rect x="39" y="22" width="1" height="1" fill="#6A331E" />
<rect x="40" y="22" width="1" height="1" fill="#884931" />
<rect x="41" y="22" width="1" height="1" fill="#884931" />
<rect x="42" y="22" width="1" height="1" fill="#884931" />
<rect x="43" y="22" width="1" height="1" fill="#28292D" />
<rect x="44" y="22" width="1" height="1" fill="#28292D" />
<rect x="45" y="22" width="1" height="1" fill="#41424A" />
<rect x="46" y="22" width="1" height="1" fill="#41424A" />
<rect x="47" y="22" width="1" height="1" fill="#41424A" />
<rect x="48" y="22" width="1" height="1" fill="#41424A" />
<rect x="52" y="22" width="1" height="1" fill="#D4D4D4" />
<rect x="53" y="22" width="1" height="1" fill="#908C8C" />
<rect x="54" y="22" width="1" height="1" fill="#908C8C" />
<rect x="55" y="22" width="1" height="1" fill="#D4D4D4" />
<rect x="31" y="23" width="1" height="1" fill="#41424A" />
<rect x="32" y="23" width="1" height="1" fill="#41424A" />
<rect x="33" y="23" width="1" height="1" fill="#41424A" />
<rect x="34" y="23" width="1" height="1" fill="#41424A" />
<rect x="35" y="23" width="1" height="1" fill="#41424A" />
<rect x="36" y="23" width="1" height="1" fill="#41424A" />
<rect x="37" y="23" width="1" height="1" fill="#28292D" />
<rect x="38" y="23" width="1" height="1" fill="#28292D" />
<rect x="39" y="23" width="1" height="1" fill="#6A331E" />
<rect x="40" y="23" width="1" height="1" fill="#884931" />
<rect x="41" y="23" width="1" height="1" fill="#884931" />
<rect x="42" y="23" width="1" height="1" fill="#28292D" />
<rect x="43" y="23" width="1" height="1" fill="#28292D" />
<rect x="44" y="23" width="1" height="1" fill="#28292D" />
<rect x="45" y="23" width="1" height="1" fill="#28292D" />
<rect x="46" y="23" width="1" height="1" fill="#41424A" />
<rect x="47" y="23" width="1" height="1" fill="#41424A" />
<rect x="48" y="23" width="1" height="1" fill="#41424A" />
<rect x="52" y="23" width="1" height="1" fill="#D4D4D4" />
<rect x="53" y="23" width="1" height="1" fill="#908C8C" />
<rect x="54" y="23" width="1" height="1" fill="#D4D4D4" />
<rect x="30" y="24" width="1" height="1" fill="#41424A" />
<rect x="31" y="24" width="1" height="1" fill="#41424A" />
<rect x="32" y="24" width="1" height="1" fill="#41424A" />
<rect x="33" y="24" width="1" height="1" fill="#41424A" />
<rect x="34" y="24" width="1" height="1" fill="#41424A" />
<rect x="35" y="24" width="1" height="1" fill="#41424A" />
<rect x="36" y="24" width="1" height="1" fill="#28292D" />
<rect x="37" y="24" width="1" height="1" fill="#28292D" />
<rect x="38" y="24" width="1" height="1" fill="#28292D" />
<rect x="39" y="24" width="1" height="1" fill="#6A331E" />
<rect x="40" y="24" width="1" height="1" fill="#6A331E" />
<rect x="41" y="24" width="1" height="1" fill="#884931" />
<rect x="42" y="24" width="1" height="1" fill="#28292D" />
<rect x="43" y="24" width="1" height="1" fill="#28292D" />
<rect x="44" y="24" width="1" height="1" fill="#28292D" />
<rect x="45" y="24" width="1" height="1" fill="#28292D" />
<rect x="46" y="24" width="1" height="1" fill="#28292D" />
<rect x="47" y="24" width="1" height="1" fill="#41424A" />
<rect x="48" y="24" width="1" height="1" fill="#41424A" />
<rect x="49" y="24" width="1" height="1" fill="#41424A" />
<rect x="52" y="24" width="1" height="1" fill="#908C8C" />
<rect x="53" y="24" width="1" height="1" fill="#D4D4D4" />
<rect x="30" y="25" width="1" height="1" fill="#28292D" />
<rect x="31" y="25" width="1" height="1" fill="#28292D" />
<rect x="32" y="25" width="1" height="1" fill="#41424A" />
<rect x="33" y="25" width="1" height="1" fill="#41424A" />
<rect x="34" y="25" width="1" height="1" fill="#28292D" />
<rect x="35" y="25" width="1" height="1" fill="#28292D" />
<rect x="36" y="25" width="1" height="1" fill="#28292D" />
<rect x="39" y="25" width="1" height="1" fill="#6A331E" />
<rect x="40" y="25" width="1" height="1" fill="#6A331E" />
<rect x="41" y="25" width="1" height="1" fill="#6A331E" />
<rect x="42" y="25" width="1" height="1" fill="#28292D" />
<rect x="43" y="25" width="1" height="1" fill="#28292D" />
<rect x="44" y="25" width="1" height="1" fill="#28292D" />
<rect x="45" y="25" width="1" height="1" fill="#28292D" />
<rect x="46" y="25" width="1" height="1" fill="#28292D" />
<rect x="47" y="25" width="1" height="1" fill="#28292D" />
<rect x="48" y="25" width="1" height="1" fill="#41424A" />
<rect x="49" y="25" width="1" height="1" fill="#41424A" />
<rect x="51" y="25" width="1" height="1" fill="#908C8C" />
<rect x="52" y="25" width="1" height="1" fill="#D4D4D4" />
<rect x="30" y="26" width="1" height="1" fill="#28292D" />
<rect x="31" y="26" width="1" height="1" fill="#28292D" />
<rect x="32" y="26" width="1" height="1" fill="#28292D" />
<rect x="33" y="26" width="1" height="1" fill="#28292D" />
<rect x="34" y="26" width="1" height="1" fill="#28292D" />
<rect x="35" y="26" width="1" height="1" fill="#28292D" />
<rect x="36" y="26" width="1" height="1" fill="#28292D" />
<rect x="39" y="26" width="1" height="1" fill="#6A331E" />
<rect x="40" y="26" width="1" height="1" fill="#6A331E" />
<rect x="41" y="26" width="1" height="1" fill="#6A331E" />
<rect x="43" y="26" width="1" height="1" fill="#28292D" />
<rect x="44" y="26" width="1" height="1" fill="#28292D" />
<rect x="45" y="26" width="1" height="1" fill="#28292D" />
<rect x="46" y="26" width="1" height="1" fill="#28292D" />
<rect x="47" y="26" width="1" height="1" fill="#28292D" />
<rect x="48" y="26" width="1" height="1" fill="#41424A" />
<rect x="49" y="26" width="1" height="1" fill="#41424A" />
<rect x="50" y="26" width="1" height="1" fill="#908C8C" />
<rect x="51" y="26" width="1" height="1" fill="#D4D4D4" />
<rect x="30" y="27" width="1" height="1" fill="#6A331E" />
<rect x="31" y="27" width="1" height="1" fill="#6A331E" />
<rect x="32" y="27" width="1" height="1" fill="#6A331E" />
<rect x="33" y="27" width="1" height="1" fill="#6A331E" />
<rect x="34" y="27" width="1" height="1" fill="#6A331E" />
<rect x="35" y="27" width="1" height="1" fill="#6A331E" />
<rect x="36" y="27" width="1" height="1" fill="#6A331E" />
<rect x="40" y="27" width="1" height="1" fill="#6A331E" />
<rect x="41" y="27" width="1" height="1" fill="#6A331E" />
<rect x="44" y="27" width="1" height="1" fill="#28292D" />
<rect x="45" y="27" width="1" height="1" fill="#28292D" />
<rect x="46" y="27" width="1" height="1" fill="#28292D" />
<rect x="47" y="27" width="1" height="1" fill="#28292D" />
<rect x="48" y="27" width="1" height="1" fill="#884931" />
<rect x="49" y="27" width="1" height="1" fill="#41424A" />
<rect x="50" y="27" width="1" height="1" fill="#D4D4D4" />
<rect x="31" y="28" width="1" height="1" fill="#884931" />
<rect x="32" y="28" width="1" height="1" fill="#6A331E" />
<rect x="33" y="28" width="1" height="1" fill="#6A331E" />
<rect x="34" y="28" width="1" height="1" fill="#6A331E" />
<rect x="35" y="28" width="1" height="1" fill="#6A331E" />
<rect x="40" y="28" width="1" height="1" fill="#6A331E" />
<rect x="46" y="28" width="1" height="1" fill="#28292D" />
<rect x="47" y="28" width="1" height="1" fill="#6A331E" />
<rect x="48" y="28" width="1" height="1" fill="#884931" />
<rect x="49" y="28" width="1" height="1" fill="#884931" />
<rect x="31" y="29" width="1" height="1" fill="#884931" />
<rect x="32" y="29" width="1" height="1" fill="#884931" />
<rect x="33" y="29" width="1" height="1" fill="#6A331E" />
<rect x="34" y="29" width="1" height="1" fill="#6A331E" />
<rect x="35" y="29" width="1" height="1" fill="#6A331E" />
<rect x="46" y="29" width="1" height="1" fill="#6A331E" />
<rect x="47" y="29" width="1" height="1" fill="#6A331E" />
<rect x="48" y="29" width="1" height="1" fill="#884931" />
<rect x="49" y="29" width="1" height="1" fill="#884931" />
<rect x="31" y="30" width="1" height="1" fill="#884931" />
<rect x="32" y="30" width="1" height="1" fill="#884931" />
<rect x="33" y="30" width="1" height="1" fill="#6A331E" />
<rect x="34" y="30" width="1" height="1" fill="#6A331E" />
<rect x="46" y="30" width="1" height="1" fill="#6A331E" />
<rect x="47" y="30" width="1" height="1" fill="#6A331E" />
<rect x="48" y="30" width="1" height="1" fill="#884931" />
<rect x="49" y="30" width="1" height="1" fill="#884931" />
<rect x="31" y="31" width="1" height="1" fill="#884931" />
<rect x="32" y="31" width="1" height="1" fill="#884931" />
<rect x="33" y="31" width="1" height="1" fill="#884931" />
<rect x="34" y="31" width="1" height="1" fill="#6A331E" />
<rect x="46" y="31" width="1" height="1" fill="#6A331E" />
<rect x="47" y="31" width="1" height="1" fill="#6A331E" />
<rect x="48" y="31" width="1" height="1" fill="#884931" />
<rect x="49" y="31" width="1" height="1" fill="#884931" />
<rect x="31" y="32" width="1" height="1" fill="#884931" />
<rect x="32" y="32" width="1" height="1" fill="#884931" />
<rect x="33" y="32" width="1" height="1" fill="#884931" />
<rect x="34" y="32" width="1" height="1" fill="#6A331E" />
<rect x="46" y="32" width="1" height="1" fill="#6A331E" />
<rect x="47" y="32" width="1" height="1" fill="#6A331E" />
<rect x="48" y="32" width="1" height="1" fill="#884931" />
<rect x="49" y="32" width="1" height="1" fill="#884931" />
<rect x="32" y="33" width="1" height="1" fill="#884931" />
<rect x="33" y="33" width="1" height="1" fill="#884931" />
<rect x="34" y="33" width="1" height="1" fill="#6A331E" />
<rect x="47" y="33" width="1" height="1" fill="#6A331E" />
<rect x="48" y="33" width="1" height="1" fill="#884931" />
<rect x="49" y="33" width="1" height="1" fill="#884931" />
<rect x="31" y="34" width="1" height="1" fill="#884931" />
<rect x="32" y="34" width="1" height="1" fill="#884931" />
<rect x="33" y="34" width="1" height="1" fill="#6A331E" />
<rect x="34" y="34" width="1" height="1" fill="#6A331E" />
<rect x="47" y="34" width="1" height="1" fill="#6A331E" />
<rect x="48" y="34" width="1" height="1" fill="#6A331E" />
<rect x="49" y="34" width="1" height="1" fill="#884931" />
<rect x="30" y="35" width="1" height="1" fill="#6A331E" />
<rect x="31" y="35" width="1" height="1" fill="#6A331E" />
<rect x="32" y="35" width="1" height="1" fill="#6A331E" />
<rect x="33" y="35" width="1" height="1" fill="#6A331E" />
<rect x="34" y="35" width="1" height="1" fill="#6A331E" />
<rect x="47" y="35" width="1" height="1" fill="#6A331E" />
<rect x="48" y="35" width="1" height="1" fill="#6A331E" />
<rect x="49" y="35" width="1" height="1" fill="#884931" />
<rect x="50" y="35" width="1" height="1" fill="#884931" />
<rect x="51" y="35" width="1" height="1" fill="#884931" />
<rect x="29" y="36" width="1" height="1" fill="#6A331E" />
<rect x="30" y="36" width="1" height="1" fill="#6A331E" />
<rect x="31" y="36" width="1" height="1" fill="#6A331E" />
<rect x="32" y="36" width="1" height="1" fill="#6A331E" />
<rect x="47" y="36" width="1" height="1" fill="#6A331E" />
<rect x="48" y="36" width="1" height="1" fill="#6A331E" />
<rect x="49" y="36" width="1" height="1" fill="#6A331E" />
<rect x="50" y="36" width="1" height="1" fill="#884931" />
<rect x="51" y="36" width="1" height="1" fill="#884931" />
<rect x="52" y="36" width="1" height="1" fill="#884931" />
</svg>