<?xml version="1.0" encoding="UTF-8" ?>
<svg version="1.1" width="50" height="37" xmlns="http://www.w3.org/2000/svg" shape-rendering="crispEdges">
<rect x="17" y="0" width="1" height="1" fill="#4D4F5A" />
<rect x="17" y="1" width="1" height="1" fill="#303138" />
<rect x="18" y="1" width="1" height="1" fill="#41424A" />
<rect x="19" y="1" width="1" height="1" fill="#41424A" />
<rect x="25" y="1" width="1" height="1" fill="#2B3B18" />
<rect x="26" y="1" width="1" height="1" fill="#2B3B18" />
<rect x="27" y="1" width="1" height="1" fill="#53732C" />
<rect x="28" y="1" width="1" height="1" fill="#53732C" />
<rect x="29" y="1" width="1" height="1" fill="#53732C" />
<rect x="30" y="1" width="1" height="1" fill="#53732C" />
<rect x="9" y="2" width="1" height="1" fill="#2B3B18" />
<rect x="10" y="2" width="1" height="1" fill="#53732C" />
<rect x="18" y="2" width="1" height="1" fill="#303138" />
<rect x="19" y="2" width="1" height="1" fill="#41424A" />
<rect x="27" y="2" width="1" height="1" fill="#2B3B18" />
<rect x="28" y="2" width="1" height="1" fill="#53732C" />
<rect x="29" y="2" width="1" height="1" fill="#53732C" />
<rect x="30" y="2" width="1" height="1" fill="#53732C" />
<rect x="31" y="2" width="1" height="1" fill="#53732C" />
<rect x="32" y="2" width="1" height="1" fill="#53732C" />
<rect x="9" y="3" width="1" height="1" fill="#2B3B18" />
<rect x="10" y="3" width="1" height="1" fill="#2B3B18" />
<rect x="11" y="3" width="1" height="1" fill="#53732C" />
<rect x="12" y="3" width="1" height="1" fill="#53732C" />
<rect x="13" y="3" width="1" height="1" fill="#53732C" />
<rect x="18" y="3" width="1" height="1" fill="#303138" />
<rect x="19" y="3" width="1" height="1" fill="#303138" />
<rect x="20" y="3" width="1" height="1" fill="#41424A" />
<rect x="25" y="3" width="1" height="1" fill="#53732C" />
<rect x="26" y="3" width="1" height="1" fill="#2B3B18" />
<rect x="28" y="3" width="1" height="1" fill="#2B3B18" />
<rect x="29" y="3" width="1" height="1" fill="#53732C" />
<rect x="30" y="3" width="1" height="1" fill="#53732C" />
<rect x="31" y="3" width="1" height="1" fill="#53732C" />
<rect x="32" y="3" width="1" height="1" fill="#53732C" />
<rect x="33" y="3" width="1" height="1" fill="#53732C" />
<rect x="10" y="4" width="1" height="1" fill="#2B3B18" />
<rect x="11" y="4" width="1" height="1" fill="#2B3B18" />
<rect x="12" y="4" width="1" height="1" fill="#2B3B18" />
<rect x="13" y="4" width="1" height="1" fill="#53732C" />
<rect x="14" y="4" width="1" height="1" fill="#53732C" />
<rect x="15" y="4" width="1" height="1" fill="#53732C" />
<rect x="18" y="4" width="1" height="1" fill="#53732C" />
<rect x="19" y="4" width="1" height="1" fill="#303138" />
<rect x="20" y="4" width="1" height="1" fill="#303138" />
<rect x="21" y="4" width="1" height="1" fill="#53732C" />
<rect x="25" y="4" width="1" height="1" fill="#53732C" />
<rect x="28" y="4" width="1" height="1" fill="#53732C" />
<rect x="29" y="4" width="1" height="1" fill="#53732C" />
<rect x="30" y="4" width="1" height="1" fill="#53732C" />
<rect x="31" y="4" width="1" height="1" fill="#53732C" />
<rect x="32" y="4" width="1" height="1" fill="#53732C" />
<rect x="33" y="4" width="1" height="1" fill="#53732C" />
<rect x="11" y="5" width="1" height="1" fill="#2B3B18" />
<rect x="12" y="5" width="1" height="1" fill="#2B3B18" />
<rect x="13" y="5" width="1" height="1" fill="#2B3B18" />
<rect x="14" y="5" width="1" height="1" fill="#53732C" />
<rect x="15" y="5" width="1" height="1" fill="#53732C" />
<rect x="16" y="5" width="1" height="1" fill="#2B3B18" />
<rect x="17" y="5" width="1" height="1" fill="#53732C" />
<rect x="18" y="5" width="1" height="1" fill="#53732C" />
<rect x="19" y="5" width="1" height="1" fill="#53732C" />
<rect x="20" y="5" width="1" height="1" fill="#53732C" />
<rect x="21" y="5" width="1" height="1" fill="#53732C" />
<rect x="22" y="5" width="1" height="1" fill="#53732C" />
<rect x="24" y="5" width="1" height="1" fill="#53732C" />
<rect x="25" y="5" width="1" height="1" fill="#2B3B18" />
<rect x="28" y="5" width="1" height="1" fill="#53732C" />
<rect x="29" y="5" width="1" height="1" fill="#53732C" />
<rect x="30" y="5" width="1" height="1" fill="#53732C" />
<rect x="31" y="5" width="1" height="1" fill="#53732C" />
<rect x="32" y="5" width="1" height="1" fill="#53732C" />
<rect x="33" y="5" width="1" height="1" fill="#53732C" />
<rect x="34" y="5" width="1" height="1" fill="#53732C" />
<rect x="45" y="5" width="1" height="1" fill="#393737" />
<rect x="46" y="5" width="1" height="1" fill="#393737" />
<rect x="47" y="5" width="1" height="1" fill="#393737" />
<rect x="48" y="5" width="1" height="1" fill="#393737" />
<rect x="12" y="6" width="1" height="1" fill="#2B3B18" />
<rect x="13" y="6" width="1" height="1" fill="#2B3B18" />
<rect x="14" y="6" width="1" height="1" fill="#2B3B18" />
<rect x="15" y="6" width="1" height="1" fill="#53732C" />
<rect x="16" y="6" width="1" height="1" fill="#53732C" />
<rect x="17" y="6" width="1" height="1" fill="#2B3B18" />
<rect x="18" y="6" width="1" height="1" fill="#53732C" />
<rect x="19" y="6" width="1" height="1" fill="#53732C" />
<rect x="20" y="6" width="1" height="1" fill="#53732C" />
<rect x="21" y="6" width="1" height="1" fill="#53732C" />
<rect x="22" y="6" width="1" height="1" fill="#53732C" />
<rect x="23" y="6" width="1" height="1" fill="#2B3B18" />
<rect x="24" y="6" width="1" height="1" fill="#53732C" />
<rect x="25" y="6" width="1" height="1" fill="#2B3B18" />
<rect x="29" y="6" width="1" height="1" fill="#53732C" />
<rect x="30" y="6" width="1" height="1" fill="#53732C" />
<rect x="31" y="6" width="1" height="1" fill="#53732C" />
<rect x="32" y="6" width="1" height="1" fill="#53732C" />
<rect x="33" y="6" width="1" height="1" fill="#53732C" />
<rect x="34" y="6" width="1" height="1" fill="#53732C" />
<rect x="44" y="6" width="1" height="1" fill="#393737" />
<rect x="45" y="6" width="1" height="1" fill="#393737" />
<rect x="46" y="6" width="1" height="1" fill="#393737" />
<rect x="47" y="6" width="1" height="1" fill="#393737" />
<rect x="48" y="6" width="1" height="1" fill="#393737" />
<rect x="49" y="6" width="1" height="1" fill="#393737" />
<rect x="13" y="7" width="1" height="1" fill="#2B3B18" />
<rect x="14" y="7" width="1" height="1" fill="#2B3B18" />
<rect x="15" y="7" width="1" height="1" fill="#2B3B18" />
<rect x="16" y="7" width="1" height="1" fill="#53732C" />
<rect x="17" y="7" width="1" height="1" fill="#2B3B18" />
<rect x="18" y="7" width="1" height="1" fill="#ECFF00" />
<rect x="19" y="7" width="1" height="1" fill="#ECFF00" />
<rect x="20" y="7" width="1" height="1" fill="#2B3B18" />
<rect x="21" y="7" width="1" height="1" fill="#53732C" />
<rect x="22" y="7" width="1" height="1" fill="#ECFF00" />
<rect x="23" y="7" width="1" height="1" fill="#53732C" />
<rect x="24" y="7" width="1" height="1" fill="#2B3B18" />
<rect x="25" y="7" width="1" height="1" fill="#2B3B18" />
<rect x="29" y="7" width="1" height="1" fill="#53732C" />
<rect x="30" y="7" width="1" height="1" fill="#53732C" />
<rect x="31" y="7" width="1" height="1" fill="#53732C" />
<rect x="32" y="7" width="1" height="1" fill="#53732C" />
<rect x="33" y="7" width="1" height="1" fill="#53732C" />
<rect x="34" y="7" width="1" height="1" fill="#53732C" />
<rect x="35" y="7" width="1" height="1" fill="#53732C" />
<rect x="43" y="7" width="1" height="1" fill="#393737" />
<rect x="44" y="7" width="1" height="1" fill="#393737" />
<rect x="45" y="7" width="1" height="1" fill="#393737" />
<rect x="46" y="7" width="1" height="1" fill="#393737" />
<rect x="47" y="7" width="1" height="1" fill="#393737" />
<rect x="48" y="7" width="1" height="1" fill="#393737" />
<rect x="49" y="7" width="1" height="1" fill="#393737" />
<rect x="14" y="8" width="1" height="1" fill="#2B3B18" />
<rect x="15" y="8" width="1" height="1" fill="#2B3B18" />
<rect x="16" y="8" width="1" height="1" fill="#2B3B18" />
<rect x="17" y="8" width="1" height="1" fill="#2B3B18" />
<rect x="18" y="8" width="1" height="1" fill="#ECFF00" />
<rect x="19" y="8" width="1" height="1" fill="#ECFF00" />
<rect x="20" y="8" width="1" height="1" fill="#2B3B18" />
<rect x="21" y="8" width="1" height="1" fill="#2B3B18" />
<rect x="22" y="8" width="1" height="1" fill="#ECFF00" />
<rect x="23" y="8" width="1" height="1" fill="#2B3B18" />
<rect x="24" y="8" width="1" height="1" fill="#2B3B18" />
<rect x="29" y="8" width="1" height="1" fill="#53732C" />
<rect x="30" y="8" width="1" height="1" fill="#53732C" />
<rect x="31" y="8" width="1" height="1" fill="#53732C" />
<rect x="32" y="8" width="1" height="1" fill="#53732C" />
<rect x="33" y="8" width="1" height="1" fill="#53732C" />
<rect x="34" y="8" width="1" height="1" fill="#53732C" />
<rect x="35" y="8" width="1" height="1" fill="#53732C" />
<rect x="43" y="8" width="1" height="1" fill="#393737" />
<rect x="44" y="8" width="1" height="1" fill="#393737" />
<rect x="45" y="8" width="1" height="1" fill="#202020" />
<rect x="46" y="8" width="1" height="1" fill="#202020" />
<rect x="47" y="8" width="1" height="1" fill="#202020" />
<rect x="48" y="8" width="1" height="1" fill="#202020" />
<rect x="49" y="8" width="1" height="1" fill="#393737" />
<rect x="15" y="9" width="1" height="1" fill="#2B3B18" />
<rect x="16" y="9" width="1" height="1" fill="#2B3B18" />
<rect x="17" y="9" width="1" height="1" fill="#2B3B18" />
<rect x="18" y="9" width="1" height="1" fill="#2B3B18" />
<rect x="19" y="9" width="1" height="1" fill="#53732C" />
<rect x="20" y="9" width="1" height="1" fill="#53732C" />
<rect x="21" y="9" width="1" height="1" fill="#2B3B18" />
<rect x="22" y="9" width="1" height="1" fill="#2B3B18" />
<rect x="23" y="9" width="1" height="1" fill="#2B3B18" />
<rect x="24" y="9" width="1" height="1" fill="#2B3B18" />
<rect x="29" y="9" width="1" height="1" fill="#53732C" />
<rect x="30" y="9" width="1" height="1" fill="#53732C" />
<rect x="31" y="9" width="1" height="1" fill="#53732C" />
<rect x="32" y="9" width="1" height="1" fill="#53732C" />
<rect x="33" y="9" width="1" height="1" fill="#53732C" />
<rect x="34" y="9" width="1" height="1" fill="#53732C" />
<rect x="35" y="9" width="1" height="1" fill="#53732C" />
<rect x="42" y="9" width="1" height="1" fill="#393737" />
<rect x="43" y="9" width="1" height="1" fill="#393737" />
<rect x="44" y="9" width="1" height="1" fill="#202020" />
<rect x="45" y="9" width="1" height="1" fill="#202020" />
<rect x="46" y="9" width="1" height="1" fill="#202020" />
<rect x="47" y="9" width="1" height="1" fill="#202020" />
<rect x="48" y="9" width="1" height="1" fill="#202020" />
<rect x="49" y="9" width="1" height="1" fill="#202020" />
<rect x="13" y="10" width="1" height="1" fill="#884931" />
<rect x="14" y="10" width="1" height="1" fill="#884931" />
<rect x="15" y="10" width="1" height="1" fill="#2B3B18" />
<rect x="16" y="10" width="1" height="1" fill="#1D290E" />
<rect x="17" y="10" width="1" height="1" fill="#2B3B18" />
<rect x="18" y="10" width="1" height="1" fill="#2B3B18" />
<rect x="19" y="10" width="1" height="1" fill="#2B3B18" />
<rect x="20" y="10" width="1" height="1" fill="#53732C" />
<rect x="21" y="10" width="1" height="1" fill="#53732C" />
<rect x="22" y="10" width="1" height="1" fill="#53732C" />
<rect x="23" y="10" width="1" height="1" fill="#2B3B18" />
<rect x="28" y="10" width="1" height="1" fill="#53732C" />
<rect x="29" y="10" width="1" height="1" fill="#53732C" />
<rect x="30" y="10" width="1" height="1" fill="#53732C" />
<rect x="31" y="10" width="1" height="1" fill="#53732C" />
<rect x="32" y="10" width="1" height="1" fill="#53732C" />
<rect x="33" y="10" width="1" height="1" fill="#53732C" />
<rect x="34" y="10" width="1" height="1" fill="#53732C" />
<rect x="35" y="10" width="1" height="1" fill="#53732C" />
<rect x="41" y="10" width="1" height="1" fill="#393737" />
<rect x="42" y="10" width="1" height="1" fill="#393737" />
<rect x="43" y="10" width="1" height="1" fill="#393737" />
<rect x="44" y="10" width="1" height="1" fill="#202020" />
<rect x="45" y="10" width="1" height="1" fill="#202020" />
<rect x="46" y="10" width="1" height="1" fill="#202020" />
<rect x="47" y="10" width="1" height="1" fill="#202020" />
<rect x="48" y="10" width="1" height="1" fill="#202020" />
<rect x="9" y="11" width="1" height="1" fill="#53732C" />
<rect x="10" y="11" width="1" height="1" fill="#53732C" />
<rect x="11" y="11" width="1" height="1" fill="#53732C" />
<rect x="12" y="11" width="1" height="1" fill="#53732C" />
<rect x="13" y="11" width="1" height="1" fill="#53732C" />
<rect x="14" y="11" width="1" height="1" fill="#2B3B18" />
<rect x="15" y="11" width="1" height="1" fill="#2B3B18" />
<rect x="16" y="11" width="1" height="1" fill="#1D290E" />
<rect x="17" y="11" width="1" height="1" fill="#C9DBB4" />
<rect x="18" y="11" width="1" height="1" fill="#1D290E" />
<rect x="19" y="11" width="1" height="1" fill="#2B3B18" />
<rect x="20" y="11" width="1" height="1" fill="#2B3B18" />
<rect x="21" y="11" width="1" height="1" fill="#53732C" />
<rect x="22" y="11" width="1" height="1" fill="#53732C" />
<rect x="27" y="11" width="1" height="1" fill="#53732C" />
<rect x="28" y="11" width="1" height="1" fill="#53732C" />
<rect x="29" y="11" width="1" height="1" fill="#53732C" />
<rect x="30" y="11" width="1" height="1" fill="#53732C" />
<rect x="31" y="11" width="1" height="1" fill="#53732C" />
<rect x="32" y="11" width="1" height="1" fill="#53732C" />
<rect x="33" y="11" width="1" height="1" fill="#53732C" />
<rect x="34" y="11" width="1" height="1" fill="#53732C" />
<rect x="35" y="11" width="1" height="1" fill="#53732C" />
<rect x="41" y="11" width="1" height="1" fill="#393737" />
<rect x="42" y="11" width="1" height="1" fill="#393737" />
<rect x="43" y="11" width="1" height="1" fill="#202020" />
<rect x="44" y="11" width="1" height="1" fill="#202020" />
<rect x="45" y="11" width="1" height="1" fill="#202020" />
<rect x="46" y="11" width="1" height="1" fill="#202020" />
<rect x="47" y="11" width="1" height="1" fill="#202020" />
<rect x="7" y="12" width="1" height="1" fill="#53732C" />
<rect x="8" y="12" width="1" height="1" fill="#53732C" />
<rect x="9" y="12" width="1" height="1" fill="#53732C" />
<rect x="10" y="12" width="1" height="1" fill="#2B3B18" />
<rect x="11" y="12" width="1" height="1" fill="#2B3B18" />
<rect x="12" y="12" width="1" height="1" fill="#2B3B18" />
<rect x="13" y="12" width="1" height="1" fill="#2B3B18" />
<rect x="14" y="12" width="1" height="1" fill="#2B3B18" />
<rect x="15" y="12" width="1" height="1" fill="#884931" />
<rect x="16" y="12" width="1" height="1" fill="#2B3B18" />
<rect x="17" y="12" width="1" height="1" fill="#1D290E" />
<rect x="18" y="12" width="1" height="1" fill="#1D290E" />
<rect x="19" y="12" width="1" height="1" fill="#2B3B18" />
<rect x="20" y="12" width="1" height="1" fill="#2B3B18" />
<rect x="21" y="12" width="1" height="1" fill="#2B3B18" />
<rect x="22" y="12" width="1" height="1" fill="#53732C" />
<rect x="26" y="12" width="1" height="1" fill="#53732C" />
<rect x="27" y="12" width="1" height="1" fill="#53732C" />
<rect x="28" y="12" width="1" height="1" fill="#53732C" />
<rect x="29" y="12" width="1" height="1" fill="#53732C" />
<rect x="30" y="12" width="1" height="1" fill="#53732C" />
<rect x="31" y="12" width="1" height="1" fill="#53732C" />
<rect x="32" y="12" width="1" height="1" fill="#53732C" />
<rect x="40" y="12" width="1" height="1" fill="#393737" />
<rect x="41" y="12" width="1" height="1" fill="#393737" />
<rect x="42" y="12" width="1" height="1" fill="#202020" />
<rect x="43" y="12" width="1" height="1" fill="#202020" />
<rect x="44" y="12" width="1" height="1" fill="#202020" />
<rect x="45" y="12" width="1" height="1" fill="#202020" />
<rect x="46" y="12" width="1" height="1" fill="#202020" />
<rect x="6" y="13" width="1" height="1" fill="#53732C" />
<rect x="7" y="13" width="1" height="1" fill="#53732C" />
<rect x="8" y="13" width="1" height="1" fill="#2B3B18" />
<rect x="9" y="13" width="1" height="1" fill="#2B3B18" />
<rect x="10" y="13" width="1" height="1" fill="#2B3B18" />
<rect x="11" y="13" width="1" height="1" fill="#2B3B18" />
<rect x="12" y="13" width="1" height="1" fill="#2B3B18" />
<rect x="13" y="13" width="1" height="1" fill="#2B3B18" />
<rect x="14" y="13" width="1" height="1" fill="#2B3B18" />
<rect x="15" y="13" width="1" height="1" fill="#6A331E" />
<rect x="16" y="13" width="1" height="1" fill="#2B3B18" />
<rect x="17" y="13" width="1" height="1" fill="#2B3B18" />
<rect x="18" y="13" width="1" height="1" fill="#C9DBB4" />
<rect x="19" y="13" width="1" height="1" fill="#1D290E" />
<rect x="20" y="13" width="1" height="1" fill="#2B3B18" />
<rect x="21" y="13" width="1" height="1" fill="#2B3B18" />
<rect x="22" y="13" width="1" height="1" fill="#2B3B18" />
<rect x="25" y="13" width="1" height="1" fill="#53732C" />
<rect x="26" y="13" width="1" height="1" fill="#53732C" />
<rect x="27" y="13" width="1" height="1" fill="#53732C" />
<rect x="28" y="13" width="1" height="1" fill="#53732C" />
<rect x="29" y="13" width="1" height="1" fill="#53732C" />
<rect x="30" y="13" width="1" height="1" fill="#53732C" />
<rect x="40" y="13" width="1" height="1" fill="#393737" />
<rect x="41" y="13" width="1" height="1" fill="#393737" />
<rect x="42" y="13" width="1" height="1" fill="#202020" />
<rect x="43" y="13" width="1" height="1" fill="#202020" />
<rect x="44" y="13" width="1" height="1" fill="#202020" />
<rect x="45" y="13" width="1" height="1" fill="#202020" />
<rect x="5" y="14" width="1" height="1" fill="#BBC29C" />
<rect x="6" y="14" width="1" height="1" fill="#53732C" />
<rect x="7" y="14" width="1" height="1" fill="#2B3B18" />
<rect x="8" y="14" width="1" height="1" fill="#2B3B18" />
<rect x="13" y="14" width="1" height="1" fill="#6A331E" />
<rect x="14" y="14" width="1" height="1" fill="#6A331E" />
<rect x="15" y="14" width="1" height="1" fill="#884931" />
<rect x="16" y="14" width="1" height="1" fill="#884931" />
<rect x="17" y="14" width="1" height="1" fill="#2B3B18" />
<rect x="18" y="14" width="1" height="1" fill="#2B3B18" />
<rect x="19" y="14" width="1" height="1" fill="#1D290E" />
<rect x="20" y="14" width="1" height="1" fill="#C9DBB4" />
<rect x="21" y="14" width="1" height="1" fill="#1D290E" />
<rect x="22" y="14" width="1" height="1" fill="#2B3B18" />
<rect x="23" y="14" width="1" height="1" fill="#6A331E" />
<rect x="24" y="14" width="1" height="1" fill="#53732C" />
<rect x="25" y="14" width="1" height="1" fill="#2B3B18" />
<rect x="26" y="14" width="1" height="1" fill="#2B3B18" />
<rect x="27" y="14" width="1" height="1" fill="#53732C" />
<rect x="28" y="14" width="1" height="1" fill="#53732C" />
<rect x="39" y="14" width="1" height="1" fill="#393737" />
<rect x="40" y="14" width="1" height="1" fill="#393737" />
<rect x="41" y="14" width="1" height="1" fill="#202020" />
<rect x="42" y="14" width="1" height="1" fill="#202020" />
<rect x="43" y="14" width="1" height="1" fill="#202020" />
<rect x="44" y="14" width="1" height="1" fill="#202020" />
<rect x="0" y="15" width="1" height="1" fill="#3F1C0E" />
<rect x="1" y="15" width="1" height="1" fill="#3F1C0E" />
<rect x="4" y="15" width="1" height="1" fill="#BBC29C" />
<rect x="5" y="15" width="1" height="1" fill="#BBC29C" />
<rect x="6" y="15" width="1" height="1" fill="#919970" />
<rect x="7" y="15" width="1" height="1" fill="#2B3B18" />
<rect x="13" y="15" width="1" height="1" fill="#6A331E" />
<rect x="14" y="15" width="1" height="1" fill="#884931" />
<rect x="15" y="15" width="1" height="1" fill="#884931" />
<rect x="16" y="15" width="1" height="1" fill="#884931" />
<rect x="17" y="15" width="1" height="1" fill="#884931" />
<rect x="18" y="15" width="1" height="1" fill="#2B3B18" />
<rect x="19" y="15" width="1" height="1" fill="#41424A" />
<rect x="20" y="15" width="1" height="1" fill="#41424A" />
<rect x="21" y="15" width="1" height="1" fill="#2B3B18" />
<rect x="22" y="15" width="1" height="1" fill="#6A331E" />
<rect x="23" y="15" width="1" height="1" fill="#6A331E" />
<rect x="24" y="15" width="1" height="1" fill="#2B3B18" />
<rect x="25" y="15" width="1" height="1" fill="#2B3B18" />
<rect x="26" y="15" width="1" height="1" fill="#53732C" />
<rect x="27" y="15" width="1" height="1" fill="#53732C" />
<rect x="39" y="15" width="1" height="1" fill="#393737" />
<rect x="40" y="15" width="1" height="1" fill="#202020" />
<rect x="41" y="15" width="1" height="1" fill="#202020" />
<rect x="42" y="15" width="1" height="1" fill="#202020" />
<rect x="43" y="15" width="1" height="1" fill="#202020" />
<rect x="0" y="16" width="1" height="1" fill="#3F1C0E" />
<rect x="1" y="16" width="1" height="1" fill="#3F1C0E" />
<rect x="2" y="16" width="1" height="1" fill="#3F1C0E" />
<rect x="3" y="16" width="1" height="1" fill="#BBC29C" />
<rect x="4" y="16" width="1" height="1" fill="#BBC29C" />
<rect x="5" y="16" width="1" height="1" fill="#919970" />
<rect x="6" y="16" width="1" height="1" fill="#919970" />
<rect x="14" y="16" width="1" height="1" fill="#884931" />
<rect x="15" y="16" width="1" height="1" fill="#884931" />
<rect x="16" y="16" width="1" height="1" fill="#884931" />
<rect x="17" y="16" width="1" height="1" fill="#884931" />
<rect x="18" y="16" width="1" height="1" fill="#884931" />
<rect x="19" y="16" width="1" height="1" fill="#41424A" />
<rect x="20" y="16" width="1" height="1" fill="#303138" />
<rect x="21" y="16" width="1" height="1" fill="#6A331E" />
<rect x="22" y="16" width="1" height="1" fill="#6A331E" />
<rect x="23" y="16" width="1" height="1" fill="#6A331E" />
<rect x="24" y="16" width="1" height="1" fill="#2B3B18" />
<rect x="38" y="16" width="1" height="1" fill="#393737" />
<rect x="39" y="16" width="1" height="1" fill="#202020" />
<rect x="40" y="16" width="1" height="1" fill="#202020" />
<rect x="41" y="16" width="1" height="1" fill="#202020" />
<rect x="42" y="16" width="1" height="1" fill="#202020" />
<rect x="1" y="17" width="1" height="1" fill="#53732C" />
<rect x="2" y="17" width="1" height="1" fill="#53732C" />
<rect x="3" y="17" width="1" height="1" fill="#53732C" />
<rect x="4" y="17" width="1" height="1" fill="#919970" />
<rect x="14" y="17" width="1" height="1" fill="#884931" />
<rect x="15" y="17" width="1" height="1" fill="#884931" />
<rect x="16" y="17" width="1" height="1" fill="#884931" />
<rect x="17" y="17" width="1" height="1" fill="#6A331E" />
<rect x="18" y="17" width="1" height="1" fill="#6A331E" />
<rect x="19" y="17" width="1" height="1" fill="#303138" />
<rect x="20" y="17" width="1" height="1" fill="#6A331E" />
<rect x="21" y="17" width="1" height="1" fill="#6A331E" />
<rect x="22" y="17" width="1" height="1" fill="#6A331E" />
<rect x="23" y="17" width="1" height="1" fill="#6A331E" />
<rect x="38" y="17" width="1" height="1" fill="#393737" />
<rect x="39" y="17" width="1" height="1" fill="#202020" />
<rect x="40" y="17" width="1" height="1" fill="#202020" />
<rect x="41" y="17" width="1" height="1" fill="#202020" />
<rect x="1" y="18" width="1" height="1" fill="#2B3B18" />
<rect x="2" y="18" width="1" height="1" fill="#53732C" />
<rect x="3" y="18" width="1" height="1" fill="#53732C" />
<rect x="4" y="18" width="1" height="1" fill="#53732C" />
<rect x="5" y="18" width="1" height="1" fill="#2B3B18" />
<rect x="15" y="18" width="1" height="1" fill="#6A331E" />
<rect x="16" y="18" width="1" height="1" fill="#6A331E" />
<rect x="17" y="18" width="1" height="1" fill="#6A331E" />
<rect x="18" y="18" width="1" height="1" fill="#6A331E" />
<rect x="19" y="18" width="1" height="1" fill="#6A331E" />
<rect x="20" y="18" width="1" height="1" fill="#6A331E" />
<rect x="21" y="18" width="1" height="1" fill="#6A331E" />
<rect x="22" y="18" width="1" height="1" fill="#6A331E" />
<rect x="37" y="18" width="1" height="1" fill="#393737" />
<rect x="38" y="18" width="1" height="1" fill="#202020" />
<rect x="39" y="18" width="1" height="1" fill="#202020" />
<rect x="40" y="18" width="1" height="1" fill="#202020" />
<rect x="41" y="18" width="1" height="1" fill="#202020" />
<rect x="2" y="19" width="1" height="1" fill="#2B3B18" />
<rect x="3" y="19" width="1" height="1" fill="#2B3B18" />
<rect x="4" y="19" width="1" height="1" fill="#2B3B18" />
<rect x="5" y="19" width="1" height="1" fill="#2B3B18" />
<rect x="13" y="19" width="1" height="1" fill="#41424A" />
<rect x="14" y="19" width="1" height="1" fill="#41424A" />
<rect x="15" y="19" width="1" height="1" fill="#3F1C0E" />
<rect x="16" y="19" width="1" height="1" fill="#3F1C0E" />
<rect x="17" y="19" width="1" height="1" fill="#3F1C0E" />
<rect x="18" y="19" width="1" height="1" fill="#3F1C0E" />
<rect x="19" y="19" width="1" height="1" fill="#3F1C0E" />
<rect x="20" y="19" width="1" height="1" fill="#3F1C0E" />
<rect x="21" y="19" width="1" height="1" fill="#3F1C0E" />
<rect x="22" y="19" width="1" height="1" fill="#41424A" />
<rect x="23" y="19" width="1" height="1" fill="#41424A" />
<rect x="37" y="19" width="1" height="1" fill="#202020" />
<rect x="38" y="19" width="1" height="1" fill="#202020" />
<rect x="39" y="19" width="1" height="1" fill="#202020" />
<rect x="40" y="19" width="1" height="1" fill="#202020" />
<rect x="2" y="20" width="1" height="1" fill="#2B3B18" />
<rect x="3" y="20" width="1" height="1" fill="#2B3B18" />
<rect x="4" y="20" width="1" height="1" fill="#3F1C0E" />
<rect x="5" y="20" width="1" height="1" fill="#D4D4D4" />
<rect x="11" y="20" width="1" height="1" fill="#41424A" />
<rect x="12" y="20" width="1" height="1" fill="#41424A" />
<rect x="13" y="20" width="1" height="1" fill="#41424A" />
<rect x="14" y="20" width="1" height="1" fill="#41424A" />
<rect x="15" y="20" width="1" height="1" fill="#6A331E" />
<rect x="16" y="20" width="1" height="1" fill="#6A331E" />
<rect x="17" y="20" width="1" height="1" fill="#6A331E" />
<rect x="18" y="20" width="1" height="1" fill="#6A331E" />
<rect x="19" y="20" width="1" height="1" fill="#6A331E" />
<rect x="20" y="20" width="1" height="1" fill="#6A331E" />
<rect x="21" y="20" width="1" height="1" fill="#6A331E" />
<rect x="22" y="20" width="1" height="1" fill="#41424A" />
<rect x="23" y="20" width="1" height="1" fill="#41424A" />
<rect x="24" y="20" width="1" height="1" fill="#41424A" />
<rect x="37" y="20" width="1" height="1" fill="#202020" />
<rect x="38" y="20" width="1" height="1" fill="#202020" />
<rect x="39" y="20" width="1" height="1" fill="#202020" />
<rect x="3" y="21" width="1" height="1" fill="#3F1C0E" />
<rect x="4" y="21" width="1" height="1" fill="#908C8C" />
<rect x="5" y="21" width="1" height="1" fill="#D4D4D4" />
<rect x="11" y="21" width="1" height="1" fill="#41424A" />
<rect x="12" y="21" width="1" height="1" fill="#41424A" />
<rect x="13" y="21" width="1" height="1" fill="#41424A" />
<rect x="14" y="21" width="1" height="1" fill="#28292D" />
<rect x="15" y="21" width="1" height="1" fill="#28292D" />
<rect x="16" y="21" width="1" height="1" fill="#884931" />
<rect x="17" y="21" width="1" height="1" fill="#884931" />
<rect x="18" y="21" width="1" height="1" fill="#6A331E" />
<rect x="19" y="21" width="1" height="1" fill="#6A331E" />
<rect x="20" y="21" width="1" height="1" fill="#6A331E" />
<rect x="21" y="21" width="1" height="1" fill="#41424A" />
<rect x="22" y="21" width="1" height="1" fill="#41424A" />
<rect x="23" y="21" width="1" height="1" fill="#41424A" />
<rect x="24" y="21" width="1" height="1" fill="#41424A" />
<rect x="25" y="21" width="1" height="1" fill="#41424A" />
<rect x="37" y="21" width="1" height="1" fill="#202020" />
<rect x="38" y="21" width="1" height="1" fill="#202020" />
<rect x="3" y="22" width="1" height="1" fill="#D4D4D4" />
<rect x="4" y="22" width="1" height="1" fill="#908C8C" />
<rect x="5" y="22" width="1" height="1" fill="#908C8C" />
<rect x="6" y="22" width="1" height="1" fill="#D4D4D4" />
<rect x="10" y="22" width="1" height="1" fill="#41424A" />
<rect x="11" y="22" width="1" height="1" fill="#41424A" />
<rect x="12" y="22" width="1" height="1" fill="#41424A" />
<rect x="13" y="22" width="1" height="1" fill="#41424A" />
<rect x="14" y="22" width="1" height="1" fill="#28292D" />
<rect x="15" y="22" width="1" height="1" fill="#28292D" />
<rect x="16" y="22" width="1" height="1" fill="#884931" />
<rect x="17" y="22" width="1" height="1" fill="#884931" />
<rect x="18" y="22" width="1" height="1" fill="#884931" />
<rect x="19" y="22" width="1" height="1" fill="#6A331E" />
<rect x="20" y="22" width="1" height="1" fill="#28292D" />
<rect x="21" y="22" width="1" height="1" fill="#41424A" />
<rect x="22" y="22" width="1" height="1" fill="#41424A" />
<rect x="23" y="22" width="1" height="1" fill="#41424A" />
<rect x="24" y="22" width="1" height="1" fill="#41424A" />
<rect x="25" y="22" width="1" height="1" fill="#41424A" />
<rect x="26" y="22" width="1" height="1" fill="#41424A" />
<rect x="37" y="22" width="1" height="1" fill="#202020" />
<rect x="4" y="23" width="1" height="1" fill="#D4D4D4" />
<rect x="5" y="23" width="1" height="1" fill="#908C8C" />
<rect x="6" y="23" width="1" height="1" fill="#D4D4D4" />
<rect x="10" y="23" width="1" height="1" fill="#41424A" />
<rect x="11" y="23" width="1" height="1" fill="#41424A" />
<rect x="12" y="23" width="1" height="1" fill="#41424A" />
<rect x="13" y="23" width="1" height="1" fill="#28292D" />
<rect x="14" y="23" width="1" height="1" fill="#28292D" />
<rect x="15" y="23" width="1" height="1" fill="#28292D" />
<rect x="16" y="23" width="1" height="1" fill="#28292D" />
<rect x="17" y="23" width="1" height="1" fill="#884931" />
<rect x="18" y="23" width="1" height="1" fill="#884931" />
<rect x="19" y="23" width="1" height="1" fill="#6A331E" />
<rect x="20" y="23" width="1" height="1" fill="#28292D" />
<rect x="21" y="23" width="1" height="1" fill="#28292D" />
<rect x="22" y="23" width="1" height="1" fill="#41424A" />
<rect x="23" y="23" width="1" height="1" fill="#41424A" />
<rect x="24" y="23" width="1" height="1" fill="#41424A" />
<rect x="25" y="23" width="1" height="1" fill="#41424A" />
<rect x="26" y="23" width="1" height="1" fill="#41424A" />
<rect x="27" y="23" width="1" height="1" fill="#41424A" />
<rect x="5" y="24" width="1" height="1" fill="#D4D4D4" />
<rect x="6" y="24" width="1" height="1" fill="#908C8C" />
<rect x="9" y="24" width="1" height="1" fill="#41424A" />
<rect x="10" y="24" width="1" height="1" fill="#41424A" />
<rect x="11" y="24" width="1" height="1" fill="#41424A" />
<rect x="12" y="24" width="1" height="1" fill="#28292D" />
<rect x="13" y="24" width="1" height="1" fill="#28292D" />
<rect x="14" y="24" width="1" height="1" fill="#28292D" />
<rect x="15" y="24" width="1" height="1" fill="#28292D" />
<rect x="16" y="24" width="1" height="1" fill="#28292D" />
<rect x="17" y="24" width="1" height="1" fill="#884931" />
<rect x="18" y="24" width="1" height="1" fill="#6A331E" />
<rect x="19" y="24" width="1" height="1" fill="#6A331E" />
<rect x="20" y="24" width="1" height="1" fill="#28292D" />
<rect x="21" y="24" width="1" height="1" fill="#28292D" />
<rect x="22" y="24" width="1" height="1" fill="#28292D" />
<rect x="23" y="24" width="1" height="1" fill="#41424A" />
<rect x="24" y="24" width="1" height="1" fill="#41424A" />
<rect x="25" y="24" width="1" height="1" fill="#41424A" />
<rect x="26" y="24" width="1" height="1" fill="#41424A" />
<rect x="27" y="24" width="1" height="1" fill="#41424A" />
<rect x="28" y="24" width="1" height="1" fill="#41424A" />
<rect x="6" y="25" width="1" height="1" fill="#D4D4D4" />
<rect x="7" y="25" width="1" height="1" fill="#908C8C" />
<rect x="9" y="25" width="1" height="1" fill="#41424A" />
<rect x="10" y="25" width="1" height="1" fill="#41424A" />
<rect x="11" y="25" width="1" height="1" fill="#28292D" />
<rect x="12" y="25" width="1" height="1" fill="#28292D" />
<rect x="13" y="25" width="1" height="1" fill="#28292D" />
<rect x="14" y="25" width="1" height="1" fill="#28292D" />
<rect x="15" y="25" width="1" height="1" fill="#28292D" />
<rect x="16" y="25" width="1" height="1" fill="#28292D" />
<rect x="17" y="25" width="1" height="1" fill="#6A331E" />
<rect x="18" y="25" width="1" height="1" fill="#6A331E" />
<rect x="19" y="25" width="1" height="1" fill="#6A331E" />
<rect x="22" y="25" width="1" height="1" fill="#28292D" />
<rect x="23" y="25" width="1" height="1" fill="#28292D" />
<rect x="24" y="25" width="1" height="1" fill="#28292D" />
<rect x="25" y="25" width="1" height="1" fill="#41424A" />
<rect x="26" y="25" width="1" height="1" fill="#41424A" />
<rect x="27" y="25" width="1" height="1" fill="#28292D" />
<rect x="28" y="25" width="1" height="1" fill="#28292D" />
<rect x="7" y="26" width="1" height="1" fill="#D4D4D4" />
<rect x="8" y="26" width="1" height="1" fill="#908C8C" />
<rect x="9" y="26" width="1" height="1" fill="#41424A" />
<rect x="10" y="26" width="1" height="1" fill="#41424A" />
<rect x="11" y="26" width="1" height="1" fill="#28292D" />
<rect x="12" y="26" width="1" height="1" fill="#28292D" />
<rect x="13" y="26" width="1" height="1" fill="#28292D" />
<rect x="14" y="26" width="1" height="1" fill="#28292D" />
<rect x="15" y="26" width="1" height="1" fill="#28292D" />
<rect x="17" y="26" width="1" height="1" fill="#6A331E" />
<rect x="18" y="26" width="1" height="1" fill="#6A331E" />
<rect x="19" y="26" width="1" height="1" fill="#6A331E" />
<rect x="22" y="26" width="1" height="1" fill="#28292D" />
<rect x="23" y="26" width="1" height="1" fill="#28292D" />
<rect x="24" y="26" width="1" height="1" fill="#28292D" />
<rect x="25" y="26" width="1" height="1" fill="#28292D" />
<rect x="26" y="26" width="1" height="1" fill="#28292D" />
<rect x="27" y="26" width="1" height="1" fill="#28292D" />
<rect x="28" y="26" width="1" height="1" fill="#28292D" />
<rect x="8" y="27" width="1" height="1" fill="#D4D4D4" />
<rect x="9" y="27" width="1" height="1" fill="#41424A" />
<rect x="10" y="27" width="1" height="1" fill="#884931" />
<rect x="11" y="27" width="1" height="1" fill="#28292D" />
<rect x="12" y="27" width="1" height="1" fill="#28292D" />
<rect x="13" y="27" width="1" height="1" fill="#28292D" />
<rect x="14" y="27" width="1" height="1" fill="#28292D" />
<rect x="17" y="27" width="1" height="1" fill="#6A331E" />
<rect x="18" y="27" width="1" height="1" fill="#6A331E" />
<rect x="22" y="27" width="1" height="1" fill="#6A331E" />
<rect x="23" y="27" width="1" height="1" fill="#6A331E" />
<rect x="24" y="27" width="1" height="1" fill="#6A331E" />
<rect x="25" y="27" width="1" height="1" fill="#6A331E" />
<rect x="26" y="27" width="1" height="1" fill="#6A331E" />
<rect x="27" y="27" width="1" height="1" fill="#6A331E" />
<rect x="28" y="27" width="1" height="1" fill="#6A331E" />
<rect x="9" y="28" width="1" height="1" fill="#884931" />
<rect x="10" y="28" width="1" height="1" fill="#884931" />
<rect x="11" y="28" width="1" height="1" fill="#6A331E" />
<rect x="12" y="28" width="1" height="1" fill="#28292D" />
<rect x="18" y="28" width="1" height="1" fill="#6A331E" />
<rect x="23" y="28" width="1" height="1" fill="#6A331E" />
<rect x="24" y="28" width="1" height="1" fill="#6A331E" />
<rect x="25" y="28" width="1" height="1" fill="#6A331E" />
<rect x="26" y="28" width="1" height="1" fill="#6A331E" />
<rect x="27" y="28" width="1" height="1" fill="#884931" />
<rect x="9" y="29" width="1" height="1" fill="#884931" />
<rect x="10" y="29" width="1" height="1" fill="#884931" />
<rect x="11" y="29" width="1" height="1" fill="#6A331E" />
<rect x="12" y="29" width="1" height="1" fill="#6A331E" />
<rect x="23" y="29" width="1" height="1" fill="#6A331E" />
<rect x="24" y="29" width="1" height="1" fill="#6A331E" />
<rect x="25" y="29" width="1" height="1" fill="#6A331E" />
<rect x="26" y="29" width="1" height="1" fill="#884931" />
<rect x="27" y="29" width="1" height="1" fill="#884931" />
<rect x="9" y="30" width="1" height="1" fill="#884931" />
<rect x="10" y="30" width="1" height="1" fill="#884931" />
<rect x="11" y="30" width="1" height="1" fill="#6A331E" />
<rect x="12" y="30" width="1" height="1" fill="#6A331E" />
<rect x="24" y="30" width="1" height="1" fill="#6A331E" />
<rect x="25" y="30" width="1" height="1" fill="#6A331E" />
<rect x="26" y="30" width="1" height="1" fill="#884931" />
<rect x="27" y="30" width="1" height="1" fill="#884931" />
<rect x="9" y="31" width="1" height="1" fill="#884931" />
<rect x="10" y="31" width="1" height="1" fill="#884931" />
<rect x="11" y="31" width="1" height="1" fill="#6A331E" />
<rect x="12" y="31" width="1" height="1" fill="#6A331E" />
<rect x="24" y="31" width="1" height="1" fill="#6A331E" />
<rect x="25" y="31" width="1" height="1" fill="#884931" />
<rect x="26" y="31" width="1" height="1" fill="#884931" />
<rect x="27" y="31" width="1" height="1" fill="#884931" />
<rect x="9" y="32" width="1" height="1" fill="#884931" />
<rect x="10" y="32" width="1" height="1" fill="#884931" />
<rect x="11" y="32" width="1" height="1" fill="#6A331E" />
<rect x="12" y="32" width="1" height="1" fill="#6A331E" />
<rect x="24" y="32" width="1" height="1" fill="#6A331E" />
<rect x="25" y="32" width="1" height="1" fill="#884931" />
<rect x="26" y="32" width="1" height="1" fill="#884931" />
<rect x="27" y="32" width="1" height="1" fill="#884931" />
<rect x="9" y="33" width="1" height="1" fill="#884931" />
<rect x="10" y="33" width="1" height="1" fill="#884931" />
<rect x="11" y="33" width="1" height="1" fill="#6A331E" />
<rect x="24" y="33" width="1" height="1" fill="#6A331E" />
<rect x="25" y="33" width="1" height="1" fill="#884931" />
<rect x="26" y="33" width="1" height="1" fill="#884931" />
<rect x="9" y="34" width="1" height="1" fill="#884931" />
<rect x="10" y="34" width="1" height="1" fill="#6A331E" />
<rect x="11" y="34" width="1" height="1" fill="#6A331E" />
<rect x="24" y="34" width="1" height="1" fill="#6A331E" />
<rect x="25" y="34" width="1" height="1" fill="#6A331E" />
<rect x="26" y="34" width="1" height="1" fill="#884931" />
<rect x="27" y="34" width="1" height="1" fill="#884931" />
<rect x="7" y="35" width="1" height="1" fill="#884931" />
<rect x="8" y="35" width="1" height="1" fill="#884931" />
<rect x="9" y="35" width="1" height="1" fill="#884931" />
<rect x="10" y="35" width="1" height="1" fill="#6A331E" />
<rect x="11" y="35" width="1" height="1" fill="#6A331E" />
<rect x="24" y="35" width="1" height="1" fill="#6A331E" />
<rect x="25" y="35" width="1" height="1" fill="#6A331E" />
<rect x="26" y="35" width="1" height="1" fill="#6A331E" />
<rect x="27" y="35" width="1" height="1" fill="#6A331E" />
<rect x="28" y="35" width="1" height="1" fill="#6A331E" />
<rect x="6" y="36" width="1" height="1" fill="#884931" />
<rect x="7" y="36" width="1" height="1" fill="#884931" />
<rect x="8" y="36" width="1" height="1" fill="#884931" />
<rect x="9" y="36" width="1" height="1" fill="#6A331E" />
<rect x="10" y="36" width="1" height="1" fill="#6A331E" />
<rect x="11" y="36" width="1" height="1" fill="#6A331E" />
<rect x="26" y="36" width="1" height="1" fill="#6A331E" />
<rect x="27" y="36" width="1" height="1" fill="#6A331E" />
<rect x="28" y="36" width="1" height="1" fill="#6A331E" />
<rect x="29" y="36" width="1" height="1" fill="#6A331E" />
</svg>