<?xml version="1.0" encoding="UTF-8" ?>
<svg version="1.1" width="64" height="64" xmlns="http://www.w3.org/2000/svg" shape-rendering="crispEdges">
<rect x="29" y="7" width="1" height="1" fill="#DE9E41" />
<rect x="30" y="7" width="1" height="1" fill="#DE9E41" />
<rect x="31" y="7" width="1" height="1" fill="#DE9E41" />
<rect x="32" y="7" width="1" height="1" fill="#DE9E41" />
<rect x="33" y="7" width="1" height="1" fill="#DE9E41" />
<rect x="34" y="7" width="1" height="1" fill="#DE9E41" />
<rect x="35" y="7" width="1" height="1" fill="#DE9E41" />
<rect x="36" y="7" width="1" height="1" fill="#DE9E41" />
<rect x="37" y="7" width="1" height="1" fill="#DE9E41" />
<rect x="38" y="7" width="1" height="1" fill="#DE9E41" />
<rect x="26" y="8" width="1" height="1" fill="#DE9E41" />
<rect x="27" y="8" width="1" height="1" fill="#DE9E41" />
<rect x="28" y="8" width="1" height="1" fill="#DE9E41" />
<rect x="29" y="8" width="1" height="1" fill="#DE9E41" />
<rect x="30" y="8" width="1" height="1" fill="#DE9E41" />
<rect x="31" y="8" width="1" height="1" fill="#E8C170" />
<rect x="32" y="8" width="1" height="1" fill="#E8C170" />
<rect x="33" y="8" width="1" height="1" fill="#E8C170" />
<rect x="34" y="8" width="1" height="1" fill="#E8C170" />
<rect x="35" y="8" width="1" height="1" fill="#E8C170" />
<rect x="23" y="9" width="1" height="1" fill="#DE9E41" />
<rect x="24" y="9" width="1" height="1" fill="#DE9E41" />
<rect x="25" y="9" width="1" height="1" fill="#DE9E41" />
<rect x="26" y="9" width="1" height="1" fill="#DE9E41" />
<rect x="27" y="9" width="1" height="1" fill="#DE9E41" />
<rect x="28" y="9" width="1" height="1" fill="#E8C170" />
<rect x="29" y="9" width="1" height="1" fill="#E8C170" />
<rect x="30" y="9" width="1" height="1" fill="#E8C170" />
<rect x="21" y="10" width="1" height="1" fill="#DE9E41" />
<rect x="22" y="10" width="1" height="1" fill="#DE9E41" />
<rect x="23" y="10" width="1" height="1" fill="#DE9E41" />
<rect x="24" y="10" width="1" height="1" fill="#DE9E41" />
<rect x="25" y="10" width="1" height="1" fill="#DE9E41" />
<rect x="26" y="10" width="1" height="1" fill="#E8C170" />
<rect x="27" y="10" width="1" height="1" fill="#E8C170" />
<rect x="19" y="11" width="1" height="1" fill="#DE9E41" />
<rect x="20" y="11" width="1" height="1" fill="#DE9E41" />
<rect x="21" y="11" width="1" height="1" fill="#DE9E41" />
<rect x="22" y="11" width="1" height="1" fill="#DE9E41" />
<rect x="23" y="11" width="1" height="1" fill="#DE9E41" />
<rect x="24" y="11" width="1" height="1" fill="#E8C170" />
<rect x="25" y="11" width="1" height="1" fill="#E8C170" />
<rect x="18" y="12" width="1" height="1" fill="#DE9E41" />
<rect x="19" y="12" width="1" height="1" fill="#DE9E41" />
<rect x="20" y="12" width="1" height="1" fill="#DE9E41" />
<rect x="21" y="12" width="1" height="1" fill="#DE9E41" />
<rect x="22" y="12" width="1" height="1" fill="#E8C170" />
<rect x="23" y="12" width="1" height="1" fill="#E8C170" />
<rect x="17" y="13" width="1" height="1" fill="#DE9E41" />
<rect x="18" y="13" width="1" height="1" fill="#DE9E41" />
<rect x="19" y="13" width="1" height="1" fill="#DE9E41" />
<rect x="20" y="13" width="1" height="1" fill="#DE9E41" />
<rect x="21" y="13" width="1" height="1" fill="#E8C170" />
<rect x="16" y="14" width="1" height="1" fill="#DE9E41" />
<rect x="17" y="14" width="1" height="1" fill="#DE9E41" />
<rect x="18" y="14" width="1" height="1" fill="#DE9E41" />
<rect x="19" y="14" width="1" height="1" fill="#DE9E41" />
<rect x="20" y="14" width="1" height="1" fill="#E8C170" />
<rect x="15" y="15" width="1" height="1" fill="#DE9E41" />
<rect x="16" y="15" width="1" height="1" fill="#DE9E41" />
<rect x="17" y="15" width="1" height="1" fill="#DE9E41" />
<rect x="18" y="15" width="1" height="1" fill="#DE9E41" />
<rect x="19" y="15" width="1" height="1" fill="#E8C170" />
<rect x="14" y="16" width="1" height="1" fill="#DE9E41" />
<rect x="15" y="16" width="1" height="1" fill="#DE9E41" />
<rect x="16" y="16" width="1" height="1" fill="#DE9E41" />
<rect x="17" y="16" width="1" height="1" fill="#DE9E41" />
<rect x="18" y="16" width="1" height="1" fill="#E8C170" />
<rect x="14" y="17" width="1" height="1" fill="#DE9E41" />
<rect x="15" y="17" width="1" height="1" fill="#DE9E41" />
<rect x="16" y="17" width="1" height="1" fill="#DE9E41" />
<rect x="17" y="17" width="1" height="1" fill="#DE9E41" />
<rect x="18" y="17" width="1" height="1" fill="#E8C170" />
<rect x="13" y="18" width="1" height="1" fill="#DE9E41" />
<rect x="14" y="18" width="1" height="1" fill="#DE9E41" />
<rect x="15" y="18" width="1" height="1" fill="#DE9E41" />
<rect x="16" y="18" width="1" height="1" fill="#DE9E41" />
<rect x="17" y="18" width="1" height="1" fill="#E8C170" />
<rect x="12" y="19" width="1" height="1" fill="#DE9E41" />
<rect x="13" y="19" width="1" height="1" fill="#DE9E41" />
<rect x="14" y="19" width="1" height="1" fill="#DE9E41" />
<rect x="15" y="19" width="1" height="1" fill="#DE9E41" />
<rect x="16" y="19" width="1" height="1" fill="#DE9E41" />
<rect x="17" y="19" width="1" height="1" fill="#E8C170" />
<rect x="12" y="20" width="1" height="1" fill="#BE772B" />
<rect x="13" y="20" width="1" height="1" fill="#DE9E41" />
<rect x="14" y="20" width="1" height="1" fill="#DE9E41" />
<rect x="15" y="20" width="1" height="1" fill="#DE9E41" />
<rect x="16" y="20" width="1" height="1" fill="#DE9E41" />
<rect x="17" y="20" width="1" height="1" fill="#E8C170" />
<rect x="34" y="20" width="1" height="1" fill="#7A4841" />
<rect x="35" y="20" width="1" height="1" fill="#7A4841" />
<rect x="36" y="20" width="1" height="1" fill="#7A4841" />
<rect x="12" y="21" width="1" height="1" fill="#BE772B" />
<rect x="13" y="21" width="1" height="1" fill="#DE9E41" />
<rect x="14" y="21" width="1" height="1" fill="#DE9E41" />
<rect x="15" y="21" width="1" height="1" fill="#DE9E41" />
<rect x="16" y="21" width="1" height="1" fill="#E8C170" />
<rect x="32" y="21" width="1" height="1" fill="#4D2B32" />
<rect x="33" y="21" width="1" height="1" fill="#4D2B32" />
<rect x="34" y="21" width="1" height="1" fill="#4D2B32" />
<rect x="35" y="21" width="1" height="1" fill="#4D2B32" />
<rect x="36" y="21" width="1" height="1" fill="#7A4841" />
<rect x="37" y="21" width="1" height="1" fill="#7A4841" />
<rect x="11" y="22" width="1" height="1" fill="#BE772B" />
<rect x="12" y="22" width="1" height="1" fill="#BE772B" />
<rect x="13" y="22" width="1" height="1" fill="#BE772B" />
<rect x="14" y="22" width="1" height="1" fill="#DE9E41" />
<rect x="15" y="22" width="1" height="1" fill="#DE9E41" />
<rect x="16" y="22" width="1" height="1" fill="#E8C170" />
<rect x="32" y="22" width="1" height="1" fill="#4D2B32" />
<rect x="33" y="22" width="1" height="1" fill="#4D2B32" />
<rect x="34" y="22" width="1" height="1" fill="#4D2B32" />
<rect x="35" y="22" width="1" height="1" fill="#4D2B32" />
<rect x="36" y="22" width="1" height="1" fill="#7A4841" />
<rect x="37" y="22" width="1" height="1" fill="#7A4841" />
<rect x="11" y="23" width="1" height="1" fill="#884B2B" />
<rect x="12" y="23" width="1" height="1" fill="#BE772B" />
<rect x="13" y="23" width="1" height="1" fill="#BE772B" />
<rect x="14" y="23" width="1" height="1" fill="#BE772B" />
<rect x="15" y="23" width="1" height="1" fill="#BE772B" />
<rect x="16" y="23" width="1" height="1" fill="#BE772B" />
<rect x="31" y="23" width="1" height="1" fill="#4D2B32" />
<rect x="32" y="23" width="1" height="1" fill="#4D2B32" />
<rect x="33" y="23" width="1" height="1" fill="#4D2B32" />
<rect x="34" y="23" width="1" height="1" fill="#4D2B32" />
<rect x="35" y="23" width="1" height="1" fill="#A8B5B2" />
<rect x="36" y="23" width="1" height="1" fill="#C7CFCC" />
<rect x="37" y="23" width="1" height="1" fill="#4D2B32" />
<rect x="38" y="23" width="1" height="1" fill="#7A4841" />
<rect x="11" y="24" width="1" height="1" fill="#884B2B" />
<rect x="12" y="24" width="1" height="1" fill="#BE772B" />
<rect x="13" y="24" width="1" height="1" fill="#BE772B" />
<rect x="14" y="24" width="1" height="1" fill="#BE772B" />
<rect x="15" y="24" width="1" height="1" fill="#BE772B" />
<rect x="16" y="24" width="1" height="1" fill="#BE772B" />
<rect x="17" y="24" width="1" height="1" fill="#BE772B" />
<rect x="31" y="24" width="1" height="1" fill="#4D2B32" />
<rect x="32" y="24" width="1" height="1" fill="#4D2B32" />
<rect x="33" y="24" width="1" height="1" fill="#4D2B32" />
<rect x="34" y="24" width="1" height="1" fill="#A8B5B2" />
<rect x="35" y="24" width="1" height="1" fill="#A8B5B2" />
<rect x="36" y="24" width="1" height="1" fill="#A8B5B2" />
<rect x="37" y="24" width="1" height="1" fill="#C7CFCC" />
<rect x="38" y="24" width="1" height="1" fill="#4D2B32" />
<rect x="11" y="25" width="1" height="1" fill="#BE772B" />
<rect x="12" y="25" width="1" height="1" fill="#BE772B" />
<rect x="13" y="25" width="1" height="1" fill="#BE772B" />
<rect x="14" y="25" width="1" height="1" fill="#BE772B" />
<rect x="15" y="25" width="1" height="1" fill="#884B2B" />
<rect x="16" y="25" width="1" height="1" fill="#884B2B" />
<rect x="17" y="25" width="1" height="1" fill="#884B2B" />
<rect x="18" y="25" width="1" height="1" fill="#884B2B" />
<rect x="31" y="25" width="1" height="1" fill="#4D2B32" />
<rect x="32" y="25" width="1" height="1" fill="#4D2B32" />
<rect x="33" y="25" width="1" height="1" fill="#4D2B32" />
<rect x="34" y="25" width="1" height="1" fill="#090A14" />
<rect x="35" y="25" width="1" height="1" fill="#090A14" />
<rect x="36" y="25" width="1" height="1" fill="#C7CFCC" />
<rect x="37" y="25" width="1" height="1" fill="#090A14" />
<rect x="38" y="25" width="1" height="1" fill="#4D2B32" />
<rect x="11" y="26" width="1" height="1" fill="#884B2B" />
<rect x="12" y="26" width="1" height="1" fill="#BE772B" />
<rect x="13" y="26" width="1" height="1" fill="#884B2B" />
<rect x="14" y="26" width="1" height="1" fill="#884B2B" />
<rect x="15" y="26" width="1" height="1" fill="#884B2B" />
<rect x="19" y="26" width="1" height="1" fill="#BE772B" />
<rect x="20" y="26" width="1" height="1" fill="#BE772B" />
<rect x="31" y="26" width="1" height="1" fill="#4D2B32" />
<rect x="32" y="26" width="1" height="1" fill="#4D2B32" />
<rect x="33" y="26" width="1" height="1" fill="#4D2B32" />
<rect x="34" y="26" width="1" height="1" fill="#090A14" />
<rect x="35" y="26" width="1" height="1" fill="#A8B5B2" />
<rect x="36" y="26" width="1" height="1" fill="#C7CFCC" />
<rect x="37" y="26" width="1" height="1" fill="#090A14" />
<rect x="38" y="26" width="1" height="1" fill="#4D2B32" />
<rect x="11" y="27" width="1" height="1" fill="#884B2B" />
<rect x="12" y="27" width="1" height="1" fill="#884B2B" />
<rect x="13" y="27" width="1" height="1" fill="#884B2B" />
<rect x="21" y="27" width="1" height="1" fill="#BE772B" />
<rect x="22" y="27" width="1" height="1" fill="#202E37" />
<rect x="23" y="27" width="1" height="1" fill="#202E37" />
<rect x="31" y="27" width="1" height="1" fill="#4D2B32" />
<rect x="32" y="27" width="1" height="1" fill="#4D2B32" />
<rect x="33" y="27" width="1" height="1" fill="#4D2B32" />
<rect x="34" y="27" width="1" height="1" fill="#A8B5B2" />
<rect x="35" y="27" width="1" height="1" fill="#A8B5B2" />
<rect x="36" y="27" width="1" height="1" fill="#090A14" />
<rect x="37" y="27" width="1" height="1" fill="#C7CFCC" />
<rect x="38" y="27" width="1" height="1" fill="#7A4841" />
<rect x="11" y="28" width="1" height="1" fill="#884B2B" />
<rect x="12" y="28" width="1" height="1" fill="#884B2B" />
<rect x="13" y="28" width="1" height="1" fill="#884B2B" />
<rect x="21" y="28" width="1" height="1" fill="#4D2B32" />
<rect x="22" y="28" width="1" height="1" fill="#202E37" />
<rect x="23" y="28" width="1" height="1" fill="#202E37" />
<rect x="24" y="28" width="1" height="1" fill="#202E37" />
<rect x="30" y="28" width="1" height="1" fill="#7A4841" />
<rect x="31" y="28" width="1" height="1" fill="#7A4841" />
<rect x="32" y="28" width="1" height="1" fill="#4D2B32" />
<rect x="33" y="28" width="1" height="1" fill="#4D2B32" />
<rect x="34" y="28" width="1" height="1" fill="#4D2B32" />
<rect x="35" y="28" width="1" height="1" fill="#A8B5B2" />
<rect x="36" y="28" width="1" height="1" fill="#A8B5B2" />
<rect x="37" y="28" width="1" height="1" fill="#4D2B32" />
<rect x="38" y="28" width="1" height="1" fill="#7A4841" />
<rect x="11" y="29" width="1" height="1" fill="#884B2B" />
<rect x="12" y="29" width="1" height="1" fill="#884B2B" />
<rect x="21" y="29" width="1" height="1" fill="#4D2B32" />
<rect x="22" y="29" width="1" height="1" fill="#202E37" />
<rect x="23" y="29" width="1" height="1" fill="#202E37" />
<rect x="24" y="29" width="1" height="1" fill="#4D2B32" />
<rect x="25" y="29" width="1" height="1" fill="#BE772B" />
<rect x="26" y="29" width="1" height="1" fill="#BE772B" />
<rect x="27" y="29" width="1" height="1" fill="#4D2B32" />
<rect x="28" y="29" width="1" height="1" fill="#4D2B32" />
<rect x="29" y="29" width="1" height="1" fill="#4D2B32" />
<rect x="30" y="29" width="1" height="1" fill="#4D2B32" />
<rect x="31" y="29" width="1" height="1" fill="#4D2B32" />
<rect x="32" y="29" width="1" height="1" fill="#7A4841" />
<rect x="33" y="29" width="1" height="1" fill="#7A4841" />
<rect x="34" y="29" width="1" height="1" fill="#4D2B32" />
<rect x="35" y="29" width="1" height="1" fill="#4D2B32" />
<rect x="36" y="29" width="1" height="1" fill="#A8B5B2" />
<rect x="37" y="29" width="1" height="1" fill="#7A4841" />
<rect x="11" y="30" width="1" height="1" fill="#884B2B" />
<rect x="12" y="30" width="1" height="1" fill="#884B2B" />
<rect x="21" y="30" width="1" height="1" fill="#7A4841" />
<rect x="22" y="30" width="1" height="1" fill="#4D2B32" />
<rect x="23" y="30" width="1" height="1" fill="#202E37" />
<rect x="24" y="30" width="1" height="1" fill="#7A4841" />
<rect x="26" y="30" width="1" height="1" fill="#7A4841" />
<rect x="27" y="30" width="1" height="1" fill="#BE772B" />
<rect x="28" y="30" width="1" height="1" fill="#BE772B" />
<rect x="29" y="30" width="1" height="1" fill="#4D2B32" />
<rect x="30" y="30" width="1" height="1" fill="#4D2B32" />
<rect x="31" y="30" width="1" height="1" fill="#4D2B32" />
<rect x="32" y="30" width="1" height="1" fill="#4D2B32" />
<rect x="33" y="30" width="1" height="1" fill="#7A4841" />
<rect x="34" y="30" width="1" height="1" fill="#7A4841" />
<rect x="35" y="30" width="1" height="1" fill="#7A4841" />
<rect x="36" y="30" width="1" height="1" fill="#7A4841" />
<rect x="37" y="30" width="1" height="1" fill="#AD7757" />
<rect x="38" y="30" width="1" height="1" fill="#4D2B32" />
<rect x="39" y="30" width="1" height="1" fill="#4D2B32" />
<rect x="40" y="30" width="1" height="1" fill="#4D2B32" />
<rect x="12" y="31" width="1" height="1" fill="#884B2B" />
<rect x="22" y="31" width="1" height="1" fill="#7A4841" />
<rect x="23" y="31" width="1" height="1" fill="#4D2B32" />
<rect x="24" y="31" width="1" height="1" fill="#7A4841" />
<rect x="25" y="31" width="1" height="1" fill="#7A4841" />
<rect x="26" y="31" width="1" height="1" fill="#7A4841" />
<rect x="27" y="31" width="1" height="1" fill="#7A4841" />
<rect x="28" y="31" width="1" height="1" fill="#4D2B32" />
<rect x="29" y="31" width="1" height="1" fill="#BE772B" />
<rect x="30" y="31" width="1" height="1" fill="#BE772B" />
<rect x="31" y="31" width="1" height="1" fill="#4D2B32" />
<rect x="32" y="31" width="1" height="1" fill="#4D2B32" />
<rect x="33" y="31" width="1" height="1" fill="#4D2B32" />
<rect x="34" y="31" width="1" height="1" fill="#7A4841" />
<rect x="35" y="31" width="1" height="1" fill="#7A4841" />
<rect x="36" y="31" width="1" height="1" fill="#AD7757" />
<rect x="37" y="31" width="1" height="1" fill="#4D2B32" />
<rect x="38" y="31" width="1" height="1" fill="#4D2B32" />
<rect x="39" y="31" width="1" height="1" fill="#4D2B32" />
<rect x="40" y="31" width="1" height="1" fill="#4D2B32" />
<rect x="23" y="32" width="1" height="1" fill="#7A4841" />
<rect x="24" y="32" width="1" height="1" fill="#7A4841" />
<rect x="25" y="32" width="1" height="1" fill="#7A4841" />
<rect x="26" y="32" width="1" height="1" fill="#7A4841" />
<rect x="27" y="32" width="1" height="1" fill="#7A4841" />
<rect x="28" y="32" width="1" height="1" fill="#4D2B32" />
<rect x="29" y="32" width="1" height="1" fill="#4D2B32" />
<rect x="30" y="32" width="1" height="1" fill="#4D2B32" />
<rect x="31" y="32" width="1" height="1" fill="#BE772B" />
<rect x="32" y="32" width="1" height="1" fill="#BE772B" />
<rect x="33" y="32" width="1" height="1" fill="#4D2B32" />
<rect x="34" y="32" width="1" height="1" fill="#4D2B32" />
<rect x="35" y="32" width="1" height="1" fill="#7A4841" />
<rect x="36" y="32" width="1" height="1" fill="#4D2B32" />
<rect x="37" y="32" width="1" height="1" fill="#4D2B32" />
<rect x="38" y="32" width="1" height="1" fill="#4D2B32" />
<rect x="39" y="32" width="1" height="1" fill="#4D2B32" />
<rect x="40" y="32" width="1" height="1" fill="#7A4841" />
<rect x="24" y="33" width="1" height="1" fill="#7A4841" />
<rect x="25" y="33" width="1" height="1" fill="#7A4841" />
<rect x="26" y="33" width="1" height="1" fill="#7A4841" />
<rect x="29" y="33" width="1" height="1" fill="#4D2B32" />
<rect x="30" y="33" width="1" height="1" fill="#4D2B32" />
<rect x="31" y="33" width="1" height="1" fill="#4D2B32" />
<rect x="32" y="33" width="1" height="1" fill="#4D2B32" />
<rect x="33" y="33" width="1" height="1" fill="#BE772B" />
<rect x="34" y="33" width="1" height="1" fill="#BE772B" />
<rect x="35" y="33" width="1" height="1" fill="#7A4841" />
<rect x="36" y="33" width="1" height="1" fill="#4D2B32" />
<rect x="37" y="33" width="1" height="1" fill="#4D2B32" />
<rect x="38" y="33" width="1" height="1" fill="#4D2B32" />
<rect x="39" y="33" width="1" height="1" fill="#4D2B32" />
<rect x="40" y="33" width="1" height="1" fill="#7A4841" />
<rect x="41" y="33" width="1" height="1" fill="#7A4841" />
<rect x="30" y="34" width="1" height="1" fill="#4D2B32" />
<rect x="31" y="34" width="1" height="1" fill="#4D2B32" />
<rect x="32" y="34" width="1" height="1" fill="#4D2B32" />
<rect x="33" y="34" width="1" height="1" fill="#4D2B32" />
<rect x="34" y="34" width="1" height="1" fill="#4D2B32" />
<rect x="35" y="34" width="1" height="1" fill="#BE772B" />
<rect x="36" y="34" width="1" height="1" fill="#BE772B" />
<rect x="37" y="34" width="1" height="1" fill="#4D2B32" />
<rect x="38" y="34" width="1" height="1" fill="#4D2B32" />
<rect x="39" y="34" width="1" height="1" fill="#7A4841" />
<rect x="40" y="34" width="1" height="1" fill="#7A4841" />
<rect x="41" y="34" width="1" height="1" fill="#7A4841" />
<rect x="42" y="34" width="1" height="1" fill="#7A4841" />
<rect x="30" y="35" width="1" height="1" fill="#4D2B32" />
<rect x="31" y="35" width="1" height="1" fill="#4D2B32" />
<rect x="32" y="35" width="1" height="1" fill="#4D2B32" />
<rect x="33" y="35" width="1" height="1" fill="#4D2B32" />
<rect x="34" y="35" width="1" height="1" fill="#4D2B32" />
<rect x="35" y="35" width="1" height="1" fill="#7A4841" />
<rect x="36" y="35" width="1" height="1" fill="#4D2B32" />
<rect x="37" y="35" width="1" height="1" fill="#BE772B" />
<rect x="38" y="35" width="1" height="1" fill="#BE772B" />
<rect x="40" y="35" width="1" height="1" fill="#7A4841" />
<rect x="41" y="35" width="1" height="1" fill="#7A4841" />
<rect x="42" y="35" width="1" height="1" fill="#7A4841" />
<rect x="43" y="35" width="1" height="1" fill="#7A4841" />
<rect x="31" y="36" width="1" height="1" fill="#7A4841" />
<rect x="32" y="36" width="1" height="1" fill="#4D2B32" />
<rect x="33" y="36" width="1" height="1" fill="#4D2B32" />
<rect x="34" y="36" width="1" height="1" fill="#7A4841" />
<rect x="35" y="36" width="1" height="1" fill="#4D2B32" />
<rect x="36" y="36" width="1" height="1" fill="#4D2B32" />
<rect x="37" y="36" width="1" height="1" fill="#4D2B32" />
<rect x="39" y="36" width="1" height="1" fill="#BE772B" />
<rect x="40" y="36" width="1" height="1" fill="#BE772B" />
<rect x="42" y="36" width="1" height="1" fill="#7A4841" />
<rect x="43" y="36" width="1" height="1" fill="#7A4841" />
<rect x="44" y="36" width="1" height="1" fill="#7A4841" />
<rect x="30" y="37" width="1" height="1" fill="#7A4841" />
<rect x="31" y="37" width="1" height="1" fill="#7A4841" />
<rect x="32" y="37" width="1" height="1" fill="#7A4841" />
<rect x="33" y="37" width="1" height="1" fill="#7A4841" />
<rect x="34" y="37" width="1" height="1" fill="#AD7757" />
<rect x="35" y="37" width="1" height="1" fill="#4D2B32" />
<rect x="36" y="37" width="1" height="1" fill="#7A4841" />
<rect x="41" y="37" width="1" height="1" fill="#BE772B" />
<rect x="42" y="37" width="1" height="1" fill="#BE772B" />
<rect x="43" y="37" width="1" height="1" fill="#AD7757" />
<rect x="44" y="37" width="1" height="1" fill="#AD7757" />
<rect x="45" y="37" width="1" height="1" fill="#AD7757" />
<rect x="30" y="38" width="1" height="1" fill="#7A4841" />
<rect x="31" y="38" width="1" height="1" fill="#4D2B32" />
<rect x="32" y="38" width="1" height="1" fill="#7A4841" />
<rect x="33" y="38" width="1" height="1" fill="#7A4841" />
<rect x="34" y="38" width="1" height="1" fill="#AD7757" />
<rect x="35" y="38" width="1" height="1" fill="#7A4841" />
<rect x="36" y="38" width="1" height="1" fill="#7A4841" />
<rect x="37" y="38" width="1" height="1" fill="#4D2B32" />
<rect x="42" y="38" width="1" height="1" fill="#AD7757" />
<rect x="43" y="38" width="1" height="1" fill="#202E37" />
<rect x="44" y="38" width="1" height="1" fill="#151D28" />
<rect x="45" y="38" width="1" height="1" fill="#151D28" />
<rect x="46" y="38" width="1" height="1" fill="#7A4841" />
<rect x="29" y="39" width="1" height="1" fill="#7A4841" />
<rect x="30" y="39" width="1" height="1" fill="#4D2B32" />
<rect x="31" y="39" width="1" height="1" fill="#4D2B32" />
<rect x="32" y="39" width="1" height="1" fill="#4D2B32" />
<rect x="33" y="39" width="1" height="1" fill="#7A4841" />
<rect x="34" y="39" width="1" height="1" fill="#AD7757" />
<rect x="35" y="39" width="1" height="1" fill="#7A4841" />
<rect x="36" y="39" width="1" height="1" fill="#4D2B32" />
<rect x="37" y="39" width="1" height="1" fill="#4D2B32" />
<rect x="42" y="39" width="1" height="1" fill="#AD7757" />
<rect x="43" y="39" width="1" height="1" fill="#202E37" />
<rect x="44" y="39" width="1" height="1" fill="#202E37" />
<rect x="45" y="39" width="1" height="1" fill="#BE772B" />
<rect x="46" y="39" width="1" height="1" fill="#BE772B" />
<rect x="29" y="40" width="1" height="1" fill="#4D2B32" />
<rect x="30" y="40" width="1" height="1" fill="#4D2B32" />
<rect x="31" y="40" width="1" height="1" fill="#4D2B32" />
<rect x="32" y="40" width="1" height="1" fill="#4D2B32" />
<rect x="33" y="40" width="1" height="1" fill="#7A4841" />
<rect x="34" y="40" width="1" height="1" fill="#090A14" />
<rect x="35" y="40" width="1" height="1" fill="#AD7757" />
<rect x="36" y="40" width="1" height="1" fill="#7A4841" />
<rect x="37" y="40" width="1" height="1" fill="#4D2B32" />
<rect x="42" y="40" width="1" height="1" fill="#7A4841" />
<rect x="43" y="40" width="1" height="1" fill="#4D2B32" />
<rect x="44" y="40" width="1" height="1" fill="#4D2B32" />
<rect x="45" y="40" width="1" height="1" fill="#4D2B32" />
<rect x="46" y="40" width="1" height="1" fill="#7A4841" />
<rect x="47" y="40" width="1" height="1" fill="#BE772B" />
<rect x="48" y="40" width="1" height="1" fill="#BE772B" />
<rect x="29" y="41" width="1" height="1" fill="#4D2B32" />
<rect x="30" y="41" width="1" height="1" fill="#4D2B32" />
<rect x="31" y="41" width="1" height="1" fill="#4D2B32" />
<rect x="32" y="41" width="1" height="1" fill="#7A4841" />
<rect x="33" y="41" width="1" height="1" fill="#090A14" />
<rect x="34" y="41" width="1" height="1" fill="#090A14" />
<rect x="35" y="41" width="1" height="1" fill="#AD7757" />
<rect x="36" y="41" width="1" height="1" fill="#7A4841" />
<rect x="37" y="41" width="1" height="1" fill="#7A4841" />
<rect x="43" y="41" width="1" height="1" fill="#7A4841" />
<rect x="44" y="41" width="1" height="1" fill="#4D2B32" />
<rect x="45" y="41" width="1" height="1" fill="#7A4841" />
<rect x="49" y="41" width="1" height="1" fill="#BE772B" />
<rect x="50" y="41" width="1" height="1" fill="#BE772B" />
<rect x="28" y="42" width="1" height="1" fill="#7A4841" />
<rect x="29" y="42" width="1" height="1" fill="#4D2B32" />
<rect x="30" y="42" width="1" height="1" fill="#4D2B32" />
<rect x="31" y="42" width="1" height="1" fill="#4D2B32" />
<rect x="32" y="42" width="1" height="1" fill="#7A4841" />
<rect x="33" y="42" width="1" height="1" fill="#090A14" />
<rect x="34" y="42" width="1" height="1" fill="#090A14" />
<rect x="35" y="42" width="1" height="1" fill="#AD7757" />
<rect x="36" y="42" width="1" height="1" fill="#7A4841" />
<rect x="37" y="42" width="1" height="1" fill="#7A4841" />
<rect x="38" y="42" width="1" height="1" fill="#4D2B32" />
<rect x="44" y="42" width="1" height="1" fill="#7A4841" />
<rect x="45" y="42" width="1" height="1" fill="#7A4841" />
<rect x="51" y="42" width="1" height="1" fill="#BE772B" />
<rect x="52" y="42" width="1" height="1" fill="#BE772B" />
<rect x="28" y="43" width="1" height="1" fill="#4D2B32" />
<rect x="29" y="43" width="1" height="1" fill="#4D2B32" />
<rect x="30" y="43" width="1" height="1" fill="#4D2B32" />
<rect x="31" y="43" width="1" height="1" fill="#4D2B32" />
<rect x="32" y="43" width="1" height="1" fill="#7A4841" />
<rect x="33" y="43" width="1" height="1" fill="#090A14" />
<rect x="34" y="43" width="1" height="1" fill="#090A14" />
<rect x="35" y="43" width="1" height="1" fill="#AD7757" />
<rect x="36" y="43" width="1" height="1" fill="#7A4841" />
<rect x="37" y="43" width="1" height="1" fill="#7A4841" />
<rect x="38" y="43" width="1" height="1" fill="#4D2B32" />
<rect x="53" y="43" width="1" height="1" fill="#BE772B" />
<rect x="54" y="43" width="1" height="1" fill="#BE772B" />
<rect x="28" y="44" width="1" height="1" fill="#4D2B32" />
<rect x="29" y="44" width="1" height="1" fill="#4D2B32" />
<rect x="30" y="44" width="1" height="1" fill="#4D2B32" />
<rect x="31" y="44" width="1" height="1" fill="#7A4841" />
<rect x="32" y="44" width="1" height="1" fill="#090A14" />
<rect x="33" y="44" width="1" height="1" fill="#090A14" />
<rect x="34" y="44" width="1" height="1" fill="#090A14" />
<rect x="35" y="44" width="1" height="1" fill="#090A14" />
<rect x="36" y="44" width="1" height="1" fill="#AD7757" />
<rect x="37" y="44" width="1" height="1" fill="#7A4841" />
<rect x="38" y="44" width="1" height="1" fill="#7A4841" />
<rect x="55" y="44" width="1" height="1" fill="#BE772B" />
<rect x="56" y="44" width="1" height="1" fill="#BE772B" />
<rect x="19" y="45" width="1" height="1" fill="#4D2B32" />
<rect x="20" y="45" width="1" height="1" fill="#4D2B32" />
<rect x="28" y="45" width="1" height="1" fill="#4D2B32" />
<rect x="29" y="45" width="1" height="1" fill="#4D2B32" />
<rect x="30" y="45" width="1" height="1" fill="#4D2B32" />
<rect x="31" y="45" width="1" height="1" fill="#7A4841" />
<rect x="32" y="45" width="1" height="1" fill="#090A14" />
<rect x="33" y="45" width="1" height="1" fill="#090A14" />
<rect x="34" y="45" width="1" height="1" fill="#090A14" />
<rect x="35" y="45" width="1" height="1" fill="#090A14" />
<rect x="36" y="45" width="1" height="1" fill="#AD7757" />
<rect x="37" y="45" width="1" height="1" fill="#7A4841" />
<rect x="38" y="45" width="1" height="1" fill="#7A4841" />
<rect x="20" y="46" width="1" height="1" fill="#4D2B32" />
<rect x="27" y="46" width="1" height="1" fill="#4D2B32" />
<rect x="28" y="46" width="1" height="1" fill="#4D2B32" />
<rect x="29" y="46" width="1" height="1" fill="#4D2B32" />
<rect x="30" y="46" width="1" height="1" fill="#7A4841" />
<rect x="31" y="46" width="1" height="1" fill="#090A14" />
<rect x="32" y="46" width="1" height="1" fill="#090A14" />
<rect x="33" y="46" width="1" height="1" fill="#090A14" />
<rect x="34" y="46" width="1" height="1" fill="#090A14" />
<rect x="35" y="46" width="1" height="1" fill="#090A14" />
<rect x="36" y="46" width="1" height="1" fill="#AD7757" />
<rect x="37" y="46" width="1" height="1" fill="#7A4841" />
<rect x="38" y="46" width="1" height="1" fill="#7A4841" />
<rect x="39" y="46" width="1" height="1" fill="#4D2B32" />
<rect x="27" y="47" width="1" height="1" fill="#4D2B32" />
<rect x="28" y="47" width="1" height="1" fill="#4D2B32" />
<rect x="29" y="47" width="1" height="1" fill="#4D2B32" />
<rect x="30" y="47" width="1" height="1" fill="#7A4841" />
<rect x="31" y="47" width="1" height="1" fill="#090A14" />
<rect x="32" y="47" width="1" height="1" fill="#090A14" />
<rect x="33" y="47" width="1" height="1" fill="#090A14" />
<rect x="34" y="47" width="1" height="1" fill="#090A14" />
<rect x="35" y="47" width="1" height="1" fill="#090A14" />
<rect x="36" y="47" width="1" height="1" fill="#090A14" />
<rect x="37" y="47" width="1" height="1" fill="#AD7757" />
<rect x="38" y="47" width="1" height="1" fill="#7A4841" />
<rect x="39" y="47" width="1" height="1" fill="#7A4841" />
<rect x="27" y="48" width="1" height="1" fill="#4D2B32" />
<rect x="28" y="48" width="1" height="1" fill="#4D2B32" />
<rect x="29" y="48" width="1" height="1" fill="#7A4841" />
<rect x="30" y="48" width="1" height="1" fill="#090A14" />
<rect x="31" y="48" width="1" height="1" fill="#090A14" />
<rect x="32" y="48" width="1" height="1" fill="#090A14" />
<rect x="35" y="48" width="1" height="1" fill="#090A14" />
<rect x="36" y="48" width="1" height="1" fill="#090A14" />
<rect x="37" y="48" width="1" height="1" fill="#AD7757" />
<rect x="38" y="48" width="1" height="1" fill="#7A4841" />
<rect x="39" y="48" width="1" height="1" fill="#7A4841" />
<rect x="27" y="49" width="1" height="1" fill="#4D2B32" />
<rect x="28" y="49" width="1" height="1" fill="#4D2B32" />
<rect x="29" y="49" width="1" height="1" fill="#7A4841" />
<rect x="30" y="49" width="1" height="1" fill="#090A14" />
<rect x="31" y="49" width="1" height="1" fill="#090A14" />
<rect x="36" y="49" width="1" height="1" fill="#090A14" />
<rect x="37" y="49" width="1" height="1" fill="#090A14" />
<rect x="38" y="49" width="1" height="1" fill="#AD7757" />
<rect x="39" y="49" width="1" height="1" fill="#7A4841" />
<rect x="27" y="50" width="1" height="1" fill="#4D2B32" />
<rect x="28" y="50" width="1" height="1" fill="#7A4841" />
<rect x="31" y="50" width="1" height="1" fill="#090A14" />
<rect x="37" y="50" width="1" height="1" fill="#090A14" />
<rect x="38" y="50" width="1" height="1" fill="#AD7757" />
<rect x="39" y="50" width="1" height="1" fill="#7A4841" />
<rect x="42" y="50" width="1" height="1" fill="#4D2B32" />
<rect x="28" y="51" width="1" height="1" fill="#7A4841" />
<rect x="38" y="51" width="1" height="1" fill="#AD7757" />
<rect x="41" y="51" width="1" height="1" fill="#4D2B32" />
</svg>