<?xml version="1.0" encoding="UTF-8" ?>
<svg version="1.1" width="60" height="65" xmlns="http://www.w3.org/2000/svg" shape-rendering="crispEdges">
<rect x="26" y="10" width="1" height="1" fill="#DE9E41" />
<rect x="27" y="10" width="1" height="1" fill="#DE9E41" />
<rect x="28" y="10" width="1" height="1" fill="#DE9E41" />
<rect x="29" y="10" width="1" height="1" fill="#DE9E41" />
<rect x="30" y="10" width="1" height="1" fill="#DE9E41" />
<rect x="31" y="10" width="1" height="1" fill="#DE9E41" />
<rect x="32" y="10" width="1" height="1" fill="#DE9E41" />
<rect x="33" y="10" width="1" height="1" fill="#DE9E41" />
<rect x="34" y="10" width="1" height="1" fill="#DE9E41" />
<rect x="35" y="10" width="1" height="1" fill="#DE9E41" />
<rect x="29" y="11" width="1" height="1" fill="#E8C170" />
<rect x="30" y="11" width="1" height="1" fill="#E8C170" />
<rect x="31" y="11" width="1" height="1" fill="#E8C170" />
<rect x="32" y="11" width="1" height="1" fill="#E8C170" />
<rect x="33" y="11" width="1" height="1" fill="#E8C170" />
<rect x="34" y="11" width="1" height="1" fill="#DE9E41" />
<rect x="35" y="11" width="1" height="1" fill="#DE9E41" />
<rect x="36" y="11" width="1" height="1" fill="#DE9E41" />
<rect x="37" y="11" width="1" height="1" fill="#DE9E41" />
<rect x="38" y="11" width="1" height="1" fill="#DE9E41" />
<rect x="34" y="12" width="1" height="1" fill="#E8C170" />
<rect x="35" y="12" width="1" height="1" fill="#E8C170" />
<rect x="36" y="12" width="1" height="1" fill="#E8C170" />
<rect x="37" y="12" width="1" height="1" fill="#DE9E41" />
<rect x="38" y="12" width="1" height="1" fill="#DE9E41" />
<rect x="39" y="12" width="1" height="1" fill="#DE9E41" />
<rect x="40" y="12" width="1" height="1" fill="#DE9E41" />
<rect x="41" y="12" width="1" height="1" fill="#DE9E41" />
<rect x="37" y="13" width="1" height="1" fill="#E8C170" />
<rect x="38" y="13" width="1" height="1" fill="#E8C170" />
<rect x="39" y="13" width="1" height="1" fill="#DE9E41" />
<rect x="40" y="13" width="1" height="1" fill="#DE9E41" />
<rect x="41" y="13" width="1" height="1" fill="#DE9E41" />
<rect x="42" y="13" width="1" height="1" fill="#DE9E41" />
<rect x="43" y="13" width="1" height="1" fill="#DE9E41" />
<rect x="39" y="14" width="1" height="1" fill="#E8C170" />
<rect x="40" y="14" width="1" height="1" fill="#E8C170" />
<rect x="41" y="14" width="1" height="1" fill="#DE9E41" />
<rect x="42" y="14" width="1" height="1" fill="#DE9E41" />
<rect x="43" y="14" width="1" height="1" fill="#DE9E41" />
<rect x="44" y="14" width="1" height="1" fill="#DE9E41" />
<rect x="45" y="14" width="1" height="1" fill="#DE9E41" />
<rect x="41" y="15" width="1" height="1" fill="#E8C170" />
<rect x="42" y="15" width="1" height="1" fill="#E8C170" />
<rect x="43" y="15" width="1" height="1" fill="#DE9E41" />
<rect x="44" y="15" width="1" height="1" fill="#DE9E41" />
<rect x="45" y="15" width="1" height="1" fill="#DE9E41" />
<rect x="46" y="15" width="1" height="1" fill="#DE9E41" />
<rect x="43" y="16" width="1" height="1" fill="#E8C170" />
<rect x="44" y="16" width="1" height="1" fill="#DE9E41" />
<rect x="45" y="16" width="1" height="1" fill="#DE9E41" />
<rect x="46" y="16" width="1" height="1" fill="#DE9E41" />
<rect x="47" y="16" width="1" height="1" fill="#DE9E41" />
<rect x="44" y="17" width="1" height="1" fill="#E8C170" />
<rect x="45" y="17" width="1" height="1" fill="#DE9E41" />
<rect x="46" y="17" width="1" height="1" fill="#DE9E41" />
<rect x="47" y="17" width="1" height="1" fill="#DE9E41" />
<rect x="48" y="17" width="1" height="1" fill="#DE9E41" />
<rect x="45" y="18" width="1" height="1" fill="#E8C170" />
<rect x="46" y="18" width="1" height="1" fill="#DE9E41" />
<rect x="47" y="18" width="1" height="1" fill="#DE9E41" />
<rect x="48" y="18" width="1" height="1" fill="#DE9E41" />
<rect x="49" y="18" width="1" height="1" fill="#DE9E41" />
<rect x="46" y="19" width="1" height="1" fill="#E8C170" />
<rect x="47" y="19" width="1" height="1" fill="#DE9E41" />
<rect x="48" y="19" width="1" height="1" fill="#DE9E41" />
<rect x="49" y="19" width="1" height="1" fill="#DE9E41" />
<rect x="50" y="19" width="1" height="1" fill="#DE9E41" />
<rect x="46" y="20" width="1" height="1" fill="#E8C170" />
<rect x="47" y="20" width="1" height="1" fill="#DE9E41" />
<rect x="48" y="20" width="1" height="1" fill="#DE9E41" />
<rect x="49" y="20" width="1" height="1" fill="#DE9E41" />
<rect x="50" y="20" width="1" height="1" fill="#DE9E41" />
<rect x="47" y="21" width="1" height="1" fill="#E8C170" />
<rect x="48" y="21" width="1" height="1" fill="#DE9E41" />
<rect x="49" y="21" width="1" height="1" fill="#DE9E41" />
<rect x="50" y="21" width="1" height="1" fill="#DE9E41" />
<rect x="51" y="21" width="1" height="1" fill="#DE9E41" />
<rect x="47" y="22" width="1" height="1" fill="#E8C170" />
<rect x="48" y="22" width="1" height="1" fill="#DE9E41" />
<rect x="49" y="22" width="1" height="1" fill="#DE9E41" />
<rect x="50" y="22" width="1" height="1" fill="#DE9E41" />
<rect x="51" y="22" width="1" height="1" fill="#DE9E41" />
<rect x="52" y="22" width="1" height="1" fill="#DE9E41" />
<rect x="28" y="23" width="1" height="1" fill="#7A4841" />
<rect x="29" y="23" width="1" height="1" fill="#7A4841" />
<rect x="30" y="23" width="1" height="1" fill="#7A4841" />
<rect x="47" y="23" width="1" height="1" fill="#E8C170" />
<rect x="48" y="23" width="1" height="1" fill="#DE9E41" />
<rect x="49" y="23" width="1" height="1" fill="#DE9E41" />
<rect x="50" y="23" width="1" height="1" fill="#DE9E41" />
<rect x="51" y="23" width="1" height="1" fill="#DE9E41" />
<rect x="52" y="23" width="1" height="1" fill="#BE772B" />
<rect x="27" y="24" width="1" height="1" fill="#7A4841" />
<rect x="28" y="24" width="1" height="1" fill="#7A4841" />
<rect x="29" y="24" width="1" height="1" fill="#4D2B32" />
<rect x="30" y="24" width="1" height="1" fill="#4D2B32" />
<rect x="31" y="24" width="1" height="1" fill="#4D2B32" />
<rect x="32" y="24" width="1" height="1" fill="#4D2B32" />
<rect x="48" y="24" width="1" height="1" fill="#E8C170" />
<rect x="49" y="24" width="1" height="1" fill="#DE9E41" />
<rect x="50" y="24" width="1" height="1" fill="#DE9E41" />
<rect x="51" y="24" width="1" height="1" fill="#DE9E41" />
<rect x="52" y="24" width="1" height="1" fill="#BE772B" />
<rect x="27" y="25" width="1" height="1" fill="#7A4841" />
<rect x="28" y="25" width="1" height="1" fill="#7A4841" />
<rect x="29" y="25" width="1" height="1" fill="#4D2B32" />
<rect x="30" y="25" width="1" height="1" fill="#4D2B32" />
<rect x="31" y="25" width="1" height="1" fill="#4D2B32" />
<rect x="32" y="25" width="1" height="1" fill="#4D2B32" />
<rect x="48" y="25" width="1" height="1" fill="#E8C170" />
<rect x="49" y="25" width="1" height="1" fill="#DE9E41" />
<rect x="50" y="25" width="1" height="1" fill="#DE9E41" />
<rect x="51" y="25" width="1" height="1" fill="#BE772B" />
<rect x="52" y="25" width="1" height="1" fill="#BE772B" />
<rect x="53" y="25" width="1" height="1" fill="#BE772B" />
<rect x="26" y="26" width="1" height="1" fill="#7A4841" />
<rect x="27" y="26" width="1" height="1" fill="#4D2B32" />
<rect x="28" y="26" width="1" height="1" fill="#C7CFCC" />
<rect x="29" y="26" width="1" height="1" fill="#A8B5B2" />
<rect x="30" y="26" width="1" height="1" fill="#4D2B32" />
<rect x="31" y="26" width="1" height="1" fill="#4D2B32" />
<rect x="32" y="26" width="1" height="1" fill="#4D2B32" />
<rect x="33" y="26" width="1" height="1" fill="#4D2B32" />
<rect x="48" y="26" width="1" height="1" fill="#BE772B" />
<rect x="49" y="26" width="1" height="1" fill="#BE772B" />
<rect x="50" y="26" width="1" height="1" fill="#BE772B" />
<rect x="51" y="26" width="1" height="1" fill="#BE772B" />
<rect x="52" y="26" width="1" height="1" fill="#BE772B" />
<rect x="53" y="26" width="1" height="1" fill="#884B2B" />
<rect x="26" y="27" width="1" height="1" fill="#4D2B32" />
<rect x="27" y="27" width="1" height="1" fill="#C7CFCC" />
<rect x="28" y="27" width="1" height="1" fill="#A8B5B2" />
<rect x="29" y="27" width="1" height="1" fill="#A8B5B2" />
<rect x="30" y="27" width="1" height="1" fill="#A8B5B2" />
<rect x="31" y="27" width="1" height="1" fill="#4D2B32" />
<rect x="32" y="27" width="1" height="1" fill="#4D2B32" />
<rect x="33" y="27" width="1" height="1" fill="#4D2B32" />
<rect x="47" y="27" width="1" height="1" fill="#BE772B" />
<rect x="48" y="27" width="1" height="1" fill="#BE772B" />
<rect x="49" y="27" width="1" height="1" fill="#BE772B" />
<rect x="50" y="27" width="1" height="1" fill="#BE772B" />
<rect x="51" y="27" width="1" height="1" fill="#BE772B" />
<rect x="52" y="27" width="1" height="1" fill="#BE772B" />
<rect x="53" y="27" width="1" height="1" fill="#884B2B" />
<rect x="26" y="28" width="1" height="1" fill="#4D2B32" />
<rect x="27" y="28" width="1" height="1" fill="#090A14" />
<rect x="28" y="28" width="1" height="1" fill="#C7CFCC" />
<rect x="29" y="28" width="1" height="1" fill="#090A14" />
<rect x="30" y="28" width="1" height="1" fill="#090A14" />
<rect x="31" y="28" width="1" height="1" fill="#4D2B32" />
<rect x="32" y="28" width="1" height="1" fill="#4D2B32" />
<rect x="33" y="28" width="1" height="1" fill="#4D2B32" />
<rect x="46" y="28" width="1" height="1" fill="#884B2B" />
<rect x="47" y="28" width="1" height="1" fill="#884B2B" />
<rect x="48" y="28" width="1" height="1" fill="#884B2B" />
<rect x="49" y="28" width="1" height="1" fill="#884B2B" />
<rect x="50" y="28" width="1" height="1" fill="#BE772B" />
<rect x="51" y="28" width="1" height="1" fill="#BE772B" />
<rect x="52" y="28" width="1" height="1" fill="#BE772B" />
<rect x="53" y="28" width="1" height="1" fill="#BE772B" />
<rect x="26" y="29" width="1" height="1" fill="#4D2B32" />
<rect x="27" y="29" width="1" height="1" fill="#090A14" />
<rect x="28" y="29" width="1" height="1" fill="#C7CFCC" />
<rect x="29" y="29" width="1" height="1" fill="#A8B5B2" />
<rect x="30" y="29" width="1" height="1" fill="#090A14" />
<rect x="31" y="29" width="1" height="1" fill="#4D2B32" />
<rect x="32" y="29" width="1" height="1" fill="#4D2B32" />
<rect x="33" y="29" width="1" height="1" fill="#4D2B32" />
<rect x="44" y="29" width="1" height="1" fill="#BE772B" />
<rect x="45" y="29" width="1" height="1" fill="#BE772B" />
<rect x="49" y="29" width="1" height="1" fill="#884B2B" />
<rect x="50" y="29" width="1" height="1" fill="#884B2B" />
<rect x="51" y="29" width="1" height="1" fill="#884B2B" />
<rect x="52" y="29" width="1" height="1" fill="#BE772B" />
<rect x="53" y="29" width="1" height="1" fill="#884B2B" />
<rect x="26" y="30" width="1" height="1" fill="#7A4841" />
<rect x="27" y="30" width="1" height="1" fill="#C7CFCC" />
<rect x="28" y="30" width="1" height="1" fill="#090A14" />
<rect x="29" y="30" width="1" height="1" fill="#A8B5B2" />
<rect x="30" y="30" width="1" height="1" fill="#A8B5B2" />
<rect x="31" y="30" width="1" height="1" fill="#4D2B32" />
<rect x="32" y="30" width="1" height="1" fill="#4D2B32" />
<rect x="33" y="30" width="1" height="1" fill="#4D2B32" />
<rect x="41" y="30" width="1" height="1" fill="#202E37" />
<rect x="42" y="30" width="1" height="1" fill="#202E37" />
<rect x="43" y="30" width="1" height="1" fill="#BE772B" />
<rect x="51" y="30" width="1" height="1" fill="#884B2B" />
<rect x="52" y="30" width="1" height="1" fill="#884B2B" />
<rect x="53" y="30" width="1" height="1" fill="#884B2B" />
<rect x="26" y="31" width="1" height="1" fill="#7A4841" />
<rect x="27" y="31" width="1" height="1" fill="#4D2B32" />
<rect x="28" y="31" width="1" height="1" fill="#A8B5B2" />
<rect x="29" y="31" width="1" height="1" fill="#A8B5B2" />
<rect x="30" y="31" width="1" height="1" fill="#4D2B32" />
<rect x="31" y="31" width="1" height="1" fill="#4D2B32" />
<rect x="32" y="31" width="1" height="1" fill="#4D2B32" />
<rect x="33" y="31" width="1" height="1" fill="#7A4841" />
<rect x="34" y="31" width="1" height="1" fill="#7A4841" />
<rect x="40" y="31" width="1" height="1" fill="#202E37" />
<rect x="41" y="31" width="1" height="1" fill="#202E37" />
<rect x="42" y="31" width="1" height="1" fill="#202E37" />
<rect x="43" y="31" width="1" height="1" fill="#4D2B32" />
<rect x="51" y="31" width="1" height="1" fill="#884B2B" />
<rect x="52" y="31" width="1" height="1" fill="#884B2B" />
<rect x="53" y="31" width="1" height="1" fill="#884B2B" />
<rect x="27" y="32" width="1" height="1" fill="#7A4841" />
<rect x="28" y="32" width="1" height="1" fill="#A8B5B2" />
<rect x="29" y="32" width="1" height="1" fill="#4D2B32" />
<rect x="30" y="32" width="1" height="1" fill="#4D2B32" />
<rect x="31" y="32" width="1" height="1" fill="#7A4841" />
<rect x="32" y="32" width="1" height="1" fill="#7A4841" />
<rect x="33" y="32" width="1" height="1" fill="#4D2B32" />
<rect x="34" y="32" width="1" height="1" fill="#4D2B32" />
<rect x="35" y="32" width="1" height="1" fill="#4D2B32" />
<rect x="36" y="32" width="1" height="1" fill="#4D2B32" />
<rect x="37" y="32" width="1" height="1" fill="#4D2B32" />
<rect x="38" y="32" width="1" height="1" fill="#BE772B" />
<rect x="39" y="32" width="1" height="1" fill="#BE772B" />
<rect x="40" y="32" width="1" height="1" fill="#4D2B32" />
<rect x="41" y="32" width="1" height="1" fill="#202E37" />
<rect x="42" y="32" width="1" height="1" fill="#202E37" />
<rect x="43" y="32" width="1" height="1" fill="#4D2B32" />
<rect x="52" y="32" width="1" height="1" fill="#884B2B" />
<rect x="53" y="32" width="1" height="1" fill="#884B2B" />
<rect x="24" y="33" width="1" height="1" fill="#4D2B32" />
<rect x="25" y="33" width="1" height="1" fill="#4D2B32" />
<rect x="26" y="33" width="1" height="1" fill="#4D2B32" />
<rect x="27" y="33" width="1" height="1" fill="#AD7757" />
<rect x="28" y="33" width="1" height="1" fill="#7A4841" />
<rect x="29" y="33" width="1" height="1" fill="#7A4841" />
<rect x="30" y="33" width="1" height="1" fill="#7A4841" />
<rect x="31" y="33" width="1" height="1" fill="#7A4841" />
<rect x="32" y="33" width="1" height="1" fill="#4D2B32" />
<rect x="33" y="33" width="1" height="1" fill="#4D2B32" />
<rect x="34" y="33" width="1" height="1" fill="#4D2B32" />
<rect x="35" y="33" width="1" height="1" fill="#4D2B32" />
<rect x="36" y="33" width="1" height="1" fill="#BE772B" />
<rect x="37" y="33" width="1" height="1" fill="#BE772B" />
<rect x="38" y="33" width="1" height="1" fill="#7A4841" />
<rect x="40" y="33" width="1" height="1" fill="#7A4841" />
<rect x="41" y="33" width="1" height="1" fill="#202E37" />
<rect x="42" y="33" width="1" height="1" fill="#4D2B32" />
<rect x="43" y="33" width="1" height="1" fill="#7A4841" />
<rect x="52" y="33" width="1" height="1" fill="#884B2B" />
<rect x="53" y="33" width="1" height="1" fill="#884B2B" />
<rect x="24" y="34" width="1" height="1" fill="#4D2B32" />
<rect x="25" y="34" width="1" height="1" fill="#4D2B32" />
<rect x="26" y="34" width="1" height="1" fill="#4D2B32" />
<rect x="27" y="34" width="1" height="1" fill="#4D2B32" />
<rect x="28" y="34" width="1" height="1" fill="#AD7757" />
<rect x="29" y="34" width="1" height="1" fill="#7A4841" />
<rect x="30" y="34" width="1" height="1" fill="#7A4841" />
<rect x="31" y="34" width="1" height="1" fill="#4D2B32" />
<rect x="32" y="34" width="1" height="1" fill="#4D2B32" />
<rect x="33" y="34" width="1" height="1" fill="#4D2B32" />
<rect x="34" y="34" width="1" height="1" fill="#BE772B" />
<rect x="35" y="34" width="1" height="1" fill="#BE772B" />
<rect x="36" y="34" width="1" height="1" fill="#4D2B32" />
<rect x="37" y="34" width="1" height="1" fill="#7A4841" />
<rect x="38" y="34" width="1" height="1" fill="#7A4841" />
<rect x="39" y="34" width="1" height="1" fill="#7A4841" />
<rect x="40" y="34" width="1" height="1" fill="#7A4841" />
<rect x="41" y="34" width="1" height="1" fill="#4D2B32" />
<rect x="42" y="34" width="1" height="1" fill="#7A4841" />
<rect x="52" y="34" width="1" height="1" fill="#884B2B" />
<rect x="24" y="35" width="1" height="1" fill="#7A4841" />
<rect x="25" y="35" width="1" height="1" fill="#4D2B32" />
<rect x="26" y="35" width="1" height="1" fill="#4D2B32" />
<rect x="27" y="35" width="1" height="1" fill="#4D2B32" />
<rect x="28" y="35" width="1" height="1" fill="#4D2B32" />
<rect x="29" y="35" width="1" height="1" fill="#7A4841" />
<rect x="30" y="35" width="1" height="1" fill="#4D2B32" />
<rect x="31" y="35" width="1" height="1" fill="#4D2B32" />
<rect x="32" y="35" width="1" height="1" fill="#BE772B" />
<rect x="33" y="35" width="1" height="1" fill="#BE772B" />
<rect x="34" y="35" width="1" height="1" fill="#4D2B32" />
<rect x="35" y="35" width="1" height="1" fill="#4D2B32" />
<rect x="36" y="35" width="1" height="1" fill="#4D2B32" />
<rect x="37" y="35" width="1" height="1" fill="#7A4841" />
<rect x="38" y="35" width="1" height="1" fill="#7A4841" />
<rect x="39" y="35" width="1" height="1" fill="#7A4841" />
<rect x="40" y="35" width="1" height="1" fill="#7A4841" />
<rect x="41" y="35" width="1" height="1" fill="#7A4841" />
<rect x="23" y="36" width="1" height="1" fill="#7A4841" />
<rect x="24" y="36" width="1" height="1" fill="#7A4841" />
<rect x="25" y="36" width="1" height="1" fill="#4D2B32" />
<rect x="26" y="36" width="1" height="1" fill="#4D2B32" />
<rect x="27" y="36" width="1" height="1" fill="#4D2B32" />
<rect x="28" y="36" width="1" height="1" fill="#4D2B32" />
<rect x="29" y="36" width="1" height="1" fill="#7A4841" />
<rect x="30" y="36" width="1" height="1" fill="#BE772B" />
<rect x="31" y="36" width="1" height="1" fill="#BE772B" />
<rect x="32" y="36" width="1" height="1" fill="#4D2B32" />
<rect x="33" y="36" width="1" height="1" fill="#4D2B32" />
<rect x="34" y="36" width="1" height="1" fill="#4D2B32" />
<rect x="35" y="36" width="1" height="1" fill="#4D2B32" />
<rect x="38" y="36" width="1" height="1" fill="#7A4841" />
<rect x="39" y="36" width="1" height="1" fill="#7A4841" />
<rect x="40" y="36" width="1" height="1" fill="#7A4841" />
<rect x="22" y="37" width="1" height="1" fill="#7A4841" />
<rect x="23" y="37" width="1" height="1" fill="#7A4841" />
<rect x="24" y="37" width="1" height="1" fill="#7A4841" />
<rect x="25" y="37" width="1" height="1" fill="#7A4841" />
<rect x="26" y="37" width="1" height="1" fill="#4D2B32" />
<rect x="27" y="37" width="1" height="1" fill="#4D2B32" />
<rect x="28" y="37" width="1" height="1" fill="#BE772B" />
<rect x="29" y="37" width="1" height="1" fill="#BE772B" />
<rect x="30" y="37" width="1" height="1" fill="#4D2B32" />
<rect x="31" y="37" width="1" height="1" fill="#4D2B32" />
<rect x="32" y="37" width="1" height="1" fill="#4D2B32" />
<rect x="33" y="37" width="1" height="1" fill="#4D2B32" />
<rect x="34" y="37" width="1" height="1" fill="#4D2B32" />
<rect x="21" y="38" width="1" height="1" fill="#7A4841" />
<rect x="22" y="38" width="1" height="1" fill="#7A4841" />
<rect x="23" y="38" width="1" height="1" fill="#7A4841" />
<rect x="24" y="38" width="1" height="1" fill="#7A4841" />
<rect x="26" y="38" width="1" height="1" fill="#BE772B" />
<rect x="27" y="38" width="1" height="1" fill="#BE772B" />
<rect x="28" y="38" width="1" height="1" fill="#4D2B32" />
<rect x="29" y="38" width="1" height="1" fill="#7A4841" />
<rect x="30" y="38" width="1" height="1" fill="#4D2B32" />
<rect x="31" y="38" width="1" height="1" fill="#4D2B32" />
<rect x="32" y="38" width="1" height="1" fill="#4D2B32" />
<rect x="33" y="38" width="1" height="1" fill="#4D2B32" />
<rect x="34" y="38" width="1" height="1" fill="#4D2B32" />
<rect x="20" y="39" width="1" height="1" fill="#7A4841" />
<rect x="21" y="39" width="1" height="1" fill="#7A4841" />
<rect x="22" y="39" width="1" height="1" fill="#7A4841" />
<rect x="24" y="39" width="1" height="1" fill="#BE772B" />
<rect x="25" y="39" width="1" height="1" fill="#BE772B" />
<rect x="27" y="39" width="1" height="1" fill="#4D2B32" />
<rect x="28" y="39" width="1" height="1" fill="#4D2B32" />
<rect x="29" y="39" width="1" height="1" fill="#4D2B32" />
<rect x="30" y="39" width="1" height="1" fill="#7A4841" />
<rect x="31" y="39" width="1" height="1" fill="#4D2B32" />
<rect x="32" y="39" width="1" height="1" fill="#4D2B32" />
<rect x="33" y="39" width="1" height="1" fill="#7A4841" />
<rect x="19" y="40" width="1" height="1" fill="#AD7757" />
<rect x="20" y="40" width="1" height="1" fill="#AD7757" />
<rect x="21" y="40" width="1" height="1" fill="#AD7757" />
<rect x="22" y="40" width="1" height="1" fill="#BE772B" />
<rect x="23" y="40" width="1" height="1" fill="#BE772B" />
<rect x="28" y="40" width="1" height="1" fill="#7A4841" />
<rect x="29" y="40" width="1" height="1" fill="#4D2B32" />
<rect x="30" y="40" width="1" height="1" fill="#AD7757" />
<rect x="31" y="40" width="1" height="1" fill="#7A4841" />
<rect x="32" y="40" width="1" height="1" fill="#7A4841" />
<rect x="33" y="40" width="1" height="1" fill="#7A4841" />
<rect x="34" y="40" width="1" height="1" fill="#7A4841" />
<rect x="18" y="41" width="1" height="1" fill="#7A4841" />
<rect x="19" y="41" width="1" height="1" fill="#151D28" />
<rect x="20" y="41" width="1" height="1" fill="#151D28" />
<rect x="21" y="41" width="1" height="1" fill="#202E37" />
<rect x="22" y="41" width="1" height="1" fill="#AD7757" />
<rect x="27" y="41" width="1" height="1" fill="#4D2B32" />
<rect x="28" y="41" width="1" height="1" fill="#7A4841" />
<rect x="29" y="41" width="1" height="1" fill="#7A4841" />
<rect x="30" y="41" width="1" height="1" fill="#AD7757" />
<rect x="31" y="41" width="1" height="1" fill="#7A4841" />
<rect x="32" y="41" width="1" height="1" fill="#7A4841" />
<rect x="33" y="41" width="1" height="1" fill="#4D2B32" />
<rect x="34" y="41" width="1" height="1" fill="#7A4841" />
<rect x="18" y="42" width="1" height="1" fill="#BE772B" />
<rect x="19" y="42" width="1" height="1" fill="#BE772B" />
<rect x="20" y="42" width="1" height="1" fill="#202E37" />
<rect x="21" y="42" width="1" height="1" fill="#202E37" />
<rect x="22" y="42" width="1" height="1" fill="#AD7757" />
<rect x="27" y="42" width="1" height="1" fill="#4D2B32" />
<rect x="28" y="42" width="1" height="1" fill="#4D2B32" />
<rect x="29" y="42" width="1" height="1" fill="#7A4841" />
<rect x="30" y="42" width="1" height="1" fill="#AD7757" />
<rect x="31" y="42" width="1" height="1" fill="#7A4841" />
<rect x="32" y="42" width="1" height="1" fill="#4D2B32" />
<rect x="33" y="42" width="1" height="1" fill="#4D2B32" />
<rect x="34" y="42" width="1" height="1" fill="#4D2B32" />
<rect x="35" y="42" width="1" height="1" fill="#7A4841" />
<rect x="16" y="43" width="1" height="1" fill="#BE772B" />
<rect x="17" y="43" width="1" height="1" fill="#BE772B" />
<rect x="18" y="43" width="1" height="1" fill="#7A4841" />
<rect x="19" y="43" width="1" height="1" fill="#4D2B32" />
<rect x="20" y="43" width="1" height="1" fill="#4D2B32" />
<rect x="21" y="43" width="1" height="1" fill="#4D2B32" />
<rect x="22" y="43" width="1" height="1" fill="#7A4841" />
<rect x="27" y="43" width="1" height="1" fill="#4D2B32" />
<rect x="28" y="43" width="1" height="1" fill="#7A4841" />
<rect x="29" y="43" width="1" height="1" fill="#AD7757" />
<rect x="30" y="43" width="1" height="1" fill="#090A14" />
<rect x="31" y="43" width="1" height="1" fill="#7A4841" />
<rect x="32" y="43" width="1" height="1" fill="#4D2B32" />
<rect x="33" y="43" width="1" height="1" fill="#4D2B32" />
<rect x="34" y="43" width="1" height="1" fill="#4D2B32" />
<rect x="35" y="43" width="1" height="1" fill="#4D2B32" />
<rect x="14" y="44" width="1" height="1" fill="#BE772B" />
<rect x="15" y="44" width="1" height="1" fill="#BE772B" />
<rect x="19" y="44" width="1" height="1" fill="#7A4841" />
<rect x="20" y="44" width="1" height="1" fill="#4D2B32" />
<rect x="21" y="44" width="1" height="1" fill="#7A4841" />
<rect x="27" y="44" width="1" height="1" fill="#7A4841" />
<rect x="28" y="44" width="1" height="1" fill="#7A4841" />
<rect x="29" y="44" width="1" height="1" fill="#AD7757" />
<rect x="30" y="44" width="1" height="1" fill="#090A14" />
<rect x="31" y="44" width="1" height="1" fill="#090A14" />
<rect x="32" y="44" width="1" height="1" fill="#7A4841" />
<rect x="33" y="44" width="1" height="1" fill="#4D2B32" />
<rect x="34" y="44" width="1" height="1" fill="#4D2B32" />
<rect x="35" y="44" width="1" height="1" fill="#4D2B32" />
<rect x="12" y="45" width="1" height="1" fill="#BE772B" />
<rect x="13" y="45" width="1" height="1" fill="#BE772B" />
<rect x="19" y="45" width="1" height="1" fill="#7A4841" />
<rect x="20" y="45" width="1" height="1" fill="#7A4841" />
<rect x="26" y="45" width="1" height="1" fill="#4D2B32" />
<rect x="27" y="45" width="1" height="1" fill="#7A4841" />
<rect x="28" y="45" width="1" height="1" fill="#7A4841" />
<rect x="29" y="45" width="1" height="1" fill="#AD7757" />
<rect x="30" y="45" width="1" height="1" fill="#090A14" />
<rect x="31" y="45" width="1" height="1" fill="#090A14" />
<rect x="32" y="45" width="1" height="1" fill="#7A4841" />
<rect x="33" y="45" width="1" height="1" fill="#4D2B32" />
<rect x="34" y="45" width="1" height="1" fill="#4D2B32" />
<rect x="35" y="45" width="1" height="1" fill="#4D2B32" />
<rect x="36" y="45" width="1" height="1" fill="#7A4841" />
<rect x="10" y="46" width="1" height="1" fill="#BE772B" />
<rect x="11" y="46" width="1" height="1" fill="#BE772B" />
<rect x="26" y="46" width="1" height="1" fill="#4D2B32" />
<rect x="27" y="46" width="1" height="1" fill="#7A4841" />
<rect x="28" y="46" width="1" height="1" fill="#7A4841" />
<rect x="29" y="46" width="1" height="1" fill="#AD7757" />
<rect x="30" y="46" width="1" height="1" fill="#090A14" />
<rect x="31" y="46" width="1" height="1" fill="#090A14" />
<rect x="32" y="46" width="1" height="1" fill="#7A4841" />
<rect x="33" y="46" width="1" height="1" fill="#4D2B32" />
<rect x="34" y="46" width="1" height="1" fill="#4D2B32" />
<rect x="35" y="46" width="1" height="1" fill="#4D2B32" />
<rect x="36" y="46" width="1" height="1" fill="#4D2B32" />
<rect x="8" y="47" width="1" height="1" fill="#BE772B" />
<rect x="9" y="47" width="1" height="1" fill="#BE772B" />
<rect x="26" y="47" width="1" height="1" fill="#7A4841" />
<rect x="27" y="47" width="1" height="1" fill="#7A4841" />
<rect x="28" y="47" width="1" height="1" fill="#AD7757" />
<rect x="29" y="47" width="1" height="1" fill="#090A14" />
<rect x="30" y="47" width="1" height="1" fill="#090A14" />
<rect x="31" y="47" width="1" height="1" fill="#090A14" />
<rect x="32" y="47" width="1" height="1" fill="#090A14" />
<rect x="33" y="47" width="1" height="1" fill="#7A4841" />
<rect x="34" y="47" width="1" height="1" fill="#4D2B32" />
<rect x="35" y="47" width="1" height="1" fill="#4D2B32" />
<rect x="36" y="47" width="1" height="1" fill="#4D2B32" />
<rect x="26" y="48" width="1" height="1" fill="#7A4841" />
<rect x="27" y="48" width="1" height="1" fill="#7A4841" />
<rect x="28" y="48" width="1" height="1" fill="#AD7757" />
<rect x="29" y="48" width="1" height="1" fill="#090A14" />
<rect x="30" y="48" width="1" height="1" fill="#090A14" />
<rect x="31" y="48" width="1" height="1" fill="#090A14" />
<rect x="32" y="48" width="1" height="1" fill="#090A14" />
<rect x="33" y="48" width="1" height="1" fill="#7A4841" />
<rect x="34" y="48" width="1" height="1" fill="#4D2B32" />
<rect x="35" y="48" width="1" height="1" fill="#4D2B32" />
<rect x="36" y="48" width="1" height="1" fill="#4D2B32" />
<rect x="44" y="48" width="1" height="1" fill="#4D2B32" />
<rect x="45" y="48" width="1" height="1" fill="#4D2B32" />
<rect x="25" y="49" width="1" height="1" fill="#4D2B32" />
<rect x="26" y="49" width="1" height="1" fill="#7A4841" />
<rect x="27" y="49" width="1" height="1" fill="#7A4841" />
<rect x="28" y="49" width="1" height="1" fill="#AD7757" />
<rect x="29" y="49" width="1" height="1" fill="#090A14" />
<rect x="30" y="49" width="1" height="1" fill="#090A14" />
<rect x="31" y="49" width="1" height="1" fill="#090A14" />
<rect x="32" y="49" width="1" height="1" fill="#090A14" />
<rect x="33" y="49" width="1" height="1" fill="#090A14" />
<rect x="34" y="49" width="1" height="1" fill="#7A4841" />
<rect x="35" y="49" width="1" height="1" fill="#4D2B32" />
<rect x="36" y="49" width="1" height="1" fill="#4D2B32" />
<rect x="37" y="49" width="1" height="1" fill="#4D2B32" />
<rect x="44" y="49" width="1" height="1" fill="#4D2B32" />
<rect x="25" y="50" width="1" height="1" fill="#7A4841" />
<rect x="26" y="50" width="1" height="1" fill="#7A4841" />
<rect x="27" y="50" width="1" height="1" fill="#AD7757" />
<rect x="28" y="50" width="1" height="1" fill="#090A14" />
<rect x="29" y="50" width="1" height="1" fill="#090A14" />
<rect x="30" y="50" width="1" height="1" fill="#090A14" />
<rect x="31" y="50" width="1" height="1" fill="#090A14" />
<rect x="32" y="50" width="1" height="1" fill="#090A14" />
<rect x="33" y="50" width="1" height="1" fill="#090A14" />
<rect x="34" y="50" width="1" height="1" fill="#7A4841" />
<rect x="35" y="50" width="1" height="1" fill="#4D2B32" />
<rect x="36" y="50" width="1" height="1" fill="#4D2B32" />
<rect x="37" y="50" width="1" height="1" fill="#4D2B32" />
<rect x="25" y="51" width="1" height="1" fill="#7A4841" />
<rect x="26" y="51" width="1" height="1" fill="#7A4841" />
<rect x="27" y="51" width="1" height="1" fill="#AD7757" />
<rect x="28" y="51" width="1" height="1" fill="#090A14" />
<rect x="29" y="51" width="1" height="1" fill="#090A14" />
<rect x="32" y="51" width="1" height="1" fill="#090A14" />
<rect x="33" y="51" width="1" height="1" fill="#090A14" />
<rect x="34" y="51" width="1" height="1" fill="#090A14" />
<rect x="35" y="51" width="1" height="1" fill="#7A4841" />
<rect x="36" y="51" width="1" height="1" fill="#4D2B32" />
<rect x="37" y="51" width="1" height="1" fill="#4D2B32" />
<rect x="25" y="52" width="1" height="1" fill="#7A4841" />
<rect x="26" y="52" width="1" height="1" fill="#AD7757" />
<rect x="27" y="52" width="1" height="1" fill="#090A14" />
<rect x="28" y="52" width="1" height="1" fill="#090A14" />
<rect x="33" y="52" width="1" height="1" fill="#090A14" />
<rect x="34" y="52" width="1" height="1" fill="#090A14" />
<rect x="35" y="52" width="1" height="1" fill="#7A4841" />
<rect x="36" y="52" width="1" height="1" fill="#4D2B32" />
<rect x="37" y="52" width="1" height="1" fill="#4D2B32" />
<rect x="22" y="53" width="1" height="1" fill="#4D2B32" />
<rect x="25" y="53" width="1" height="1" fill="#7A4841" />
<rect x="26" y="53" width="1" height="1" fill="#AD7757" />
<rect x="27" y="53" width="1" height="1" fill="#090A14" />
<rect x="33" y="53" width="1" height="1" fill="#090A14" />
<rect x="36" y="53" width="1" height="1" fill="#7A4841" />
<rect x="37" y="53" width="1" height="1" fill="#4D2B32" />
<rect x="23" y="54" width="1" height="1" fill="#4D2B32" />
<rect x="26" y="54" width="1" height="1" fill="#AD7757" />
<rect x="36" y="54" width="1" height="1" fill="#7A4841" />
</svg>