<?xml version="1.0" encoding="UTF-8" ?>
<svg version="1.1" width="60" height="65" xmlns="http://www.w3.org/2000/svg" shape-rendering="crispEdges">
<rect x="20" y="2" width="1" height="1" fill="#EBEDE9" />
<rect x="21" y="2" width="1" height="1" fill="#EBEDE9" />
<rect x="18" y="3" width="1" height="1" fill="#EBEDE9" />
<rect x="19" y="3" width="1" height="1" fill="#EBEDE9" />
<rect x="16" y="4" width="1" height="1" fill="#EBEDE9" />
<rect x="13" y="6" width="1" height="1" fill="#EBEDE9" />
<rect x="46" y="8" width="1" height="1" fill="#EBEDE9" />
<rect x="47" y="8" width="1" height="1" fill="#EBEDE9" />
<rect x="48" y="8" width="1" height="1" fill="#EBEDE9" />
<rect x="49" y="8" width="1" height="1" fill="#EBEDE9" />
<rect x="50" y="9" width="1" height="1" fill="#EBEDE9" />
<rect x="51" y="9" width="1" height="1" fill="#EBEDE9" />
<rect x="52" y="9" width="1" height="1" fill="#EBEDE9" />
<rect x="4" y="16" width="1" height="1" fill="#EBEDE9" />
<rect x="4" y="17" width="1" height="1" fill="#EBEDE9" />
<rect x="3" y="18" width="1" height="1" fill="#EBEDE9" />
<rect x="3" y="19" width="1" height="1" fill="#EBEDE9" />
<rect x="26" y="20" width="1" height="1" fill="#EBEDE9" />
<rect x="15" y="21" width="1" height="1" fill="#BE772B" />
<rect x="25" y="21" width="1" height="1" fill="#EBEDE9" />
<rect x="16" y="22" width="1" height="1" fill="#BE772B" />
<rect x="25" y="22" width="1" height="1" fill="#EBEDE9" />
<rect x="17" y="23" width="1" height="1" fill="#BE772B" />
<rect x="25" y="23" width="1" height="1" fill="#EBEDE9" />
<rect x="18" y="24" width="1" height="1" fill="#BE772B" />
<rect x="19" y="25" width="1" height="1" fill="#BE772B" />
<rect x="20" y="26" width="1" height="1" fill="#BE772B" />
<rect x="0" y="27" width="1" height="1" fill="#EBEDE9" />
<rect x="21" y="27" width="1" height="1" fill="#BE772B" />
<rect x="28" y="27" width="1" height="1" fill="#7A4841" />
<rect x="29" y="27" width="1" height="1" fill="#7A4841" />
<rect x="30" y="27" width="1" height="1" fill="#7A4841" />
<rect x="22" y="28" width="1" height="1" fill="#BE772B" />
<rect x="27" y="28" width="1" height="1" fill="#7A4841" />
<rect x="28" y="28" width="1" height="1" fill="#4D2B32" />
<rect x="29" y="28" width="1" height="1" fill="#4D2B32" />
<rect x="30" y="28" width="1" height="1" fill="#4D2B32" />
<rect x="31" y="28" width="1" height="1" fill="#4D2B32" />
<rect x="32" y="28" width="1" height="1" fill="#4D2B32" />
<rect x="23" y="29" width="1" height="1" fill="#BE772B" />
<rect x="27" y="29" width="1" height="1" fill="#C7CFCC" />
<rect x="28" y="29" width="1" height="1" fill="#A8B5B2" />
<rect x="29" y="29" width="1" height="1" fill="#4D2B32" />
<rect x="30" y="29" width="1" height="1" fill="#4D2B32" />
<rect x="31" y="29" width="1" height="1" fill="#4D2B32" />
<rect x="32" y="29" width="1" height="1" fill="#4D2B32" />
<rect x="24" y="30" width="1" height="1" fill="#BE772B" />
<rect x="26" y="30" width="1" height="1" fill="#C7CFCC" />
<rect x="27" y="30" width="1" height="1" fill="#A8B5B2" />
<rect x="28" y="30" width="1" height="1" fill="#A8B5B2" />
<rect x="29" y="30" width="1" height="1" fill="#A8B5B2" />
<rect x="30" y="30" width="1" height="1" fill="#4D2B32" />
<rect x="31" y="30" width="1" height="1" fill="#4D2B32" />
<rect x="32" y="30" width="1" height="1" fill="#4D2B32" />
<rect x="25" y="31" width="1" height="1" fill="#BE772B" />
<rect x="26" y="31" width="1" height="1" fill="#C7CFCC" />
<rect x="27" y="31" width="1" height="1" fill="#090A14" />
<rect x="28" y="31" width="1" height="1" fill="#090A14" />
<rect x="29" y="31" width="1" height="1" fill="#A8B5B2" />
<rect x="30" y="31" width="1" height="1" fill="#4D2B32" />
<rect x="31" y="31" width="1" height="1" fill="#4D2B32" />
<rect x="32" y="31" width="1" height="1" fill="#4D2B32" />
<rect x="33" y="31" width="1" height="1" fill="#4D2B32" />
<rect x="26" y="32" width="1" height="1" fill="#BE772B" />
<rect x="27" y="32" width="1" height="1" fill="#C7CFCC" />
<rect x="28" y="32" width="1" height="1" fill="#090A14" />
<rect x="29" y="32" width="1" height="1" fill="#A8B5B2" />
<rect x="30" y="32" width="1" height="1" fill="#4D2B32" />
<rect x="31" y="32" width="1" height="1" fill="#4D2B32" />
<rect x="32" y="32" width="1" height="1" fill="#4D2B32" />
<rect x="33" y="32" width="1" height="1" fill="#4D2B32" />
<rect x="0" y="33" width="1" height="1" fill="#EBEDE9" />
<rect x="26" y="33" width="1" height="1" fill="#090A14" />
<rect x="27" y="33" width="1" height="1" fill="#BE772B" />
<rect x="28" y="33" width="1" height="1" fill="#A8B5B2" />
<rect x="29" y="33" width="1" height="1" fill="#A8B5B2" />
<rect x="30" y="33" width="1" height="1" fill="#4D2B32" />
<rect x="31" y="33" width="1" height="1" fill="#4D2B32" />
<rect x="32" y="33" width="1" height="1" fill="#4D2B32" />
<rect x="33" y="33" width="1" height="1" fill="#4D2B32" />
<rect x="55" y="33" width="1" height="1" fill="#DE9E41" />
<rect x="0" y="34" width="1" height="1" fill="#EBEDE9" />
<rect x="26" y="34" width="1" height="1" fill="#C7CFCC" />
<rect x="27" y="34" width="1" height="1" fill="#A8B5B2" />
<rect x="28" y="34" width="1" height="1" fill="#BE772B" />
<rect x="29" y="34" width="1" height="1" fill="#4D2B32" />
<rect x="30" y="34" width="1" height="1" fill="#4D2B32" />
<rect x="31" y="34" width="1" height="1" fill="#4D2B32" />
<rect x="32" y="34" width="1" height="1" fill="#4D2B32" />
<rect x="33" y="34" width="1" height="1" fill="#4D2B32" />
<rect x="34" y="34" width="1" height="1" fill="#4D2B32" />
<rect x="35" y="34" width="1" height="1" fill="#4D2B32" />
<rect x="55" y="34" width="1" height="1" fill="#E8C170" />
<rect x="56" y="34" width="1" height="1" fill="#DE9E41" />
<rect x="0" y="35" width="1" height="1" fill="#EBEDE9" />
<rect x="26" y="35" width="1" height="1" fill="#A8B5B2" />
<rect x="27" y="35" width="1" height="1" fill="#A8B5B2" />
<rect x="28" y="35" width="1" height="1" fill="#4D2B32" />
<rect x="29" y="35" width="1" height="1" fill="#BE772B" />
<rect x="30" y="35" width="1" height="1" fill="#4D2B32" />
<rect x="31" y="35" width="1" height="1" fill="#4D2B32" />
<rect x="32" y="35" width="1" height="1" fill="#7A4841" />
<rect x="33" y="35" width="1" height="1" fill="#4D2B32" />
<rect x="34" y="35" width="1" height="1" fill="#7A4841" />
<rect x="35" y="35" width="1" height="1" fill="#7A4841" />
<rect x="36" y="35" width="1" height="1" fill="#4D2B32" />
<rect x="55" y="35" width="1" height="1" fill="#E8C170" />
<rect x="56" y="35" width="1" height="1" fill="#DE9E41" />
<rect x="0" y="36" width="1" height="1" fill="#EBEDE9" />
<rect x="27" y="36" width="1" height="1" fill="#AD7757" />
<rect x="28" y="36" width="1" height="1" fill="#4D2B32" />
<rect x="29" y="36" width="1" height="1" fill="#7A4841" />
<rect x="30" y="36" width="1" height="1" fill="#BE772B" />
<rect x="31" y="36" width="1" height="1" fill="#7A4841" />
<rect x="32" y="36" width="1" height="1" fill="#4D2B32" />
<rect x="33" y="36" width="1" height="1" fill="#4D2B32" />
<rect x="34" y="36" width="1" height="1" fill="#7A4841" />
<rect x="35" y="36" width="1" height="1" fill="#7A4841" />
<rect x="36" y="36" width="1" height="1" fill="#7A4841" />
<rect x="56" y="36" width="1" height="1" fill="#E8C170" />
<rect x="57" y="36" width="1" height="1" fill="#DE9E41" />
<rect x="1" y="37" width="1" height="1" fill="#EBEDE9" />
<rect x="29" y="37" width="1" height="1" fill="#7A4841" />
<rect x="30" y="37" width="1" height="1" fill="#4D2B32" />
<rect x="31" y="37" width="1" height="1" fill="#BE772B" />
<rect x="32" y="37" width="1" height="1" fill="#4D2B32" />
<rect x="33" y="37" width="1" height="1" fill="#4D2B32" />
<rect x="34" y="37" width="1" height="1" fill="#7A4841" />
<rect x="35" y="37" width="1" height="1" fill="#7A4841" />
<rect x="36" y="37" width="1" height="1" fill="#7A4841" />
<rect x="37" y="37" width="1" height="1" fill="#7A4841" />
<rect x="56" y="37" width="1" height="1" fill="#E8C170" />
<rect x="57" y="37" width="1" height="1" fill="#DE9E41" />
<rect x="1" y="38" width="1" height="1" fill="#EBEDE9" />
<rect x="30" y="38" width="1" height="1" fill="#7A4841" />
<rect x="31" y="38" width="1" height="1" fill="#4D2B32" />
<rect x="32" y="38" width="1" height="1" fill="#BE772B" />
<rect x="33" y="38" width="1" height="1" fill="#4D2B32" />
<rect x="34" y="38" width="1" height="1" fill="#4D2B32" />
<rect x="35" y="38" width="1" height="1" fill="#4D2B32" />
<rect x="36" y="38" width="1" height="1" fill="#7A4841" />
<rect x="37" y="38" width="1" height="1" fill="#7A4841" />
<rect x="38" y="38" width="1" height="1" fill="#7A4841" />
<rect x="56" y="38" width="1" height="1" fill="#E8C170" />
<rect x="57" y="38" width="1" height="1" fill="#DE9E41" />
<rect x="1" y="39" width="1" height="1" fill="#EBEDE9" />
<rect x="30" y="39" width="1" height="1" fill="#7A4841" />
<rect x="31" y="39" width="1" height="1" fill="#4D2B32" />
<rect x="32" y="39" width="1" height="1" fill="#4D2B32" />
<rect x="33" y="39" width="1" height="1" fill="#BE772B" />
<rect x="34" y="39" width="1" height="1" fill="#4D2B32" />
<rect x="35" y="39" width="1" height="1" fill="#4D2B32" />
<rect x="36" y="39" width="1" height="1" fill="#7A4841" />
<rect x="37" y="39" width="1" height="1" fill="#7A4841" />
<rect x="38" y="39" width="1" height="1" fill="#7A4841" />
<rect x="56" y="39" width="1" height="1" fill="#E8C170" />
<rect x="57" y="39" width="1" height="1" fill="#DE9E41" />
<rect x="58" y="39" width="1" height="1" fill="#DE9E41" />
<rect x="31" y="40" width="1" height="1" fill="#AD7757" />
<rect x="32" y="40" width="1" height="1" fill="#7A4841" />
<rect x="33" y="40" width="1" height="1" fill="#4D2B32" />
<rect x="34" y="40" width="1" height="1" fill="#BE772B" />
<rect x="35" y="40" width="1" height="1" fill="#7A4841" />
<rect x="36" y="40" width="1" height="1" fill="#7A4841" />
<rect x="37" y="40" width="1" height="1" fill="#7A4841" />
<rect x="38" y="40" width="1" height="1" fill="#7A4841" />
<rect x="56" y="40" width="1" height="1" fill="#E8C170" />
<rect x="57" y="40" width="1" height="1" fill="#DE9E41" />
<rect x="58" y="40" width="1" height="1" fill="#DE9E41" />
<rect x="31" y="41" width="1" height="1" fill="#7A4841" />
<rect x="32" y="41" width="1" height="1" fill="#7A4841" />
<rect x="33" y="41" width="1" height="1" fill="#7A4841" />
<rect x="34" y="41" width="1" height="1" fill="#4D2B32" />
<rect x="35" y="41" width="1" height="1" fill="#BE772B" />
<rect x="36" y="41" width="1" height="1" fill="#AD7757" />
<rect x="37" y="41" width="1" height="1" fill="#AD7757" />
<rect x="38" y="41" width="1" height="1" fill="#AD7757" />
<rect x="56" y="41" width="1" height="1" fill="#E8C170" />
<rect x="57" y="41" width="1" height="1" fill="#DE9E41" />
<rect x="58" y="41" width="1" height="1" fill="#DE9E41" />
<rect x="30" y="42" width="1" height="1" fill="#AD7757" />
<rect x="31" y="42" width="1" height="1" fill="#7A4841" />
<rect x="32" y="42" width="1" height="1" fill="#4D2B32" />
<rect x="33" y="42" width="1" height="1" fill="#4D2B32" />
<rect x="34" y="42" width="1" height="1" fill="#4D2B32" />
<rect x="35" y="42" width="1" height="1" fill="#AD7757" />
<rect x="36" y="42" width="1" height="1" fill="#202E37" />
<rect x="37" y="42" width="1" height="1" fill="#151D28" />
<rect x="38" y="42" width="1" height="1" fill="#151D28" />
<rect x="39" y="42" width="1" height="1" fill="#7A4841" />
<rect x="56" y="42" width="1" height="1" fill="#E8C170" />
<rect x="57" y="42" width="1" height="1" fill="#DE9E41" />
<rect x="58" y="42" width="1" height="1" fill="#DE9E41" />
<rect x="30" y="43" width="1" height="1" fill="#AD7757" />
<rect x="31" y="43" width="1" height="1" fill="#7A4841" />
<rect x="32" y="43" width="1" height="1" fill="#4D2B32" />
<rect x="33" y="43" width="1" height="1" fill="#7A4841" />
<rect x="34" y="43" width="1" height="1" fill="#4D2B32" />
<rect x="35" y="43" width="1" height="1" fill="#AD7757" />
<rect x="36" y="43" width="1" height="1" fill="#202E37" />
<rect x="37" y="43" width="1" height="1" fill="#202E37" />
<rect x="38" y="43" width="1" height="1" fill="#7A4841" />
<rect x="39" y="43" width="1" height="1" fill="#7A4841" />
<rect x="56" y="43" width="1" height="1" fill="#E8C170" />
<rect x="57" y="43" width="1" height="1" fill="#DE9E41" />
<rect x="58" y="43" width="1" height="1" fill="#DE9E41" />
<rect x="30" y="44" width="1" height="1" fill="#AD7757" />
<rect x="31" y="44" width="1" height="1" fill="#AD7757" />
<rect x="32" y="44" width="1" height="1" fill="#7A4841" />
<rect x="33" y="44" width="1" height="1" fill="#4D2B32" />
<rect x="34" y="44" width="1" height="1" fill="#4D2B32" />
<rect x="35" y="44" width="1" height="1" fill="#7A4841" />
<rect x="36" y="44" width="1" height="1" fill="#4D2B32" />
<rect x="37" y="44" width="1" height="1" fill="#4D2B32" />
<rect x="38" y="44" width="1" height="1" fill="#BE772B" />
<rect x="39" y="44" width="1" height="1" fill="#7A4841" />
<rect x="55" y="44" width="1" height="1" fill="#E8C170" />
<rect x="56" y="44" width="1" height="1" fill="#DE9E41" />
<rect x="57" y="44" width="1" height="1" fill="#DE9E41" />
<rect x="58" y="44" width="1" height="1" fill="#DE9E41" />
<rect x="30" y="45" width="1" height="1" fill="#AD7757" />
<rect x="31" y="45" width="1" height="1" fill="#090A14" />
<rect x="32" y="45" width="1" height="1" fill="#7A4841" />
<rect x="33" y="45" width="1" height="1" fill="#4D2B32" />
<rect x="34" y="45" width="1" height="1" fill="#4D2B32" />
<rect x="35" y="45" width="1" height="1" fill="#4D2B32" />
<rect x="36" y="45" width="1" height="1" fill="#7A4841" />
<rect x="37" y="45" width="1" height="1" fill="#4D2B32" />
<rect x="38" y="45" width="1" height="1" fill="#7A4841" />
<rect x="39" y="45" width="1" height="1" fill="#BE772B" />
<rect x="55" y="45" width="1" height="1" fill="#E8C170" />
<rect x="56" y="45" width="1" height="1" fill="#DE9E41" />
<rect x="57" y="45" width="1" height="1" fill="#DE9E41" />
<rect x="58" y="45" width="1" height="1" fill="#DE9E41" />
<rect x="30" y="46" width="1" height="1" fill="#AD7757" />
<rect x="31" y="46" width="1" height="1" fill="#090A14" />
<rect x="32" y="46" width="1" height="1" fill="#7A4841" />
<rect x="33" y="46" width="1" height="1" fill="#4D2B32" />
<rect x="34" y="46" width="1" height="1" fill="#4D2B32" />
<rect x="35" y="46" width="1" height="1" fill="#4D2B32" />
<rect x="36" y="46" width="1" height="1" fill="#4D2B32" />
<rect x="37" y="46" width="1" height="1" fill="#7A4841" />
<rect x="38" y="46" width="1" height="1" fill="#7A4841" />
<rect x="39" y="46" width="1" height="1" fill="#4D2B32" />
<rect x="40" y="46" width="1" height="1" fill="#BE772B" />
<rect x="54" y="46" width="1" height="1" fill="#E8C170" />
<rect x="55" y="46" width="1" height="1" fill="#DE9E41" />
<rect x="56" y="46" width="1" height="1" fill="#DE9E41" />
<rect x="57" y="46" width="1" height="1" fill="#DE9E41" />
<rect x="58" y="46" width="1" height="1" fill="#DE9E41" />
<rect x="30" y="47" width="1" height="1" fill="#AD7757" />
<rect x="31" y="47" width="1" height="1" fill="#090A14" />
<rect x="32" y="47" width="1" height="1" fill="#7A4841" />
<rect x="33" y="47" width="1" height="1" fill="#4D2B32" />
<rect x="34" y="47" width="1" height="1" fill="#4D2B32" />
<rect x="35" y="47" width="1" height="1" fill="#4D2B32" />
<rect x="36" y="47" width="1" height="1" fill="#4D2B32" />
<rect x="37" y="47" width="1" height="1" fill="#4D2B32" />
<rect x="38" y="47" width="1" height="1" fill="#4D2B32" />
<rect x="39" y="47" width="1" height="1" fill="#4D2B32" />
<rect x="41" y="47" width="1" height="1" fill="#BE772B" />
<rect x="54" y="47" width="1" height="1" fill="#E8C170" />
<rect x="55" y="47" width="1" height="1" fill="#DE9E41" />
<rect x="56" y="47" width="1" height="1" fill="#DE9E41" />
<rect x="57" y="47" width="1" height="1" fill="#DE9E41" />
<rect x="58" y="47" width="1" height="1" fill="#DE9E41" />
<rect x="30" y="48" width="1" height="1" fill="#AD7757" />
<rect x="31" y="48" width="1" height="1" fill="#090A14" />
<rect x="32" y="48" width="1" height="1" fill="#7A4841" />
<rect x="33" y="48" width="1" height="1" fill="#4D2B32" />
<rect x="34" y="48" width="1" height="1" fill="#4D2B32" />
<rect x="35" y="48" width="1" height="1" fill="#4D2B32" />
<rect x="36" y="48" width="1" height="1" fill="#4D2B32" />
<rect x="37" y="48" width="1" height="1" fill="#4D2B32" />
<rect x="38" y="48" width="1" height="1" fill="#4D2B32" />
<rect x="39" y="48" width="1" height="1" fill="#4D2B32" />
<rect x="42" y="48" width="1" height="1" fill="#BE772B" />
<rect x="54" y="48" width="1" height="1" fill="#E8C170" />
<rect x="55" y="48" width="1" height="1" fill="#DE9E41" />
<rect x="56" y="48" width="1" height="1" fill="#DE9E41" />
<rect x="57" y="48" width="1" height="1" fill="#DE9E41" />
<rect x="30" y="49" width="1" height="1" fill="#AD7757" />
<rect x="31" y="49" width="1" height="1" fill="#090A14" />
<rect x="32" y="49" width="1" height="1" fill="#7A4841" />
<rect x="33" y="49" width="1" height="1" fill="#4D2B32" />
<rect x="34" y="49" width="1" height="1" fill="#4D2B32" />
<rect x="35" y="49" width="1" height="1" fill="#4D2B32" />
<rect x="36" y="49" width="1" height="1" fill="#4D2B32" />
<rect x="37" y="49" width="1" height="1" fill="#4D2B32" />
<rect x="38" y="49" width="1" height="1" fill="#4D2B32" />
<rect x="39" y="49" width="1" height="1" fill="#4D2B32" />
<rect x="40" y="49" width="1" height="1" fill="#4D2B32" />
<rect x="43" y="49" width="1" height="1" fill="#BE772B" />
<rect x="53" y="49" width="1" height="1" fill="#E8C170" />
<rect x="54" y="49" width="1" height="1" fill="#DE9E41" />
<rect x="55" y="49" width="1" height="1" fill="#DE9E41" />
<rect x="56" y="49" width="1" height="1" fill="#DE9E41" />
<rect x="57" y="49" width="1" height="1" fill="#DE9E41" />
<rect x="30" y="50" width="1" height="1" fill="#AD7757" />
<rect x="31" y="50" width="1" height="1" fill="#090A14" />
<rect x="32" y="50" width="1" height="1" fill="#090A14" />
<rect x="33" y="50" width="1" height="1" fill="#7A4841" />
<rect x="34" y="50" width="1" height="1" fill="#4D2B32" />
<rect x="35" y="50" width="1" height="1" fill="#4D2B32" />
<rect x="36" y="50" width="1" height="1" fill="#4D2B32" />
<rect x="37" y="50" width="1" height="1" fill="#4D2B32" />
<rect x="38" y="50" width="1" height="1" fill="#4D2B32" />
<rect x="39" y="50" width="1" height="1" fill="#4D2B32" />
<rect x="40" y="50" width="1" height="1" fill="#4D2B32" />
<rect x="44" y="50" width="1" height="1" fill="#BE772B" />
<rect x="52" y="50" width="1" height="1" fill="#E8C170" />
<rect x="53" y="50" width="1" height="1" fill="#DE9E41" />
<rect x="54" y="50" width="1" height="1" fill="#DE9E41" />
<rect x="55" y="50" width="1" height="1" fill="#DE9E41" />
<rect x="56" y="50" width="1" height="1" fill="#DE9E41" />
<rect x="31" y="51" width="1" height="1" fill="#AD7757" />
<rect x="32" y="51" width="1" height="1" fill="#090A14" />
<rect x="33" y="51" width="1" height="1" fill="#7A4841" />
<rect x="34" y="51" width="1" height="1" fill="#4D2B32" />
<rect x="35" y="51" width="1" height="1" fill="#4D2B32" />
<rect x="36" y="51" width="1" height="1" fill="#4D2B32" />
<rect x="37" y="51" width="1" height="1" fill="#4D2B32" />
<rect x="38" y="51" width="1" height="1" fill="#4D2B32" />
<rect x="39" y="51" width="1" height="1" fill="#4D2B32" />
<rect x="40" y="51" width="1" height="1" fill="#4D2B32" />
<rect x="41" y="51" width="1" height="1" fill="#7A4841" />
<rect x="45" y="51" width="1" height="1" fill="#BE772B" />
<rect x="46" y="51" width="1" height="1" fill="#BE772B" />
<rect x="51" y="51" width="1" height="1" fill="#E8C170" />
<rect x="52" y="51" width="1" height="1" fill="#DE9E41" />
<rect x="53" y="51" width="1" height="1" fill="#DE9E41" />
<rect x="54" y="51" width="1" height="1" fill="#DE9E41" />
<rect x="55" y="51" width="1" height="1" fill="#DE9E41" />
<rect x="56" y="51" width="1" height="1" fill="#DE9E41" />
<rect x="31" y="52" width="1" height="1" fill="#AD7757" />
<rect x="32" y="52" width="1" height="1" fill="#090A14" />
<rect x="33" y="52" width="1" height="1" fill="#090A14" />
<rect x="34" y="52" width="1" height="1" fill="#090A14" />
<rect x="35" y="52" width="1" height="1" fill="#7A4841" />
<rect x="36" y="52" width="1" height="1" fill="#4D2B32" />
<rect x="37" y="52" width="1" height="1" fill="#4D2B32" />
<rect x="38" y="52" width="1" height="1" fill="#4D2B32" />
<rect x="39" y="52" width="1" height="1" fill="#4D2B32" />
<rect x="40" y="52" width="1" height="1" fill="#4D2B32" />
<rect x="41" y="52" width="1" height="1" fill="#4D2B32" />
<rect x="46" y="52" width="1" height="1" fill="#884B2B" />
<rect x="47" y="52" width="1" height="1" fill="#BE772B" />
<rect x="49" y="52" width="1" height="1" fill="#E8C170" />
<rect x="50" y="52" width="1" height="1" fill="#E8C170" />
<rect x="51" y="52" width="1" height="1" fill="#DE9E41" />
<rect x="52" y="52" width="1" height="1" fill="#DE9E41" />
<rect x="53" y="52" width="1" height="1" fill="#DE9E41" />
<rect x="54" y="52" width="1" height="1" fill="#DE9E41" />
<rect x="55" y="52" width="1" height="1" fill="#DE9E41" />
<rect x="32" y="53" width="1" height="1" fill="#AD7757" />
<rect x="33" y="53" width="1" height="1" fill="#7A4841" />
<rect x="34" y="53" width="1" height="1" fill="#7A4841" />
<rect x="37" y="53" width="1" height="1" fill="#7A4841" />
<rect x="38" y="53" width="1" height="1" fill="#4D2B32" />
<rect x="39" y="53" width="1" height="1" fill="#4D2B32" />
<rect x="40" y="53" width="1" height="1" fill="#4D2B32" />
<rect x="41" y="53" width="1" height="1" fill="#4D2B32" />
<rect x="42" y="53" width="1" height="1" fill="#4D2B32" />
<rect x="46" y="53" width="1" height="1" fill="#884B2B" />
<rect x="47" y="53" width="1" height="1" fill="#BE772B" />
<rect x="48" y="53" width="1" height="1" fill="#BE772B" />
<rect x="49" y="53" width="1" height="1" fill="#DE9E41" />
<rect x="50" y="53" width="1" height="1" fill="#DE9E41" />
<rect x="51" y="53" width="1" height="1" fill="#DE9E41" />
<rect x="52" y="53" width="1" height="1" fill="#DE9E41" />
<rect x="53" y="53" width="1" height="1" fill="#DE9E41" />
<rect x="54" y="53" width="1" height="1" fill="#DE9E41" />
<rect x="34" y="54" width="1" height="1" fill="#7A4841" />
<rect x="35" y="54" width="1" height="1" fill="#7A4841" />
<rect x="46" y="54" width="1" height="1" fill="#884B2B" />
<rect x="47" y="54" width="1" height="1" fill="#BE772B" />
<rect x="48" y="54" width="1" height="1" fill="#BE772B" />
<rect x="49" y="54" width="1" height="1" fill="#DE9E41" />
<rect x="50" y="54" width="1" height="1" fill="#DE9E41" />
<rect x="51" y="54" width="1" height="1" fill="#DE9E41" />
<rect x="52" y="54" width="1" height="1" fill="#DE9E41" />
<rect x="53" y="54" width="1" height="1" fill="#DE9E41" />
<rect x="46" y="55" width="1" height="1" fill="#884B2B" />
<rect x="47" y="55" width="1" height="1" fill="#BE772B" />
<rect x="48" y="55" width="1" height="1" fill="#BE772B" />
<rect x="49" y="55" width="1" height="1" fill="#BE772B" />
<rect x="50" y="55" width="1" height="1" fill="#BE772B" />
<rect x="51" y="55" width="1" height="1" fill="#DE9E41" />
<rect x="52" y="55" width="1" height="1" fill="#BE772B" />
<rect x="45" y="56" width="1" height="1" fill="#884B2B" />
<rect x="46" y="56" width="1" height="1" fill="#884B2B" />
<rect x="47" y="56" width="1" height="1" fill="#BE772B" />
<rect x="48" y="56" width="1" height="1" fill="#BE772B" />
<rect x="49" y="56" width="1" height="1" fill="#BE772B" />
<rect x="50" y="56" width="1" height="1" fill="#BE772B" />
<rect x="51" y="56" width="1" height="1" fill="#BE772B" />
<rect x="45" y="57" width="1" height="1" fill="#884B2B" />
<rect x="46" y="57" width="1" height="1" fill="#884B2B" />
<rect x="47" y="57" width="1" height="1" fill="#884B2B" />
<rect x="48" y="57" width="1" height="1" fill="#884B2B" />
<rect x="49" y="57" width="1" height="1" fill="#BE772B" />
<rect x="50" y="57" width="1" height="1" fill="#884B2B" />
<rect x="44" y="58" width="1" height="1" fill="#884B2B" />
<rect x="45" y="58" width="1" height="1" fill="#884B2B" />
<rect x="46" y="58" width="1" height="1" fill="#884B2B" />
<rect x="47" y="58" width="1" height="1" fill="#884B2B" />
<rect x="48" y="58" width="1" height="1" fill="#884B2B" />
<rect x="44" y="59" width="1" height="1" fill="#884B2B" />
<rect x="45" y="59" width="1" height="1" fill="#884B2B" />
<rect x="46" y="59" width="1" height="1" fill="#884B2B" />
<rect x="44" y="60" width="1" height="1" fill="#EBEDE9" />
<rect x="45" y="60" width="1" height="1" fill="#EBEDE9" />
<rect x="41" y="61" width="1" height="1" fill="#EBEDE9" />
<rect x="42" y="61" width="1" height="1" fill="#EBEDE9" />
<rect x="43" y="61" width="1" height="1" fill="#EBEDE9" />
<rect x="23" y="62" width="1" height="1" fill="#EBEDE9" />
<rect x="24" y="62" width="1" height="1" fill="#EBEDE9" />
<rect x="25" y="62" width="1" height="1" fill="#EBEDE9" />
<rect x="26" y="62" width="1" height="1" fill="#EBEDE9" />
<rect x="27" y="63" width="1" height="1" fill="#EBEDE9" />
<rect x="28" y="63" width="1" height="1" fill="#EBEDE9" />
<rect x="29" y="63" width="1" height="1" fill="#EBEDE9" />
<rect x="30" y="63" width="1" height="1" fill="#EBEDE9" />
</svg>