<?xml version="1.0" encoding="UTF-8" ?>
<svg version="1.1" width="50" height="50" xmlns="http://www.w3.org/2000/svg" shape-rendering="crispEdges">
<rect x="32" y="2" width="1" height="1" fill="#DE9E41" />
<rect x="32" y="3" width="1" height="1" fill="#DE9E41" />
<rect x="33" y="4" width="1" height="1" fill="#DE9E41" />
<rect x="32" y="15" width="1" height="1" fill="#DE9E41" />
<rect x="16" y="16" width="1" height="1" fill="#7A4841" />
<rect x="33" y="16" width="1" height="1" fill="#DE9E41" />
<rect x="16" y="17" width="1" height="1" fill="#7A4841" />
<rect x="36" y="17" width="1" height="1" fill="#DE9E41" />
<rect x="17" y="18" width="1" height="1" fill="#7A4841" />
<rect x="26" y="18" width="1" height="1" fill="#DE9E41" />
<rect x="36" y="18" width="1" height="1" fill="#DE9E41" />
<rect x="26" y="19" width="1" height="1" fill="#DE9E41" />
<rect x="25" y="20" width="1" height="1" fill="#DE9E41" />
<rect x="42" y="20" width="1" height="1" fill="#BE772B" />
<rect x="42" y="21" width="1" height="1" fill="#BE772B" />
<rect x="26" y="22" width="1" height="1" fill="#DE9E41" />
<rect x="27" y="22" width="1" height="1" fill="#DE9E41" />
<rect x="43" y="22" width="1" height="1" fill="#BE772B" />
<rect x="20" y="23" width="1" height="1" fill="#4D2B32" />
<rect x="25" y="23" width="1" height="1" fill="#E8C170" />
<rect x="27" y="23" width="1" height="1" fill="#DE9E41" />
<rect x="28" y="23" width="1" height="1" fill="#DE9E41" />
<rect x="20" y="24" width="1" height="1" fill="#4D2B32" />
<rect x="26" y="24" width="1" height="1" fill="#DE9E41" />
<rect x="25" y="25" width="1" height="1" fill="#E8C170" />
<rect x="27" y="25" width="1" height="1" fill="#DE9E41" />
<rect x="29" y="25" width="1" height="1" fill="#DE9E41" />
<rect x="32" y="25" width="1" height="1" fill="#BE772B" />
<rect x="39" y="25" width="1" height="1" fill="#BE772B" />
<rect x="40" y="25" width="1" height="1" fill="#BE772B" />
<rect x="46" y="25" width="1" height="1" fill="#884B2B" />
<rect x="20" y="26" width="1" height="1" fill="#4D2B32" />
<rect x="26" y="26" width="1" height="1" fill="#E8C170" />
<rect x="29" y="26" width="1" height="1" fill="#DE9E41" />
<rect x="30" y="26" width="1" height="1" fill="#BE772B" />
<rect x="32" y="26" width="1" height="1" fill="#BE772B" />
<rect x="40" y="26" width="1" height="1" fill="#BE772B" />
<rect x="46" y="26" width="1" height="1" fill="#884B2B" />
<rect x="20" y="27" width="1" height="1" fill="#4D2B32" />
<rect x="26" y="27" width="1" height="1" fill="#E8C170" />
<rect x="29" y="27" width="1" height="1" fill="#BE772B" />
<rect x="30" y="27" width="1" height="1" fill="#BE772B" />
<rect x="31" y="27" width="1" height="1" fill="#BE772B" />
<rect x="18" y="28" width="1" height="1" fill="#C7CFCC" />
<rect x="20" y="28" width="1" height="1" fill="#4D2B32" />
<rect x="29" y="28" width="1" height="1" fill="#BE772B" />
<rect x="30" y="28" width="1" height="1" fill="#BE772B" />
<rect x="18" y="29" width="1" height="1" fill="#C7CFCC" />
<rect x="20" y="29" width="1" height="1" fill="#A8B5B2" />
<rect x="23" y="29" width="1" height="1" fill="#4D2B32" />
<rect x="27" y="29" width="1" height="1" fill="#BE772B" />
<rect x="30" y="29" width="1" height="1" fill="#BE772B" />
<rect x="20" y="30" width="1" height="1" fill="#090A14" />
<rect x="23" y="30" width="1" height="1" fill="#4D2B32" />
<rect x="24" y="30" width="1" height="1" fill="#884B2B" />
<rect x="28" y="30" width="1" height="1" fill="#BE772B" />
<rect x="29" y="30" width="1" height="1" fill="#BE772B" />
<rect x="30" y="30" width="1" height="1" fill="#BE772B" />
<rect x="33" y="30" width="1" height="1" fill="#7A4841" />
<rect x="14" y="31" width="1" height="1" fill="#4D2B32" />
<rect x="18" y="31" width="1" height="1" fill="#C7CFCC" />
<rect x="20" y="31" width="1" height="1" fill="#090A14" />
<rect x="27" y="31" width="1" height="1" fill="#202E37" />
<rect x="33" y="31" width="1" height="1" fill="#7A4841" />
<rect x="14" y="32" width="1" height="1" fill="#4D2B32" />
<rect x="18" y="32" width="1" height="1" fill="#090A14" />
<rect x="20" y="32" width="1" height="1" fill="#A8B5B2" />
<rect x="28" y="32" width="1" height="1" fill="#4D2B32" />
<rect x="32" y="32" width="1" height="1" fill="#7A4841" />
<rect x="44" y="32" width="1" height="1" fill="#884B2B" />
<rect x="15" y="33" width="1" height="1" fill="#4D2B32" />
<rect x="18" y="33" width="1" height="1" fill="#090A14" />
<rect x="20" y="33" width="1" height="1" fill="#4D2B32" />
<rect x="21" y="33" width="1" height="1" fill="#4D2B32" />
<rect x="28" y="33" width="1" height="1" fill="#7A4841" />
<rect x="43" y="33" width="1" height="1" fill="#884B2B" />
<rect x="14" y="34" width="1" height="1" fill="#4D2B32" />
<rect x="15" y="34" width="1" height="1" fill="#4D2B32" />
<rect x="16" y="34" width="1" height="1" fill="#4D2B32" />
<rect x="17" y="34" width="1" height="1" fill="#7A4841" />
<rect x="18" y="34" width="1" height="1" fill="#4D2B32" />
<rect x="21" y="34" width="1" height="1" fill="#7A4841" />
<rect x="23" y="34" width="1" height="1" fill="#4D2B32" />
<rect x="26" y="34" width="1" height="1" fill="#4D2B32" />
<rect x="16" y="35" width="1" height="1" fill="#4D2B32" />
<rect x="17" y="35" width="1" height="1" fill="#AD7757" />
<rect x="18" y="35" width="1" height="1" fill="#7A4841" />
<rect x="19" y="35" width="1" height="1" fill="#7A4841" />
<rect x="21" y="35" width="1" height="1" fill="#7A4841" />
<rect x="22" y="35" width="1" height="1" fill="#BE772B" />
<rect x="23" y="35" width="1" height="1" fill="#4D2B32" />
<rect x="11" y="36" width="1" height="1" fill="#151D28" />
<rect x="14" y="36" width="1" height="1" fill="#7A4841" />
<rect x="17" y="36" width="1" height="1" fill="#4D2B32" />
<rect x="20" y="36" width="1" height="1" fill="#BE772B" />
<rect x="21" y="36" width="1" height="1" fill="#BE772B" />
<rect x="22" y="36" width="1" height="1" fill="#4D2B32" />
<rect x="23" y="36" width="1" height="1" fill="#4D2B32" />
<rect x="25" y="36" width="1" height="1" fill="#7A4841" />
<rect x="11" y="37" width="1" height="1" fill="#151D28" />
<rect x="12" y="37" width="1" height="1" fill="#AD7757" />
<rect x="13" y="37" width="1" height="1" fill="#AD7757" />
<rect x="14" y="37" width="1" height="1" fill="#7A4841" />
<rect x="19" y="37" width="1" height="1" fill="#BE772B" />
<rect x="20" y="37" width="1" height="1" fill="#4D2B32" />
<rect x="21" y="37" width="1" height="1" fill="#4D2B32" />
<rect x="22" y="37" width="1" height="1" fill="#4D2B32" />
<rect x="24" y="37" width="1" height="1" fill="#4D2B32" />
<rect x="12" y="38" width="1" height="1" fill="#151D28" />
<rect x="18" y="38" width="1" height="1" fill="#4D2B32" />
<rect x="19" y="38" width="1" height="1" fill="#7A4841" />
<rect x="20" y="38" width="1" height="1" fill="#7A4841" />
<rect x="21" y="38" width="1" height="1" fill="#7A4841" />
<rect x="22" y="38" width="1" height="1" fill="#4D2B32" />
<rect x="23" y="38" width="1" height="1" fill="#7A4841" />
<rect x="12" y="39" width="1" height="1" fill="#202E37" />
<rect x="17" y="39" width="1" height="1" fill="#4D2B32" />
<rect x="19" y="39" width="1" height="1" fill="#7A4841" />
<rect x="20" y="39" width="1" height="1" fill="#090A14" />
<rect x="21" y="39" width="1" height="1" fill="#4D2B32" />
<rect x="11" y="40" width="1" height="1" fill="#4D2B32" />
<rect x="18" y="40" width="1" height="1" fill="#7A4841" />
<rect x="19" y="40" width="1" height="1" fill="#090A14" />
<rect x="20" y="40" width="1" height="1" fill="#090A14" />
<rect x="21" y="40" width="1" height="1" fill="#4D2B32" />
<rect x="12" y="41" width="1" height="1" fill="#4D2B32" />
<rect x="16" y="41" width="1" height="1" fill="#7A4841" />
<rect x="17" y="41" width="1" height="1" fill="#7A4841" />
<rect x="19" y="41" width="1" height="1" fill="#7A4841" />
<rect x="20" y="41" width="1" height="1" fill="#090A14" />
<rect x="21" y="41" width="1" height="1" fill="#4D2B32" />
<rect x="19" y="42" width="1" height="1" fill="#7A4841" />
<rect x="20" y="42" width="1" height="1" fill="#090A14" />
<rect x="19" y="43" width="1" height="1" fill="#7A4841" />
<rect x="20" y="43" width="1" height="1" fill="#090A14" />
<rect x="19" y="44" width="1" height="1" fill="#7A4841" />
<rect x="20" y="44" width="1" height="1" fill="#090A14" />
<rect x="21" y="44" width="1" height="1" fill="#090A14" />
<rect x="19" y="45" width="1" height="1" fill="#AD7757" />
<rect x="20" y="45" width="1" height="1" fill="#090A14" />
<rect x="21" y="45" width="1" height="1" fill="#090A14" />
<rect x="19" y="46" width="1" height="1" fill="#090A14" />
<rect x="20" y="46" width="1" height="1" fill="#090A14" />
<rect x="20" y="47" width="1" height="1" fill="#090A14" />
</svg>