<?xml version="1.0" encoding="UTF-8" ?>
<svg version="1.1" width="64" height="64" xmlns="http://www.w3.org/2000/svg" shape-rendering="crispEdges">
<rect x="46" y="1" width="1" height="1" fill="#EBEDE9" />
<rect x="47" y="2" width="1" height="1" fill="#EBEDE9" />
<rect x="19" y="7" width="1" height="1" fill="#EBEDE9" />
<rect x="20" y="7" width="1" height="1" fill="#EBEDE9" />
<rect x="18" y="8" width="1" height="1" fill="#EBEDE9" />
<rect x="14" y="18" width="1" height="1" fill="#DE9E41" />
<rect x="15" y="18" width="1" height="1" fill="#DE9E41" />
<rect x="16" y="18" width="1" height="1" fill="#DE9E41" />
<rect x="12" y="19" width="1" height="1" fill="#DE9E41" />
<rect x="13" y="19" width="1" height="1" fill="#DE9E41" />
<rect x="14" y="19" width="1" height="1" fill="#E8C170" />
<rect x="15" y="19" width="1" height="1" fill="#E8C170" />
<rect x="9" y="20" width="1" height="1" fill="#DE9E41" />
<rect x="10" y="20" width="1" height="1" fill="#DE9E41" />
<rect x="11" y="20" width="1" height="1" fill="#DE9E41" />
<rect x="12" y="20" width="1" height="1" fill="#E8C170" />
<rect x="13" y="20" width="1" height="1" fill="#E8C170" />
<rect x="8" y="21" width="1" height="1" fill="#DE9E41" />
<rect x="9" y="21" width="1" height="1" fill="#DE9E41" />
<rect x="10" y="21" width="1" height="1" fill="#DE9E41" />
<rect x="11" y="21" width="1" height="1" fill="#E8C170" />
<rect x="12" y="21" width="1" height="1" fill="#E8C170" />
<rect x="58" y="21" width="1" height="1" fill="#EBEDE9" />
<rect x="7" y="22" width="1" height="1" fill="#DE9E41" />
<rect x="8" y="22" width="1" height="1" fill="#DE9E41" />
<rect x="9" y="22" width="1" height="1" fill="#DE9E41" />
<rect x="10" y="22" width="1" height="1" fill="#E8C170" />
<rect x="11" y="22" width="1" height="1" fill="#E8C170" />
<rect x="59" y="22" width="1" height="1" fill="#EBEDE9" />
<rect x="6" y="23" width="1" height="1" fill="#DE9E41" />
<rect x="7" y="23" width="1" height="1" fill="#DE9E41" />
<rect x="8" y="23" width="1" height="1" fill="#DE9E41" />
<rect x="9" y="23" width="1" height="1" fill="#E8C170" />
<rect x="10" y="23" width="1" height="1" fill="#E8C170" />
<rect x="30" y="23" width="1" height="1" fill="#7A4841" />
<rect x="31" y="23" width="1" height="1" fill="#7A4841" />
<rect x="32" y="23" width="1" height="1" fill="#7A4841" />
<rect x="5" y="24" width="1" height="1" fill="#DE9E41" />
<rect x="6" y="24" width="1" height="1" fill="#DE9E41" />
<rect x="7" y="24" width="1" height="1" fill="#DE9E41" />
<rect x="8" y="24" width="1" height="1" fill="#DE9E41" />
<rect x="9" y="24" width="1" height="1" fill="#E8C170" />
<rect x="28" y="24" width="1" height="1" fill="#4D2B32" />
<rect x="29" y="24" width="1" height="1" fill="#4D2B32" />
<rect x="30" y="24" width="1" height="1" fill="#4D2B32" />
<rect x="31" y="24" width="1" height="1" fill="#4D2B32" />
<rect x="32" y="24" width="1" height="1" fill="#7A4841" />
<rect x="33" y="24" width="1" height="1" fill="#7A4841" />
<rect x="4" y="25" width="1" height="1" fill="#DE9E41" />
<rect x="5" y="25" width="1" height="1" fill="#DE9E41" />
<rect x="6" y="25" width="1" height="1" fill="#DE9E41" />
<rect x="7" y="25" width="1" height="1" fill="#DE9E41" />
<rect x="8" y="25" width="1" height="1" fill="#E8C170" />
<rect x="28" y="25" width="1" height="1" fill="#4D2B32" />
<rect x="29" y="25" width="1" height="1" fill="#4D2B32" />
<rect x="30" y="25" width="1" height="1" fill="#4D2B32" />
<rect x="31" y="25" width="1" height="1" fill="#4D2B32" />
<rect x="32" y="25" width="1" height="1" fill="#7A4841" />
<rect x="33" y="25" width="1" height="1" fill="#7A4841" />
<rect x="4" y="26" width="1" height="1" fill="#DE9E41" />
<rect x="5" y="26" width="1" height="1" fill="#DE9E41" />
<rect x="6" y="26" width="1" height="1" fill="#DE9E41" />
<rect x="7" y="26" width="1" height="1" fill="#DE9E41" />
<rect x="8" y="26" width="1" height="1" fill="#E8C170" />
<rect x="27" y="26" width="1" height="1" fill="#4D2B32" />
<rect x="28" y="26" width="1" height="1" fill="#4D2B32" />
<rect x="29" y="26" width="1" height="1" fill="#4D2B32" />
<rect x="30" y="26" width="1" height="1" fill="#4D2B32" />
<rect x="31" y="26" width="1" height="1" fill="#A8B5B2" />
<rect x="32" y="26" width="1" height="1" fill="#C7CFCC" />
<rect x="33" y="26" width="1" height="1" fill="#4D2B32" />
<rect x="34" y="26" width="1" height="1" fill="#7A4841" />
<rect x="38" y="26" width="1" height="1" fill="#EBEDE9" />
<rect x="4" y="27" width="1" height="1" fill="#DE9E41" />
<rect x="5" y="27" width="1" height="1" fill="#DE9E41" />
<rect x="6" y="27" width="1" height="1" fill="#DE9E41" />
<rect x="7" y="27" width="1" height="1" fill="#DE9E41" />
<rect x="27" y="27" width="1" height="1" fill="#4D2B32" />
<rect x="28" y="27" width="1" height="1" fill="#4D2B32" />
<rect x="29" y="27" width="1" height="1" fill="#4D2B32" />
<rect x="30" y="27" width="1" height="1" fill="#A8B5B2" />
<rect x="31" y="27" width="1" height="1" fill="#A8B5B2" />
<rect x="32" y="27" width="1" height="1" fill="#A8B5B2" />
<rect x="33" y="27" width="1" height="1" fill="#C7CFCC" />
<rect x="34" y="27" width="1" height="1" fill="#4D2B32" />
<rect x="38" y="27" width="1" height="1" fill="#EBEDE9" />
<rect x="3" y="28" width="1" height="1" fill="#DE9E41" />
<rect x="4" y="28" width="1" height="1" fill="#DE9E41" />
<rect x="5" y="28" width="1" height="1" fill="#DE9E41" />
<rect x="6" y="28" width="1" height="1" fill="#DE9E41" />
<rect x="7" y="28" width="1" height="1" fill="#E8C170" />
<rect x="27" y="28" width="1" height="1" fill="#4D2B32" />
<rect x="28" y="28" width="1" height="1" fill="#4D2B32" />
<rect x="29" y="28" width="1" height="1" fill="#4D2B32" />
<rect x="30" y="28" width="1" height="1" fill="#090A14" />
<rect x="31" y="28" width="1" height="1" fill="#090A14" />
<rect x="32" y="28" width="1" height="1" fill="#C7CFCC" />
<rect x="33" y="28" width="1" height="1" fill="#090A14" />
<rect x="34" y="28" width="1" height="1" fill="#4D2B32" />
<rect x="3" y="29" width="1" height="1" fill="#DE9E41" />
<rect x="4" y="29" width="1" height="1" fill="#DE9E41" />
<rect x="5" y="29" width="1" height="1" fill="#DE9E41" />
<rect x="6" y="29" width="1" height="1" fill="#E8C170" />
<rect x="27" y="29" width="1" height="1" fill="#4D2B32" />
<rect x="28" y="29" width="1" height="1" fill="#4D2B32" />
<rect x="29" y="29" width="1" height="1" fill="#4D2B32" />
<rect x="30" y="29" width="1" height="1" fill="#090A14" />
<rect x="31" y="29" width="1" height="1" fill="#A8B5B2" />
<rect x="32" y="29" width="1" height="1" fill="#C7CFCC" />
<rect x="33" y="29" width="1" height="1" fill="#090A14" />
<rect x="34" y="29" width="1" height="1" fill="#4D2B32" />
<rect x="3" y="30" width="1" height="1" fill="#DE9E41" />
<rect x="4" y="30" width="1" height="1" fill="#DE9E41" />
<rect x="5" y="30" width="1" height="1" fill="#DE9E41" />
<rect x="6" y="30" width="1" height="1" fill="#E8C170" />
<rect x="27" y="30" width="1" height="1" fill="#4D2B32" />
<rect x="28" y="30" width="1" height="1" fill="#4D2B32" />
<rect x="29" y="30" width="1" height="1" fill="#4D2B32" />
<rect x="30" y="30" width="1" height="1" fill="#A8B5B2" />
<rect x="31" y="30" width="1" height="1" fill="#A8B5B2" />
<rect x="32" y="30" width="1" height="1" fill="#090A14" />
<rect x="33" y="30" width="1" height="1" fill="#C7CFCC" />
<rect x="34" y="30" width="1" height="1" fill="#7A4841" />
<rect x="3" y="31" width="1" height="1" fill="#DE9E41" />
<rect x="4" y="31" width="1" height="1" fill="#DE9E41" />
<rect x="5" y="31" width="1" height="1" fill="#DE9E41" />
<rect x="6" y="31" width="1" height="1" fill="#E8C170" />
<rect x="26" y="31" width="1" height="1" fill="#7A4841" />
<rect x="27" y="31" width="1" height="1" fill="#7A4841" />
<rect x="28" y="31" width="1" height="1" fill="#4D2B32" />
<rect x="29" y="31" width="1" height="1" fill="#4D2B32" />
<rect x="30" y="31" width="1" height="1" fill="#4D2B32" />
<rect x="31" y="31" width="1" height="1" fill="#A8B5B2" />
<rect x="32" y="31" width="1" height="1" fill="#A8B5B2" />
<rect x="33" y="31" width="1" height="1" fill="#4D2B32" />
<rect x="34" y="31" width="1" height="1" fill="#7A4841" />
<rect x="3" y="32" width="1" height="1" fill="#DE9E41" />
<rect x="4" y="32" width="1" height="1" fill="#DE9E41" />
<rect x="5" y="32" width="1" height="1" fill="#DE9E41" />
<rect x="6" y="32" width="1" height="1" fill="#E8C170" />
<rect x="25" y="32" width="1" height="1" fill="#4D2B32" />
<rect x="26" y="32" width="1" height="1" fill="#4D2B32" />
<rect x="27" y="32" width="1" height="1" fill="#4D2B32" />
<rect x="28" y="32" width="1" height="1" fill="#7A4841" />
<rect x="29" y="32" width="1" height="1" fill="#7A4841" />
<rect x="30" y="32" width="1" height="1" fill="#4D2B32" />
<rect x="31" y="32" width="1" height="1" fill="#4D2B32" />
<rect x="32" y="32" width="1" height="1" fill="#A8B5B2" />
<rect x="33" y="32" width="1" height="1" fill="#7A4841" />
<rect x="3" y="33" width="1" height="1" fill="#DE9E41" />
<rect x="4" y="33" width="1" height="1" fill="#DE9E41" />
<rect x="5" y="33" width="1" height="1" fill="#DE9E41" />
<rect x="6" y="33" width="1" height="1" fill="#E8C170" />
<rect x="24" y="33" width="1" height="1" fill="#4D2B32" />
<rect x="25" y="33" width="1" height="1" fill="#4D2B32" />
<rect x="26" y="33" width="1" height="1" fill="#4D2B32" />
<rect x="27" y="33" width="1" height="1" fill="#4D2B32" />
<rect x="28" y="33" width="1" height="1" fill="#4D2B32" />
<rect x="29" y="33" width="1" height="1" fill="#7A4841" />
<rect x="30" y="33" width="1" height="1" fill="#7A4841" />
<rect x="31" y="33" width="1" height="1" fill="#7A4841" />
<rect x="32" y="33" width="1" height="1" fill="#7A4841" />
<rect x="33" y="33" width="1" height="1" fill="#AD7757" />
<rect x="3" y="34" width="1" height="1" fill="#DE9E41" />
<rect x="4" y="34" width="1" height="1" fill="#DE9E41" />
<rect x="5" y="34" width="1" height="1" fill="#DE9E41" />
<rect x="6" y="34" width="1" height="1" fill="#E8C170" />
<rect x="24" y="34" width="1" height="1" fill="#4D2B32" />
<rect x="25" y="34" width="1" height="1" fill="#7A4841" />
<rect x="26" y="34" width="1" height="1" fill="#7A4841" />
<rect x="27" y="34" width="1" height="1" fill="#7A4841" />
<rect x="28" y="34" width="1" height="1" fill="#4D2B32" />
<rect x="29" y="34" width="1" height="1" fill="#4D2B32" />
<rect x="30" y="34" width="1" height="1" fill="#7A4841" />
<rect x="31" y="34" width="1" height="1" fill="#7A4841" />
<rect x="32" y="34" width="1" height="1" fill="#AD7757" />
<rect x="33" y="34" width="1" height="1" fill="#4D2B32" />
<rect x="3" y="35" width="1" height="1" fill="#DE9E41" />
<rect x="4" y="35" width="1" height="1" fill="#DE9E41" />
<rect x="5" y="35" width="1" height="1" fill="#DE9E41" />
<rect x="6" y="35" width="1" height="1" fill="#DE9E41" />
<rect x="7" y="35" width="1" height="1" fill="#E8C170" />
<rect x="23" y="35" width="1" height="1" fill="#7A4841" />
<rect x="24" y="35" width="1" height="1" fill="#7A4841" />
<rect x="25" y="35" width="1" height="1" fill="#7A4841" />
<rect x="26" y="35" width="1" height="1" fill="#7A4841" />
<rect x="27" y="35" width="1" height="1" fill="#7A4841" />
<rect x="28" y="35" width="1" height="1" fill="#4D2B32" />
<rect x="29" y="35" width="1" height="1" fill="#4D2B32" />
<rect x="30" y="35" width="1" height="1" fill="#4D2B32" />
<rect x="31" y="35" width="1" height="1" fill="#7A4841" />
<rect x="32" y="35" width="1" height="1" fill="#4D2B32" />
<rect x="33" y="35" width="1" height="1" fill="#4D2B32" />
<rect x="34" y="35" width="1" height="1" fill="#7A4841" />
<rect x="3" y="36" width="1" height="1" fill="#BE772B" />
<rect x="4" y="36" width="1" height="1" fill="#DE9E41" />
<rect x="5" y="36" width="1" height="1" fill="#DE9E41" />
<rect x="6" y="36" width="1" height="1" fill="#DE9E41" />
<rect x="7" y="36" width="1" height="1" fill="#BE772B" />
<rect x="8" y="36" width="1" height="1" fill="#BE772B" />
<rect x="9" y="36" width="1" height="1" fill="#BE772B" />
<rect x="21" y="36" width="1" height="1" fill="#7A4841" />
<rect x="22" y="36" width="1" height="1" fill="#7A4841" />
<rect x="23" y="36" width="1" height="1" fill="#7A4841" />
<rect x="24" y="36" width="1" height="1" fill="#7A4841" />
<rect x="25" y="36" width="1" height="1" fill="#7A4841" />
<rect x="26" y="36" width="1" height="1" fill="#7A4841" />
<rect x="27" y="36" width="1" height="1" fill="#7A4841" />
<rect x="28" y="36" width="1" height="1" fill="#7A4841" />
<rect x="29" y="36" width="1" height="1" fill="#4D2B32" />
<rect x="30" y="36" width="1" height="1" fill="#4D2B32" />
<rect x="31" y="36" width="1" height="1" fill="#4D2B32" />
<rect x="32" y="36" width="1" height="1" fill="#4D2B32" />
<rect x="33" y="36" width="1" height="1" fill="#7A4841" />
<rect x="34" y="36" width="1" height="1" fill="#7A4841" />
<rect x="35" y="36" width="1" height="1" fill="#7A4841" />
<rect x="3" y="37" width="1" height="1" fill="#BE772B" />
<rect x="4" y="37" width="1" height="1" fill="#BE772B" />
<rect x="5" y="37" width="1" height="1" fill="#BE772B" />
<rect x="6" y="37" width="1" height="1" fill="#BE772B" />
<rect x="7" y="37" width="1" height="1" fill="#BE772B" />
<rect x="8" y="37" width="1" height="1" fill="#BE772B" />
<rect x="9" y="37" width="1" height="1" fill="#884B2B" />
<rect x="10" y="37" width="1" height="1" fill="#BE772B" />
<rect x="11" y="37" width="1" height="1" fill="#BE772B" />
<rect x="12" y="37" width="1" height="1" fill="#BE772B" />
<rect x="13" y="37" width="1" height="1" fill="#BE772B" />
<rect x="14" y="37" width="1" height="1" fill="#BE772B" />
<rect x="15" y="37" width="1" height="1" fill="#BE772B" />
<rect x="16" y="37" width="1" height="1" fill="#BE772B" />
<rect x="20" y="37" width="1" height="1" fill="#AD7757" />
<rect x="21" y="37" width="1" height="1" fill="#AD7757" />
<rect x="22" y="37" width="1" height="1" fill="#AD7757" />
<rect x="23" y="37" width="1" height="1" fill="#7A4841" />
<rect x="24" y="37" width="1" height="1" fill="#7A4841" />
<rect x="25" y="37" width="1" height="1" fill="#7A4841" />
<rect x="26" y="37" width="1" height="1" fill="#7A4841" />
<rect x="27" y="37" width="1" height="1" fill="#4D2B32" />
<rect x="28" y="37" width="1" height="1" fill="#4D2B32" />
<rect x="29" y="37" width="1" height="1" fill="#4D2B32" />
<rect x="30" y="37" width="1" height="1" fill="#4D2B32" />
<rect x="31" y="37" width="1" height="1" fill="#4D2B32" />
<rect x="32" y="37" width="1" height="1" fill="#7A4841" />
<rect x="33" y="37" width="1" height="1" fill="#7A4841" />
<rect x="34" y="37" width="1" height="1" fill="#7A4841" />
<rect x="35" y="37" width="1" height="1" fill="#7A4841" />
<rect x="36" y="37" width="1" height="1" fill="#AD7757" />
<rect x="37" y="37" width="1" height="1" fill="#AD7757" />
<rect x="3" y="38" width="1" height="1" fill="#BE772B" />
<rect x="4" y="38" width="1" height="1" fill="#BE772B" />
<rect x="5" y="38" width="1" height="1" fill="#BE772B" />
<rect x="6" y="38" width="1" height="1" fill="#BE772B" />
<rect x="7" y="38" width="1" height="1" fill="#BE772B" />
<rect x="8" y="38" width="1" height="1" fill="#884B2B" />
<rect x="9" y="38" width="1" height="1" fill="#884B2B" />
<rect x="17" y="38" width="1" height="1" fill="#BE772B" />
<rect x="18" y="38" width="1" height="1" fill="#BE772B" />
<rect x="19" y="38" width="1" height="1" fill="#BE772B" />
<rect x="20" y="38" width="1" height="1" fill="#BE772B" />
<rect x="21" y="38" width="1" height="1" fill="#151D28" />
<rect x="22" y="38" width="1" height="1" fill="#202E37" />
<rect x="23" y="38" width="1" height="1" fill="#AD7757" />
<rect x="24" y="38" width="1" height="1" fill="#BE772B" />
<rect x="25" y="38" width="1" height="1" fill="#BE772B" />
<rect x="26" y="38" width="1" height="1" fill="#BE772B" />
<rect x="27" y="38" width="1" height="1" fill="#BE772B" />
<rect x="28" y="38" width="1" height="1" fill="#BE772B" />
<rect x="29" y="38" width="1" height="1" fill="#BE772B" />
<rect x="30" y="38" width="1" height="1" fill="#BE772B" />
<rect x="31" y="38" width="1" height="1" fill="#BE772B" />
<rect x="32" y="38" width="1" height="1" fill="#BE772B" />
<rect x="33" y="38" width="1" height="1" fill="#BE772B" />
<rect x="34" y="38" width="1" height="1" fill="#BE772B" />
<rect x="35" y="38" width="1" height="1" fill="#BE772B" />
<rect x="36" y="38" width="1" height="1" fill="#202E37" />
<rect x="37" y="38" width="1" height="1" fill="#202E37" />
<rect x="38" y="38" width="1" height="1" fill="#202E37" />
<rect x="4" y="39" width="1" height="1" fill="#884B2B" />
<rect x="5" y="39" width="1" height="1" fill="#BE772B" />
<rect x="6" y="39" width="1" height="1" fill="#BE772B" />
<rect x="7" y="39" width="1" height="1" fill="#884B2B" />
<rect x="8" y="39" width="1" height="1" fill="#884B2B" />
<rect x="9" y="39" width="1" height="1" fill="#884B2B" />
<rect x="20" y="39" width="1" height="1" fill="#7A4841" />
<rect x="21" y="39" width="1" height="1" fill="#202E37" />
<rect x="22" y="39" width="1" height="1" fill="#202E37" />
<rect x="23" y="39" width="1" height="1" fill="#AD7757" />
<rect x="24" y="39" width="1" height="1" fill="#7A4841" />
<rect x="26" y="39" width="1" height="1" fill="#4D2B32" />
<rect x="27" y="39" width="1" height="1" fill="#7A4841" />
<rect x="28" y="39" width="1" height="1" fill="#7A4841" />
<rect x="29" y="39" width="1" height="1" fill="#4D2B32" />
<rect x="30" y="39" width="1" height="1" fill="#AD7757" />
<rect x="31" y="39" width="1" height="1" fill="#7A4841" />
<rect x="34" y="39" width="1" height="1" fill="#7A4841" />
<rect x="35" y="39" width="1" height="1" fill="#7A4841" />
<rect x="36" y="39" width="1" height="1" fill="#202E37" />
<rect x="37" y="39" width="1" height="1" fill="#202E37" />
<rect x="38" y="39" width="1" height="1" fill="#7A4841" />
<rect x="39" y="39" width="1" height="1" fill="#BE772B" />
<rect x="40" y="39" width="1" height="1" fill="#BE772B" />
<rect x="41" y="39" width="1" height="1" fill="#BE772B" />
<rect x="42" y="39" width="1" height="1" fill="#BE772B" />
<rect x="43" y="39" width="1" height="1" fill="#BE772B" />
<rect x="44" y="39" width="1" height="1" fill="#BE772B" />
<rect x="45" y="39" width="1" height="1" fill="#BE772B" />
<rect x="46" y="39" width="1" height="1" fill="#BE772B" />
<rect x="47" y="39" width="1" height="1" fill="#BE772B" />
<rect x="48" y="39" width="1" height="1" fill="#BE772B" />
<rect x="49" y="39" width="1" height="1" fill="#BE772B" />
<rect x="50" y="39" width="1" height="1" fill="#BE772B" />
<rect x="51" y="39" width="1" height="1" fill="#BE772B" />
<rect x="52" y="39" width="1" height="1" fill="#BE772B" />
<rect x="53" y="39" width="1" height="1" fill="#BE772B" />
<rect x="4" y="40" width="1" height="1" fill="#884B2B" />
<rect x="5" y="40" width="1" height="1" fill="#884B2B" />
<rect x="6" y="40" width="1" height="1" fill="#884B2B" />
<rect x="7" y="40" width="1" height="1" fill="#884B2B" />
<rect x="8" y="40" width="1" height="1" fill="#884B2B" />
<rect x="20" y="40" width="1" height="1" fill="#7A4841" />
<rect x="21" y="40" width="1" height="1" fill="#4D2B32" />
<rect x="22" y="40" width="1" height="1" fill="#4D2B32" />
<rect x="23" y="40" width="1" height="1" fill="#7A4841" />
<rect x="26" y="40" width="1" height="1" fill="#4D2B32" />
<rect x="27" y="40" width="1" height="1" fill="#4D2B32" />
<rect x="28" y="40" width="1" height="1" fill="#4D2B32" />
<rect x="29" y="40" width="1" height="1" fill="#7A4841" />
<rect x="30" y="40" width="1" height="1" fill="#AD7757" />
<rect x="31" y="40" width="1" height="1" fill="#7A4841" />
<rect x="35" y="40" width="1" height="1" fill="#4D2B32" />
<rect x="36" y="40" width="1" height="1" fill="#4D2B32" />
<rect x="37" y="40" width="1" height="1" fill="#7A4841" />
<rect x="62" y="40" width="1" height="1" fill="#EBEDE9" />
<rect x="4" y="41" width="1" height="1" fill="#884B2B" />
<rect x="5" y="41" width="1" height="1" fill="#884B2B" />
<rect x="6" y="41" width="1" height="1" fill="#884B2B" />
<rect x="7" y="41" width="1" height="1" fill="#884B2B" />
<rect x="8" y="41" width="1" height="1" fill="#884B2B" />
<rect x="21" y="41" width="1" height="1" fill="#4D2B32" />
<rect x="22" y="41" width="1" height="1" fill="#7A4841" />
<rect x="26" y="41" width="1" height="1" fill="#4D2B32" />
<rect x="27" y="41" width="1" height="1" fill="#4D2B32" />
<rect x="28" y="41" width="1" height="1" fill="#4D2B32" />
<rect x="29" y="41" width="1" height="1" fill="#7A4841" />
<rect x="30" y="41" width="1" height="1" fill="#090A14" />
<rect x="31" y="41" width="1" height="1" fill="#AD7757" />
<rect x="32" y="41" width="1" height="1" fill="#4D2B32" />
<rect x="35" y="41" width="1" height="1" fill="#4D2B32" />
<rect x="61" y="41" width="1" height="1" fill="#EBEDE9" />
<rect x="4" y="42" width="1" height="1" fill="#884B2B" />
<rect x="5" y="42" width="1" height="1" fill="#884B2B" />
<rect x="6" y="42" width="1" height="1" fill="#884B2B" />
<rect x="7" y="42" width="1" height="1" fill="#884B2B" />
<rect x="25" y="42" width="1" height="1" fill="#4D2B32" />
<rect x="26" y="42" width="1" height="1" fill="#4D2B32" />
<rect x="27" y="42" width="1" height="1" fill="#4D2B32" />
<rect x="28" y="42" width="1" height="1" fill="#7A4841" />
<rect x="29" y="42" width="1" height="1" fill="#090A14" />
<rect x="30" y="42" width="1" height="1" fill="#090A14" />
<rect x="31" y="42" width="1" height="1" fill="#AD7757" />
<rect x="32" y="42" width="1" height="1" fill="#7A4841" />
<rect x="61" y="42" width="1" height="1" fill="#EBEDE9" />
<rect x="5" y="43" width="1" height="1" fill="#884B2B" />
<rect x="6" y="43" width="1" height="1" fill="#884B2B" />
<rect x="7" y="43" width="1" height="1" fill="#884B2B" />
<rect x="25" y="43" width="1" height="1" fill="#4D2B32" />
<rect x="26" y="43" width="1" height="1" fill="#4D2B32" />
<rect x="27" y="43" width="1" height="1" fill="#4D2B32" />
<rect x="28" y="43" width="1" height="1" fill="#7A4841" />
<rect x="29" y="43" width="1" height="1" fill="#090A14" />
<rect x="30" y="43" width="1" height="1" fill="#090A14" />
<rect x="31" y="43" width="1" height="1" fill="#AD7757" />
<rect x="32" y="43" width="1" height="1" fill="#7A4841" />
<rect x="33" y="43" width="1" height="1" fill="#4D2B32" />
<rect x="6" y="44" width="1" height="1" fill="#884B2B" />
<rect x="7" y="44" width="1" height="1" fill="#884B2B" />
<rect x="25" y="44" width="1" height="1" fill="#4D2B32" />
<rect x="26" y="44" width="1" height="1" fill="#4D2B32" />
<rect x="27" y="44" width="1" height="1" fill="#4D2B32" />
<rect x="28" y="44" width="1" height="1" fill="#7A4841" />
<rect x="29" y="44" width="1" height="1" fill="#090A14" />
<rect x="30" y="44" width="1" height="1" fill="#090A14" />
<rect x="31" y="44" width="1" height="1" fill="#AD7757" />
<rect x="32" y="44" width="1" height="1" fill="#7A4841" />
<rect x="33" y="44" width="1" height="1" fill="#4D2B32" />
<rect x="6" y="45" width="1" height="1" fill="#884B2B" />
<rect x="23" y="45" width="1" height="1" fill="#4D2B32" />
<rect x="24" y="45" width="1" height="1" fill="#4D2B32" />
<rect x="25" y="45" width="1" height="1" fill="#4D2B32" />
<rect x="26" y="45" width="1" height="1" fill="#4D2B32" />
<rect x="27" y="45" width="1" height="1" fill="#4D2B32" />
<rect x="28" y="45" width="1" height="1" fill="#7A4841" />
<rect x="29" y="45" width="1" height="1" fill="#090A14" />
<rect x="30" y="45" width="1" height="1" fill="#090A14" />
<rect x="31" y="45" width="1" height="1" fill="#AD7757" />
<rect x="32" y="45" width="1" height="1" fill="#7A4841" />
<rect x="33" y="45" width="1" height="1" fill="#7A4841" />
<rect x="7" y="46" width="1" height="1" fill="#884B2B" />
<rect x="23" y="46" width="1" height="1" fill="#4D2B32" />
<rect x="24" y="46" width="1" height="1" fill="#4D2B32" />
<rect x="25" y="46" width="1" height="1" fill="#4D2B32" />
<rect x="26" y="46" width="1" height="1" fill="#4D2B32" />
<rect x="27" y="46" width="1" height="1" fill="#4D2B32" />
<rect x="28" y="46" width="1" height="1" fill="#7A4841" />
<rect x="29" y="46" width="1" height="1" fill="#090A14" />
<rect x="30" y="46" width="1" height="1" fill="#090A14" />
<rect x="31" y="46" width="1" height="1" fill="#AD7757" />
<rect x="32" y="46" width="1" height="1" fill="#7A4841" />
<rect x="33" y="46" width="1" height="1" fill="#7A4841" />
<rect x="7" y="47" width="1" height="1" fill="#884B2B" />
<rect x="8" y="47" width="1" height="1" fill="#884B2B" />
<rect x="23" y="47" width="1" height="1" fill="#4D2B32" />
<rect x="24" y="47" width="1" height="1" fill="#4D2B32" />
<rect x="25" y="47" width="1" height="1" fill="#4D2B32" />
<rect x="26" y="47" width="1" height="1" fill="#4D2B32" />
<rect x="27" y="47" width="1" height="1" fill="#4D2B32" />
<rect x="28" y="47" width="1" height="1" fill="#7A4841" />
<rect x="29" y="47" width="1" height="1" fill="#090A14" />
<rect x="30" y="47" width="1" height="1" fill="#090A14" />
<rect x="31" y="47" width="1" height="1" fill="#AD7757" />
<rect x="32" y="47" width="1" height="1" fill="#7A4841" />
<rect x="33" y="47" width="1" height="1" fill="#7A4841" />
<rect x="34" y="47" width="1" height="1" fill="#4D2B32" />
<rect x="8" y="48" width="1" height="1" fill="#884B2B" />
<rect x="22" y="48" width="1" height="1" fill="#4D2B32" />
<rect x="23" y="48" width="1" height="1" fill="#4D2B32" />
<rect x="24" y="48" width="1" height="1" fill="#4D2B32" />
<rect x="25" y="48" width="1" height="1" fill="#4D2B32" />
<rect x="26" y="48" width="1" height="1" fill="#4D2B32" />
<rect x="27" y="48" width="1" height="1" fill="#4D2B32" />
<rect x="28" y="48" width="1" height="1" fill="#7A4841" />
<rect x="29" y="48" width="1" height="1" fill="#090A14" />
<rect x="30" y="48" width="1" height="1" fill="#090A14" />
<rect x="31" y="48" width="1" height="1" fill="#090A14" />
<rect x="32" y="48" width="1" height="1" fill="#AD7757" />
<rect x="33" y="48" width="1" height="1" fill="#7A4841" />
<rect x="34" y="48" width="1" height="1" fill="#7A4841" />
<rect x="9" y="49" width="1" height="1" fill="#884B2B" />
<rect x="22" y="49" width="1" height="1" fill="#4D2B32" />
<rect x="23" y="49" width="1" height="1" fill="#4D2B32" />
<rect x="24" y="49" width="1" height="1" fill="#4D2B32" />
<rect x="25" y="49" width="1" height="1" fill="#4D2B32" />
<rect x="26" y="49" width="1" height="1" fill="#4D2B32" />
<rect x="27" y="49" width="1" height="1" fill="#7A4841" />
<rect x="28" y="49" width="1" height="1" fill="#090A14" />
<rect x="29" y="49" width="1" height="1" fill="#090A14" />
<rect x="30" y="49" width="1" height="1" fill="#090A14" />
<rect x="31" y="49" width="1" height="1" fill="#090A14" />
<rect x="32" y="49" width="1" height="1" fill="#090A14" />
<rect x="33" y="49" width="1" height="1" fill="#AD7757" />
<rect x="34" y="49" width="1" height="1" fill="#7A4841" />
<rect x="10" y="50" width="1" height="1" fill="#884B2B" />
<rect x="22" y="50" width="1" height="1" fill="#4D2B32" />
<rect x="23" y="50" width="1" height="1" fill="#4D2B32" />
<rect x="24" y="50" width="1" height="1" fill="#4D2B32" />
<rect x="25" y="50" width="1" height="1" fill="#4D2B32" />
<rect x="26" y="50" width="1" height="1" fill="#4D2B32" />
<rect x="27" y="50" width="1" height="1" fill="#7A4841" />
<rect x="29" y="50" width="1" height="1" fill="#090A14" />
<rect x="30" y="50" width="1" height="1" fill="#090A14" />
<rect x="33" y="50" width="1" height="1" fill="#AD7757" />
<rect x="34" y="50" width="1" height="1" fill="#7A4841" />
<rect x="35" y="50" width="1" height="1" fill="#4D2B32" />
<rect x="23" y="51" width="1" height="1" fill="#4D2B32" />
<rect x="24" y="51" width="1" height="1" fill="#7A4841" />
<rect x="34" y="51" width="1" height="1" fill="#7A4841" />
<rect x="35" y="51" width="1" height="1" fill="#7A4841" />
<rect x="17" y="52" width="1" height="1" fill="#4D2B32" />
<rect x="18" y="52" width="1" height="1" fill="#4D2B32" />
<rect x="24" y="52" width="1" height="1" fill="#7A4841" />
<rect x="35" y="52" width="1" height="1" fill="#7A4841" />
<rect x="14" y="59" width="1" height="1" fill="#EBEDE9" />
<rect x="16" y="60" width="1" height="1" fill="#EBEDE9" />
<rect x="32" y="61" width="1" height="1" fill="#EBEDE9" />
<rect x="33" y="61" width="1" height="1" fill="#EBEDE9" />
<rect x="27" y="62" width="1" height="1" fill="#EBEDE9" />
<rect x="28" y="62" width="1" height="1" fill="#EBEDE9" />
</svg>