<?xml version="1.0" encoding="UTF-8" ?>
<svg version="1.1" width="64" height="64" xmlns="http://www.w3.org/2000/svg" shape-rendering="crispEdges">
<rect x="41" y="0" width="1" height="1" fill="#EBEDE9" />
<rect x="42" y="0" width="1" height="1" fill="#EBEDE9" />
<rect x="43" y="1" width="1" height="1" fill="#EBEDE9" />
<rect x="44" y="1" width="1" height="1" fill="#EBEDE9" />
<rect x="46" y="2" width="1" height="1" fill="#EBEDE9" />
<rect x="49" y="4" width="1" height="1" fill="#EBEDE9" />
<rect x="13" y="6" width="1" height="1" fill="#EBEDE9" />
<rect x="14" y="6" width="1" height="1" fill="#EBEDE9" />
<rect x="15" y="6" width="1" height="1" fill="#EBEDE9" />
<rect x="16" y="6" width="1" height="1" fill="#EBEDE9" />
<rect x="10" y="7" width="1" height="1" fill="#EBEDE9" />
<rect x="11" y="7" width="1" height="1" fill="#EBEDE9" />
<rect x="12" y="7" width="1" height="1" fill="#EBEDE9" />
<rect x="58" y="14" width="1" height="1" fill="#EBEDE9" />
<rect x="58" y="15" width="1" height="1" fill="#EBEDE9" />
<rect x="59" y="16" width="1" height="1" fill="#EBEDE9" />
<rect x="59" y="17" width="1" height="1" fill="#EBEDE9" />
<rect x="36" y="18" width="1" height="1" fill="#EBEDE9" />
<rect x="37" y="19" width="1" height="1" fill="#EBEDE9" />
<rect x="47" y="19" width="1" height="1" fill="#BE772B" />
<rect x="37" y="20" width="1" height="1" fill="#EBEDE9" />
<rect x="46" y="20" width="1" height="1" fill="#BE772B" />
<rect x="37" y="21" width="1" height="1" fill="#EBEDE9" />
<rect x="45" y="21" width="1" height="1" fill="#BE772B" />
<rect x="44" y="22" width="1" height="1" fill="#BE772B" />
<rect x="43" y="23" width="1" height="1" fill="#BE772B" />
<rect x="42" y="24" width="1" height="1" fill="#BE772B" />
<rect x="32" y="25" width="1" height="1" fill="#7A4841" />
<rect x="33" y="25" width="1" height="1" fill="#7A4841" />
<rect x="34" y="25" width="1" height="1" fill="#7A4841" />
<rect x="41" y="25" width="1" height="1" fill="#BE772B" />
<rect x="62" y="25" width="1" height="1" fill="#EBEDE9" />
<rect x="30" y="26" width="1" height="1" fill="#4D2B32" />
<rect x="31" y="26" width="1" height="1" fill="#4D2B32" />
<rect x="32" y="26" width="1" height="1" fill="#4D2B32" />
<rect x="33" y="26" width="1" height="1" fill="#4D2B32" />
<rect x="34" y="26" width="1" height="1" fill="#4D2B32" />
<rect x="35" y="26" width="1" height="1" fill="#7A4841" />
<rect x="40" y="26" width="1" height="1" fill="#BE772B" />
<rect x="30" y="27" width="1" height="1" fill="#4D2B32" />
<rect x="31" y="27" width="1" height="1" fill="#4D2B32" />
<rect x="32" y="27" width="1" height="1" fill="#4D2B32" />
<rect x="33" y="27" width="1" height="1" fill="#4D2B32" />
<rect x="34" y="27" width="1" height="1" fill="#A8B5B2" />
<rect x="35" y="27" width="1" height="1" fill="#C7CFCC" />
<rect x="39" y="27" width="1" height="1" fill="#BE772B" />
<rect x="30" y="28" width="1" height="1" fill="#4D2B32" />
<rect x="31" y="28" width="1" height="1" fill="#4D2B32" />
<rect x="32" y="28" width="1" height="1" fill="#4D2B32" />
<rect x="33" y="28" width="1" height="1" fill="#A8B5B2" />
<rect x="34" y="28" width="1" height="1" fill="#A8B5B2" />
<rect x="35" y="28" width="1" height="1" fill="#A8B5B2" />
<rect x="36" y="28" width="1" height="1" fill="#C7CFCC" />
<rect x="38" y="28" width="1" height="1" fill="#BE772B" />
<rect x="29" y="29" width="1" height="1" fill="#4D2B32" />
<rect x="30" y="29" width="1" height="1" fill="#4D2B32" />
<rect x="31" y="29" width="1" height="1" fill="#4D2B32" />
<rect x="32" y="29" width="1" height="1" fill="#4D2B32" />
<rect x="33" y="29" width="1" height="1" fill="#A8B5B2" />
<rect x="34" y="29" width="1" height="1" fill="#090A14" />
<rect x="35" y="29" width="1" height="1" fill="#090A14" />
<rect x="36" y="29" width="1" height="1" fill="#C7CFCC" />
<rect x="37" y="29" width="1" height="1" fill="#BE772B" />
<rect x="29" y="30" width="1" height="1" fill="#4D2B32" />
<rect x="30" y="30" width="1" height="1" fill="#4D2B32" />
<rect x="31" y="30" width="1" height="1" fill="#4D2B32" />
<rect x="32" y="30" width="1" height="1" fill="#4D2B32" />
<rect x="33" y="30" width="1" height="1" fill="#A8B5B2" />
<rect x="34" y="30" width="1" height="1" fill="#090A14" />
<rect x="35" y="30" width="1" height="1" fill="#C7CFCC" />
<rect x="36" y="30" width="1" height="1" fill="#BE772B" />
<rect x="7" y="31" width="1" height="1" fill="#DE9E41" />
<rect x="29" y="31" width="1" height="1" fill="#4D2B32" />
<rect x="30" y="31" width="1" height="1" fill="#4D2B32" />
<rect x="31" y="31" width="1" height="1" fill="#4D2B32" />
<rect x="32" y="31" width="1" height="1" fill="#4D2B32" />
<rect x="33" y="31" width="1" height="1" fill="#A8B5B2" />
<rect x="34" y="31" width="1" height="1" fill="#A8B5B2" />
<rect x="35" y="31" width="1" height="1" fill="#BE772B" />
<rect x="36" y="31" width="1" height="1" fill="#090A14" />
<rect x="62" y="31" width="1" height="1" fill="#EBEDE9" />
<rect x="6" y="32" width="1" height="1" fill="#DE9E41" />
<rect x="7" y="32" width="1" height="1" fill="#E8C170" />
<rect x="27" y="32" width="1" height="1" fill="#4D2B32" />
<rect x="28" y="32" width="1" height="1" fill="#4D2B32" />
<rect x="29" y="32" width="1" height="1" fill="#4D2B32" />
<rect x="30" y="32" width="1" height="1" fill="#4D2B32" />
<rect x="31" y="32" width="1" height="1" fill="#4D2B32" />
<rect x="32" y="32" width="1" height="1" fill="#4D2B32" />
<rect x="33" y="32" width="1" height="1" fill="#4D2B32" />
<rect x="34" y="32" width="1" height="1" fill="#BE772B" />
<rect x="35" y="32" width="1" height="1" fill="#A8B5B2" />
<rect x="36" y="32" width="1" height="1" fill="#C7CFCC" />
<rect x="62" y="32" width="1" height="1" fill="#EBEDE9" />
<rect x="6" y="33" width="1" height="1" fill="#DE9E41" />
<rect x="7" y="33" width="1" height="1" fill="#E8C170" />
<rect x="26" y="33" width="1" height="1" fill="#4D2B32" />
<rect x="27" y="33" width="1" height="1" fill="#7A4841" />
<rect x="28" y="33" width="1" height="1" fill="#7A4841" />
<rect x="29" y="33" width="1" height="1" fill="#4D2B32" />
<rect x="30" y="33" width="1" height="1" fill="#7A4841" />
<rect x="31" y="33" width="1" height="1" fill="#4D2B32" />
<rect x="32" y="33" width="1" height="1" fill="#4D2B32" />
<rect x="33" y="33" width="1" height="1" fill="#BE772B" />
<rect x="34" y="33" width="1" height="1" fill="#4D2B32" />
<rect x="35" y="33" width="1" height="1" fill="#A8B5B2" />
<rect x="36" y="33" width="1" height="1" fill="#A8B5B2" />
<rect x="62" y="33" width="1" height="1" fill="#EBEDE9" />
<rect x="5" y="34" width="1" height="1" fill="#DE9E41" />
<rect x="6" y="34" width="1" height="1" fill="#E8C170" />
<rect x="26" y="34" width="1" height="1" fill="#7A4841" />
<rect x="27" y="34" width="1" height="1" fill="#7A4841" />
<rect x="28" y="34" width="1" height="1" fill="#7A4841" />
<rect x="29" y="34" width="1" height="1" fill="#4D2B32" />
<rect x="30" y="34" width="1" height="1" fill="#4D2B32" />
<rect x="31" y="34" width="1" height="1" fill="#7A4841" />
<rect x="32" y="34" width="1" height="1" fill="#BE772B" />
<rect x="33" y="34" width="1" height="1" fill="#7A4841" />
<rect x="34" y="34" width="1" height="1" fill="#4D2B32" />
<rect x="35" y="34" width="1" height="1" fill="#AD7757" />
<rect x="62" y="34" width="1" height="1" fill="#EBEDE9" />
<rect x="5" y="35" width="1" height="1" fill="#DE9E41" />
<rect x="6" y="35" width="1" height="1" fill="#E8C170" />
<rect x="25" y="35" width="1" height="1" fill="#7A4841" />
<rect x="26" y="35" width="1" height="1" fill="#7A4841" />
<rect x="27" y="35" width="1" height="1" fill="#7A4841" />
<rect x="28" y="35" width="1" height="1" fill="#7A4841" />
<rect x="29" y="35" width="1" height="1" fill="#4D2B32" />
<rect x="30" y="35" width="1" height="1" fill="#4D2B32" />
<rect x="31" y="35" width="1" height="1" fill="#BE772B" />
<rect x="32" y="35" width="1" height="1" fill="#4D2B32" />
<rect x="33" y="35" width="1" height="1" fill="#7A4841" />
<rect x="61" y="35" width="1" height="1" fill="#EBEDE9" />
<rect x="5" y="36" width="1" height="1" fill="#DE9E41" />
<rect x="6" y="36" width="1" height="1" fill="#E8C170" />
<rect x="24" y="36" width="1" height="1" fill="#7A4841" />
<rect x="25" y="36" width="1" height="1" fill="#7A4841" />
<rect x="26" y="36" width="1" height="1" fill="#7A4841" />
<rect x="27" y="36" width="1" height="1" fill="#4D2B32" />
<rect x="28" y="36" width="1" height="1" fill="#4D2B32" />
<rect x="29" y="36" width="1" height="1" fill="#4D2B32" />
<rect x="30" y="36" width="1" height="1" fill="#BE772B" />
<rect x="31" y="36" width="1" height="1" fill="#4D2B32" />
<rect x="32" y="36" width="1" height="1" fill="#7A4841" />
<rect x="61" y="36" width="1" height="1" fill="#EBEDE9" />
<rect x="4" y="37" width="1" height="1" fill="#DE9E41" />
<rect x="5" y="37" width="1" height="1" fill="#DE9E41" />
<rect x="6" y="37" width="1" height="1" fill="#E8C170" />
<rect x="24" y="37" width="1" height="1" fill="#7A4841" />
<rect x="25" y="37" width="1" height="1" fill="#7A4841" />
<rect x="26" y="37" width="1" height="1" fill="#7A4841" />
<rect x="27" y="37" width="1" height="1" fill="#4D2B32" />
<rect x="28" y="37" width="1" height="1" fill="#4D2B32" />
<rect x="29" y="37" width="1" height="1" fill="#BE772B" />
<rect x="30" y="37" width="1" height="1" fill="#4D2B32" />
<rect x="31" y="37" width="1" height="1" fill="#4D2B32" />
<rect x="32" y="37" width="1" height="1" fill="#7A4841" />
<rect x="61" y="37" width="1" height="1" fill="#EBEDE9" />
<rect x="4" y="38" width="1" height="1" fill="#DE9E41" />
<rect x="5" y="38" width="1" height="1" fill="#DE9E41" />
<rect x="6" y="38" width="1" height="1" fill="#E8C170" />
<rect x="24" y="38" width="1" height="1" fill="#7A4841" />
<rect x="25" y="38" width="1" height="1" fill="#7A4841" />
<rect x="26" y="38" width="1" height="1" fill="#7A4841" />
<rect x="27" y="38" width="1" height="1" fill="#7A4841" />
<rect x="28" y="38" width="1" height="1" fill="#BE772B" />
<rect x="29" y="38" width="1" height="1" fill="#4D2B32" />
<rect x="30" y="38" width="1" height="1" fill="#7A4841" />
<rect x="31" y="38" width="1" height="1" fill="#AD7757" />
<rect x="4" y="39" width="1" height="1" fill="#DE9E41" />
<rect x="5" y="39" width="1" height="1" fill="#DE9E41" />
<rect x="6" y="39" width="1" height="1" fill="#E8C170" />
<rect x="24" y="39" width="1" height="1" fill="#AD7757" />
<rect x="25" y="39" width="1" height="1" fill="#AD7757" />
<rect x="26" y="39" width="1" height="1" fill="#AD7757" />
<rect x="27" y="39" width="1" height="1" fill="#BE772B" />
<rect x="28" y="39" width="1" height="1" fill="#4D2B32" />
<rect x="29" y="39" width="1" height="1" fill="#7A4841" />
<rect x="30" y="39" width="1" height="1" fill="#7A4841" />
<rect x="31" y="39" width="1" height="1" fill="#7A4841" />
<rect x="4" y="40" width="1" height="1" fill="#DE9E41" />
<rect x="5" y="40" width="1" height="1" fill="#DE9E41" />
<rect x="6" y="40" width="1" height="1" fill="#E8C170" />
<rect x="23" y="40" width="1" height="1" fill="#7A4841" />
<rect x="24" y="40" width="1" height="1" fill="#151D28" />
<rect x="25" y="40" width="1" height="1" fill="#151D28" />
<rect x="26" y="40" width="1" height="1" fill="#202E37" />
<rect x="27" y="40" width="1" height="1" fill="#AD7757" />
<rect x="28" y="40" width="1" height="1" fill="#4D2B32" />
<rect x="29" y="40" width="1" height="1" fill="#4D2B32" />
<rect x="30" y="40" width="1" height="1" fill="#4D2B32" />
<rect x="31" y="40" width="1" height="1" fill="#7A4841" />
<rect x="32" y="40" width="1" height="1" fill="#AD7757" />
<rect x="4" y="41" width="1" height="1" fill="#DE9E41" />
<rect x="5" y="41" width="1" height="1" fill="#DE9E41" />
<rect x="6" y="41" width="1" height="1" fill="#E8C170" />
<rect x="23" y="41" width="1" height="1" fill="#7A4841" />
<rect x="24" y="41" width="1" height="1" fill="#7A4841" />
<rect x="25" y="41" width="1" height="1" fill="#202E37" />
<rect x="26" y="41" width="1" height="1" fill="#202E37" />
<rect x="27" y="41" width="1" height="1" fill="#AD7757" />
<rect x="28" y="41" width="1" height="1" fill="#4D2B32" />
<rect x="29" y="41" width="1" height="1" fill="#7A4841" />
<rect x="30" y="41" width="1" height="1" fill="#4D2B32" />
<rect x="31" y="41" width="1" height="1" fill="#7A4841" />
<rect x="32" y="41" width="1" height="1" fill="#AD7757" />
<rect x="4" y="42" width="1" height="1" fill="#DE9E41" />
<rect x="5" y="42" width="1" height="1" fill="#DE9E41" />
<rect x="6" y="42" width="1" height="1" fill="#DE9E41" />
<rect x="7" y="42" width="1" height="1" fill="#E8C170" />
<rect x="23" y="42" width="1" height="1" fill="#7A4841" />
<rect x="24" y="42" width="1" height="1" fill="#BE772B" />
<rect x="25" y="42" width="1" height="1" fill="#4D2B32" />
<rect x="26" y="42" width="1" height="1" fill="#4D2B32" />
<rect x="27" y="42" width="1" height="1" fill="#7A4841" />
<rect x="28" y="42" width="1" height="1" fill="#4D2B32" />
<rect x="29" y="42" width="1" height="1" fill="#4D2B32" />
<rect x="30" y="42" width="1" height="1" fill="#7A4841" />
<rect x="31" y="42" width="1" height="1" fill="#AD7757" />
<rect x="32" y="42" width="1" height="1" fill="#AD7757" />
<rect x="4" y="43" width="1" height="1" fill="#DE9E41" />
<rect x="5" y="43" width="1" height="1" fill="#DE9E41" />
<rect x="6" y="43" width="1" height="1" fill="#DE9E41" />
<rect x="7" y="43" width="1" height="1" fill="#E8C170" />
<rect x="23" y="43" width="1" height="1" fill="#BE772B" />
<rect x="24" y="43" width="1" height="1" fill="#7A4841" />
<rect x="25" y="43" width="1" height="1" fill="#4D2B32" />
<rect x="26" y="43" width="1" height="1" fill="#7A4841" />
<rect x="27" y="43" width="1" height="1" fill="#4D2B32" />
<rect x="28" y="43" width="1" height="1" fill="#4D2B32" />
<rect x="29" y="43" width="1" height="1" fill="#4D2B32" />
<rect x="30" y="43" width="1" height="1" fill="#7A4841" />
<rect x="31" y="43" width="1" height="1" fill="#090A14" />
<rect x="32" y="43" width="1" height="1" fill="#AD7757" />
<rect x="4" y="44" width="1" height="1" fill="#DE9E41" />
<rect x="5" y="44" width="1" height="1" fill="#DE9E41" />
<rect x="6" y="44" width="1" height="1" fill="#DE9E41" />
<rect x="7" y="44" width="1" height="1" fill="#DE9E41" />
<rect x="8" y="44" width="1" height="1" fill="#E8C170" />
<rect x="22" y="44" width="1" height="1" fill="#BE772B" />
<rect x="23" y="44" width="1" height="1" fill="#4D2B32" />
<rect x="24" y="44" width="1" height="1" fill="#7A4841" />
<rect x="25" y="44" width="1" height="1" fill="#7A4841" />
<rect x="26" y="44" width="1" height="1" fill="#4D2B32" />
<rect x="27" y="44" width="1" height="1" fill="#4D2B32" />
<rect x="28" y="44" width="1" height="1" fill="#4D2B32" />
<rect x="29" y="44" width="1" height="1" fill="#4D2B32" />
<rect x="30" y="44" width="1" height="1" fill="#7A4841" />
<rect x="31" y="44" width="1" height="1" fill="#090A14" />
<rect x="32" y="44" width="1" height="1" fill="#AD7757" />
<rect x="4" y="45" width="1" height="1" fill="#DE9E41" />
<rect x="5" y="45" width="1" height="1" fill="#DE9E41" />
<rect x="6" y="45" width="1" height="1" fill="#DE9E41" />
<rect x="7" y="45" width="1" height="1" fill="#DE9E41" />
<rect x="8" y="45" width="1" height="1" fill="#E8C170" />
<rect x="21" y="45" width="1" height="1" fill="#BE772B" />
<rect x="23" y="45" width="1" height="1" fill="#4D2B32" />
<rect x="24" y="45" width="1" height="1" fill="#4D2B32" />
<rect x="25" y="45" width="1" height="1" fill="#4D2B32" />
<rect x="26" y="45" width="1" height="1" fill="#4D2B32" />
<rect x="27" y="45" width="1" height="1" fill="#4D2B32" />
<rect x="28" y="45" width="1" height="1" fill="#4D2B32" />
<rect x="29" y="45" width="1" height="1" fill="#4D2B32" />
<rect x="30" y="45" width="1" height="1" fill="#7A4841" />
<rect x="31" y="45" width="1" height="1" fill="#090A14" />
<rect x="32" y="45" width="1" height="1" fill="#AD7757" />
<rect x="5" y="46" width="1" height="1" fill="#DE9E41" />
<rect x="6" y="46" width="1" height="1" fill="#DE9E41" />
<rect x="7" y="46" width="1" height="1" fill="#DE9E41" />
<rect x="8" y="46" width="1" height="1" fill="#E8C170" />
<rect x="20" y="46" width="1" height="1" fill="#BE772B" />
<rect x="23" y="46" width="1" height="1" fill="#4D2B32" />
<rect x="24" y="46" width="1" height="1" fill="#4D2B32" />
<rect x="25" y="46" width="1" height="1" fill="#4D2B32" />
<rect x="26" y="46" width="1" height="1" fill="#4D2B32" />
<rect x="27" y="46" width="1" height="1" fill="#4D2B32" />
<rect x="28" y="46" width="1" height="1" fill="#4D2B32" />
<rect x="29" y="46" width="1" height="1" fill="#4D2B32" />
<rect x="30" y="46" width="1" height="1" fill="#7A4841" />
<rect x="31" y="46" width="1" height="1" fill="#090A14" />
<rect x="32" y="46" width="1" height="1" fill="#AD7757" />
<rect x="5" y="47" width="1" height="1" fill="#DE9E41" />
<rect x="6" y="47" width="1" height="1" fill="#DE9E41" />
<rect x="7" y="47" width="1" height="1" fill="#DE9E41" />
<rect x="8" y="47" width="1" height="1" fill="#DE9E41" />
<rect x="9" y="47" width="1" height="1" fill="#E8C170" />
<rect x="19" y="47" width="1" height="1" fill="#BE772B" />
<rect x="22" y="47" width="1" height="1" fill="#4D2B32" />
<rect x="23" y="47" width="1" height="1" fill="#4D2B32" />
<rect x="24" y="47" width="1" height="1" fill="#4D2B32" />
<rect x="25" y="47" width="1" height="1" fill="#4D2B32" />
<rect x="26" y="47" width="1" height="1" fill="#4D2B32" />
<rect x="27" y="47" width="1" height="1" fill="#4D2B32" />
<rect x="28" y="47" width="1" height="1" fill="#4D2B32" />
<rect x="29" y="47" width="1" height="1" fill="#4D2B32" />
<rect x="30" y="47" width="1" height="1" fill="#7A4841" />
<rect x="31" y="47" width="1" height="1" fill="#090A14" />
<rect x="32" y="47" width="1" height="1" fill="#AD7757" />
<rect x="6" y="48" width="1" height="1" fill="#DE9E41" />
<rect x="7" y="48" width="1" height="1" fill="#DE9E41" />
<rect x="8" y="48" width="1" height="1" fill="#DE9E41" />
<rect x="9" y="48" width="1" height="1" fill="#DE9E41" />
<rect x="10" y="48" width="1" height="1" fill="#E8C170" />
<rect x="18" y="48" width="1" height="1" fill="#BE772B" />
<rect x="22" y="48" width="1" height="1" fill="#4D2B32" />
<rect x="23" y="48" width="1" height="1" fill="#4D2B32" />
<rect x="24" y="48" width="1" height="1" fill="#4D2B32" />
<rect x="25" y="48" width="1" height="1" fill="#4D2B32" />
<rect x="26" y="48" width="1" height="1" fill="#4D2B32" />
<rect x="27" y="48" width="1" height="1" fill="#4D2B32" />
<rect x="28" y="48" width="1" height="1" fill="#4D2B32" />
<rect x="29" y="48" width="1" height="1" fill="#7A4841" />
<rect x="30" y="48" width="1" height="1" fill="#090A14" />
<rect x="31" y="48" width="1" height="1" fill="#090A14" />
<rect x="32" y="48" width="1" height="1" fill="#AD7757" />
<rect x="6" y="49" width="1" height="1" fill="#DE9E41" />
<rect x="7" y="49" width="1" height="1" fill="#DE9E41" />
<rect x="8" y="49" width="1" height="1" fill="#DE9E41" />
<rect x="9" y="49" width="1" height="1" fill="#DE9E41" />
<rect x="10" y="49" width="1" height="1" fill="#DE9E41" />
<rect x="11" y="49" width="1" height="1" fill="#E8C170" />
<rect x="16" y="49" width="1" height="1" fill="#BE772B" />
<rect x="17" y="49" width="1" height="1" fill="#BE772B" />
<rect x="21" y="49" width="1" height="1" fill="#7A4841" />
<rect x="22" y="49" width="1" height="1" fill="#4D2B32" />
<rect x="23" y="49" width="1" height="1" fill="#4D2B32" />
<rect x="24" y="49" width="1" height="1" fill="#4D2B32" />
<rect x="25" y="49" width="1" height="1" fill="#4D2B32" />
<rect x="26" y="49" width="1" height="1" fill="#4D2B32" />
<rect x="27" y="49" width="1" height="1" fill="#4D2B32" />
<rect x="28" y="49" width="1" height="1" fill="#4D2B32" />
<rect x="29" y="49" width="1" height="1" fill="#7A4841" />
<rect x="30" y="49" width="1" height="1" fill="#090A14" />
<rect x="31" y="49" width="1" height="1" fill="#AD7757" />
<rect x="7" y="50" width="1" height="1" fill="#DE9E41" />
<rect x="8" y="50" width="1" height="1" fill="#DE9E41" />
<rect x="9" y="50" width="1" height="1" fill="#DE9E41" />
<rect x="10" y="50" width="1" height="1" fill="#DE9E41" />
<rect x="11" y="50" width="1" height="1" fill="#DE9E41" />
<rect x="12" y="50" width="1" height="1" fill="#E8C170" />
<rect x="13" y="50" width="1" height="1" fill="#E8C170" />
<rect x="15" y="50" width="1" height="1" fill="#BE772B" />
<rect x="16" y="50" width="1" height="1" fill="#884B2B" />
<rect x="21" y="50" width="1" height="1" fill="#4D2B32" />
<rect x="22" y="50" width="1" height="1" fill="#4D2B32" />
<rect x="23" y="50" width="1" height="1" fill="#4D2B32" />
<rect x="24" y="50" width="1" height="1" fill="#4D2B32" />
<rect x="25" y="50" width="1" height="1" fill="#4D2B32" />
<rect x="26" y="50" width="1" height="1" fill="#4D2B32" />
<rect x="27" y="50" width="1" height="1" fill="#7A4841" />
<rect x="28" y="50" width="1" height="1" fill="#090A14" />
<rect x="29" y="50" width="1" height="1" fill="#090A14" />
<rect x="30" y="50" width="1" height="1" fill="#090A14" />
<rect x="31" y="50" width="1" height="1" fill="#AD7757" />
<rect x="8" y="51" width="1" height="1" fill="#DE9E41" />
<rect x="9" y="51" width="1" height="1" fill="#DE9E41" />
<rect x="10" y="51" width="1" height="1" fill="#DE9E41" />
<rect x="11" y="51" width="1" height="1" fill="#DE9E41" />
<rect x="12" y="51" width="1" height="1" fill="#DE9E41" />
<rect x="13" y="51" width="1" height="1" fill="#DE9E41" />
<rect x="14" y="51" width="1" height="1" fill="#BE772B" />
<rect x="15" y="51" width="1" height="1" fill="#BE772B" />
<rect x="16" y="51" width="1" height="1" fill="#884B2B" />
<rect x="20" y="51" width="1" height="1" fill="#4D2B32" />
<rect x="21" y="51" width="1" height="1" fill="#4D2B32" />
<rect x="22" y="51" width="1" height="1" fill="#4D2B32" />
<rect x="23" y="51" width="1" height="1" fill="#4D2B32" />
<rect x="24" y="51" width="1" height="1" fill="#4D2B32" />
<rect x="25" y="51" width="1" height="1" fill="#7A4841" />
<rect x="28" y="51" width="1" height="1" fill="#7A4841" />
<rect x="29" y="51" width="1" height="1" fill="#7A4841" />
<rect x="30" y="51" width="1" height="1" fill="#AD7757" />
<rect x="9" y="52" width="1" height="1" fill="#DE9E41" />
<rect x="10" y="52" width="1" height="1" fill="#DE9E41" />
<rect x="11" y="52" width="1" height="1" fill="#DE9E41" />
<rect x="12" y="52" width="1" height="1" fill="#DE9E41" />
<rect x="13" y="52" width="1" height="1" fill="#DE9E41" />
<rect x="14" y="52" width="1" height="1" fill="#BE772B" />
<rect x="15" y="52" width="1" height="1" fill="#BE772B" />
<rect x="16" y="52" width="1" height="1" fill="#884B2B" />
<rect x="27" y="52" width="1" height="1" fill="#7A4841" />
<rect x="28" y="52" width="1" height="1" fill="#7A4841" />
<rect x="10" y="53" width="1" height="1" fill="#BE772B" />
<rect x="11" y="53" width="1" height="1" fill="#DE9E41" />
<rect x="12" y="53" width="1" height="1" fill="#BE772B" />
<rect x="13" y="53" width="1" height="1" fill="#BE772B" />
<rect x="14" y="53" width="1" height="1" fill="#BE772B" />
<rect x="15" y="53" width="1" height="1" fill="#BE772B" />
<rect x="16" y="53" width="1" height="1" fill="#884B2B" />
<rect x="11" y="54" width="1" height="1" fill="#BE772B" />
<rect x="12" y="54" width="1" height="1" fill="#BE772B" />
<rect x="13" y="54" width="1" height="1" fill="#BE772B" />
<rect x="14" y="54" width="1" height="1" fill="#BE772B" />
<rect x="15" y="54" width="1" height="1" fill="#BE772B" />
<rect x="16" y="54" width="1" height="1" fill="#884B2B" />
<rect x="17" y="54" width="1" height="1" fill="#884B2B" />
<rect x="12" y="55" width="1" height="1" fill="#884B2B" />
<rect x="13" y="55" width="1" height="1" fill="#BE772B" />
<rect x="14" y="55" width="1" height="1" fill="#884B2B" />
<rect x="15" y="55" width="1" height="1" fill="#884B2B" />
<rect x="16" y="55" width="1" height="1" fill="#884B2B" />
<rect x="17" y="55" width="1" height="1" fill="#884B2B" />
<rect x="14" y="56" width="1" height="1" fill="#884B2B" />
<rect x="15" y="56" width="1" height="1" fill="#884B2B" />
<rect x="16" y="56" width="1" height="1" fill="#884B2B" />
<rect x="17" y="56" width="1" height="1" fill="#884B2B" />
<rect x="18" y="56" width="1" height="1" fill="#884B2B" />
<rect x="16" y="57" width="1" height="1" fill="#884B2B" />
<rect x="17" y="57" width="1" height="1" fill="#884B2B" />
<rect x="18" y="57" width="1" height="1" fill="#884B2B" />
<rect x="17" y="58" width="1" height="1" fill="#EBEDE9" />
<rect x="18" y="58" width="1" height="1" fill="#EBEDE9" />
<rect x="19" y="59" width="1" height="1" fill="#EBEDE9" />
<rect x="20" y="59" width="1" height="1" fill="#EBEDE9" />
<rect x="21" y="59" width="1" height="1" fill="#EBEDE9" />
<rect x="36" y="60" width="1" height="1" fill="#EBEDE9" />
<rect x="37" y="60" width="1" height="1" fill="#EBEDE9" />
<rect x="38" y="60" width="1" height="1" fill="#EBEDE9" />
<rect x="39" y="60" width="1" height="1" fill="#EBEDE9" />
<rect x="32" y="61" width="1" height="1" fill="#EBEDE9" />
<rect x="33" y="61" width="1" height="1" fill="#EBEDE9" />
<rect x="34" y="61" width="1" height="1" fill="#EBEDE9" />
<rect x="35" y="61" width="1" height="1" fill="#EBEDE9" />
</svg>