<?xml version="1.0" encoding="UTF-8" ?>
<svg version="1.1" width="50" height="50" xmlns="http://www.w3.org/2000/svg" shape-rendering="crispEdges">
<rect x="31" y="2" width="1" height="1" fill="#DE9E41" />
<rect x="31" y="3" width="1" height="1" fill="#DE9E41" />
<rect x="15" y="16" width="1" height="1" fill="#7A4841" />
<rect x="31" y="16" width="1" height="1" fill="#DE9E41" />
<rect x="15" y="17" width="1" height="1" fill="#7A4841" />
<rect x="25" y="18" width="1" height="1" fill="#DE9E41" />
<rect x="35" y="18" width="1" height="1" fill="#DE9E41" />
<rect x="25" y="19" width="1" height="1" fill="#DE9E41" />
<rect x="41" y="21" width="1" height="1" fill="#BE772B" />
<rect x="41" y="22" width="1" height="1" fill="#BE772B" />
<rect x="19" y="24" width="1" height="1" fill="#4D2B32" />
<rect x="22" y="24" width="1" height="1" fill="#DE9E41" />
<rect x="22" y="25" width="1" height="1" fill="#DE9E41" />
<rect x="32" y="25" width="1" height="1" fill="#BE772B" />
<rect x="21" y="26" width="1" height="1" fill="#DE9E41" />
<rect x="31" y="26" width="1" height="1" fill="#BE772B" />
<rect x="38" y="26" width="1" height="1" fill="#BE772B" />
<rect x="39" y="26" width="1" height="1" fill="#BE772B" />
<rect x="45" y="26" width="1" height="1" fill="#884B2B" />
<rect x="19" y="27" width="1" height="1" fill="#4D2B32" />
<rect x="23" y="28" width="1" height="1" fill="#4D2B32" />
<rect x="17" y="29" width="1" height="1" fill="#C7CFCC" />
<rect x="21" y="29" width="1" height="1" fill="#E8C170" />
<rect x="22" y="29" width="1" height="1" fill="#884B2B" />
<rect x="28" y="29" width="1" height="1" fill="#BE772B" />
<rect x="28" y="30" width="1" height="1" fill="#BE772B" />
<rect x="33" y="30" width="1" height="1" fill="#7A4841" />
<rect x="12" y="31" width="1" height="1" fill="#4D2B32" />
<rect x="13" y="31" width="1" height="1" fill="#4D2B32" />
<rect x="21" y="31" width="1" height="1" fill="#E8C170" />
<rect x="32" y="31" width="1" height="1" fill="#7A4841" />
<rect x="13" y="32" width="1" height="1" fill="#4D2B32" />
<rect x="22" y="32" width="1" height="1" fill="#E8C170" />
<rect x="43" y="32" width="1" height="1" fill="#884B2B" />
<rect x="22" y="33" width="1" height="1" fill="#E8C170" />
<rect x="43" y="33" width="1" height="1" fill="#884B2B" />
<rect x="8" y="35" width="1" height="1" fill="#151D28" />
<rect x="23" y="35" width="1" height="1" fill="#BE772B" />
<rect x="26" y="35" width="1" height="1" fill="#7A4841" />
<rect x="8" y="36" width="1" height="1" fill="#151D28" />
<rect x="26" y="36" width="1" height="1" fill="#7A4841" />
<rect x="9" y="37" width="1" height="1" fill="#151D28" />
<rect x="20" y="37" width="1" height="1" fill="#7A4841" />
<rect x="21" y="37" width="1" height="1" fill="#BE772B" />
<rect x="25" y="37" width="1" height="1" fill="#7A4841" />
<rect x="18" y="38" width="1" height="1" fill="#7A4841" />
<rect x="20" y="38" width="1" height="1" fill="#BE772B" />
<rect x="21" y="38" width="1" height="1" fill="#4D2B32" />
<rect x="18" y="39" width="1" height="1" fill="#7A4841" />
<rect x="19" y="39" width="1" height="1" fill="#4D2B32" />
<rect x="20" y="39" width="1" height="1" fill="#4D2B32" />
<rect x="21" y="39" width="1" height="1" fill="#4D2B32" />
<rect x="17" y="40" width="1" height="1" fill="#4D2B32" />
<rect x="18" y="40" width="1" height="1" fill="#7A4841" />
<rect x="19" y="40" width="1" height="1" fill="#7A4841" />
<rect x="20" y="40" width="1" height="1" fill="#7A4841" />
<rect x="13" y="41" width="1" height="1" fill="#7A4841" />
<rect x="16" y="41" width="1" height="1" fill="#4D2B32" />
<rect x="18" y="41" width="1" height="1" fill="#7A4841" />
<rect x="19" y="41" width="1" height="1" fill="#090A14" />
<rect x="20" y="41" width="1" height="1" fill="#4D2B32" />
<rect x="14" y="42" width="1" height="1" fill="#7A4841" />
<rect x="17" y="42" width="1" height="1" fill="#7A4841" />
<rect x="18" y="42" width="1" height="1" fill="#090A14" />
<rect x="19" y="42" width="1" height="1" fill="#090A14" />
<rect x="17" y="43" width="1" height="1" fill="#4D2B32" />
<rect x="18" y="43" width="1" height="1" fill="#7A4841" />
<rect x="19" y="43" width="1" height="1" fill="#090A14" />
<rect x="18" y="44" width="1" height="1" fill="#7A4841" />
</svg>