<?xml version="1.0" encoding="UTF-8" ?>
<svg version="1.1" width="50" height="50" xmlns="http://www.w3.org/2000/svg" shape-rendering="crispEdges">
<rect x="29" y="4" width="1" height="1" fill="#DE9E41" />
<rect x="13" y="18" width="1" height="1" fill="#7A4841" />
<rect x="23" y="20" width="1" height="1" fill="#DE9E41" />
<rect x="39" y="23" width="1" height="1" fill="#BE772B" />
<rect x="19" y="25" width="1" height="1" fill="#DE9E41" />
<rect x="20" y="25" width="1" height="1" fill="#DE9E41" />
<rect x="20" y="26" width="1" height="1" fill="#DE9E41" />
<rect x="29" y="26" width="1" height="1" fill="#BE772B" />
<rect x="30" y="26" width="1" height="1" fill="#BE772B" />
<rect x="30" y="27" width="1" height="1" fill="#BE772B" />
<rect x="36" y="27" width="1" height="1" fill="#BE772B" />
<rect x="37" y="28" width="1" height="1" fill="#BE772B" />
<rect x="21" y="30" width="1" height="1" fill="#4D2B32" />
<rect x="26" y="31" width="1" height="1" fill="#BE772B" />
<rect x="8" y="32" width="1" height="1" fill="#4D2B32" />
<rect x="31" y="32" width="1" height="1" fill="#7A4841" />
<rect x="8" y="33" width="1" height="1" fill="#4D2B32" />
<rect x="9" y="33" width="1" height="1" fill="#4D2B32" />
<rect x="20" y="34" width="1" height="1" fill="#E8C170" />
<rect x="41" y="34" width="1" height="1" fill="#884B2B" />
<rect x="6" y="37" width="1" height="1" fill="#151D28" />
<rect x="7" y="37" width="1" height="1" fill="#151D28" />
<rect x="6" y="38" width="1" height="1" fill="#151D28" />
<rect x="16" y="40" width="1" height="1" fill="#7A4841" />
</svg>