<?xml version="1.0" encoding="UTF-8" ?>
<svg version="1.1" width="40" height="37" xmlns="http://www.w3.org/2000/svg" shape-rendering="crispEdges">
<rect x="9" y="15" width="1" height="1" fill="#BDB3AC" />
<rect x="10" y="15" width="1" height="1" fill="#F7ECD5" />
<rect x="11" y="15" width="1" height="1" fill="#F7ECD5" />
<rect x="12" y="15" width="1" height="1" fill="#F7ECD5" />
<rect x="13" y="15" width="1" height="1" fill="#BDB3AC" />
<rect x="8" y="16" width="1" height="1" fill="#BDB3AC" />
<rect x="9" y="16" width="1" height="1" fill="#F7ECD5" />
<rect x="10" y="16" width="1" height="1" fill="#F7ECD5" />
<rect x="11" y="16" width="1" height="1" fill="#F7ECD5" />
<rect x="12" y="16" width="1" height="1" fill="#F7ECD5" />
<rect x="13" y="16" width="1" height="1" fill="#F7ECD5" />
<rect x="14" y="16" width="1" height="1" fill="#BDB3AC" />
<rect x="8" y="17" width="1" height="1" fill="#F7ECD5" />
<rect x="9" y="17" width="1" height="1" fill="#615E70" />
<rect x="10" y="17" width="1" height="1" fill="#615E70" />
<rect x="11" y="17" width="1" height="1" fill="#F7ECD5" />
<rect x="12" y="17" width="1" height="1" fill="#F7ECD5" />
<rect x="13" y="17" width="1" height="1" fill="#F7ECD5" />
<rect x="14" y="17" width="1" height="1" fill="#F7ECD5" />
<rect x="15" y="17" width="1" height="1" fill="#615E70" />
<rect x="8" y="18" width="1" height="1" fill="#F7ECD5" />
<rect x="9" y="18" width="1" height="1" fill="#F7ECD5" />
<rect x="10" y="18" width="1" height="1" fill="#3B3B4D" />
<rect x="11" y="18" width="1" height="1" fill="#3B3B4D" />
<rect x="12" y="18" width="1" height="1" fill="#615E70" />
<rect x="13" y="18" width="1" height="1" fill="#F7ECD5" />
<rect x="14" y="18" width="1" height="1" fill="#3B3B4D" />
<rect x="8" y="19" width="1" height="1" fill="#F7ECD5" />
<rect x="9" y="19" width="1" height="1" fill="#F7ECD5" />
<rect x="10" y="19" width="1" height="1" fill="#3B3B4D" />
<rect x="11" y="19" width="1" height="1" fill="#3B3B4D" />
<rect x="12" y="19" width="1" height="1" fill="#F7ECD5" />
<rect x="13" y="19" width="1" height="1" fill="#F7ECD5" />
<rect x="14" y="19" width="1" height="1" fill="#3B3B4D" />
<rect x="8" y="20" width="1" height="1" fill="#BDB3AC" />
<rect x="9" y="20" width="1" height="1" fill="#F7ECD5" />
<rect x="10" y="20" width="1" height="1" fill="#F7ECD5" />
<rect x="11" y="20" width="1" height="1" fill="#F7ECD5" />
<rect x="12" y="20" width="1" height="1" fill="#F7ECD5" />
<rect x="13" y="20" width="1" height="1" fill="#615E70" />
<rect x="14" y="20" width="1" height="1" fill="#F7ECD5" />
<rect x="9" y="21" width="1" height="1" fill="#BDB3AC" />
<rect x="10" y="21" width="1" height="1" fill="#BDB3AC" />
<rect x="11" y="21" width="1" height="1" fill="#F7ECD5" />
<rect x="12" y="21" width="1" height="1" fill="#F7ECD5" />
<rect x="13" y="21" width="1" height="1" fill="#F7ECD5" />
<rect x="14" y="21" width="1" height="1" fill="#BDB3AC" />
<rect x="7" y="22" width="1" height="1" fill="#BDB3AC" />
<rect x="8" y="22" width="1" height="1" fill="#BDB3AC" />
<rect x="9" y="22" width="1" height="1" fill="#BDB3AC" />
<rect x="10" y="22" width="1" height="1" fill="#615E70" />
<rect x="11" y="22" width="1" height="1" fill="#F7ECD5" />
<rect x="12" y="22" width="1" height="1" fill="#BDB3AC" />
<rect x="13" y="22" width="1" height="1" fill="#F7ECD5" />
<rect x="6" y="23" width="1" height="1" fill="#F7ECD5" />
<rect x="7" y="23" width="1" height="1" fill="#F7ECD5" />
<rect x="8" y="23" width="1" height="1" fill="#BDB3AC" />
<rect x="9" y="23" width="1" height="1" fill="#F7ECD5" />
<rect x="10" y="23" width="1" height="1" fill="#F7ECD5" />
<rect x="11" y="23" width="1" height="1" fill="#F7ECD5" />
<rect x="12" y="23" width="1" height="1" fill="#F7ECD5" />
<rect x="5" y="24" width="1" height="1" fill="#F7ECD5" />
<rect x="6" y="24" width="1" height="1" fill="#F7ECD5" />
<rect x="7" y="24" width="1" height="1" fill="#F7ECD5" />
<rect x="8" y="24" width="1" height="1" fill="#BDB3AC" />
<rect x="9" y="24" width="1" height="1" fill="#615E70" />
<rect x="10" y="24" width="1" height="1" fill="#BDB3AC" />
<rect x="11" y="24" width="1" height="1" fill="#F7ECD5" />
<rect x="12" y="24" width="1" height="1" fill="#BDB3AC" />
<rect x="13" y="24" width="1" height="1" fill="#3B3B4D" />
<rect x="5" y="25" width="1" height="1" fill="#F7ECD5" />
<rect x="6" y="25" width="1" height="1" fill="#F7ECD5" />
<rect x="7" y="25" width="1" height="1" fill="#F7ECD5" />
<rect x="8" y="25" width="1" height="1" fill="#BDB3AC" />
<rect x="9" y="25" width="1" height="1" fill="#F7ECD5" />
<rect x="10" y="25" width="1" height="1" fill="#F7ECD5" />
<rect x="11" y="25" width="1" height="1" fill="#F7ECD5" />
<rect x="12" y="25" width="1" height="1" fill="#F7ECD5" />
<rect x="13" y="25" width="1" height="1" fill="#3B3B4D" />
<rect x="3" y="26" width="1" height="1" fill="#252329" />
<rect x="4" y="26" width="1" height="1" fill="#252329" />
<rect x="6" y="26" width="1" height="1" fill="#F7ECD5" />
<rect x="7" y="26" width="1" height="1" fill="#F7ECD5" />
<rect x="8" y="26" width="1" height="1" fill="#F7ECD5" />
<rect x="9" y="26" width="1" height="1" fill="#BDB3AC" />
<rect x="10" y="26" width="1" height="1" fill="#BDB3AC" />
<rect x="11" y="26" width="1" height="1" fill="#F7ECD5" />
<rect x="12" y="26" width="1" height="1" fill="#BDB3AC" />
<rect x="13" y="26" width="1" height="1" fill="#3B3B4D" />
<rect x="14" y="26" width="1" height="1" fill="#3B3B4D" />
<rect x="5" y="27" width="1" height="1" fill="#252329" />
<rect x="6" y="27" width="1" height="1" fill="#252329" />
<rect x="7" y="27" width="1" height="1" fill="#F7ECD5" />
<rect x="8" y="27" width="1" height="1" fill="#F7ECD5" />
<rect x="9" y="27" width="1" height="1" fill="#F7ECD5" />
<rect x="10" y="27" width="1" height="1" fill="#F7ECD5" />
<rect x="11" y="27" width="1" height="1" fill="#BDB3AC" />
<rect x="12" y="27" width="1" height="1" fill="#F7ECD5" />
<rect x="13" y="27" width="1" height="1" fill="#3B3B4D" />
<rect x="14" y="27" width="1" height="1" fill="#3B3B4D" />
<rect x="15" y="27" width="1" height="1" fill="#3B3B4D" />
<rect x="9" y="28" width="1" height="1" fill="#F7ECD5" />
<rect x="10" y="28" width="1" height="1" fill="#F7ECD5" />
<rect x="11" y="28" width="1" height="1" fill="#252329" />
<rect x="12" y="28" width="1" height="1" fill="#252329" />
<rect x="14" y="28" width="1" height="1" fill="#3B3B4D" />
<rect x="15" y="28" width="1" height="1" fill="#3B3B4D" />
<rect x="16" y="28" width="1" height="1" fill="#3B3B4D" />
<rect x="9" y="29" width="1" height="1" fill="#BDB3AC" />
<rect x="10" y="29" width="1" height="1" fill="#BDB3AC" />
<rect x="11" y="29" width="1" height="1" fill="#615E70" />
<rect x="13" y="29" width="1" height="1" fill="#252329" />
<rect x="14" y="29" width="1" height="1" fill="#252329" />
<rect x="15" y="29" width="1" height="1" fill="#252329" />
<rect x="16" y="29" width="1" height="1" fill="#252329" />
<rect x="17" y="29" width="1" height="1" fill="#3B3B4D" />
<rect x="8" y="30" width="1" height="1" fill="#615E70" />
<rect x="9" y="30" width="1" height="1" fill="#615E70" />
<rect x="10" y="30" width="1" height="1" fill="#968C94" />
<rect x="11" y="30" width="1" height="1" fill="#F7ECD5" />
<rect x="12" y="30" width="1" height="1" fill="#F7ECD5" />
<rect x="13" y="30" width="1" height="1" fill="#F7ECD5" />
<rect x="17" y="30" width="1" height="1" fill="#252329" />
<rect x="18" y="30" width="1" height="1" fill="#252329" />
<rect x="19" y="30" width="1" height="1" fill="#252329" />
<rect x="20" y="30" width="1" height="1" fill="#252329" />
<rect x="30" y="30" width="1" height="1" fill="#3E4652" />
<rect x="8" y="31" width="1" height="1" fill="#615E70" />
<rect x="9" y="31" width="1" height="1" fill="#615E70" />
<rect x="10" y="31" width="1" height="1" fill="#968C94" />
<rect x="11" y="31" width="1" height="1" fill="#F7ECD5" />
<rect x="12" y="31" width="1" height="1" fill="#F7ECD5" />
<rect x="13" y="31" width="1" height="1" fill="#F7ECD5" />
<rect x="14" y="31" width="1" height="1" fill="#F7ECD5" />
<rect x="21" y="31" width="1" height="1" fill="#252329" />
<rect x="22" y="31" width="1" height="1" fill="#252329" />
<rect x="23" y="31" width="1" height="1" fill="#252329" />
<rect x="24" y="31" width="1" height="1" fill="#252329" />
<rect x="29" y="31" width="1" height="1" fill="#3E4652" />
<rect x="30" y="31" width="1" height="1" fill="#3E4652" />
<rect x="9" y="32" width="1" height="1" fill="#615E70" />
<rect x="10" y="32" width="1" height="1" fill="#615E70" />
<rect x="11" y="32" width="1" height="1" fill="#615E70" />
<rect x="12" y="32" width="1" height="1" fill="#F7ECD5" />
<rect x="13" y="32" width="1" height="1" fill="#F7ECD5" />
<rect x="14" y="32" width="1" height="1" fill="#F7ECD5" />
<rect x="25" y="32" width="1" height="1" fill="#252329" />
<rect x="26" y="32" width="1" height="1" fill="#252329" />
<rect x="27" y="32" width="1" height="1" fill="#252329" />
<rect x="28" y="32" width="1" height="1" fill="#252329" />
<rect x="29" y="32" width="1" height="1" fill="#3E4652" />
<rect x="30" y="32" width="1" height="1" fill="#3E4652" />
<rect x="8" y="33" width="1" height="1" fill="#615E70" />
<rect x="9" y="33" width="1" height="1" fill="#615E70" />
<rect x="10" y="33" width="1" height="1" fill="#615E70" />
<rect x="13" y="33" width="1" height="1" fill="#F7ECD5" />
<rect x="14" y="33" width="1" height="1" fill="#F7ECD5" />
<rect x="24" y="33" width="1" height="1" fill="#3E4652" />
<rect x="25" y="33" width="1" height="1" fill="#3E4652" />
<rect x="26" y="33" width="1" height="1" fill="#3E4652" />
<rect x="27" y="33" width="1" height="1" fill="#3E4652" />
<rect x="28" y="33" width="1" height="1" fill="#3E4652" />
<rect x="29" y="33" width="1" height="1" fill="#252329" />
<rect x="30" y="33" width="1" height="1" fill="#252329" />
<rect x="31" y="33" width="1" height="1" fill="#252329" />
<rect x="32" y="33" width="1" height="1" fill="#252329" />
<rect x="7" y="34" width="1" height="1" fill="#615E70" />
<rect x="8" y="34" width="1" height="1" fill="#615E70" />
<rect x="9" y="34" width="1" height="1" fill="#615E70" />
<rect x="13" y="34" width="1" height="1" fill="#F7ECD5" />
<rect x="14" y="34" width="1" height="1" fill="#F7ECD5" />
<rect x="25" y="34" width="1" height="1" fill="#3E4652" />
<rect x="26" y="34" width="1" height="1" fill="#3E4652" />
<rect x="27" y="34" width="1" height="1" fill="#3E4652" />
<rect x="28" y="34" width="1" height="1" fill="#3E4652" />
<rect x="29" y="34" width="1" height="1" fill="#3E4652" />
<rect x="30" y="34" width="1" height="1" fill="#3E4652" />
<rect x="31" y="34" width="1" height="1" fill="#3E4652" />
<rect x="6" y="35" width="1" height="1" fill="#615E70" />
<rect x="7" y="35" width="1" height="1" fill="#615E70" />
<rect x="8" y="35" width="1" height="1" fill="#615E70" />
<rect x="13" y="35" width="1" height="1" fill="#F7ECD5" />
<rect x="14" y="35" width="1" height="1" fill="#F7ECD5" />
<rect x="26" y="35" width="1" height="1" fill="#3E4652" />
<rect x="27" y="35" width="1" height="1" fill="#3E4652" />
<rect x="28" y="35" width="1" height="1" fill="#3E4652" />
<rect x="29" y="35" width="1" height="1" fill="#3E4652" />
<rect x="30" y="35" width="1" height="1" fill="#3E4652" />
<rect x="31" y="35" width="1" height="1" fill="#3E4652" />
<rect x="32" y="35" width="1" height="1" fill="#3E4652" />
<rect x="33" y="35" width="1" height="1" fill="#3E4652" />
<rect x="34" y="35" width="1" height="1" fill="#3E4652" />
<rect x="6" y="36" width="1" height="1" fill="#615E70" />
<rect x="7" y="36" width="1" height="1" fill="#615E70" />
<rect x="13" y="36" width="1" height="1" fill="#F7ECD5" />
<rect x="14" y="36" width="1" height="1" fill="#F7ECD5" />
<rect x="15" y="36" width="1" height="1" fill="#F7ECD5" />
<rect x="28" y="36" width="1" height="1" fill="#3E4652" />
<rect x="29" y="36" width="1" height="1" fill="#3E4652" />
<rect x="30" y="36" width="1" height="1" fill="#3E4652" />
<rect x="31" y="36" width="1" height="1" fill="#3E4652" />
<rect x="32" y="36" width="1" height="1" fill="#3E4652" />
<rect x="33" y="36" width="1" height="1" fill="#3E4652" />
</svg>