<?xml version="1.0" encoding="UTF-8" ?>
<svg version="1.1" width="40" height="40" xmlns="http://www.w3.org/2000/svg" shape-rendering="crispEdges">
<rect x="29" y="18" width="1" height="1" fill="#BDB3AC" />
<rect x="30" y="18" width="1" height="1" fill="#F7ECD5" />
<rect x="31" y="18" width="1" height="1" fill="#F7ECD5" />
<rect x="32" y="18" width="1" height="1" fill="#F7ECD5" />
<rect x="33" y="18" width="1" height="1" fill="#BDB3AC" />
<rect x="28" y="19" width="1" height="1" fill="#BDB3AC" />
<rect x="29" y="19" width="1" height="1" fill="#F7ECD5" />
<rect x="30" y="19" width="1" height="1" fill="#F7ECD5" />
<rect x="31" y="19" width="1" height="1" fill="#F7ECD5" />
<rect x="32" y="19" width="1" height="1" fill="#F7ECD5" />
<rect x="33" y="19" width="1" height="1" fill="#F7ECD5" />
<rect x="34" y="19" width="1" height="1" fill="#BDB3AC" />
<rect x="27" y="20" width="1" height="1" fill="#615E70" />
<rect x="28" y="20" width="1" height="1" fill="#F7ECD5" />
<rect x="29" y="20" width="1" height="1" fill="#F7ECD5" />
<rect x="30" y="20" width="1" height="1" fill="#F7ECD5" />
<rect x="31" y="20" width="1" height="1" fill="#F7ECD5" />
<rect x="32" y="20" width="1" height="1" fill="#615E70" />
<rect x="33" y="20" width="1" height="1" fill="#615E70" />
<rect x="34" y="20" width="1" height="1" fill="#F7ECD5" />
<rect x="28" y="21" width="1" height="1" fill="#3B3B4D" />
<rect x="29" y="21" width="1" height="1" fill="#F7ECD5" />
<rect x="30" y="21" width="1" height="1" fill="#615E70" />
<rect x="31" y="21" width="1" height="1" fill="#3B3B4D" />
<rect x="32" y="21" width="1" height="1" fill="#3B3B4D" />
<rect x="33" y="21" width="1" height="1" fill="#F7ECD5" />
<rect x="34" y="21" width="1" height="1" fill="#F7ECD5" />
<rect x="28" y="22" width="1" height="1" fill="#3B3B4D" />
<rect x="29" y="22" width="1" height="1" fill="#F7ECD5" />
<rect x="30" y="22" width="1" height="1" fill="#F7ECD5" />
<rect x="31" y="22" width="1" height="1" fill="#3B3B4D" />
<rect x="32" y="22" width="1" height="1" fill="#3B3B4D" />
<rect x="33" y="22" width="1" height="1" fill="#F7ECD5" />
<rect x="34" y="22" width="1" height="1" fill="#F7ECD5" />
<rect x="28" y="23" width="1" height="1" fill="#F7ECD5" />
<rect x="29" y="23" width="1" height="1" fill="#615E70" />
<rect x="30" y="23" width="1" height="1" fill="#F7ECD5" />
<rect x="31" y="23" width="1" height="1" fill="#F7ECD5" />
<rect x="32" y="23" width="1" height="1" fill="#F7ECD5" />
<rect x="33" y="23" width="1" height="1" fill="#F7ECD5" />
<rect x="34" y="23" width="1" height="1" fill="#BDB3AC" />
<rect x="28" y="24" width="1" height="1" fill="#BDB3AC" />
<rect x="29" y="24" width="1" height="1" fill="#F7ECD5" />
<rect x="30" y="24" width="1" height="1" fill="#F7ECD5" />
<rect x="31" y="24" width="1" height="1" fill="#F7ECD5" />
<rect x="32" y="24" width="1" height="1" fill="#BDB3AC" />
<rect x="33" y="24" width="1" height="1" fill="#BDB3AC" />
<rect x="29" y="25" width="1" height="1" fill="#F7ECD5" />
<rect x="30" y="25" width="1" height="1" fill="#BDB3AC" />
<rect x="31" y="25" width="1" height="1" fill="#F7ECD5" />
<rect x="32" y="25" width="1" height="1" fill="#615E70" />
<rect x="33" y="25" width="1" height="1" fill="#BDB3AC" />
<rect x="34" y="25" width="1" height="1" fill="#BDB3AC" />
<rect x="35" y="25" width="1" height="1" fill="#BDB3AC" />
<rect x="30" y="26" width="1" height="1" fill="#F7ECD5" />
<rect x="31" y="26" width="1" height="1" fill="#F7ECD5" />
<rect x="32" y="26" width="1" height="1" fill="#F7ECD5" />
<rect x="33" y="26" width="1" height="1" fill="#F7ECD5" />
<rect x="34" y="26" width="1" height="1" fill="#BDB3AC" />
<rect x="35" y="26" width="1" height="1" fill="#F7ECD5" />
<rect x="36" y="26" width="1" height="1" fill="#F7ECD5" />
<rect x="29" y="27" width="1" height="1" fill="#3B3B4D" />
<rect x="30" y="27" width="1" height="1" fill="#BDB3AC" />
<rect x="31" y="27" width="1" height="1" fill="#F7ECD5" />
<rect x="32" y="27" width="1" height="1" fill="#BDB3AC" />
<rect x="33" y="27" width="1" height="1" fill="#615E70" />
<rect x="34" y="27" width="1" height="1" fill="#BDB3AC" />
<rect x="35" y="27" width="1" height="1" fill="#F7ECD5" />
<rect x="36" y="27" width="1" height="1" fill="#F7ECD5" />
<rect x="37" y="27" width="1" height="1" fill="#F7ECD5" />
<rect x="28" y="28" width="1" height="1" fill="#3B3B4D" />
<rect x="29" y="28" width="1" height="1" fill="#3B3B4D" />
<rect x="30" y="28" width="1" height="1" fill="#F7ECD5" />
<rect x="31" y="28" width="1" height="1" fill="#F7ECD5" />
<rect x="32" y="28" width="1" height="1" fill="#F7ECD5" />
<rect x="33" y="28" width="1" height="1" fill="#F7ECD5" />
<rect x="34" y="28" width="1" height="1" fill="#BDB3AC" />
<rect x="35" y="28" width="1" height="1" fill="#F7ECD5" />
<rect x="36" y="28" width="1" height="1" fill="#F7ECD5" />
<rect x="37" y="28" width="1" height="1" fill="#F7ECD5" />
<rect x="28" y="29" width="1" height="1" fill="#3B3B4D" />
<rect x="29" y="29" width="1" height="1" fill="#3B3B4D" />
<rect x="30" y="29" width="1" height="1" fill="#BDB3AC" />
<rect x="31" y="29" width="1" height="1" fill="#F7ECD5" />
<rect x="32" y="29" width="1" height="1" fill="#BDB3AC" />
<rect x="33" y="29" width="1" height="1" fill="#BDB3AC" />
<rect x="34" y="29" width="1" height="1" fill="#F7ECD5" />
<rect x="35" y="29" width="1" height="1" fill="#F7ECD5" />
<rect x="36" y="29" width="1" height="1" fill="#F7ECD5" />
<rect x="27" y="30" width="1" height="1" fill="#3B3B4D" />
<rect x="28" y="30" width="1" height="1" fill="#3B3B4D" />
<rect x="29" y="30" width="1" height="1" fill="#3B3B4D" />
<rect x="30" y="30" width="1" height="1" fill="#F7ECD5" />
<rect x="31" y="30" width="1" height="1" fill="#F7ECD5" />
<rect x="32" y="30" width="1" height="1" fill="#BDB3AC" />
<rect x="33" y="30" width="1" height="1" fill="#F7ECD5" />
<rect x="34" y="30" width="1" height="1" fill="#F7ECD5" />
<rect x="35" y="30" width="1" height="1" fill="#F7ECD5" />
<rect x="36" y="30" width="1" height="1" fill="#F7ECD5" />
<rect x="37" y="30" width="1" height="1" fill="#252329" />
<rect x="38" y="30" width="1" height="1" fill="#252329" />
<rect x="11" y="31" width="1" height="1" fill="#3E4652" />
<rect x="26" y="31" width="1" height="1" fill="#3B3B4D" />
<rect x="27" y="31" width="1" height="1" fill="#3B3B4D" />
<rect x="28" y="31" width="1" height="1" fill="#3B3B4D" />
<rect x="29" y="31" width="1" height="1" fill="#252329" />
<rect x="30" y="31" width="1" height="1" fill="#252329" />
<rect x="31" y="31" width="1" height="1" fill="#252329" />
<rect x="32" y="31" width="1" height="1" fill="#615E70" />
<rect x="33" y="31" width="1" height="1" fill="#F7ECD5" />
<rect x="34" y="31" width="1" height="1" fill="#F7ECD5" />
<rect x="35" y="31" width="1" height="1" fill="#252329" />
<rect x="11" y="32" width="1" height="1" fill="#3E4652" />
<rect x="12" y="32" width="1" height="1" fill="#3E4652" />
<rect x="23" y="32" width="1" height="1" fill="#252329" />
<rect x="24" y="32" width="1" height="1" fill="#252329" />
<rect x="25" y="32" width="1" height="1" fill="#252329" />
<rect x="26" y="32" width="1" height="1" fill="#252329" />
<rect x="27" y="32" width="1" height="1" fill="#252329" />
<rect x="28" y="32" width="1" height="1" fill="#252329" />
<rect x="31" y="32" width="1" height="1" fill="#615E70" />
<rect x="32" y="32" width="1" height="1" fill="#BDB3AC" />
<rect x="33" y="32" width="1" height="1" fill="#BDB3AC" />
<rect x="11" y="33" width="1" height="1" fill="#3E4652" />
<rect x="12" y="33" width="1" height="1" fill="#3E4652" />
<rect x="16" y="33" width="1" height="1" fill="#252329" />
<rect x="17" y="33" width="1" height="1" fill="#252329" />
<rect x="18" y="33" width="1" height="1" fill="#252329" />
<rect x="19" y="33" width="1" height="1" fill="#252329" />
<rect x="20" y="33" width="1" height="1" fill="#252329" />
<rect x="21" y="33" width="1" height="1" fill="#252329" />
<rect x="22" y="33" width="1" height="1" fill="#252329" />
<rect x="30" y="33" width="1" height="1" fill="#F7ECD5" />
<rect x="31" y="33" width="1" height="1" fill="#F7ECD5" />
<rect x="32" y="33" width="1" height="1" fill="#968C94" />
<rect x="33" y="33" width="1" height="1" fill="#968C94" />
<rect x="34" y="33" width="1" height="1" fill="#615E70" />
<rect x="9" y="34" width="1" height="1" fill="#252329" />
<rect x="10" y="34" width="1" height="1" fill="#252329" />
<rect x="11" y="34" width="1" height="1" fill="#252329" />
<rect x="12" y="34" width="1" height="1" fill="#252329" />
<rect x="13" y="34" width="1" height="1" fill="#252329" />
<rect x="14" y="34" width="1" height="1" fill="#252329" />
<rect x="15" y="34" width="1" height="1" fill="#252329" />
<rect x="28" y="34" width="1" height="1" fill="#F7ECD5" />
<rect x="29" y="34" width="1" height="1" fill="#F7ECD5" />
<rect x="30" y="34" width="1" height="1" fill="#F7ECD5" />
<rect x="31" y="34" width="1" height="1" fill="#F7ECD5" />
<rect x="32" y="34" width="1" height="1" fill="#968C94" />
<rect x="33" y="34" width="1" height="1" fill="#615E70" />
<rect x="34" y="34" width="1" height="1" fill="#615E70" />
<rect x="10" y="35" width="1" height="1" fill="#3E4652" />
<rect x="11" y="35" width="1" height="1" fill="#3E4652" />
<rect x="12" y="35" width="1" height="1" fill="#3E4652" />
<rect x="13" y="35" width="1" height="1" fill="#3E4652" />
<rect x="14" y="35" width="1" height="1" fill="#3E4652" />
<rect x="28" y="35" width="1" height="1" fill="#F7ECD5" />
<rect x="29" y="35" width="1" height="1" fill="#F7ECD5" />
<rect x="30" y="35" width="1" height="1" fill="#F7ECD5" />
<rect x="31" y="35" width="1" height="1" fill="#615E70" />
<rect x="32" y="35" width="1" height="1" fill="#615E70" />
<rect x="33" y="35" width="1" height="1" fill="#615E70" />
<rect x="34" y="35" width="1" height="1" fill="#615E70" />
<rect x="9" y="36" width="1" height="1" fill="#3E4652" />
<rect x="10" y="36" width="1" height="1" fill="#3E4652" />
<rect x="11" y="36" width="1" height="1" fill="#3E4652" />
<rect x="12" y="36" width="1" height="1" fill="#3E4652" />
<rect x="13" y="36" width="1" height="1" fill="#3E4652" />
<rect x="14" y="36" width="1" height="1" fill="#3E4652" />
<rect x="15" y="36" width="1" height="1" fill="#3E4652" />
<rect x="28" y="36" width="1" height="1" fill="#F7ECD5" />
<rect x="29" y="36" width="1" height="1" fill="#F7ECD5" />
<rect x="33" y="36" width="1" height="1" fill="#615E70" />
<rect x="34" y="36" width="1" height="1" fill="#615E70" />
<rect x="7" y="37" width="1" height="1" fill="#3E4652" />
<rect x="8" y="37" width="1" height="1" fill="#3E4652" />
<rect x="9" y="37" width="1" height="1" fill="#3E4652" />
<rect x="10" y="37" width="1" height="1" fill="#3E4652" />
<rect x="11" y="37" width="1" height="1" fill="#3E4652" />
<rect x="12" y="37" width="1" height="1" fill="#3E4652" />
<rect x="13" y="37" width="1" height="1" fill="#3E4652" />
<rect x="14" y="37" width="1" height="1" fill="#3E4652" />
<rect x="28" y="37" width="1" height="1" fill="#F7ECD5" />
<rect x="29" y="37" width="1" height="1" fill="#F7ECD5" />
<rect x="33" y="37" width="1" height="1" fill="#615E70" />
<rect x="34" y="37" width="1" height="1" fill="#615E70" />
<rect x="35" y="37" width="1" height="1" fill="#615E70" />
<rect x="8" y="38" width="1" height="1" fill="#3E4652" />
<rect x="9" y="38" width="1" height="1" fill="#3E4652" />
<rect x="10" y="38" width="1" height="1" fill="#3E4652" />
<rect x="11" y="38" width="1" height="1" fill="#3E4652" />
<rect x="12" y="38" width="1" height="1" fill="#3E4652" />
<rect x="28" y="38" width="1" height="1" fill="#F7ECD5" />
<rect x="29" y="38" width="1" height="1" fill="#F7ECD5" />
<rect x="34" y="38" width="1" height="1" fill="#615E70" />
<rect x="35" y="38" width="1" height="1" fill="#615E70" />
<rect x="36" y="38" width="1" height="1" fill="#615E70" />
<rect x="27" y="39" width="1" height="1" fill="#F7ECD5" />
<rect x="28" y="39" width="1" height="1" fill="#F7ECD5" />
<rect x="29" y="39" width="1" height="1" fill="#F7ECD5" />
<rect x="35" y="39" width="1" height="1" fill="#615E70" />
<rect x="36" y="39" width="1" height="1" fill="#615E70" />
</svg>