<?xml version="1.0" encoding="UTF-8" ?>
<svg version="1.1" width="32" height="32" xmlns="http://www.w3.org/2000/svg" shape-rendering="crispEdges">
<rect x="18" y="24" width="1" height="1" fill="#BDB3AC" />
<rect x="19" y="24" width="1" height="1" fill="#F7ECD5" />
<rect x="20" y="24" width="1" height="1" fill="#F7ECD5" />
<rect x="21" y="24" width="1" height="1" fill="#F7ECD5" />
<rect x="22" y="24" width="1" height="1" fill="#BDB3AC" />
<rect x="15" y="25" width="1" height="1" fill="#F7ECD5" />
<rect x="16" y="25" width="1" height="1" fill="#615E70" />
<rect x="17" y="25" width="1" height="1" fill="#F7ECD5" />
<rect x="18" y="25" width="1" height="1" fill="#F7ECD5" />
<rect x="19" y="25" width="1" height="1" fill="#F7ECD5" />
<rect x="20" y="25" width="1" height="1" fill="#F7ECD5" />
<rect x="21" y="25" width="1" height="1" fill="#F7ECD5" />
<rect x="22" y="25" width="1" height="1" fill="#F7ECD5" />
<rect x="23" y="25" width="1" height="1" fill="#F7ECD5" />
<rect x="14" y="26" width="1" height="1" fill="#615E70" />
<rect x="15" y="26" width="1" height="1" fill="#F7ECD5" />
<rect x="16" y="26" width="1" height="1" fill="#BDB3AC" />
<rect x="17" y="26" width="1" height="1" fill="#F7ECD5" />
<rect x="18" y="26" width="1" height="1" fill="#F7ECD5" />
<rect x="19" y="26" width="1" height="1" fill="#F7ECD5" />
<rect x="20" y="26" width="1" height="1" fill="#F7ECD5" />
<rect x="21" y="26" width="1" height="1" fill="#F7ECD5" />
<rect x="22" y="26" width="1" height="1" fill="#F7ECD5" />
<rect x="23" y="26" width="1" height="1" fill="#F7ECD5" />
<rect x="13" y="27" width="1" height="1" fill="#615E70" />
<rect x="14" y="27" width="1" height="1" fill="#615E70" />
<rect x="15" y="27" width="1" height="1" fill="#F7ECD5" />
<rect x="16" y="27" width="1" height="1" fill="#F7ECD5" />
<rect x="17" y="27" width="1" height="1" fill="#615E70" />
<rect x="18" y="27" width="1" height="1" fill="#F7ECD5" />
<rect x="19" y="27" width="1" height="1" fill="#F7ECD5" />
<rect x="20" y="27" width="1" height="1" fill="#615E70" />
<rect x="21" y="27" width="1" height="1" fill="#615E70" />
<rect x="22" y="27" width="1" height="1" fill="#F7ECD5" />
<rect x="23" y="27" width="1" height="1" fill="#F7ECD5" />
<rect x="13" y="28" width="1" height="1" fill="#615E70" />
<rect x="14" y="28" width="1" height="1" fill="#615E70" />
<rect x="15" y="28" width="1" height="1" fill="#F7ECD5" />
<rect x="16" y="28" width="1" height="1" fill="#BDB3AC" />
<rect x="17" y="28" width="1" height="1" fill="#3B3B4D" />
<rect x="18" y="28" width="1" height="1" fill="#F7ECD5" />
<rect x="19" y="28" width="1" height="1" fill="#F7ECD5" />
<rect x="20" y="28" width="1" height="1" fill="#3B3B4D" />
<rect x="21" y="28" width="1" height="1" fill="#3B3B4D" />
<rect x="22" y="28" width="1" height="1" fill="#F7ECD5" />
<rect x="23" y="28" width="1" height="1" fill="#F7ECD5" />
<rect x="10" y="29" width="1" height="1" fill="#3B3B4D" />
<rect x="11" y="29" width="1" height="1" fill="#3B3B4D" />
<rect x="12" y="29" width="1" height="1" fill="#3B3B4D" />
<rect x="13" y="29" width="1" height="1" fill="#3B3B4D" />
<rect x="14" y="29" width="1" height="1" fill="#3B3B4D" />
<rect x="15" y="29" width="1" height="1" fill="#F7ECD5" />
<rect x="16" y="29" width="1" height="1" fill="#615E70" />
<rect x="17" y="29" width="1" height="1" fill="#F7ECD5" />
<rect x="18" y="29" width="1" height="1" fill="#615E70" />
<rect x="19" y="29" width="1" height="1" fill="#F7ECD5" />
<rect x="20" y="29" width="1" height="1" fill="#F7ECD5" />
<rect x="21" y="29" width="1" height="1" fill="#F7ECD5" />
<rect x="22" y="29" width="1" height="1" fill="#F7ECD5" />
<rect x="23" y="29" width="1" height="1" fill="#BDB3AC" />
<rect x="5" y="30" width="1" height="1" fill="#615E70" />
<rect x="6" y="30" width="1" height="1" fill="#968C94" />
<rect x="7" y="30" width="1" height="1" fill="#968C94" />
<rect x="8" y="30" width="1" height="1" fill="#F7ECD5" />
<rect x="9" y="30" width="1" height="1" fill="#F7ECD5" />
<rect x="10" y="30" width="1" height="1" fill="#F7ECD5" />
<rect x="11" y="30" width="1" height="1" fill="#F7ECD5" />
<rect x="12" y="30" width="1" height="1" fill="#F7ECD5" />
<rect x="13" y="30" width="1" height="1" fill="#F7ECD5" />
<rect x="14" y="30" width="1" height="1" fill="#F7ECD5" />
<rect x="15" y="30" width="1" height="1" fill="#BDB3AC" />
<rect x="16" y="30" width="1" height="1" fill="#615E70" />
<rect x="17" y="30" width="1" height="1" fill="#BDB3AC" />
<rect x="18" y="30" width="1" height="1" fill="#F7ECD5" />
<rect x="19" y="30" width="1" height="1" fill="#F7ECD5" />
<rect x="20" y="30" width="1" height="1" fill="#F7ECD5" />
<rect x="21" y="30" width="1" height="1" fill="#BDB3AC" />
<rect x="22" y="30" width="1" height="1" fill="#BDB3AC" />
<rect x="23" y="30" width="1" height="1" fill="#F7ECD5" />
<rect x="24" y="30" width="1" height="1" fill="#F7ECD5" />
<rect x="25" y="30" width="1" height="1" fill="#F7ECD5" />
<rect x="26" y="30" width="1" height="1" fill="#F7ECD5" />
<rect x="27" y="30" width="1" height="1" fill="#F7ECD5" />
<rect x="28" y="30" width="1" height="1" fill="#F7ECD5" />
<rect x="3" y="31" width="1" height="1" fill="#252329" />
<rect x="4" y="31" width="1" height="1" fill="#252329" />
<rect x="5" y="31" width="1" height="1" fill="#252329" />
<rect x="6" y="31" width="1" height="1" fill="#252329" />
<rect x="7" y="31" width="1" height="1" fill="#252329" />
<rect x="8" y="31" width="1" height="1" fill="#252329" />
<rect x="9" y="31" width="1" height="1" fill="#252329" />
<rect x="10" y="31" width="1" height="1" fill="#252329" />
<rect x="11" y="31" width="1" height="1" fill="#252329" />
<rect x="12" y="31" width="1" height="1" fill="#252329" />
<rect x="13" y="31" width="1" height="1" fill="#252329" />
<rect x="14" y="31" width="1" height="1" fill="#252329" />
<rect x="15" y="31" width="1" height="1" fill="#252329" />
<rect x="16" y="31" width="1" height="1" fill="#252329" />
<rect x="17" y="31" width="1" height="1" fill="#252329" />
<rect x="18" y="31" width="1" height="1" fill="#F7ECD5" />
<rect x="19" y="31" width="1" height="1" fill="#BDB3AC" />
<rect x="20" y="31" width="1" height="1" fill="#F7ECD5" />
<rect x="21" y="31" width="1" height="1" fill="#F7ECD5" />
<rect x="22" y="31" width="1" height="1" fill="#F7ECD5" />
<rect x="23" y="31" width="1" height="1" fill="#F7ECD5" />
<rect x="24" y="31" width="1" height="1" fill="#F7ECD5" />
<rect x="25" y="31" width="1" height="1" fill="#F7ECD5" />
<rect x="26" y="31" width="1" height="1" fill="#F7ECD5" />
<rect x="27" y="31" width="1" height="1" fill="#F7ECD5" />
<rect x="28" y="31" width="1" height="1" fill="#F7ECD5" />
<rect x="29" y="31" width="1" height="1" fill="#3E4652" />
<rect x="30" y="31" width="1" height="1" fill="#3E4652" />
</svg>