<?xml version="1.0" encoding="UTF-8" ?>
<svg version="1.1" width="23" height="33" xmlns="http://www.w3.org/2000/svg" shape-rendering="crispEdges">
<rect x="5" y="1" width="1" height="1" fill="#3E4652" />
<rect x="4" y="2" width="1" height="1" fill="#3E4652" />
<rect x="5" y="2" width="1" height="1" fill="#3E4652" />
<rect x="4" y="3" width="1" height="1" fill="#3E4652" />
<rect x="5" y="3" width="1" height="1" fill="#3E4652" />
<rect x="6" y="3" width="1" height="1" fill="#3E4652" />
<rect x="4" y="4" width="1" height="1" fill="#3E4652" />
<rect x="5" y="4" width="1" height="1" fill="#3E4652" />
<rect x="6" y="4" width="1" height="1" fill="#3E4652" />
<rect x="9" y="4" width="1" height="1" fill="#252329" />
<rect x="4" y="5" width="1" height="1" fill="#3E4652" />
<rect x="5" y="5" width="1" height="1" fill="#3E4652" />
<rect x="6" y="5" width="1" height="1" fill="#3E4652" />
<rect x="7" y="5" width="1" height="1" fill="#3E4652" />
<rect x="9" y="5" width="1" height="1" fill="#252329" />
<rect x="4" y="6" width="1" height="1" fill="#3E4652" />
<rect x="5" y="6" width="1" height="1" fill="#3E4652" />
<rect x="6" y="6" width="1" height="1" fill="#3E4652" />
<rect x="7" y="6" width="1" height="1" fill="#3E4652" />
<rect x="8" y="6" width="1" height="1" fill="#3E4652" />
<rect x="9" y="6" width="1" height="1" fill="#252329" />
<rect x="10" y="6" width="1" height="1" fill="#3E4652" />
<rect x="11" y="6" width="1" height="1" fill="#3E4652" />
<rect x="12" y="6" width="1" height="1" fill="#3E4652" />
<rect x="4" y="7" width="1" height="1" fill="#3E4652" />
<rect x="5" y="7" width="1" height="1" fill="#3E4652" />
<rect x="6" y="7" width="1" height="1" fill="#3E4652" />
<rect x="7" y="7" width="1" height="1" fill="#3E4652" />
<rect x="8" y="7" width="1" height="1" fill="#3E4652" />
<rect x="9" y="7" width="1" height="1" fill="#252329" />
<rect x="10" y="7" width="1" height="1" fill="#3E4652" />
<rect x="11" y="7" width="1" height="1" fill="#3E4652" />
<rect x="5" y="8" width="1" height="1" fill="#3E4652" />
<rect x="6" y="8" width="1" height="1" fill="#3E4652" />
<rect x="7" y="8" width="1" height="1" fill="#3E4652" />
<rect x="9" y="8" width="1" height="1" fill="#252329" />
<rect x="5" y="9" width="1" height="1" fill="#3E4652" />
<rect x="6" y="9" width="1" height="1" fill="#3E4652" />
<rect x="9" y="9" width="1" height="1" fill="#252329" />
<rect x="13" y="9" width="1" height="1" fill="#BDB3AC" />
<rect x="14" y="9" width="1" height="1" fill="#F7ECD5" />
<rect x="15" y="9" width="1" height="1" fill="#F7ECD5" />
<rect x="16" y="9" width="1" height="1" fill="#F7ECD5" />
<rect x="17" y="9" width="1" height="1" fill="#BDB3AC" />
<rect x="6" y="10" width="1" height="1" fill="#3E4652" />
<rect x="9" y="10" width="1" height="1" fill="#252329" />
<rect x="12" y="10" width="1" height="1" fill="#BDB3AC" />
<rect x="13" y="10" width="1" height="1" fill="#F7ECD5" />
<rect x="14" y="10" width="1" height="1" fill="#F7ECD5" />
<rect x="15" y="10" width="1" height="1" fill="#F7ECD5" />
<rect x="16" y="10" width="1" height="1" fill="#F7ECD5" />
<rect x="17" y="10" width="1" height="1" fill="#F7ECD5" />
<rect x="18" y="10" width="1" height="1" fill="#BDB3AC" />
<rect x="9" y="11" width="1" height="1" fill="#252329" />
<rect x="12" y="11" width="1" height="1" fill="#F7ECD5" />
<rect x="13" y="11" width="1" height="1" fill="#F7ECD5" />
<rect x="14" y="11" width="1" height="1" fill="#F7ECD5" />
<rect x="15" y="11" width="1" height="1" fill="#F7ECD5" />
<rect x="16" y="11" width="1" height="1" fill="#F7ECD5" />
<rect x="17" y="11" width="1" height="1" fill="#F7ECD5" />
<rect x="18" y="11" width="1" height="1" fill="#F7ECD5" />
<rect x="9" y="12" width="1" height="1" fill="#252329" />
<rect x="11" y="12" width="1" height="1" fill="#615E70" />
<rect x="12" y="12" width="1" height="1" fill="#F7ECD5" />
<rect x="13" y="12" width="1" height="1" fill="#615E70" />
<rect x="14" y="12" width="1" height="1" fill="#3B3B4D" />
<rect x="15" y="12" width="1" height="1" fill="#3B3B4D" />
<rect x="16" y="12" width="1" height="1" fill="#615E70" />
<rect x="17" y="12" width="1" height="1" fill="#F7ECD5" />
<rect x="18" y="12" width="1" height="1" fill="#F7ECD5" />
<rect x="9" y="13" width="1" height="1" fill="#252329" />
<rect x="12" y="13" width="1" height="1" fill="#F7ECD5" />
<rect x="13" y="13" width="1" height="1" fill="#F7ECD5" />
<rect x="14" y="13" width="1" height="1" fill="#3B3B4D" />
<rect x="15" y="13" width="1" height="1" fill="#3B3B4D" />
<rect x="16" y="13" width="1" height="1" fill="#F7ECD5" />
<rect x="17" y="13" width="1" height="1" fill="#F7ECD5" />
<rect x="18" y="13" width="1" height="1" fill="#F7ECD5" />
<rect x="9" y="14" width="1" height="1" fill="#252329" />
<rect x="12" y="14" width="1" height="1" fill="#615E70" />
<rect x="13" y="14" width="1" height="1" fill="#F7ECD5" />
<rect x="14" y="14" width="1" height="1" fill="#F7ECD5" />
<rect x="15" y="14" width="1" height="1" fill="#F7ECD5" />
<rect x="16" y="14" width="1" height="1" fill="#F7ECD5" />
<rect x="17" y="14" width="1" height="1" fill="#F7ECD5" />
<rect x="18" y="14" width="1" height="1" fill="#BDB3AC" />
<rect x="9" y="15" width="1" height="1" fill="#252329" />
<rect x="12" y="15" width="1" height="1" fill="#F7ECD5" />
<rect x="13" y="15" width="1" height="1" fill="#F7ECD5" />
<rect x="14" y="15" width="1" height="1" fill="#F7ECD5" />
<rect x="15" y="15" width="1" height="1" fill="#F7ECD5" />
<rect x="16" y="15" width="1" height="1" fill="#BDB3AC" />
<rect x="17" y="15" width="1" height="1" fill="#BDB3AC" />
<rect x="9" y="16" width="1" height="1" fill="#252329" />
<rect x="12" y="16" width="1" height="1" fill="#BDB3AC" />
<rect x="13" y="16" width="1" height="1" fill="#F7ECD5" />
<rect x="14" y="16" width="1" height="1" fill="#BDB3AC" />
<rect x="15" y="16" width="1" height="1" fill="#F7ECD5" />
<rect x="16" y="16" width="1" height="1" fill="#615E70" />
<rect x="17" y="16" width="1" height="1" fill="#615E70" />
<rect x="10" y="17" width="1" height="1" fill="#252329" />
<rect x="14" y="17" width="1" height="1" fill="#F7ECD5" />
<rect x="15" y="17" width="1" height="1" fill="#615E70" />
<rect x="16" y="17" width="1" height="1" fill="#615E70" />
<rect x="17" y="17" width="1" height="1" fill="#BDB3AC" />
<rect x="18" y="17" width="1" height="1" fill="#BDB3AC" />
<rect x="19" y="17" width="1" height="1" fill="#F7ECD5" />
<rect x="20" y="17" width="1" height="1" fill="#F7ECD5" />
<rect x="10" y="18" width="1" height="1" fill="#252329" />
<rect x="14" y="18" width="1" height="1" fill="#F7ECD5" />
<rect x="15" y="18" width="1" height="1" fill="#F7ECD5" />
<rect x="16" y="18" width="1" height="1" fill="#F7ECD5" />
<rect x="17" y="18" width="1" height="1" fill="#F7ECD5" />
<rect x="18" y="18" width="1" height="1" fill="#F7ECD5" />
<rect x="19" y="18" width="1" height="1" fill="#F7ECD5" />
<rect x="20" y="18" width="1" height="1" fill="#F7ECD5" />
<rect x="21" y="18" width="1" height="1" fill="#F7ECD5" />
<rect x="10" y="19" width="1" height="1" fill="#3B3B4D" />
<rect x="11" y="19" width="1" height="1" fill="#3B3B4D" />
<rect x="14" y="19" width="1" height="1" fill="#BDB3AC" />
<rect x="15" y="19" width="1" height="1" fill="#F7ECD5" />
<rect x="16" y="19" width="1" height="1" fill="#BDB3AC" />
<rect x="17" y="19" width="1" height="1" fill="#BDB3AC" />
<rect x="18" y="19" width="1" height="1" fill="#615E70" />
<rect x="19" y="19" width="1" height="1" fill="#BDB3AC" />
<rect x="20" y="19" width="1" height="1" fill="#F7ECD5" />
<rect x="21" y="19" width="1" height="1" fill="#F7ECD5" />
<rect x="10" y="20" width="1" height="1" fill="#3B3B4D" />
<rect x="11" y="20" width="1" height="1" fill="#3B3B4D" />
<rect x="12" y="20" width="1" height="1" fill="#3B3B4D" />
<rect x="13" y="20" width="1" height="1" fill="#3B3B4D" />
<rect x="14" y="20" width="1" height="1" fill="#F7ECD5" />
<rect x="15" y="20" width="1" height="1" fill="#F7ECD5" />
<rect x="16" y="20" width="1" height="1" fill="#F7ECD5" />
<rect x="17" y="20" width="1" height="1" fill="#F7ECD5" />
<rect x="18" y="20" width="1" height="1" fill="#F7ECD5" />
<rect x="19" y="20" width="1" height="1" fill="#BDB3AC" />
<rect x="20" y="20" width="1" height="1" fill="#F7ECD5" />
<rect x="21" y="20" width="1" height="1" fill="#F7ECD5" />
<rect x="10" y="21" width="1" height="1" fill="#252329" />
<rect x="12" y="21" width="1" height="1" fill="#3B3B4D" />
<rect x="13" y="21" width="1" height="1" fill="#BDB3AC" />
<rect x="14" y="21" width="1" height="1" fill="#F7ECD5" />
<rect x="15" y="21" width="1" height="1" fill="#BDB3AC" />
<rect x="16" y="21" width="1" height="1" fill="#BDB3AC" />
<rect x="17" y="21" width="1" height="1" fill="#615E70" />
<rect x="18" y="21" width="1" height="1" fill="#BDB3AC" />
<rect x="20" y="21" width="1" height="1" fill="#F7ECD5" />
<rect x="21" y="21" width="1" height="1" fill="#F7ECD5" />
<rect x="10" y="22" width="1" height="1" fill="#252329" />
<rect x="13" y="22" width="1" height="1" fill="#F7ECD5" />
<rect x="14" y="22" width="1" height="1" fill="#F7ECD5" />
<rect x="15" y="22" width="1" height="1" fill="#F7ECD5" />
<rect x="16" y="22" width="1" height="1" fill="#F7ECD5" />
<rect x="17" y="22" width="1" height="1" fill="#F7ECD5" />
<rect x="18" y="22" width="1" height="1" fill="#BDB3AC" />
<rect x="20" y="22" width="1" height="1" fill="#F7ECD5" />
<rect x="21" y="22" width="1" height="1" fill="#F7ECD5" />
<rect x="10" y="23" width="1" height="1" fill="#252329" />
<rect x="15" y="23" width="1" height="1" fill="#615E70" />
<rect x="16" y="23" width="1" height="1" fill="#615E70" />
<rect x="20" y="23" width="1" height="1" fill="#F7ECD5" />
<rect x="21" y="23" width="1" height="1" fill="#F7ECD5" />
<rect x="10" y="24" width="1" height="1" fill="#252329" />
<rect x="14" y="24" width="1" height="1" fill="#F7ECD5" />
<rect x="15" y="24" width="1" height="1" fill="#F7ECD5" />
<rect x="16" y="24" width="1" height="1" fill="#F7ECD5" />
<rect x="17" y="24" width="1" height="1" fill="#968C94" />
<rect x="18" y="24" width="1" height="1" fill="#968C94" />
<rect x="20" y="24" width="1" height="1" fill="#F7ECD5" />
<rect x="21" y="24" width="1" height="1" fill="#F7ECD5" />
<rect x="10" y="25" width="1" height="1" fill="#252329" />
<rect x="14" y="25" width="1" height="1" fill="#F7ECD5" />
<rect x="15" y="25" width="1" height="1" fill="#F7ECD5" />
<rect x="16" y="25" width="1" height="1" fill="#F7ECD5" />
<rect x="17" y="25" width="1" height="1" fill="#F7ECD5" />
<rect x="18" y="25" width="1" height="1" fill="#968C94" />
<rect x="10" y="26" width="1" height="1" fill="#252329" />
<rect x="14" y="26" width="1" height="1" fill="#615E70" />
<rect x="15" y="26" width="1" height="1" fill="#615E70" />
<rect x="16" y="26" width="1" height="1" fill="#F7ECD5" />
<rect x="17" y="26" width="1" height="1" fill="#F7ECD5" />
<rect x="10" y="27" width="1" height="1" fill="#252329" />
<rect x="15" y="27" width="1" height="1" fill="#615E70" />
<rect x="16" y="27" width="1" height="1" fill="#F7ECD5" />
<rect x="17" y="27" width="1" height="1" fill="#F7ECD5" />
<rect x="10" y="28" width="1" height="1" fill="#252329" />
<rect x="15" y="28" width="1" height="1" fill="#615E70" />
<rect x="16" y="28" width="1" height="1" fill="#F7ECD5" />
<rect x="17" y="28" width="1" height="1" fill="#F7ECD5" />
<rect x="10" y="29" width="1" height="1" fill="#252329" />
<rect x="15" y="29" width="1" height="1" fill="#615E70" />
<rect x="16" y="29" width="1" height="1" fill="#F7ECD5" />
<rect x="17" y="29" width="1" height="1" fill="#F7ECD5" />
<rect x="18" y="29" width="1" height="1" fill="#F7ECD5" />
<rect x="10" y="30" width="1" height="1" fill="#252329" />
<rect x="15" y="30" width="1" height="1" fill="#615E70" />
<rect x="16" y="30" width="1" height="1" fill="#615E70" />
<rect x="17" y="30" width="1" height="1" fill="#F7ECD5" />
<rect x="18" y="30" width="1" height="1" fill="#F7ECD5" />
<rect x="10" y="31" width="1" height="1" fill="#252329" />
<rect x="15" y="31" width="1" height="1" fill="#615E70" />
<rect x="17" y="31" width="1" height="1" fill="#F7ECD5" />
<rect x="18" y="31" width="1" height="1" fill="#F7ECD5" />
<rect x="10" y="32" width="1" height="1" fill="#252329" />
<rect x="16" y="32" width="1" height="1" fill="#F7ECD5" />
<rect x="17" y="32" width="1" height="1" fill="#F7ECD5" />
<rect x="18" y="32" width="1" height="1" fill="#F7ECD5" />
</svg>