<?xml version="1.0" encoding="UTF-8" ?>
<svg version="1.1" width="40" height="40" xmlns="http://www.w3.org/2000/svg" shape-rendering="crispEdges">
<rect x="37" y="4" width="1" height="1" fill="#3E4652" />
<rect x="38" y="4" width="1" height="1" fill="#3E4652" />
<rect x="39" y="4" width="1" height="1" fill="#3E4652" />
<rect x="36" y="5" width="1" height="1" fill="#3E4652" />
<rect x="37" y="5" width="1" height="1" fill="#3E4652" />
<rect x="38" y="5" width="1" height="1" fill="#3E4652" />
<rect x="39" y="5" width="1" height="1" fill="#3E4652" />
<rect x="35" y="6" width="1" height="1" fill="#3E4652" />
<rect x="36" y="6" width="1" height="1" fill="#3E4652" />
<rect x="37" y="6" width="1" height="1" fill="#3E4652" />
<rect x="38" y="6" width="1" height="1" fill="#3E4652" />
<rect x="34" y="7" width="1" height="1" fill="#3E4652" />
<rect x="35" y="7" width="1" height="1" fill="#3E4652" />
<rect x="36" y="7" width="1" height="1" fill="#3E4652" />
<rect x="37" y="7" width="1" height="1" fill="#3E4652" />
<rect x="38" y="7" width="1" height="1" fill="#3E4652" />
<rect x="39" y="7" width="1" height="1" fill="#252329" />
<rect x="34" y="8" width="1" height="1" fill="#3E4652" />
<rect x="35" y="8" width="1" height="1" fill="#3E4652" />
<rect x="36" y="8" width="1" height="1" fill="#3E4652" />
<rect x="37" y="8" width="1" height="1" fill="#3E4652" />
<rect x="38" y="8" width="1" height="1" fill="#252329" />
<rect x="34" y="9" width="1" height="1" fill="#3E4652" />
<rect x="36" y="9" width="1" height="1" fill="#3E4652" />
<rect x="37" y="9" width="1" height="1" fill="#252329" />
<rect x="38" y="9" width="1" height="1" fill="#3E4652" />
<rect x="39" y="9" width="1" height="1" fill="#3E4652" />
<rect x="36" y="10" width="1" height="1" fill="#252329" />
<rect x="38" y="10" width="1" height="1" fill="#3E4652" />
<rect x="39" y="10" width="1" height="1" fill="#3E4652" />
<rect x="35" y="11" width="1" height="1" fill="#252329" />
<rect x="39" y="11" width="1" height="1" fill="#3E4652" />
<rect x="34" y="12" width="1" height="1" fill="#252329" />
<rect x="33" y="13" width="1" height="1" fill="#252329" />
<rect x="32" y="14" width="1" height="1" fill="#252329" />
<rect x="31" y="15" width="1" height="1" fill="#252329" />
<rect x="30" y="16" width="1" height="1" fill="#252329" />
<rect x="29" y="17" width="1" height="1" fill="#3B3B4D" />
<rect x="30" y="17" width="1" height="1" fill="#BDB3AC" />
<rect x="31" y="17" width="1" height="1" fill="#F7ECD5" />
<rect x="32" y="17" width="1" height="1" fill="#F7ECD5" />
<rect x="33" y="17" width="1" height="1" fill="#F7ECD5" />
<rect x="34" y="17" width="1" height="1" fill="#BDB3AC" />
<rect x="28" y="18" width="1" height="1" fill="#615E70" />
<rect x="29" y="18" width="1" height="1" fill="#BDB3AC" />
<rect x="30" y="18" width="1" height="1" fill="#F7ECD5" />
<rect x="31" y="18" width="1" height="1" fill="#F7ECD5" />
<rect x="32" y="18" width="1" height="1" fill="#F7ECD5" />
<rect x="33" y="18" width="1" height="1" fill="#615E70" />
<rect x="34" y="18" width="1" height="1" fill="#615E70" />
<rect x="35" y="18" width="1" height="1" fill="#BDB3AC" />
<rect x="27" y="19" width="1" height="1" fill="#252329" />
<rect x="28" y="19" width="1" height="1" fill="#3B3B4D" />
<rect x="29" y="19" width="1" height="1" fill="#3B3B4D" />
<rect x="30" y="19" width="1" height="1" fill="#F7ECD5" />
<rect x="31" y="19" width="1" height="1" fill="#615E70" />
<rect x="32" y="19" width="1" height="1" fill="#3B3B4D" />
<rect x="33" y="19" width="1" height="1" fill="#3B3B4D" />
<rect x="34" y="19" width="1" height="1" fill="#F7ECD5" />
<rect x="35" y="19" width="1" height="1" fill="#F7ECD5" />
<rect x="26" y="20" width="1" height="1" fill="#252329" />
<rect x="27" y="20" width="1" height="1" fill="#F7ECD5" />
<rect x="29" y="20" width="1" height="1" fill="#3B3B4D" />
<rect x="30" y="20" width="1" height="1" fill="#F7ECD5" />
<rect x="31" y="20" width="1" height="1" fill="#F7ECD5" />
<rect x="32" y="20" width="1" height="1" fill="#3B3B4D" />
<rect x="33" y="20" width="1" height="1" fill="#3B3B4D" />
<rect x="34" y="20" width="1" height="1" fill="#F7ECD5" />
<rect x="35" y="20" width="1" height="1" fill="#F7ECD5" />
<rect x="25" y="21" width="1" height="1" fill="#252329" />
<rect x="26" y="21" width="1" height="1" fill="#F7ECD5" />
<rect x="27" y="21" width="1" height="1" fill="#F7ECD5" />
<rect x="29" y="21" width="1" height="1" fill="#F7ECD5" />
<rect x="30" y="21" width="1" height="1" fill="#615E70" />
<rect x="31" y="21" width="1" height="1" fill="#F7ECD5" />
<rect x="32" y="21" width="1" height="1" fill="#F7ECD5" />
<rect x="33" y="21" width="1" height="1" fill="#F7ECD5" />
<rect x="34" y="21" width="1" height="1" fill="#F7ECD5" />
<rect x="35" y="21" width="1" height="1" fill="#F7ECD5" />
<rect x="24" y="22" width="1" height="1" fill="#252329" />
<rect x="26" y="22" width="1" height="1" fill="#F7ECD5" />
<rect x="27" y="22" width="1" height="1" fill="#F7ECD5" />
<rect x="29" y="22" width="1" height="1" fill="#F7ECD5" />
<rect x="30" y="22" width="1" height="1" fill="#F7ECD5" />
<rect x="31" y="22" width="1" height="1" fill="#F7ECD5" />
<rect x="32" y="22" width="1" height="1" fill="#F7ECD5" />
<rect x="33" y="22" width="1" height="1" fill="#F7ECD5" />
<rect x="34" y="22" width="1" height="1" fill="#F7ECD5" />
<rect x="35" y="22" width="1" height="1" fill="#BDB3AC" />
<rect x="23" y="23" width="1" height="1" fill="#252329" />
<rect x="26" y="23" width="1" height="1" fill="#F7ECD5" />
<rect x="27" y="23" width="1" height="1" fill="#F7ECD5" />
<rect x="28" y="23" width="1" height="1" fill="#F7ECD5" />
<rect x="29" y="23" width="1" height="1" fill="#BDB3AC" />
<rect x="30" y="23" width="1" height="1" fill="#F7ECD5" />
<rect x="31" y="23" width="1" height="1" fill="#BDB3AC" />
<rect x="32" y="23" width="1" height="1" fill="#F7ECD5" />
<rect x="33" y="23" width="1" height="1" fill="#BDB3AC" />
<rect x="34" y="23" width="1" height="1" fill="#BDB3AC" />
<rect x="22" y="24" width="1" height="1" fill="#252329" />
<rect x="27" y="24" width="1" height="1" fill="#F7ECD5" />
<rect x="28" y="24" width="1" height="1" fill="#F7ECD5" />
<rect x="29" y="24" width="1" height="1" fill="#F7ECD5" />
<rect x="30" y="24" width="1" height="1" fill="#BDB3AC" />
<rect x="31" y="24" width="1" height="1" fill="#615E70" />
<rect x="32" y="24" width="1" height="1" fill="#615E70" />
<rect x="21" y="25" width="1" height="1" fill="#252329" />
<rect x="27" y="25" width="1" height="1" fill="#BDB3AC" />
<rect x="28" y="25" width="1" height="1" fill="#F7ECD5" />
<rect x="29" y="25" width="1" height="1" fill="#F7ECD5" />
<rect x="30" y="25" width="1" height="1" fill="#F7ECD5" />
<rect x="31" y="25" width="1" height="1" fill="#BDB3AC" />
<rect x="32" y="25" width="1" height="1" fill="#BDB3AC" />
<rect x="20" y="26" width="1" height="1" fill="#252329" />
<rect x="26" y="26" width="1" height="1" fill="#BDB3AC" />
<rect x="27" y="26" width="1" height="1" fill="#F7ECD5" />
<rect x="28" y="26" width="1" height="1" fill="#BDB3AC" />
<rect x="29" y="26" width="1" height="1" fill="#F7ECD5" />
<rect x="30" y="26" width="1" height="1" fill="#F7ECD5" />
<rect x="31" y="26" width="1" height="1" fill="#BDB3AC" />
<rect x="32" y="26" width="1" height="1" fill="#BDB3AC" />
<rect x="26" y="27" width="1" height="1" fill="#615E70" />
<rect x="27" y="27" width="1" height="1" fill="#F7ECD5" />
<rect x="28" y="27" width="1" height="1" fill="#F7ECD5" />
<rect x="29" y="27" width="1" height="1" fill="#BDB3AC" />
<rect x="30" y="27" width="1" height="1" fill="#BDB3AC" />
<rect x="31" y="27" width="1" height="1" fill="#615E70" />
<rect x="32" y="27" width="1" height="1" fill="#615E70" />
<rect x="26" y="28" width="1" height="1" fill="#F7ECD5" />
<rect x="27" y="28" width="1" height="1" fill="#F7ECD5" />
<rect x="28" y="28" width="1" height="1" fill="#BDB3AC" />
<rect x="29" y="28" width="1" height="1" fill="#F7ECD5" />
<rect x="30" y="28" width="1" height="1" fill="#BDB3AC" />
<rect x="31" y="28" width="1" height="1" fill="#BDB3AC" />
<rect x="32" y="28" width="1" height="1" fill="#BDB3AC" />
<rect x="27" y="29" width="1" height="1" fill="#F7ECD5" />
<rect x="28" y="29" width="1" height="1" fill="#F7ECD5" />
<rect x="29" y="29" width="1" height="1" fill="#BDB3AC" />
<rect x="30" y="29" width="1" height="1" fill="#615E70" />
<rect x="31" y="29" width="1" height="1" fill="#615E70" />
<rect x="23" y="30" width="1" height="1" fill="#F7ECD5" />
<rect x="24" y="30" width="1" height="1" fill="#F7ECD5" />
<rect x="26" y="30" width="1" height="1" fill="#615E70" />
<rect x="27" y="30" width="1" height="1" fill="#615E70" />
<rect x="28" y="30" width="1" height="1" fill="#615E70" />
<rect x="29" y="30" width="1" height="1" fill="#BDB3AC" />
<rect x="30" y="30" width="1" height="1" fill="#BDB3AC" />
<rect x="22" y="31" width="1" height="1" fill="#F7ECD5" />
<rect x="23" y="31" width="1" height="1" fill="#F7ECD5" />
<rect x="24" y="31" width="1" height="1" fill="#F7ECD5" />
<rect x="25" y="31" width="1" height="1" fill="#F7ECD5" />
<rect x="26" y="31" width="1" height="1" fill="#F7ECD5" />
<rect x="27" y="31" width="1" height="1" fill="#615E70" />
<rect x="28" y="31" width="1" height="1" fill="#615E70" />
<rect x="22" y="32" width="1" height="1" fill="#F7ECD5" />
<rect x="23" y="32" width="1" height="1" fill="#F7ECD5" />
<rect x="25" y="32" width="1" height="1" fill="#F7ECD5" />
<rect x="26" y="32" width="1" height="1" fill="#F7ECD5" />
<rect x="27" y="32" width="1" height="1" fill="#F7ECD5" />
<rect x="28" y="32" width="1" height="1" fill="#968C94" />
<rect x="29" y="32" width="1" height="1" fill="#968C94" />
<rect x="21" y="33" width="1" height="1" fill="#F7ECD5" />
<rect x="22" y="33" width="1" height="1" fill="#F7ECD5" />
<rect x="26" y="33" width="1" height="1" fill="#F7ECD5" />
<rect x="27" y="33" width="1" height="1" fill="#F7ECD5" />
<rect x="28" y="33" width="1" height="1" fill="#968C94" />
<rect x="29" y="33" width="1" height="1" fill="#968C94" />
<rect x="21" y="34" width="1" height="1" fill="#F7ECD5" />
<rect x="22" y="34" width="1" height="1" fill="#F7ECD5" />
<rect x="28" y="34" width="1" height="1" fill="#615E70" />
<rect x="29" y="34" width="1" height="1" fill="#615E70" />
<rect x="28" y="35" width="1" height="1" fill="#615E70" />
<rect x="29" y="35" width="1" height="1" fill="#615E70" />
<rect x="29" y="36" width="1" height="1" fill="#615E70" />
<rect x="30" y="36" width="1" height="1" fill="#615E70" />
<rect x="29" y="37" width="1" height="1" fill="#615E70" />
<rect x="30" y="37" width="1" height="1" fill="#615E70" />
<rect x="29" y="38" width="1" height="1" fill="#615E70" />
<rect x="30" y="38" width="1" height="1" fill="#615E70" />
<rect x="28" y="39" width="1" height="1" fill="#615E70" />
<rect x="29" y="39" width="1" height="1" fill="#615E70" />
<rect x="30" y="39" width="1" height="1" fill="#615E70" />
</svg>