<?xml version="1.0" encoding="UTF-8" ?>
<svg version="1.1" width="90" height="90" xmlns="http://www.w3.org/2000/svg" shape-rendering="crispEdges">
<rect x="34" y="17" width="1" height="1" fill="#131313" />
<rect x="49" y="17" width="1" height="1" fill="#131313" />
<rect x="49" y="18" width="1" height="1" fill="#131313" />
<rect x="48" y="19" width="1" height="1" fill="#131313" />
<rect x="54" y="19" width="1" height="1" fill="#131313" />
<rect x="46" y="20" width="1" height="1" fill="#131313" />
<rect x="47" y="20" width="1" height="1" fill="#131313" />
<rect x="53" y="20" width="1" height="1" fill="#131313" />
<rect x="33" y="21" width="1" height="1" fill="#131313" />
<rect x="50" y="21" width="1" height="1" fill="#131313" />
<rect x="53" y="21" width="1" height="1" fill="#131313" />
<rect x="54" y="21" width="1" height="1" fill="#131313" />
<rect x="34" y="22" width="1" height="1" fill="#131313" />
<rect x="45" y="22" width="1" height="1" fill="#131313" />
<rect x="50" y="22" width="1" height="1" fill="#131313" />
<rect x="32" y="23" width="1" height="1" fill="#131313" />
<rect x="44" y="23" width="1" height="1" fill="#131313" />
<rect x="71" y="23" width="1" height="1" fill="#571C27" />
<rect x="33" y="24" width="1" height="1" fill="#131313" />
<rect x="17" y="26" width="1" height="1" fill="#131313" />
<rect x="68" y="26" width="1" height="1" fill="#571C27" />
<rect x="67" y="27" width="1" height="1" fill="#571C27" />
<rect x="17" y="28" width="1" height="1" fill="#3D3D3D" />
<rect x="16" y="29" width="1" height="1" fill="#3D3D3D" />
<rect x="53" y="29" width="1" height="1" fill="#131313" />
<rect x="54" y="29" width="1" height="1" fill="#131313" />
<rect x="54" y="31" width="1" height="1" fill="#131313" />
<rect x="77" y="32" width="1" height="1" fill="#571C27" />
<rect x="42" y="34" width="1" height="1" fill="#571C27" />
<rect x="49" y="34" width="1" height="1" fill="#131313" />
<rect x="51" y="34" width="1" height="1" fill="#131313" />
<rect x="40" y="35" width="1" height="1" fill="#571C27" />
<rect x="50" y="35" width="1" height="1" fill="#131313" />
<rect x="84" y="35" width="1" height="1" fill="#571C27" />
<rect x="50" y="36" width="1" height="1" fill="#131313" />
<rect x="8" y="44" width="1" height="1" fill="#131313" />
<rect x="14" y="44" width="1" height="1" fill="#131313" />
<rect x="5" y="45" width="1" height="1" fill="#131313" />
<rect x="8" y="45" width="1" height="1" fill="#131313" />
<rect x="20" y="45" width="1" height="1" fill="#131313" />
<rect x="21" y="45" width="1" height="1" fill="#131313" />
<rect x="69" y="45" width="1" height="1" fill="#571C27" />
<rect x="5" y="46" width="1" height="1" fill="#131313" />
<rect x="7" y="46" width="1" height="1" fill="#131313" />
<rect x="19" y="46" width="1" height="1" fill="#131313" />
<rect x="68" y="46" width="1" height="1" fill="#571C27" />
<rect x="70" y="47" width="1" height="1" fill="#571C27" />
<rect x="11" y="48" width="1" height="1" fill="#131313" />
<rect x="66" y="49" width="1" height="1" fill="#571C27" />
<rect x="13" y="50" width="1" height="1" fill="#131313" />
<rect x="24" y="50" width="1" height="1" fill="#131313" />
<rect x="25" y="50" width="1" height="1" fill="#131313" />
<rect x="27" y="51" width="1" height="1" fill="#131313" />
<rect x="68" y="51" width="1" height="1" fill="#571C27" />
<rect x="20" y="52" width="1" height="1" fill="#131313" />
<rect x="26" y="52" width="1" height="1" fill="#131313" />
<rect x="27" y="52" width="1" height="1" fill="#131313" />
<rect x="63" y="52" width="1" height="1" fill="#571C27" />
<rect x="65" y="52" width="1" height="1" fill="#571C27" />
<rect x="69" y="52" width="1" height="1" fill="#571C27" />
<rect x="70" y="52" width="1" height="1" fill="#571C27" />
<rect x="11" y="53" width="1" height="1" fill="#131313" />
<rect x="19" y="53" width="1" height="1" fill="#131313" />
<rect x="24" y="53" width="1" height="1" fill="#131313" />
<rect x="65" y="53" width="1" height="1" fill="#571C27" />
<rect x="71" y="54" width="1" height="1" fill="#571C27" />
<rect x="72" y="54" width="1" height="1" fill="#571C27" />
<rect x="72" y="55" width="1" height="1" fill="#571C27" />
<rect x="73" y="56" width="1" height="1" fill="#571C27" />
<rect x="14" y="57" width="1" height="1" fill="#131313" />
<rect x="58" y="57" width="1" height="1" fill="#571C27" />
<rect x="63" y="57" width="1" height="1" fill="#571C27" />
<rect x="66" y="57" width="1" height="1" fill="#571C27" />
<rect x="58" y="59" width="1" height="1" fill="#571C27" />
<rect x="65" y="59" width="1" height="1" fill="#571C27" />
<rect x="26" y="60" width="1" height="1" fill="#131313" />
<rect x="27" y="60" width="1" height="1" fill="#131313" />
<rect x="58" y="60" width="1" height="1" fill="#571C27" />
<rect x="67" y="60" width="1" height="1" fill="#571C27" />
<rect x="24" y="61" width="1" height="1" fill="#131313" />
<rect x="66" y="61" width="1" height="1" fill="#571C27" />
<rect x="67" y="61" width="1" height="1" fill="#571C27" />
<rect x="66" y="62" width="1" height="1" fill="#571C27" />
<rect x="64" y="63" width="1" height="1" fill="#571C27" />
<rect x="66" y="63" width="1" height="1" fill="#571C27" />
<rect x="80" y="63" width="1" height="1" fill="#272727" />
<rect x="70" y="64" width="1" height="1" fill="#571C27" />
<rect x="76" y="64" width="1" height="1" fill="#272727" />
<rect x="69" y="65" width="1" height="1" fill="#571C27" />
<rect x="75" y="65" width="1" height="1" fill="#272727" />
<rect x="76" y="65" width="1" height="1" fill="#272727" />
<rect x="63" y="66" width="1" height="1" fill="#571C27" />
<rect x="68" y="66" width="1" height="1" fill="#571C27" />
<rect x="75" y="66" width="1" height="1" fill="#891E2B" />
<rect x="60" y="67" width="1" height="1" fill="#571C27" />
<rect x="65" y="67" width="1" height="1" fill="#571C27" />
<rect x="67" y="67" width="1" height="1" fill="#571C27" />
<rect x="74" y="67" width="1" height="1" fill="#891E2B" />
<rect x="70" y="72" width="1" height="1" fill="#571C27" />
<rect x="68" y="73" width="1" height="1" fill="#571C27" />
<rect x="62" y="76" width="1" height="1" fill="#571C27" />
</svg>