<?xml version="1.0" encoding="UTF-8" ?>
<svg version="1.1" width="90" height="90" xmlns="http://www.w3.org/2000/svg" shape-rendering="crispEdges">
<rect x="32" y="16" width="1" height="1" fill="#131313" />
<rect x="50" y="16" width="1" height="1" fill="#131313" />
<rect x="19" y="17" width="1" height="1" fill="#131313" />
<rect x="34" y="17" width="1" height="1" fill="#131313" />
<rect x="31" y="18" width="1" height="1" fill="#131313" />
<rect x="32" y="18" width="1" height="1" fill="#131313" />
<rect x="33" y="18" width="1" height="1" fill="#131313" />
<rect x="34" y="18" width="1" height="1" fill="#131313" />
<rect x="19" y="19" width="1" height="1" fill="#131313" />
<rect x="32" y="19" width="1" height="1" fill="#131313" />
<rect x="34" y="19" width="1" height="1" fill="#131313" />
<rect x="44" y="19" width="1" height="1" fill="#131313" />
<rect x="47" y="19" width="1" height="1" fill="#131313" />
<rect x="54" y="19" width="1" height="1" fill="#131313" />
<rect x="15" y="20" width="1" height="1" fill="#131313" />
<rect x="17" y="20" width="1" height="1" fill="#131313" />
<rect x="43" y="20" width="1" height="1" fill="#131313" />
<rect x="53" y="20" width="1" height="1" fill="#131313" />
<rect x="15" y="21" width="1" height="1" fill="#131313" />
<rect x="16" y="22" width="1" height="1" fill="#131313" />
<rect x="17" y="22" width="1" height="1" fill="#131313" />
<rect x="31" y="22" width="1" height="1" fill="#131313" />
<rect x="32" y="22" width="1" height="1" fill="#131313" />
<rect x="29" y="23" width="1" height="1" fill="#131313" />
<rect x="30" y="23" width="1" height="1" fill="#131313" />
<rect x="31" y="23" width="1" height="1" fill="#131313" />
<rect x="43" y="23" width="1" height="1" fill="#131313" />
<rect x="50" y="23" width="1" height="1" fill="#131313" />
<rect x="52" y="23" width="1" height="1" fill="#131313" />
<rect x="30" y="24" width="1" height="1" fill="#131313" />
<rect x="52" y="24" width="1" height="1" fill="#131313" />
<rect x="53" y="24" width="1" height="1" fill="#131313" />
<rect x="33" y="25" width="1" height="1" fill="#131313" />
<rect x="41" y="25" width="1" height="1" fill="#131313" />
<rect x="51" y="25" width="1" height="1" fill="#131313" />
<rect x="70" y="25" width="1" height="1" fill="#571C27" />
<rect x="19" y="26" width="1" height="1" fill="#131313" />
<rect x="30" y="26" width="1" height="1" fill="#131313" />
<rect x="8" y="27" width="1" height="1" fill="#131313" />
<rect x="11" y="27" width="1" height="1" fill="#3D3D3D" />
<rect x="71" y="27" width="1" height="1" fill="#571C27" />
<rect x="29" y="28" width="1" height="1" fill="#131313" />
<rect x="31" y="28" width="1" height="1" fill="#131313" />
<rect x="50" y="28" width="1" height="1" fill="#131313" />
<rect x="52" y="28" width="1" height="1" fill="#131313" />
<rect x="70" y="28" width="1" height="1" fill="#571C27" />
<rect x="72" y="28" width="1" height="1" fill="#571C27" />
<rect x="73" y="28" width="1" height="1" fill="#571C27" />
<rect x="12" y="29" width="1" height="1" fill="#3D3D3D" />
<rect x="15" y="29" width="1" height="1" fill="#3D3D3D" />
<rect x="15" y="30" width="1" height="1" fill="#3D3D3D" />
<rect x="55" y="30" width="1" height="1" fill="#131313" />
<rect x="14" y="31" width="1" height="1" fill="#3D3D3D" />
<rect x="22" y="31" width="1" height="1" fill="#C42430" />
<rect x="76" y="31" width="1" height="1" fill="#571C27" />
<rect x="12" y="32" width="1" height="1" fill="#3D3D3D" />
<rect x="14" y="32" width="1" height="1" fill="#3D3D3D" />
<rect x="51" y="32" width="1" height="1" fill="#131313" />
<rect x="13" y="33" width="1" height="1" fill="#3D3D3D" />
<rect x="77" y="33" width="1" height="1" fill="#571C27" />
<rect x="10" y="34" width="1" height="1" fill="#131313" />
<rect x="16" y="34" width="1" height="1" fill="#891E2B" />
<rect x="54" y="34" width="1" height="1" fill="#131313" />
<rect x="60" y="34" width="1" height="1" fill="#571C27" />
<rect x="72" y="34" width="1" height="1" fill="#571C27" />
<rect x="83" y="34" width="1" height="1" fill="#571C27" />
<rect x="40" y="35" width="1" height="1" fill="#571C27" />
<rect x="59" y="35" width="1" height="1" fill="#571C27" />
<rect x="60" y="35" width="1" height="1" fill="#571C27" />
<rect x="61" y="35" width="1" height="1" fill="#571C27" />
<rect x="71" y="35" width="1" height="1" fill="#571C27" />
<rect x="76" y="35" width="1" height="1" fill="#571C27" />
<rect x="77" y="35" width="1" height="1" fill="#571C27" />
<rect x="83" y="35" width="1" height="1" fill="#571C27" />
<rect x="84" y="35" width="1" height="1" fill="#571C27" />
<rect x="10" y="36" width="1" height="1" fill="#C42430" />
<rect x="21" y="36" width="1" height="1" fill="#C42430" />
<rect x="22" y="36" width="1" height="1" fill="#C42430" />
<rect x="38" y="36" width="1" height="1" fill="#571C27" />
<rect x="39" y="36" width="1" height="1" fill="#571C27" />
<rect x="42" y="36" width="1" height="1" fill="#571C27" />
<rect x="45" y="36" width="1" height="1" fill="#C42430" />
<rect x="55" y="36" width="1" height="1" fill="#131313" />
<rect x="57" y="36" width="1" height="1" fill="#131313" />
<rect x="77" y="36" width="1" height="1" fill="#571C27" />
<rect x="84" y="36" width="1" height="1" fill="#571C27" />
<rect x="43" y="37" width="1" height="1" fill="#891E2B" />
<rect x="55" y="37" width="1" height="1" fill="#131313" />
<rect x="58" y="37" width="1" height="1" fill="#131313" />
<rect x="77" y="37" width="1" height="1" fill="#571C27" />
<rect x="28" y="38" width="1" height="1" fill="#571C27" />
<rect x="71" y="38" width="1" height="1" fill="#131313" />
<rect x="79" y="38" width="1" height="1" fill="#131313" />
<rect x="19" y="39" width="1" height="1" fill="#C42430" />
<rect x="31" y="39" width="1" height="1" fill="#571C27" />
<rect x="35" y="39" width="1" height="1" fill="#571C27" />
<rect x="37" y="39" width="1" height="1" fill="#571C27" />
<rect x="57" y="39" width="1" height="1" fill="#131313" />
<rect x="61" y="39" width="1" height="1" fill="#131313" />
<rect x="68" y="39" width="1" height="1" fill="#131313" />
<rect x="21" y="40" width="1" height="1" fill="#C42430" />
<rect x="45" y="40" width="1" height="1" fill="#C42430" />
<rect x="51" y="40" width="1" height="1" fill="#131313" />
<rect x="68" y="40" width="1" height="1" fill="#131313" />
<rect x="74" y="40" width="1" height="1" fill="#131313" />
<rect x="19" y="41" width="1" height="1" fill="#131313" />
<rect x="53" y="41" width="1" height="1" fill="#131313" />
<rect x="18" y="42" width="1" height="1" fill="#131313" />
<rect x="36" y="42" width="1" height="1" fill="#571C27" />
<rect x="78" y="42" width="1" height="1" fill="#131313" />
<rect x="17" y="43" width="1" height="1" fill="#131313" />
<rect x="18" y="43" width="1" height="1" fill="#131313" />
<rect x="19" y="43" width="1" height="1" fill="#131313" />
<rect x="35" y="43" width="1" height="1" fill="#891E2B" />
<rect x="68" y="43" width="1" height="1" fill="#131313" />
<rect x="76" y="43" width="1" height="1" fill="#131313" />
<rect x="78" y="43" width="1" height="1" fill="#131313" />
<rect x="7" y="44" width="1" height="1" fill="#131313" />
<rect x="17" y="44" width="1" height="1" fill="#C42430" />
<rect x="18" y="44" width="1" height="1" fill="#C42430" />
<rect x="77" y="44" width="1" height="1" fill="#131313" />
<rect x="9" y="45" width="1" height="1" fill="#131313" />
<rect x="12" y="45" width="1" height="1" fill="#131313" />
<rect x="31" y="45" width="1" height="1" fill="#891E2B" />
<rect x="33" y="45" width="1" height="1" fill="#891E2B" />
<rect x="51" y="45" width="1" height="1" fill="#C42430" />
<rect x="76" y="45" width="1" height="1" fill="#131313" />
<rect x="77" y="45" width="1" height="1" fill="#131313" />
<rect x="5" y="46" width="1" height="1" fill="#131313" />
<rect x="11" y="46" width="1" height="1" fill="#131313" />
<rect x="13" y="46" width="1" height="1" fill="#131313" />
<rect x="14" y="46" width="1" height="1" fill="#131313" />
<rect x="33" y="46" width="1" height="1" fill="#891E2B" />
<rect x="53" y="46" width="1" height="1" fill="#C42430" />
<rect x="10" y="47" width="1" height="1" fill="#131313" />
<rect x="22" y="47" width="1" height="1" fill="#131313" />
<rect x="33" y="47" width="1" height="1" fill="#891E2B" />
<rect x="47" y="47" width="1" height="1" fill="#891E2B" />
<rect x="48" y="47" width="1" height="1" fill="#C42430" />
<rect x="7" y="48" width="1" height="1" fill="#131313" />
<rect x="10" y="48" width="1" height="1" fill="#131313" />
<rect x="11" y="48" width="1" height="1" fill="#131313" />
<rect x="12" y="48" width="1" height="1" fill="#131313" />
<rect x="13" y="48" width="1" height="1" fill="#131313" />
<rect x="48" y="48" width="1" height="1" fill="#C42430" />
<rect x="12" y="49" width="1" height="1" fill="#131313" />
<rect x="13" y="49" width="1" height="1" fill="#131313" />
<rect x="15" y="49" width="1" height="1" fill="#131313" />
<rect x="26" y="49" width="1" height="1" fill="#131313" />
<rect x="66" y="49" width="1" height="1" fill="#571C27" />
<rect x="13" y="50" width="1" height="1" fill="#131313" />
<rect x="27" y="50" width="1" height="1" fill="#131313" />
<rect x="29" y="50" width="1" height="1" fill="#131313" />
<rect x="65" y="50" width="1" height="1" fill="#571C27" />
<rect x="12" y="51" width="1" height="1" fill="#131313" />
<rect x="58" y="51" width="1" height="1" fill="#891E2B" />
<rect x="11" y="52" width="1" height="1" fill="#131313" />
<rect x="16" y="52" width="1" height="1" fill="#131313" />
<rect x="68" y="52" width="1" height="1" fill="#891E2B" />
<rect x="23" y="53" width="1" height="1" fill="#131313" />
<rect x="55" y="53" width="1" height="1" fill="#891E2B" />
<rect x="69" y="53" width="1" height="1" fill="#891E2B" />
<rect x="70" y="53" width="1" height="1" fill="#891E2B" />
<rect x="61" y="54" width="1" height="1" fill="#891E2B" />
<rect x="68" y="54" width="1" height="1" fill="#891E2B" />
<rect x="69" y="54" width="1" height="1" fill="#891E2B" />
<rect x="26" y="56" width="1" height="1" fill="#131313" />
<rect x="78" y="56" width="1" height="1" fill="#131313" />
<rect x="54" y="57" width="1" height="1" fill="#891E2B" />
<rect x="43" y="58" width="1" height="1" fill="#891E2B" />
<rect x="78" y="60" width="1" height="1" fill="#131313" />
<rect x="19" y="63" width="1" height="1" fill="#891E2B" />
<rect x="40" y="63" width="1" height="1" fill="#891E2B" />
<rect x="57" y="63" width="1" height="1" fill="#891E2B" />
<rect x="75" y="63" width="1" height="1" fill="#131313" />
<rect x="80" y="63" width="1" height="1" fill="#272727" />
<rect x="37" y="64" width="1" height="1" fill="#131313" />
<rect x="38" y="64" width="1" height="1" fill="#131313" />
<rect x="43" y="64" width="1" height="1" fill="#131313" />
<rect x="48" y="64" width="1" height="1" fill="#571C27" />
<rect x="52" y="64" width="1" height="1" fill="#571C27" />
<rect x="37" y="65" width="1" height="1" fill="#131313" />
<rect x="39" y="65" width="1" height="1" fill="#131313" />
<rect x="56" y="65" width="1" height="1" fill="#131313" />
<rect x="65" y="65" width="1" height="1" fill="#891E2B" />
<rect x="77" y="65" width="1" height="1" fill="#272727" />
<rect x="36" y="66" width="1" height="1" fill="#131313" />
<rect x="37" y="66" width="1" height="1" fill="#131313" />
<rect x="38" y="66" width="1" height="1" fill="#131313" />
<rect x="75" y="66" width="1" height="1" fill="#891E2B" />
<rect x="77" y="66" width="1" height="1" fill="#272727" />
<rect x="13" y="67" width="1" height="1" fill="#891E2B" />
<rect x="17" y="67" width="1" height="1" fill="#891E2B" />
<rect x="19" y="67" width="1" height="1" fill="#891E2B" />
<rect x="26" y="67" width="1" height="1" fill="#891E2B" />
<rect x="58" y="67" width="1" height="1" fill="#891E2B" />
<rect x="68" y="67" width="1" height="1" fill="#571C27" />
<rect x="14" y="68" width="1" height="1" fill="#891E2B" />
<rect x="36" y="68" width="1" height="1" fill="#131313" />
<rect x="10" y="69" width="1" height="1" fill="#891E2B" />
<rect x="12" y="69" width="1" height="1" fill="#891E2B" />
<rect x="14" y="69" width="1" height="1" fill="#891E2B" />
<rect x="15" y="69" width="1" height="1" fill="#891E2B" />
<rect x="28" y="69" width="1" height="1" fill="#C42430" />
<rect x="45" y="69" width="1" height="1" fill="#131313" />
<rect x="65" y="69" width="1" height="1" fill="#571C27" />
<rect x="15" y="70" width="1" height="1" fill="#891E2B" />
<rect x="16" y="70" width="1" height="1" fill="#891E2B" />
<rect x="27" y="70" width="1" height="1" fill="#C42430" />
<rect x="48" y="70" width="1" height="1" fill="#571C27" />
<rect x="66" y="70" width="1" height="1" fill="#571C27" />
<rect x="16" y="71" width="1" height="1" fill="#891E2B" />
<rect x="27" y="71" width="1" height="1" fill="#C42430" />
<rect x="52" y="71" width="1" height="1" fill="#131313" />
<rect x="63" y="71" width="1" height="1" fill="#571C27" />
<rect x="64" y="71" width="1" height="1" fill="#571C27" />
<rect x="66" y="71" width="1" height="1" fill="#571C27" />
<rect x="75" y="71" width="1" height="1" fill="#272727" />
<rect x="18" y="72" width="1" height="1" fill="#891E2B" />
<rect x="26" y="72" width="1" height="1" fill="#891E2B" />
<rect x="27" y="72" width="1" height="1" fill="#891E2B" />
<rect x="81" y="72" width="1" height="1" fill="#272727" />
<rect x="18" y="73" width="1" height="1" fill="#891E2B" />
<rect x="25" y="73" width="1" height="1" fill="#891E2B" />
<rect x="26" y="73" width="1" height="1" fill="#891E2B" />
<rect x="45" y="73" width="1" height="1" fill="#131313" />
<rect x="61" y="73" width="1" height="1" fill="#571C27" />
<rect x="81" y="73" width="1" height="1" fill="#272727" />
<rect x="37" y="75" width="1" height="1" fill="#131313" />
<rect x="48" y="76" width="1" height="1" fill="#131313" />
<rect x="61" y="76" width="1" height="1" fill="#571C27" />
<rect x="23" y="81" width="1" height="1" fill="#131313" />
<rect x="28" y="81" width="1" height="1" fill="#131313" />
<rect x="41" y="81" width="1" height="1" fill="#131313" />
<rect x="51" y="83" width="1" height="1" fill="#131313" />
</svg>