<?xml version="1.0" encoding="UTF-8" ?>
<svg version="1.1" width="100" height="100" xmlns="http://www.w3.org/2000/svg" shape-rendering="crispEdges">
<rect x="53" y="20" width="1" height="1" fill="#00396D" />
<rect x="54" y="20" width="1" height="1" fill="#00396D" />
<rect x="54" y="21" width="1" height="1" fill="#00396D" />
<rect x="55" y="21" width="1" height="1" fill="#00396D" />
<rect x="55" y="22" width="1" height="1" fill="#00396D" />
<rect x="55" y="23" width="1" height="1" fill="#00396D" />
<rect x="57" y="24" width="1" height="1" fill="#00396D" />
<rect x="47" y="25" width="1" height="1" fill="#00396D" />
<rect x="48" y="25" width="1" height="1" fill="#00396D" />
<rect x="59" y="25" width="1" height="1" fill="#00396D" />
<rect x="46" y="26" width="1" height="1" fill="#00396D" />
<rect x="47" y="26" width="1" height="1" fill="#00396D" />
<rect x="57" y="26" width="1" height="1" fill="#00396D" />
<rect x="58" y="26" width="1" height="1" fill="#00396D" />
<rect x="67" y="26" width="1" height="1" fill="#0069AA" />
<rect x="47" y="28" width="1" height="1" fill="#00396D" />
<rect x="58" y="28" width="1" height="1" fill="#0098DC" />
<rect x="59" y="28" width="1" height="1" fill="#0098DC" />
<rect x="63" y="28" width="1" height="1" fill="#0098DC" />
<rect x="73" y="28" width="1" height="1" fill="#0069AA" />
<rect x="74" y="28" width="1" height="1" fill="#0069AA" />
<rect x="75" y="28" width="1" height="1" fill="#0069AA" />
<rect x="53" y="29" width="1" height="1" fill="#0098DC" />
<rect x="59" y="29" width="1" height="1" fill="#0098DC" />
<rect x="69" y="29" width="1" height="1" fill="#0069AA" />
<rect x="72" y="29" width="1" height="1" fill="#0069AA" />
<rect x="73" y="29" width="1" height="1" fill="#0069AA" />
<rect x="74" y="29" width="1" height="1" fill="#0069AA" />
<rect x="53" y="30" width="1" height="1" fill="#0098DC" />
<rect x="71" y="30" width="1" height="1" fill="#0069AA" />
<rect x="72" y="30" width="1" height="1" fill="#BF6F4A" />
<rect x="73" y="30" width="1" height="1" fill="#0069AA" />
<rect x="75" y="30" width="1" height="1" fill="#0069AA" />
<rect x="49" y="31" width="1" height="1" fill="#00396D" />
<rect x="50" y="31" width="1" height="1" fill="#00396D" />
<rect x="65" y="31" width="1" height="1" fill="#0098DC" />
<rect x="66" y="31" width="1" height="1" fill="#0069AA" />
<rect x="71" y="31" width="1" height="1" fill="#0069AA" />
<rect x="72" y="31" width="1" height="1" fill="#0069AA" />
<rect x="74" y="31" width="1" height="1" fill="#0069AA" />
<rect x="76" y="31" width="1" height="1" fill="#0069AA" />
<rect x="50" y="32" width="1" height="1" fill="#00396D" />
<rect x="68" y="32" width="1" height="1" fill="#0069AA" />
<rect x="48" y="33" width="1" height="1" fill="#00396D" />
<rect x="68" y="33" width="1" height="1" fill="#0069AA" />
<rect x="71" y="33" width="1" height="1" fill="#0069AA" />
<rect x="59" y="34" width="1" height="1" fill="#0098DC" />
<rect x="67" y="34" width="1" height="1" fill="#0069AA" />
<rect x="68" y="34" width="1" height="1" fill="#0069AA" />
<rect x="58" y="35" width="1" height="1" fill="#0098DC" />
<rect x="66" y="35" width="1" height="1" fill="#0069AA" />
<rect x="68" y="35" width="1" height="1" fill="#0069AA" />
<rect x="70" y="35" width="1" height="1" fill="#0069AA" />
<rect x="57" y="36" width="1" height="1" fill="#0098DC" />
<rect x="69" y="36" width="1" height="1" fill="#0069AA" />
<rect x="70" y="36" width="1" height="1" fill="#0069AA" />
<rect x="52" y="37" width="1" height="1" fill="#0069AA" />
<rect x="57" y="37" width="1" height="1" fill="#0098DC" />
<rect x="52" y="38" width="1" height="1" fill="#0069AA" />
<rect x="32" y="39" width="1" height="1" fill="#00396D" />
<rect x="33" y="39" width="1" height="1" fill="#00396D" />
<rect x="53" y="39" width="1" height="1" fill="#0098DC" />
<rect x="55" y="39" width="1" height="1" fill="#0098DC" />
<rect x="32" y="40" width="1" height="1" fill="#00396D" />
<rect x="34" y="40" width="1" height="1" fill="#00396D" />
<rect x="45" y="40" width="1" height="1" fill="#0069AA" />
<rect x="31" y="41" width="1" height="1" fill="#00396D" />
<rect x="46" y="41" width="1" height="1" fill="#0069AA" />
<rect x="51" y="41" width="1" height="1" fill="#1C121C" />
<rect x="45" y="42" width="1" height="1" fill="#0069AA" />
<rect x="46" y="42" width="1" height="1" fill="#0069AA" />
<rect x="47" y="42" width="1" height="1" fill="#1C121C" />
<rect x="51" y="42" width="1" height="1" fill="#1C121C" />
<rect x="52" y="42" width="1" height="1" fill="#1C121C" />
<rect x="54" y="42" width="1" height="1" fill="#0069AA" />
<rect x="62" y="42" width="1" height="1" fill="#0069AA" />
<rect x="63" y="42" width="1" height="1" fill="#0069AA" />
<rect x="46" y="43" width="1" height="1" fill="#0069AA" />
<rect x="47" y="43" width="1" height="1" fill="#0069AA" />
<rect x="49" y="43" width="1" height="1" fill="#0069AA" />
<rect x="51" y="43" width="1" height="1" fill="#1C121C" />
<rect x="52" y="43" width="1" height="1" fill="#1C121C" />
<rect x="53" y="43" width="1" height="1" fill="#0069AA" />
<rect x="34" y="44" width="1" height="1" fill="#00396D" />
<rect x="36" y="44" width="1" height="1" fill="#00396D" />
<rect x="42" y="44" width="1" height="1" fill="#0069AA" />
<rect x="43" y="44" width="1" height="1" fill="#0069AA" />
<rect x="46" y="44" width="1" height="1" fill="#1C121C" />
<rect x="47" y="44" width="1" height="1" fill="#1C121C" />
<rect x="48" y="44" width="1" height="1" fill="#0069AA" />
<rect x="52" y="44" width="1" height="1" fill="#0069AA" />
<rect x="53" y="44" width="1" height="1" fill="#0069AA" />
<rect x="55" y="44" width="1" height="1" fill="#0069AA" />
<rect x="56" y="44" width="1" height="1" fill="#0069AA" />
<rect x="58" y="44" width="1" height="1" fill="#0098DC" />
<rect x="36" y="45" width="1" height="1" fill="#00396D" />
<rect x="37" y="45" width="1" height="1" fill="#00396D" />
<rect x="40" y="45" width="1" height="1" fill="#00396D" />
<rect x="44" y="45" width="1" height="1" fill="#0069AA" />
<rect x="47" y="45" width="1" height="1" fill="#1C121C" />
<rect x="36" y="46" width="1" height="1" fill="#00396D" />
<rect x="37" y="46" width="1" height="1" fill="#00396D" />
<rect x="41" y="46" width="1" height="1" fill="#F6CA9F" />
<rect x="58" y="46" width="1" height="1" fill="#0098DC" />
<rect x="59" y="46" width="1" height="1" fill="#0098DC" />
<rect x="73" y="46" width="1" height="1" fill="#00396D" />
<rect x="37" y="47" width="1" height="1" fill="#BF6F4A" />
<rect x="40" y="47" width="1" height="1" fill="#00396D" />
<rect x="42" y="47" width="1" height="1" fill="#00396D" />
<rect x="47" y="47" width="1" height="1" fill="#0069AA" />
<rect x="72" y="47" width="1" height="1" fill="#00396D" />
<rect x="73" y="47" width="1" height="1" fill="#00396D" />
<rect x="36" y="48" width="1" height="1" fill="#BF6F4A" />
<rect x="41" y="48" width="1" height="1" fill="#00396D" />
<rect x="48" y="48" width="1" height="1" fill="#0069AA" />
<rect x="72" y="48" width="1" height="1" fill="#00396D" />
<rect x="36" y="49" width="1" height="1" fill="#BF6F4A" />
<rect x="39" y="49" width="1" height="1" fill="#BF6F4A" />
<rect x="56" y="49" width="1" height="1" fill="#391F21" />
<rect x="57" y="49" width="1" height="1" fill="#391F21" />
<rect x="37" y="50" width="1" height="1" fill="#BF6F4A" />
<rect x="38" y="50" width="1" height="1" fill="#BF6F4A" />
<rect x="39" y="50" width="1" height="1" fill="#00396D" />
<rect x="69" y="50" width="1" height="1" fill="#0069AA" />
<rect x="74" y="50" width="1" height="1" fill="#00396D" />
<rect x="46" y="51" width="1" height="1" fill="#1C121C" />
<rect x="47" y="51" width="1" height="1" fill="#1C121C" />
<rect x="49" y="51" width="1" height="1" fill="#391F21" />
<rect x="47" y="52" width="1" height="1" fill="#1C121C" />
<rect x="48" y="52" width="1" height="1" fill="#1C121C" />
<rect x="46" y="53" width="1" height="1" fill="#1C121C" />
<rect x="48" y="53" width="1" height="1" fill="#1C121C" />
<rect x="50" y="53" width="1" height="1" fill="#1C121C" />
<rect x="68" y="53" width="1" height="1" fill="#0069AA" />
<rect x="69" y="53" width="1" height="1" fill="#0069AA" />
<rect x="50" y="54" width="1" height="1" fill="#1C121C" />
<rect x="51" y="55" width="1" height="1" fill="#1C121C" />
<rect x="49" y="56" width="1" height="1" fill="#391F21" />
<rect x="54" y="56" width="1" height="1" fill="#391F21" />
<rect x="55" y="56" width="1" height="1" fill="#00396D" />
<rect x="41" y="57" width="1" height="1" fill="#1C121C" />
<rect x="44" y="57" width="1" height="1" fill="#1C121C" />
<rect x="50" y="57" width="1" height="1" fill="#391F21" />
<rect x="53" y="57" width="1" height="1" fill="#391F21" />
<rect x="54" y="57" width="1" height="1" fill="#391F21" />
<rect x="55" y="57" width="1" height="1" fill="#00396D" />
<rect x="40" y="58" width="1" height="1" fill="#1C121C" />
<rect x="41" y="58" width="1" height="1" fill="#FFFFFF" />
<rect x="42" y="58" width="1" height="1" fill="#1C121C" />
<rect x="44" y="58" width="1" height="1" fill="#1C121C" />
<rect x="47" y="58" width="1" height="1" fill="#5D2C28" />
<rect x="48" y="58" width="1" height="1" fill="#2A2F4E" />
<rect x="51" y="58" width="1" height="1" fill="#2A2F4E" />
<rect x="52" y="58" width="1" height="1" fill="#391F21" />
<rect x="70" y="58" width="1" height="1" fill="#0069AA" />
<rect x="41" y="59" width="1" height="1" fill="#1C121C" />
<rect x="47" y="59" width="1" height="1" fill="#5D2C28" />
<rect x="48" y="59" width="1" height="1" fill="#2A2F4E" />
<rect x="49" y="59" width="1" height="1" fill="#2A2F4E" />
<rect x="50" y="59" width="1" height="1" fill="#2A2F4E" />
<rect x="55" y="59" width="1" height="1" fill="#391F21" />
<rect x="69" y="59" width="1" height="1" fill="#0069AA" />
<rect x="48" y="60" width="1" height="1" fill="#2A2F4E" />
<rect x="49" y="60" width="1" height="1" fill="#00396D" />
<rect x="44" y="62" width="1" height="1" fill="#5D2C28" />
<rect x="45" y="62" width="1" height="1" fill="#5D2C28" />
<rect x="46" y="62" width="1" height="1" fill="#00396D" />
<rect x="53" y="62" width="1" height="1" fill="#00396D" />
<rect x="40" y="63" width="1" height="1" fill="#00396D" />
<rect x="44" y="63" width="1" height="1" fill="#FFFFFF" />
<rect x="45" y="63" width="1" height="1" fill="#5D2C28" />
<rect x="51" y="63" width="1" height="1" fill="#2A2F4E" />
<rect x="54" y="63" width="1" height="1" fill="#391F21" />
<rect x="67" y="63" width="1" height="1" fill="#0069AA" />
<rect x="39" y="64" width="1" height="1" fill="#C7CFDD" />
<rect x="40" y="64" width="1" height="1" fill="#00396D" />
<rect x="47" y="64" width="1" height="1" fill="#F6CA9F" />
<rect x="48" y="64" width="1" height="1" fill="#F6CA9F" />
<rect x="52" y="64" width="1" height="1" fill="#00396D" />
<rect x="66" y="64" width="1" height="1" fill="#0069AA" />
<rect x="49" y="65" width="1" height="1" fill="#F6CA9F" />
<rect x="53" y="65" width="1" height="1" fill="#00396D" />
<rect x="56" y="65" width="1" height="1" fill="#391F21" />
<rect x="68" y="65" width="1" height="1" fill="#0069AA" />
<rect x="40" y="66" width="1" height="1" fill="#00396D" />
<rect x="55" y="66" width="1" height="1" fill="#1C121C" />
<rect x="56" y="66" width="1" height="1" fill="#1C121C" />
<rect x="57" y="66" width="1" height="1" fill="#1C121C" />
<rect x="52" y="67" width="1" height="1" fill="#00396D" />
<rect x="56" y="67" width="1" height="1" fill="#1C121C" />
<rect x="69" y="67" width="1" height="1" fill="#0069AA" />
<rect x="38" y="68" width="1" height="1" fill="#00396D" />
<rect x="39" y="68" width="1" height="1" fill="#C7CFDD" />
<rect x="51" y="68" width="1" height="1" fill="#00396D" />
<rect x="55" y="68" width="1" height="1" fill="#391F21" />
<rect x="56" y="68" width="1" height="1" fill="#391F21" />
<rect x="58" y="68" width="1" height="1" fill="#1C121C" />
<rect x="68" y="68" width="1" height="1" fill="#0069AA" />
<rect x="36" y="69" width="1" height="1" fill="#00396D" />
<rect x="39" y="69" width="1" height="1" fill="#C7CFDD" />
<rect x="53" y="69" width="1" height="1" fill="#5D2C28" />
<rect x="72" y="69" width="1" height="1" fill="#0069AA" />
<rect x="79" y="69" width="1" height="1" fill="#0069AA" />
<rect x="35" y="70" width="1" height="1" fill="#00396D" />
<rect x="52" y="70" width="1" height="1" fill="#1C121C" />
<rect x="46" y="71" width="1" height="1" fill="#391F21" />
<rect x="52" y="71" width="1" height="1" fill="#391F21" />
<rect x="53" y="71" width="1" height="1" fill="#1C121C" />
<rect x="56" y="71" width="1" height="1" fill="#391F21" />
<rect x="40" y="72" width="1" height="1" fill="#C7CFDD" />
<rect x="45" y="72" width="1" height="1" fill="#391F21" />
<rect x="46" y="72" width="1" height="1" fill="#391F21" />
<rect x="50" y="72" width="1" height="1" fill="#391F21" />
<rect x="56" y="72" width="1" height="1" fill="#391F21" />
<rect x="57" y="72" width="1" height="1" fill="#391F21" />
<rect x="58" y="72" width="1" height="1" fill="#391F21" />
<rect x="74" y="72" width="1" height="1" fill="#0069AA" />
<rect x="42" y="73" width="1" height="1" fill="#00396D" />
<rect x="48" y="73" width="1" height="1" fill="#391F21" />
<rect x="54" y="73" width="1" height="1" fill="#391F21" />
<rect x="41" y="74" width="1" height="1" fill="#00396D" />
<rect x="42" y="74" width="1" height="1" fill="#00396D" />
<rect x="44" y="74" width="1" height="1" fill="#391F21" />
<rect x="45" y="74" width="1" height="1" fill="#391F21" />
<rect x="49" y="74" width="1" height="1" fill="#391F21" />
<rect x="75" y="74" width="1" height="1" fill="#E69C69" />
<rect x="39" y="75" width="1" height="1" fill="#00396D" />
<rect x="42" y="75" width="1" height="1" fill="#391F21" />
<rect x="43" y="75" width="1" height="1" fill="#391F21" />
<rect x="44" y="75" width="1" height="1" fill="#391F21" />
<rect x="45" y="75" width="1" height="1" fill="#391F21" />
<rect x="46" y="75" width="1" height="1" fill="#391F21" />
<rect x="54" y="75" width="1" height="1" fill="#0098DC" />
<rect x="74" y="75" width="1" height="1" fill="#E69C69" />
<rect x="75" y="75" width="1" height="1" fill="#E69C69" />
<rect x="40" y="76" width="1" height="1" fill="#00396D" />
<rect x="41" y="76" width="1" height="1" fill="#00396D" />
<rect x="44" y="76" width="1" height="1" fill="#391F21" />
<rect x="45" y="76" width="1" height="1" fill="#391F21" />
<rect x="50" y="76" width="1" height="1" fill="#391F21" />
<rect x="52" y="76" width="1" height="1" fill="#0098DC" />
<rect x="53" y="76" width="1" height="1" fill="#0098DC" />
<rect x="54" y="76" width="1" height="1" fill="#0098DC" />
<rect x="68" y="76" width="1" height="1" fill="#E69C69" />
<rect x="74" y="76" width="1" height="1" fill="#E69C69" />
<rect x="75" y="76" width="1" height="1" fill="#E69C69" />
<rect x="77" y="76" width="1" height="1" fill="#E69C69" />
<rect x="42" y="77" width="1" height="1" fill="#391F21" />
<rect x="43" y="77" width="1" height="1" fill="#00396D" />
<rect x="44" y="77" width="1" height="1" fill="#00396D" />
<rect x="45" y="77" width="1" height="1" fill="#00396D" />
<rect x="53" y="77" width="1" height="1" fill="#0098DC" />
<rect x="66" y="77" width="1" height="1" fill="#E69C69" />
<rect x="67" y="77" width="1" height="1" fill="#E69C69" />
<rect x="41" y="78" width="1" height="1" fill="#391F21" />
<rect x="56" y="78" width="1" height="1" fill="#00396D" />
<rect x="68" y="78" width="1" height="1" fill="#E69C69" />
<rect x="78" y="78" width="1" height="1" fill="#E69C69" />
<rect x="41" y="79" width="1" height="1" fill="#00396D" />
<rect x="42" y="79" width="1" height="1" fill="#391F21" />
<rect x="43" y="79" width="1" height="1" fill="#391F21" />
<rect x="44" y="79" width="1" height="1" fill="#391F21" />
<rect x="45" y="79" width="1" height="1" fill="#00396D" />
<rect x="55" y="79" width="1" height="1" fill="#00396D" />
<rect x="42" y="80" width="1" height="1" fill="#00396D" />
<rect x="49" y="80" width="1" height="1" fill="#1C121C" />
<rect x="55" y="80" width="1" height="1" fill="#00396D" />
<rect x="38" y="81" width="1" height="1" fill="#0069AA" />
<rect x="43" y="81" width="1" height="1" fill="#00396D" />
<rect x="47" y="81" width="1" height="1" fill="#00396D" />
<rect x="48" y="81" width="1" height="1" fill="#1C121C" />
<rect x="50" y="81" width="1" height="1" fill="#1C121C" />
<rect x="56" y="81" width="1" height="1" fill="#0069AA" />
<rect x="60" y="81" width="1" height="1" fill="#0069AA" />
<rect x="69" y="81" width="1" height="1" fill="#E69C69" />
<rect x="35" y="82" width="1" height="1" fill="#0069AA" />
<rect x="39" y="82" width="1" height="1" fill="#0069AA" />
<rect x="40" y="82" width="1" height="1" fill="#0069AA" />
<rect x="41" y="82" width="1" height="1" fill="#0069AA" />
<rect x="47" y="82" width="1" height="1" fill="#1C121C" />
<rect x="49" y="82" width="1" height="1" fill="#1C121C" />
<rect x="60" y="82" width="1" height="1" fill="#0069AA" />
<rect x="39" y="83" width="1" height="1" fill="#0069AA" />
<rect x="54" y="83" width="1" height="1" fill="#0069AA" />
<rect x="56" y="84" width="1" height="1" fill="#0069AA" />
<rect x="36" y="85" width="1" height="1" fill="#0069AA" />
<rect x="53" y="85" width="1" height="1" fill="#00396D" />
</svg>