<?xml version="1.0" encoding="UTF-8" ?>
<svg version="1.1" width="100" height="100" xmlns="http://www.w3.org/2000/svg" shape-rendering="crispEdges">
<rect x="53" y="20" width="1" height="1" fill="#00396D" />
<rect x="56" y="20" width="1" height="1" fill="#00396D" />
<rect x="47" y="24" width="1" height="1" fill="#00396D" />
<rect x="76" y="25" width="1" height="1" fill="#0069AA" />
<rect x="60" y="27" width="1" height="1" fill="#0098DC" />
<rect x="76" y="27" width="1" height="1" fill="#0069AA" />
<rect x="61" y="28" width="1" height="1" fill="#0098DC" />
<rect x="59" y="29" width="1" height="1" fill="#0098DC" />
<rect x="73" y="32" width="1" height="1" fill="#0069AA" />
<rect x="59" y="34" width="1" height="1" fill="#0098DC" />
<rect x="58" y="35" width="1" height="1" fill="#0098DC" />
<rect x="66" y="35" width="1" height="1" fill="#0069AA" />
<rect x="34" y="37" width="1" height="1" fill="#00396D" />
<rect x="32" y="40" width="1" height="1" fill="#00396D" />
<rect x="49" y="40" width="1" height="1" fill="#1C121C" />
<rect x="47" y="42" width="1" height="1" fill="#1C121C" />
<rect x="48" y="43" width="1" height="1" fill="#0069AA" />
<rect x="38" y="49" width="1" height="1" fill="#00396D" />
<rect x="39" y="49" width="1" height="1" fill="#00396D" />
<rect x="35" y="51" width="1" height="1" fill="#BF6F4A" />
<rect x="47" y="51" width="1" height="1" fill="#391F21" />
<rect x="75" y="51" width="1" height="1" fill="#00396D" />
<rect x="47" y="53" width="1" height="1" fill="#391F21" />
<rect x="55" y="55" width="1" height="1" fill="#391F21" />
<rect x="56" y="55" width="1" height="1" fill="#391F21" />
<rect x="57" y="56" width="1" height="1" fill="#391F21" />
<rect x="40" y="63" width="1" height="1" fill="#C7CFDD" />
<rect x="50" y="63" width="1" height="1" fill="#00396D" />
<rect x="51" y="63" width="1" height="1" fill="#00396D" />
<rect x="55" y="63" width="1" height="1" fill="#1C121C" />
<rect x="39" y="64" width="1" height="1" fill="#C7CFDD" />
<rect x="50" y="64" width="1" height="1" fill="#00396D" />
<rect x="57" y="64" width="1" height="1" fill="#1C121C" />
<rect x="38" y="65" width="1" height="1" fill="#C7CFDD" />
<rect x="49" y="65" width="1" height="1" fill="#391F21" />
<rect x="51" y="66" width="1" height="1" fill="#391F21" />
<rect x="58" y="68" width="1" height="1" fill="#391F21" />
<rect x="38" y="69" width="1" height="1" fill="#00396D" />
<rect x="39" y="69" width="1" height="1" fill="#C7CFDD" />
<rect x="34" y="71" width="1" height="1" fill="#00396D" />
<rect x="76" y="72" width="1" height="1" fill="#0069AA" />
<rect x="47" y="73" width="1" height="1" fill="#391F21" />
<rect x="39" y="74" width="1" height="1" fill="#00396D" />
<rect x="47" y="74" width="1" height="1" fill="#391F21" />
<rect x="58" y="76" width="1" height="1" fill="#0069AA" />
<rect x="49" y="77" width="1" height="1" fill="#00396D" />
<rect x="78" y="77" width="1" height="1" fill="#E69C69" />
<rect x="45" y="78" width="1" height="1" fill="#00396D" />
<rect x="52" y="78" width="1" height="1" fill="#1C121C" />
<rect x="56" y="78" width="1" height="1" fill="#0069AA" />
<rect x="51" y="79" width="1" height="1" fill="#1C121C" />
<rect x="68" y="79" width="1" height="1" fill="#E69C69" />
<rect x="40" y="80" width="1" height="1" fill="#00396D" />
<rect x="57" y="80" width="1" height="1" fill="#0069AA" />
<rect x="68" y="80" width="1" height="1" fill="#E69C69" />
<rect x="33" y="81" width="1" height="1" fill="#0069AA" />
<rect x="41" y="81" width="1" height="1" fill="#00396D" />
<rect x="52" y="81" width="1" height="1" fill="#1C121C" />
<rect x="58" y="81" width="1" height="1" fill="#0069AA" />
<rect x="35" y="82" width="1" height="1" fill="#0069AA" />
<rect x="34" y="83" width="1" height="1" fill="#0069AA" />
<rect x="35" y="83" width="1" height="1" fill="#0069AA" />
<rect x="36" y="83" width="1" height="1" fill="#0069AA" />
<rect x="34" y="84" width="1" height="1" fill="#0069AA" />
</svg>