<?xml version="1.0" encoding="UTF-8" ?>
<svg version="1.1" width="100" height="100" xmlns="http://www.w3.org/2000/svg" shape-rendering="crispEdges">
<rect x="58" y="25" width="1" height="1" fill="#00396D" />
<rect x="54" y="26" width="1" height="1" fill="#00396D" />
<rect x="55" y="26" width="1" height="1" fill="#00396D" />
<rect x="58" y="26" width="1" height="1" fill="#00396D" />
<rect x="59" y="26" width="1" height="1" fill="#00396D" />
<rect x="60" y="26" width="1" height="1" fill="#00396D" />
<rect x="61" y="26" width="1" height="1" fill="#0069AA" />
<rect x="64" y="26" width="1" height="1" fill="#0098DC" />
<rect x="45" y="27" width="1" height="1" fill="#00396D" />
<rect x="47" y="27" width="1" height="1" fill="#00396D" />
<rect x="53" y="27" width="1" height="1" fill="#00396D" />
<rect x="54" y="27" width="1" height="1" fill="#00396D" />
<rect x="60" y="27" width="1" height="1" fill="#00396D" />
<rect x="44" y="28" width="1" height="1" fill="#00396D" />
<rect x="47" y="28" width="1" height="1" fill="#00396D" />
<rect x="50" y="28" width="1" height="1" fill="#00396D" />
<rect x="51" y="28" width="1" height="1" fill="#00396D" />
<rect x="52" y="28" width="1" height="1" fill="#00396D" />
<rect x="54" y="28" width="1" height="1" fill="#00396D" />
<rect x="55" y="28" width="1" height="1" fill="#00396D" />
<rect x="57" y="28" width="1" height="1" fill="#00396D" />
<rect x="58" y="28" width="1" height="1" fill="#00396D" />
<rect x="60" y="28" width="1" height="1" fill="#00396D" />
<rect x="61" y="28" width="1" height="1" fill="#00396D" />
<rect x="73" y="28" width="1" height="1" fill="#0069AA" />
<rect x="74" y="28" width="1" height="1" fill="#0069AA" />
<rect x="44" y="29" width="1" height="1" fill="#00396D" />
<rect x="45" y="29" width="1" height="1" fill="#00396D" />
<rect x="47" y="29" width="1" height="1" fill="#00396D" />
<rect x="48" y="29" width="1" height="1" fill="#00396D" />
<rect x="49" y="29" width="1" height="1" fill="#00396D" />
<rect x="53" y="29" width="1" height="1" fill="#00396D" />
<rect x="54" y="29" width="1" height="1" fill="#00396D" />
<rect x="57" y="29" width="1" height="1" fill="#00396D" />
<rect x="58" y="29" width="1" height="1" fill="#00396D" />
<rect x="60" y="29" width="1" height="1" fill="#0098DC" />
<rect x="61" y="29" width="1" height="1" fill="#00396D" />
<rect x="62" y="29" width="1" height="1" fill="#0098DC" />
<rect x="65" y="29" width="1" height="1" fill="#0098DC" />
<rect x="66" y="29" width="1" height="1" fill="#0098DC" />
<rect x="67" y="29" width="1" height="1" fill="#0098DC" />
<rect x="68" y="29" width="1" height="1" fill="#0069AA" />
<rect x="69" y="29" width="1" height="1" fill="#0098DC" />
<rect x="72" y="29" width="1" height="1" fill="#0069AA" />
<rect x="44" y="30" width="1" height="1" fill="#00396D" />
<rect x="45" y="30" width="1" height="1" fill="#00396D" />
<rect x="46" y="30" width="1" height="1" fill="#00396D" />
<rect x="48" y="30" width="1" height="1" fill="#00396D" />
<rect x="49" y="30" width="1" height="1" fill="#00396D" />
<rect x="52" y="30" width="1" height="1" fill="#0098DC" />
<rect x="57" y="30" width="1" height="1" fill="#00396D" />
<rect x="60" y="30" width="1" height="1" fill="#0098DC" />
<rect x="61" y="30" width="1" height="1" fill="#00396D" />
<rect x="63" y="30" width="1" height="1" fill="#0098DC" />
<rect x="64" y="30" width="1" height="1" fill="#0098DC" />
<rect x="65" y="30" width="1" height="1" fill="#0098DC" />
<rect x="66" y="30" width="1" height="1" fill="#0098DC" />
<rect x="67" y="30" width="1" height="1" fill="#0069AA" />
<rect x="69" y="30" width="1" height="1" fill="#0098DC" />
<rect x="71" y="30" width="1" height="1" fill="#0098DC" />
<rect x="72" y="30" width="1" height="1" fill="#0069AA" />
<rect x="75" y="30" width="1" height="1" fill="#BF6F4A" />
<rect x="44" y="31" width="1" height="1" fill="#0098DC" />
<rect x="45" y="31" width="1" height="1" fill="#00396D" />
<rect x="46" y="31" width="1" height="1" fill="#00396D" />
<rect x="47" y="31" width="1" height="1" fill="#00396D" />
<rect x="48" y="31" width="1" height="1" fill="#00396D" />
<rect x="49" y="31" width="1" height="1" fill="#00396D" />
<rect x="58" y="31" width="1" height="1" fill="#00396D" />
<rect x="59" y="31" width="1" height="1" fill="#00396D" />
<rect x="60" y="31" width="1" height="1" fill="#0098DC" />
<rect x="61" y="31" width="1" height="1" fill="#0069AA" />
<rect x="62" y="31" width="1" height="1" fill="#0069AA" />
<rect x="66" y="31" width="1" height="1" fill="#0098DC" />
<rect x="70" y="31" width="1" height="1" fill="#0098DC" />
<rect x="43" y="32" width="1" height="1" fill="#0069AA" />
<rect x="44" y="32" width="1" height="1" fill="#0098DC" />
<rect x="45" y="32" width="1" height="1" fill="#00396D" />
<rect x="46" y="32" width="1" height="1" fill="#00396D" />
<rect x="47" y="32" width="1" height="1" fill="#00396D" />
<rect x="48" y="32" width="1" height="1" fill="#00396D" />
<rect x="49" y="32" width="1" height="1" fill="#00396D" />
<rect x="51" y="32" width="1" height="1" fill="#00396D" />
<rect x="52" y="32" width="1" height="1" fill="#0098DC" />
<rect x="53" y="32" width="1" height="1" fill="#0098DC" />
<rect x="55" y="32" width="1" height="1" fill="#00396D" />
<rect x="57" y="32" width="1" height="1" fill="#00396D" />
<rect x="59" y="32" width="1" height="1" fill="#00396D" />
<rect x="60" y="32" width="1" height="1" fill="#0069AA" />
<rect x="61" y="32" width="1" height="1" fill="#0098DC" />
<rect x="62" y="32" width="1" height="1" fill="#0069AA" />
<rect x="63" y="32" width="1" height="1" fill="#0069AA" />
<rect x="70" y="32" width="1" height="1" fill="#0098DC" />
<rect x="74" y="32" width="1" height="1" fill="#0069AA" />
<rect x="45" y="33" width="1" height="1" fill="#FFFFFF" />
<rect x="46" y="33" width="1" height="1" fill="#00396D" />
<rect x="50" y="33" width="1" height="1" fill="#00396D" />
<rect x="51" y="33" width="1" height="1" fill="#00396D" />
<rect x="52" y="33" width="1" height="1" fill="#0098DC" />
<rect x="55" y="33" width="1" height="1" fill="#00396D" />
<rect x="56" y="33" width="1" height="1" fill="#00396D" />
<rect x="57" y="33" width="1" height="1" fill="#00396D" />
<rect x="60" y="33" width="1" height="1" fill="#0069AA" />
<rect x="61" y="33" width="1" height="1" fill="#0069AA" />
<rect x="68" y="33" width="1" height="1" fill="#0098DC" />
<rect x="69" y="33" width="1" height="1" fill="#0098DC" />
<rect x="70" y="33" width="1" height="1" fill="#0098DC" />
<rect x="34" y="34" width="1" height="1" fill="#00CDF9" />
<rect x="48" y="34" width="1" height="1" fill="#00396D" />
<rect x="49" y="34" width="1" height="1" fill="#0069AA" />
<rect x="55" y="34" width="1" height="1" fill="#00396D" />
<rect x="56" y="34" width="1" height="1" fill="#00396D" />
<rect x="57" y="34" width="1" height="1" fill="#00396D" />
<rect x="61" y="34" width="1" height="1" fill="#0069AA" />
<rect x="62" y="34" width="1" height="1" fill="#0069AA" />
<rect x="66" y="34" width="1" height="1" fill="#E69C69" />
<rect x="69" y="34" width="1" height="1" fill="#0098DC" />
<rect x="33" y="35" width="1" height="1" fill="#00CDF9" />
<rect x="45" y="35" width="1" height="1" fill="#0069AA" />
<rect x="47" y="35" width="1" height="1" fill="#00396D" />
<rect x="48" y="35" width="1" height="1" fill="#0069AA" />
<rect x="53" y="35" width="1" height="1" fill="#0098DC" />
<rect x="56" y="35" width="1" height="1" fill="#0098DC" />
<rect x="57" y="35" width="1" height="1" fill="#00396D" />
<rect x="63" y="35" width="1" height="1" fill="#0069AA" />
<rect x="67" y="35" width="1" height="1" fill="#0069AA" />
<rect x="32" y="36" width="1" height="1" fill="#00CDF9" />
<rect x="33" y="36" width="1" height="1" fill="#00CDF9" />
<rect x="39" y="36" width="1" height="1" fill="#0069AA" />
<rect x="44" y="36" width="1" height="1" fill="#0069AA" />
<rect x="46" y="36" width="1" height="1" fill="#0069AA" />
<rect x="50" y="36" width="1" height="1" fill="#0069AA" />
<rect x="51" y="36" width="1" height="1" fill="#0069AA" />
<rect x="52" y="36" width="1" height="1" fill="#0098DC" />
<rect x="53" y="36" width="1" height="1" fill="#E69C69" />
<rect x="54" y="36" width="1" height="1" fill="#0098DC" />
<rect x="56" y="36" width="1" height="1" fill="#0098DC" />
<rect x="62" y="36" width="1" height="1" fill="#BF6F4A" />
<rect x="40" y="37" width="1" height="1" fill="#0069AA" />
<rect x="41" y="37" width="1" height="1" fill="#0069AA" />
<rect x="44" y="37" width="1" height="1" fill="#0069AA" />
<rect x="45" y="37" width="1" height="1" fill="#0069AA" />
<rect x="48" y="37" width="1" height="1" fill="#0069AA" />
<rect x="49" y="37" width="1" height="1" fill="#0069AA" />
<rect x="50" y="37" width="1" height="1" fill="#0069AA" />
<rect x="51" y="37" width="1" height="1" fill="#0069AA" />
<rect x="55" y="37" width="1" height="1" fill="#0098DC" />
<rect x="62" y="37" width="1" height="1" fill="#0069AA" />
<rect x="33" y="38" width="1" height="1" fill="#00CDF9" />
<rect x="39" y="38" width="1" height="1" fill="#0069AA" />
<rect x="43" y="38" width="1" height="1" fill="#FFFFFF" />
<rect x="44" y="38" width="1" height="1" fill="#0069AA" />
<rect x="50" y="38" width="1" height="1" fill="#0069AA" />
<rect x="54" y="38" width="1" height="1" fill="#0069AA" />
<rect x="61" y="38" width="1" height="1" fill="#BF6F4A" />
<rect x="36" y="39" width="1" height="1" fill="#00CDF9" />
<rect x="38" y="39" width="1" height="1" fill="#00CDF9" />
<rect x="43" y="39" width="1" height="1" fill="#FFFFFF" />
<rect x="44" y="39" width="1" height="1" fill="#FFFFFF" />
<rect x="48" y="39" width="1" height="1" fill="#0069AA" />
<rect x="53" y="39" width="1" height="1" fill="#0098DC" />
<rect x="55" y="39" width="1" height="1" fill="#0098DC" />
<rect x="58" y="39" width="1" height="1" fill="#E69C69" />
<rect x="61" y="39" width="1" height="1" fill="#BF6F4A" />
<rect x="65" y="39" width="1" height="1" fill="#0069AA" />
<rect x="66" y="39" width="1" height="1" fill="#0069AA" />
<rect x="36" y="40" width="1" height="1" fill="#00396D" />
<rect x="37" y="40" width="1" height="1" fill="#00CDF9" />
<rect x="43" y="40" width="1" height="1" fill="#FFFFFF" />
<rect x="49" y="40" width="1" height="1" fill="#0069AA" />
<rect x="53" y="40" width="1" height="1" fill="#0069AA" />
<rect x="56" y="40" width="1" height="1" fill="#F6CA9F" />
<rect x="61" y="40" width="1" height="1" fill="#BF6F4A" />
<rect x="62" y="40" width="1" height="1" fill="#F6CA9F" />
<rect x="38" y="41" width="1" height="1" fill="#00CDF9" />
<rect x="56" y="41" width="1" height="1" fill="#F6CA9F" />
<rect x="59" y="41" width="1" height="1" fill="#E69C69" />
<rect x="60" y="41" width="1" height="1" fill="#F6CA9F" />
<rect x="61" y="41" width="1" height="1" fill="#F6CA9F" />
<rect x="34" y="42" width="1" height="1" fill="#00396D" />
<rect x="45" y="42" width="1" height="1" fill="#0069AA" />
<rect x="51" y="42" width="1" height="1" fill="#0069AA" />
<rect x="55" y="42" width="1" height="1" fill="#F6CA9F" />
<rect x="57" y="42" width="1" height="1" fill="#F6CA9F" />
<rect x="58" y="42" width="1" height="1" fill="#E69C69" />
<rect x="59" y="42" width="1" height="1" fill="#E69C69" />
<rect x="60" y="42" width="1" height="1" fill="#E69C69" />
<rect x="61" y="42" width="1" height="1" fill="#C7CFDD" />
<rect x="35" y="43" width="1" height="1" fill="#00396D" />
<rect x="37" y="43" width="1" height="1" fill="#00396D" />
<rect x="43" y="43" width="1" height="1" fill="#0098DC" />
<rect x="47" y="43" width="1" height="1" fill="#0069AA" />
<rect x="49" y="43" width="1" height="1" fill="#0069AA" />
<rect x="52" y="43" width="1" height="1" fill="#0069AA" />
<rect x="55" y="43" width="1" height="1" fill="#0069AA" />
<rect x="57" y="43" width="1" height="1" fill="#F6CA9F" />
<rect x="62" y="43" width="1" height="1" fill="#C7CFDD" />
<rect x="42" y="44" width="1" height="1" fill="#0098DC" />
<rect x="43" y="44" width="1" height="1" fill="#0098DC" />
<rect x="49" y="44" width="1" height="1" fill="#391F21" />
<rect x="51" y="44" width="1" height="1" fill="#1C121C" />
<rect x="59" y="44" width="1" height="1" fill="#92A1B9" />
<rect x="43" y="45" width="1" height="1" fill="#1C121C" />
<rect x="45" y="45" width="1" height="1" fill="#1C121C" />
<rect x="46" y="45" width="1" height="1" fill="#1C121C" />
<rect x="50" y="45" width="1" height="1" fill="#391F21" />
<rect x="51" y="45" width="1" height="1" fill="#1C121C" />
<rect x="52" y="45" width="1" height="1" fill="#1C121C" />
<rect x="53" y="45" width="1" height="1" fill="#391F21" />
<rect x="36" y="46" width="1" height="1" fill="#00396D" />
<rect x="51" y="46" width="1" height="1" fill="#391F21" />
<rect x="52" y="46" width="1" height="1" fill="#8A4836" />
<rect x="53" y="46" width="1" height="1" fill="#1C121C" />
<rect x="56" y="46" width="1" height="1" fill="#1C121C" />
<rect x="57" y="46" width="1" height="1" fill="#391F21" />
<rect x="38" y="47" width="1" height="1" fill="#F6CA9F" />
<rect x="39" y="47" width="1" height="1" fill="#F6CA9F" />
<rect x="51" y="47" width="1" height="1" fill="#5D2C28" />
<rect x="52" y="47" width="1" height="1" fill="#5D2C28" />
<rect x="53" y="47" width="1" height="1" fill="#5D2C28" />
<rect x="54" y="47" width="1" height="1" fill="#5D2C28" />
<rect x="55" y="47" width="1" height="1" fill="#5D2C28" />
<rect x="56" y="47" width="1" height="1" fill="#391F21" />
<rect x="57" y="47" width="1" height="1" fill="#391F21" />
<rect x="58" y="47" width="1" height="1" fill="#391F21" />
<rect x="37" y="48" width="1" height="1" fill="#F6CA9F" />
<rect x="40" y="48" width="1" height="1" fill="#1C121C" />
<rect x="48" y="48" width="1" height="1" fill="#0069AA" />
<rect x="50" y="48" width="1" height="1" fill="#8A4836" />
<rect x="52" y="48" width="1" height="1" fill="#5D2C28" />
<rect x="53" y="48" width="1" height="1" fill="#5D2C28" />
<rect x="54" y="48" width="1" height="1" fill="#5D2C28" />
<rect x="55" y="48" width="1" height="1" fill="#391F21" />
<rect x="56" y="48" width="1" height="1" fill="#391F21" />
<rect x="34" y="49" width="1" height="1" fill="#BF6F4A" />
<rect x="36" y="49" width="1" height="1" fill="#1C121C" />
<rect x="42" y="49" width="1" height="1" fill="#5D2C28" />
<rect x="43" y="49" width="1" height="1" fill="#8A4836" />
<rect x="46" y="49" width="1" height="1" fill="#5D2C28" />
<rect x="48" y="49" width="1" height="1" fill="#5D2C28" />
<rect x="53" y="49" width="1" height="1" fill="#00396D" />
<rect x="54" y="49" width="1" height="1" fill="#5D2C28" />
<rect x="55" y="49" width="1" height="1" fill="#391F21" />
<rect x="56" y="49" width="1" height="1" fill="#391F21" />
<rect x="34" y="50" width="1" height="1" fill="#BF6F4A" />
<rect x="35" y="50" width="1" height="1" fill="#BF6F4A" />
<rect x="37" y="50" width="1" height="1" fill="#BF6F4A" />
<rect x="38" y="50" width="1" height="1" fill="#1C121C" />
<rect x="40" y="50" width="1" height="1" fill="#BF6F4A" />
<rect x="41" y="50" width="1" height="1" fill="#BF6F4A" />
<rect x="42" y="50" width="1" height="1" fill="#1C121C" />
<rect x="44" y="50" width="1" height="1" fill="#8A4836" />
<rect x="47" y="50" width="1" height="1" fill="#5D2C28" />
<rect x="48" y="50" width="1" height="1" fill="#0069AA" />
<rect x="49" y="50" width="1" height="1" fill="#5D2C28" />
<rect x="50" y="50" width="1" height="1" fill="#0069AA" />
<rect x="51" y="50" width="1" height="1" fill="#0069AA" />
<rect x="52" y="50" width="1" height="1" fill="#00396D" />
<rect x="54" y="50" width="1" height="1" fill="#391F21" />
<rect x="55" y="50" width="1" height="1" fill="#391F21" />
<rect x="56" y="50" width="1" height="1" fill="#391F21" />
<rect x="36" y="51" width="1" height="1" fill="#BF6F4A" />
<rect x="38" y="51" width="1" height="1" fill="#1C121C" />
<rect x="41" y="51" width="1" height="1" fill="#8A4836" />
<rect x="42" y="51" width="1" height="1" fill="#5D2C28" />
<rect x="45" y="51" width="1" height="1" fill="#5D2C28" />
<rect x="47" y="51" width="1" height="1" fill="#5D2C28" />
<rect x="48" y="51" width="1" height="1" fill="#5D2C28" />
<rect x="49" y="51" width="1" height="1" fill="#0069AA" />
<rect x="50" y="51" width="1" height="1" fill="#0069AA" />
<rect x="51" y="51" width="1" height="1" fill="#0069AA" />
<rect x="52" y="51" width="1" height="1" fill="#5D2C28" />
<rect x="73" y="51" width="1" height="1" fill="#00396D" />
<rect x="37" y="52" width="1" height="1" fill="#BF6F4A" />
<rect x="43" y="52" width="1" height="1" fill="#8A4836" />
<rect x="49" y="52" width="1" height="1" fill="#0069AA" />
<rect x="70" y="52" width="1" height="1" fill="#00396D" />
<rect x="71" y="52" width="1" height="1" fill="#0069AA" />
<rect x="73" y="52" width="1" height="1" fill="#00396D" />
<rect x="75" y="52" width="1" height="1" fill="#00396D" />
<rect x="46" y="53" width="1" height="1" fill="#5D2C28" />
<rect x="47" y="53" width="1" height="1" fill="#5D2C28" />
<rect x="50" y="53" width="1" height="1" fill="#5D2C28" />
<rect x="52" y="53" width="1" height="1" fill="#0098DC" />
<rect x="56" y="53" width="1" height="1" fill="#0069AA" />
<rect x="69" y="53" width="1" height="1" fill="#0069AA" />
<rect x="70" y="53" width="1" height="1" fill="#0069AA" />
<rect x="71" y="53" width="1" height="1" fill="#0069AA" />
<rect x="76" y="53" width="1" height="1" fill="#00396D" />
<rect x="35" y="54" width="1" height="1" fill="#FFFFFF" />
<rect x="47" y="54" width="1" height="1" fill="#00396D" />
<rect x="48" y="54" width="1" height="1" fill="#00396D" />
<rect x="53" y="54" width="1" height="1" fill="#0098DC" />
<rect x="56" y="54" width="1" height="1" fill="#0069AA" />
<rect x="58" y="54" width="1" height="1" fill="#0069AA" />
<rect x="69" y="54" width="1" height="1" fill="#00396D" />
<rect x="70" y="54" width="1" height="1" fill="#0069AA" />
<rect x="36" y="55" width="1" height="1" fill="#FFFFFF" />
<rect x="53" y="55" width="1" height="1" fill="#5D2C28" />
<rect x="56" y="55" width="1" height="1" fill="#0069AA" />
<rect x="57" y="55" width="1" height="1" fill="#00396D" />
<rect x="58" y="55" width="1" height="1" fill="#00396D" />
<rect x="68" y="55" width="1" height="1" fill="#00396D" />
<rect x="73" y="55" width="1" height="1" fill="#00396D" />
<rect x="76" y="55" width="1" height="1" fill="#00396D" />
<rect x="77" y="55" width="1" height="1" fill="#00396D" />
<rect x="34" y="56" width="1" height="1" fill="#FFFFFF" />
<rect x="36" y="56" width="1" height="1" fill="#FFFFFF" />
<rect x="37" y="56" width="1" height="1" fill="#657392" />
<rect x="42" y="56" width="1" height="1" fill="#F6CA9F" />
<rect x="58" y="56" width="1" height="1" fill="#0069AA" />
<rect x="75" y="56" width="1" height="1" fill="#00396D" />
<rect x="38" y="57" width="1" height="1" fill="#657392" />
<rect x="39" y="57" width="1" height="1" fill="#657392" />
<rect x="43" y="57" width="1" height="1" fill="#0069AA" />
<rect x="44" y="57" width="1" height="1" fill="#F6CA9F" />
<rect x="51" y="57" width="1" height="1" fill="#391F21" />
<rect x="52" y="57" width="1" height="1" fill="#5D2C28" />
<rect x="55" y="57" width="1" height="1" fill="#5D2C28" />
<rect x="56" y="57" width="1" height="1" fill="#5D2C28" />
<rect x="57" y="57" width="1" height="1" fill="#00396D" />
<rect x="59" y="57" width="1" height="1" fill="#00396D" />
<rect x="68" y="57" width="1" height="1" fill="#00396D" />
<rect x="77" y="57" width="1" height="1" fill="#00396D" />
<rect x="39" y="58" width="1" height="1" fill="#657392" />
<rect x="42" y="58" width="1" height="1" fill="#F6CA9F" />
<rect x="50" y="58" width="1" height="1" fill="#391F21" />
<rect x="51" y="58" width="1" height="1" fill="#5D2C28" />
<rect x="53" y="58" width="1" height="1" fill="#5D2C28" />
<rect x="57" y="58" width="1" height="1" fill="#5D2C28" />
<rect x="58" y="58" width="1" height="1" fill="#391F21" />
<rect x="68" y="58" width="1" height="1" fill="#0069AA" />
<rect x="78" y="58" width="1" height="1" fill="#00396D" />
<rect x="38" y="59" width="1" height="1" fill="#92A1B9" />
<rect x="39" y="59" width="1" height="1" fill="#92A1B9" />
<rect x="41" y="59" width="1" height="1" fill="#F6CA9F" />
<rect x="44" y="59" width="1" height="1" fill="#2A2F4E" />
<rect x="45" y="59" width="1" height="1" fill="#F6CA9F" />
<rect x="46" y="59" width="1" height="1" fill="#E69C69" />
<rect x="48" y="59" width="1" height="1" fill="#5D2C28" />
<rect x="50" y="59" width="1" height="1" fill="#391F21" />
<rect x="54" y="59" width="1" height="1" fill="#8A4836" />
<rect x="55" y="59" width="1" height="1" fill="#8A4836" />
<rect x="71" y="59" width="1" height="1" fill="#0069AA" />
<rect x="72" y="59" width="1" height="1" fill="#00396D" />
<rect x="38" y="60" width="1" height="1" fill="#92A1B9" />
<rect x="39" y="60" width="1" height="1" fill="#92A1B9" />
<rect x="42" y="60" width="1" height="1" fill="#FFFFFF" />
<rect x="43" y="60" width="1" height="1" fill="#F6CA9F" />
<rect x="45" y="60" width="1" height="1" fill="#F6CA9F" />
<rect x="46" y="60" width="1" height="1" fill="#F6CA9F" />
<rect x="48" y="60" width="1" height="1" fill="#5D2C28" />
<rect x="49" y="60" width="1" height="1" fill="#5D2C28" />
<rect x="50" y="60" width="1" height="1" fill="#391F21" />
<rect x="53" y="60" width="1" height="1" fill="#5D2C28" />
<rect x="54" y="60" width="1" height="1" fill="#8A4836" />
<rect x="55" y="60" width="1" height="1" fill="#8A4836" />
<rect x="56" y="60" width="1" height="1" fill="#8A4836" />
<rect x="58" y="60" width="1" height="1" fill="#391F21" />
<rect x="73" y="60" width="1" height="1" fill="#00396D" />
<rect x="37" y="61" width="1" height="1" fill="#FFFFFF" />
<rect x="39" y="61" width="1" height="1" fill="#FFFFFF" />
<rect x="40" y="61" width="1" height="1" fill="#FFFFFF" />
<rect x="42" y="61" width="1" height="1" fill="#657392" />
<rect x="43" y="61" width="1" height="1" fill="#657392" />
<rect x="45" y="61" width="1" height="1" fill="#2A2F4E" />
<rect x="48" y="61" width="1" height="1" fill="#5D2C28" />
<rect x="49" y="61" width="1" height="1" fill="#5D2C28" />
<rect x="50" y="61" width="1" height="1" fill="#5D2C28" />
<rect x="51" y="61" width="1" height="1" fill="#8A4836" />
<rect x="59" y="61" width="1" height="1" fill="#00396D" />
<rect x="72" y="61" width="1" height="1" fill="#0069AA" />
<rect x="36" y="62" width="1" height="1" fill="#0C2E44" />
<rect x="37" y="62" width="1" height="1" fill="#FFFFFF" />
<rect x="40" y="62" width="1" height="1" fill="#1C121C" />
<rect x="41" y="62" width="1" height="1" fill="#C7CFDD" />
<rect x="43" y="62" width="1" height="1" fill="#C7CFDD" />
<rect x="46" y="62" width="1" height="1" fill="#1A1932" />
<rect x="47" y="62" width="1" height="1" fill="#1A1932" />
<rect x="48" y="62" width="1" height="1" fill="#00396D" />
<rect x="49" y="62" width="1" height="1" fill="#00396D" />
<rect x="50" y="62" width="1" height="1" fill="#0069AA" />
<rect x="51" y="62" width="1" height="1" fill="#00396D" />
<rect x="52" y="62" width="1" height="1" fill="#391F21" />
<rect x="74" y="62" width="1" height="1" fill="#0069AA" />
<rect x="76" y="62" width="1" height="1" fill="#00396D" />
<rect x="34" y="63" width="1" height="1" fill="#00396D" />
<rect x="35" y="63" width="1" height="1" fill="#0C2E44" />
<rect x="36" y="63" width="1" height="1" fill="#0C2E44" />
<rect x="37" y="63" width="1" height="1" fill="#1C121C" />
<rect x="48" y="63" width="1" height="1" fill="#0069AA" />
<rect x="49" y="63" width="1" height="1" fill="#0069AA" />
<rect x="50" y="63" width="1" height="1" fill="#0069AA" />
<rect x="51" y="63" width="1" height="1" fill="#00396D" />
<rect x="52" y="63" width="1" height="1" fill="#5D2C28" />
<rect x="54" y="63" width="1" height="1" fill="#391F21" />
<rect x="55" y="63" width="1" height="1" fill="#391F21" />
<rect x="75" y="63" width="1" height="1" fill="#00396D" />
<rect x="35" y="64" width="1" height="1" fill="#00396D" />
<rect x="36" y="64" width="1" height="1" fill="#00396D" />
<rect x="38" y="64" width="1" height="1" fill="#1C121C" />
<rect x="42" y="64" width="1" height="1" fill="#C7CFDD" />
<rect x="43" y="64" width="1" height="1" fill="#FFFFFF" />
<rect x="44" y="64" width="1" height="1" fill="#92A1B9" />
<rect x="45" y="64" width="1" height="1" fill="#C7CFDD" />
<rect x="46" y="64" width="1" height="1" fill="#FFFFFF" />
<rect x="50" y="64" width="1" height="1" fill="#0069AA" />
<rect x="51" y="64" width="1" height="1" fill="#00396D" />
<rect x="52" y="64" width="1" height="1" fill="#00396D" />
<rect x="53" y="64" width="1" height="1" fill="#00396D" />
<rect x="54" y="64" width="1" height="1" fill="#391F21" />
<rect x="55" y="64" width="1" height="1" fill="#391F21" />
<rect x="56" y="64" width="1" height="1" fill="#1C121C" />
<rect x="74" y="64" width="1" height="1" fill="#0069AA" />
<rect x="36" y="65" width="1" height="1" fill="#00396D" />
<rect x="37" y="65" width="1" height="1" fill="#00396D" />
<rect x="41" y="65" width="1" height="1" fill="#C7CFDD" />
<rect x="42" y="65" width="1" height="1" fill="#FFFFFF" />
<rect x="43" y="65" width="1" height="1" fill="#391F21" />
<rect x="44" y="65" width="1" height="1" fill="#FFFFFF" />
<rect x="45" y="65" width="1" height="1" fill="#0069AA" />
<rect x="46" y="65" width="1" height="1" fill="#0098DC" />
<rect x="47" y="65" width="1" height="1" fill="#0098DC" />
<rect x="52" y="65" width="1" height="1" fill="#00396D" />
<rect x="53" y="65" width="1" height="1" fill="#00396D" />
<rect x="54" y="65" width="1" height="1" fill="#391F21" />
<rect x="55" y="65" width="1" height="1" fill="#1C121C" />
<rect x="57" y="65" width="1" height="1" fill="#1C121C" />
<rect x="73" y="65" width="1" height="1" fill="#0069AA" />
<rect x="75" y="65" width="1" height="1" fill="#00396D" />
<rect x="76" y="65" width="1" height="1" fill="#00396D" />
<rect x="77" y="65" width="1" height="1" fill="#00396D" />
<rect x="37" y="66" width="1" height="1" fill="#00396D" />
<rect x="43" y="66" width="1" height="1" fill="#391F21" />
<rect x="48" y="66" width="1" height="1" fill="#0098DC" />
<rect x="52" y="66" width="1" height="1" fill="#00396D" />
<rect x="53" y="66" width="1" height="1" fill="#00396D" />
<rect x="54" y="66" width="1" height="1" fill="#1A1932" />
<rect x="76" y="66" width="1" height="1" fill="#00396D" />
<rect x="77" y="66" width="1" height="1" fill="#00396D" />
<rect x="38" y="67" width="1" height="1" fill="#5D2C28" />
<rect x="39" y="67" width="1" height="1" fill="#5D2C28" />
<rect x="44" y="67" width="1" height="1" fill="#391F21" />
<rect x="45" y="67" width="1" height="1" fill="#FFFFFF" />
<rect x="46" y="67" width="1" height="1" fill="#5D2C28" />
<rect x="47" y="67" width="1" height="1" fill="#5D2C28" />
<rect x="57" y="67" width="1" height="1" fill="#1C121C" />
<rect x="59" y="67" width="1" height="1" fill="#00396D" />
<rect x="77" y="67" width="1" height="1" fill="#00396D" />
<rect x="79" y="67" width="1" height="1" fill="#00396D" />
<rect x="40" y="68" width="1" height="1" fill="#5D2C28" />
<rect x="41" y="68" width="1" height="1" fill="#5D2C28" />
<rect x="42" y="68" width="1" height="1" fill="#391F21" />
<rect x="44" y="68" width="1" height="1" fill="#391F21" />
<rect x="45" y="68" width="1" height="1" fill="#391F21" />
<rect x="46" y="68" width="1" height="1" fill="#5D2C28" />
<rect x="47" y="68" width="1" height="1" fill="#8A4836" />
<rect x="48" y="68" width="1" height="1" fill="#0069AA" />
<rect x="49" y="68" width="1" height="1" fill="#0069AA" />
<rect x="50" y="68" width="1" height="1" fill="#00396D" />
<rect x="51" y="68" width="1" height="1" fill="#00396D" />
<rect x="52" y="68" width="1" height="1" fill="#1A1932" />
<rect x="54" y="68" width="1" height="1" fill="#5D2C28" />
<rect x="76" y="68" width="1" height="1" fill="#00396D" />
<rect x="77" y="68" width="1" height="1" fill="#00396D" />
<rect x="79" y="68" width="1" height="1" fill="#00396D" />
<rect x="80" y="68" width="1" height="1" fill="#00396D" />
<rect x="38" y="69" width="1" height="1" fill="#5D2C28" />
<rect x="39" y="69" width="1" height="1" fill="#5D2C28" />
<rect x="40" y="69" width="1" height="1" fill="#5D2C28" />
<rect x="41" y="69" width="1" height="1" fill="#391F21" />
<rect x="42" y="69" width="1" height="1" fill="#391F21" />
<rect x="43" y="69" width="1" height="1" fill="#391F21" />
<rect x="44" y="69" width="1" height="1" fill="#1C121C" />
<rect x="47" y="69" width="1" height="1" fill="#5D2C28" />
<rect x="51" y="69" width="1" height="1" fill="#8A4836" />
<rect x="52" y="69" width="1" height="1" fill="#8A4836" />
<rect x="53" y="69" width="1" height="1" fill="#5D2C28" />
<rect x="56" y="69" width="1" height="1" fill="#391F21" />
<rect x="57" y="69" width="1" height="1" fill="#1C121C" />
<rect x="79" y="69" width="1" height="1" fill="#00396D" />
<rect x="40" y="70" width="1" height="1" fill="#5D2C28" />
<rect x="41" y="70" width="1" height="1" fill="#391F21" />
<rect x="43" y="70" width="1" height="1" fill="#391F21" />
<rect x="45" y="70" width="1" height="1" fill="#5D2C28" />
<rect x="46" y="70" width="1" height="1" fill="#391F21" />
<rect x="49" y="70" width="1" height="1" fill="#00396D" />
<rect x="54" y="70" width="1" height="1" fill="#5D2C28" />
<rect x="57" y="70" width="1" height="1" fill="#1C121C" />
<rect x="59" y="70" width="1" height="1" fill="#0069AA" />
<rect x="77" y="70" width="1" height="1" fill="#00396D" />
<rect x="78" y="70" width="1" height="1" fill="#00396D" />
<rect x="37" y="71" width="1" height="1" fill="#5D2C28" />
<rect x="38" y="71" width="1" height="1" fill="#391F21" />
<rect x="39" y="71" width="1" height="1" fill="#5D2C28" />
<rect x="40" y="71" width="1" height="1" fill="#391F21" />
<rect x="45" y="71" width="1" height="1" fill="#5D2C28" />
<rect x="52" y="71" width="1" height="1" fill="#5D2C28" />
<rect x="53" y="71" width="1" height="1" fill="#5D2C28" />
<rect x="55" y="71" width="1" height="1" fill="#391F21" />
<rect x="57" y="71" width="1" height="1" fill="#1C121C" />
<rect x="59" y="71" width="1" height="1" fill="#00396D" />
<rect x="60" y="71" width="1" height="1" fill="#00396D" />
<rect x="61" y="71" width="1" height="1" fill="#0069AA" />
<rect x="62" y="71" width="1" height="1" fill="#00396D" />
<rect x="73" y="71" width="1" height="1" fill="#0069AA" />
<rect x="77" y="71" width="1" height="1" fill="#00396D" />
<rect x="78" y="71" width="1" height="1" fill="#00396D" />
<rect x="79" y="71" width="1" height="1" fill="#00396D" />
<rect x="38" y="72" width="1" height="1" fill="#391F21" />
<rect x="39" y="72" width="1" height="1" fill="#391F21" />
<rect x="42" y="72" width="1" height="1" fill="#1C121C" />
<rect x="45" y="72" width="1" height="1" fill="#5D2C28" />
<rect x="46" y="72" width="1" height="1" fill="#5D2C28" />
<rect x="47" y="72" width="1" height="1" fill="#8A4836" />
<rect x="48" y="72" width="1" height="1" fill="#8A4836" />
<rect x="49" y="72" width="1" height="1" fill="#391F21" />
<rect x="53" y="72" width="1" height="1" fill="#5D2C28" />
<rect x="54" y="72" width="1" height="1" fill="#391F21" />
<rect x="59" y="72" width="1" height="1" fill="#0069AA" />
<rect x="60" y="72" width="1" height="1" fill="#0069AA" />
<rect x="61" y="72" width="1" height="1" fill="#0069AA" />
<rect x="62" y="72" width="1" height="1" fill="#0069AA" />
<rect x="63" y="72" width="1" height="1" fill="#0069AA" />
<rect x="65" y="72" width="1" height="1" fill="#0069AA" />
<rect x="73" y="72" width="1" height="1" fill="#0069AA" />
<rect x="78" y="72" width="1" height="1" fill="#BF6F4A" />
<rect x="79" y="72" width="1" height="1" fill="#00396D" />
<rect x="37" y="73" width="1" height="1" fill="#391F21" />
<rect x="43" y="73" width="1" height="1" fill="#391F21" />
<rect x="44" y="73" width="1" height="1" fill="#1C121C" />
<rect x="45" y="73" width="1" height="1" fill="#1C121C" />
<rect x="47" y="73" width="1" height="1" fill="#8A4836" />
<rect x="48" y="73" width="1" height="1" fill="#391F21" />
<rect x="56" y="73" width="1" height="1" fill="#1C121C" />
<rect x="60" y="73" width="1" height="1" fill="#0069AA" />
<rect x="61" y="73" width="1" height="1" fill="#0069AA" />
<rect x="62" y="73" width="1" height="1" fill="#0069AA" />
<rect x="63" y="73" width="1" height="1" fill="#0069AA" />
<rect x="65" y="73" width="1" height="1" fill="#0069AA" />
<rect x="66" y="73" width="1" height="1" fill="#0069AA" />
<rect x="67" y="73" width="1" height="1" fill="#0069AA" />
<rect x="73" y="73" width="1" height="1" fill="#0069AA" />
<rect x="74" y="73" width="1" height="1" fill="#00396D" />
<rect x="76" y="73" width="1" height="1" fill="#00396D" />
<rect x="77" y="73" width="1" height="1" fill="#00396D" />
<rect x="78" y="73" width="1" height="1" fill="#BF6F4A" />
<rect x="79" y="73" width="1" height="1" fill="#BF6F4A" />
<rect x="39" y="74" width="1" height="1" fill="#391F21" />
<rect x="42" y="74" width="1" height="1" fill="#1C121C" />
<rect x="43" y="74" width="1" height="1" fill="#1C121C" />
<rect x="45" y="74" width="1" height="1" fill="#00396D" />
<rect x="48" y="74" width="1" height="1" fill="#391F21" />
<rect x="70" y="74" width="1" height="1" fill="#0069AA" />
<rect x="74" y="74" width="1" height="1" fill="#00396D" />
<rect x="75" y="74" width="1" height="1" fill="#00396D" />
<rect x="77" y="74" width="1" height="1" fill="#00396D" />
<rect x="78" y="74" width="1" height="1" fill="#00396D" />
<rect x="43" y="75" width="1" height="1" fill="#00396D" />
<rect x="45" y="75" width="1" height="1" fill="#00396D" />
<rect x="55" y="75" width="1" height="1" fill="#1C121C" />
<rect x="65" y="75" width="1" height="1" fill="#0069AA" />
<rect x="66" y="75" width="1" height="1" fill="#0069AA" />
<rect x="67" y="75" width="1" height="1" fill="#0069AA" />
<rect x="69" y="75" width="1" height="1" fill="#0069AA" />
<rect x="70" y="75" width="1" height="1" fill="#0069AA" />
<rect x="71" y="75" width="1" height="1" fill="#0069AA" />
<rect x="72" y="75" width="1" height="1" fill="#0069AA" />
<rect x="74" y="75" width="1" height="1" fill="#0069AA" />
<rect x="75" y="75" width="1" height="1" fill="#00396D" />
<rect x="78" y="75" width="1" height="1" fill="#BF6F4A" />
<rect x="42" y="76" width="1" height="1" fill="#0069AA" />
<rect x="43" y="76" width="1" height="1" fill="#00396D" />
<rect x="44" y="76" width="1" height="1" fill="#00396D" />
<rect x="57" y="76" width="1" height="1" fill="#0069AA" />
<rect x="62" y="76" width="1" height="1" fill="#00396D" />
<rect x="63" y="76" width="1" height="1" fill="#0069AA" />
<rect x="66" y="76" width="1" height="1" fill="#0069AA" />
<rect x="67" y="76" width="1" height="1" fill="#00396D" />
<rect x="70" y="76" width="1" height="1" fill="#0069AA" />
<rect x="71" y="76" width="1" height="1" fill="#0069AA" />
<rect x="72" y="76" width="1" height="1" fill="#0069AA" />
<rect x="74" y="76" width="1" height="1" fill="#0069AA" />
<rect x="75" y="76" width="1" height="1" fill="#00396D" />
<rect x="39" y="77" width="1" height="1" fill="#0069AA" />
<rect x="41" y="77" width="1" height="1" fill="#0069AA" />
<rect x="42" y="77" width="1" height="1" fill="#0069AA" />
<rect x="43" y="77" width="1" height="1" fill="#0069AA" />
<rect x="44" y="77" width="1" height="1" fill="#00396D" />
<rect x="54" y="77" width="1" height="1" fill="#00396D" />
<rect x="59" y="77" width="1" height="1" fill="#BF6F4A" />
<rect x="63" y="77" width="1" height="1" fill="#E69C69" />
<rect x="64" y="77" width="1" height="1" fill="#0069AA" />
<rect x="67" y="77" width="1" height="1" fill="#E69C69" />
<rect x="68" y="77" width="1" height="1" fill="#00396D" />
<rect x="70" y="77" width="1" height="1" fill="#0069AA" />
<rect x="71" y="77" width="1" height="1" fill="#0069AA" />
<rect x="72" y="77" width="1" height="1" fill="#BF6F4A" />
<rect x="75" y="77" width="1" height="1" fill="#BF6F4A" />
<rect x="78" y="77" width="1" height="1" fill="#BF6F4A" />
<rect x="41" y="78" width="1" height="1" fill="#0069AA" />
<rect x="43" y="78" width="1" height="1" fill="#0069AA" />
<rect x="58" y="78" width="1" height="1" fill="#0098DC" />
<rect x="64" y="78" width="1" height="1" fill="#E69C69" />
<rect x="65" y="78" width="1" height="1" fill="#E69C69" />
<rect x="66" y="78" width="1" height="1" fill="#E69C69" />
<rect x="70" y="78" width="1" height="1" fill="#00396D" />
<rect x="71" y="78" width="1" height="1" fill="#0069AA" />
<rect x="72" y="78" width="1" height="1" fill="#0069AA" />
<rect x="73" y="78" width="1" height="1" fill="#BF6F4A" />
<rect x="76" y="78" width="1" height="1" fill="#BF6F4A" />
<rect x="39" y="79" width="1" height="1" fill="#0069AA" />
<rect x="41" y="79" width="1" height="1" fill="#00396D" />
<rect x="42" y="79" width="1" height="1" fill="#00396D" />
<rect x="53" y="79" width="1" height="1" fill="#00396D" />
<rect x="54" y="79" width="1" height="1" fill="#00396D" />
<rect x="55" y="79" width="1" height="1" fill="#0069AA" />
<rect x="57" y="79" width="1" height="1" fill="#00396D" />
<rect x="58" y="79" width="1" height="1" fill="#0069AA" />
<rect x="59" y="79" width="1" height="1" fill="#0069AA" />
<rect x="62" y="79" width="1" height="1" fill="#BF6F4A" />
<rect x="71" y="79" width="1" height="1" fill="#00396D" />
<rect x="72" y="79" width="1" height="1" fill="#BF6F4A" />
<rect x="73" y="79" width="1" height="1" fill="#BF6F4A" />
<rect x="34" y="80" width="1" height="1" fill="#0069AA" />
<rect x="37" y="80" width="1" height="1" fill="#0069AA" />
<rect x="38" y="80" width="1" height="1" fill="#0069AA" />
<rect x="39" y="80" width="1" height="1" fill="#0069AA" />
<rect x="40" y="80" width="1" height="1" fill="#00396D" />
<rect x="41" y="80" width="1" height="1" fill="#00396D" />
<rect x="42" y="80" width="1" height="1" fill="#00396D" />
<rect x="51" y="80" width="1" height="1" fill="#0098DC" />
<rect x="52" y="80" width="1" height="1" fill="#0098DC" />
<rect x="53" y="80" width="1" height="1" fill="#00396D" />
<rect x="54" y="80" width="1" height="1" fill="#0069AA" />
<rect x="55" y="80" width="1" height="1" fill="#00396D" />
<rect x="56" y="80" width="1" height="1" fill="#0069AA" />
<rect x="57" y="80" width="1" height="1" fill="#0069AA" />
<rect x="35" y="81" width="1" height="1" fill="#0069AA" />
<rect x="36" y="81" width="1" height="1" fill="#0069AA" />
<rect x="41" y="81" width="1" height="1" fill="#00396D" />
<rect x="54" y="81" width="1" height="1" fill="#0069AA" />
<rect x="55" y="81" width="1" height="1" fill="#0069AA" />
<rect x="57" y="81" width="1" height="1" fill="#0069AA" />
<rect x="34" y="82" width="1" height="1" fill="#00396D" />
<rect x="36" y="82" width="1" height="1" fill="#0069AA" />
<rect x="38" y="82" width="1" height="1" fill="#00396D" />
<rect x="40" y="82" width="1" height="1" fill="#00396D" />
<rect x="33" y="83" width="1" height="1" fill="#00396D" />
<rect x="34" y="83" width="1" height="1" fill="#00396D" />
<rect x="35" y="83" width="1" height="1" fill="#00396D" />
<rect x="36" y="83" width="1" height="1" fill="#00396D" />
<rect x="38" y="83" width="1" height="1" fill="#00396D" />
<rect x="53" y="83" width="1" height="1" fill="#00396D" />
<rect x="54" y="83" width="1" height="1" fill="#0069AA" />
<rect x="56" y="83" width="1" height="1" fill="#0069AA" />
<rect x="37" y="85" width="1" height="1" fill="#00396D" />
</svg>